<?xml version="1.0" encoding="utf-8"?>
<!-- Generator: Adobe Illustrator 19.0.0, SVG Export Plug-In . SVG Version: 6.00 Build 0)  -->
<svg version="1.1" id="Capa_1" xmlns="http://www.w3.org/2000/svg" xmlns:xlink="http://www.w3.org/1999/xlink" x="0px" y="0px"
	 viewBox="-49.3 557.3 24 24" style="enable-background:new -49.3 557.3 24 24;" xml:space="preserve">
<style type="text/css">
	.st0{fill:#FFFFFF;}
	.st1{fill:#8E8E8E;}
</style>
<circle class="st0" cx="-37.3" cy="569.3" r="10.5"/>
<g>
	<path class="st1" d="M-37.3,557.3c-6.6,0-12,5.4-12,12s5.4,12,12,12s12-5.4,12-12S-30.6,557.3-37.3,557.3z M-37.3,579.7
		c-5.8,0-10.5-4.7-10.5-10.5s4.7-10.5,10.5-10.5s10.5,4.7,10.5,10.5S-31.5,579.7-37.3,579.7z"/>
	<path class="st1" d="M-32.2,567.3c-0.8,0-1.5,0.5-1.8,1.2h-6.7l2.1-1.9c0.3-0.3,0.3-0.8,0-1.1c-0.3-0.3-0.8-0.3-1.1,0l-3.5,3.3
		c-0.2,0.1-0.2,0.3-0.2,0.6s0.1,0.4,0.2,0.6l3.5,3.3c0.1,0.1,0.3,0.2,0.5,0.2c0.2,0,0.4-0.1,0.6-0.2c0.3-0.3,0.3-0.8,0-1.1l-2.1-1.9
		h6.7c0.3,0.7,1,1.2,1.8,1.2c1.1,0,1.9-0.9,1.9-1.9S-31.1,567.3-32.2,567.3z M-32.2,569.7c-0.2,0-0.4-0.2-0.4-0.4s0.2-0.4,0.4-0.4
		c0.2,0,0.4,0.2,0.4,0.4S-32,569.7-32.2,569.7z"/>
</g>
</svg>
