<?xml version="1.0" encoding="utf-8"?>
<!-- Generator: Adobe Illustrator 19.2.0, SVG Export Plug-In . SVG Version: 6.00 Build 0)  -->
<svg version="1.1" id="Capa_1" xmlns="http://www.w3.org/2000/svg" xmlns:xlink="http://www.w3.org/1999/xlink" x="0px" y="0px"
	 viewBox="0 0 24 24" style="enable-background:new 0 0 24 24;" xml:space="preserve">
<style type="text/css">
	.st0{fill:#FFFFFF;}
	.st1{fill:#463B6B;}
</style>
<circle class="st0" cx="12" cy="12" r="10.5"/>
<g>
	<path class="st1" d="M12,24c6.6,0,12-5.4,12-12S18.6,0,12,0S0,5.4,0,12S5.4,24,12,24z M12,1.5c5.8,0,10.5,4.7,10.5,10.5
		S17.8,22.5,12,22.5S1.5,17.8,1.5,12S6.3,1.5,12,1.5z"/>
	<path class="st1" d="M7,13.9c0.8,0,1.5-0.5,1.8-1.2h6.7l-2.1,1.9c-0.3,0.3-0.3,0.8,0,1.1s0.8,0.3,1.1,0l3.5-3.3
		c0.2-0.1,0.2-0.3,0.2-0.6s-0.1-0.4-0.2-0.6l-3.5-3.3c-0.1-0.1-0.3-0.2-0.5-0.2s-0.4,0.1-0.6,0.2c-0.3,0.3-0.3,0.8,0,1.1l2.1,1.9
		H8.8c-0.3-0.7-1-1.2-1.8-1.2c-1.1,0-1.9,0.9-1.9,1.9S5.9,13.9,7,13.9z M7,11.6c0.2,0,0.4,0.2,0.4,0.4S7.2,12.4,7,12.4
		S6.6,12.2,6.6,12S6.8,11.6,7,11.6z"/>
</g>
</svg>
