<?xml version="1.0" encoding="utf-8"?>
<!-- Generator: Adobe Illustrator 19.2.0, SVG Export Plug-In . SVG Version: 6.00 Build 0)  -->
<svg version="1.1" id="Capa_1" xmlns="http://www.w3.org/2000/svg" xmlns:xlink="http://www.w3.org/1999/xlink" x="0px" y="0px"
	 viewBox="0 0 24 24" style="enable-background:new 0 0 24 24;" xml:space="preserve">
<style type="text/css">
	.st0{fill:#FFFFFF;}
	.st1{fill:#463B6B;}
</style>
<circle class="st0" cx="12" cy="12" r="10.5"/>
<g>
	<path class="st1" d="M12,0C5.4,0,0,5.4,0,12s5.4,12,12,12s12-5.4,12-12S18.7,0,12,0z M12,22.4c-5.8,0-10.5-4.7-10.5-10.5
		S6.2,1.4,12,1.4s10.5,4.7,10.5,10.5S17.8,22.4,12,22.4z"/>
	<path class="st1" d="M17.1,10c-0.8,0-1.5,0.5-1.8,1.2H8.6l2.1-1.9C11,9,11,8.5,10.7,8.2s-0.8-0.3-1.1,0l-3.5,3.3
		c-0.2,0.1-0.2,0.3-0.2,0.6s0.1,0.4,0.2,0.6L9.6,16c0.1,0.1,0.3,0.2,0.5,0.2s0.4-0.1,0.6-0.2c0.3-0.3,0.3-0.8,0-1.1L8.6,13h6.7
		c0.3,0.7,1,1.2,1.8,1.2c1.1,0,1.9-0.9,1.9-1.9S18.2,10,17.1,10z M17.1,12.4c-0.2,0-0.4-0.2-0.4-0.4s0.2-0.4,0.4-0.4
		s0.4,0.2,0.4,0.4S17.3,12.4,17.1,12.4z"/>
</g>
</svg>
