<?xml version="1.0" encoding="utf-8"?>
<!-- Generator: Adobe Illustrator 19.0.0, SVG Export Plug-In . SVG Version: 6.00 Build 0)  -->
<svg version="1.1" id="Capa_1" xmlns="http://www.w3.org/2000/svg" xmlns:xlink="http://www.w3.org/1999/xlink" x="0px" y="0px"
	 viewBox="-49.3 557.3 24 24" style="enable-background:new -49.3 557.3 24 24;" xml:space="preserve">
<style type="text/css">
	.st0{fill:#FFFFFF;}
	.st1{fill:#8E8E8E;}
</style>
<circle class="st0" cx="-37.3" cy="569.3" r="10.5"/>
<g>
	<path class="st1" d="M-37.3,581.3c6.6,0,12-5.4,12-12s-5.4-12-12-12s-12,5.4-12,12S-43.9,581.3-37.3,581.3z M-37.3,558.8
		c5.8,0,10.5,4.7,10.5,10.5s-4.7,10.5-10.5,10.5s-10.5-4.7-10.5-10.5S-43,558.8-37.3,558.8z"/>
	<path class="st1" d="M-42.3,571.2c0.8,0,1.5-0.5,1.8-1.2h6.7l-2.1,1.9c-0.3,0.3-0.3,0.8,0,1.1c0.3,0.3,0.8,0.3,1.1,0l3.5-3.3
		c0.2-0.1,0.2-0.3,0.2-0.6s-0.1-0.4-0.2-0.6l-3.5-3.3c-0.1-0.1-0.3-0.2-0.5-0.2c-0.2,0-0.4,0.1-0.6,0.2c-0.3,0.3-0.3,0.8,0,1.1
		l2.1,1.9h-6.7c-0.3-0.7-1-1.2-1.8-1.2c-1.1,0-1.9,0.9-1.9,1.9S-43.4,571.2-42.3,571.2z M-42.3,568.9c0.2,0,0.4,0.2,0.4,0.4
		s-0.2,0.4-0.4,0.4c-0.2,0-0.4-0.2-0.4-0.4S-42.5,568.9-42.3,568.9z"/>
</g>
</svg>
