<?xml version="1.0" encoding="utf-8"?>
<!-- Generator: Adobe Illustrator 19.0.0, SVG Export Plug-In . SVG Version: 6.00 Build 0)  -->
<svg version="1.1" id="Capa_1" xmlns="http://www.w3.org/2000/svg" xmlns:xlink="http://www.w3.org/1999/xlink" x="0px" y="0px"
	 viewBox="-248 372.5 97.4 97.4" style="enable-background:new -248 372.5 97.4 97.4;" xml:space="preserve">
<style type="text/css">
	.st0{fill:#FFFFFF;}
</style>
<g>
	<g>
		<path class="st0" d="M-150.7,443.8c-0.1-0.1-0.2-0.2-0.4-0.2h-96.4c-0.1,0-0.3,0.1-0.4,0.2c-0.1,0.1-0.1,0.3-0.1,0.4
			c0,0.1,1.5,9,12.8,9h71.9c11.3,0,12.7-8.9,12.8-9C-150.6,444-150.6,443.9-150.7,443.8z M-192.1,450.1h-14.5v-3.3h14.5V450.1z"/>
		<path class="st0" d="M-237.5,440.1h76.4c1.1,0,2-0.9,2-2v-46.9c0-1.1-0.9-2-2-2h-76.4c-1.1,0-2,0.9-2,2v46.9
			C-239.5,439.2-238.6,440.1-237.5,440.1z M-232.5,396.2h66.4v36.9h-66.4C-232.5,433.1-232.5,396.2-232.5,396.2z"/>
	</g>
</g>
</svg>
