<?xml version="1.0" encoding="utf-8"?>
<!-- Generator: Adobe Illustrator 19.0.0, SVG Export Plug-In . SVG Version: 6.00 Build 0)  -->
<svg version="1.1" id="Layer_1" xmlns="http://www.w3.org/2000/svg" xmlns:xlink="http://www.w3.org/1999/xlink" x="0px" y="0px"
	 viewBox="0 0 128 128" enable-background="new 0 0 128 128" xml:space="preserve">
<path id="XMLID_13_" fill="#FFFFFF" d="M121.7,38.78c-0.78-0.78-2.05-0.78-2.83,0l-3.56,3.56c-0.68-15.95-13.52-28.8-29.47-29.47
	l3.56-3.56c0.78-0.78,0.78-2.05,0-2.83c-0.78-0.78-2.05-0.78-2.83,0l-6.94,6.94c-0.49,0.49-0.67,1.16-0.55,1.79
	c0,0.02,0,0.04,0,0.07c0.09,0.71,0.54,1.29,1.15,1.57l6.34,6.34c0.39,0.39,0.9,0.59,1.41,0.59s1.02-0.2,1.41-0.59
	c0.78-0.78,0.78-2.05,0-2.83l-3.49-3.49c13.69,0.7,24.7,11.71,25.4,25.4l-3.49-3.49c-0.78-0.78-2.05-0.78-2.83,0s-0.78,2.05,0,2.83
	l6.35,6.34c0.28,0.61,0.86,1.06,1.57,1.15c0.03,0,0.07,0,0.1,0.01c0.11,0.02,0.23,0.03,0.34,0.03c0.51,0,1.02-0.2,1.41-0.59
	l6.94-6.94C122.48,40.83,122.48,39.56,121.7,38.78z"/>
<path id="XMLID_32_" fill="#FFFFFF" d="M120,66H66v4h54v50H45V87h13c2.21,0,4-1.79,4-4V70v-4V8c0-2.21-1.79-4-4-4H8
	C5.79,4,4,5.79,4,8v75c0,2.21,1.79,4,4,4h29v-4H8V8h50v58H45c-2.21,0-4,1.79-4,4v0.13V83v4v33c0,2.21,1.79,4,4,4h75
	c2.21,0,4-1.79,4-4V70C124,67.79,122.21,66,120,66z M45,70h13v13H45V70z"/>
</svg>
