<?xml version="1.0" encoding="utf-8"?>
<!-- Generator: Adobe Illustrator 19.0.0, SVG Export Plug-In . SVG Version: 6.00 Build 0)  -->
<svg version="1.1" id="Capa_1" xmlns="http://www.w3.org/2000/svg" xmlns:xlink="http://www.w3.org/1999/xlink" x="0px" y="0px"
	 viewBox="8 114.9 612 612" style="enable-background:new 8 114.9 612 612;" xml:space="preserve">
<style type="text/css">
	.st0{fill:#FFFFFF;}
</style>
<g>
	<g>
		<path class="st0" d="M197.4,466.5l42-23.8l-7.4-26.8c-63.7-6-113.6-59.7-113.6-125.1c0-69.5,56-125.5,125.6-125.5
			c23.2,0,45,6.3,63.6,17.3c6.4,3.8,13.1-4.5,8.1-10c-32.4-35.7-79.2-58-131.2-57.8C87.9,115.4,9.3,194.4,9.4,291.1
			c0.1,97.1,78.9,175.8,176,175.8C189.4,466.9,193.5,466.8,197.4,466.5z"/>
		<path class="st0" d="M441.7,350.2l-28.8-50.9c-2.5-4.4-6.9-6.6-11.3-6.6s-8.8,2.2-11.3,6.6l-28.8,50.9c13-3.3,26.5-4.9,40.1-4.9
			C415.2,345.2,428.6,346.9,441.7,350.2z"/>
		<path class="st0" d="M361.4,669.4l28.8,50.9c2.5,4.4,6.9,6.6,11.3,6.6c4.4,0,8.8-2.2,11.3-6.6l28.8-50.9
			c-13,3.3-26.5,4.9-40.1,4.9C387.9,674.4,374.4,672.7,361.4,669.4z"/>
		<path class="st0" d="M191,498.5c-8.8,5-8.8,17.6,0,22.6l50.9,28.8c-3.3-13-4.9-26.5-4.9-40.1c0-13.7,1.7-27.1,4.9-40.1L191,498.5z
			"/>
		<path class="st0" d="M612,498.5l-50.9-28.8c3.3,13,4.9,26.5,4.9,40.1c0,13.7-1.7,27.1-4.9,40.1l50.9-28.8
			C620.8,516.1,620.8,503.5,612,498.5z"/>
		<path class="st0" d="M545.9,352.5c-1.1,0-2.3,0.2-3.5,0.5L486,368.6c11.6,6.9,22.2,15.2,31.9,24.9c9.7,9.7,18,20.3,24.9,31.9
			l15.6-56.4C560.7,360.4,554.1,352.5,545.9,352.5z"/>
		<path class="st0" d="M257.2,667.1c1.1,0,2.3-0.2,3.5-0.5l56.4-15.6c-11.6-6.9-22.2-15.2-31.9-24.9c-9.7-9.7-18-20.3-24.9-31.9
			l-15.6,56.4C242.3,659.2,248.9,667.1,257.2,667.1z"/>
		<path class="st0" d="M257.2,352.5c-8.2,0-14.8,7.9-12.5,16.5l12.9,46.8l2.7,9.6c2.3-3.8,4.7-7.5,7.3-11.1
			c5.3-7.4,11.2-14.3,17.6-20.8c9.7-9.7,20.3-18,31.9-24.9L260.7,353C259.5,352.6,258.3,352.5,257.2,352.5z"/>
		<path class="st0" d="M545.9,667.1c8.2,0,14.8-7.9,12.5-16.5l-15.6-56.4c-6.9,11.6-15.2,22.2-24.9,31.9c-9.7,9.7-20.3,18-31.9,24.9
			l56.4,15.6C543.6,667,544.8,667.1,545.9,667.1z"/>
		<path class="st0" d="M341.3,381.4c-2.4,1.1-4.8,2.3-7.1,3.6c-2.2,1.2-4.4,2.5-6.5,3.8c-6,3.7-11.8,7.8-17.2,12.3
			c-6.4,5.4-12.3,11.3-17.7,17.7c-4.5,5.4-8.6,11.1-12.3,17.2c-1,1.6-2,3.3-2.9,4.9c-1.6,2.8-3.1,5.7-4.5,8.7c-1.8,3.9-3.5,7.9-5,12
			c-1.8,4.8-3.2,9.8-4.5,14.9c-1.6,6.8-2.8,13.7-3.4,20.9c-0.4,4.1-0.6,8.3-0.6,12.5c0,4.2,0.2,8.4,0.6,12.5
			c0.6,7.1,1.8,14.1,3.4,20.9c1.2,5.1,2.7,10,4.5,14.9c1.5,4.1,3.2,8.1,5,12c2.2,4.7,4.7,9.2,7.3,13.6c3.7,6,7.8,11.8,12.3,17.2
			c5.4,6.4,11.3,12.3,17.7,17.7c5.4,4.5,11.1,8.7,17.2,12.3c4.4,2.7,9,5.1,13.6,7.3c3.9,1.8,7.9,3.5,12,5c4.8,1.8,9.8,3.2,14.9,4.5
			c6.8,1.6,13.7,2.8,20.9,3.4c4.1,0.4,8.3,0.6,12.5,0.6s8.4-0.2,12.5-0.6c7.1-0.6,14.1-1.8,20.9-3.4c5.1-1.2,10-2.7,14.9-4.5
			c4.1-1.5,8.1-3.2,12-5c4.7-2.2,9.3-4.7,13.6-7.3c6-3.7,11.8-7.8,17.2-12.3c6.4-5.4,12.3-11.3,17.7-17.7
			c4.5-5.4,8.7-11.1,12.3-17.2c2.7-4.4,5.1-9,7.3-13.6c1.8-3.9,3.5-7.9,5-12c1.8-4.8,3.2-9.8,4.5-14.9c1.6-6.8,2.8-13.7,3.4-20.8
			c0.4-4.1,0.6-8.3,0.6-12.5c0-4.2-0.2-8.4-0.6-12.5c-0.6-7.1-1.8-14.1-3.4-20.9c-1.2-5.1-2.7-10-4.5-14.9c-1.5-4.1-3.2-8.1-5-12
			c-2.2-4.7-4.7-9.2-7.3-13.6c-3.7-6-7.8-11.8-12.3-17.2c-5.4-6.4-11.3-12.3-17.7-17.7c-5.4-4.5-11.1-8.6-17.2-12.3
			c-4.4-2.7-9-5.1-13.6-7.3c-3.9-1.8-7.9-3.5-12-5c-4.8-1.8-9.8-3.2-14.9-4.5c-6.8-1.6-13.7-2.8-20.9-3.4c-4.1-0.4-8.3-0.6-12.5-0.6
			c-4.2,0-8.4,0.2-12.5,0.6c-7.1,0.6-14.1,1.8-20.9,3.4c-5.1,1.2-10,2.7-14.9,4.5C349.2,377.9,345.2,379.5,341.3,381.4z"/>
	</g>
</g>
</svg>
