<?xml version="1.0" encoding="utf-8"?>
<!-- Generator: Adobe Illustrator 19.0.0, SVG Export Plug-In . SVG Version: 6.00 Build 0)  -->
<svg version="1.1" xmlns="http://www.w3.org/2000/svg" xmlns:xlink="http://www.w3.org/1999/xlink" x="0px" y="0px"
	 viewBox="233.6 130.4 25 25" style="enable-background:new 233.6 130.4 25 25;" xml:space="preserve">
<style type="text/css">
	.st0{fill:#FFFFFF;}
	.st1{fill:url(#SVGID_1_);}
	.st2{fill:url(#SVGID_2_);}
	.st3{fill:url(#SVGID_3_);}
	.st4{fill:url(#SVGID_4_);}
	.st5{opacity:0.22;fill:#7D7D7D;enable-background:new    ;}
	.st6{fill:#CECCCC;}
	.st7{display:none;}
	.st8{display:inline;}
</style>
<g id="Layer_1">
	<path class="st0" d="M246.1,130.9c-6.6,0-12,5.4-12,12c0,6.6,5.4,12,12,12c6.6,0,12-5.4,12-12C258,136.3,252.7,130.9,246.1,130.9z
		 M246.1,147.7c-2.7,0-4.8-2.1-4.8-4.8c0-2.7,2.1-4.8,4.8-4.8s4.8,2.1,4.8,4.8C250.9,145.6,248.7,147.7,246.1,147.7z"/>
	<g id="Layer_4">
		
			<linearGradient id="SVGID_1_" gradientUnits="userSpaceOnUse" x1="244.7641" y1="996.1372" x2="241.0913" y2="1003.929" gradientTransform="matrix(1 0 0 -1 0 1134.8)">
			<stop  offset="0" style="stop-color:#AF1216"/>
			<stop  offset="2.054848e-002" style="stop-color:#AF1317"/>
			<stop  offset="0.2402" style="stop-color:#BA191E"/>
			<stop  offset="0.4647" style="stop-color:#C01D22"/>
			<stop  offset="0.6952" style="stop-color:#C42025"/>
			<stop  offset="0.9406" style="stop-color:#C52026"/>
		</linearGradient>
		<path class="st1" d="M246.1,130.9l0,7.2c0,0-1.9-0.1-3.3,1.3l-5.1-5.1C237.7,134.3,241.3,130.7,246.1,130.9z"/>
		
			<linearGradient id="SVGID_2_" gradientUnits="userSpaceOnUse" x1="241.7348" y1="990.2774" x2="233.8766" y2="986.9703" gradientTransform="matrix(1 0 0 -1 0 1134.8)">
			<stop  offset="0" style="stop-color:#AF1216"/>
			<stop  offset="2.054848e-002" style="stop-color:#AF1317"/>
			<stop  offset="0.2402" style="stop-color:#BA191E"/>
			<stop  offset="0.4647" style="stop-color:#C01D22"/>
			<stop  offset="0.6952" style="stop-color:#C42025"/>
			<stop  offset="0.9406" style="stop-color:#C52026"/>
		</linearGradient>
		<path class="st2" d="M234.1,142.8h7.2c0,0-0.1,2,1.3,3.4l-5.1,5C237.5,151.2,234,148.1,234.1,142.8z"/>
		
			<linearGradient id="SVGID_3_" gradientUnits="userSpaceOnUse" x1="247.1528" y1="989.5228" x2="251.1619" y2="979.2932" gradientTransform="matrix(1 0 0 -1 0 1134.8)">
			<stop  offset="0" style="stop-color:#AF1216"/>
			<stop  offset="2.054848e-002" style="stop-color:#AF1317"/>
			<stop  offset="0.2402" style="stop-color:#BA191E"/>
			<stop  offset="0.4647" style="stop-color:#C01D22"/>
			<stop  offset="0.6952" style="stop-color:#C42025"/>
			<stop  offset="0.9406" style="stop-color:#C52026"/>
		</linearGradient>
		<path class="st3" d="M246,154.9l0-7.1c0,0,1.9,0.1,3.3-1.4l5,5.1C254.4,151.4,250.9,155,246,154.9z"/>
		
			<linearGradient id="SVGID_4_" gradientUnits="userSpaceOnUse" x1="249.6745" y1="992.8685" x2="258.9923" y2="997.3281" gradientTransform="matrix(1 0 0 -1 0 1134.8)">
			<stop  offset="0" style="stop-color:#AF1216"/>
			<stop  offset="2.054848e-002" style="stop-color:#AF1317"/>
			<stop  offset="0.2402" style="stop-color:#BA191E"/>
			<stop  offset="0.4647" style="stop-color:#C01D22"/>
			<stop  offset="0.6952" style="stop-color:#C42025"/>
			<stop  offset="0.9406" style="stop-color:#C52026"/>
		</linearGradient>
		<path class="st4" d="M258.1,142.9l-7.2-0.1c0,0,0-1.9-1.4-3.3l5.1-5.1C254.7,134.5,258.2,137.9,258.1,142.9z"/>
	</g>
	<path class="st5" d="M246.1,135.4c-4.2,0-7.5,3.4-7.5,7.5s3.4,7.5,7.5,7.5s7.5-3.4,7.5-7.5S250.3,135.4,246.1,135.4z M246.1,147.7
		c-2.7,0-4.8-2.1-4.8-4.8c0-2.7,2.1-4.8,4.8-4.8s4.8,2.1,4.8,4.8C250.9,145.6,248.7,147.7,246.1,147.7z"/>
	<path class="st6" d="M246.1,155.4c-6.9,0-12.5-5.6-12.5-12.5s5.6-12.5,12.5-12.5s12.5,5.6,12.5,12.5S252.9,155.4,246.1,155.4z
		 M246.1,131.4c-6.3,0-11.5,5.2-11.5,11.5c0,6.3,5.2,11.5,11.5,11.5c6.3,0,11.5-5.2,11.5-11.5C257.5,136.5,252.4,131.4,246.1,131.4z
		 M246.1,148.2c-2.9,0-5.3-2.4-5.3-5.3s2.4-5.3,5.3-5.3c2.9,0,5.3,2.4,5.3,5.3S249,148.2,246.1,148.2z M246.1,138.6
		c-2.4,0-4.3,1.9-4.3,4.3s1.9,4.3,4.3,4.3c2.4,0,4.3-1.9,4.3-4.3S248.4,138.6,246.1,138.6z"/>
</g>
<g id="Layer_2" class="st7">
	<g class="st8">
		<defs>
			<rect id="SVGID_5_" x="233.6" y="130.4" width="25" height="25"/>
		</defs>
		<clipPath id="SVGID_6_">
			<use xlink:href="#SVGID_5_"  style="overflow:visible;"/>
		</clipPath>
		<g style="clip-path:url(#SVGID_6_);">
			
				<image style="overflow:visible;" width="348" height="526" xlink:href="916E0309.png"  transform="matrix(7.183561e-002 0 0 7.183564e-002 233.5894 130.7131)">
			</image>
		</g>
	</g>
</g>
</svg>
