<?xml version="1.0" encoding="utf-8"?>
<!-- Generator: Adobe Illustrator 19.0.0, SVG Export Plug-In . SVG Version: 6.00 Build 0)  -->
<svg version="1.1" id="Layer_1" xmlns="http://www.w3.org/2000/svg" xmlns:xlink="http://www.w3.org/1999/xlink" x="0px" y="0px"
	 viewBox="-149 272.9 297 297" style="enable-background:new -149 272.9 297 297;" xml:space="preserve">
<style type="text/css">
	.st0{fill:#FFFFFF;}
</style>
<g>
	<path class="st0" d="M-38.5,371.7c27.2,0,49.4-22.2,49.4-49.4c0-27.2-22.2-49.4-49.4-49.4s-49.4,22.2-49.4,49.4
		C-87.8,349.5-65.7,371.7-38.5,371.7z"/>
	<path class="st0" d="M77.8,458.2C47,458.2,22,483.3,22,514c0,30.8,25.1,55.8,55.8,55.8s55.8-25.1,55.8-55.8S108.6,458.2,77.8,458.2
		z M111.8,502.4l-36.5,36.5c-1.8,1.8-4.2,2.8-6.6,2.8s-4.8-0.9-6.6-2.8l-18.2-18.2c-3.7-3.7-3.7-9.6,0-13.3c3.7-3.7,9.6-3.7,13.3,0
		L68.7,519l29.8-29.8c3.7-3.7,9.6-3.7,13.3,0C115.5,492.8,115.5,498.8,111.8,502.4z"/>
	<path class="st0" d="M57.8,445.6v-8.7c0-18.8-12.1-35.5-29.9-41.3l-0.1,0l-26.1-4.3c-2.2-0.7-4.6,0.5-5.4,2.7l-29.6,81.3
		c-1.7,4.7-8.3,4.7-10.1,0l-29.6-81.3c-0.6-1.8-2.3-2.9-4.1-2.9c-0.4,0-27.4,4.5-27.4,4.5c-18,6-30,22.7-30,41.6v67.7
		c0,10.1,8.2,18.4,18.4,18.4H7.1c-0.4-3-0.6-6-0.6-9.1C6.5,481.7,28.2,454.3,57.8,445.6L57.8,445.6z"/>
	<path class="st0" d="M-27.5,386.3c-1.2-1.3-2.8-1.9-4.6-1.9h-12.8c-1.7,0-3.4,0.6-4.6,1.9c-1.8,2-2.1,4.8-0.8,7l6.8,10.3l-3.2,26.9
		l6.3,16.7c0.6,1.7,3,1.7,3.6,0l6.3-16.7l-3.2-26.9l6.8-10.3C-25.5,391.1-25.7,388.2-27.5,386.3z"/>
</g>
</svg>
