<?xml version="1.0" encoding="utf-8"?>
<!-- Generator: Adobe Illustrator 19.0.0, SVG Export Plug-In . SVG Version: 6.00 Build 0)  -->
<svg version="1.1" id="ชาเขียว" xmlns="http://www.w3.org/2000/svg" xmlns:xlink="http://www.w3.org/1999/xlink"
	 x="0px" y="0px" viewBox="-145.4 556.9 24 24" style="enable-background:new -145.4 556.9 24 24;" xml:space="preserve">
<style type="text/css">
	.st0{fill:#6F8817;}
	.st1{fill:#4F5E11;}
	.st2{fill:#F8A05E;}
	.st3{fill:#FDD6B1;}
	.st4{fill:#A4BA24;}
</style>
<title>nav_greentea</title>
<g id="วิปป">
	<path class="st0" d="M-144.7,576.5c0,0-2.5-3.6,2.1-5.7c0,0-2.1-4.5,3.2-4.5c0,0-0.8-4.6,3.7-3.6c0,0-2.1-2.7,2.1-4.8
		c0,0,2.1-1,3.7,0.7c0,0-2.5,0.4-1.5,1.9c0,0,0.4,0.7,0.8,0.8c0,0,1.3,0.7-0.3,1.5c0,0,2.5-0.8,3.2,0.8c0,0,0.8,1.7-0.2,2.6
		c0,0,5.7-1,3.2,4.5c0,0,6,0.3,2.1,5.8C-122.8,576.5-127.3,577.7-144.7,576.5z"/>
	<g id="ชั้นในวิปชั้นรักเธอว์">
		<path class="st1" d="M-132.5,557.7c0,0-0.6-0.1-1.5,0.5c-1.3,0.8-3,2.2-1.7,4.5c0,0,3.4,4.8,7.7,3.6c0,0,0.9-0.9,0.3-2.4
			c0,0-0.3-1.8-3.2-1.1c0,0-1.6,0.3-2.6-1.7C-133.5,561.1-134.4,559.3-132.5,557.7z"/>
		<path class="st1" d="M-139.4,566.3c0,0-5.1-0.4-3.2,4.4c0,0,4.3,5.5,12.2,6.2c0,0,7.2-0.3,7.6-0.4c0,0,4.2-5-2-5.8
			C-124.8,570.7-135.2,572.7-139.4,566.3z"/>
	</g>
</g>
<g id="ขอบถ้วยย">
	<path class="st2" d="M-144.6,576.4c0,0,10,1.1,21.8,0.1c0,0,0.8,0.3,0.8,1.6c0.1,0.6-0.2,1.3-0.8,1.6c0,0-12.5,1-21.9,0.1
		c0,0-0.6-0.3-0.6-1.7C-145.2,578.1-145.2,576.4-144.6,576.4z"/>
	<g id="ลายในขอบ">
		<path class="st3" d="M-142.4,576.6c0,0-0.5,1,0.2,3.4l2.2,0.1c0,0-0.6-2.6-0.1-3.4L-142.4,576.6z"/>
		<path class="st3" d="M-137.4,576.9c-0.2,1.1-0.2,2.2,0.1,3.3l2.3,0c0,0-0.2-2.6,0.1-3.3L-137.4,576.9z"/>
		<path class="st3" d="M-132.4,576.9c0,0,0.2,2.5,0,3.3l2.6-0.1c0,0,0.4-1.4,0-3.2L-132.4,576.9z"/>
		<path class="st3" d="M-127.1,576.7c0,0,0.3,2.7,0.1,3.2l2.2-0.1c0.1-1.1,0-2.2-0.1-3.2L-127.1,576.7z"/>
	</g>
</g>
<path class="st4" d="M-127.7,566.8c0,0-0.2-1.9-2.8-1.8C-130.5,564.9-130.9,567.4-127.7,566.8z"/>
<path class="st1" d="M-129.5,565.8c0.2,0,0.4,0,0.6,0c0.2,0,0.4,0.1,0.5,0.2c0.2,0.1,0.3,0.2,0.5,0.3c0.1,0.1,0.1,0.1,0.2,0.2
	c0.1,0.1,0.1,0.2,0.2,0.2c-0.1,0-0.2-0.1-0.2-0.2s-0.2-0.1-0.2-0.2c-0.2-0.1-0.3-0.2-0.5-0.3C-128.9,566.1-129.2,565.9-129.5,565.8z
	"/>
<path class="st4" d="M-127.7,566.8c0,0,0.1-1.2,1.8-1.2C-125.9,565.7-125.7,567.2-127.7,566.8z"/>
<path class="st1" d="M-126.5,566.2l-0.3,0.2l-0.3,0.2l-0.3,0.2c-0.1,0.1-0.2,0.1-0.3,0.2c0-0.1,0.1-0.2,0.2-0.3
	c0.1-0.1,0.2-0.2,0.3-0.2c0.1-0.1,0.2-0.1,0.4-0.1C-126.7,566.1-126.6,566.1-126.5,566.2z"/>
</svg>
