<?xml version="1.0" encoding="utf-8"?>
<!-- Generator: Adobe Illustrator 19.0.0, SVG Export Plug-In . SVG Version: 6.00 Build 0)  -->
<svg version="1.1" id="Layer_1" xmlns="http://www.w3.org/2000/svg" xmlns:xlink="http://www.w3.org/1999/xlink" x="0px" y="0px"
	 viewBox="-127.6 557.3 24 24" style="enable-background:new -127.6 557.3 24 24;" xml:space="preserve">
<style type="text/css">
	.st0{fill:#E00000;}
	.st1{fill:#A01717;}
	.st2{fill:#BA5C2D;}
	.st3{fill:#E53333;}
	.st4{fill:#F9A05E;}
	.st5{fill:#FED6B2;}
</style>
<g id="วิปป_12_">
	<path class="st0" d="M-126.9,576.9c0,0-2.5-3.6,2.1-5.7c0,0-2.1-4.5,3.2-4.5c0,0-0.8-4.6,3.7-3.6c0,0-2.1-2.7,2.1-4.8
		c0,0,2.1-1,3.7,0.7c0,0-2.5,0.4-1.5,1.9c0,0,0.4,0.7,0.8,0.8c0,0,1.2,0.7-0.3,1.5c0,0,2.5-0.8,3.2,0.8c0,0,0.8,1.7-0.2,2.6
		c0,0,5.7-1,3.2,4.5c0,0,6,0.3,2.1,5.8C-105,576.9-109.6,578.1-126.9,576.9z"/>
	<g id="ชั้นในวิปชั้นรักเธอว์_12_">
		<path class="st1" d="M-114.8,558.1c0,0-0.6-0.1-1.5,0.5c-1.3,0.8-3,2.2-1.7,4.5c0,0,3.4,4.8,7.7,3.6c0,0,0.9-0.9,0.3-2.4
			c0,0-0.4-1.8-3.2-1.1c0,0-1.6,0.3-2.6-1.7C-115.7,561.5-116.6,559.7-114.8,558.1z"/>
		<path class="st1" d="M-121.6,566.8c0,0-5.1-0.4-3.2,4.4c0,0,4.3,5.5,12.2,6.2c0,0,7.2-0.2,7.6-0.4c0,0,4.2-5-2-5.8
			C-107,571.1-117.4,573.2-121.6,566.8z"/>
	</g>
</g>
<g>
	<g>
		<path class="st2" d="M-123.6,577.5c0,0-1-2.5,0.9-5.5c0,0,2.5,1.8,2.3,5.6C-120.5,577.6-121.9,578.2-123.6,577.5z"/>
		<path class="st1" d="M-122.2,577.8c0,0-0.2-2-0.2-2.2c0,0,0.1-0.7,0.3,0c0,0,0.3,1.4,0.3,2.1l0,0H-122.2z"/>
	</g>
	<g>
		<path class="st2" d="M-125.6,577.8c0,0-2-1.8-1.7-5.3c0,0,3,0.5,4.6,3.9C-122.7,576.4-123.7,577.6-125.6,577.8z"/>
		<path class="st1" d="M-124.1,577.4c0,0-1.1-1.7-1.1-1.9c0,0-0.3-0.7,0.3-0.1c0,0,0.9,1.1,1.2,1.7l0,0L-124.1,577.4z"/>
	</g>
	<g>
		<path class="st3" d="M-126.2,578c0,0-1.2-1-1.1-3c0,0,1.7,0.2,2.7,2.2C-124.6,577.2-125.1,577.9-126.2,578z"/>
		<path class="st1" d="M-125.4,577.8c0,0-0.7-1-0.7-1.1c0,0-0.2-0.4,0.2-0.1c0,0,0.6,0.6,0.7,1l0,0L-125.4,577.8z"/>
	</g>
	<g>
		<path class="st3" d="M-124.1,577.6c0,0-0.7-1.3,0.1-3.2c0,0,1.5,0.8,1.7,3C-122.2,577.4-123,577.9-124.1,577.6z"/>
		<path class="st1" d="M-123.2,577.7c0,0-0.3-1.1-0.3-1.2c0,0,0-0.4,0.2,0c0,0,0.3,0.8,0.3,1.2l0,0L-123.2,577.7z"/>
	</g>
</g>
<g id="ขอบถ้วยย_12_">
	<path class="st4" d="M-126.9,576.8c0,0,10,1.1,21.8,0.1c0,0,0.8,0.2,0.8,1.6c0,0,0.2,1-0.8,1.6c0,0-12.5,1-21.9,0.1
		c0,0-0.6-0.3-0.6-1.7C-127.5,578.5-127.5,576.8-126.9,576.8z"/>
	<g id="ลายในขอบ_12_">
		<path class="st5" d="M-124.7,577c0,0-0.5,1,0.2,3.4l2.2,0.1c0,0-0.6-2.6-0.1-3.4L-124.7,577z"/>
		<path class="st5" d="M-119.7,577.3c0,0-0.4,1.5,0.1,3.3l2.3,0c0,0-0.2-2.6,0.1-3.3L-119.7,577.3z"/>
		<path class="st5" d="M-114.7,577.3c0,0,0.2,2.5,0,3.3l2.6-0.1c0,0,0.4-1.4,0-3.2L-114.7,577.3z"/>
		<path class="st5" d="M-109.3,577.2c0,0,0.3,2.7,0.1,3.2l2.2-0.1c0,0,0.1-1.5-0.1-3.2L-109.3,577.2z"/>
	</g>
</g>
</svg>
