<?xml version="1.0" encoding="utf-8"?>
<!-- Generator: Adobe Illustrator 19.0.0, SVG Export Plug-In . SVG Version: 6.00 Build 0)  -->
<svg version="1.1" id="Layer_1" xmlns="http://www.w3.org/2000/svg" xmlns:xlink="http://www.w3.org/1999/xlink" x="0px" y="0px"
	 viewBox="-139 561.7 24 24" style="enable-background:new -139 561.7 24 24;" xml:space="preserve">
<style type="text/css">
	.st0{fill:#960F7A;}
	.st1{fill:#BF79B8;}
	.st2{fill:#F9A05E;}
	.st3{fill:#FED6B2;}
	.st4{fill:#627205;}
	.st5{fill:#281E03;}
	.st6{fill:#540C43;}
	.st7{opacity:0.38;}
</style>
<title>nav_mangosonteen</title>
<g>
	<g id="มังคุด">
		<g id="วิปป">
			<path class="st0" d="M-138.3,581.3c0,0-2.5-3.6,2.1-5.7c0,0-2.1-4.5,3.2-4.5c0,0-0.8-4.6,3.7-3.6c0,0-2.1-2.7,2.1-4.8
				c0,0,2.1-1,3.7,0.7c0,0-2.5,0.4-1.5,1.9c0,0,0.4,0.7,0.8,0.8c0,0,1.3,0.7-0.3,1.5c0,0,2.5-0.8,3.2,0.8c0,0,0.8,1.7-0.2,2.6
				c0,0,5.7-1,3.2,4.5c0,0,6,0.3,2.1,5.8C-116.4,581.3-120.9,582.5-138.3,581.3z"/>
			<g id="ชั้นในวิปชั้นรักเธอว์">
				<path class="st1" d="M-126.1,562.5c0,0-0.6-0.1-1.5,0.5c-1.3,0.8-3,2.2-1.7,4.5c0,0,3.4,4.8,7.7,3.6c0,0,0.9-0.9,0.3-2.4
					c0,0-0.3-1.8-3.2-1.1c0,0-1.6,0.3-2.6-1.7C-127.1,565.9-128,564.1-126.1,562.5z"/>
				<path class="st1" d="M-133,571.2c0,0-5.1-0.4-3.2,4.4c0,0,4.3,5.5,12.2,6.2c0,0,7.2-0.3,7.6-0.4c0,0,4.2-5-2-5.8
					C-118.4,575.6-128.8,577.6-133,571.2z"/>
			</g>
		</g>
		<g id="ขอบถ้วยย">
			<path class="st2" d="M-138.2,581.2c0,0,10,1.1,21.8,0.1c0,0,0.8,0.3,0.8,1.6c0.1,0.6-0.2,1.3-0.8,1.6c0,0-12.5,1-21.9,0.1
				c0,0-0.6-0.3-0.6-1.7C-138.8,582.9-138.8,581.2-138.2,581.2z"/>
			<g id="ลายในขอบ">
				<path class="st3" d="M-136,581.4c0,0-0.5,1,0.2,3.4l2.2,0.1c0,0-0.6-2.6-0.1-3.4L-136,581.4z"/>
				<path class="st3" d="M-131,581.7c-0.2,1.1-0.2,2.2,0.1,3.3l2.3,0c0,0-0.2-2.6,0.1-3.3L-131,581.7z"/>
				<path class="st3" d="M-126,581.7c0,0,0.2,2.5,0,3.3l2.6-0.1c0,0,0.4-1.4,0-3.2L-126,581.7z"/>
				<path class="st3" d="M-120.7,581.6c0,0,0.3,2.7,0.1,3.2l2.2-0.1c0.1-1.1,0-2.2-0.1-3.2L-120.7,581.6z"/>
			</g>
		</g>
		
			<ellipse transform="matrix(-0.2409 -0.9705 0.9705 -0.2409 -703.4819 588.6381)" class="st4" cx="-121.5" cy="569.4" rx="0.5" ry="0.8"/>
		<path class="st5" d="M-121.8,569.5c0,0-0.2-0.9,0.1-1.2l0.5,0c0,0-0.4,0.8-0.3,1.1L-121.8,569.5z"/>
		<ellipse class="st6" cx="-121.6" cy="570.6" rx="1.4" ry="1.2"/>
		<g class="st7">
			
				<ellipse transform="matrix(-0.4332 -0.9013 0.9013 -0.4332 -689.2944 706.2372)" class="st4" cx="-122.6" cy="569.9" rx="0.5" ry="0.8"/>
			
				<ellipse transform="matrix(-0.8454 -0.5341 0.5341 -0.8454 -527.3034 987.1218)" class="st4" cx="-120.8" cy="569.9" rx="0.8" ry="0.5"/>
			
				<ellipse transform="matrix(-0.9836 -0.1805 0.1805 -0.9836 -344.0909 1108.5043)" class="st4" cx="-121.6" cy="569.9" rx="0.8" ry="0.5"/>
		</g>
		
			<ellipse transform="matrix(-0.4332 -0.9013 0.9013 -0.4332 -689.3867 706.0446)" class="st4" cx="-122.7" cy="569.8" rx="0.5" ry="0.8"/>
		
			<ellipse transform="matrix(-0.8454 -0.5341 0.5341 -0.8454 -527.0901 987.0475)" class="st4" cx="-120.7" cy="569.8" rx="0.8" ry="0.5"/>
		
			<ellipse transform="matrix(-0.9836 -0.1805 0.1805 -0.9836 -344.0633 1108.5326)" class="st4" cx="-121.6" cy="569.9" rx="0.8" ry="0.5"/>
	</g>
</g>
</svg>
