<?xml version="1.0" standalone="no"?>
<!DOCTYPE svg PUBLIC "-//W3C//DTD SVG 1.1//EN" "http://www.w3.org/Graphics/SVG/1.1/DTD/svg11.dtd" >
<svg xmlns="http://www.w3.org/2000/svg">
<metadata></metadata>
<defs>
<font id="thaisans_neue_sembdregular" horiz-adv-x="0" >
<font-face units-per-em="2048" ascent="1548" descent="-500" />
<missing-glyph horiz-adv-x="922" />
<glyph unicode="&#x3b;&#x3b;arm&#x3b;&#x3b;" horiz-adv-x="2993" d="M106 1778v115h458v229q-65 0 -118 69t-53 160q0 97 69.5 163t159.5 66q109 0 169 -60t60 -169q0 -54 -19 -103.5t-59.5 -85.5t-93.5 -40v-229h459v-115h-459v-344l308 -689h-115l-250 574l-250 -574h-114l306 689v344h-458zM221 0q0 22 5 44.5t15 45t26.5 42.5t38 35.5 t51.5 24t64 8.5q87 0 144 -57t57 -143q0 -109 -77 -164l63 -292l158 316h57l157 -316l101 599h143l-45 -241l31 57l186 44q0 150 16.5 254t53 167.5t89 92t128.5 28.5q83 0 127.5 -55.5t44.5 -145.5h-57q0 47 -22.5 81t-63.5 34q-107 0 -154 -103.5t-47 -323.5l210 51 l25 -105l-235 -61v-114q0 -84 -1.5 -148t-5.5 -134.5t-11 -123t-19 -106.5t-29 -91.5t-40.5 -72t-53.5 -55t-69 -32.5t-86 -12q-90 0 -145.5 44.5t-55.5 128.5h58q0 -41 34 -64t81 -23q41 0 74 11.5t56.5 41t40.5 58t27.5 84.5t16.5 97.5t9 120.5t3.5 129t0.5 147v85 l-228 -57l-98 -516h-75l-201 430l-200 -430h-75l-92 458l52 35q-3 -3 -17 -3q-8 -2 -41 -2q-18 0 -39 4.5t-44 13.5t-43.5 25t-37 37t-26.5 51t-10 66zM336 0q0 -22 9 -40.5t29 -30.5t47 -12q86 0 86 83q0 85 -86 85q-41 0 -63 -24t-22 -61zM507 2351q0 -23 5.5 -42.5 t18 -36.5t36 -26.5t55.5 -9.5q61 0 87.5 32.5t26.5 82.5q0 61 -32.5 87.5t-82 26.5t-82 -26.5t-32.5 -87.5zM1168 745l652 1778h494l573 -1778h-458l-175 546h-771l-202 -546h-113zM1540 1434h665l-312 974zM1910 57l57 287h85l-85 -287h-57zM1989 2437l38 -112l66 112h-104 zM2047 2274l24 -80l148 243h-71zM2052 57l58 287h87l-87 -287h-58zM2090 2139l32 -103l160 270l-31 96zM2150 1950l17 -57l161 266l-17 57zM2191 1824l17 -57l161 266l-18 57zM2227 -284q0 141 44.5 266t124.5 201.5t176 76.5q152 0 233.5 -104t81.5 -296 q0 -274 -97.5 -409.5t-275.5 -135.5q-56 0 -106 23t-91.5 69t-65.5 125.5t-24 183.5zM2233 1691l18 -57l160 264l-20 61zM2271 1576l19 -68l161 267l-19 69zM2311 1445l20 -58l158 268l-15 57zM2342 -227l402 172q-4 52 -22 98q-46 100 -150 100q-124 0 -189 -186 q-28 -77 -41 -184zM2342 -370q0 -33 11 -67.5t31 -65t54 -49.5t76 -19t75 15t57 43.5t39.5 59t29.5 69.5q25 83 29 187zM2351 1316l18 -46l159 262l-14 54zM2388 1204l17 -46l161 264l-17 49zM2426 1089l17 -54l164 261l-18 61zM2463 974l21 -65l159 270l-19 63zM2500 860 l9 -28h38l134 226l-20 69zM2591 832h58l70 117l-21 58zM2695 832h57l-19 63z" />
<glyph unicode=" "  horiz-adv-x="922" />
<glyph unicode="&#x09;" horiz-adv-x="922" />
<glyph unicode="&#xa0;" horiz-adv-x="922" />
<glyph unicode="!" horiz-adv-x="424" d="M106 0v210h212v-210h-212zM106 370v1152h212v-1152h-212z" />
<glyph unicode="&#x22;" horiz-adv-x="767" d="M106 1032v490h206v-490h-206zM454 1032v490h208v-490h-208z" />
<glyph unicode="#" horiz-adv-x="1617" d="M106 419l49 177h217l69 261h-217l42 180h224l109 399h206l-108 -399h361l110 399h205l-109 -399h247l-49 -180h-247l-68 -261h246l-52 -177h-243l-111 -419h-207l112 419h-361l-112 -419h-206l110 419h-217zM580 596h361l68 261h-361z" />
<glyph unicode="$" horiz-adv-x="1169" d="M106 95v175q82 -42 135 -60q142 -57 298 -57q154 0 233 70.5t79 192.5q0 59 -25.5 104t-68.5 74.5t-99 53t-117.5 44t-123.5 42.5t-117.5 53t-99 71.5t-69 103t-25.5 141.5q0 73 32 135.5t86.5 106t123.5 72.5t148 42v218h204v-218q116 -10 230 -51q47 -16 77 -37v-175 q-65 28 -112 43q-148 46 -307 46q-61 0 -123 -22t-104.5 -64t-42.5 -92q0 -48 25.5 -85t68.5 -62.5t99 -47.5t118 -43.5t124 -46t118 -60t99 -81t68.5 -113.5t25.5 -152q0 -63 -10.5 -117.5t-36 -107t-66 -92t-104.5 -70t-147 -43.5v-224h-204v213q-165 4 -286 63 q-34 15 -104 57z" />
<glyph unicode="%" horiz-adv-x="1682" d="M106 1210q0 134 37 232.5t105 150t159 51.5q132 0 209.5 -109.5t77.5 -303.5t-84.5 -310t-216.5 -116t-209.5 108.5t-77.5 296.5zM287 0l986 1757h224l-983 -1757h-227zM312 1215q0 -71 7 -119t20 -71.5t28 -32.5t35 -9q91 0 91 235q0 248 -91 248q-30 0 -48.5 -19.5 t-30 -76.5t-11.5 -155zM990 361q0 135 37 233.5t104.5 150.5t159.5 52q86 0 150 -49t99.5 -143.5t35.5 -223.5q0 -193 -85 -306t-215.5 -113t-208 106t-77.5 293zM1193 370q0 -89 12 -142t31.5 -72t48.5 -19t48.5 19.5t31 73t11.5 142.5q0 133 -23.5 190t-67.5 57 q-29 0 -48.5 -21.5t-31.5 -78.5t-12 -149z" />
<glyph unicode="&#x26;" horiz-adv-x="1628" d="M106 378q0 156 78 262.5t243 182.5q-76 50 -127 126.5t-51 177.5q0 61 20 114.5t56.5 94t86.5 70t111.5 45t130.5 15.5q102 0 189 -40.5t139.5 -112t52.5 -158.5q0 -64 -18 -115t-56 -91.5t-85.5 -72t-118.5 -64.5q32 -19 60 -38t54 -40t44.5 -36t41.5 -39.5t34.5 -35.5 t34 -39.5t29.5 -36.5t31.5 -40.5t29.5 -38.5q147 237 162 504l3 65h213q-9 -173 -78.5 -369.5t-182.5 -355.5q54 -65 120 -98t169 -33v-181q-275 0 -419 164q-104 -96 -228.5 -142.5t-280.5 -46.5q-114 0 -202.5 23t-153 71.5t-98.5 126t-34 182.5zM318 378 q0 -64 21.5 -109.5t61 -70t87 -35t108.5 -10.5q124 0 214 36t177 115q-15 21 -41.5 59.5t-42 60t-41.5 55.5t-45.5 55.5t-49 49.5t-57 47.5t-63.5 39t-76 35.5q-37 -18 -61 -30t-53.5 -30t-48 -35t-37.5 -41.5t-29.5 -51.5t-17 -62.5t-6.5 -77.5zM462 1127q0 -144 134 -224 q227 85 227 246q0 30 -16.5 55t-42.5 41t-55 24.5t-55 8.5q-92 0 -142 -44.5t-50 -106.5z" />
<glyph unicode="'" horiz-adv-x="424" d="M106 1032v490h212v-490h-212z" />
<glyph unicode="(" horiz-adv-x="644" d="M63 550q0 571 353 984h208q-114 -139 -194 -295.5t-123.5 -331t-43.5 -354.5q0 -531 361 -955h-205q-177 203 -266.5 438t-89.5 514z" />
<glyph unicode=")" horiz-adv-x="644" d="M20 -402q364 427 364 952q0 542 -364 984h210q352 -413 352 -984q0 -557 -355 -952h-207z" />
<glyph unicode="*" horiz-adv-x="827" d="M106 1119l233 120l-233 120l94 129l164 -155l-31 227h160l-34 -230l170 158l93 -129l-235 -120l235 -120l-93 -129l-170 157l34 -230h-160l31 227l-164 -154z" />
<glyph unicode="+" horiz-adv-x="1111" d="M106 514v180h359v376h183v-376h359v-180h-359v-342h-183v342h-359z" />
<glyph unicode="," horiz-adv-x="424" d="M-92 -312q65 55 98 96q100 124 100 230v189h212v-189q0 -125 -108 -238q-41 -45 -106 -88h-196z" />
<glyph unicode="-" horiz-adv-x="810" d="M106 545v175h600v-175h-600z" />
<glyph unicode="." horiz-adv-x="424" d="M106 0v203h212v-203h-212z" />
<glyph unicode="/" horiz-adv-x="712" d="M20 0l470 1757h204l-473 -1757h-201z" />
<glyph unicode="0" horiz-adv-x="1226" d="M63 689q0 183 40 330t112.5 244.5t174 150t223.5 52.5q117 0 216.5 -48t174.5 -139.5t117 -235t42 -323.5q0 -142 -29.5 -262.5t-82.5 -208.5t-125.5 -150.5t-158 -93t-179.5 -30.5q-117 0 -213 46t-165.5 134t-108 224.5t-38.5 309.5zM276 697q0 -115 17 -207.5 t46.5 -154.5t71 -103.5t89 -60t102.5 -18.5q56 0 106.5 19t95.5 62t77.5 106.5t51.5 157t19 208.5q0 85 -10 159t-27.5 132.5t-42.5 106t-55 81t-65 56.5t-72.5 33.5t-77.5 10.5q-54 0 -102 -21t-89.5 -67t-71 -114t-46.5 -166.5t-17 -219.5z" />
<glyph unicode="1" horiz-adv-x="695" d="M63 1021v180q131 52 232 144q35 28 98 91h198v-1436h-213v1155q-60 -39 -145.5 -78t-169.5 -56z" />
<glyph unicode="2" horiz-adv-x="1010" d="M63 0v155q0 55 22.5 110.5t60.5 105t87.5 98.5t104.5 96t109.5 94t104 95.5t87.5 96t60.5 101.5t22.5 106q0 62 -17.5 107t-49.5 70.5t-71.5 37.5t-87.5 12q-98 0 -202.5 -35t-173.5 -98v178q62 63 159.5 99.5t216.5 36.5q77 0 145 -17.5t122 -51t92.5 -80.5t59 -108.5 t20.5 -133.5q0 -87 -32.5 -168.5t-86 -147t-118.5 -126.5t-132 -117t-125 -109t-100 -111.5t-54 -114.5h706v-181h-930z" />
<glyph unicode="3" horiz-adv-x="1040" d="M106 63v189q120 -99 341 -99q59 0 114 13.5t102 40t75 72.5t28 105q0 93 -49.5 151t-163.5 87t-304 29v175q131 0 230 25q46 10 85 27t72.5 42.5t52.5 63t19 83.5q0 61 -17 105t-47.5 68t-67 34.5t-80.5 10.5q-95 0 -182 -22.5t-150 -69.5v178q146 95 332 95 q80 0 156.5 -26t136 -71.5t95.5 -112.5t36 -143q0 -282 -312 -364q70 -9 135 -36.5t118 -70.5t84.5 -106.5t31.5 -136.5q0 -196 -144 -310t-386 -114q-95 0 -185 25t-156 63z" />
<glyph unicode="4" horiz-adv-x="1071" d="M20 339v172l653 925h205v-911h175v-186h-175l-3 -339h-210v339h-645zM263 525h402v575z" />
<glyph unicode="5" horiz-adv-x="982" d="M106 35v195q58 -32 83 -41q101 -36 197 -36q153 0 237.5 65t84.5 203q0 131 -81 212t-225 81q-88 0 -216 -20q-23 -4 -80 -18v760h717v-180h-505v-375h95q151 0 264.5 -52t178 -154t64.5 -242q0 -217 -139.5 -337.5t-394.5 -120.5q-167 0 -280 60z" />
<glyph unicode="6" horiz-adv-x="1080" d="M63 631q0 204 43 363.5t122 262t189 156t245 53.5q199 0 273 -35v-184q-25 6 -81 17q-123 21 -192 21q-178 -2 -277.5 -130.5t-105.5 -355.5q32 45 86 72.5t103.5 36.5t102.5 9q90 0 171.5 -34.5t142.5 -94.5t97 -147t36 -187q0 -138 -62 -247.5t-170.5 -170.5 t-243.5 -61q-84 0 -157 28t-132 83.5t-101.5 134t-65.5 183.5t-23 227zM287 473q0 -157 70 -238.5t185 -81.5q49 0 97 22t86 61t61 96t23 122q0 145 -72.5 215t-194.5 70q-52 0 -96 -18t-72.5 -47t-48.5 -65t-29 -70.5t-9 -65.5z" />
<glyph unicode="7" horiz-adv-x="996" d="M20 1256v180h957v-85l-509 -1351h-213l473 1256h-708z" />
<glyph unicode="8" horiz-adv-x="1054" d="M63 386q0 261 232 388q-85 57 -130 138t-45 174q0 77 30 146.5t82.5 121t129.5 82t166 30.5q55 0 108.5 -15t98 -40.5t82 -61.5t63.5 -77.5t40.5 -89.5t14.5 -96q0 -187 -172 -312q109 -56 169.5 -161t60.5 -227q0 -192 -126.5 -301.5t-335.5 -109.5q-224 0 -346 108 t-122 303zM276 419q0 -85 32 -145.5t88.5 -90.5t131.5 -30q113 0 182.5 68.5t69.5 194.5q0 113 -68.5 191t-183.5 78q-108 0 -180 -71t-72 -195zM333 1070q0 -94 51.5 -149.5t143.5 -55.5q79 0 138 57.5t59 147.5q0 88 -54 151.5t-143 63.5q-53 0 -92 -18.5t-60.5 -50 t-32 -68t-10.5 -78.5z" />
<glyph unicode="9" horiz-adv-x="1080" d="M63 983q0 104 37.5 194.5t101.5 153.5t151.5 99t185.5 36q144 0 252.5 -82t167.5 -233t59 -352q0 -404 -161.5 -614t-451.5 -210q-176 0 -259 31v180q9 -3 72 -17q93 -16 187 -16q80 0 147 29t120 87.5t86 152t41 215.5q-32 -43 -86 -71t-104 -37.5t-102 -9.5 q-89 0 -171 36t-142 97t-95.5 147.5t-35.5 183.5zM273 983q0 -135 67 -210.5t199 -75.5q52 0 96.5 19.5t73 49t48.5 66t28.5 68.5t8.5 58q0 93 -26.5 165t-85.5 117t-143 45q-74 0 -136 -43.5t-96 -113t-34 -145.5z" />
<glyph unicode=":" horiz-adv-x="424" d="M106 0v210h212v-210h-212zM106 826v209h212v-209h-212z" />
<glyph unicode=";" horiz-adv-x="424" d="M-92 -312q60 51 98 102q100 124 100 224v192h212v-192q0 -114 -108 -232q-43 -47 -106 -94h-196zM106 826v209h212v-209h-212z" />
<glyph unicode="&#x3c;" horiz-adv-x="1075" d="M63 438v98l993 553v-203l-703 -396l703 -342v-197z" />
<glyph unicode="=" horiz-adv-x="1111" d="M106 330v177h901v-177h-901zM106 668v180h901v-180h-901z" />
<glyph unicode="&#x3e;" horiz-adv-x="1075" d="M20 -49v197l700 342l-700 396v203l992 -553v-98z" />
<glyph unicode="?" horiz-adv-x="939" d="M106 1161v175q31 34 77 63q114 67 261 67q74 0 144 -23.5t125 -65.5t88 -106t33 -138q0 -54 -14.5 -101.5t-39 -81.5t-55.5 -65.5t-63 -54.5t-63 -48t-55 -47t-39 -49.5t-15 -56.5v-259h-211v264q0 36 11.5 69.5t31.5 59.5t45.5 51t54 47l57 44t54 45t45.5 47.5t32 55 t12 63.5q0 84 -52 124.5t-137 40.5q-134 0 -241 -60q-46 -26 -86 -60zM279 0v210h211v-210h-211z" />
<glyph unicode="@" horiz-adv-x="1874" d="M106 550q0 95 23.5 187t67 171.5t103.5 150t135 126t159.5 95.5t179.5 61t192 21q164 0 312.5 -53.5t256.5 -146t171.5 -223t63.5 -277.5q0 -111 -37.5 -210t-97.5 -166.5t-136.5 -106.5t-153.5 -39t-126 23t-72.5 64t-33.5 109q-48 -98 -114.5 -147t-172.5 -49 q-57 0 -109.5 15.5t-99 48.5t-81 79.5t-54.5 113t-20 145.5q0 95 40 181.5t104.5 146t146 94t164.5 34.5q77 0 139 -35.5t88 -87.5l24 115h183l-84 -471q-4 -55 6 -109q16 -106 78 -106q57 0 106 36.5t78.5 91.5t45.5 116t16 114q0 56 -18.5 118t-53.5 124.5t-90 118.5 t-122.5 100t-157.5 69.5t-189 25.5q-101 0 -195 -29.5t-168 -80t-136 -117t-103 -140.5t-63 -151.5t-22 -149.5q0 -92 27 -181t82.5 -168t133 -139t184.5 -95.5t229 -35.5q195 0 413 83v-148q-232 -79 -413 -79q-135 0 -261 36.5t-228 105.5t-179 161.5t-119 211t-42 248.5z M673 542q0 -60 15.5 -105t40 -68.5t50.5 -34.5t53 -11q118 0 173.5 89.5t55.5 263.5q0 74 -33.5 112t-95.5 38q-115 0 -187 -78t-72 -206z" />
<glyph unicode="A" horiz-adv-x="1297" d="M20 0l530 1436h199l529 -1436h-211l-137 370h-566l-140 -370h-204zM427 550h438l-217 623z" />
<glyph unicode="B" horiz-adv-x="1141" d="M106 0v1436h419q194 0 309 -97.5t115 -249.5q0 -125 -77 -211.5t-196 -111.5q71 -9 134 -34.5t114 -67.5t81 -106t30 -142q0 -94 -40.5 -172.5t-109 -131.5t-161 -82.5t-196.5 -29.5h-422zM318 181h193q68 0 126 17.5t99 49t64 75t23 93.5q0 116 -86 185.5t-253 69.5 h-166v-490zM318 851h144q130 0 202 54t72 156q0 65 -33 109.5t-88.5 65t-130.5 20.5h-166v-405z" />
<glyph unicode="C" horiz-adv-x="1218" d="M63 703q0 173 53.5 317t148.5 241.5t227.5 151t290.5 53.5q125 0 236 -17t179 -50l-71 -178q-78 38 -159 51t-185 13q-98 0 -181.5 -32t-142.5 -87t-101 -129.5t-62 -159t-20 -174.5q0 -252 138 -401t369 -149q100 0 172 22t169 71l72 -177q-160 -94 -433 -94 q-154 0 -284.5 53t-222 147.5t-142.5 230.5t-51 297z" />
<glyph unicode="D" horiz-adv-x="1355" d="M106 0v1436h408q185 0 328.5 -42.5t244.5 -128t154 -220.5t53 -314q0 -165 -60.5 -302.5t-166.5 -231t-253 -145.5t-318 -52h-390zM318 181h178q134 0 244 40t185 112.5t115.5 174t40.5 223.5q0 259 -143 392t-427 133h-193v-1075z" />
<glyph unicode="E" horiz-adv-x="996" d="M106 0v1436h786v-180h-574v-447h516v-180h-516v-448h574v-181h-786z" />
<glyph unicode="F" horiz-adv-x="911" d="M106 0v1436h786v-180h-574v-447h516v-180h-516v-629h-212z" />
<glyph unicode="G" horiz-adv-x="1384" d="M63 689q0 165 58 309t159.5 247t245 162t308.5 59q168 0 318 -49q65 -24 98 -46v-192q-10 10 -39.5 25t-81.5 34.5t-136.5 33t-180.5 13.5q-97 0 -183 -32t-150 -88t-110 -131t-69.5 -163.5t-23.5 -181.5q0 -159 58.5 -279t175 -188.5t275.5 -68.5q96 0 157 11.5 t125 45.5v361h-315v181h526v-672q-191 -105 -507 -105q-60 0 -117.5 8t-110.5 24t-102 39.5t-92.5 53.5t-82 67.5t-70 80.5t-56.5 93t-42 105t-26 116.5t-9 126.5z" />
<glyph unicode="H" horiz-adv-x="1311" d="M106 0v1436h212v-599h677v599h212v-1436h-212v657h-677l-3 -657h-209z" />
<glyph unicode="I" horiz-adv-x="424" d="M106 0v1436h212v-1436h-212z" />
<glyph unicode="J" horiz-adv-x="770" d="M20 20l72 161q28 -12 45 -14q54 -14 107 -14q106 0 159 86.5t53 267.5v929h209v-929q0 -133 -32 -236t-90 -167t-135 -96.5t-170 -32.5q-88 0 -164 22q-5 2 -25.5 10t-28.5 13z" />
<glyph unicode="K" horiz-adv-x="1163" d="M106 0v1436h212v-670l539 670h253l-402 -501l436 -935h-221l-355 763l-250 -312v-451h-212z" />
<glyph unicode="L" horiz-adv-x="911" d="M106 0v1436h212v-1255h574v-181h-786z" />
<glyph unicode="M" horiz-adv-x="1713" d="M106 0v1436h261l476 -1113l502 1113h264v-1436h-213v1086l-499 -1086h-112l-467 1075v-1075h-212z" />
<glyph unicode="N" horiz-adv-x="1398" d="M106 0v1436h244l731 -1129v1129h213v-1436h-247l-729 1116v-1116h-212z" />
<glyph unicode="O" horiz-adv-x="1513" d="M63 697q0 233 84.5 406.5t243.5 268t375 94.5q152 0 280.5 -55t217 -152t137.5 -233.5t49 -297.5q0 -233 -86 -403.5t-247 -260t-381 -89.5q-202 0 -355 89.5t-235.5 253t-82.5 379.5zM276 697q0 -127 34.5 -230.5t96 -172t146 -105t183.5 -36.5q64 0 121.5 12t108 36 t93 59t76 83t56.5 105.5t35.5 128.5t12.5 151q0 127 -36 232t-99 176t-150 110t-188 39q-227 0 -358.5 -154t-131.5 -434z" />
<glyph unicode="P" horiz-adv-x="1068" d="M106 0v1436h405q151 0 261 -48.5t172.5 -150t62.5 -247.5q0 -151 -68.5 -259t-188.5 -162.5t-280 -54.5h-152l-3 -514h-209zM318 694h152q84 0 146.5 21.5t101 61t57.5 92t19 118.5q0 67 -12.5 114t-43.5 83.5t-87.5 54t-139.5 17.5h-193v-562z" />
<glyph unicode="Q" horiz-adv-x="1513" d="M63 697q0 232 84.5 406t242 268.5t367.5 94.5q157 0 287 -54.5t219 -152t138 -234t49 -297.5q0 -235 -89.5 -407.5t-247.5 -260.5q41 -17 74 -37.5t66.5 -51t52 -74t18.5 -94.5h-197q0 37 -20.5 70.5t-53.5 57t-63 39t-60 24.5q-85 -19 -202 -19q-199 0 -350 89.5 t-233 253.5t-82 379zM276 697q0 -256 126.5 -400t336.5 -144q110 0 201 37t158 108t104 181t37 249q0 127 -36 232t-99.5 176t-152.5 110t-194 39t-193.5 -39.5t-152.5 -113t-99.5 -185.5t-35.5 -250z" />
<glyph unicode="R" horiz-adv-x="1198" d="M106 0v1436h444q92 0 173.5 -26t145 -75t101 -127t37.5 -173q0 -71 -27.5 -131.5t-73.5 -102t-103 -69t-121 -38.5q23 -8 48 -27.5t44 -40t45 -57.5t40.5 -60t43.5 -68q2 -5 4 -7.5t4.5 -6.5t4.5 -7.5t4 -6.5l259 -413h-241l-232 375q-74 118 -137.5 171t-138.5 53h-112 l-3 -599h-209zM318 780h199q129 0 203 65t74 190q0 48 -18 87.5t-52 68.5t-87 45t-120 17l-199 3v-476z" />
<glyph unicode="S" horiz-adv-x="1169" d="M106 95v178q63 -37 126 -60q144 -60 293 -60q156 0 241 65t85 198q0 36 -10 66.5t-24 53t-42.5 44.5t-50.5 35.5t-63.5 30.5t-66 25.5t-73.5 24.5q-50 17 -76 26t-72 27t-71.5 34t-61.5 40t-56 51t-40 61t-29 76.5t-9 91.5q0 82 40.5 151t108 115t153 71.5t177.5 25.5 q171 0 321 -49q65 -23 101 -46v-181q-51 26 -112 46q-157 49 -310 49q-66 0 -127 -22.5t-100.5 -65.5t-39.5 -94q0 -48 25.5 -85t68.5 -62t99 -46.5t118 -42.5t124 -45t118 -59.5t99 -80.5t68.5 -113t25.5 -153q0 -75 -15 -138t-52.5 -120t-95.5 -96.5t-148.5 -63 t-207.5 -23.5q-183 0 -327 60q-57 22 -112 60z" />
<glyph unicode="T" horiz-adv-x="1040" d="M20 1256v180h1001v-180h-387v-1256h-213v1256h-401z" />
<glyph unicode="U" horiz-adv-x="1311" d="M106 547v889h212v-877q0 -214 78.5 -310t246.5 -96q352 0 352 389v894h212v-868q0 -302 -145.5 -447.5t-421.5 -145.5q-534 0 -534 572z" />
<glyph unicode="V" horiz-adv-x="1297" d="M20 1436h212l416 -1160l419 1160h211l-529 -1436h-199z" />
<glyph unicode="W" horiz-adv-x="1896" d="M20 1436h212l315 -1146l345 1146h143l287 -1143l344 1143h211l-441 -1436h-232l-244 1056l-298 -1056h-229z" />
<glyph unicode="X" horiz-adv-x="1229" d="M20 0l470 717l-441 719h246l321 -539l347 539h247l-471 -719l471 -717h-247l-350 539l-347 -539h-246z" />
<glyph unicode="Y" horiz-adv-x="1163" d="M20 1436h215l333 -691l359 691h217l-471 -911v-525h-211v519z" />
<glyph unicode="Z" horiz-adv-x="1141" d="M20 0v69l785 1187h-728v180h1044v-68l-788 -1187h756l3 -181h-1072z" />
<glyph unicode="[" horiz-adv-x="602" d="M106 -402v1939h476v-178h-281v-1583h281v-178h-476z" />
<glyph unicode="\" horiz-adv-x="712" d="M20 1757h201l473 -1757h-204z" />
<glyph unicode="]" horiz-adv-x="602" d="M20 -224h281v1583h-281v178h476v-1939h-476v178z" />
<glyph unicode="^" horiz-adv-x="1360" d="M106 553l496 984h98l556 -984h-206l-399 694l-342 -694h-203z" />
<glyph unicode="_" horiz-adv-x="1111" d="M106 32h901v-172h-901v172z" />
<glyph unicode="`" horiz-adv-x="687" d="M106 1611h224l252 -350h-191z" />
<glyph unicode="a" horiz-adv-x="1054" d="M106 875q27 52 83 99q114 104 318 104q68 0 131 -14t120 -46t99 -78t67 -114.5t25 -152.5v-673h-194v129q-138 -151 -299 -151q-102 0 -181.5 36t-124.5 108q-41 66 -41 152v16q2 40 10.5 75.5t23 62.5t34.5 50t42.5 39t49 28.5t52.5 20.5t54.5 13t53.5 7t50 2 q137 0 213 20q46 15 60 23q0 77 -19 132.5t-53 87t-77.5 46t-98.5 14.5q-147 0 -255 -91q-48 -37 -80 -89zM304 290q0 -153 194 -153q73 0 146.5 38.5t110.5 90.5v213q-20 -7 -79 -20q-100 -18 -159 -18q-51 0 -98 -16t-81 -52t-34 -83z" />
<glyph unicode="b" horiz-adv-x="1198" d="M106 0v1522h198v-619q34 56 77 90q111 88 250 88q63 0 130 -19.5t134.5 -62.5t120.5 -103t86 -150t33 -196q0 -97 -21 -180.5t-59 -143.5t-87 -106.5t-106.5 -74.5t-115.5 -42t-117 -14q-147 0 -251 82q-41 32 -74 87v-158h-198zM304 298q43 -48 89 -74q109 -71 229 -71 q45 0 88.5 13t85 43.5t73 75t50.5 112t19 150.5q0 67 -19 126t-50.5 102t-72.5 74t-85.5 46.5t-88.5 15.5q-112 0 -229 -71q-41 -23 -89 -71v-471z" />
<glyph unicode="c" horiz-adv-x="914" d="M63 501q0 128 41.5 236.5t114 183t171.5 116t212 41.5q86 0 207 -43q40 -14 86 -40l-75 -166q-42 30 -63 40q-93 42 -155 42q-41 0 -80 -10t-73 -29.5t-63.5 -47t-52 -63t-39 -76t-25.5 -87.5t-9 -97q0 -111 46 -191t123 -118.5t176 -38.5q66 0 152 39q37 21 63 43 l75 -166q-46 -26 -90 -41q-109 -39 -211 -39q-113 0 -209.5 33.5t-168 97t-112.5 161.5t-41 220z" />
<glyph unicode="d" horiz-adv-x="1198" d="M63 550q0 103 32 191.5t83.5 149t116.5 104t131 63.5t127 20q140 0 256 -88q50 -36 86 -87v619h197v-1522h-197v158q-34 -48 -83 -87q-109 -82 -256 -82q-59 0 -116.5 14.5t-113 43.5t-103 76t-83.5 107.5t-56.5 142.5t-20.5 177zM260 547q0 -95 27 -172.5t71 -125 t97 -72t109 -24.5q133 0 241 71q46 26 90 74v471q-49 48 -90 71q-117 71 -241 71q-55 0 -109 -26.5t-97.5 -73t-70.5 -116t-27 -148.5z" />
<glyph unicode="e" horiz-adv-x="1048" d="M63 514q0 116 35.5 219.5t98 179.5t152 120.5t193.5 44.5q212 0 328.5 -136.5t116.5 -380.5v-91h-727q0 -150 88 -233.5t232 -83.5q127 0 214 50q38 21 60 52l69 -157q-57 -40 -94 -55q-102 -54 -258 -54q-114 0 -205.5 31t-160 93.5t-105.5 164t-37 236.5zM266 637h517 q-5 80 -34 141.5t-82.5 97t-124.5 35.5q-70 0 -131.5 -38t-99.5 -101t-45 -135z" />
<glyph unicode="f" horiz-adv-x="709" d="M20 869v168h186v136q0 378 308 378q97 0 140 -11q8 -1 38 -11v-172q-14 3 -35 14q-38 14 -89 14q-81 0 -123.5 -47.5t-42.5 -164.5v-136h290v-168h-287l-3 -869h-196v869h-186z" />
<glyph unicode="g" horiz-adv-x="1198" d="M63 514q0 95 21 177t57.5 143t84.5 108.5t104 76.5t114.5 44t116.5 15q143 0 254 -88q51 -41 80 -87v161h197v-1018q0 -284 -139 -414t-434 -130q-150 0 -267 57q-47 21 -94 57l72 160q37 -38 71 -55q83 -54 218 -54q90 0 156.5 18t117 58t76.5 108.5t26 165.5v141 q-29 -46 -80 -87q-108 -85 -251 -85q-65 0 -133.5 20t-134.5 63.5t-118 104t-83.5 149t-31.5 191.5zM260 514q0 -75 27 -143t70 -115.5t97 -75t107 -27.5q133 0 241 71q48 27 93 71v471q-45 44 -93 71q-117 72 -241 72q-55 0 -107.5 -25t-96 -72t-70.5 -124.5t-27 -173.5z " />
<glyph unicode="h" horiz-adv-x="1111" d="M106 0v1522h198v-647q22 43 71 99q93 104 235 104q102 0 179.5 -31t124 -85.5t70 -125t23.5 -154.5v-682h-198v692q0 92 -67.5 148.5t-177.5 56.5q-109 0 -197 -77q-33 -25 -63 -75v-745h-198z" />
<glyph unicode="i" horiz-adv-x="408" d="M106 0v1064h198v-1064h-198zM106 1221v196h198v-196h-198z" />
<glyph unicode="j" horiz-adv-x="408" d="M-295 -441l68 160q7 -5 20.5 -13t20.5 -13q47 -23 77 -23q102 0 158.5 79.5t56.5 250.5v1064h198v-1032q0 -124 -27 -222t-78.5 -167t-130.5 -105t-180 -36q-73 0 -137 28q-30 12 -46 29zM106 1221v196h198v-196h-198z" />
<glyph unicode="k" horiz-adv-x="996" d="M106 0v1522h198v-994l413 515h227l-290 -358l318 -685h-192l-247 536l-229 -290v-246h-198z" />
<glyph unicode="l" horiz-adv-x="408" d="M106 0v1522h198v-1522h-198z" />
<glyph unicode="m" horiz-adv-x="1814" d="M106 0v1064h198v-189q0 5 11 25.5t36.5 51t60 58.5t89 48t115.5 20q253 0 353 -216q13 20 27.5 40t48.5 54.5t70 59t89 43.5t109 19q102 0 179.5 -31t124 -86.5t69.5 -125.5t23 -153v-682h-198v692q0 57 -29 103.5t-83.5 74t-125.5 27.5q-104 0 -198 -77q-34 -26 -68 -75 v-745h-198v692q0 92 -67.5 148.5t-177.5 56.5q-106 0 -194 -77q-29 -22 -66 -75v-745h-198z" />
<glyph unicode="n" horiz-adv-x="1111" d="M106 0v1064h198v-189q22 50 71 99q93 104 241 104q99 0 175.5 -31t122.5 -86.5t69.5 -125.5t23.5 -153v-682h-198v692q0 87 -66.5 146t-168.5 59q-107 0 -202 -77q-34 -26 -68 -75v-745h-198z" />
<glyph unicode="o" horiz-adv-x="1166" d="M63 517q0 261 139.5 411t388.5 150q154 0 270.5 -67.5t179 -190t62.5 -281.5q0 -260 -141 -406.5t-391 -146.5q-230 0 -369 144.5t-139 386.5zM260 517q0 -166 81 -265t230 -99q162 0 248.5 102.5t86.5 283.5q0 168 -83 270t-232 102q-160 0 -245.5 -107.5t-85.5 -286.5z " />
<glyph unicode="p" horiz-adv-x="1198" d="M106 -456v1520h198v-161q34 49 82 87q111 88 238 88q77 0 149.5 -20.5t138.5 -66t115.5 -110t78.5 -159.5t29 -208q0 -103 -32 -191.5t-84 -149t-118 -104t-132.5 -63.5t-128.5 -20q-149 0 -256 85q-52 41 -80 87v-614h-198zM304 295q43 -48 89 -74q111 -73 238 -73 q37 0 77.5 14.5t81.5 45.5t74 73t53.5 103t20.5 130q0 87 -21 157.5t-54 114t-76 73t-84 41t-81 11.5q-113 0 -226 -74q-48 -27 -92 -71v-471z" />
<glyph unicode="q" horiz-adv-x="1198" d="M63 514q0 113 28.5 208t76.5 159.5t111.5 110t132 66t138.5 20.5q143 0 259 -88q50 -36 86 -87v161h197v-1520h-197v614q-29 -46 -80 -87q-108 -85 -254 -85q-53 0 -109.5 14.5t-112.5 43t-105.5 73.5t-88 101.5t-60.5 133t-22 162.5zM260 514q0 -69 20.5 -130t53.5 -103 t74 -73t82 -45.5t78 -14.5q124 0 234 73q52 29 93 74v471q-54 48 -96 71q-112 74 -228 74q-38 0 -77.5 -11.5t-82 -41t-75.5 -73t-54.5 -114t-21.5 -157.5z" />
<glyph unicode="r" horiz-adv-x="687" d="M106 0v1064h198v-284q27 88 63 150q83 148 194 148q50 0 76 -11q22 -6 31 -9v-196q-8 2 -20.5 5.5t-16.5 4.5q-29 11 -78 11q-71 0 -169 -131q-42 -57 -80 -130v-622h-198z" />
<glyph unicode="s" horiz-adv-x="939" d="M106 52v166q43 -26 83 -40q113 -41 216 -41q232 0 232 164q0 42 -18 73.5t-49 52t-70.5 36t-83.5 29.5t-88 28.5t-84 37t-70.5 51.5t-49 75t-18.5 104q0 53 22.5 102t60 85t84.5 63t98 40.5t99 13.5q138 0 236 -39q33 -13 71 -41v-166q-46 29 -80 40q-113 41 -227 41 q-65 0 -115.5 -42.5t-50.5 -96.5q0 -32 18 -55.5t49 -39t70.5 -27.5t83.5 -25t88 -29t84 -41.5t70.5 -60t48.5 -88t18 -121.5q0 -67 -25 -125t-75 -103.5t-132.5 -71.5t-188.5 -26q-117 0 -218 36q-41 14 -89 41z" />
<glyph unicode="t" horiz-adv-x="709" d="M20 869v168h186v485h199v-485h287v-168h-287v-508q0 -116 39.5 -162t116.5 -46q66 0 96 11q20 4 35 14v-172q-7 -3 -38 -9q-38 -8 -137 -8q-159 0 -235 97.5t-76 274.5v508h-186z" />
<glyph unicode="u" horiz-adv-x="1111" d="M106 378v686h198v-683q0 -99 68 -155.5t167 -56.5q110 0 200 75q44 34 70 77v743h198v-1061h-198v183q-18 -49 -67 -98q-97 -96 -238 -96q-102 0 -179.5 29.5t-124.5 82.5t-70.5 122t-23.5 152z" />
<glyph unicode="v" horiz-adv-x="1040" d="M20 1064h226l290 -804l287 804h198l-370 -1064h-230z" />
<glyph unicode="w" horiz-adv-x="1538" d="M20 1064h226l201 -791l259 791h142l230 -791l227 791h214l-326 -1064h-203l-216 763l-241 -763h-218z" />
<glyph unicode="x" horiz-adv-x="974" d="M20 0l355 531l-355 533h218l249 -370l247 370h218l-356 -547l359 -517h-221l-247 356l-249 -356h-218z" />
<glyph unicode="y" horiz-adv-x="1108" d="M22 -441l70 157q7 -4 20 -12.5t20 -12.5q47 -24 86 -24q65 0 107 32.5t74 114.5l83 203l-454 1047h216l344 -780l287 780h214l-490 -1253q-19 -48 -36.5 -83.5t-38 -69.5t-42 -57.5t-48.5 -43t-58 -31.5t-69 -18t-83 -6q-83 0 -153 28q-34 14 -49 29z" />
<glyph unicode="z" horiz-adv-x="991" d="M106 0v71l570 826h-515v167h811v-81l-565 -816h556v-167h-857z" />
<glyph unicode="{" horiz-adv-x="638" d="M63 438v161q45 5 76.5 17.5t55 38t35 66.5t11.5 99v335q0 186 88 280t290 102v-178q-79 -7 -128.5 -57t-49.5 -153v-344q0 -115 -51.5 -190.5t-151.5 -103.5q96 -25 149.5 -100.5t53.5 -194.5v-331q0 -59 13 -100t37.5 -63t55 -31t72.5 -9v-180q-193 0 -285.5 91.5 t-92.5 272.5v340q0 114 -44 167.5t-134 64.5z" />
<glyph unicode="|" horiz-adv-x="411" d="M106 -358v2035h201v-2035h-201z" />
<glyph unicode="}" horiz-adv-x="638" d="M20 -318q40 0 70.5 9t55.5 31t38 63t13 100v331q0 118 54.5 194t150.5 101q-101 28 -153 103.5t-52 190.5v344q0 103 -49 153t-128 57v178q200 -8 288 -102t88 -280v-335q0 -113 44.5 -162.5t136.5 -58.5v-161q-91 -11 -136 -64.5t-45 -167.5v-340q0 -364 -376 -364v180z " />
<glyph unicode="~" horiz-adv-x="1108" d="M106 473q0 59 16 112t46.5 95.5t80.5 68t112 25.5q45 0 88.5 -15.5t79 -37.5t69.5 -44t71.5 -37.5t72.5 -15.5q92 0 101 150h161q-7 -143 -70.5 -222t-188.5 -79q-47 0 -93 15t-82 36.5t-69.5 43t-68.5 36.5t-65 15q-36 0 -59 -15t-34 -47t-11 -84h-157z" />
<glyph unicode="&#xa9;" horiz-adv-x="1882" d="M106 694.5q0 172.5 66 327t178 266t267 176.5t327 65t326.5 -65t266 -176.5t176.5 -266t65 -327.5q0 -115 -29.5 -223.5t-83 -199.5t-130 -167.5t-168 -129.5t-200 -82t-223.5 -29q-172 0 -327 64.5t-267 175t-178 265t-66 327zM206 694q0 -149 58.5 -284.5t157 -233.5 t235.5 -156t287 -58t286 58t234 156t155.5 233.5t57.5 285t-57.5 284.5t-155.5 233t-234 155.5t-286.5 57.5t-287 -57.5t-235 -155.5t-157 -233.5t-58.5 -284.5zM468 679q0 98 23.5 182t68.5 148.5t107.5 110t142 69t170.5 23.5q72 0 147 -9t123 -27l-38 -84q-86 41 -232 41 q-123 0 -217 -60.5t-143 -163t-49 -230.5q0 -201 110.5 -321t298.5 -120q50 0 88.5 6t71 19t72.5 35l38 -88q-97 -55 -284 -55q-227 0 -362.5 141.5t-135.5 382.5z" />
<glyph unicode="&#xad;" horiz-adv-x="810" d="M106 545v175h600v-175h-600z" />
<glyph unicode="&#xae;" horiz-adv-x="1882" d="M106 694.5q0 172.5 66 327t178 266t267 176.5t327 65t326.5 -65t266 -176.5t176.5 -266t65 -327.5q0 -115 -29.5 -223.5t-83 -199.5t-130 -167.5t-168 -129.5t-200 -82t-223.5 -29q-172 0 -327 64.5t-267 175t-178 265t-66 327zM206 692q0 -150 58.5 -285.5t157 -233 t235 -154.5t287.5 -57t287 57t233.5 154.5t155 232.5t57.5 286t-57.5 287t-155 233.5t-233.5 155t-287 57.5t-287.5 -57.5t-235 -155t-157 -233.5t-58.5 -287zM643 197v1031h306q64 0 119.5 -17.5t99 -51t68.5 -87t25 -120.5q0 -66 -19.5 -117t-55.5 -83t-78.5 -51 t-95.5 -28q50 -27 96 -71.5t71 -87.5l197 -317h-126l-175 287q-42 72 -108 118t-110 46h-108v-451h-106zM749 731h143q69 0 127.5 23.5t97 75t38.5 122.5q0 87 -62 138t-170 51h-174v-410z" />
<glyph unicode="&#xbc;" horiz-adv-x="2052" d="M126 1502v101q75 30 126 77q20 17 55 52h106v-788h-115v632q-88 -56 -172 -74zM447 0l1044 1757h200l-1043 -1757h-201zM1422 270v94l359 508h109v-502h97v-100h-97v-187h-115v187h-353zM1554 370h221v319z" />
<glyph unicode="&#xbd;" horiz-adv-x="2086" d="M126 1502v101q75 30 126 77q20 17 55 52h106v-788h-115v632q-88 -56 -172 -74zM447 0l1044 1757h200l-1043 -1757h-201zM1483 83v86q0 39 20 78t52.5 73t71.5 69t78 69t71.5 68t52.5 72t20 75q0 67 -34.5 96.5t-91.5 29.5q-56 0 -114 -18t-96 -56v101q75 74 210 74 q110 0 177 -59t67 -159q0 -49 -18 -94.5t-47.5 -82t-65.5 -70t-73 -64.5t-69 -60t-55.5 -62t-29.5 -66h389v-100h-515z" />
<glyph unicode="&#xbe;" horiz-adv-x="2066" d="M106 993v102q69 -55 187 -55q32 0 62 8t56 23t41.5 40t15.5 57q0 76 -65 110.5t-217 34.5v98q83 5 123 14q126 27 126 118q0 117 -114.5 117t-183.5 -49v98q77 51 184 51q91 0 160 -55.5t69 -139.5q0 -155 -169 -197q82 -12 141.5 -62.5t59.5 -129.5q0 -108 -78.5 -170 t-210.5 -62q-97 0 -187 49zM459 0l1046 1757h202l-1048 -1757h-200zM1436 270v94l359 508h109v-502h98v-100h-98v-187h-115v187h-353zM1568 370h221v319z" />
<glyph unicode="&#xe01;" horiz-adv-x="1269" d="M63 960q50 94 123 167q72 72 172.5 119.5t226.5 47.5q86 0 168.5 -16t157 -50t130.5 -82.5t89 -118t33 -152.5v-689q0 -19 -5 -38t-15.5 -35.5t-20.5 -29.5t-24 -28q-41 -41 -63 -55h-80v818q0 50 -12 92t-32 72t-49 53t-60.5 37.5t-68.5 24t-71.5 13t-70.5 3.5 q-70 0 -124 -21.5t-106 -56.5q-43 -27 -77 -75l175 -142q-25 -26 -38 -55q-35 -67 -35 -181v-582h-205v588q0 91 25 169q10 28 26 61q-16 13 -45 37.5t-41 33.5q-83 67 -83 71z" />
<glyph unicode="&#xe02;" horiz-adv-x="1068" d="M63 1084v180h178q153 0 236.5 -72t83.5 -202q0 -122 -110 -233q-34 -33 -63.5 -92.5t-29.5 -133.5v-115q0 -38 4 -69.5t12.5 -62t23 -54t35.5 -41.5t51.5 -27t68.5 -9q36 0 66 10.5t51.5 29.5t37.5 44t25.5 55t14 60.5t4.5 63.5v848h211v-848q0 -73 -11.5 -134.5 t-41 -119.5t-76 -98.5t-121 -64.5t-171.5 -24q-74 0 -133.5 16.5t-101.5 47t-72.5 70.5t-48 90.5t-25.5 103.5t-8 113v115q0 63 12 118t34.5 97.5t42.5 70.5t48 58q1 2 8.5 12.5t10.5 14.5t9.5 14.5t10 16t8.5 15t7 15.5t4 13.5t2 13.5q0 40 -27.5 67t-81.5 27h-178z" />
<glyph unicode="&#xe03;" horiz-adv-x="1068" d="M63 1086v178q41 0 92 -52q7 -7 42 -49q25 30 52 49q66 52 126 52q86 0 148 -64.5t62 -178.5q0 -54 -17 -101.5t-39 -76.5t-56 -63q-16 -16 -30.5 -34t-36 -49.5t-35 -71t-13.5 -78.5v-131q0 -38 3.5 -69.5t12 -62t23.5 -54t36 -41.5t52 -27t71 -9q53 0 92.5 24t61 64.5 t32 86.5t10.5 96v840h211v-829q0 -77 -12.5 -143.5t-42 -126t-75.5 -101t-116.5 -65.5t-160.5 -24q-93 0 -164.5 24t-116.5 64.5t-74 98.5t-41 119.5t-12 134.5v134q0 172 139 325q5 5 21 19.5t25.5 24.5t21.5 26t17.5 34t5.5 39q0 36 -25 55t-58 11q-34 -15 -68 -49 q-18 -15 -38 -40q-21 26 -41 45q-46 46 -85 46z" />
<glyph unicode="&#xe04;" horiz-adv-x="1283" d="M106 0v875q0 43 9.5 83t27 75t42 66.5t55 57.5t66 48t75.5 38t82.5 27.5t88 17.5t91.5 6q66 0 131.5 -13t125 -37t110.5 -61t88.5 -82.5t59 -103.5t21.5 -122v-875h-213v875q0 72 -45 127t-118 83t-160 28q-88 0 -161 -27t-118.5 -82t-45.5 -129v-316q34 44 92 81 q109 82 224 82v-208q-118 0 -232 -67q-41 -25 -87 -66v-381h-209z" />
<glyph unicode="&#xe05;" horiz-adv-x="1283" d="M106 0v875q0 73 28 148.5t74 135t111 97.5t135 38q58 0 128 -82q39 -43 61 -79q18 35 57 79q65 82 132 82q71 0 136.5 -38t111 -97.5t72.5 -134.5t27 -149v-875h-213v875q0 59 -17 112.5t-52 89.5t-82 36q-39 0 -109 -92q-43 -55 -63 -89q-24 35 -66 89q-24 29 -39 45.5 t-35 31.5t-35 15q-46 0 -81.5 -36t-53.5 -89.5t-18 -112.5v-316q35 44 92 81q110 82 227 82v-208q-118 0 -232 -67q-41 -25 -87 -66v-381h-209z" />
<glyph unicode="&#xe06;" horiz-adv-x="1297" d="M63 1086v178q41 0 92 -52q7 -7 42 -49q25 30 52 49q66 52 126 52q94 -2 155 -70t61 -176q0 -52 -13 -96t-33.5 -74t-45 -56.5t-49.5 -51t-45.5 -50t-33.5 -60t-13 -74.5l3 -217q35 -44 93 -81q101 -77 238 -77q148 0 218 75.5t70 244.5v763h213v-840q0 -86 -29 -167 t-80.5 -143.5t-131 -100.5t-172.5 -38q-186 0 -318 105q-67 53 -104 106v-186h-210v577q0 54 13 98t33 74t44.5 55.5t49 47.5t45 44.5t33 52.5t12.5 66q0 34 -20.5 54t-53.5 20q-23 0 -72 -49q-36 -36 -43 -45q-7 9 -43 45q-19 17 -27 23.5t-24.5 14.5t-31.5 8z" />
<glyph unicode="&#xe07;" horiz-adv-x="1089" d="M66 860h213l168 -677q65 0 130 30.5t118.5 85.5t86.5 142t33 190q0 105 -35 191.5t-94.5 143t-137.5 87.5t-164 31v180q103 0 198.5 -26.5t176 -80t140.5 -128.5t93.5 -177t33.5 -221q0 -109 -33.5 -209t-90.5 -175.5t-131 -132t-158.5 -85.5t-168.5 -29h-171z" />
<glyph unicode="&#xe08;" horiz-adv-x="1226" d="M57 1032q36 70 104 129q156 133 386 133q109 0 207 -34t171.5 -94.5t128 -140t82 -173.5t27.5 -193q0 -107 -23.5 -204.5t-71.5 -180.5t-116 -144t-162 -95.5t-205 -34.5h-144l-115 456q-2 6 -4.5 10.5t-4 7.5t-5.5 5t-6 3.5t-7.5 1.5t-7.5 0.5t-9.5 0t-11.5 -0.5h-57 v181h113q73 0 115 -23.5t73 -94.5l102 -364q78 0 143.5 40t107.5 107t65 152t23 177q0 95 -26.5 174t-68.5 129.5t-96.5 85.5t-108 50t-105.5 15q-187 0 -323 -130q-61 -57 -98 -129z" />
<glyph unicode="&#xe09;" horiz-adv-x="1269" d="M63 542v180h137q62 0 104 -28t62 -78.5t20 -119.5v-80q0 -132 43 -183.5t162 -51.5q134 0 255 79q61 37 106 82v418q0 76 -18.5 139t-56.5 111.5t-101.5 75.5t-146.5 27q-142 0 -296 -87q-73 -43 -120 -82l-76 175q51 42 133 85q182 90 359 90q131 0 233 -36.5 t168 -103.5t99.5 -159.5t33.5 -206.5v-788h-211v186q-51 -59 -115 -106q-148 -105 -306 -105q-169 0 -259.5 114t-90.5 307v72q0 14 -1.5 25t-5 23.5t-11.5 19t-20 6.5h-80z" />
<glyph unicode="&#xe0a;" horiz-adv-x="1131" d="M63 1084v180h164q164 0 249 -71.5t85 -202.5q0 -122 -107 -230q-96 -95 -96 -229v-147q0 -52 10 -90.5t33.5 -72t69 -51t111.5 -17.5q52 0 95 20t70.5 52.5t46.5 74t27 81.5t8 78q0 156 -57 254.5t-156 98.5v183q72 0 127.5 72t84.5 191t29 264h213q0 -100 -14 -188 t-35.5 -148t-49.5 -110.5t-54.5 -80t-53 -51.5t-41 -30t-23.5 -11q1 0 10.5 -5t20.5 -10.5t27.5 -17.5t32.5 -25.5t35 -34.5t35 -45t31 -57t25.5 -69.5t17 -83.5t6.5 -99q0 -75 -14.5 -142.5t-49.5 -130.5t-86.5 -108.5t-131 -72.5t-179 -27t-175.5 23t-123 61t-76.5 93.5 t-40.5 114.5t-11 129v135q0 62 12 116.5t34.5 97.5t43 72t47.5 58q1 2 8.5 12.5t10.5 14.5t9.5 14.5t10 16t8.5 15t7 15.5t4 13.5t2 13.5q0 27 -14 48t-42 33.5t-67 12.5h-164z" />
<glyph unicode="&#xe0b;" horiz-adv-x="1131" d="M63 1086v178q41 0 92 -52q7 -7 42 -49q25 30 52 49q66 52 126 52q93 0 151.5 -68.5t58.5 -177.5q0 -42 -8.5 -77t-28 -65.5t-34 -47.5t-42.5 -46q-5 -5 -7 -8q-107 -106 -107 -224v-166q0 -41 5.5 -73t20.5 -63t40 -51t66.5 -32t97.5 -12q49 0 90.5 20.5t68.5 53t46 73.5 t27.5 80.5t8.5 75.5q0 157 -57 256.5t-156 99.5v183q72 0 127.5 72t84.5 191t29 264h213q0 -100 -14 -188t-35 -148t-49.5 -110.5t-54.5 -80t-52.5 -51.5t-40 -30t-22.5 -11q1 0 2 -1q12 -5 22.5 -10.5t36 -23.5t46 -39.5t46.5 -58t43.5 -79t29.5 -104t12 -131.5 q0 -72 -14 -138.5t-48 -130t-84.5 -110t-129 -74.5t-176.5 -28q-103 0 -181.5 23t-126 61t-77 94t-40 114t-10.5 129v149q0 89 36 173.5t98 153.5q6 8 19 20.5t24 24.5t22.5 27.5t18.5 34.5t7 39q0 36 -23.5 55.5t-56.5 12.5q-27 -10 -71 -49q-7 -5 -41 -39l-43 42 q-52 46 -80 46z" />
<glyph unicode="&#xe0c;" horiz-adv-x="2014" d="M63 960q50 94 123 167q178 167 408 167q81 0 161 -16t154 -50t130.5 -82.5t90 -118.5t33.5 -152v-536q31 -50 76 -81q87 -77 227 -77q58 0 98.5 11.5t67.5 34t41.5 63t20.5 89.5t6 122v763h210v-848q0 -63 -11.5 -123t-38.5 -118.5t-66.5 -102.5t-100.5 -70.5t-136 -26.5 q-177 0 -304 105q-58 49 -90 106v-186h-208v818q0 66 -21.5 118t-56.5 85t-83 54t-97.5 29.5t-102.5 8.5q-76 0 -129.5 -21t-106.5 -57q-38 -24 -74 -75l175 -142q-27 -28 -38 -52q-35 -68 -35 -178v-347q0 -13 0.5 -19t2 -14.5t5 -12.5t9.5 -7.5t16 -4.5h85v-183h-118 q-46 0 -81.5 10t-65 33t-45.5 66.5t-16 106.5v372q0 91 25 169q14 37 29 61q-16 13 -45 37.5t-41 33.5q-83 67 -83 71z" />
<glyph unicode="&#xe0d;" horiz-adv-x="2017" d="M63 960q50 94 123 167q24 22 48 41t53.5 38.5t62.5 34.5t70 27.5t80.5 19t90.5 6.5q59 0 117.5 -8.5t115 -25.5t107 -41.5t93.5 -59.5t74 -76.5t48 -95t17 -112.5v-451q0 -127 60 -185t183 -58q130 0 217 77q48 38 74 81v925h213l2 -1100q0 -61 -12.5 -118t-35 -105 t-53.5 -91t-68.5 -77t-79.5 -61t-86 -45t-89.5 -27.5t-88.5 -9.5q-164 0 -286 77q-59 33 -106 80l60 144q44 -49 80 -71q105 -73 226 -73q69 0 128 26.5t102.5 74.5t68.5 120.5t25 160.5v17q-37 -59 -88 -106q-116 -105 -273 -105q-85 0 -150.5 23t-109 63.5t-72 99.5 t-40.5 126.5t-12 147.5v383q0 70 -23 123.5t-59 85.5t-85.5 52t-96 27t-97.5 7q-134 0 -235 -78q-39 -27 -72 -75l172 -142q-22 -23 -35 -52q-35 -68 -35 -178v-347v-7q0 -18 1 -26t8 -15.5t21 -9.5h88v-183h-129q-102 0 -149.5 53t-47.5 163v372q0 91 25 169q14 37 29 61 q-16 13 -45 37.5t-41 33.5q-83 67 -83 71z" />
<glyph unicode="&#xe0e;" horiz-adv-x="1269" d="M63 960q50 94 123 167q72 72 173 119.5t229 47.5q79 0 159 -16t155 -50t133 -82.5t93 -118.5t35 -152v-1075q0 -16 -0.5 -30.5t-3.5 -35.5t-8.5 -40t-13.5 -41.5t-21 -41.5t-30 -38t-41 -33.5t-53 -26.5t-67 -18t-82 -6q-116 0 -227 73q-49 27 -91 74q-61 -48 -118 -74 q-148 -73 -312 -73v181q158 0 312 75q62 28 115 74q61 -54 88 -71q104 -71 192 -71q89 0 121 39t32 131v971q0 55 -15 101t-41.5 77.5t-61 54.5t-76 36.5t-83.5 19.5t-87 6q-72 0 -126.5 -21.5t-106.5 -56.5q-38 -24 -74 -75l175 -142q-22 -23 -35 -52q-31 -60 -31 -178 v-372q0 -118 -50 -167t-154 -49h-123v181h87q7 0 12.5 2.5t8 5.5t3.5 9.5t1 10.5v14v15v350q0 91 25 169q14 37 29 61q-16 13 -45 37.5t-41 33.5q-83 67 -83 71z" />
<glyph unicode="&#xe0f;" horiz-adv-x="1269" d="M63 960q50 94 123 167q178 167 410 167q81 0 160.5 -16t153 -50t130 -82.5t90 -118.5t33.5 -152v-1056q0 -24 -1 -44.5t-7.5 -56.5t-18 -64t-34.5 -60.5t-54 -54t-80.5 -36t-110.5 -14.5q-73 0 -157 73q-32 25 -71 74l-104 -134l-106 134q-79 -59 -110 -74 q-126 -73 -214 -73v181q100 0 220 75q51 29 104 77l106 -137l104 146q96 -161 200 -161q66 0 96 36t30 88v1024q0 65 -21 117t-55.5 85t-82 54.5t-96.5 30t-104 8.5q-75 0 -130.5 -21.5t-107.5 -56.5q-38 -24 -74 -75l178 -142q-22 -23 -35 -52q-34 -65 -34 -178v-372 q0 -107 -49.5 -161.5t-146.5 -54.5h-131v181h87q7 0 12.5 3t8 6t3.5 9.5t1 10.5v12.5v12.5v356q0 88 25 166q15 35 29 61q-16 13 -45 37.5t-41 33.5q-83 67 -83 71z" />
<glyph unicode="&#xe10;" horiz-adv-x="1226" d="M55 1029q28 71 98 132q144 133 392 133q117 0 235 -44q31 9 59.5 24.5t55 37.5t42 54t15.5 68h211q0 -56 -19.5 -104.5t-53 -82t-72 -56.5t-80.5 -36q108 -87 166.5 -218.5t58.5 -277.5q0 -147 -42.5 -270.5t-118.5 -208.5t-184 -132.5t-236 -47.5h-141l-115 451 q-5 16 -11 23t-13.5 8.5t-25.5 1.5h-63v181h120q47 0 79 -9.5t59 -37t46 -76.5l96 -359q78 0 144 40t108.5 107t66 152t23.5 177q0 80 -18.5 148t-50 116.5t-72 85t-87 58.5t-92.5 32.5t-90 10.5q-188 0 -321 -133q-60 -59 -95 -129zM92 -419q144 0 234 80q46 37 73 81 l99 -147l104 147q0 -3 10 -19.5t29 -40.5t42.5 -46.5t55 -38.5t60.5 -16q31 0 52.5 11t30.5 28.5t12 31.5t3 27v160h210v-165q0 -15 -1.5 -32t-8.5 -44.5t-18 -53t-32.5 -52.5t-49.5 -46.5t-71.5 -32t-96.5 -12.5q-104 0 -178 74q-29 29 -52 74l-101 -137l-99 134 q-32 -46 -78 -74q-104 -71 -229 -71v180z" />
<glyph unicode="&#xe11;" horiz-adv-x="1289" d="M63 1107v181q41 0 92 -52q18 -17 42 -52q22 31 52 52q66 52 123 52q33 0 64 -11t57.5 -32.5t43 -58.5t16.5 -83q29 53 78 95q101 96 212 96q50 0 96.5 -19.5t83.5 -52.5t67.5 -77.5t51 -94t31.5 -102t11 -102.5v-846h-212v760q0 68 -9.5 122t-25.5 91.5t-39 62.5 t-49.5 36.5t-57.5 11.5q-60 0 -115.5 -30t-98.5 -79.5t-80 -113t-63 -131t-44.5 -133t-27.5 -120t-9 -91.5v-44v-342h-213v318q0 84 13 163.5t34 140.5t46.5 116.5t51 99t46.5 80t34 67t13 52.5q0 35 -20.5 55.5t-53.5 20.5q-25 0 -74 -49q-13 -13 -41 -46q-28 35 -36 43 q-47 46 -90 46z" />
<glyph unicode="&#xe12;" horiz-adv-x="2014" d="M63 645q0 133 20.5 241.5t55.5 183.5t83.5 126t103.5 74.5t115 23.5q23 0 55 -23.5t63 -58.5q6 -7 19.5 -22t26 -29t24.5 -28q15 22 65 79q71 82 118 82q96 0 177.5 -57.5t127.5 -148.5t46 -191v-558q29 -46 79 -81q30 -24 59 -40t70.5 -26.5t90.5 -10.5q59 0 100 11.5 t67.5 33.5t41.5 62.5t20.5 89.5t5.5 123v763h213v-848q0 -63 -11.5 -123t-37.5 -118.5t-65 -102t-99 -70.5t-135 -27q-180 0 -306 105q-52 44 -93 109v-189h-211v897q0 88 -44 152t-109 64q-37 0 -107 -92q-43 -55 -63 -89q-12 17 -68 89q-25 30 -38.5 45.5t-33.5 31 t-35 15.5q-25 0 -48.5 -12t-47.5 -45t-42 -83.5t-29 -135t-11 -192.5q0 -77 8.5 -145t29.5 -133t53.5 -111.5t85 -74.5t118.5 -28q62 0 97 19q25 10 38 20v-184q-11 -7 -35 -16q-45 -17 -100 -17q-93 0 -173.5 31t-141.5 90t-104.5 141t-66 185.5t-22.5 222.5z" />
<glyph unicode="&#xe13;" horiz-adv-x="2014" d="M63 960q50 94 123 167q167 167 399 167q66 0 132.5 -10.5t132 -31.5t121.5 -55.5t99.5 -79t68 -107t24.5 -135.5v-374q0 -62 3.5 -105t13.5 -81t27 -61.5t44.5 -41t66 -24.5t90.5 -7q125 0 212 77q46 37 77 81v925h213v-1264h-213v186q-37 -59 -88 -106 q-127 -105 -301 -105q-76 0 -138 26.5t-101.5 70.5t-66.5 102.5t-38.5 118.5t-11.5 123v402q0 50 -12 92t-32 72t-48.5 53t-60.5 37.5t-69 24t-71 13t-71 3.5q-131 0 -232 -78q-39 -27 -72 -75l172 -142q-22 -23 -35 -52q-35 -68 -35 -178v-347q0 -13 0.5 -19t2 -14.5 t5 -12.5t9.5 -7.5t16 -4.5h85v-183h-113q-47 0 -83 10t-66.5 33t-47 66.5t-16.5 106.5v372q0 91 25 169q14 37 29 61q-16 13 -45 37.5t-41 33.5q-83 67 -83 71z" />
<glyph unicode="&#xe14;" horiz-adv-x="1269" d="M63 645q0 134 32.5 244t87 183.5t128 124.5t153.5 74t165 23q84 0 161.5 -16t145.5 -50t118.5 -82.5t79.5 -118t29 -152.5v-875h-211v862q0 63 -28 112.5t-75 79t-103 44.5t-117 15q-47 0 -94.5 -16t-94.5 -52.5t-83 -89t-58.5 -133t-22.5 -177.5q0 -79 8.5 -148 t30 -133.5t54.5 -110.5t84.5 -73t117.5 -27q67 0 102 19q21 9 33 20v-181q-12 -11 -33 -19q-44 -17 -105 -17q-113 0 -207.5 48.5t-160 136t-101.5 212t-36 273.5z" />
<glyph unicode="&#xe15;" horiz-adv-x="1269" d="M63 645q0 133 20.5 241.5t55.5 183.5t83.5 126t103.5 74.5t115 23.5q57 0 127 -82q39 -43 61 -79q20 39 56 79q65 82 127 82q64 0 128.5 -34.5t113 -89t79 -127t30.5 -146.5v-897h-211v897q0 86 -50 151t-105 65q-33 0 -103 -92q-42 -54 -65 -89q-12 17 -68 89 q-25 30 -38.5 45.5t-33.5 31t-35 15.5q-23 0 -45.5 -12t-47.5 -45t-44 -83.5t-31.5 -135t-12.5 -192.5q0 -110 17.5 -198.5t52.5 -155t93 -102.5t135 -36q62 0 97 19q25 10 38 20v-184q-17 -8 -38 -16q-45 -17 -107 -17q-115 0 -210 50.5t-157.5 140.5t-96.5 213t-34 266z " />
<glyph unicode="&#xe16;" horiz-adv-x="1269" d="M63 960q50 94 123 167q178 167 408 167q81 0 161 -16t154 -50t130.5 -82.5t90 -118.5t33.5 -152v-689q0 -19 -5 -38t-15.5 -35.5t-20.5 -29.5t-24 -28q-41 -41 -63 -55h-80v818q0 67 -21.5 119.5t-56.5 85t-83.5 53.5t-97 29t-102.5 8q-76 0 -129.5 -21t-106.5 -57 q-38 -24 -74 -75l175 -142q-27 -28 -38 -52q-35 -68 -35 -178v-347v-7q0 -18 1 -26t8 -15.5t21 -9.5h88v-183h-140q-186 0 -186 216v372q0 91 25 169q14 37 29 61q-16 13 -45 37.5t-41 33.5q-83 67 -83 71z" />
<glyph unicode="&#xe17;" horiz-adv-x="1255" d="M106 0v1264h212v-189q36 58 101 109q137 110 315 110q74 0 141 -26.5t116.5 -70.5t85.5 -101.5t54 -121.5t18 -128v-846h-211v760q0 79 -14.5 136.5t-48 101t-92.5 65t-143 21.5q-127 0 -233 -80q-52 -34 -89 -81l-3 -923h-209z" />
<glyph unicode="&#xe18;" horiz-adv-x="1169" d="M63 960q0 63 23 115.5t63.5 88t92 62t113 41.5t122 22t122.5 7q169 0 333 -60q35 -13 146 -60v-186q-60 31 -140 63q-173 63 -339 63q-32 0 -54.5 -0.5t-59 -4t-62 -9t-55.5 -17t-48.5 -27.5t-31 -41t-12.5 -56.5t16.5 -55t37.5 -36.5t66 -23.5t75 -14.5t92 -10 q70 -8 107.5 -13t104 -19.5t105 -32.5t88 -51.5t75.5 -77t45 -108.5t19 -147q0 -59 -17 -114.5t-56 -107.5t-96 -90.5t-142.5 -61.5t-190.5 -23q-517 0 -517 411v178h216v-178q0 -48 11.5 -86t28 -62t44.5 -41t50.5 -25.5t57.5 -13t53.5 -5t49.5 -0.5q129 0 212.5 62.5 t83.5 159.5q0 42 -8.5 76.5t-27.5 60t-37.5 45t-53.5 34t-59.5 24t-70 17.5t-71.5 12t-77 10q-47 6 -71 9t-67.5 10.5t-67 15t-59 20.5t-55 28t-43 37t-35.5 48.5t-20.5 61.5t-8.5 76z" />
<glyph unicode="&#xe19;" horiz-adv-x="1255" d="M106 419v840h212v-763q0 -167 74 -241t216 -74q132 0 238 79q57 37 92 82v917h211v-1259h-211v189q-41 -60 -104 -109q-132 -105 -317 -105q-76 0 -142.5 26t-115 70t-83.5 101t-52.5 120t-17.5 127z" />
<glyph unicode="&#xe1a;" horiz-adv-x="1226" d="M106 435v829h212v-840q0 -50 14 -97t40.5 -86.5t70.5 -63.5t99 -24h120q59 0 107.5 24t78 63.5t45.5 87t16 96.5v840h212v-829q0 -66 -16 -131.5t-50 -125t-82 -104.5t-116.5 -72t-148.5 -27h-201q-68 0 -126.5 18.5t-101.5 52t-76.5 77.5t-54.5 96t-31.5 106.5 t-10.5 109.5z" />
<glyph unicode="&#xe1b;" horiz-adv-x="1226" d="M106 435v829h212v-840q0 -50 14 -97t41 -86.5t72 -63.5t102 -24h121q57 0 104 24t76 63.5t45 87t16 96.5v1213h212v-1202q0 -66 -15.5 -131t-49.5 -125t-82.5 -105t-118.5 -72t-152 -27h-202q-77 0 -142.5 27t-111.5 72t-78 105t-47.5 125t-15.5 131z" />
<glyph unicode="&#xe1c;" horiz-adv-x="1472" d="M106 958q0 38 4.5 74t14 71t26 63.5t39 51t54.5 34.5t71 12h139v-183l-90 3q-13 0 -23 -6t-15.5 -18t-9 -23t-5 -28.5t-2 -27.5t-0.5 -26q4 -226 63 -433q23 -89 61 -180l229 561h104l227 -561q39 72 68 194q68 251 94 728h213q-23 -473 -150 -934q-64 -211 -118 -330 h-140l-243 582l-247 -582h-140q-63 135 -112 295q-112 353 -112 663z" />
<glyph unicode="&#xe1d;" horiz-adv-x="1470" d="M106 958q0 47 6 89t20.5 82.5t37.5 69.5t59.5 47t82.5 18h139v-183l-87 3q-57 0 -57 -126q0 -217 63 -436q29 -98 63 -180l229 561h104l227 -561q45 108 79 298q80 443 80 1020h213q0 -687 -132 -1244q-52 -227 -133 -416h-140l-246 582l-244 -582h-140q-63 135 -112 295 q-112 353 -112 663z" />
<glyph unicode="&#xe1e;" horiz-adv-x="1547" d="M20 1264h204l246 -859l238 859h132l235 -859l249 859h205l-361 -1264h-150l-244 881l-243 -881h-147z" />
<glyph unicode="&#xe1f;" horiz-adv-x="1659" d="M20 1264h204l246 -859l238 859h132l235 -859l361 1255h203l-471 -1660h-150l-244 875l-241 -875h-149z" />
<glyph unicode="&#xe20;" horiz-adv-x="1269" d="M63 960q50 94 123 167q167 167 399 167q88 0 170.5 -16t157 -50t130 -82.5t88 -118t32.5 -152.5v-689q0 -19 -5 -38t-15.5 -35.5t-20.5 -29.5t-24 -28q-41 -41 -63 -55h-80v818q0 68 -22 121.5t-57.5 85.5t-85 52.5t-99 28t-106.5 7.5q-68 0 -120 -21t-104 -57 q-43 -27 -77 -75l175 -142q-22 -23 -35 -52q-31 -60 -31 -178v-372q0 -107 -49.5 -161.5t-137.5 -54.5h-140v181h87q6 0 10.5 1.5t7.5 3.5t5 6l3 6t1.5 8.5t0.5 9v11v11.5l-3 350q0 91 25 169q14 37 29 61q-16 13 -45 37.5t-41 33.5q-83 67 -83 71z" />
<glyph unicode="&#xe21;" horiz-adv-x="1255" d="M106 0v1264h212v-908q32 -42 92 -80q108 -81 227 -81q84 0 142.5 20t93 61t50 98t15.5 137v753h211v-848q0 -59 -17 -120.5t-52 -119t-83 -102.5t-116 -72t-145 -27q-185 0 -317 105q-69 54 -101 106v-186h-212z" />
<glyph unicode="&#xe22;" horiz-adv-x="1183" d="M63 372q0 170 150 276q63 47 151 69q-69 11 -137 49q-135 85 -135 224q0 62 19 114t50 86.5t71 58t80.5 34.5t80.5 11q86 0 168 -19q49 -14 58 -16v-187q-6 3 -15.5 6t-20 6.5t-19.5 7.5q-4 1 -17.5 4.5t-20 5t-20 4t-23.5 4t-23.5 2.5t-26.5 1q-26 0 -49.5 -9.5 t-41 -25.5t-28 -39t-10.5 -49q0 -89 85.5 -135t229.5 -46v-180q-69 0 -128 -17t-97.5 -44.5t-66 -61.5t-39.5 -68t-12 -66q0 -109 66.5 -164t216.5 -55q78 0 139 24t96.5 63.5t53 86.5t17.5 97v840h213v-829q0 -68 -17 -131.5t-56.5 -124t-98 -105.5t-148 -72t-199.5 -27 q-92 0 -167 14t-129 40t-93 61.5t-62 81t-34 94.5t-11 106z" />
<glyph unicode="&#xe23;" horiz-adv-x="1054" d="M106 85v175q87 -44 115 -54q114 -53 263 -53q132 0 192 58.5t60 160.5q0 44 -17.5 77t-47.5 53t-70.5 37t-86 28t-93 26.5t-93 32t-86 45.5t-70.5 66t-48 94t-18 129q0 96 59.5 173.5t156 119t209.5 41.5q161 0 268 -58q49 -23 93 -57v-186q-46 35 -90 60 q-112 60 -271 60q-92 0 -152.5 -40.5t-60.5 -114.5q0 -45 21.5 -78t58 -54t84 -37.5t100 -32.5t104.5 -34t99.5 -47t84 -67.5t58 -98.5t21.5 -137q0 -42 -5 -80.5t-18.5 -79.5t-35.5 -74.5t-57 -64.5t-81 -52t-110.5 -33.5t-143.5 -12.5q-172 0 -285 53q-38 16 -107 57z" />
<glyph unicode="&#xe24;" horiz-adv-x="1269" d="M63 960q50 94 123 167q178 167 405 167q59 0 117.5 -8.5t115 -25.5t107 -41.5t93.5 -59.5t74 -76.5t48 -95t17 -112.5v-1288q0 -26 -10.5 -51.5t-23 -42t-31.5 -38.5q-41 -40 -63 -54h-80v1417q0 68 -22.5 121.5t-58 85.5t-85.5 52.5t-99 28t-105 7.5q-125 0 -227 -78 q-43 -31 -74 -75l172 -142q-22 -23 -35 -52q-35 -68 -35 -178v-347v-7q0 -18 1 -26t8 -15.5t21 -9.5h88v-183h-134q-192 0 -192 216v372q0 91 25 169q14 37 29 61q-16 13 -45 37.5t-41 33.5q-83 67 -83 71z" />
<glyph unicode="&#xe25;" horiz-adv-x="1155" d="M63 330q0 83 30 150.5t79 111t115 73t134.5 42.5t139.5 13q160 0 236 22q32 14 40 27v65q0 61 -16.5 110.5t-49 87t-86 58t-124.5 20.5q-160 0 -295 -123q-61 -57 -102 -125l-76 178q33 63 107 128q147 126 366 126q489 0 489 -506v-788h-213v588q-11 -9 -52 -24 q-86 -22 -224 -22q-25 0 -51.5 -3.5t-54.5 -12t-54 -20t-49 -29t-40 -38.5t-26.5 -49t-9.5 -60q0 -59 28.5 -100t74.5 -59t105 -18q45 0 110 16l43 17v-183q-6 -3 -41 -17q-46 -14 -117 -14q-198 0 -307 91t-109 267z" />
<glyph unicode="&#xe26;" horiz-adv-x="1269" d="M63 960q50 94 123 167q37 35 75 61.5t88 52t112.5 39.5t132.5 14q79 0 158 -16t153.5 -50t131.5 -82.5t91.5 -118.5t34.5 -152v-1288q0 -26 -10.5 -51.5t-23 -42t-31.5 -38.5q-41 -40 -63 -54h-80v1417q0 64 -21 116t-55.5 84.5t-82 54.5t-96.5 31t-104 9 q-75 0 -130.5 -21.5t-107.5 -56.5q-38 -24 -74 -75l175 -142q-22 -23 -35 -52q-31 -60 -31 -178v-372q0 -216 -190 -216h-137v181h87q6 0 10.5 1.5t7.5 3.5t5 6l3 6t1.5 8.5t0.5 9v11v11.5l-3 350q0 91 25 169q14 37 29 61q-16 13 -45 37.5t-41 33.5q-83 67 -83 71z" />
<glyph unicode="&#xe27;" horiz-adv-x="1141" d="M63 132l71 180q33 -41 93 -80q110 -79 263 -79q74 0 142.5 33t121 93.5t84 152t31.5 199.5q0 88 -20.5 162.5t-56 127.5t-83.5 90t-103.5 55t-115.5 18q-140 0 -263 -66q-58 -33 -93 -63l-71 178q30 42 92 79q124 82 329 82q100 0 190 -29t163.5 -85.5t127.5 -135.5 t83.5 -184.5t29.5 -228t-29.5 -227.5t-82.5 -183.5t-126 -134t-162 -83.5t-188 -28q-215 0 -332 77q-64 35 -95 80z" />
<glyph unicode="&#xe28;" horiz-adv-x="1283" d="M106 0v875q0 65 21 123.5t58 103.5t87.5 82t109 60.5t123 36.5t129.5 13q114 0 192 -27q66 27 103 66t37 101h213q0 -89 -47 -154t-120 -101q52 -33 89.5 -80.5t57.5 -105t20 -118.5v-875h-213v875q0 73 -47.5 128.5t-122 82.5t-162.5 27q-86 0 -158.5 -28.5 t-116.5 -83.5t-44 -126v-311q41 46 92 79q106 79 227 79v-208q-118 0 -232 -67q-41 -25 -87 -66v-381h-209z" />
<glyph unicode="&#xe29;" horiz-adv-x="1226" d="M106 435v829h212v-834q0 -52 14 -100.5t41 -88.5t72 -64t102 -24h121q58 0 104.5 24t75 63.5t43.5 86.5t15 97l3 175h-258v161h258v504h212v-504h86v-161h-88v-164q0 -61 -12.5 -119t-35.5 -109.5t-58.5 -94t-80 -73t-101 -47.5t-120.5 -17h-200q-96 0 -174 38 t-127.5 102t-76.5 146.5t-27 173.5z" />
<glyph unicode="&#xe2a;" horiz-adv-x="1160" d="M63 330q0 83 29 150.5t76.5 111t111.5 73t131 42.5t139 13q154 0 241 22q36 13 49 27v65q0 125 -70 200.5t-209 75.5q-160 0 -295 -123q-61 -57 -102 -125l-72 181q35 63 105 125q148 126 364 126q81 0 156 -19q40 19 67 40t43 51t16 68h213q0 -155 -167 -236 q164 -124 164 -410l-3 -788h-210v588q-24 -15 -60 -27q-87 -22 -230 -22q-34 0 -70.5 -8t-73 -24.5t-65.5 -40.5t-47 -59.5t-18 -76.5q0 -87 59.5 -132t151.5 -45q45 0 109 16q33 13 44 20v-186l-44 -17q-53 -14 -109 -14q-200 0 -312 91t-112 267z" />
<glyph unicode="&#xe2b;" horiz-adv-x="1138" d="M106 0v1264h212v-512l516 512h282l-431 -430q37 -7 70.5 -17.5t76 -30t78 -43.5t70 -61.5t58.5 -82.5t39 -107t15 -134v-358h-211l-3 318q0 63 -13 118t-33.5 94.5t-48.5 72t-56 53t-59 36t-54 23t-43 10.5l-253 -257l-3 -468h-209z" />
<glyph unicode="&#xe2c;" horiz-adv-x="1659" d="M22 1264h205l243 -859l241 859h132l235 -859l189 648q11 26 11 68q0 89 -88 160q-41 32 -87 52q94 30 167 78q166 110 166 249h208q0 -177 -167 -270q-80 -41 -167 -57q39 -14 83 -48q83 -67 87 -158q3 -50 -18 -101l-292 -1026h-152l-241 875l-241 -875h-152z" />
<glyph unicode="&#xe2d;" horiz-adv-x="1255" d="M63 862q20 115 90 216q29 43 67.5 79t93.5 68t131 50.5t165 18.5q92 0 170.5 -22t137 -59t106 -89t78.5 -110.5t52 -124.5t30 -129.5t9 -128.5q0 -130 -30 -238t-83 -184.5t-126 -130t-159.5 -78.5t-184.5 -25q-157 0 -280 57.5t-193.5 168.5t-70.5 258q0 110 36 158 t122 48h280v-181h-183q-24 2 -34.5 -8.5t-7.5 -34.5q2 -47 16 -89.5t41.5 -79t65.5 -63t92.5 -41.5t118.5 -15q187 0 278.5 123.5t91.5 354.5q0 222 -101 352t-272 130q-183 0 -277 -126q-43 -58 -63 -125h-207z" />
<glyph unicode="&#xe2e;" horiz-adv-x="1255" d="M63 862q20 115 90 216q29 43 67.5 79t93.5 68t131 50.5t165 18.5q102 0 184 -27q65 19 107.5 60.5t42.5 106.5h200q0 -49 -16.5 -91t-44 -73t-59 -52.5t-66.5 -35.5q80 -62 134 -155.5t77.5 -192t23.5 -203.5q0 -130 -30 -238t-83 -184.5t-126 -130t-159.5 -78.5 t-184.5 -25q-157 0 -280 57.5t-193.5 168.5t-70.5 258q0 103 34.5 154.5t123.5 51.5h280v-181h-183q-42 0 -42 -43q3 -57 25 -108t61.5 -92t103.5 -64.5t144 -23.5q186 0 278 124t92 354q0 222 -101 352t-272 130q-180 0 -274 -126q-44 -51 -66 -125h-207z" />
<glyph unicode="&#xe2f;" horiz-adv-x="1157" d="M63 1264h210q12 -52 25 -89t32.5 -70.5t45 -54t62.5 -32t84 -11.5q115 0 202 67t119 190h210v-829q0 -234 -73 -334.5t-252 -100.5v181q19 0 28 0.5t22.5 3.5t20 10t15 19.5t12 31.5t7.5 47t5.5 65t1.5 86v554q-28 -46 -80 -87q-107 -85 -249 -85q-96 0 -175 33t-134 92 t-90 138t-49 175z" />
<glyph unicode="&#xe30;" horiz-adv-x="777" d="M106 416v106h198v-103q0 -39 23.5 -54t96.5 -15h247l-75 -178h-226q-93 0 -150.5 24.5t-85.5 78t-28 141.5zM106 1047v102h198v-106q0 -39 23.5 -54t96.5 -15h247l-75 -177h-232q-137 0 -197.5 59t-60.5 191z" />
<glyph unicode="&#xe31;" d="M-720 1726v101h201v-104q0 -38 23.5 -53t96.5 -15h514l-74 -175h-500q-50 0 -89 7t-72 24.5t-54.5 45t-33.5 70.5t-12 99z" />
<glyph unicode="&#xe32;" horiz-adv-x="1010" d="M63 987v181q34 34 85 63q113 63 245 63q75 0 147.5 -18.5t138.5 -57.5t116.5 -94t80.5 -134t30 -172v-818h-212v788q0 83 -27 147t-73.5 102t-102.5 57t-119 19q-113 0 -219 -63q-51 -28 -90 -63z" />
<glyph unicode="&#xe33;" horiz-adv-x="1010" d="M-596 1726q0 103 71 175t172 72q103 0 176 -72t73 -175q0 -101 -73 -173.5t-176 -72.5q-67 0 -123 33.5t-88 90t-32 122.5zM-438 1726q0 -37 24.5 -62t60.5 -25q35 0 61 25.5t26 61.5q0 35 -26 60.5t-61 25.5q-36 0 -60.5 -25.5t-24.5 -60.5zM63 987v181q34 34 85 63 q113 63 245 63q75 0 147.5 -18.5t138.5 -57.5t116.5 -94t80.5 -134t30 -172v-818h-212v788q0 83 -27 147t-73.5 102t-102.5 57t-119 19q-113 0 -219 -63q-51 -28 -90 -63z" />
<glyph unicode="&#xe34;" d="M-1018 1480l74 175h777v-175h-851z" />
<glyph unicode="&#xe35;" d="M-1018 1480l74 178h566v169h211v-347h-851z" />
<glyph unicode="&#xe36;" d="M-1018 1480l72 178h372q-3 8 -3 42q6 78 66 131t139 53q60 0 108 -29t72.5 -75t24.5 -100q0 -85 -62.5 -142.5t-142.5 -57.5h-646zM-416 1683q0 -17 13.5 -30.5t30 -13.5t29.5 13.5t13 30.5q0 11 -6 21t-15.5 16t-20.5 6q-17 0 -30.5 -13t-13.5 -30z" />
<glyph unicode="&#xe37;" d="M-1018 1480l74 178h336v169h164v-169h86v169h191v-347h-851z" />
<glyph unicode="&#xe38;" d="M-459 -213h133q102 0 162 -57.5t60 -159.5v-215h-211v183q0 18 -7.5 33.5t-22.5 25.5t-33 10h-81v180z" />
<glyph unicode="&#xe39;" d="M-818 -213h142q94 0 154 -54.5t60 -145.5q0 -83 71 -83q76 0 76 83v200h211v-228q0 -36 -5.5 -66t-24.5 -62.5t-50 -55t-85.5 -37t-126.5 -14.5q-80 0 -136 18t-85 50t-41.5 67.5t-12.5 78.5q0 18 -7.5 33.5t-22 25.5t-33.5 10h-84v180z" />
<glyph unicode="&#xe3a;" d="M-315 -213h211v-203h-211v203z" />
<glyph unicode="&#xe3f;" horiz-adv-x="1141" d="M106 0v1436h275v241h204l-3 -243q169 -15 268 -111t99 -234q0 -114 -65.5 -205.5t-177.5 -123.5q93 -16 166 -60t118 -117.5t45 -166.5q0 -67 -21.5 -129t-61.5 -112t-94.5 -88t-124.5 -60.5t-148 -26.5v-238h-204v238h-275zM318 181h199q70 0 129 19t97 52t59 75t21 89 q0 116 -86 185.5t-253 69.5h-166v-490zM318 851h150q53 0 99.5 12t85.5 36t61 65.5t22 96.5q0 65 -33 109.5t-88.5 65t-130.5 20.5h-166v-405z" />
<glyph unicode="&#xe40;" horiz-adv-x="495" d="M106 216v1048h212v-1026v-7q0 -18 1 -26t7.5 -15.5t20.5 -8.5h86v-181h-135q-44 0 -78.5 11.5t-60 36t-39.5 67t-14 101.5z" />
<glyph unicode="&#xe41;" horiz-adv-x="1002" d="M106 216v1048h212v-1026v-7q0 -18 1 -26t7.5 -15.5t20.5 -8.5h86v-181h-143q-88 0 -136 53.5t-48 162.5zM613 216v1048h213v-1026v-10v-10v-8.5t1 -8t2 -6.5t3.5 -5.5t5 -4t7 -3.5t9.5 -1h87v-181h-142q-88 0 -137 53.5t-49 162.5z" />
<glyph unicode="&#xe42;" horiz-adv-x="646" d="M200 1628q0 268 410 268h304v-181h-220q-104 0 -164 -9t-88.5 -31t-28.5 -61q0 -26 6 -59t14.5 -69t17 -78.5t14 -102.5t5.5 -126v-941v-10v-10t0.5 -8.5t1 -8t2 -6.5t3.5 -5.5t5 -4t7 -3.5t9 -1h87v-181h-144q-88 0 -135.5 54t-47.5 162v963q0 104 -14.5 193t-29 152.5 t-14.5 103.5z" />
<glyph unicode="&#xe43;" horiz-adv-x="824" d="M0 1754q27 44 71 84q97 86 236 86q89 0 160.5 -22.5t125.5 -68.5t83.5 -121t29.5 -175q0 -56 -9 -104.5t-20 -80t-20 -96t-9 -149.5v-866v-11.5v-11t0.5 -9t1.5 -8.5t3 -6.5t5 -6t7.5 -3t10.5 -2.5h87v-183h-139q-186 0 -186 216v891q0 98 14 180t27.5 143t13.5 107 q0 206 -195 206q-97 0 -169 -83q-41 -53 -58 -84z" />
<glyph unicode="&#xe44;" horiz-adv-x="848" d="M0 1715v181q24 0 47.5 -5t43 -12.5t39 -19t33.5 -21.5t29 -23t22.5 -20.5t16.5 -17.5t10 -10q18 30 52 63q71 66 163 66q41 0 73 -12.5t54 -33t38 -52.5t25.5 -65.5t15 -78.5t7.5 -85.5t2 -91.5v-1236v-7q-1 -18 0 -26t8 -15.5t21 -9.5h85v-183h-137q-189 0 -189 216 v1261q0 7 1 36t0.5 47t-2 47t-7 47t-13.5 35.5t-23 24t-34 1.5q-35 -9 -83 -90q-16 -26 -38 -74q-25 41 -68 80q-90 84 -192 84z" />
<glyph unicode="&#xe45;" horiz-adv-x="1010" d="M63 987v181q39 34 90 63q112 63 249 63q73 0 144 -18.5t136 -57.5t115 -94t79.5 -134t29.5 -172v-1231q0 -26 -10.5 -51.5t-23 -42t-32.5 -38.5q-41 -40 -63 -54h-83v1387q0 69 -19 125t-50 92.5t-73.5 61.5t-87 35.5t-92.5 10.5q-113 0 -219 -63q-51 -28 -90 -63z" />
<glyph unicode="&#xe46;" horiz-adv-x="1183" d="M63 932q0 99 38 181t108.5 131.5t160.5 49.5q50 0 131 -82q48 -47 70 -79q26 36 69 79q81 82 131 82q61 0 112.5 -21.5t87 -57t60 -82.5t36 -98t11.5 -103v-1345q0 -26 -10.5 -51.5t-23 -42t-32.5 -38.5q-40 -40 -63 -54h-84v1474q0 116 -28.5 177t-94.5 61 q-12 0 -31 -15.5t-35 -33.5t-39 -46q-57 -81 -66 -95q-11 15 -35 47.5t-35 47.5q-36 44 -62 69.5t-43 25.5q-51 0 -85.5 -48.5t-34.5 -132.5q0 -89 42 -149q21 -30 46 -47l-69 -172q-64 21 -117 70q-115 109 -115 298z" />
<glyph unicode="&#xe47;" d="M-987 1697q0 48 12.5 87.5t34.5 65.5t49 45.5t59.5 29.5t62.5 15t61 5h229q117 0 189 53q31 23 60 57v-186q-18 -12 -60 -28q-91 -29 -189 -29h-200q-79 0 -111.5 -33.5t-32.5 -81.5q0 -30 23.5 -58t63.5 -28q33 0 54 12.5t39 34.5q19 31 24 49h60q4 -28 17 -49 q23 -47 66 -47q40 0 62.5 29.5t22.5 66.5h161q0 -95 -61 -161t-156 -66q-59 0 -106 36q-20 12 -41 38q-21 -27 -43 -38q-60 -36 -129 -36q-40 0 -77.5 11.5t-70.5 36t-53 68t-20 101.5z" />
<glyph unicode="&#xe48;" d="M-315 1480v347h211v-347h-211z" />
<glyph unicode="&#xe49;" d="M-791 1649v178h232q44 0 79.5 -34.5t35.5 -77.5q0 -16 7.5 -29t21 -20.5t29.5 -7.5h414l-69 -178h-460q-61 0 -101.5 31.5t-40.5 80.5q0 57 -51 57h-97z" />
<glyph unicode="&#xe4a;" d="M-883 1611q0 95 64.5 157t153.5 62q53 0 97 -38q23 -24 32 -38q15 25 32 35q38 38 97 38q40 0 75.5 -12t59.5 -32t37.5 -45.5t13.5 -51.5q0 -7 0.5 -12t2.5 -8t3 -5t5.5 -2.5t5.5 -1t7.5 0t7.5 0.5h217l-69 -178h-203q-38 0 -65.5 12t-41.5 32.5t-20.5 42t-6.5 44.5 q0 35 -15 60.5t-42 25.5q-35 0 -50.5 -24.5t-15.5 -61.5h-67q0 86 -69 86q-24 0 -40.5 -26t-16.5 -60q0 -54 37 -98q15 -17 41 -33h-202q-21 12 -33 33q-32 37 -32 98z" />
<glyph unicode="&#xe4b;" d="M-459 1562v181h144v84h211v-84h142v-181h-142v-82h-211v82h-144z" />
<glyph unicode="&#xe4c;" d="M-605 1480v77q0 69 34 130.5t97 100.5t141 39h178l-75 -178h-51q-58 0 -85 -32t-27 -88v-49h-212z" />
<glyph unicode="&#xe4d;" d="M-596 1726q0 102 70.5 174.5t172.5 72.5q103 0 176 -73t73 -174t-73 -173.5t-176 -72.5q-67 0 -123 33.5t-88 90t-32 122.5zM-438 1726q0 -37 24.5 -62t60.5 -25q35 0 61 25.5t26 61.5q0 35 -26 60.5t-61 25.5q-36 0 -60.5 -25.5t-24.5 -60.5z" />
<glyph unicode="&#xe4e;" d="M-700 1606q0 70 37 122.5t95 78.5t127 26q0 91 77.5 135.5t223.5 44.5v-115q-39 0 -65 -3.5t-53 -16.5t-42.5 -36.5t-25.5 -64.5t-10 -100q-162 0 -162 -109q0 -45 19 -69q14 -14 23 -19h-203q-41 67 -41 126z" />
<glyph unicode="&#xe4f;" horiz-adv-x="1332" d="M106 531q0 114 44.5 217.5t119 179t178 120t217.5 44.5t218 -44.5t179.5 -120t120.5 -179t45 -217.5t-45 -217.5t-120.5 -177.5t-179.5 -117.5t-218 -43.5t-217.5 43.5t-178 118t-119 177.5t-44.5 217zM281 531q0 -104 52 -192.5t140.5 -140.5t191.5 -52q106 0 194.5 52 t139.5 140.5t51 192.5q0 106 -51 194t-139.5 138.5t-194.5 50.5q-104 0 -192 -50.5t-140 -139t-52 -193.5zM405 531q0 109 75.5 184.5t184.5 75.5t185.5 -75.5t76.5 -184.5t-76.5 -185t-185.5 -76q-72 0 -131.5 34.5t-94 94.5t-34.5 132z" />
<glyph unicode="&#xe50;" horiz-adv-x="1255" d="M63 530.5q0 113.5 45 218t120.5 179.5t179 119.5t216.5 44.5q91 0 177 -28.5t156 -80.5t123.5 -121t83 -154.5t29.5 -176.5q0 -114 -46 -217.5t-123.5 -177.5t-182.5 -117.5t-219 -43.5t-217.5 43.5t-178.5 118t-119 177.5t-44 216.5zM273 530.5q0 -103.5 47.5 -191.5 t129.5 -139.5t179 -51.5q71 0 136.5 30.5t113 82t76 122t28.5 148.5q0 103 -47.5 190.5t-129.5 138.5t-177 51q-97 0 -179 -51t-129.5 -138.5t-47.5 -191z" />
<glyph unicode="&#xe51;" horiz-adv-x="1255" d="M63 634q0 70 26 138t75 125.5t115 101t152 68.5t179 25q120 0 225.5 -41t185 -116t126 -191t46.5 -257q0 -70 -16 -135t-45 -119t-69.5 -102.5t-88.5 -86t-102.5 -67.5t-112 -49.5t-116 -29.5t-115.5 -10q-62 0 -81 3l49 175h11q51 0 105.5 13t107 37.5t100 61.5t83 82.5 t56.5 104t21 122.5q0 84 -19.5 154t-53.5 119.5t-81 84t-101.5 50.5t-114.5 16q-72 0 -131 -20t-95.5 -50.5t-62 -69t-35.5 -73t-10 -64.5q0 -64 23 -117.5t56.5 -81.5t68.5 -28q55 0 76.5 29t21.5 83v55h212v-76q0 -33 -8 -67t-29.5 -71.5t-54.5 -66t-89.5 -47.5 t-128.5 -19q-49 0 -99 16.5t-97.5 50.5t-84 81.5t-58.5 114.5t-22 144z" />
<glyph unicode="&#xe52;" horiz-adv-x="1556" d="M20 1485v178h43q59 0 111 -15t91.5 -41t71.5 -61t54 -74t37 -81.5t21.5 -82.5t6.5 -77v-838q0 -46 11 -84.5t30 -64t42 -44t49.5 -28.5t50 -14.5t46.5 -4.5h376q32 0 61.5 6t59 22t51 40t35 64t13.5 90v310q0 41 -7.5 81.5t-22.5 79t-43.5 62.5t-66.5 24q-51 0 -91 -57 q-8 -10 -23 -32t-18 -25q-21 38 -37 57q-40 57 -89 57q-26 0 -47.5 -10.5t-36 -28t-22.5 -40.5t-8 -48q0 -33 9 -59t22.5 -43t35 -29.5t41 -18.5t46 -10t44 -4.5t40.5 -0.5v-184q-45 0 -82.5 3t-82.5 12t-81 24t-71 42t-58.5 62.5t-37.5 88t-14 117.5q0 32 8.5 69t29 76.5 t49.5 71.5t75 52.5t101 20.5q20 0 38.5 -4t34.5 -13t27 -16t26 -19q26 -22 43 -48q19 28 46 48q67 52 135 52q63 0 115 -25.5t85.5 -66.5t57 -95t33.5 -110t10 -113v-310q0 -83 -22.5 -150.5t-60.5 -113.5t-90.5 -77t-110 -45t-121.5 -14h-455q-52 0 -104.5 14t-103 45.5 t-89 76.5t-62 113.5t-23.5 150.5v864q0 41 -5 73.5t-20 66t-40 56t-67.5 36.5t-99.5 14z" />
<glyph unicode="&#xe53;" horiz-adv-x="1541" d="M63 536q0 266 103 411t290 145q138 0 247 -137q45 -58 71 -137q26 79 72 137q98 137 243 137q86 0 157 -36t123.5 -105t81.5 -175t29 -240q0 -202 -79 -393q-26 -65 -77 -143h-205q49 77 74 146q74 186 74 390q0 66 -8.5 123t-26 103.5t-42.5 79.5t-58.5 51t-73.5 18 q-87 0 -141.5 -109.5t-54.5 -317.5h-183q0 129 -25.5 227t-69.5 149t-100 51q-39 0 -75 -20.5t-66.5 -62.5t-48.5 -117.5t-18 -174.5q0 -109 31.5 -195t94 -137t145.5 -51q48 0 90 14q8 1 39 14v-173q-22 -11 -36 -16q-45 -17 -95 -17q-60 0 -118.5 17t-112.5 49.5t-99.5 82 t-79.5 110t-53 138.5t-19 164z" />
<glyph unicode="&#xe54;" horiz-adv-x="1499" d="M63 519q0 80 15 157t48 147.5t80.5 124t117 85t152.5 31.5h473q40 0 71 4.5t62.5 19t52.5 38.5t34 65t13 97v378h211l-3 -405q0 -80 -20.5 -144.5t-55.5 -107t-83.5 -70.5t-103 -40.5t-115.5 -12.5h-505q-58 0 -103.5 -32t-73 -85.5t-41 -117.5t-13.5 -134 q0 -71 13 -130.5t39.5 -106.5t71 -73t104.5 -26h470q-71 36 -142 103q-143 137 -143 315h217q0 -87 31 -166.5t80.5 -133.5t111 -86t121.5 -32h143v-181h-911q-95 0 -175 42.5t-133 114t-82 165.5t-29 197z" />
<glyph unicode="&#xe55;" horiz-adv-x="1499" d="M63 517q0 79 15.5 156.5t48.5 148.5t80.5 124.5t117 85.5t151.5 32h104q-16 46 -16 74q0 101 72 172.5t173 71.5q100 0 170.5 -71t70.5 -173q0 -31 -10 -66q38 13 63 30t43.5 44t27 67.5t8.5 96.5v356h211v-396q0 -104 -28.5 -179.5t-81 -119.5t-117.5 -64.5t-145 -20.5 h-510q-58 0 -104.5 -32t-74 -85.5t-42 -118t-14.5 -133.5q0 -70 13 -129.5t39 -106.5t70.5 -73.5t102.5 -26.5h476q-77 39 -145 103q-143 137 -143 315h217q0 -86 33 -166t83.5 -134t110 -86t112.5 -32h148v-181h-911q-76 0 -143.5 28.5t-117 78.5t-86 115.5t-54.5 140.5 t-18 154zM722 1133q0 -37 25 -61.5t62 -24.5h9q33 7 55 29.5t22 56.5t-25.5 59.5t-60.5 25.5q-24 0 -44 -11.5t-31.5 -31.5t-11.5 -42z" />
<glyph unicode="&#xe56;" horiz-adv-x="1699" d="M20 1485v181h60q79 0 147 -23.5t117 -55.5t94.5 -95.5t72.5 -112.5t59.5 -141t48.5 -145t45 -158l4.5 -15t3.5 -13.5t4 -14.5q25 48 87 101q113 102 309 102q132 0 240.5 -43.5t178.5 -117.5t108 -170.5t38 -204.5q0 -94 -24 -181t-72 -160t-115 -127.5t-158 -85 t-196 -30.5q-94 0 -178.5 29.5t-148.5 82t-112 120t-77 146.5h213q39 -93 125.5 -146.5t177.5 -53.5q66 0 128.5 27t113 77t81 128.5t30.5 173.5q0 97 -44.5 178t-126 127.5t-182.5 46.5q-70 0 -127.5 -24.5t-96.5 -69t-65 -98.5t-41 -120h-203q-30 121 -49 194t-44.5 165.5 t-45 145.5t-45.5 117t-50 98.5t-55.5 71.5t-65.5 54.5t-75 28.5t-89 11z" />
<glyph unicode="&#xe57;" horiz-adv-x="2006" d="M63 536q0 128 29.5 231t79.5 167.5t114.5 98.5t137.5 34q45 0 87 -15t71.5 -35.5t57.5 -53.5t43 -55t31 -55.5t19 -41t9 -23.5q0 5 8.5 26t24 52.5t43 66t60.5 65t80.5 50t99.5 19.5q74 0 138.5 -33t115.5 -96.5t80.5 -167t29.5 -234.5q0 -113 -15.5 -193t-47.5 -157 q28 3 53.5 12.5t50 29.5t43 47t29.5 68t11 90v837q0 63 14 120t45.5 108t77.5 88t114 58.5t150 21.5h40v-181q-59 0 -101 -10.5t-67 -28t-39 -46t-18.5 -58t-4.5 -69.5v-863q0 -82 -24 -151.5t-63.5 -116t-90.5 -79.5t-104 -48t-104 -15h-313q50 77 75 146q77 194 77 390 q0 172 -42 259.5t-139 87.5q-89 0 -149 -88.5t-60 -252.5h-155q0 147 -63 244t-146 97q-31 0 -57 -9t-49.5 -33.5t-39.5 -63t-25 -99.5t-9 -142t18.5 -151t52 -121.5t84.5 -81t114 -29.5q45 0 92 14q28 11 39 16v-175l-42 -16q-50 -17 -92 -17q-96 0 -183.5 41.5t-153 114.5 t-104 178.5t-38.5 226.5z" />
<glyph unicode="&#xe58;" horiz-adv-x="1499" d="M63 536q0 80 19.5 156t60 143.5t97.5 118.5t137 80.5t173 29.5h402q39 0 70.5 5t63 20t52 39t33.5 65.5t13 97.5v375h209v-388q0 -89 -21.5 -158t-57.5 -112.5t-86.5 -71.5t-104.5 -39t-116 -11h-422q-73 0 -133.5 -31t-98 -82.5t-57.5 -114.5t-20 -130q0 -109 23.5 -193 t71.5 -133t113 -49q87 0 150 117q24 43 48 116q27 -60 78 -116q32 -35 60.5 -58t71.5 -41t91 -18q30 0 57 5.5t53.5 20.5t45.5 38.5t31 61t12 85.5v74h211v-74q0 -187 -105.5 -288t-304.5 -101q-141 0 -228 77q-46 31 -73 77q-21 -47 -51 -77q-67 -77 -177 -77 q-55 0 -110.5 23.5t-105.5 71.5t-89.5 113.5t-62.5 157t-23 195.5z" />
<glyph unicode="&#xe59;" horiz-adv-x="1814" d="M63 536q0 74 13.5 142t37 123t54.5 102t68 81.5t76 59t79 36.5t77 12q49 0 91 -12t77 -35t59 -44.5t54 -54.5q24 111 88.5 173.5t157.5 62.5q50 0 98.5 -21.5t86.5 -51.5t72.5 -60t69.5 -51t65 -21q110 0 110 339v350h212v-350q0 -64 -5.5 -121.5t-18 -118t-36 -108.5 t-56 -87t-82 -60.5t-110.5 -21.5t-116 20.5t-93.5 50t-72 58.5t-66 49.5t-60.5 20.5q-38 0 -68 -19.5t-46.5 -50.5t-16.5 -66q0 -22 3 -28l46 -158q23 -71 192 -676h-203l-203 731q-9 31 -26.5 62t-43 59.5t-62.5 46.5t-78 18q-26 0 -53.5 -12.5t-56 -42.5t-51 -72.5 t-36.5 -108.5t-14 -145q0 -108 27 -193t85 -137.5t140 -52.5q40 0 85 16q25 10 35 17v-178q-45 -33 -129 -33q-70 0 -137.5 26t-124.5 76.5t-101 118t-68.5 156t-24.5 184.5z" />
<glyph unicode="&#xe5a;" horiz-adv-x="1530" d="M63 1264h210q14 -53 27 -89t33 -70.5t44 -54t60 -31.5t82 -12q118 0 205 66.5t119 190.5h210v-829q0 -87 -7.5 -150.5t-28.5 -120t-57 -90.5t-93.5 -54t-138.5 -20v181h2h23.5t19.5 2t17 5.5t13.5 10t12 17t9 25.5t7.5 35t4.5 47t3 60.5t0.5 75.5v539q-28 -46 -80 -87 q-107 -85 -253 -85q-96 0 -174 33t-132 92t-89 138t-49 175zM1212 0v1264h213v-1264h-213z" />
<glyph unicode="&#xe5b;" horiz-adv-x="2086" d="M106 514q0 76 16.5 148.5t47.5 136.5t77.5 117.5t105 92t133 59.5t157.5 21q53 0 102 -8t89 -23t74.5 -34t62.5 -43t49 -48.5t38 -51.5q56 -93 77 -210h-205q-16 63 -52 120q-87 120 -235 120q-90 0 -164.5 -51.5t-117.5 -143t-43 -202.5q0 -80 26.5 -148t71.5 -114 t106.5 -72t131.5 -27q108 0 215 74q46 27 80 77l149 -143l112 143l135 -143l117 146q19 -33 64 -77q67 -77 140 -77q31 0 54 9t34 23.5t16 29t5 29.5q0 63 -38 112q-15 26 -33 40h206q19 -11 35 -38q36 -46 36 -123q0 -26 -6.5 -56.5t-25.5 -68t-48 -66.5t-80.5 -49 t-116.5 -20q-95 0 -172 77q-36 28 -66 77l-118 -140l-133 140l-112 -140l-148 140q-34 -50 -80 -77q-97 -77 -221 -77q-117 0 -220.5 44.5t-174.5 118.5t-112 172t-41 204z" />
<glyph unicode="&#x2000;" horiz-adv-x="1290" />
<glyph unicode="&#x2001;" horiz-adv-x="2580" />
<glyph unicode="&#x2002;" horiz-adv-x="1290" />
<glyph unicode="&#x2003;" horiz-adv-x="2580" />
<glyph unicode="&#x2004;" horiz-adv-x="860" />
<glyph unicode="&#x2005;" horiz-adv-x="645" />
<glyph unicode="&#x2006;" horiz-adv-x="430" />
<glyph unicode="&#x2007;" horiz-adv-x="430" />
<glyph unicode="&#x2008;" horiz-adv-x="322" />
<glyph unicode="&#x2009;" horiz-adv-x="516" />
<glyph unicode="&#x200a;" horiz-adv-x="143" />
<glyph unicode="&#x2010;" horiz-adv-x="810" d="M106 545v175h600v-175h-600z" />
<glyph unicode="&#x2011;" horiz-adv-x="810" d="M106 545v175h600v-175h-600z" />
<glyph unicode="&#x2012;" horiz-adv-x="810" d="M106 545v175h600v-175h-600z" />
<glyph unicode="&#x2013;" horiz-adv-x="1111" d="M106 545v175h901v-175h-901z" />
<glyph unicode="&#x2014;" horiz-adv-x="1656" d="M106 545v175h1445v-175h-1445z" />
<glyph unicode="&#x2018;" horiz-adv-x="424" d="M106 1032v186q0 118 107 235q50 55 105 98h199q-66 -55 -101 -103q-98 -132 -98 -230v-186h-212z" />
<glyph unicode="&#x2019;" horiz-adv-x="424" d="M-92 1032q57 49 98 103q46 63 73 117.5t27 109.5v189h212v-189q0 -116 -108 -235q-47 -51 -106 -95h-196z" />
<glyph unicode="&#x201c;" horiz-adv-x="767" d="M106 1032v186q0 118 107 235q50 55 105 98h186q-54 -46 -97 -103q-95 -128 -95 -230v-186h-206zM454 1032v186q0 116 107 235q44 47 112 98h187q-62 -52 -100 -103q-98 -132 -98 -230v-186h-208z" />
<glyph unicode="&#x201d;" horiz-adv-x="767" d="M-92 1032q57 49 98 103q46 63 73 117.5t27 109.5v189h206v-189q0 -112 -112 -235q-52 -57 -108 -95h-184zM260 1032q58 53 96 103q98 132 98 227v189h208v-189q0 -115 -109 -235q-47 -51 -106 -95h-187z" />
<glyph unicode="&#x2022;" horiz-adv-x="764" d="M106 637q0 120 79 198.5t198.5 78.5t197.5 -78.5t78 -198.5q0 -115 -79 -195.5t-196 -80.5q-78 0 -142 37t-100 100.5t-36 138.5z" />
<glyph unicode="&#x2026;" horiz-adv-x="1628" d="M106 0v203h212v-203h-212zM708 0v203h212v-203h-212zM1310 0v203h212v-203h-212z" />
<glyph unicode="&#x202f;" horiz-adv-x="516" />
<glyph unicode="&#x205f;" horiz-adv-x="645" />
<glyph unicode="&#x20ac;" horiz-adv-x="1486" d="M106 470v161h143v72q0 53 3 85h-146v164h175q75 249 254.5 379.5t438.5 130.5q274 0 408 -63l-72 -181q-79 39 -157 53t-179 14q-85 0 -160 -23t-134.5 -66t-104 -105t-71.5 -139h560v-164h-599q-3 -32 -3 -85q0 -49 3 -72h542v-161h-506q38 -105 110.5 -177.5t164 -106 t198.5 -33.5q100 0 169 21.5t167 71.5l72 -177q-160 -94 -430 -94q-166 0 -304.5 58t-234.5 170.5t-134 266.5h-173z" />
<glyph unicode="&#x2122;" horiz-adv-x="1114" d="M106 1368v57h341v-57h-135v-438h-66v438h-140zM507 930v495h84l166 -393l178 393h74v-495h-54v394l-184 -394h-29l-171 394v-394h-64z" />
<glyph unicode="&#xe000;" horiz-adv-x="1059" d="M0 0v1061h1061v-1061h-1061z" />
<glyph horiz-adv-x="922" />
<glyph horiz-adv-x="1226" d="M60 1026q30 75 95 132q148 136 390 136q117 0 235 -44q31 9 59.5 24.5t55 37.5t42 54t15.5 68h211q0 -56 -19.5 -104.5t-53 -82t-72 -56.5t-80.5 -36q108 -87 166.5 -218.5t58.5 -277.5q0 -147 -42.5 -270.5t-118.5 -208.5t-184 -132.5t-236 -47.5h-141l-115 451 q-5 16 -11 23t-13.5 8.5t-25.5 1.5h-63v181h120q47 0 79 -9.5t59 -37t46 -76.5l96 -359q78 0 144 40t108.5 107t66 152t23.5 177q0 80 -18.5 148t-50 116.5t-72 85t-87 58.5t-92.5 32.5t-90 10.5q-188 0 -321 -133q-60 -59 -95 -129z" />
<glyph horiz-adv-x="2014" d="M63 960q50 94 123 167q72 72 172.5 119.5t226.5 47.5q85 0 166.5 -16t156.5 -50t131.5 -82.5t90 -118.5t33.5 -152v-451q0 -41 5.5 -77.5t19 -73t35.5 -62.5t58.5 -42t83.5 -16h120q39 0 71.5 11t55.5 30.5t39.5 45.5t26.5 57t14.5 62.5t4.5 64.5v840h213v-829 q0 -67 -13.5 -131.5t-43.5 -124.5t-74.5 -105t-111 -72t-148.5 -27h-228q-77 0 -136.5 25.5t-97 67.5t-62 102.5t-34 125t-9.5 139.5v383q0 66 -21.5 118t-56.5 85t-83 54t-97 29.5t-103 8.5q-134 0 -235 -78q-39 -27 -72 -75l172 -142q-22 -23 -35 -52q-35 -68 -35 -178 v-347v-7q0 -18 1 -26t8 -15.5t21 -9.5h88v-183h-129q-102 0 -149.5 53t-47.5 163v372q0 91 25 169q14 37 29 61q-16 13 -45 37.5t-41 33.5q-83 67 -83 71z" />
<glyph d="M-1089 1697q0 48 11.5 87.5t33 66t47.5 45.5t58.5 29t63 15t63.5 5h172q102 0 189 50q29 18 60 55v-181q-18 -12 -60 -28q-91 -29 -189 -29h-143q-78 0 -111 -33.5t-33 -81.5q0 -32 14 -59t44 -27q55 0 78 47q11 18 11 49h55q4 -28 17 -49q23 -47 68 -47q39 0 63 33 t24 63h160q0 -98 -61 -162.5t-156 -64.5q-57 0 -104 36q-20 12 -41 38q-18 -31 -28 -38q-41 -36 -114 -36q-33 0 -64.5 11.5t-61 35.5t-48 68t-18.5 102z" />
<glyph d="M-591 2125v181h230q43 0 79 -34.5t36 -77.5q0 -24 16.5 -41t40.5 -17h274l-74 -180h-309q-64 0 -103.5 33.5t-39.5 78.5q0 57 -52 57h-98z" />
<glyph d="M-706 2065q0 64 33 115t82 76.5t104 25.5q20 0 36 -6t23.5 -12t20.5 -18q5 -8 23 -38q7 17 23 38q36 36 85 36q77 0 123 -39.5t55 -100.5q1 -5 2.5 -8.5t2.5 -6.5t2.5 -5.5t2.5 -4t3.5 -2.5t3 -1.5t4 -0.5h4h5h5.5h148l-74 -178h-131q-74 0 -104.5 32.5t-30.5 82.5 q0 17 -3 34t-9 32.5t-18 24.5t-27 9q-23 0 -33.5 -24t-10.5 -61h-57q0 33 -10.5 59t-32.5 26q-24 0 -41 -26t-17 -59q0 -63 35 -98q11 -17 35 -32h-193q-22 13 -34 32q-35 35 -35 98z" />
<glyph horiz-adv-x="2112" d="M63 960q50 94 123 167q178 167 405 167q156 0 294.5 -53.5t212.5 -156.5q19 28 36.5 49.5t54.5 54t77.5 53.5t102.5 37t133 16q73 0 144 -18.5t136.5 -57.5t115.5 -94t80 -134t30 -172v-1231q0 -37 -18 -67.5t-50 -64.5q-40 -40 -63 -54h-82v1387q0 69 -19 125t-50 92.5 t-73 61.5t-86.5 35.5t-92.5 10.5q-61 0 -111.5 -13.5t-82 -34.5t-55 -48.5t-35 -52t-18 -50t-8 -37t-1.5 -17.5v-1273q0 -26 -10.5 -51.5t-23 -42t-31.5 -38.5q-41 -40 -63 -54h-80v1417q0 68 -22.5 121.5t-58 85.5t-85.5 52.5t-99 28t-105 7.5q-125 0 -227 -78 q-43 -31 -74 -75l172 -142q-20 -21 -35 -55q-35 -67 -35 -175v-347q0 -19 5.5 -31.5t13 -18t21.5 -8t24 -2.5t27.5 1t26.5 1v-183h-134q-192 0 -192 216v372q0 91 25 169q14 37 29 61q-16 13 -45 37.5t-41 33.5q-83 67 -83 71z" />
<glyph horiz-adv-x="2112" d="M63 960q50 94 123 167q37 35 75 61.5t88 52t112.5 39.5t132.5 14q149 0 288.5 -54.5t215.5 -158.5q12 18 21 30t26.5 33t35 36t42 34t53 31.5t62.5 24.5t76 18t88 6q73 0 144 -18.5t136.5 -57.5t115.5 -94t80 -134t30 -172v-1231q0 -37 -18 -67.5t-50 -64.5 q-40 -40 -63 -54h-82v1387q0 69 -19 125t-50 92.5t-73 61.5t-86.5 35.5t-92.5 10.5q-67 0 -120 -15.5t-87.5 -42t-55.5 -57t-32 -66.5q-29 -75 -16 -177v-1168q0 -26 -10.5 -51.5t-23 -42t-31.5 -38.5q-41 -40 -63 -54h-80v1417q0 64 -21 116t-55.5 84.5t-82 54.5t-96.5 31 t-104 9q-75 0 -130.5 -21.5t-107.5 -56.5q-38 -24 -74 -75l175 -142q-22 -23 -35 -52q-31 -60 -31 -178v-372q0 -105 -49 -160.5t-141 -55.5h-137v181h87q6 1 11.5 6.5t8.5 12.5t5 17.5t3 20.5t1 24t-0.5 24.5t-0.5 24.5v22l-3 255q-3 81 25 169q14 37 29 61 q-16 13 -45 37.5t-41 33.5q-83 67 -83 71z" />
</font>
</defs>
</svg>
