<?xml version="1.0" encoding="utf-8"?>
<!-- Generator: Adobe Illustrator 21.0.0, SVG Export Plug-In . SVG Version: 6.00 Build 0)  -->
<svg version="1.1" id="Layer_1" xmlns="http://www.w3.org/2000/svg" xmlns:xlink="http://www.w3.org/1999/xlink" x="0px" y="0px"
	 viewBox="0 0 253.5 300.4" style="enable-background:new 0 0 253.5 300.4;" xml:space="preserve">
<style type="text/css">
	.st0{fill:#BF392C;}
	.st1{fill:#E2574C;}
	.st2{fill:#ED9D5D;}
	.st3{fill:#D58D54;}
	.st4{fill:#BC794B;}
</style>
<g>
	<path class="st0" d="M253.5,0H169L46.9,178.4h84.5L253.5,0z"/>
	<path class="st1" d="M0,0h84.5l122.1,178.4h-84.5L0,0z"/>
	<path class="st2" d="M131.4,93.9c57.3,0,103.3,46,103.3,103.3s-46,103.3-103.3,103.3s-103.3-46-103.3-103.3S74.2,93.9,131.4,93.9z"
		/>
	<path class="st3" d="M131.4,122.1c-41.3,0-75.1,33.8-75.1,75.1s33.8,75.1,75.1,75.1s75.1-33.8,75.1-75.1S172.8,122.1,131.4,122.1z
		 M131.4,253.5c-31,0-56.3-25.4-56.3-56.3s25.3-56.3,56.3-56.3s56.3,25.4,56.3,56.3S162.4,253.5,131.4,253.5z"/>
</g>
<g>
	<path class="st4" d="M122.9,171.5c0-1.3,0.5-2.5,1.6-3.7c1.1-1.2,2.4-2.3,3.8-3.4c1.5-1.1,2.9-2.1,4.4-3.1c1.5-0.9,2.6-1.9,3.5-2.7
		l0.8,71.6c0.6,0,0.9-0.2,1.2-0.4c0.2-0.2,0.4-0.5,0.5-0.7c0.1-0.3,0.3-0.5,0.5-0.8c0.2-0.3,0.5-0.5,1-0.7v0.1
		c2.5-1.5,4.5-3.5,5.9-6.3c1.4-2.7,2-6.3,1.9-10.6c-0.4-2.5-0.7-4.8-0.9-6.8c-0.2-2-0.4-3.8-0.5-5.5c-0.1-1.7-0.2-3.2-0.3-4.6
		c0-1.4,0-2.8,0-4.1c0-3.2,0.3-6.4,0.8-9.4c0.5-3.1,1.4-6,2.6-8.8c1.2-2.8,2.8-5.5,4.9-8.1c2-2.6,4.5-5,7.5-7.2v9.3
		c0,1.5,0,3.7,0,6.6s-0.1,6.4-0.1,10.1c0,3.8-0.1,7.8-0.2,12c-0.1,4.2-0.2,8.2-0.2,12.1V217c0,2-0.1,3.6-0.4,4.9
		c-0.3,1.3-0.6,2.4-1,3.4c-0.4,1-0.8,1.8-1.3,2.5c-0.4,0.7-0.8,1.5-1.2,2.2c-1.1,1.6-2.5,3.1-4.2,4.7c-1.7,1.5-3.5,2.8-5.6,3.9
		c-2.1,1.1-4.3,1.8-6.6,2.3c-2.3,0.5-4.6,0.5-7,0.1l-7.5-6.8c-0.9,0.7-1.7,1.4-2.3,1.9c-0.7,0.6-1.3,1.1-2,1.7
		c-0.7,0.6-1.4,1.2-2.3,1.9c-0.8,0.7-1.8,1.6-3,2.7c-1.6-0.4-3-0.9-4.3-1.4c-1.3-0.5-2.4-1.1-3.5-1.6c-1.1-0.6-2.1-1.2-3.1-1.9
		c-1-0.7-2-1.4-3-2.3c-1.4-1.3-2.9-2.7-4.3-4.2c-1.4-1.5-2.6-3.1-3.8-4.8c-1.1-1.7-2-3.5-2.8-5.4c-0.7-1.9-1.1-3.9-1.2-6
		c-0.1-2.3,0-4.4,0.4-6.5c0.4-2.1,0.9-4.1,1.5-6c0.7-1.9,1.5-3.8,2.4-5.7c0.9-1.9,1.9-3.7,3-5.6c0.7-1.1,1.4-2.3,2.3-3.6
		c0.8-1.3,1.3-2.6,1.5-4c0.2-1.8,0-3.6-0.8-5.5c-0.7-1.9-1.6-3.5-2.7-5.1c-1.1-1.5-2.2-2.7-3.3-3.7c-1.1-0.9-2-1.4-2.6-1.4
		c-0.4,0-0.4-0.3,0.1-1c0.4-0.7,1.1-1.4,2-2.4c0.9-0.9,2-1.9,3.3-2.9c1.3-1,2.5-1.9,3.6-2.7c1.2-0.8,2.2-1.3,3.2-1.7
		c1-0.4,1.7-0.3,2,0.1c1.1,1.2,2.3,2.4,3.5,3.5c1.3,1.1,2.3,2.4,3.1,3.8c1.7,3.2,2.5,6.4,2.3,9.6c-0.2,3.1-0.8,6.3-1.9,9.4
		c-1.1,3.1-2.4,6.2-3.9,9.3c-1.5,3.1-2.7,6.1-3.5,9.2c-0.5,1.8-0.7,3.7-0.7,5.8c0.1,2.1,0.3,4.1,0.8,6.2c0.5,2.1,1.2,4,2.1,5.9
		s2,3.6,3.3,5.1c1.3,1.5,2.7,2.7,4.2,3.6c1.6,0.9,3.2,1.4,4.9,1.5c0.3-0.8,0.5-1.9,0.6-3.1c0.1-1.2,0.3-2.8,0.3-4.8
		c0.1-2,0.1-4.4,0.1-7.2s0-6.3,0-10.4s0-8.9,0-14.3C122.9,185,122.9,178.7,122.9,171.5z"/>
</g>
</svg>
