<?xml version="1.0" encoding="utf-8"?>
<!-- Generator: Adobe Illustrator 17.1.0, SVG Export Plug-In . SVG Version: 6.00 Build 0)  -->
<!DOCTYPE svg PUBLIC "-//W3C//DTD SVG 1.1//EN" "http://www.w3.org/Graphics/SVG/1.1/DTD/svg11.dtd">
<svg version="1.1" id="Layer_1" xmlns="http://www.w3.org/2000/svg" xmlns:xlink="http://www.w3.org/1999/xlink" x="0px" y="0px"
	 viewBox="6 255 990 253" enable-background="new 6 255 990 253" xml:space="preserve">
<g>
	<g>
		<path fill="#D6D6D6" d="M67.1,373.7c-3.2,1.9-6.1,3.5-8.9,4.8c14.3,35.1,28.5,70.1,42.8,105.2c2.2,0.5,4.5,0.9,6.9,1
			c2.3,0,4.7-0.1,7-0.6c2.3-0.4,4.5-1.3,6.6-2.3c2-1.2,3.9-2.6,5.7-4.4c2-2.2,3.7-4.7,5-7.4c1.3-2.7,2.2-5.3,2.8-8.1
			c0.5-2.8,0.7-5.4,0.6-8.1c-0.1-2.6-0.6-5-1.4-7.3c-1-2.7-2.3-5.3-4.2-7.9c-1.8-2.6-3.9-4.8-6.3-6.7c-2.3-1.9-4.8-3.3-7.4-4.2
			c-2.6-1-5-1.1-7.3-0.5c-2.2,0.5-4.4,2-6.3,4.4c-1.9,2.3-3.2,5.9-4.1,10.5c-1.7,0.6-2.6,1-4.3,1.6c-1.1-2.8-1.6-6.1-1.7-10.2
			c-0.1-4.1,0.4-8.2,1.5-12.3s2.7-7.8,4.9-11.2s5-5.7,8.3-6.8c3.7-1.4,7.4-1.8,11.1-1.3c3.7,0.5,7.3,1.7,10.7,3.6
			c3.4,1.8,6.6,4.3,9.6,7.1c3,2.9,5.8,6,8.2,9.2c2.5,3.3,4.6,6.6,6.4,9.9s3.2,6.4,4.2,9.3c0.6,1.8,1.3,4.3,2.1,7.3
			c0.7,3,1.5,6.3,2.1,9.7c0.6,3.5,1.1,7,1.4,10.7c0.2,3.6,0.1,7-0.4,10.2c-0.5,3.2-1.5,6-3,8.4c-1.5,2.3-3.6,4.1-6.4,5
			c-2-5.7-3.6-10-4.9-13.1c-1.3-3.1-2.3-5.3-3.1-6.7s-1.4-2.1-1.8-2.1c-0.4-0.1-0.7,0-1,0.4c-1.4,2.2-2.7,4.7-3.8,7.5
			c-1.2,2.8-2.7,5.4-4.2,8.1c-1.6,2.7-3.4,5.1-5.5,7.5c-2.1,2.2-4.9,4.1-8.2,5.3c-3.6,1.4-8,2.3-12.9,2.9c-4.9,0.5-9.9,0.5-14.8,0
			c-4.9-0.5-9.4-1.6-13.5-3.2c-4.1-1.7-7.1-4.1-9.1-7c-14.1-32.5-28.2-65.1-42.1-97.5c-0.2,0.1-0.2,0.1-0.4,0.2
			c-4.2-9.6-6.3-14.5-10.5-24.1c8.4-2.1,16.1-4.3,23.3-6.4c7-2.1,13.7-4.5,19.8-6.9c6.1-2.5,11.9-5.1,17.4-8
			c5.4-2.9,10.8-6,15.9-9.3c2-0.5,4.6-0.4,7.7,0.4s6.2,2,9.3,3.5c3.1,1.5,5.8,3.1,8.1,4.8s3.7,3.2,4.2,4.5
			c4.2,4.8,6.2,7.3,10.2,12.1c-1.6,0.2-3.3-0.1-5.2-1.2c-1.9-1-4.3-1.9-7-2.9c-2.8-1-6.2-1.5-10.2-1.6s-9,0.9-14.7,3.1
			c-9.7,3.6-19.4,7.4-29.1,11.3C67.2,373.6,67.2,373.6,67.1,373.7z M91.3,479.2c2.2,1.4,4.6,2.6,7,3.2
			C84.3,447.9,70.2,413.5,56.1,379c-2.8,1.2-4.5,1.6-5,1.3C64.5,413.3,77.9,446.2,91.3,479.2z"/>
		<path fill="#D6D6D6" d="M245.4,460.2c-9.4-1.9-16.7-6.8-22.2-14.8c-0.1,0-0.1,0-0.1,0c-0.1,0.4-0.2,1-0.4,1.6
			c-0.2,0.6-0.4,1.4-0.5,2c-0.2,0.6-0.5,1.6-0.9,2.6c-0.4,1.4-1,3-1.9,4.5c-0.9,1.5-1.9,3-3,4.4c-1.2,1.5-2.2,2.9-3.4,4.4
			c-1.2,1.4-2.2,3.7-3,4.4c-2,1.6-8,1.2-12.4,0c-4.4-1.3-8.5-3.4-12.5-6.7c-3.9-3.2-7.4-7.3-10.2-12.3c-2.9-5-6.3-12.6-5.4-16.9
			c0.4-2,3.1-5.2,5-7.6c1.9-2.3,3.9-4.7,6-7c2-2.3,4.1-4.7,6-7.1c1.9-2.3,3.7-4.9,5.2-7.6c0.6-0.1,1-0.1,1.5-0.1
			c0,0.2,0,0.3-0.1,0.3c3.8,0.6,7.6,1.7,11.1,3.2c3.5,1.6,6.8,3.4,9.7,5.4c-3.3-11.7-6.5-23.4-9.8-35.1c-16.2,4.3-32.2,9-48.2,13.9
			c3.1-7.4,4.7-11,7.9-18.2c17.7-5.3,35.5-10.2,53.3-14.9c6,22.9,12.1,45.9,18,68.7c0.1,0,0.2,0,0.3-0.1c0.2,2.7,0.9,5,2,6.9
			c1.2,1.9,2.6,3.5,4.1,4.8s3,2.3,4.5,3.1c1.5,0.7,2.7,1.3,3.5,1.7C247.9,450.3,247.1,453.6,245.4,460.2z M195.9,446.3
			c3.6,3.1,6.8,5,9.4,5.7c2.6,0.6,4.7,0.6,6.4-0.1c1.6-0.7,2.8-1.9,3.5-3.5c0.7-1.6,1-3.2,0.9-4.7c-0.5,0.6-1.4,1-2.5,1.1
			c-1.1,0.1-1.8,0.1-2.2,0c-1.7-0.7-2.9-1.6-3.4-2.7c-0.5-1.1-0.6-2-0.3-3c0.3-1,1-1.8,1.9-2.5c1-0.7,2.1-1.1,3.4-1.2
			c0.5,0,1.2,0.1,1.8,0.3c0.7,0.1,1.4,0.3,1.9,0.6c-1-0.7-1.5-1.1-2.5-1.7c-2.1-1.4-4.4-2.9-6.8-4.4c-2.5-1.5-4.9-2.9-7.6-4.2
			c-2.7-1.3-5.3-2.5-8.1-3.5c-2.8-1.1-5.4-1.8-8.2-2.2c0.4,2.3,1,4.8,1.5,7.4c0.6,2.6,1.5,5.1,2.5,7.5c1,2.3,2.2,4.6,3.6,6.6
			C192.7,443.9,194.2,445.4,195.9,446.3z"/>
		<path fill="#D6D6D6" d="M276.8,453.3c-1.1,0.2-2.1,0.1-3.3-0.3s-2.9-1.6-4.8-2.9c-2-1.3-4.4-2.7-6.5-4.5s-4.1-3.8-5.9-6.1
			c-1.8-2.2-3.4-4.6-4.8-7c-1.4-2.5-2.5-5-3.1-7.6c-1.6-5.5-1.9-10.9-1.1-15.9c0.9-5,2.1-10.2,3.8-15.5c0.5-1.5,1.2-3.2,1.7-5
			c0.6-1.8,1-3.6,1.1-5.3c0.2-2.5-0.3-4.7-1.8-6.5c-1.5-1.8-3.3-3.4-5.3-4.5c-2.1-1.2-4.3-1.9-6.4-2.3c-2.2-0.4-3.8-0.4-5,0
			c7.1-8.1,10.8-12.1,18.1-20.1c1.9,1.1,3.9,2.1,6,3.1c2,1,3.9,2.2,5.4,3.8c1.5,1.5,2.8,3.4,3.6,5.2c3.8-6.7,5.8-10,9.7-16.7
			c0.1,0.1,0.2,0.1,0.3,0.2c0-0.2-0.1-0.3-0.1-0.5c7.5,5.2,11.2,7.9,18.6,13.2c6.1-8,9.2-11.9,15.5-19.9c0.1,0.1,0.2,0.1,0.3,0.2
			c0-0.2-0.1-0.3-0.1-0.5c9.4,6.9,14.1,10.5,23.3,17.5c2,12.7,3.9,25.4,6,38.2c1,5.9,1.6,11.3,1.8,16.4s-0.4,9.9-1.8,14.5
			c-1.5,4.6-3.8,8.9-7.3,13c-3.4,4.1-8.1,8-14.1,11.6c-4.5,1.5-6.8,2.2-11.3,3.8c0.1-0.2,0.2-0.3,0.3-0.5c0.2-0.3,0.4-0.5,0.5-0.6
			c1.2-1.1,2.2-2,3.2-2.9c0.9-0.9,1.7-1.8,2.5-2.8c0.7-1,1.5-2,2.2-3.2s1.6-2.6,2.7-4.3c3.5-5.8,5.4-12.8,5.4-21.1
			c-3.1-18.2-6.2-36.5-9.4-54.7c-1.9-1.3-3-2-4.9-3.3c-3.3,3.9-5,5.9-8.2,9.8c3.1,16.7,6.2,33.5,9.4,50.2c0.4,6.5-0.9,12.1-3.6,16.5
			c-2.9,4.6-6.5,7.7-11,9.6c-0.1-0.1-0.1-0.4,0-1c-5-25.1-10.1-50-15.1-75.1c-2-1.3-3-1.9-5-3.2c-3.1,4.6-4.6,6.9-7.7,11.5
			c-0.5,4.3-1.4,8.7-2.8,13.1c-1.3,4.5-2,8.9-2.3,13.1c-0.2,3.3-0.1,6.4,0.6,9.4c0.6,2.9,1.7,5.4,3.1,7.7c1.4,2.2,3.2,4.1,5.2,5.4
			c2.1,1.5,4.6,2.5,7.4,3c0.2-0.1,0.5-0.4,0.9-0.9c0.3-0.4,0.6-1.5,1.2-3.1c-0.5,0.6-1.4,0.9-2.5,0.9c-1.1,0-1.8,0-2.2-0.1
			c-1.7-0.9-2.8-1.8-3.2-2.9c-0.5-1.1-0.5-2-0.1-3c0.4-1,1.1-1.7,2.1-2.3c1-0.6,2.1-1,3.4-1c0.5,0.1,1.1,0.2,1.8,0.4
			c0.6,0.2,1.3,0.4,1.9,0.7c2.1,0.5,3.5,1.7,4.4,3.3c0.7,1.6,1.3,3.6,1.6,6.1c-0.1,0-0.1,0-0.1,0c-1.6,4.7-3.5,9-5.8,12.8
			C282.6,444.6,279.9,448.8,276.8,453.3z"/>
		<path fill="#D6D6D6" d="M384.9,386.9c-0.1,0-0.2,0-0.2,0.1s-0.1,0.1-0.2,0.1c-2.2,1.3-4.5,2.1-6.8,2.5c-2.3,0.4-5.2-0.1-8.7-1.5
			c1.6,10.9,2.3,16.3,3.8,27.1c0.6,0.1,1.4,0.5,2,1.5c0.6,0.9,1.4,1.3,2,1.3c0.7,0,1.1,0,1.7,0.1c5.3,0,10.1-1.3,14.6-3.7
			s8.6-5.5,12.4-9.1c3.8-3.6,7.3-7.4,10.5-11.3c3.2-3.9,6.1-7.5,8.6-10.6c0,0.6,0.1,0.9,0.1,1.5c0.3,4.2-0.4,8.9-2.3,14.1
			c-1.9,5.2-4.7,10.1-8.5,14.9s-8.5,9-14.1,12.5c-5.5,3.6-12.1,5.9-19.3,6.7c-0.6,0.1-1.4-0.2-2.3-0.9c-0.9-0.6-1.7-1.3-2.5-1.7
			c-1.4-0.9-3.1-1.9-5.2-3.4c-2.1-1.4-4.3-2.8-6.4-4.1c-2.5-1.5-5.1-3.1-7.9-4.7c-3.3-22.3-6.5-44.5-9.8-66.8
			c0.6-0.4,1.8-1.2,3.5-2.3c1.7-1.2,3.5-2.6,5.5-4.3s4.1-3.5,6-5.8c1.9-2.1,3.5-4.4,4.8-6.7c14.9,3.2,29.8,6.6,44.6,10.2
			c1.8,3.3,2.2,7,1.4,11.1s-2.7,8.1-5.2,12.2c-2.6,4.1-5.9,7.9-9.8,11.5C393.2,381.3,389.1,384.3,384.9,386.9z M367.2,375.7
			c0.6-1.3,1.8-2.5,3.4-3.5c1.7-1.1,3.4-1.3,5.1-0.7c1,0.4,1.5,1.3,1.7,2.7c0.2,1.4,0,2.5-0.5,3.4c-0.3-0.2-0.4-0.3-0.6-0.6
			c-0.4-0.7-1.1-1.2-1.9-1.2c-0.9,0-1.7,0.3-2.5,0.7c-0.7,0.5-1.3,1.2-1.6,2c-0.3,0.9-0.1,1.8,0.5,2.7c0.6,1,1.6,1.6,2.9,1.7
			c1.6,0.1,3.3-0.2,5.2-1.2s3.7-2.2,5.7-3.9s3.7-3.6,5.4-5.8s3.2-4.3,4.4-6.4s2-4.3,2.5-6.3c0.5-2,0.4-3.7-0.1-5.1
			c-10.9-2.6-16.3-3.7-27.2-6.1c-2,1.7-3.1,2.7-5.1,4.4C365.6,361.9,366.1,366.5,367.2,375.7z"/>
		<path fill="#D6D6D6" d="M585.7,303.1c-2.6,1.3-3.9,3-4.3,4.9c-0.2,1.9,0.1,3.6,1.2,5.1c1.1,1.4,2.7,2.3,4.8,2.8
			c2.1,0.4,4.4-0.3,6.6-2c2.8-2.1,4.3-4.2,4.4-6.3s-0.7-4.1-2.6-6c-1.8-1.8-4.3-3.5-7.6-5c-3.3-1.5-6.9-2.8-11-3.6
			c-4.1-1-8.2-1.5-12.4-1.7c-4.3-0.2-8.2-0.1-11.9,0.5c-1.1,37.1-2,74.2-3.1,111.3c4.8,0.7,9.4,0.6,13.9-0.4
			c4.5-1.1,8.9-2.7,13.1-4.9c4.3-2.2,8.3-4.9,12.3-7.9c3.9-3.1,7.8-6.3,11.4-9.7c3.6-3.3,7-6.6,10.3-9.9c3.2-3.3,6.3-6.3,9.2-9
			c-0.1,1-0.1,1.4-0.2,2.3c-0.3,4.3-1.5,8.9-3.3,13.7c-1.8,4.8-4.4,9.6-7.5,14.4c-3.1,4.7-6.7,9.3-10.9,13.5
			c-4.2,4.3-8.7,8-13.8,11.3c-5,3.3-10.5,5.9-16.3,7.7c-5.9,1.8-12.1,2.7-18.7,2.5c-1,0-1.9-0.6-3.1-1.8c-1.1-1.2-2-2.2-2.9-3.1
			c-1.6-1.7-3.6-3.8-6.3-6.4c-2.7-2.6-5.2-5.1-7.8-7.5c-3.1-2.9-6.3-5.9-9.6-9c0-34.8,0-69.4,0.1-104.2c0-1.5,1-3.2,2.9-5.1
			c1.9-1.9,4.4-3.9,7.4-5.9c3-2,6.4-3.9,10.2-5.9c3.7-1.9,7.5-3.6,11-5c3.5-1.5,6.8-2.7,9.8-3.5s5.2-1.3,6.7-1.2
			c10.8,0.4,19.9,2.2,27.4,5.4c7.6,3.2,12.8,7.3,15.9,12.2c3.1,4.9,3.6,10.5,1.7,16.6c-1.8,6.2-6.7,12.6-14.3,19.3
			c-2.1,1.9-4.5,3-7.3,3.3s-5.3,0.2-7.8-0.5c-2.5-0.6-4.6-1.8-6.4-3.3c-1.8-1.6-2.8-3.3-3.1-5.3c-0.3-2,0.4-4.1,2.1-6.3
			C578.1,307.1,581.2,305,585.7,303.1z M542.8,397c0.4,0.2,0.7,0.5,1.2,1.2c0.4,0.5,0.9,1.2,1.3,1.7c0.4,0.6,0.9,1.2,1.3,1.6
			s0.9,0.7,1.4,0.9c1-36.8,1.9-73.6,2.8-110.3c-2.3,2-3.5,3.1-5.8,5.2C544.1,330.5,543.4,363.8,542.8,397z"/>
		<path fill="#D6D6D6" d="M656.5,387.2c-0.1,0-0.2,0-0.2,0c-0.1,0-0.1,0.1-0.2,0c-2.5,0.7-4.8,1-7.1,0.9c-2.3-0.2-5-1.4-8.2-3.5
			c-1.1,10.9-1.6,16.3-2.6,27.3c0.6,0.2,1.2,0.9,1.7,1.9c0.4,1.1,1.1,1.6,1.7,1.8c0.6,0.2,1,0.3,1.7,0.4c5.1,1.2,10.1,1.2,15.1-0.2
			c4.9-1.4,9.7-3.3,14.2-6c4.6-2.6,8.9-5.4,12.8-8.5c3.9-3.1,7.6-5.9,10.9-8.2c-0.1,0.6-0.1,0.9-0.2,1.5c-0.6,4.2-2.6,8.5-5.5,13.1
			c-3.1,4.6-7,8.7-11.8,12.5c-4.8,3.7-10.3,6.7-16.6,8.9c-6.3,2.1-13,2.9-20.4,2c-0.6-0.1-1.4-0.5-2-1.4c-0.7-0.9-1.4-1.6-1.9-2.2
			c-1.1-1.2-2.6-2.7-4.3-4.5c-1.7-1.9-3.5-3.7-5.2-5.4c-2-2-4.3-4.2-6.6-6.4c2-22.4,4.1-44.8,6.2-67.2c0.7-0.2,2-0.6,3.9-1.4
			s4.1-1.7,6.4-2.8c2.3-1.2,4.7-2.6,7.1-4.2c2.3-1.6,4.5-3.4,6.2-5.4c13.8,6.6,27.4,13.4,41,20.5c1,3.6,0.5,7.4-1.3,11.1
			s-4.5,7.3-8,10.6s-7.6,6.3-12.3,8.9C665.9,383.7,661.2,385.7,656.5,387.2z M642,372.2c1-1.1,2.3-2,4.2-2.7
			c1.9-0.6,3.6-0.5,5.2,0.5c0.9,0.6,1.2,1.6,1.1,3c-0.1,1.4-0.5,2.5-1.4,3.2c-0.2-0.3-0.3-0.4-0.5-0.7c-0.2-0.9-0.7-1.4-1.6-1.6
			c-0.9-0.2-1.7-0.1-2.6,0.2c-0.9,0.3-1.5,0.9-2,1.6c-0.5,0.7-0.4,1.7-0.1,2.8c0.4,1.1,1.2,1.9,2.5,2.3c1.5,0.5,3.3,0.5,5.3,0.1
			s4.2-1.3,6.4-2.5c2.2-1.2,4.5-2.7,6.6-4.3c2.1-1.7,4.1-3.4,5.8-5.2c1.6-1.8,3-3.6,3.9-5.5c1-1.8,1.3-3.5,1.2-5
			c-9.9-5-14.9-7.5-25.1-12.3c-2.5,1.2-3.6,1.8-6,3.1C643.6,358.4,643,363,642,372.2z"/>
		<path fill="#D6D6D6" d="M725.5,394.4c-1.9,3.8-3.2,7.4-3.5,10.6c-0.4,3.2-0.1,6.3,0.9,9.3c1,3,2.5,5.9,4.6,8.7
			c2.1,2.9,4.6,5.9,7.5,9.1c-2.5,2.3-5.1,4.4-7.9,6.4c-2.8,1.9-5.9,3.9-9.2,6c-1.4-0.2-2.7-1.2-3.9-2.6c-1.3-1.5-2.3-2.8-3.2-3.9
			c-1.6-1.9-3-4.2-4.2-6.6c-1.2-2.5-2.2-5.1-3-7.9c-0.7-2.8-1.4-5.5-1.6-8.4c-0.3-2.8-0.2-5.5,0.1-8.2c0.7-5.7,2.5-10.8,5.2-15
			c2.8-4.3,6-8.5,9.6-12.8c1.1-1.2,2.3-2.6,3.5-3.9c1.3-1.5,2.2-3,3.1-4.5c1.2-2.1,1.5-4.5,0.9-6.7c-0.6-2.2-1.7-4.4-3.2-6.3
			c-1.5-1.9-3.2-3.4-5-4.7c-1.8-1.3-3.4-1.9-4.6-2c9.7-4.6,14.6-6.9,24.4-11.3c1.4,1.7,2.8,3.3,4.1,4.7c1.4,1.4,2.7,3.5,3.6,6.1
			s1.4,5.4,1.4,8.2c7.3-5.2,10.9-7.8,18.2-12.8c0.1,0.1,0.1,0.2,0.2,0.3c0-0.2,0.1-0.3,0.1-0.5c6.3,9.9,9.3,14.8,15.3,24.9
			c-2.8,12.6-5.7,25.2-8.4,37.7c-1.2,5.9-2.7,11.1-4.3,15.9c-1.7,4.8-4.1,9.1-7,12.8c-3,3.7-6.8,6.8-11.5,9.4
			c-4.7,2.6-10.5,4.5-17.4,5.7c-4.8-0.2-7.1-0.4-11.9-0.6c0.2-0.1,0.3-0.2,0.5-0.3c0.3-0.2,0.6-0.3,0.7-0.4c1.5-0.5,2.9-1,4.2-1.4
			c1.3-0.3,2.5-0.9,3.6-1.3c1.2-0.5,2.2-1.2,3.3-2s2.2-2,3.4-3.6c2.5-2.9,4.7-5.8,6.8-8.6c2.1-2.9,4.2-5.9,6-9
			c3.7-18.1,7.6-36.2,11.3-54.3c-1.3-1.9-2-2.9-3.3-4.9c-6.8,4.4-10.1,6.5-16.7,11c-2.1,3-4.4,6.1-6.6,9
			C729,388.1,727.1,391.2,725.5,394.4z"/>
		<path fill="#D6D6D6" d="M804.4,442.5c1,3,2.3,5.1,3.9,6.6c1.7,1.5,3.5,2.2,5.4,2.1c1.9-0.1,3.5-1.1,5-2.8
			c-0.9,0.1-1.6-0.3-2.3-1.2c-0.7-0.9-1.3-1.4-1.5-1.7c-0.4-1.8-0.3-3.2,0.1-4.3c0.4-1,1.2-1.7,2.1-2c1-0.3,2-0.4,3.2-0.1
			c1.2,0.3,2.3,0.9,3.1,1.8c0.5,0.7,1.2,2,1.6,3.4c0.4,1.6,0.5,3.4,0.5,5.2c-0.1,1.7-1.3,3.5-3.6,5.4c-0.1,0-0.1,0-0.1,0
			c-0.3,0.2-0.9,0.4-1.5,0.7c-0.6,0.3-1.4,0.5-2,0.7c-0.6,0.2-1.5,0.5-2.5,1c-1.5,0.7-3.1,1.2-4.8,1.5c-1.7,0.2-3.4,0.4-5.3,0.5
			c-1.8,0.1-3.7,0.1-5.5,0.1c-1.9,0-3.6,0.1-5.3,0.3c-3.9-2.6-6.8-6.3-8.5-11.2c-1.8-4.9-2.3-10.3-1.6-16.2c0-0.3,0-0.5-0.1-0.9
			c5.7-23.8,11.3-47.6,17-71.5c-4.9-0.9-9.3-3-13.2-6.4c-3.9-3.4-6.9-7.6-9-12.5c1.5-0.3,2.7-0.6,3.7-1.1c1.1-0.4,2-0.7,3.1-1.1
			c1-0.3,2-0.7,3-1.2c1-0.4,2.2-0.9,3.6-1.4c0.4-0.3,0.9-0.5,1.3-0.6c1.4-0.6,3-1,4.6-1.2c1.6-0.2,3,0,4.2,0.4
			c1.2,0.4,1.9,1.3,2.5,2.5c0.4,1.2,0.4,3.7-0.5,5c-0.9,1.1-3.7,0.6-6.6-1.3c-0.2-0.4-0.7-0.7-1.2-1.2c-0.2-0.2-0.7-0.2-1.4,0
			c0,0.1,0,0.2-0.1,0.3c-0.7,0.4-1.1,0.6-1.8,1c0.9,2.5,2.1,4.5,3.9,6.1c1.8,1.6,3.8,2.9,6.2,3.7c2.1-9,3.3-13.5,5.4-22.5
			c-0.1,0-0.1,0-0.1,0c0.1-0.5,0.2-0.7,0.3-1.3c0.3-0.6,0.4-1.1,0.5-1.2s0.2-0.2,0.3-0.3c1.3-3.2,2.9-6.3,4.8-9
			c1.9-2.8,4.2-5.1,6.8-7.3c2.7-2,5.8-3.7,9.4-5.1c3.6-1.4,7.8-2.3,12.6-3c4.4,0.5,6.6,0.7,11,1.3c-0.1,0.1-0.3,0.2-0.4,0.3
			c-0.3,0.3-0.6,0.4-1,0.3c-1.5,0.3-2.8,0.6-3.9,1c-1.2,0.3-2.3,0.6-3.4,1.1c-1.1,0.4-2.1,1.1-3.2,1.8s-2.2,1.8-3.4,3.2
			c-1.6,1.8-2.9,3.8-3.8,5.9c-1,2-1.9,4.2-3,6.2c-1.3,4.7-1.9,7-3.2,11.7c-2.3,8.6-3.4,12.9-5.8,21.5c3,0.7,6.2,1.1,9.5,1.2
			c3.2,0.1,6.4-0.1,9.6-0.6c3.1-0.5,6.1-1.3,8.9-2.3c2.8-1.1,5.1-2.6,7-4.4c0.3-0.1,0.5-0.2,1-0.3c-0.9,2.9-2.6,5.4-5,7.6
			c-2.6,2.1-5.5,3.9-9,5.2c-3.4,1.3-7.3,2.1-11.3,2.6c-4.2,0.4-8.3,0.3-12.7-0.4c-4.9,18.8-9.8,37.7-14.6,56.4c0.1,0,0.1,0,0.1,0
			c0,0.1-0.1,0.2-0.2,0.2c-1.1,4.1-1.6,6.1-2.7,10.2C803.2,435.9,803.5,439.5,804.4,442.5z"/>
		<path fill="#D6D6D6" d="M869.2,433.6c-0.1,0-0.2,0-0.2,0c-0.1,0-0.1,0-0.2,0c-2.6,0.2-5,0-7.3-0.5c-2.2-0.6-4.8-2.3-7.5-5
			c-3.1,10.6-4.6,15.8-7.7,26.2c0.6,0.3,1.1,1.1,1.3,2.2c0.3,1.1,0.7,1.8,1.4,2c0.6,0.3,1,0.4,1.6,0.7c4.9,2.1,9.8,3.1,15,2.7
			c5.1-0.4,10.2-1.4,15.3-3.1c5-1.7,9.7-3.6,14.3-6c4.6-2.2,8.6-4.3,12.4-6c-0.2,0.5-0.3,0.9-0.5,1.4c-1.4,3.9-4.1,7.9-8,11.8
			c-3.9,3.9-8.6,7.3-14.1,10c-5.5,2.8-11.5,4.6-18.2,5.4c-6.6,1-13.4,0.3-20.6-1.9c-0.6-0.2-1.2-0.7-1.8-1.8c-0.5-1-1.1-1.8-1.5-2.6
			c-0.9-1.3-2-3.1-3.4-5.2s-2.8-4.3-4.2-6.3c-1.7-2.3-3.4-4.9-5.3-7.6c6.2-21.7,12.5-43.2,18.7-64.9c0.7-0.1,2.1-0.3,4.2-0.6
			c2-0.3,4.3-0.9,6.8-1.5c2.6-0.6,5.1-1.6,7.8-2.8c2.7-1.2,5.1-2.6,7.1-4.2c12.4,9.2,24.6,18.5,36.8,27.9c0.3,3.7-0.9,7.4-3.3,10.7
			c-2.6,3.3-5.8,6.3-9.9,8.9c-4.1,2.6-8.6,4.7-13.9,6.4C879.2,431.9,874.2,433.1,869.2,433.6z M857.6,416c1.1-0.9,2.7-1.5,4.6-1.8
			c2-0.3,3.6,0.2,5,1.5c0.7,0.7,0.9,1.8,0.5,3.2c-0.3,1.3-1,2.2-1.9,2.9c-0.1-0.3-0.2-0.5-0.3-0.9c0-0.9-0.4-1.5-1.3-1.8
			s-1.7-0.4-2.6-0.3c-0.9,0.1-1.7,0.5-2.3,1.2s-0.7,1.6-0.6,2.7c0.2,1.1,0.9,2.1,1.9,2.8c1.4,0.7,3.2,1.2,5.2,1.2
			c2.1-0.1,4.4-0.4,6.8-1.2c2.5-0.7,4.9-1.7,7.4-3c2.5-1.2,4.7-2.6,6.6-4.1c1.9-1.5,3.6-3,4.9-4.7c1.3-1.6,2-3.2,2-4.7
			c-9-6.8-13.4-10.2-22.5-16.9c-2.6,0.7-3.9,1.1-6.5,1.9C861.8,402.8,860.4,407.3,857.6,416z"/>
		<path fill="#D6D6D6" d="M923.6,502.3c-0.1,0.2-0.1,0.4-0.2,0.6c-4.9-8-7.4-12.1-12.5-20.1c9-23.4,17.9-46.6,26.9-70
			c0.5-0.5,0.7-1.4,0.6-2.6c-0.1-1.3-0.3-2.5-0.9-3.4c-0.5-1.1-1.2-1.8-1.9-2.1c-0.7-0.4-1.7,0-2.8,1.1c-0.9,1-1,1.8-0.1,2.6
			c0.9,0.7,1.8,1.2,2.9,1.1c-0.5,0.5-0.7,0.9-1.2,1.5c0.1,0.1,0.1,0.1,0.2,0.2c-0.4,0.6-1,1.2-1.6,1.5c-0.6,0.4-1.5,0.4-2.5,0.3
			c-0.7-0.1-1.7-0.2-2.5-0.6c-0.7-0.3-1.4-0.9-1.9-1.5s-0.9-1.4-1.1-2.1c-0.1-0.7,0-1.5,0.3-2.2c0.4-0.9,1.1-1.5,1.9-2
			c0.9-0.5,1.9-0.9,3.1-1.2s2.3-0.5,3.4-0.7c1.1-0.2,2-0.3,2.9-0.4c1-0.2,1.4-0.3,2.3-0.5c1.9-0.1,3.8-0.4,5.5-0.9
			c1.8-0.4,3.6-0.9,5.5-1.2c0.2,0.1,0.3,0.1,0.5,0.2c1.4,2,2.6,4.5,3.5,7.5c1,3,1.7,5.5,2.3,7.8c5-1.4,7.5-2.1,12.5-3.4
			c0.4,0.7,1.4,1.8,2.8,3.2c1.4,1.4,2.9,3,4.5,4.7c1.7,1.7,3.4,3.5,5.2,5.4c1.8,1.9,3.4,3.6,4.9,5.3c1.5,1.7,2.7,3.2,3.5,4.5
			s1.3,2.3,1.1,3c-0.9,1.4-2,2.8-3.6,4.1c-1.6,1.3-3.3,2.3-5.2,3.3c-1.9,1-3.7,1.8-5.8,2.3c-1.9,0.5-3.7,0.9-5.4,0.9
			c-0.7,0.5-1.6,0.6-2.3,0.1c-0.7-0.4-0.9-1.1-0.2-1.9c2.3-1.3,3.6-3,4.1-5.1c0.3-2,0.1-4.3-0.7-6.7c-0.9-2.3-2.2-4.8-3.9-7
			c-1.7-2.3-3.5-4.4-5.3-6.2c-3,0.4-4.5,0.6-7.5,1.2c-5,12.5-10.1,25.1-15.1,37.7C934.5,474.2,929,488.2,923.6,502.3z"/>
	</g>
</g>
<g>
	<g>
		<path fill="#FDFEFF" d="M62.2,368.7c-3.2,1.9-6.1,3.5-8.9,4.8c14.3,35.1,28.5,70.1,42.8,105.2c2.2,0.5,4.5,0.9,6.9,1
			c2.3,0,4.7-0.1,7-0.6c2.3-0.4,4.5-1.3,6.6-2.3c2-1.2,3.9-2.6,5.7-4.4c2-2.2,3.7-4.7,5-7.4c1.3-2.7,2.2-5.3,2.8-8.1
			c0.5-2.8,0.7-5.4,0.6-8.1c-0.1-2.6-0.6-5-1.4-7.3c-1-2.7-2.3-5.3-4.2-7.9c-1.8-2.6-3.9-4.8-6.3-6.7c-2.3-1.9-4.8-3.3-7.4-4.2
			c-2.6-1-5-1.1-7.3-0.5c-2.2,0.5-4.4,2-6.3,4.4c-1.9,2.3-3.2,5.9-4.1,10.5c-1.7,0.6-2.6,1-4.3,1.6c-1.1-2.8-1.6-6.1-1.7-10.2
			c-0.1-4.1,0.4-8.2,1.5-12.3c1.1-4.1,2.7-7.8,4.9-11.2s5-5.7,8.3-6.8c3.7-1.4,7.4-1.8,11.1-1.3c3.7,0.5,7.3,1.7,10.7,3.6
			c3.4,1.8,6.6,4.3,9.6,7.1c3,2.9,5.8,6,8.2,9.2c2.5,3.3,4.6,6.6,6.4,9.9c1.8,3.3,3.2,6.4,4.2,9.3c0.6,1.8,1.3,4.3,2.1,7.3
			c0.7,3,1.5,6.3,2.1,9.7c0.6,3.5,1.1,7,1.4,10.7c0.2,3.6,0.1,7-0.4,10.2c-0.5,3.2-1.5,6-3,8.4c-1.5,2.3-3.6,4.1-6.4,5
			c-2-5.7-3.6-10-4.9-13.1c-1.3-3.1-2.3-5.3-3.1-6.7c-0.7-1.4-1.4-2.1-1.8-2.1c-0.4-0.1-0.7,0-1,0.4c-1.4,2.2-2.7,4.7-3.8,7.5
			s-2.7,5.4-4.2,8.1c-1.6,2.7-3.4,5.1-5.5,7.5c-2.1,2.2-4.9,4.1-8.2,5.3c-3.6,1.4-8,2.3-12.9,2.9c-4.9,0.5-9.9,0.5-14.8,0
			c-4.9-0.5-9.4-1.6-13.5-3.2c-4.1-1.7-7.1-4.1-9.1-7c-14.1-32.5-28.2-65.1-42.1-97.5c-0.2,0.1-0.2,0.1-0.4,0.2
			c-4.2-9.6-6.3-14.5-10.5-24.1c8.4-2.1,16.1-4.3,23.3-6.4c7-2.1,13.7-4.5,19.8-6.9c6.1-2.5,11.9-5.1,17.4-8
			c5.4-2.9,10.8-6,15.9-9.3c2-0.5,4.6-0.4,7.7,0.4c3.1,0.9,6.2,2,9.3,3.5c3.1,1.5,5.8,3.1,8.1,4.8c2.3,1.7,3.7,3.2,4.2,4.5
			c4.2,4.8,6.2,7.3,10.2,12.1c-1.6,0.2-3.3-0.1-5.2-1.2c-1.9-1-4.3-1.9-7-2.9c-2.8-1-6.2-1.5-10.2-1.6c-4.1-0.1-9,0.9-14.7,3.1
			c-9.7,3.6-19.4,7.4-29.1,11.3H62.2z M86.4,474.3c2.2,1.4,4.6,2.6,7,3.2C79.4,443,65.3,408.6,51.2,374.1c-2.8,1.2-4.5,1.6-5,1.3
			C59.6,408.3,73,441.3,86.4,474.3z"/>
		<path fill="#FDFEFF" d="M240.5,455.3c-9.4-1.9-16.7-6.8-22.2-14.8c-0.1,0-0.1,0-0.1,0c-0.1,0.4-0.2,1-0.4,1.6
			c-0.2,0.6-0.4,1.4-0.5,2c-0.2,0.6-0.5,1.6-0.9,2.6c-0.4,1.4-1,3-1.9,4.5c-0.9,1.5-1.9,3-3,4.4c-1.2,1.5-2.2,2.9-3.4,4.4
			c-1.2,1.4-2.2,3.7-3,4.4c-2,1.6-8,1.2-12.4,0c-4.4-1.3-8.5-3.4-12.5-6.7c-3.9-3.2-7.4-7.3-10.2-12.3c-2.9-5-6.3-12.6-5.4-16.9
			c0.4-2,3.1-5.2,5-7.6c1.9-2.3,3.9-4.7,6-7c2-2.3,4.1-4.7,6-7.1c1.9-2.3,3.7-4.9,5.2-7.6c0.6-0.1,1-0.1,1.5-0.1
			c0,0.2,0,0.3-0.1,0.3c3.8,0.6,7.6,1.7,11.1,3.2c3.5,1.6,6.8,3.4,9.7,5.4c-3.3-11.7-6.5-23.4-9.8-35.1c-16.2,4.3-32.2,9-48.2,13.9
			c3.1-7.4,4.7-11,7.9-18.2c17.7-5.3,35.5-10.2,53.3-14.9c6,22.9,12.1,45.9,18,68.7c0.1,0,0.2,0,0.3-0.1c0.2,2.7,0.9,5,2,6.9
			c1.2,1.9,2.6,3.5,4.1,4.8c1.5,1.3,3,2.3,4.5,3.1c1.5,0.7,2.7,1.3,3.5,1.7C242.9,445.4,242.2,448.7,240.5,455.3z M191,441.4
			c3.6,3.1,6.8,5,9.4,5.7c2.6,0.6,4.7,0.6,6.4-0.1c1.6-0.7,2.8-1.9,3.5-3.5c0.7-1.6,1-3.2,0.9-4.7c-0.5,0.6-1.4,1-2.5,1.1
			c-1.1,0.1-1.8,0.1-2.2,0c-1.7-0.7-2.9-1.6-3.4-2.7c-0.5-1.1-0.6-2-0.3-3c0.3-1,1-1.8,1.9-2.5c1-0.7,2.1-1.1,3.4-1.2
			c0.5,0,1.2,0.1,1.8,0.3c0.7,0.1,1.4,0.3,1.9,0.6c-1-0.7-1.5-1.1-2.5-1.7c-2.1-1.4-4.4-2.9-6.8-4.4c-2.5-1.5-4.9-2.9-7.6-4.2
			s-5.3-2.5-8.1-3.5c-2.8-1.1-5.4-1.8-8.2-2.2c0.4,2.3,1,4.8,1.5,7.4c0.6,2.6,1.5,5.1,2.5,7.5c1,2.3,2.2,4.6,3.6,6.6
			C187.8,439,189.3,440.5,191,441.4z"/>
		<path fill="#FDFEFF" d="M271.9,448.2c-1.1,0.2-2.1,0.1-3.3-0.3s-2.9-1.6-4.8-2.9c-2-1.3-4.4-2.7-6.5-4.5c-2.1-1.8-4.1-3.8-5.9-6.1
			c-1.8-2.2-3.4-4.6-4.8-7s-2.5-5-3.1-7.6c-1.6-5.5-1.9-10.9-1.1-15.9c0.9-5,2.1-10.2,3.8-15.5c0.5-1.5,1.2-3.2,1.7-5
			c0.6-1.8,1-3.6,1.1-5.3c0.2-2.5-0.3-4.7-1.8-6.5c-1.5-1.8-3.3-3.4-5.3-4.5c-2.1-1.2-4.3-1.9-6.4-2.3c-2.2-0.4-3.8-0.4-5,0
			c7.1-8.1,10.8-12.1,18.1-20.1c1.9,1.1,3.9,2.1,6,3.1c2,1,3.9,2.2,5.4,3.8c1.5,1.5,2.8,3.4,3.6,5.2c3.8-6.7,5.8-10,9.7-16.7
			c0.1,0.1,0.2,0.1,0.3,0.2c0-0.2-0.1-0.3-0.1-0.5c7.5,5.2,11.2,7.9,18.6,13.2c6.1-8,9.2-11.9,15.5-19.9c0.1,0.1,0.2,0.1,0.3,0.2
			c0-0.2-0.1-0.3-0.1-0.5c9.4,6.9,14.1,10.5,23.3,17.5c2,12.7,3.9,25.4,6,38.2c1,5.9,1.6,11.3,1.8,16.4s-0.4,9.9-1.8,14.5
			c-1.5,4.6-3.8,8.9-7.3,13c-3.4,4.1-8.1,8-14.1,11.6c-4.5,1.5-6.8,2.2-11.3,3.8c0.1-0.2,0.2-0.3,0.3-0.5c0.2-0.3,0.4-0.5,0.5-0.6
			c1.2-1.1,2.2-2,3.2-2.9c0.9-0.9,1.7-1.8,2.5-2.8c0.7-1,1.5-2,2.2-3.2c0.7-1.2,1.6-2.6,2.7-4.3c3.5-5.8,5.4-12.8,5.4-21.1
			c-3.1-18.2-6.2-36.5-9.4-54.7c-1.9-1.3-3-2-4.9-3.3c-3.3,3.9-5,5.9-8.2,9.8c3.1,16.7,6.2,33.5,9.4,50.2c0.4,6.5-0.9,12.1-3.6,16.5
			c-2.9,4.6-6.5,7.7-11,9.6c-0.1-0.1-0.1-0.4,0-1c-5-25.1-10.1-50-15.1-75.1c-2-1.3-3-1.9-5-3.2c-3.1,4.6-4.6,6.9-7.7,11.5
			c-0.5,4.3-1.4,8.7-2.8,13.1c-1.3,4.5-2,8.9-2.3,13.1c-0.2,3.3-0.1,6.4,0.6,9.4c0.6,2.9,1.7,5.4,3.1,7.7s3.2,4.1,5.2,5.4
			c2.1,1.5,4.6,2.5,7.4,3c0.2-0.1,0.5-0.4,0.9-0.9c0.3-0.4,0.6-1.5,1.2-3.1c-0.5,0.6-1.4,0.9-2.5,0.9c-1.1,0-1.8,0-2.2-0.1
			c-1.7-0.9-2.8-1.8-3.2-2.9c-0.5-1.1-0.5-2-0.1-3c0.4-1,1.1-1.7,2.1-2.3c1-0.6,2.1-1,3.4-1c0.5,0.1,1.1,0.2,1.8,0.4
			c0.6,0.2,1.3,0.4,1.9,0.7c2.1,0.5,3.5,1.7,4.4,3.3c0.7,1.6,1.3,3.6,1.6,6.1c-0.1,0-0.1,0-0.1,0c-1.6,4.7-3.5,9-5.8,12.8
			C277.7,439.7,274.9,443.9,271.9,448.2z"/>
		<path fill="#FDFEFF" d="M379.9,382c-0.1,0-0.2,0-0.2,0.1s-0.1,0.1-0.2,0.1c-2.2,1.3-4.5,2.1-6.8,2.5c-2.3,0.4-5.2-0.1-8.7-1.5
			c1.6,10.9,2.3,16.3,3.8,27.1c0.6,0.1,1.4,0.5,2,1.5c0.6,0.9,1.4,1.3,2,1.3c0.7,0,1.1,0,1.7,0.1c5.3,0,10.1-1.3,14.6-3.7
			s8.6-5.5,12.4-9.1c3.8-3.6,7.3-7.4,10.5-11.3c3.2-3.9,6.1-7.5,8.6-10.6c0,0.6,0.1,0.9,0.1,1.5c0.3,4.2-0.4,8.9-2.3,14.1
			c-1.9,5.2-4.7,10.1-8.5,14.9c-3.8,4.8-8.5,9-14.1,12.5c-5.5,3.6-12.1,5.9-19.3,6.7c-0.6,0.1-1.4-0.2-2.3-0.9
			c-0.9-0.6-1.7-1.3-2.5-1.7c-1.4-0.9-3.1-1.9-5.2-3.4c-2.1-1.4-4.3-2.8-6.4-4.1c-2.5-1.5-5.1-3.1-7.9-4.7
			c-3.3-22.3-6.5-44.5-9.8-66.8c0.6-0.4,1.8-1.2,3.5-2.3c1.7-1.2,3.5-2.6,5.5-4.3s4.1-3.5,6-5.8c1.9-2.1,3.5-4.4,4.8-6.7
			c14.9,3.2,29.8,6.6,44.6,10.2c1.8,3.3,2.2,7,1.4,11.1c-0.9,4.1-2.7,8.1-5.2,12.2c-2.6,4.1-5.9,7.9-9.8,11.5
			C388.2,376.3,384.1,379.4,379.9,382z M362.3,370.8c0.6-1.3,1.8-2.5,3.4-3.5c1.7-1.1,3.4-1.3,5.1-0.7c1,0.4,1.5,1.3,1.7,2.7
			c0.2,1.4,0,2.5-0.5,3.4c-0.3-0.2-0.4-0.3-0.6-0.6c-0.4-0.7-1.1-1.2-1.9-1.2c-0.9,0-1.7,0.3-2.5,0.7c-0.7,0.5-1.3,1.2-1.6,2
			c-0.3,0.9-0.1,1.8,0.5,2.7c0.6,1,1.6,1.6,2.9,1.7c1.6,0.1,3.3-0.2,5.2-1.2c1.9-1,3.7-2.2,5.7-3.9s3.7-3.6,5.4-5.8s3.2-4.3,4.4-6.4
			s2-4.3,2.5-6.3c0.5-2,0.4-3.7-0.1-5.1c-10.9-2.6-16.3-3.7-27.2-6.1c-2,1.7-3.1,2.7-5.1,4.4C360.7,356.9,361.2,361.5,362.3,370.8z"
			/>
		<path fill="#FDFEFF" d="M580.8,298.1c-2.6,1.3-3.9,3-4.3,4.9c-0.2,1.9,0.1,3.6,1.2,5.1c1.1,1.4,2.7,2.3,4.8,2.8
			c2.1,0.4,4.4-0.3,6.6-2c2.8-2.1,4.3-4.2,4.4-6.3c0.1-2.1-0.7-4.1-2.6-6c-1.8-1.8-4.3-3.5-7.6-5c-3.3-1.5-6.9-2.8-11-3.6
			c-4.1-1-8.2-1.5-12.4-1.7c-4.3-0.2-8.2-0.1-11.9,0.5c-1.1,37.1-2,74.2-3.1,111.3c4.8,0.7,9.4,0.6,13.9-0.4
			c4.5-1.1,8.9-2.7,13.1-4.9c4.3-2.2,8.3-4.9,12.3-7.9c3.9-3.1,7.8-6.3,11.4-9.7c3.6-3.3,7-6.6,10.3-9.9c3.2-3.3,6.3-6.3,9.2-9
			c-0.1,1-0.1,1.4-0.2,2.3c-0.3,4.3-1.5,8.9-3.3,13.7c-1.8,4.8-4.4,9.6-7.5,14.4c-3.1,4.7-6.7,9.3-10.9,13.5s-8.7,8-13.8,11.3
			s-10.5,5.9-16.3,7.7c-5.9,1.8-12.1,2.7-18.7,2.5c-1,0-1.9-0.6-3.1-1.8c-1.1-1.2-2-2.2-2.9-3.1c-1.6-1.7-3.6-3.8-6.3-6.4
			s-5.2-5.1-7.8-7.5c-3.1-2.9-6.3-5.9-9.6-9c0-34.8,0-69.4,0.1-104.2c0-1.5,1-3.2,2.9-5.1c1.9-1.9,4.4-3.9,7.4-5.9
			c3-2,6.4-3.9,10.2-5.9c3.7-1.9,7.5-3.6,11-5c3.5-1.5,6.8-2.7,9.8-3.5c3-0.9,5.2-1.3,6.7-1.2c10.8,0.4,19.9,2.2,27.4,5.4
			c7.6,3.2,12.8,7.3,15.9,12.2c3.1,4.9,3.6,10.5,1.7,16.6c-1.8,6.2-6.7,12.6-14.3,19.3c-2.1,1.9-4.5,3-7.3,3.3
			c-2.8,0.3-5.3,0.2-7.8-0.5c-2.5-0.6-4.6-1.8-6.4-3.3c-1.8-1.6-2.8-3.3-3.1-5.3c-0.3-2,0.4-4.1,2.1-6.3
			C573.1,302.1,576.3,300.1,580.8,298.1z M537.9,392.1c0.4,0.2,0.7,0.5,1.2,1.2c0.4,0.5,0.9,1.2,1.3,1.7c0.4,0.6,0.9,1.2,1.3,1.6
			s0.9,0.7,1.4,0.9c1-36.8,1.9-73.6,2.8-110.3c-2.3,2-3.5,3.1-5.8,5.2C539.2,325.6,538.5,358.9,537.9,392.1z"/>
		<path fill="#FDFEFF" d="M651.6,382.3c-0.1,0-0.2,0-0.2,0c-0.1,0-0.1,0.1-0.2,0c-2.5,0.7-4.8,1-7.1,0.9c-2.3-0.2-5-1.4-8.2-3.5
			c-1.1,10.9-1.6,16.3-2.6,27.3c0.6,0.2,1.2,0.9,1.7,1.9c0.4,1.1,1.1,1.6,1.7,1.8c0.6,0.2,1,0.3,1.7,0.4c5.1,1.2,10.1,1.2,15.1-0.2
			c4.9-1.4,9.7-3.3,14.2-6c4.6-2.6,8.9-5.4,12.8-8.5c3.9-3.1,7.6-5.9,10.9-8.2c-0.1,0.6-0.1,0.9-0.2,1.5c-0.6,4.2-2.6,8.5-5.5,13.1
			c-3.1,4.6-7,8.7-11.8,12.5s-10.3,6.7-16.6,8.9c-6.3,2.1-13,2.9-20.4,2c-0.6-0.1-1.4-0.5-2-1.4c-0.7-0.9-1.4-1.6-1.9-2.2
			c-1.1-1.2-2.6-2.7-4.3-4.5c-1.7-1.9-3.5-3.7-5.2-5.4c-2-2-4.3-4.2-6.6-6.4c2-22.4,4.1-44.8,6.2-67.2c0.7-0.2,2-0.6,3.9-1.4
			s4.1-1.7,6.4-2.8c2.3-1.2,4.7-2.6,7.1-4.2c2.3-1.6,4.5-3.4,6.2-5.4c13.8,6.6,27.4,13.4,41,20.5c1,3.6,0.5,7.4-1.3,11.1
			c-1.8,3.7-4.5,7.3-8,10.6c-3.5,3.3-7.6,6.3-12.3,8.9C660.9,378.8,656.3,380.8,651.6,382.3z M637.1,367.3c1-1.1,2.3-2,4.2-2.7
			c1.9-0.6,3.6-0.5,5.2,0.5c0.9,0.6,1.2,1.6,1.1,3c-0.1,1.4-0.5,2.5-1.4,3.2c-0.2-0.3-0.3-0.4-0.5-0.7c-0.2-0.9-0.7-1.4-1.6-1.6
			s-1.7-0.1-2.6,0.2c-0.9,0.3-1.5,0.9-2,1.6c-0.5,0.7-0.4,1.7-0.1,2.8c0.4,1.1,1.2,1.9,2.5,2.3c1.5,0.5,3.3,0.5,5.3,0.1
			c2-0.4,4.2-1.3,6.4-2.5s4.5-2.7,6.6-4.3c2.1-1.7,4.1-3.4,5.8-5.2c1.6-1.8,3-3.6,3.9-5.5c1-1.8,1.3-3.5,1.2-5
			c-9.9-5-14.9-7.5-25.1-12.3c-2.5,1.2-3.6,1.8-6,3.1C638.7,353.5,638.1,358.1,637.1,367.3z"/>
		<path fill="#FDFEFF" d="M720.5,389.4c-1.9,3.8-3.2,7.4-3.5,10.6c-0.4,3.2-0.1,6.3,0.9,9.3c1,3,2.5,5.9,4.6,8.7
			c2.1,2.9,4.6,5.9,7.5,9.1c-2.5,2.3-5.1,4.4-7.9,6.4c-2.8,1.9-5.9,3.9-9.2,6c-1.4-0.2-2.7-1.2-3.9-2.6c-1.3-1.5-2.3-2.8-3.2-3.9
			c-1.6-1.9-3-4.2-4.2-6.6c-1.2-2.5-2.2-5.1-3-7.9c-0.7-2.8-1.4-5.5-1.6-8.4c-0.3-2.8-0.2-5.5,0.1-8.2c0.7-5.7,2.5-10.8,5.2-15
			c2.8-4.3,6-8.5,9.6-12.8c1.1-1.2,2.3-2.6,3.5-3.9c1.3-1.5,2.2-3,3.1-4.5c1.2-2.1,1.5-4.5,0.9-6.7c-0.6-2.2-1.7-4.4-3.2-6.3
			s-3.2-3.4-5-4.7c-1.8-1.3-3.4-1.9-4.6-2c9.7-4.6,14.6-6.9,24.4-11.3c1.4,1.7,2.8,3.3,4.1,4.7c1.4,1.4,2.7,3.5,3.6,6.1
			s1.4,5.4,1.4,8.2c7.3-5.2,10.9-7.8,18.2-12.8c0.1,0.1,0.1,0.2,0.2,0.3c0-0.2,0.1-0.3,0.1-0.5c6.3,9.9,9.3,14.8,15.3,24.9
			c-2.8,12.6-5.7,25.2-8.4,37.7c-1.2,5.9-2.7,11.1-4.3,15.9c-1.7,4.8-4.1,9.1-7,12.8s-6.8,6.8-11.5,9.4c-4.7,2.6-10.5,4.5-17.4,5.7
			c-4.8-0.2-7.1-0.4-11.9-0.6c0.2-0.1,0.3-0.2,0.5-0.3c0.3-0.2,0.6-0.3,0.7-0.4c1.5-0.5,2.9-1,4.2-1.4c1.3-0.3,2.5-0.9,3.6-1.3
			c1.2-0.5,2.2-1.2,3.3-2c1.1-0.9,2.2-2,3.4-3.6c2.5-2.9,4.7-5.8,6.8-8.6c2.1-2.9,4.2-5.9,6-9c3.7-18.1,7.6-36.2,11.3-54.3
			c-1.3-1.9-2-2.9-3.3-4.9c-6.8,4.4-10.1,6.5-16.7,11c-2.1,3-4.4,6.1-6.6,9C724,383.2,722.1,386.3,720.5,389.4z"/>
		<path fill="#FDFEFF" d="M799.5,437.6c1,3,2.3,5.1,3.9,6.6c1.7,1.5,3.5,2.2,5.4,2.1c1.9-0.1,3.5-1.1,5-2.8
			c-0.9,0.1-1.6-0.3-2.3-1.2s-1.3-1.4-1.5-1.7c-0.4-1.8-0.3-3.2,0.1-4.3c0.4-1,1.2-1.7,2.1-2c1-0.3,2-0.4,3.2-0.1
			c1.2,0.3,2.3,0.9,3.1,1.8c0.5,0.7,1.2,2,1.6,3.4c0.4,1.6,0.5,3.4,0.5,5.2c-0.1,1.7-1.3,3.5-3.6,5.4c-0.1,0-0.1,0-0.1,0
			c-0.3,0.2-0.9,0.4-1.5,0.7c-0.6,0.3-1.4,0.5-2,0.7c-0.6,0.2-1.5,0.5-2.5,1c-1.5,0.7-3.1,1.2-4.8,1.5c-1.7,0.2-3.4,0.4-5.3,0.5
			c-1.8,0.1-3.7,0.1-5.5,0.1c-1.9,0-3.6,0.1-5.3,0.3c-3.9-2.6-6.8-6.3-8.5-11.2c-1.8-4.9-2.3-10.3-1.6-16.2c0-0.3,0-0.5-0.1-0.9
			c5.7-23.8,11.3-47.6,17-71.5c-4.9-0.9-9.3-3-13.2-6.4c-3.9-3.4-6.9-7.6-9-12.5c1.5-0.3,2.7-0.6,3.7-1.1c1.1-0.4,2-0.7,3.1-1.1
			c1-0.3,2-0.7,3-1.2c1-0.4,2.2-0.9,3.6-1.4c0.4-0.3,0.9-0.5,1.3-0.6c1.4-0.6,3-1,4.6-1.2c1.6-0.2,3,0,4.2,0.4s1.9,1.3,2.5,2.5
			c0.4,1.2,0.4,3.7-0.5,5c-0.9,1.1-3.7,0.6-6.6-1.3c-0.2-0.4-0.7-0.7-1.2-1.2c-0.2-0.2-0.7-0.2-1.4,0c0,0.1,0,0.2-0.1,0.3
			c-0.7,0.4-1.1,0.6-1.8,1c0.9,2.5,2.1,4.5,3.9,6.1s3.8,2.9,6.2,3.7c2.1-9,3.3-13.5,5.4-22.5c-0.1,0-0.1,0-0.1,0
			c0.1-0.5,0.2-0.7,0.3-1.3c0.3-0.6,0.4-1.1,0.5-1.2c0.1-0.1,0.2-0.2,0.3-0.3c1.3-3.2,2.9-6.3,4.8-9c1.9-2.8,4.2-5.1,6.8-7.3
			c2.7-2,5.8-3.7,9.4-5.1c3.6-1.4,7.8-2.3,12.6-3c4.4,0.5,6.6,0.7,11,1.3c-0.1,0.1-0.3,0.2-0.4,0.3c-0.3,0.3-0.6,0.4-1,0.3
			c-1.5,0.3-2.8,0.6-3.9,1s-2.3,0.6-3.4,1.1c-1.1,0.4-2.1,1.1-3.2,1.8c-1.1,0.7-2.2,1.8-3.4,3.2c-1.6,1.8-2.9,3.8-3.8,5.9
			c-1,2-1.9,4.2-3,6.2c-1.3,4.7-1.9,7-3.2,11.7c-2.3,8.6-3.4,12.9-5.8,21.5c3,0.7,6.2,1.1,9.5,1.2c3.2,0.1,6.4-0.1,9.6-0.6
			c3.1-0.5,6.1-1.3,8.9-2.3c2.8-1.1,5.1-2.6,7-4.4c0.3-0.1,0.5-0.2,1-0.3c-0.9,2.9-2.6,5.4-5,7.6c-2.6,2.1-5.5,3.9-9,5.2
			c-3.4,1.3-7.3,2.1-11.3,2.6c-4.2,0.4-8.3,0.3-12.7-0.4c-4.9,18.8-9.8,37.7-14.6,56.4c0.1,0,0.1,0,0.1,0c0,0.1-0.1,0.2-0.2,0.2
			c-1.1,4.1-1.6,6.1-2.7,10.2C798.3,431,798.5,434.6,799.5,437.6z"/>
		<path fill="#FDFEFF" d="M864.3,428.7c-0.1,0-0.2,0-0.2,0c-0.1,0-0.1,0-0.2,0c-2.6,0.2-5,0-7.3-0.5c-2.2-0.6-4.8-2.3-7.5-5
			c-3.1,10.6-4.6,15.8-7.7,26.2c0.6,0.3,1.1,1.1,1.3,2.2c0.3,1.1,0.7,1.8,1.4,2c0.6,0.3,1,0.4,1.6,0.7c4.9,2.1,9.8,3.1,15,2.7
			c5.1-0.4,10.2-1.4,15.3-3.1c5-1.7,9.7-3.6,14.3-6c4.6-2.2,8.6-4.3,12.4-6c-0.2,0.5-0.3,0.9-0.5,1.4c-1.4,3.9-4.1,7.9-8,11.8
			c-3.9,3.9-8.6,7.3-14.1,10c-5.5,2.8-11.5,4.6-18.2,5.4c-6.6,1-13.4,0.3-20.6-1.9c-0.6-0.2-1.2-0.7-1.8-1.8c-0.5-1-1.1-1.8-1.5-2.6
			c-0.9-1.3-2-3.1-3.4-5.2s-2.8-4.3-4.2-6.3c-1.7-2.3-3.4-4.9-5.3-7.6c6.2-21.7,12.5-43.2,18.7-64.9c0.7-0.1,2.1-0.3,4.2-0.6
			c2-0.3,4.3-0.9,6.8-1.5c2.6-0.6,5.1-1.6,7.8-2.8c2.7-1.2,5.1-2.6,7.1-4.2c12.4,9.2,24.6,18.5,36.8,27.9c0.3,3.7-0.9,7.4-3.3,10.7
			c-2.6,3.3-5.8,6.3-9.9,8.9c-4.1,2.6-8.6,4.7-13.9,6.4C874.3,427,869.3,428.2,864.3,428.7z M852.7,411.1c1.1-0.9,2.7-1.5,4.6-1.8
			c2-0.3,3.6,0.2,5,1.5c0.7,0.7,0.9,1.8,0.5,3.2c-0.3,1.3-1,2.2-1.9,2.9c-0.1-0.3-0.2-0.5-0.3-0.9c0-0.9-0.4-1.5-1.3-1.8
			c-0.9-0.3-1.7-0.4-2.6-0.3c-0.9,0.1-1.7,0.5-2.3,1.2c-0.6,0.6-0.7,1.6-0.6,2.7c0.2,1.1,0.9,2.1,1.9,2.8c1.4,0.7,3.2,1.2,5.2,1.2
			c2.1-0.1,4.4-0.4,6.8-1.2c2.5-0.7,4.9-1.7,7.4-3c2.5-1.2,4.7-2.6,6.6-4.1s3.6-3,4.9-4.7c1.3-1.6,2-3.2,2-4.7
			c-9-6.8-13.4-10.2-22.5-16.9c-2.6,0.7-3.9,1.1-6.5,1.9C856.9,397.9,855.5,402.4,852.7,411.1z"/>
		<path fill="#FDFEFF" d="M918.5,497.4c-0.1,0.2-0.1,0.4-0.2,0.6c-4.9-8-7.4-12.1-12.5-20.1c9-23.4,17.9-46.6,26.9-70
			c0.5-0.5,0.7-1.4,0.6-2.6c-0.1-1.3-0.3-2.5-0.9-3.4c-0.5-1.1-1.2-1.8-1.9-2.1c-0.7-0.4-1.7,0-2.8,1.1c-0.9,1-1,1.8-0.1,2.6
			c0.9,0.7,1.8,1.2,2.9,1.1c-0.5,0.5-0.7,0.9-1.2,1.5c0.1,0.1,0.1,0.1,0.2,0.2c-0.4,0.6-1,1.2-1.6,1.5c-0.6,0.4-1.5,0.4-2.5,0.3
			c-0.7-0.1-1.7-0.2-2.5-0.6c-0.7-0.3-1.4-0.9-1.9-1.5c-0.5-0.6-0.9-1.4-1.1-2.1c-0.1-0.7,0-1.5,0.3-2.2c0.4-0.9,1.1-1.5,1.9-2
			s1.9-0.9,3.1-1.2s2.3-0.5,3.4-0.7c1.1-0.2,2-0.3,2.9-0.4c1-0.2,1.4-0.3,2.3-0.5c1.9-0.1,3.8-0.4,5.5-0.9c1.8-0.4,3.6-0.9,5.5-1.2
			c0.2,0.1,0.3,0.1,0.5,0.2c1.4,2,2.6,4.5,3.5,7.5c1,3,1.7,5.5,2.3,7.8c5-1.4,7.5-2.1,12.5-3.4c0.4,0.7,1.4,1.8,2.8,3.2
			c1.4,1.4,2.9,3,4.5,4.7c1.7,1.7,3.4,3.5,5.2,5.4c1.8,1.9,3.4,3.6,4.9,5.3c1.5,1.7,2.7,3.2,3.5,4.5s1.3,2.3,1.1,3
			c-0.9,1.4-2,2.8-3.6,4.1c-1.6,1.3-3.3,2.3-5.2,3.3c-1.9,1-3.7,1.8-5.8,2.3c-1.9,0.5-3.7,0.9-5.4,0.9c-0.7,0.5-1.6,0.6-2.3,0.1
			c-0.7-0.4-0.9-1.1-0.2-1.9c2.3-1.3,3.6-3,4.1-5.1c0.3-2,0.1-4.3-0.7-6.7c-0.9-2.3-2.2-4.8-3.9-7c-1.7-2.3-3.5-4.4-5.3-6.2
			c-3,0.4-4.5,0.6-7.5,1.2c-5,12.5-10.1,25.1-15.1,37.7C929.6,469.3,924.1,483.3,918.5,497.4z"/>
	</g>
</g>
</svg>
