<svg xmlns="http://www.w3.org/2000/svg" xmlns:xlink="http://www.w3.org/1999/xlink" width="1160px" height="510px" viewBox="0 -0.128739 1160 510.258" preserveAspectRatio="xMidYMid meet" ><rect id="svgEditorBackground" x="0" y="0" width="1160" height="510" style="fill: none; stroke: none;"/><g id="e857_group"/><text dy="-0.5em" fill="black" id="e394_texte" style="font-family: Arial; font-size: 20px;"><textPath id="e393_textPath" xlink:href="#e3_circleArc"/></text><text dy="-0.5em" fill="black" id="e426_texte" style="font-family: Arial; font-size: 20px;"><textPath id="e425_textPath" xlink:href="#e3_circleArc"/></text><path d="M669.9630037750374,66.54198712056876a395.841984,395.841984,0,0,0,-268.0566330461349,82.27875530769279" stroke="black" id="e361_circleArc" style="fill: none; stroke-width: 6px; stroke-dasharray: 16px, 10px;" transform="matrix(0.894701 0 0 0.894701 11.8841 27.4924)"/><path d="M367.2908301071812,196.79155279078938a126.662796,126.662796,0,0,1,-195.34133636423635,54.420509294854554" stroke="black" id="e568_circleArc" style="fill: none; stroke-width: 5px; stroke-dasharray: 15px, 10px;" transform="matrix(1 0 0 1 0 -5.69361)"/><path d="M375.04824406515655,182.559859569189a145.333399,145.333399,0,0,0,141.8052838507403,105.11523545046848" stroke="black" id="e629_circleArc" style="fill: none; stroke-width: 5px; stroke-dasharray: 15px, 10px;"/><path d="M456.88243700558996,188.38768832507438a485.008592,485.008592,0,0,0,-331.1200910834691,-177.33647855934692" stroke="black" id="e415_circleArc" style="fill: none; stroke-width: 7px; stroke-dasharray: 20px, 13px;" transform="matrix(0.734174 0 0 0.734174 40.4044 29.0007)"/></svg>