<svg xmlns="http://www.w3.org/2000/svg" xmlns:xlink="http://www.w3.org/1999/xlink" width="1160px" height="510px" viewBox="-0.344286 -0.0000628847 1160.69 510" preserveAspectRatio="xMidYMid meet"  ><rect id="svgEditorBackground" x="0" y="0" width="1160" height="510" style="fill: none; stroke: none;"/><g id="e857_group" transform="matrix(1.11927 0 0 1.11927 -9.55068 -23.7381)"/><text dy="-0.5em" fill="black" id="e394_texte" style="font-family: Arial; font-size: 20px;"><textPath id="e393_textPath" xlink:href="#e3_circleArc"/></text><text dy="-0.5em" fill="black" id="e426_texte" style="font-family: Arial; font-size: 20px;"><textPath id="e425_textPath" xlink:href="#e3_circleArc"/></text><path d="M103.4974754472,352.0003983025a0,0,0,0,1,0,0" stroke="black" id="e196_circleArc" style="fill: none; stroke-width: 1px;"/><path d="M657.3623797173384,285.8018605891299a361.93001,361.93001,0,0,1,50.59595858453622,-144.8314680733592" stroke="black" id="e655_circleArc" style="fill: none; stroke-width: 4px; stroke-dasharray: 20px, 13px;" transform="matrix(1.77318 0 0 1.77318 -604.29 -232.1)"/><path d="M554.67896412965,296.261257216164a109.08415,109.08415,0,0,1,-145.718024374599,87.09583066068001" stroke="black" id="e37_circleArc" style="fill: none; stroke-width: 4px; stroke-dasharray: 20px, 13px;" transform="matrix(1.62659 0 0 1.62659 -346.234 -181.097)"/><path d="M312.388850128163,447.942709458175a91.88229,91.88229,0,0,0,-140.69329858883904,108.86981438421998" stroke="black" id="e81_circleArc" style="fill: none; stroke-width: 4px; stroke-dasharray: 20px, 13px;" transform="matrix(1.73385 -0.212925 0.212925 1.73385 -317.492 -265.814)"/></svg>