<svg xmlns="http://www.w3.org/2000/svg" xmlns:xlink="http://www.w3.org/1999/xlink" width="1160px" height="510px" viewBox="-0.0364086 -0.0889091 1160.07 510.178" preserveAspectRatio="xMidYMid meet"  ><rect id="svgEditorBackground" x="0" y="0" width="1160" height="510" style="fill: none; stroke: none;"/><g id="e857_group"/><text dy="-0.5em" fill="black" id="e394_texte" style="font-family: Arial; font-size: 20px;"><textPath id="e393_textPath" xlink:href="#e3_circleArc"/></text><text dy="-0.5em" fill="black" id="e426_texte" style="font-family: Arial; font-size: 20px;"><textPath id="e425_textPath" xlink:href="#e3_circleArc"/></text><path d="M735.5197429034823,101.27762582075505a544.351032,544.351032,0,0,0,-314.04472946264144,163.77360746265398" stroke="black" id="e361_circleArc" style="fill: none; stroke-width: 6px; stroke-dasharray: 16px, 10px;" transform="matrix(0.894701 0 0 0.894701 11.8841 27.4924)"/><path d="M384.9000031764391,274.9891914827748a212.833111,212.833111,0,0,1,-198.6594728254695,120.2065071992227" stroke="black" id="e568_circleArc" style="fill: none; stroke-width: 5px; stroke-dasharray: 15px, 10px;" transform="matrix(1 0 0 1 0 -5.69361)"/><path d="M394.9999587268524,271.28241912066505a176.702835,176.702835,0,0,0,187.9231309275471,183.5893723140078" stroke="black" id="e629_circleArc" style="fill: none; stroke-width: 6px; stroke-dasharray: 15px, 10px;"/><path d="M471.12387295426174,314.6927343728155a288.325159,288.325159,0,0,0,-338.57579474128255,-273.59042446185856" stroke="black" id="e415_circleArc" style="fill: none; stroke-width: 7px; stroke-dasharray: 20px, 13px;" transform="matrix(0.734174 0 0 0.734174 40.4044 29.0007)"/></svg>