<svg xmlns="http://www.w3.org/2000/svg" xmlns:xlink="http://www.w3.org/1999/xlink" width="1160px" height="510px" viewBox="-0.0364086 -0.0889091 1160.07 510.178" preserveAspectRatio="xMidYMid meet" ><rect id="svgEditorBackground" x="0" y="0" width="1160" height="510" style="fill: none; stroke: none;"/><g id="e857_group"/><text dy="-0.5em" fill="black" id="e394_texte" style="font-family: Arial; font-size: 20px;"><textPath id="e393_textPath" xlink:href="#e3_circleArc"/></text><text dy="-0.5em" fill="black" id="e426_texte" style="font-family: Arial; font-size: 20px;"><textPath id="e425_textPath" xlink:href="#e3_circleArc"/></text><path d="M783.6297418775806,104.43237985184348a247.800482,247.800482,0,0,0,-304.8747967291037,115.62974827293621" stroke="black" id="e361_circleArc" style="fill: none; stroke-width: 6px; stroke-dasharray: 16px, 10px;" transform="matrix(0.894701 0 0 0.894701 11.8841 27.4924)"/><path d="M438.11992189446784,232.6083548201409a322.312027,322.312027,0,0,1,-233.53274114949647,125.1884026740837" stroke="black" id="e568_circleArc" style="fill: none; stroke-width: 5px; stroke-dasharray: 15px, 10px;" transform="matrix(1 0 0 1 0 -5.69361)"/><path d="M439.18590818487263,230.35527593404572a222.458447,222.458447,0,0,0,180.16108653008467,207.58114590616395" stroke="black" id="e629_circleArc" style="fill: none; stroke-width: 6px; stroke-dasharray: 15px, 10px;"/><path d="M543.7371799779131,285.899945679818a397.176965,397.176965,0,0,0,-400.61661587117754,-278.43736361263166" stroke="black" id="e415_circleArc" style="fill: none; stroke-width: 7px; stroke-dasharray: 20px, 13px;" transform="matrix(0.734174 0 0 0.734174 40.4044 29.0007)"/></svg>