<svg xmlns="http://www.w3.org/2000/svg" xmlns:xlink="http://www.w3.org/1999/xlink" width="1160px" height="510px" viewBox="0 -0.128739 1160 510.258" preserveAspectRatio="xMidYMid meet" ><rect id="svgEditorBackground" x="0" y="0" width="1160" height="510" style="fill: none; stroke: none;"/><g id="e857_group"/><text dy="-0.5em" fill="black" id="e394_texte" style="font-family: Arial; font-size: 20px;"><textPath id="e393_textPath" xlink:href="#e3_circleArc"/></text><text dy="-0.5em" fill="black" id="e426_texte" style="font-family: Arial; font-size: 20px;"><textPath id="e425_textPath" xlink:href="#e3_circleArc"/></text><path d="M670.7507264151718,75.20693616204764a380.5656,380.5656,0,0,0,-260.17940664479045,129.5421137157596" stroke="black" id="e361_circleArc" style="fill: none; stroke-width: 6px; stroke-dasharray: 16px, 10px;" transform="matrix(0.894701 0 0 0.894701 11.8841 27.4924)"/><path d="M387.7293409808808,203.83931516103064a495.677571,495.677571,0,0,0,-199.56999378638105,63.58260037616816" stroke="black" id="e568_circleArc" style="fill: none; stroke-width: 5px; stroke-dasharray: 15px, 10px;" transform="matrix(1 0 0 1 0 -5.69361)"/><path d="M402.5345173090975,210.04613281312993a434.37802,434.37802,0,0,0,136.50422632456014,134.36885552030827" stroke="black" id="e629_circleArc" style="fill: none; stroke-width: 5px; stroke-dasharray: 15px, 10px;"/><path d="M512.5600025635065,228.7059254532208a612.1304,612.1304,0,0,0,-386.79765664138563,-217.65471568749334" stroke="black" id="e415_circleArc" style="fill: none; stroke-width: 7px; stroke-dasharray: 20px, 13px;" transform="matrix(0.734174 0 0 0.734174 40.4044 29.0007)"/></svg>