<?xml version="1.0" encoding="utf-8"?>
<!-- Generator: Adobe Illustrator 16.0.0, SVG Export Plug-In . SVG Version: 6.00 Build 0)  -->
<!DOCTYPE svg PUBLIC "-//W3C//DTD SVG 1.1//EN" "http://www.w3.org/Graphics/SVG/1.1/DTD/svg11.dtd">
<svg version="1.1" id="Layer_1" xmlns="http://www.w3.org/2000/svg" xmlns:xlink="http://www.w3.org/1999/xlink" x="0px" y="0px"
	 width="628.35px" height="744.801px" viewBox="0 172.699 628.35 744.801" enable-background="new 0 172.699 628.35 744.801"
	 xml:space="preserve">
<g>
	<path fill="#BF392C" d="M628.35,172.699H418.9l-302.649,442.2h209.45L628.35,172.699z"/>
	<path fill="#E2574C" d="M0,172.699h209.45l302.649,442.2H302.649L0,172.699z"/>
</g>
<g>
	<circle fill="#EFC75E" cx="314.105" cy="661.046" r="256.454"/>
	<path fill="#D7B354" d="M314.105,444.633c-119.522,0-216.413,96.891-216.413,216.413c0,119.522,96.891,216.413,216.413,216.413
		s216.412-96.891,216.412-216.413C530.518,541.524,433.628,444.633,314.105,444.633z M314.105,852.968
		c-105.995,0-191.922-85.926-191.922-191.922s85.927-191.922,191.922-191.922c105.996,0,191.922,85.926,191.922,191.922
		S420.102,852.968,314.105,852.968z"/>
	<path fill="#C9A450" d="M298.019,576.541c0-3.944,1.517-7.584,4.854-11.223c3.336-3.64,7.279-6.977,11.525-10.313
		c4.55-3.337,8.797-6.369,13.346-9.403c4.551-2.729,7.888-5.763,10.617-8.189l2.427,217.177c1.819,0,2.729-0.606,3.639-1.214
		c7.266-4.848,14.572-10.092,19.515-17.437c1.724-2.559,3.033-5.313,4.448-8.041c4.247-8.19,6.066-19.109,5.764-32.153
		c-1.214-7.582-2.124-14.56-2.73-20.625c-0.606-6.066-1.213-11.525-1.518-16.684c-0.303-5.155-0.605-9.705-0.909-13.952
		c0-4.246,0-8.493,0-12.435c0-9.707,0.909-19.414,2.427-28.513c1.517-9.403,4.246-18.198,7.887-26.692
		c3.64-8.492,8.492-16.683,14.862-24.569c6.065-7.886,13.65-15.166,22.749-21.839v28.21c0,4.549,0,11.223,0,20.019
		c0,8.795-0.304,19.412-0.304,30.635c0,11.527-0.304,23.658-0.606,36.398c-0.303,12.738-0.606,24.872-0.606,36.701v32.758
		c0,6.068-0.305,10.921-1.214,14.863c-0.91,3.943-1.819,7.28-3.033,10.313c-1.214,3.033-2.426,5.461-3.943,7.584
		c-1.213,2.122-2.427,4.549-3.64,6.673c-3.337,4.854-7.582,9.402-12.739,14.256c-5.156,4.549-10.616,8.493-16.985,11.829
		c-6.37,3.337-13.043,5.46-20.02,6.977c-6.976,1.517-13.953,1.517-21.232,0.304l-22.749-20.626
		c-2.729,2.124-5.157,4.246-6.976,5.762c-2.123,1.82-3.943,3.337-6.066,5.157c-2.124,1.82-4.246,3.641-6.977,5.764
		c-2.428,2.123-5.461,4.853-9.1,8.189c-4.854-1.213-9.1-2.73-13.043-4.246c-3.943-1.518-7.279-3.336-10.615-4.854
		c-3.338-1.819-6.37-3.64-9.404-5.763c-3.031-2.124-6.065-4.248-9.099-6.977c-4.247-3.943-8.796-8.189-13.044-12.739
		c-4.245-4.551-7.885-9.403-11.525-14.561c-3.336-5.156-6.066-10.615-8.493-16.379c-2.122-5.762-3.337-11.83-3.64-18.198
		c-0.303-6.977,0-13.347,1.213-19.716c1.214-6.37,2.73-12.437,4.55-18.199c2.124-5.763,4.551-11.525,7.28-17.289
		c2.73-5.763,5.764-11.223,9.1-16.986c2.123-3.337,4.247-6.976,6.976-10.919c2.429-3.943,3.944-7.887,4.551-12.134
		c0.606-5.459,0-10.919-2.427-16.681c-2.124-5.765-4.853-10.618-8.189-15.47c-3.336-4.55-6.673-8.189-10.01-11.223
		c-3.336-2.73-6.066-4.248-7.887-4.248c-1.213,0-1.213-0.909,0.305-3.033c1.213-2.121,3.336-4.245,6.064-7.278
		c2.73-2.73,6.066-5.763,10.01-8.796c3.944-3.034,7.583-5.765,10.92-8.19c3.641-2.427,6.674-3.943,9.707-5.156
		c3.033-1.213,5.156-0.911,6.066,0.303c3.336,3.64,6.977,7.279,10.615,10.616c3.943,3.337,6.977,7.28,9.403,11.525
		c5.157,9.708,7.583,19.413,6.976,29.12c-0.605,9.402-2.426,19.109-5.763,28.511c-3.336,9.403-7.28,18.808-11.829,28.209
		c-4.551,9.404-8.189,18.503-10.617,27.905c-1.516,5.46-2.122,11.224-2.122,17.594c0.304,6.368,0.909,12.437,2.427,18.805
		c1.517,6.37,3.639,12.133,6.369,17.896c2.73,5.763,6.066,10.92,10.01,15.47c3.943,4.549,8.189,8.189,12.738,10.918
		c4.854,2.73,9.707,4.247,14.863,4.551c0.91-2.428,1.517-5.764,1.82-9.403c0.303-3.64,0.909-8.492,0.909-14.56
		c0.304-6.066,0.304-13.346,0.304-21.838c0-8.493,0-19.109,0-31.545c0-12.437,0-26.996,0-43.375
		C298.019,617.186,298.019,598.076,298.019,576.541z"/>
</g>
<path fill="#E4E7E7" d="M1144.204,143.795c144.663,0,260.797,116.134,260.797,260.797c0,144.662-116.134,260.797-260.797,260.797
	c-144.662,0-260.796-116.135-260.796-260.797C883.408,259.929,999.795,143.795,1144.204,143.795z"/>
<path fill="#CDCFCF" d="M1144.204,214.99c-104.269,0-189.601,85.333-189.601,189.602c0,104.268,85.332,189.602,189.601,189.602
	s189.602-85.334,189.602-189.602C1333.806,300.323,1248.726,214.99,1144.204,214.99z M1144.204,546.729
	c-78.264,0-142.138-64.126-142.138-142.138c0-78.013,63.874-142.139,142.138-142.139c78.265,0,142.139,64.126,142.139,142.139
	C1286.343,482.604,1222.469,546.729,1144.204,546.729z"/>
<g>
	<path fill="#C1C1C1" d="M1122.745,334.406c0-3.282,1.262-6.312,4.039-9.342c2.777-3.029,6.06-5.807,9.594-8.583
		c3.787-2.777,7.321-5.303,11.108-7.827c3.787-2.271,6.564-4.797,8.837-6.816l2.02,180.766c1.515,0,2.272-0.505,3.029-1.01
		c0.505-0.505,1.01-1.263,1.263-1.768c0.252-0.758,0.757-1.263,1.262-2.02c0.505-0.758,1.263-1.263,2.525-1.768v0.253
		c6.312-3.787,11.36-8.837,14.895-15.905c3.535-6.817,5.05-15.905,4.797-26.762c-1.01-6.312-1.767-12.118-2.271-17.168
		c-0.505-5.049-1.01-9.594-1.263-13.886c-0.252-4.291-0.505-8.078-0.757-11.613c0-3.534,0-7.068,0-10.351
		c0-8.079,0.757-16.158,2.02-23.732c1.262-7.826,3.534-15.147,6.563-22.217c3.03-7.068,7.069-13.886,12.371-20.449
		c5.05-6.564,11.361-12.623,18.935-18.178v23.479c0,3.787,0,9.341,0,16.662c0,7.322-0.252,16.158-0.252,25.499
		c0,9.594-0.253,19.692-0.505,30.296c-0.253,10.604-0.505,20.702-0.505,30.549v27.267c0,5.049-0.253,9.089-1.01,12.37
		c-0.758,3.282-1.515,6.06-2.525,8.584c-1.01,2.524-2.02,4.545-3.281,6.312c-1.01,1.768-2.021,3.787-3.03,5.555
		c-2.776,4.039-6.312,7.826-10.604,11.865c-4.292,3.787-8.836,7.069-14.138,9.847s-10.856,4.544-16.663,5.807
		s-11.613,1.263-17.672,0.252l-18.936-17.167c-2.272,1.767-4.292,3.534-5.807,4.797c-1.767,1.515-3.282,2.777-5.049,4.292
		c-1.768,1.515-3.534,3.029-5.808,4.797c-2.02,1.767-4.544,4.039-7.573,6.816c-4.04-1.01-7.574-2.272-10.856-3.535
		c-3.281-1.262-6.059-2.776-8.836-4.039c-2.777-1.515-5.302-3.029-7.826-4.797c-2.525-1.768-5.05-3.534-7.574-5.807
		c-3.535-3.282-7.322-6.816-10.855-10.604c-3.535-3.787-6.564-7.826-9.594-12.118c-2.777-4.292-5.05-8.837-7.07-13.634
		c-1.767-4.796-2.776-9.846-3.029-15.147c-0.252-5.807,0-11.108,1.01-16.41s2.272-10.352,3.787-15.148
		c1.768-4.797,3.787-9.594,6.06-14.39c2.272-4.797,4.797-9.342,7.573-14.139c1.768-2.777,3.535-5.807,5.808-9.089
		c2.02-3.282,3.282-6.563,3.786-10.099c0.506-4.544,0-9.089-2.02-13.886c-1.767-4.797-4.039-8.836-6.816-12.875
		c-2.777-3.787-5.554-6.817-8.331-9.342c-2.777-2.272-5.05-3.534-6.563-3.534c-1.011,0-1.011-0.758,0.252-2.524
		c1.01-1.768,2.777-3.535,5.049-6.06c2.272-2.272,5.05-4.797,8.332-7.321c3.281-2.524,6.312-4.797,9.088-6.816
		c3.03-2.021,5.555-3.282,8.08-4.292c2.523-1.01,4.291-0.758,5.049,0.252c2.777,3.03,5.807,6.06,8.836,8.837
		c3.282,2.776,5.807,6.059,7.826,9.594c4.293,8.078,6.313,16.157,5.807,24.236c-0.504,7.826-2.02,15.905-4.797,23.731
		c-2.776,7.827-6.059,15.653-9.846,23.479s-6.816,15.4-8.836,23.227c-1.263,4.545-1.768,9.342-1.768,14.644
		c0.252,5.302,0.758,10.351,2.02,15.652c1.263,5.302,3.029,10.099,5.303,14.896c2.271,4.797,5.049,9.089,8.33,12.876
		c3.283,3.787,6.817,6.816,10.604,9.089c4.04,2.272,8.08,3.534,12.371,3.787c0.758-2.02,1.263-4.797,1.516-7.826
		c0.252-3.03,0.757-7.069,0.757-12.119c0.253-5.049,0.253-11.108,0.253-18.177c0-7.069,0-15.906,0-26.257s0-22.47,0-36.103
		C1122.745,368.236,1122.745,352.331,1122.745,334.406z"/>
</g>
<path fill="#ED9D5D" d="M995.711,703.545c144.663,0,260.797,116.134,260.797,260.797c0,144.662-116.134,260.797-260.797,260.797
	c-144.662,0-260.797-116.135-260.797-260.797C734.914,819.679,851.301,703.545,995.711,703.545z"/>
<path fill="#D58D54" d="M995.711,774.74c-104.269,0-189.602,85.333-189.602,189.602c0,104.268,85.333,189.602,189.602,189.602
	s189.602-85.334,189.602-189.602C1185.313,860.073,1100.232,774.74,995.711,774.74z M995.711,1106.479
	c-78.264,0-142.138-64.126-142.138-142.138c0-78.013,63.874-142.139,142.138-142.139c78.265,0,142.139,64.126,142.139,142.139
	C1137.85,1042.354,1073.976,1106.479,995.711,1106.479z"/>
<g>
	<path fill="#BC794B" d="M974.252,899.458c0-3.282,1.262-6.312,4.039-9.342c2.777-3.029,6.06-5.807,9.594-8.583
		c3.787-2.777,7.321-5.302,11.108-7.827c3.787-2.271,6.564-4.797,8.837-6.816l2.02,180.766c1.515,0,2.272-0.505,3.029-1.01
		c0.505-0.505,1.01-1.263,1.263-1.768c0.252-0.758,0.757-1.263,1.262-2.02c0.505-0.758,1.263-1.263,2.525-1.768v0.253
		c6.312-3.787,11.36-8.837,14.895-15.905c3.535-6.816,5.05-15.905,4.797-26.762c-1.01-6.312-1.767-12.118-2.271-17.168
		c-0.505-5.049-1.01-9.594-1.263-13.885c-0.252-4.292-0.505-8.079-0.757-11.614c0-3.534,0-7.068,0-10.351
		c0-8.079,0.757-16.158,2.02-23.732c1.262-7.826,3.534-15.147,6.563-22.217c3.03-7.068,7.069-13.886,12.371-20.449
		c5.05-6.564,11.361-12.623,18.935-18.178v23.479c0,3.787,0,9.341,0,16.663c0,7.321-0.252,16.157-0.252,25.498
		c0,9.594-0.253,19.692-0.505,30.296c-0.253,10.604-0.505,20.702-0.505,30.549v26.762c0,5.049-0.253,9.088-1.01,12.37
		c-0.758,3.282-1.515,6.06-2.525,8.584c-1.01,2.524-2.02,4.544-3.281,6.312c-1.01,1.768-2.021,3.787-3.03,5.555
		c-2.776,4.039-6.312,7.826-10.604,11.865c-4.292,3.787-8.836,7.069-14.138,9.847s-10.856,4.544-16.663,5.807
		c-5.807,1.262-11.613,1.262-17.672,0.252l-18.936-17.167c-2.272,1.767-4.292,3.534-5.807,4.797
		c-1.767,1.515-3.282,2.776-5.049,4.292c-1.768,1.515-3.534,3.029-5.808,4.797c-2.02,1.767-4.544,4.039-7.573,6.816
		c-4.04-1.01-7.574-2.272-10.856-3.535c-3.281-1.262-6.059-2.776-8.836-4.039c-2.777-1.515-5.302-3.029-7.826-4.797
		c-2.525-1.768-5.05-3.534-7.574-5.807c-3.535-3.282-7.322-6.816-10.855-10.604c-3.535-3.787-6.564-7.826-9.594-12.118
		c-2.777-4.292-5.05-8.837-7.07-13.634c-1.767-4.797-2.776-9.846-3.029-15.147c-0.252-5.807,0-11.108,1.01-16.41
		s2.272-10.352,3.787-15.148c1.768-4.797,3.787-9.594,6.06-14.391s4.797-9.341,7.573-14.138c1.768-2.777,3.535-5.807,5.808-9.089
		c2.02-3.282,3.282-6.564,3.786-10.099c0.506-4.544,0-9.089-2.02-13.886c-1.767-4.797-4.039-8.836-6.816-12.876
		c-2.777-3.786-5.554-6.816-8.331-9.341c-2.777-2.272-5.05-3.534-6.563-3.534c-1.011,0-1.011-0.758,0.252-2.524
		c1.01-1.768,2.777-3.535,5.049-6.06c2.272-2.272,5.05-4.797,8.332-7.321c3.281-2.524,6.312-4.797,9.088-6.816
		c3.03-2.021,5.555-3.282,8.08-4.292c2.523-1.01,4.291-0.758,5.049,0.252c2.777,3.029,5.807,6.06,8.836,8.837
		c3.282,2.776,5.807,6.059,7.826,9.594c4.293,8.078,6.313,16.157,5.807,24.236c-0.504,7.826-2.02,15.905-4.797,23.731
		c-2.776,7.826-6.059,15.653-9.846,23.479s-6.816,15.4-8.836,23.227c-1.263,4.545-1.768,9.342-1.768,14.644
		c0.252,5.302,0.758,10.351,2.02,15.652c1.263,5.302,3.029,10.099,5.303,14.896c2.271,4.797,5.049,9.089,8.33,12.876
		c3.283,3.787,6.817,6.816,10.604,9.089c4.04,2.272,8.08,3.534,12.371,3.787c0.758-2.02,1.263-4.797,1.516-7.827
		c0.252-3.029,0.757-7.068,0.757-12.118c0.253-5.049,0.253-11.108,0.253-18.178c0-7.068,0-15.905,0-26.256
		c0-10.352,0-22.47,0-36.103C974.252,933.541,974.252,917.636,974.252,899.458z"/>
</g>
</svg>
