<?xml version="1.0" encoding="utf-8"?>
<!-- Generator: Adobe Illustrator 16.0.0, SVG Export Plug-In . SVG Version: 6.00 Build 0)  -->
<!DOCTYPE svg PUBLIC "-//W3C//DTD SVG 1.1//EN" "http://www.w3.org/Graphics/SVG/1.1/DTD/svg11.dtd">
<svg version="1.1" xmlns="http://www.w3.org/2000/svg" xmlns:xlink="http://www.w3.org/1999/xlink" x="0px" y="0px"
	 width="718.824px" height="307.872px" viewBox="51.828 114.493 718.824 307.872"
	 enable-background="new 51.828 114.493 718.824 307.872" xml:space="preserve">
<g id="Layer_1">
</g>
<g id="Layer_2">
	<g>
		<g>
			<g>
				<path fill="#D3D3D3" d="M282.672,348.044c-11.386-5.754-19.082-14.89-23.084-27.4H259.4c-0.252,0.502-0.628,1.158-1.126,1.971
					c-0.501,0.814-0.97,1.627-1.407,2.439c-0.439,0.814-1.097,1.849-1.97,3.097c-1.003,1.878-2.317,3.628-3.942,5.254
					c-1.627,1.627-3.411,3.19-5.349,4.691c-1.941,1.502-3.912,2.975-5.911,4.41c-2.003,1.441-3.818,2.976-5.444,4.599
					c-5.381,0.127-10.604-1.5-15.67-4.879c-5.068-3.379-9.417-7.978-13.045-13.793c-3.629-5.818-6.225-12.575-7.788-20.271
					c-1.563-7.696-1.596-15.794-0.094-24.305c2.751-2.877,5.725-5.473,8.914-7.789c3.191-2.313,6.443-4.599,9.76-6.851
					c3.314-2.252,6.568-4.565,9.759-6.945c3.191-2.372,6.162-4.999,8.916-7.88l1.877,0.376c0,0.253-0.065,0.376-0.188,0.376
					c4.377,2.252,8.444,5.067,12.199,8.442c3.753,3.379,7.067,6.945,9.946,10.698l-0.188-49.92l-61.182-0.563l15.764-20.646
					l66.814,0.188l0.375,97.405h0.375c-0.628,3.63-0.502,6.915,0.375,9.854c0.874,2.941,2.065,5.536,3.566,7.79
					c1.501,2.252,3.064,4.128,4.692,5.631c1.625,1.5,2.937,2.627,3.94,3.378L282.672,348.044z M225.242,311.634
					c3.378,5.508,6.569,9.197,9.573,11.073c3.003,1.879,5.659,2.628,7.976,2.252c2.313-0.373,4.191-1.5,5.631-3.377
					c1.437-1.878,2.347-3.815,2.721-5.819c-0.876,0.628-2.002,0.784-3.378,0.47c-1.378-0.311-2.317-0.593-2.816-0.844
					c-1.876-1.626-2.973-3.222-3.284-4.787c-0.314-1.563-0.094-2.91,0.657-4.035c0.751-1.127,1.845-1.971,3.285-2.534
					c1.437-0.563,2.971-0.656,4.599-0.281c0.625,0.251,1.343,0.596,2.158,1.032c0.813,0.438,1.532,0.971,2.159,1.596l-2.44-3.191
					c-2.129-2.627-4.411-5.379-6.851-8.256c-2.44-2.877-5.038-5.659-7.788-8.352c-2.754-2.689-5.602-5.257-8.54-7.696
					c-2.941-2.439-5.977-4.473-9.102-6.1c-0.375,3.256-0.656,6.696-0.844,10.322c-0.188,3.632-0.094,7.227,0.281,10.793
					c0.375,3.563,1.033,6.912,1.971,10.038C222.147,307.067,223.489,309.633,225.242,311.634z"/>
				<path fill="#D3D3D3" d="M323.585,279.542c-1.628,5.63-2.315,10.668-2.065,15.108c0.25,4.44,1.314,8.537,3.191,12.29
					c1.877,3.755,4.505,7.291,7.883,10.605c3.379,3.316,7.318,6.729,11.823,10.229c-2.627,3.752-5.508,7.29-8.632,10.604
					c-3.129,3.315-6.633,6.789-10.511,10.417c-1.877,0-3.818-0.846-5.817-2.534c-2.003-1.69-3.693-3.221-5.068-4.599
					c-2.504-2.252-4.818-4.909-6.944-7.978c-2.129-3.064-4.004-6.379-5.629-9.945c-1.628-3.566-2.91-7.226-3.848-10.98
					c-0.938-3.752-1.473-7.442-1.596-11.073c-0.251-7.879,0.907-15.041,3.473-21.487c2.563-6.443,5.658-12.918,9.29-19.427
					c1.126-1.875,2.313-3.938,3.566-6.19c1.25-2.252,2.188-4.506,2.815-6.758c1-3.252,0.875-6.349-0.375-9.29
					c-1.252-2.938-2.974-5.505-5.162-7.696c-2.19-2.188-4.537-3.909-7.037-5.159c-2.504-1.248-4.505-1.812-6.006-1.688
					l27.025-21.022c2,2.003,3.971,3.786,5.913,5.35c1.938,1.565,3.847,3.974,5.725,7.226c1.75,3.378,2.938,6.943,3.565,10.695
					l18.768-22.144l0.375,0.375v-0.751l24.588,28.901v52.928c0.123,8.135-0.188,15.669-0.939,22.614
					c-0.75,6.943-2.534,13.357-5.349,19.238s-6.883,11.197-12.2,15.95c-5.32,4.755-12.357,8.883-21.114,12.388l-15.765,2.252
					l0.563-0.562c0.375-0.375,0.686-0.628,0.939-0.751c1.876-1.127,3.595-2.098,5.161-2.91c1.563-0.814,3.032-1.722,4.411-2.721
					c1.374-1.004,2.656-2.224,3.847-3.661c1.188-1.436,2.346-3.346,3.472-5.724c2.376-4.506,4.566-9.01,6.57-13.512
					c2-4.504,3.752-9.071,5.253-13.701l0.188-76.011l-5.254-5.631l-17.829,19.146c-1.877,4.63-3.913,9.226-6.1,13.793
					C326.556,270.314,324.834,274.913,323.585,279.542z"/>
				<path fill="#D3D3D3" d="M456.086,354.426c-1.379,0.249-2.878,0.123-4.504-0.376c-1.625-0.501-3.128-1.064-4.504-1.689h0.187
					c-1.872-1.252-3.438-2.942-4.688-5.067c-1.256-2.126-1.969-4.318-2.158-6.57c-0.187-2.252,0.341-4.41,1.597-6.475
					c1.25-2.064,3.438-3.659,6.562-4.783c2.131-0.123,3.661,0.502,4.599,1.873c0.94,1.38,1.408,2.754,1.408,4.13
					c-0.875-0.625-1.812-0.938-2.815-0.938c-2.251,0.628-3.595,1.628-4.034,3.003c-0.441,1.379-0.313,2.787,0.376,4.223
					c0.685,1.441,1.783,2.628,3.282,3.566c1.503,0.939,3.068,1.221,4.693,0.845c2.752-2.751,4.946-6.287,6.568-10.604
					c1.625-4.316,2.847-8.818,3.661-13.511c0.814-4.693,1.313-9.354,1.502-13.983c0.187-4.627,0.281-8.757,0.281-12.388
					c0-2.748-0.814-5-2.439-6.755c-1.626-1.75-3.69-3.031-6.196-3.847c-2.503-0.813-5.318-1.249-8.445-1.313
					c-3.125-0.062-6.187,0.126-9.191,0.562c-3.001,0.44-5.816,1.097-8.446,1.972c-2.626,0.877-4.692,1.816-6.192,2.815v59.307
					l-3.38-2.628l0.751-0.376l-21.957-26.087l0.939-165.908c1.744-3.252,3.81-6.537,6.19-9.854c2.375-3.314,5.379-5.847,9.01-7.602
					c3.003-1.999,6.222-3.472,9.665-4.411c3.437-0.938,7.161-1.595,11.17-1.971l1.313,0.563c-4.633,2.504-8.137,6.259-10.51,11.263
					c-0.376,0.626-0.694,1.377-0.94,2.252c-0.253,0.875-0.468,2.471-0.657,4.786c-0.186,2.317-0.375,5.536-0.562,9.663
					c-0.189,4.13-0.347,9.699-0.47,16.705c-0.13,7.01-0.253,15.737-0.376,26.181c-0.13,10.45-0.253,23.119-0.376,38.005
					l26.083-31.155l0.376,1.314c6.881,4.63,13.768,9.074,20.647,13.325c6.881,4.253,13.891,8.697,21.021,13.324
					c0.874,0.629,0.594,2.003-0.843,4.13c-1.442,2.129-3.51,4.664-6.195,7.603c-2.692,2.941-5.76,6.07-9.197,9.385
					c-3.44,3.315-6.754,6.379-9.945,9.193c-3.19,2.815-6.006,5.226-8.449,7.227c-2.439,2.003-3.971,3.19-4.596,3.564h5.256
					c1.997-0.123,4.191-0.28,6.567-0.468c2.377-0.188,4.785-0.343,7.228-0.469c2.44-0.123,4.849-0.062,7.225,0.188
					c2.377,0.252,4.504,0.814,6.382,1.688c0.875,0.376,1.654,1.158,2.346,2.347c0.688,1.189,1.315,2.505,1.878,3.94
					c0.562,1.44,1.032,2.817,1.407,4.13c0.376,1.314,0.622,2.285,0.751,2.91c0.752,3.377,1.345,6.879,1.783,10.507
					c0.433,3.631,0.433,7.447,0,11.449c-0.438,4.007-1.407,8.137-2.909,12.388c-1.503,4.257-3.753,8.631-6.758,13.137
					c-0.751,1.127-2.036,2.411-3.848,3.847c-1.817,1.441-4.1,2.91-6.849,4.411c-2.752,1.503-5.849,2.91-9.292,4.224
					C463.623,352.455,459.962,353.549,456.086,354.426z M427.188,255.332v28.901c2.872-2.252,6.098-5.411,9.665-9.479
					c3.566-4.064,6.946-8.26,10.131-12.575c3.191-4.314,5.94-8.473,8.257-12.479c2.316-4.003,3.598-7.067,3.848-9.196l-12.01-6.006
					L427.188,255.332z"/>
				<path fill="#D3D3D3" d="M537.914,160.927c0.123-0.249,0.375-0.469,0.751-0.656c0.375-0.188,0.564-0.03,0.564,0.469
					c0,2.128,0.714,4.663,2.159,7.602c1.437,2.941,3.314,5.757,5.631,8.446c2.311,2.692,4.937,4.944,7.881,6.757
					c2.938,1.815,5.911,2.6,8.91,2.347c0.499,0,0.028,0.346-1.401,1.032c-1.442,0.689-3.163,1.473-5.16,2.347
					c-2.008,0.876-3.914,1.659-5.726,2.342c-1.818,0.69-2.851,1.097-3.097,1.22c-2.253,1.004-4.166,1.222-5.725,0.658
					c-1.566-0.563-2.882-1.531-3.942-2.907c-1.067-1.375-2.008-2.97-2.815-4.787c-0.814-1.812-1.688-3.501-2.629-5.067
					c-0.938-1.564-2.064-2.877-3.377-3.942c-1.313-1.062-2.974-1.469-4.975-1.22c0.123,3.88,1.345,7.291,3.661,10.229
					c2.311,2.942,4.908,5.162,7.79,6.662c1.369,0.626,1.812,1.284,1.313,1.969c-0.505,0.689-1.565,1.127-3.191,1.314
					c-1.631,0.188-3.629,0.126-6.006-0.188c-2.377-0.311-4.788-1.127-7.228-2.44c-2.439-1.314-4.69-3.218-6.754-5.722
					c-2.067-2.501-3.599-5.818-4.599-9.947c1.376-0.751,3.313-1.657,5.816-2.722c2.506-1.062,5.16-2.252,7.976-3.566
					c2.818-1.313,5.505-2.815,8.073-4.504c2.563-1.69,4.533-3.597,5.912-5.726H537.914z M549.927,214.604
					c-1.377,3.255-2.317,6.54-2.815,9.854c-0.505,3.314-1.001,6.6-1.5,9.853v0.188l-0.751,90.088
					c-0.375,1.002-0.252,2.252,0.376,3.752c0.622,1.503,1.436,2.813,2.439,3.939c0.997,1.127,2.029,1.753,3.097,1.876
					c1.061,0.126,1.969-0.749,2.721-2.627c0.621-1.621,0.313-2.748-0.938-3.376c-1.257-0.625-2.506-0.625-3.753,0l0.748-2.439
					l-0.376-0.188c0.25-1,0.622-1.906,1.127-2.721c0.499-0.813,1.373-1.344,2.629-1.595c2.001-0.752,3.942-0.499,5.817,0.749
					c1.878,1.253,2.752,3.003,2.629,5.257c-0.13,1.252-0.6,2.41-1.407,3.469c-0.814,1.065-1.818,2.064-3.005,3.003
					c-1.19,0.939-2.38,1.783-3.566,2.534c-1.19,0.75-2.223,1.378-3.097,1.877l-2.439,1.876c-2.127,1.127-4.1,2.411-5.912,3.85
					c-1.817,1.438-3.724,2.847-5.725,4.223h-0.752c-5.883-4.13-10.633-9.508-14.263-16.143c-0.123-14.511-0.189-26.711-0.189-36.595
					s0-18.047,0-24.493c0-6.443,0-11.415,0-14.92c0-3.502,0-6.067,0-7.694c0-1.626,0.066-2.751,0.189-3.379
					c0.628-4.753,1.622-9.259,3.002-13.514c1.379-4.253,3.285-8.191,5.726-11.823c2.439-3.626,5.473-6.944,9.102-9.947
					c3.627-3.003,8.008-5.754,13.14-8.258l12.568-2.253c-0.123,0.126-0.25,0.314-0.373,0.563c-0.252,0.502-0.564,0.751-0.94,0.751
					c-1.496,1.004-2.872,1.91-4.122,2.722c-1.256,0.814-2.411,1.688-3.472,2.627c-1.07,0.938-2.067,2.096-3.005,3.472
					C551.899,210.539,550.924,212.353,549.927,214.604z"/>
				<path fill="#D3D3D3" d="M593.28,279.542c-1.632,5.63-2.317,10.668-2.064,15.108c0.246,4.44,1.313,8.537,3.188,12.29
					c1.878,3.755,4.507,7.291,7.885,10.605c3.38,3.316,7.318,6.729,11.826,10.229c-2.629,3.752-5.508,7.29-8.636,10.604
					c-3.131,3.315-6.634,6.789-10.51,10.417c-1.878,0-3.819-0.846-5.82-2.534c-2.004-1.69-3.692-3.221-5.065-4.599
					c-2.506-2.252-4.816-4.909-6.947-7.978c-2.127-3.064-4.005-6.379-5.631-9.945c-1.622-3.566-2.906-7.226-3.847-10.98
					c-0.938-3.752-1.472-7.442-1.595-11.073c-0.252-7.879,0.909-15.041,3.473-21.487c2.563-6.443,5.658-12.918,9.291-19.427
					c1.124-1.875,2.317-3.938,3.567-6.19c1.246-2.252,2.187-4.506,2.815-6.758c0.994-3.252,0.871-6.349-0.376-9.29
					c-1.257-2.938-2.977-5.505-5.164-7.696c-2.187-2.188-4.532-3.909-7.038-5.159c-2.503-1.248-4.504-1.812-6.006-1.688
					l27.029-21.022c1.998,2.003,3.971,3.786,5.912,5.35c1.935,1.565,3.847,3.974,5.725,7.226c1.746,3.378,2.938,6.943,3.566,10.695
					l18.764-22.144l0.373,0.375v-0.751l24.59,28.901v52.928c0.123,8.135-0.189,15.669-0.94,22.614
					c-0.748,6.943-2.531,13.357-5.347,19.238s-6.881,11.197-12.202,15.95c-5.318,4.755-12.356,8.883-21.108,12.388l-15.766,2.252
					l0.563-0.562c0.375-0.375,0.685-0.628,0.938-0.751c1.877-1.127,3.595-2.098,5.163-2.91c1.56-0.814,3.03-1.722,4.409-2.721
					c1.373-1.004,2.657-2.224,3.848-3.661c1.187-1.436,2.348-3.346,3.472-5.724c2.37-4.506,4.563-9.01,6.564-13.512
					c2.001-4.504,3.753-9.071,5.255-13.701l0.189-76.011l-5.258-5.631l-17.823,19.146c-1.878,4.63-3.913,9.226-6.101,13.793
					C596.247,270.314,594.529,274.913,593.28,279.542z"/>
				<path fill="#D3D3D3" d="M755.437,384.078l-34.911,38.286l-27.399-20.083c-4.504-2.876-8.228-5.097-11.166-6.661
					c-2.938-1.565-5.754-2.941-8.446-4.128c-2.692-1.191-5.567-2.534-8.636-4.035c-3.062-1.502-6.975-3.566-11.731-6.194
					c4.634-7.635,10.201-13.579,16.706-17.827c6.505-4.257,13.23-6.979,20.178-8.165c6.943-1.192,13.887-0.939,20.834,0.751
					c6.938,1.688,13.225,4.722,18.855,9.099l-0.187-26.273c-1.379,0.878-3.033,1.814-4.975,2.815
					c-1.94,1.002-3.876,1.941-5.816,2.815c-1.944,0.877-3.75,1.627-5.438,2.252c-1.688,0.628-2.973,0.938-3.848,0.938
					c-5.883-1.625-11.45-3.721-16.705-6.288c-5.255-2.563-9.889-5.096-13.891-7.601c-4.005-2.503-7.161-4.72-9.479-6.661
					c-2.316-1.938-3.405-3.219-3.282-3.848v-91.964c1.998-2.752,4.757-5.69,8.257-8.82c3.503-3.126,7.228-6.068,11.17-8.821
					c3.938-2.751,7.817-5.096,11.637-7.039c3.813-1.938,7.038-3.158,9.664-3.66c0.376,0.502,1.437,1.783,3.191,3.848
					c1.748,2.066,3.813,4.411,6.189,7.038c2.373,2.629,4.813,5.383,7.318,8.26c2.507,2.88,4.693,5.317,6.568,7.316l-0.375,0.752
					l0.751-11.446c3.633-6.631,8.383-12.013,14.266-16.143h0.751c2.002,1.379,3.911,2.787,5.726,4.223
					c1.812,1.441,3.781,2.722,5.912,3.847l2.439,1.878c0.874,0.502,1.906,1.125,3.097,1.876c1.187,0.751,2.376,1.596,3.566,2.535
					c1.184,0.939,2.187,1.941,3.004,3.003c0.809,1.063,1.278,2.222,1.408,3.472c0.123,2.252-0.751,4.004-2.629,5.254
					c-1.878,1.251-3.819,1.501-5.817,0.749c-1.256-0.249-2.13-0.779-2.629-1.595c-0.505-0.812-0.881-1.719-1.127-2.718l0.376-0.188
					l-0.751-2.441c1.249,0.628,2.499,0.628,3.756,0c1.246-0.623,1.559-1.75,0.937-3.377c-0.751-1.878-1.66-2.752-2.721-2.627
					c-1.069,0.125-2.102,0.75-3.099,1.876c-1.001,1.125-1.818,2.471-2.44,4.035c-0.628,1.565-0.751,2.785-0.375,3.656l0.189,27.78
					L755.437,384.078z M685.808,375.444c1.622,0.376,3.623,0.999,6.006,1.877c2.373,0.874,4.845,2.032,7.414,3.472
					c2.563,1.438,5.16,3.033,7.789,4.786c2.626,1.752,5.003,3.628,7.13,5.631c2.746-2.505,5.628-5.287,8.629-8.352
					c3.005-3.067,5.321-6.289,6.944-9.667c-3.501-0.876-7.162-1.689-10.978-2.44c-3.813-0.749-7.597-1.158-11.35-1.22
					c-3.756-0.064-7.48,0.344-11.17,1.22C692.526,371.625,689.055,373.191,685.808,375.444z M725.967,305.628
					c1.379,1.127,2.629,2.378,3.753,3.754l0.189-60.244c-1.503-2.376-3.504-4.816-6.007-7.32c-2.506-2.502-4.57-4.565-6.195-6.194
					c-0.748-0.625-1.499-1.248-2.244-1.876c-0.751-0.625-1.442-1.188-2.064-1.69c-2.007,0.628-3.913,1.379-5.726,2.254
					c-1.817,0.875-3.661,1.876-5.539,3.003c-2.503,1.753-4.756,3.598-6.754,5.536c-2.008,1.942-3.819,4.1-5.444,6.477v63.059
					l5.444,8.634l2.439,3.379c0.499,0.5,0.998,0.909,1.5,1.22c0.498,0.314,1.438,0.971,2.814,1.972c2.125,1.251,4.132,2.252,6.007,3
					c1.878,0.749,3.813,1.438,5.819,2.063c1.503-0.249,3.091-0.813,4.782-1.688c1.688-0.871,3.848-2.749,6.474-5.629
					c-0.253-3.877-1.155-6.317-2.721-7.319c-1.565-1-3.128-1.127-4.693-0.375c-1.565,0.751-2.749,2.129-3.561,4.128
					c-0.814,2.004-0.597,4.068,0.656,6.194c-2.379-1.877-3.941-4.19-4.689-6.944c-0.752-2.75-0.909-5.411-0.471-7.977
					c0.433-2.563,1.437-4.755,3.002-6.57c1.563-1.812,3.469-2.721,5.719-2.721C721.586,303.126,724.089,303.751,725.967,305.628z"/>
			</g>
			<g>
				<g>
					<g>
						<path fill="#D3D3D3" d="M189.713,277.534c-1.053-4.008-2.832-8.094-5.325-12.231c-2.504-4.147-5.066-8.124-7.697-11.945
							c-3.29-4.602-7.305-8.212-12.039-10.851c-4.739-2.628-10.459-5.193-17.171-7.696c3.555-1.19,7.074-2.692,10.559-4.539
							c3.483-1.845,6.908-4.863,10.264-9.077c3.355-4.208,6.575-10.068,9.67-17.561c3.087-7.502,5.882-17.57,8.388-30.202
							c-2.765-3.81-6.121-8.586-10.063-14.306c-3.951-5.719-8.227-11.346-12.829-16.868c-4.607-5.528-9.276-10.433-14.011-14.708
							c-4.737-4.273-9.276-6.871-13.621-7.796c-1.58-0.522-3.192-0.618-4.836-0.293c-1.643,0.332-3.222,0.857-4.735,1.575
							c-1.515,0.721-2.995,1.584-4.44,2.566c-1.451,0.993-2.76,1.878-3.945,2.67c-6.978,4.727-13.259,9.379-18.851,13.91
							c-5.593,4.54-10.789,9.109-15.588,13.718c-4.805,4.608-9.344,9.269-13.617,14.011c-4.276,4.729-8.654,9.672-13.124,14.794
							l0.2,168.934c1.182-1.709,2.627-3.577,4.339-5.624c1.705-2.042,4.08-4.862,7.106-8.485c3.024-3.612,7.067-8.446,12.135-14.505
							c5.063-6.047,11.546-14.007,19.439-23.875v-58.021c4.341,1.578,8.946,3.877,13.813,6.91c4.866,3.026,9.636,6.44,14.309,10.256
							c4.667,3.814,8.913,7.93,12.728,12.331c3.816,4.418,6.841,8.856,9.077,13.321c1.315,2.9,2.139,5.565,2.469,7.994
							c1.074,8.023-0.848,16.15-5.603,22.683l3.078,20.886c6.258-3.839,12.992-24.154,16.734-26.001
							c5.197-2.564,10.094-5.688,14.705-9.377c4.467-3.287,7.263-6.877,8.383-10.753
							C190.731,285.494,190.769,281.559,189.713,277.534z M95.973,297.366l-6.905,10.068l-0.791-140.71
							c0.791-2.624,1.84-4.862,3.157-6.713c1.315-1.845,2.826-3.417,4.539-4.733 M139.523,211.926
							c-1.33,1.861-2.83,3.631-4.672,5.315c-3.028,2.774-6.116,5.337-9.274,7.701c-3.157,2.367-6.448,4.476-9.87,6.317
							c-2.629,1.316-5.067,2.665-7.298,4.041c-2.239,1.388-5.066,2.669-8.488,3.848v-86.23c3.817-1.719,7.993-2.275,12.53-1.678
							c4.539,0.584,8.979,2.036,13.324,4.332c4.339,2.307,8.319,5.299,11.939,8.979c3.617,3.683,6.378,7.766,8.289,12.238
							c1.905,4.472,2.759,9.211,2.563,14.212C148.267,198.545,143.813,205.93,139.523,211.926z"/>
					</g>
				</g>
				<path fill="#D3D3D3" d="M190.507,282.832c2.875,18.434-55.198,68.048-55.198,68.048l11.405-36.257L190.507,282.832z"/>
			</g>
		</g>
	</g>
	<g>
		<g>
			<path fill="#FDFEFF" d="M277.798,343.264c-11.386-5.755-19.082-14.89-23.085-27.4h-0.188c-0.252,0.5-0.627,1.158-1.126,1.971
				c-0.501,0.814-0.969,1.627-1.406,2.44c-0.439,0.813-1.097,1.846-1.97,3.096c-1.003,1.878-2.317,3.628-3.942,5.254
				c-1.628,1.627-3.41,3.189-5.349,4.691c-1.942,1.501-3.913,2.974-5.911,4.411c-2.003,1.439-3.819,2.973-5.444,4.599
				c-5.381,0.126-10.605-1.503-15.67-4.88c-5.068-3.379-9.417-7.978-13.045-13.793c-3.629-5.818-6.224-12.575-7.788-20.271
				c-1.562-7.695-1.595-15.792-0.093-24.303c2.75-2.877,5.724-5.474,8.914-7.79c3.191-2.313,6.443-4.599,9.76-6.851
				c3.314-2.252,6.568-4.566,9.759-6.945c3.191-2.372,6.162-4.999,8.916-7.879l1.876,0.375c0,0.251-0.064,0.374-0.187,0.374
				c4.377,2.254,8.445,5.069,12.199,8.444c3.754,3.379,7.068,6.944,9.946,10.698l-0.188-49.92l-61.182-0.563l15.765-20.646
				l66.813,0.188l0.375,97.404h0.375c-0.627,3.631-0.501,6.915,0.375,9.855c0.874,2.941,2.065,5.535,3.566,7.787
				c1.501,2.254,3.065,4.13,4.692,5.633c1.625,1.501,2.938,2.627,3.94,3.377L277.798,343.264z M220.368,306.854
				c3.379,5.508,6.57,9.197,9.573,11.074c3.003,1.876,5.658,2.627,7.976,2.252c2.313-0.376,4.191-1.501,5.631-3.379
				c1.437-1.877,2.346-3.814,2.721-5.818c-0.876,0.628-2.003,0.784-3.378,0.47c-1.378-0.311-2.317-0.593-2.815-0.846
				c-1.877-1.624-2.974-3.219-3.285-4.784c-0.313-1.564-0.094-2.91,0.657-4.037c0.75-1.125,1.845-1.97,3.285-2.533
				c1.437-0.563,2.971-0.658,4.599-0.282c0.624,0.253,1.343,0.597,2.158,1.033c0.813,0.439,1.531,0.971,2.159,1.595l-2.44-3.189
				c-2.129-2.63-4.411-5.38-6.851-8.257c-2.44-2.877-5.038-5.659-7.788-8.352c-2.754-2.69-5.602-5.257-8.54-7.696
				c-2.941-2.439-5.977-4.473-9.102-6.1c-0.375,3.254-0.657,6.694-0.845,10.322c-0.188,3.632-0.094,7.227,0.282,10.793
				c0.376,3.563,1.033,6.912,1.971,10.038C217.272,302.287,218.615,304.853,220.368,306.854z"/>
			<path fill="#FDFEFF" d="M318.711,274.76c-1.628,5.631-2.315,10.67-2.065,15.11c0.25,4.439,1.314,8.538,3.191,12.29
				c1.877,3.755,4.505,7.291,7.883,10.605c3.379,3.317,7.318,6.728,11.823,10.229c-2.627,3.751-5.507,7.287-8.632,10.602
				c-3.129,3.317-6.634,6.79-10.511,10.417c-1.877,0-3.818-0.845-5.818-2.533c-2.002-1.69-3.692-3.221-5.067-4.599
				c-2.505-2.253-4.819-4.909-6.945-7.978c-2.129-3.064-4.005-6.378-5.63-9.944c-1.627-3.567-2.909-7.227-3.847-10.98
				c-0.939-3.753-1.473-7.442-1.596-11.074c-0.252-7.879,0.906-15.042,3.473-21.487c2.563-6.443,5.658-12.92,9.29-19.427
				c1.126-1.874,2.313-3.938,3.566-6.19c1.249-2.254,2.188-4.506,2.815-6.758c1-3.252,0.874-6.349-0.376-9.29
				c-1.252-2.939-2.973-5.506-5.161-7.696c-2.19-2.187-4.537-3.909-7.037-5.159c-2.505-1.249-4.505-1.812-6.006-1.688l27.025-21.022
				c2,2.002,3.971,3.786,5.913,5.35c1.938,1.565,3.847,3.974,5.725,7.226c1.751,3.379,2.938,6.944,3.565,10.695l18.768-22.144
				l0.375,0.374v-0.75l24.587,28.901v52.927c0.123,8.137-0.188,15.67-0.938,22.614c-0.751,6.945-2.534,13.358-5.349,19.238
				c-2.817,5.88-6.884,11.198-12.2,15.951c-5.321,4.755-12.357,8.884-21.114,12.389l-15.765,2.252l0.563-0.563
				c0.375-0.374,0.687-0.627,0.938-0.75c1.877-1.127,3.596-2.097,5.162-2.91c1.563-0.813,3.032-1.722,4.411-2.721
				c1.374-1.003,2.655-2.224,3.846-3.661c1.188-1.436,2.347-3.346,3.473-5.724c2.376-4.505,4.566-9.009,6.569-13.512
				c2-4.504,3.753-9.07,5.254-13.701l0.188-76.011l-5.254-5.631l-17.83,19.146c-1.876,4.631-3.912,9.226-6.1,13.793
				C321.682,265.534,319.96,270.133,318.711,274.76z"/>
			<path fill="#FDFEFF" d="M451.213,349.645c-1.379,0.249-2.882,0.123-4.507-0.374c-1.623-0.502-3.125-1.065-4.504-1.69h0.189
				c-1.872-1.252-3.438-2.941-4.688-5.067c-1.256-2.126-1.973-4.317-2.158-6.569c-0.189-2.252,0.341-4.411,1.594-6.476
				c1.25-2.065,3.437-3.661,6.564-4.783c2.131-0.123,3.661,0.501,4.599,1.873c0.938,1.38,1.408,2.754,1.408,4.13
				c-0.875-0.624-1.813-0.938-2.815-0.938c-2.254,0.628-3.596,1.629-4.037,3.003c-0.438,1.38-0.31,2.787,0.376,4.224
				c0.688,1.44,1.783,2.627,3.285,3.566c1.502,0.938,3.067,1.22,4.693,0.844c2.749-2.75,4.942-6.287,6.568-10.604
				c1.625-4.316,2.844-8.818,3.661-13.511c0.814-4.692,1.313-9.353,1.499-13.983c0.189-4.628,0.284-8.757,0.284-12.388
				c0-2.748-0.817-5-2.44-6.755c-1.625-1.75-3.689-3.031-6.195-3.847c-2.503-0.813-5.318-1.25-8.446-1.314
				c-3.124-0.062-6.188,0.126-9.19,0.563c-3.005,0.439-5.82,1.097-8.446,1.971c-2.629,0.877-4.693,1.814-6.194,2.815v59.305
				l-3.379-2.627l0.751-0.376l-21.958-26.086l0.936-165.908c1.752-3.252,3.816-6.536,6.195-9.854
				c2.374-3.314,5.38-5.848,9.009-7.602c3.004-2,6.224-3.472,9.667-4.411c3.437-0.939,7.161-1.596,11.166-1.971l1.316,0.563
				c-4.637,2.504-8.137,6.258-10.514,11.261c-0.375,0.628-0.69,1.379-0.937,2.253c-0.253,0.876-0.471,2.471-0.657,4.785
				c-0.189,2.318-0.375,5.538-0.564,9.665c-0.187,4.128-0.344,9.699-0.468,16.704c-0.13,7.01-0.253,15.737-0.376,26.181
				c-0.128,10.449-0.252,23.119-0.376,38.005l26.084-31.155l0.376,1.314c6.88,4.63,13.768,9.074,20.647,13.326
				c6.881,4.253,13.888,8.695,21.021,13.324c0.874,0.628,0.594,2.002-0.846,4.13c-1.442,2.129-3.507,4.661-6.192,7.602
				c-2.692,2.939-5.761,6.069-9.197,9.383c-3.443,3.317-6.758,6.379-9.948,9.194c-3.191,2.815-6.007,5.227-8.446,7.227
				c-2.439,2.004-3.971,3.19-4.599,3.566h5.255c2.001-0.123,4.194-0.281,6.571-0.469c2.374-0.188,4.785-0.345,7.225-0.469
				c2.439-0.123,4.852-0.062,7.228,0.188c2.374,0.251,4.504,0.814,6.382,1.688c0.875,0.376,1.654,1.158,2.346,2.347
				c0.685,1.19,1.313,2.505,1.878,3.94c0.562,1.441,1.031,2.815,1.407,4.13c0.376,1.313,0.622,2.285,0.751,2.908
				c0.751,3.379,1.342,6.881,1.783,10.509c0.433,3.632,0.433,7.445,0,11.449c-0.441,4.007-1.407,8.136-2.91,12.389
				c-1.502,4.256-3.756,8.63-6.757,13.136c-0.751,1.125-2.036,2.41-3.848,3.848c-1.817,1.439-4.1,2.908-6.852,4.41
				c-2.749,1.501-5.849,2.909-9.289,4.224C458.75,347.675,455.089,348.769,451.213,349.645z M422.313,250.551v28.902
				c2.874-2.252,6.1-5.411,9.666-9.479c3.567-4.063,6.944-8.258,10.129-12.574c3.19-4.314,5.943-8.473,8.26-12.479
				c2.316-4.002,3.595-7.067,3.848-9.197l-12.013-6.007L422.313,250.551z"/>
			<path fill="#FDFEFF" d="M533.04,156.147c0.124-0.25,0.376-0.469,0.752-0.657c0.375-0.188,0.562-0.03,0.562,0.469
				c0,2.129,0.72,4.663,2.159,7.602c1.439,2.942,3.313,5.757,5.631,8.446c2.313,2.692,4.942,4.944,7.884,6.757
				c2.938,1.815,5.911,2.598,8.913,2.345c0.499,0,0.028,0.347-1.404,1.033c-1.442,0.688-3.163,1.473-5.164,2.345
				c-2.001,0.877-3.91,1.66-5.725,2.344c-1.815,0.689-2.848,1.097-3.097,1.22c-2.251,1.003-4.16,1.22-5.726,0.658
				c-1.565-0.563-2.878-1.531-3.938-2.907c-1.067-1.376-2.005-2.971-2.815-4.786c-0.817-1.812-1.692-3.502-2.629-5.067
				c-0.938-1.564-2.064-2.877-3.378-3.942c-1.315-1.062-2.973-1.469-4.971-1.22c0.123,3.881,1.342,7.291,3.655,10.229
				c2.313,2.941,4.911,5.162,7.789,6.66c1.376,0.628,1.814,1.285,1.316,1.971c-0.502,0.69-1.568,1.127-3.191,1.315
				c-1.628,0.188-3.633,0.126-6.006-0.188c-2.377-0.311-4.785-1.127-7.225-2.44c-2.439-1.314-4.693-3.217-6.758-5.722
				c-2.063-2.501-3.598-5.818-4.599-9.948c1.377-0.75,3.314-1.657,5.82-2.721c2.5-1.062,5.16-2.253,7.976-3.566
				c2.815-1.314,5.502-2.815,8.067-4.505c2.563-1.688,4.536-3.595,5.915-5.724H533.04z M545.053,209.824
				c-1.379,3.256-2.316,6.54-2.815,9.854c-0.501,3.314-1.003,6.6-1.502,9.851v0.188l-0.751,90.088
				c-0.376,1.004-0.253,2.254,0.375,3.755c0.625,1.502,1.439,2.812,2.44,3.938c1,1.127,2.032,1.753,3.1,1.876
				c1.061,0.127,1.969-0.749,2.721-2.627c0.624-1.622,0.309-2.748-0.938-3.376c-1.254-0.625-2.507-0.625-3.756,0l0.751-2.439
				l-0.376-0.188c0.25-1.001,0.625-1.907,1.127-2.723c0.499-0.812,1.376-1.343,2.629-1.596c1.998-0.749,3.939-0.497,5.817,0.751
				c1.878,1.254,2.752,3.004,2.629,5.256c-0.126,1.253-0.597,2.411-1.408,3.47c-0.817,1.065-1.817,2.064-3.004,3.003
				c-1.19,0.939-2.38,1.783-3.567,2.535c-1.189,0.749-2.222,1.377-3.096,1.876l-2.439,1.876c-2.131,1.127-4.101,2.412-5.912,3.85
				c-1.817,1.439-3.725,2.847-5.725,4.223h-0.752c-5.883-4.13-10.633-9.508-14.263-16.143c-0.126-14.511-0.187-26.711-0.187-36.594
				c0-9.884,0-18.048,0-24.494c0-6.443,0-11.414,0-14.92c0-3.501,0-6.067,0-7.694c0-1.625,0.061-2.751,0.187-3.379
				c0.625-4.755,1.625-9.259,3.005-13.515c1.376-4.251,3.282-8.19,5.722-11.822c2.44-3.626,5.47-6.943,9.103-9.947
				c3.627-3.003,8.008-5.755,13.14-8.26l12.571-2.252c-0.127,0.126-0.253,0.314-0.376,0.563c-0.252,0.502-0.562,0.751-0.938,0.751
				c-1.499,1.002-2.878,1.909-4.128,2.72c-1.25,0.816-2.408,1.69-3.472,2.628c-1.063,0.939-2.064,2.097-3.002,3.473
				C547.022,205.759,546.054,207.572,545.053,209.824z"/>
			<path fill="#FDFEFF" d="M588.403,274.76c-1.625,5.631-2.316,10.67-2.064,15.11c0.25,4.439,1.313,8.538,3.191,12.29
				c1.878,3.755,4.504,7.291,7.884,10.605c3.378,3.317,7.319,6.728,11.823,10.229c-2.626,3.751-5.507,7.287-8.632,10.602
				c-3.131,3.317-6.635,6.79-10.511,10.417c-1.877,0-3.818-0.845-5.819-2.533c-2.005-1.69-3.693-3.221-5.069-4.599
				c-2.499-2.253-4.813-4.909-6.94-7.978c-2.13-3.064-4.005-6.378-5.631-9.944c-1.628-3.567-2.909-7.227-3.847-10.98
				c-0.94-3.753-1.475-7.442-1.598-11.074c-0.252-7.879,0.906-15.042,3.476-21.487c2.563-6.443,5.659-12.92,9.288-19.427
				c1.127-1.874,2.313-3.938,3.563-6.19c1.25-2.254,2.188-4.506,2.815-6.758c1.001-3.252,0.874-6.349-0.375-9.29
				c-1.25-2.939-2.971-5.506-5.158-7.696c-2.189-2.187-4.538-3.909-7.038-5.159c-2.506-1.249-4.504-1.812-6.006-1.688l27.023-21.022
				c2.001,2.002,3.971,3.786,5.915,5.35c1.938,1.565,3.847,3.974,5.722,7.226c1.752,3.379,2.938,6.944,3.566,10.695l18.767-22.144
				l0.376,0.374v-0.75l24.587,28.901v52.927c0.123,8.137-0.189,15.67-0.938,22.614c-0.751,6.945-2.534,13.358-5.35,19.238
				s-6.884,11.198-12.199,15.951c-5.321,4.755-12.359,8.884-21.111,12.389l-15.769,2.252l0.564-0.563
				c0.376-0.374,0.686-0.627,0.938-0.75c1.878-1.127,3.595-2.097,5.161-2.91c1.565-0.813,3.033-1.722,4.412-2.721
				c1.376-1.003,2.657-2.224,3.848-3.661c1.187-1.436,2.345-3.346,3.472-5.724c2.373-4.505,4.563-9.009,6.567-13.512
				c1.998-4.504,3.753-9.07,5.256-13.701l0.186-76.011l-5.255-5.631l-17.829,19.146c-1.875,4.631-3.911,9.226-6.098,13.793
				C591.377,265.534,589.653,270.133,588.403,274.76z"/>
			<path fill="#FDFEFF" d="M750.56,379.298l-34.907,38.287l-27.399-20.083c-4.507-2.877-8.231-5.098-11.17-6.661
				c-2.938-1.565-5.754-2.942-8.442-4.129c-2.692-1.191-5.567-2.534-8.632-4.036c-3.065-1.501-6.976-3.565-11.732-6.193
				c4.631-7.635,10.201-13.579,16.706-17.829c6.502-4.254,13.228-6.977,20.171-8.163c6.947-1.191,13.891-0.939,20.835,0.749
				c6.943,1.69,13.23,4.722,18.861,9.102l-0.187-26.274c-1.379,0.876-3.036,1.815-4.975,2.815c-1.94,1.002-3.882,1.941-5.819,2.815
				c-1.941,0.876-3.75,1.627-5.438,2.252c-1.691,0.628-2.977,0.939-3.851,0.939c-5.883-1.626-11.447-3.723-16.702-6.289
				c-5.256-2.563-9.889-5.098-13.888-7.602c-4.005-2.502-7.165-4.719-9.478-6.66c-2.317-1.938-3.412-3.221-3.286-3.847v-91.966
				c2.001-2.75,4.753-5.689,8.26-8.818c3.5-3.126,7.222-6.068,11.163-8.822c3.942-2.75,7.818-5.097,11.638-7.038
				c3.815-1.938,7.038-3.158,9.667-3.66c0.376,0.502,1.437,1.783,3.191,3.847c1.751,2.064,3.815,4.411,6.189,7.039
				c2.376,2.627,4.816,5.381,7.322,8.258c2.499,2.88,4.689,5.318,6.567,7.317l-0.375,0.751l0.751-11.446
				c3.627-6.631,8.383-12.012,14.266-16.142h0.748c2.001,1.377,3.911,2.785,5.723,4.223c1.814,1.441,3.784,2.722,5.914,3.848
				l2.44,1.878c0.874,0.5,1.906,1.125,3.096,1.876c1.188,0.751,2.377,1.595,3.567,2.534c1.187,0.938,2.187,1.941,3.001,3.003
				c0.814,1.064,1.281,2.222,1.407,3.472c0.124,2.252-0.751,4.003-2.625,5.252c-1.879,1.253-3.819,1.502-5.82,0.751
				c-1.253-0.25-2.127-0.779-2.626-1.595c-0.502-0.813-0.878-1.719-1.127-2.719l0.376-0.188l-0.752-2.439
				c1.25,0.628,2.5,0.628,3.753,0c1.25-0.625,1.565-1.75,0.94-3.379c-0.751-1.876-1.66-2.75-2.724-2.627
				c-1.063,0.126-2.096,0.751-3.096,1.878c-1.004,1.125-1.815,2.471-2.44,4.035c-0.628,1.565-0.751,2.786-0.375,3.657l0.189,27.779
				L750.56,379.298z M680.931,370.663c1.626,0.375,3.63,1,6.006,1.878c2.377,0.874,4.849,2.032,7.414,3.472
				c2.566,1.438,5.164,3.033,7.79,4.786c2.629,1.752,5.006,3.628,7.133,5.631c2.749-2.505,5.628-5.287,8.632-8.353
				c3.002-3.066,5.315-6.287,6.944-9.666c-3.504-0.876-7.165-1.688-10.98-2.44c-3.816-0.751-7.597-1.158-11.353-1.22
				c-3.753-0.064-7.478,0.343-11.167,1.22C687.656,366.846,684.185,368.411,680.931,370.663z M721.097,300.848
				c1.376,1.125,2.626,2.378,3.753,3.753l0.189-60.244c-1.503-2.375-3.507-4.814-6.007-7.319c-2.506-2.501-4.57-4.567-6.195-6.194
				c-0.751-0.625-1.502-1.25-2.25-1.876c-0.748-0.625-1.439-1.188-2.064-1.69c-2.001,0.628-3.91,1.38-5.726,2.252
				c-1.814,0.878-3.658,1.878-5.536,3.003c-2.503,1.755-4.756,3.6-6.757,5.538c-2.001,1.94-3.819,4.1-5.441,6.475v63.06l5.441,8.636
				l2.439,3.377c0.499,0.502,1.001,0.91,1.502,1.22c0.499,0.314,1.437,0.972,2.815,1.971c2.128,1.253,4.129,2.254,6.007,3
				c1.878,0.751,3.815,1.441,5.819,2.066c1.5-0.25,3.094-0.813,4.782-1.69c1.688-0.871,3.847-2.748,6.477-5.628
				c-0.253-3.877-1.158-6.316-2.721-7.319c-1.569-1-3.131-1.126-4.693-0.375c-1.565,0.749-2.752,2.129-3.563,4.128
				c-0.814,2.004-0.597,4.068,0.656,6.194c-2.38-1.876-3.941-4.19-4.693-6.943c-0.751-2.753-0.908-5.412-0.467-7.978
				c0.436-2.564,1.436-4.755,3.002-6.569c1.562-1.813,3.469-2.723,5.722-2.723C716.713,298.347,719.219,298.97,721.097,300.848z"/>
		</g>
		<g>
			<g>
				<g>
					<path fill="#FDFEFF" d="M184.838,272.754c-1.053-4.008-2.831-8.094-5.324-12.231c-2.504-4.147-5.066-8.124-7.697-11.944
						c-3.29-4.603-7.305-8.213-12.039-10.852c-4.74-2.627-10.459-5.195-17.171-7.696c3.554-1.189,7.074-2.692,10.557-4.54
						c3.484-1.843,6.908-4.862,10.265-9.076c3.355-4.209,6.575-10.068,9.669-17.561c3.086-7.502,5.883-17.571,8.387-30.202
						c-2.764-3.81-6.121-8.586-10.063-14.306c-3.95-5.719-8.226-11.347-12.828-16.87c-4.607-5.528-9.276-10.431-14.011-14.706
						c-4.738-4.273-9.276-6.873-13.621-7.796c-1.58-0.522-3.192-0.619-4.836-0.293c-1.643,0.331-3.222,0.857-4.735,1.575
						c-1.515,0.721-2.995,1.584-4.44,2.566c-1.451,0.991-2.76,1.878-3.945,2.669c-6.978,4.728-13.259,9.378-18.852,13.911
						c-5.593,4.539-10.788,9.109-15.587,13.719c-4.805,4.608-9.344,9.268-13.617,14.01c-4.275,4.729-8.654,9.672-13.124,14.795
						l0.2,168.934c1.182-1.709,2.627-3.577,4.339-5.624c1.705-2.042,4.08-4.863,7.105-8.485c3.025-3.612,7.068-8.446,12.136-14.505
						c5.063-6.047,11.546-14.007,19.439-23.875v-58.021c4.341,1.578,8.945,3.877,13.813,6.91c4.865,3.025,9.636,6.44,14.309,10.255
						c4.668,3.815,8.913,7.93,12.728,12.333c3.815,4.417,6.84,8.855,9.077,13.32c1.315,2.9,2.14,5.566,2.47,7.995
						c1.073,8.022-0.848,16.15-5.603,22.68l3.078,20.888c6.258-3.839,12.992-24.154,16.734-26.002
						c5.197-2.563,10.095-5.686,14.705-9.375c4.466-3.288,7.262-6.878,8.383-10.755
						C185.857,280.714,185.895,276.778,184.838,272.754z M91.098,292.586l-6.905,10.067l-0.79-140.708
						c0.79-2.625,1.84-4.862,3.157-6.713c1.315-1.845,2.826-3.417,4.538-4.733V292.586z M134.649,207.146
						c-1.33,1.859-2.83,3.631-4.672,5.315c-3.028,2.774-6.117,5.337-9.275,7.701c-3.157,2.365-6.447,4.475-9.869,6.317
						c-2.629,1.316-5.066,2.665-7.299,4.042c-2.239,1.387-5.066,2.668-8.487,3.847v-86.23c3.818-1.718,7.992-2.275,12.53-1.677
						c4.539,0.582,8.979,2.034,13.323,4.33c4.339,2.309,8.32,5.301,11.939,8.981c3.618,3.684,6.379,7.766,8.29,12.238
						c1.905,4.473,2.759,9.211,2.563,14.212C143.393,193.764,138.938,201.149,134.649,207.146z"/>
				</g>
			</g>
			<path fill="#FDFEFF" d="M185.633,278.051c2.874,18.435-55.199,68.049-55.199,68.049l11.406-36.259L185.633,278.051z"/>
		</g>
	</g>
</g>
</svg>
