<svg id="Layer_1" data-name="Layer 1" xmlns="http://www.w3.org/2000/svg" viewBox="0 0 307 307"><defs><style>.cls-1{fill:#875717;}.cls-2{fill:#603706;}</style></defs><title>shipInCircle</title><circle class="cls-1" cx="153.5" cy="153.5" r="153.5"/><path class="cls-2" d="M299.21,237.35a6.69,6.69,0,0,0-5.14-2.41H255.2v-8.7h10.07a6.88,6.88,0,0,0,1.6-.19c14-3.46,24.22-19.78,24.22-38.83s-10.18-35.37-24.22-38.82a6.84,6.84,0,0,0-1.6-.19H255.2v-4h1.46a6.64,6.64,0,0,0,1.6-.19c8.92-2.19,15.15-11.86,15.15-23.5S267.18,99.24,258.26,97a6.64,6.64,0,0,0-1.6-.19H227.53a6.69,6.69,0,0,0-1.6,13.19c2.08.51,5,4.44,5,10.5s-2.88,10-5,10.5a6.69,6.69,0,0,0,1.6,13.19h14.29v4h-32a6.69,6.69,0,0,0-1.6,13.19c8,2,14,13.07,14,25.82s-6,23.85-14,25.82a6.69,6.69,0,0,0,1.6,13.19h32v8.7H229.48a6.69,6.69,0,0,0-6.69,6.69c0,2.32-2.81,4.35-6,4.35H183.64c-3.21,0-6-2-6-4.35a6.69,6.69,0,0,0-6.69-6.69h-9.59v-8.7h11.45a6.87,6.87,0,0,0,1.6-.19c14-3.46,24.22-19.78,24.22-38.83s-10.18-35.37-24.22-38.82a6.83,6.83,0,0,0-1.6-.19H161.33v-4h2.85a6.66,6.66,0,0,0,1.6-.19c8.92-2.19,15.15-11.86,15.15-23.5S174.7,99.24,165.78,97a6.66,6.66,0,0,0-1.6-.19H135a6.69,6.69,0,0,0-1.6,13.19c2.08.51,5,4.44,5,10.5s-2.88,10-5,10.5a6.69,6.69,0,0,0,1.6,13.19h12.9v4H117.37a6.69,6.69,0,0,0-1.6,13.19c8,2,14,13.07,14,25.82s-6,23.85-14,25.82a6.69,6.69,0,0,0,1.6,13.19H148v8.7h-36.1a6.69,6.69,0,0,0-6.69,6.69v24.43a37.52,37.52,0,0,0,37.48,37.48h109.6c20,0,39.6-15.88,43.79-35.4l0-.2,4.59-25.11a6.71,6.71,0,0,0-1.44-5.49Zm-56.7-127.12h13.08c2,1,4.44,4.74,4.44,10.3s-2.43,9.32-4.44,10.3H242.51a30.92,30.92,0,0,0,0-20.61ZM228.59,161.6h35.77C272,164,277.7,174.85,277.7,187.23s-5.69,23.21-13.34,25.63H228.59a49.92,49.92,0,0,0,0-51.26ZM150,110.24h13.08c2,1,4.44,4.74,4.44,10.3s-2.43,9.32-4.44,10.3H150a30.92,30.92,0,0,0,0-20.61ZM136.11,161.6h35.77c7.65,2.42,13.34,13.25,13.34,25.63s-5.69,23.21-13.34,25.63H136.11a49.89,49.89,0,0,0,0-51.26Zm146.8,103.84c-2.93,13.41-17,24.72-30.68,24.72H142.64a24.12,24.12,0,0,1-24.09-24.09V248.33h47.11c2.9,6.47,9.86,11,18,11h33.13c8.11,0,15.08-4.57,18-11H286Zm0,0" transform="translate(-49.46 -46.7)"/><path class="cls-2" d="M146.63,106.42s6.42,15.39,0,27.84H165s13.4-9.75,0-27.84Z" transform="translate(-49.46 -46.7)"/><path class="cls-2" d="M240.58,106.42s6.42,15.39,0,27.84H259s13.4-9.75,0-27.84Z" transform="translate(-49.46 -46.7)"/><path class="cls-2" d="M134.45,160.36s14.76,29.87,0,54h42.35s30.82-18.93,0-54Z" transform="translate(-49.46 -46.7)"/><path class="cls-2" d="M227.24,160.36s14.76,29.87,0,54h42.35s30.82-18.93,0-54Z" transform="translate(-49.46 -46.7)"/><path class="cls-2" d="M113.86,242.13h49.89s4.79,16,19,14l37.58.17s12.19-1.9,16.53-14.17h54.32s3.84,50.2-32.59,52.78H136.25s-22,0-22.18-26.39Z" transform="translate(-49.46 -46.7)"/></svg>