<?xml version="1.0" encoding="UTF-8" standalone="no"?>
<svg
   xmlns:dc="http://purl.org/dc/elements/1.1/"
   xmlns:cc="http://creativecommons.org/ns#"
   xmlns:rdf="http://www.w3.org/1999/02/22-rdf-syntax-ns#"
   xmlns:svg="http://www.w3.org/2000/svg"
   xmlns="http://www.w3.org/2000/svg"
   xmlns:sodipodi="http://sodipodi.sourceforge.net/DTD/sodipodi-0.dtd"
   xmlns:inkscape="http://www.inkscape.org/namespaces/inkscape"
   width="253.79727"
   height="95.331718"
   viewBox="0 0 194 194"
   id="svg2"
   sodipodi:version="0.32"
   inkscape:version="0.46"
   sodipodi:docname="Durex logo.svg"
   inkscape:output_extension="org.inkscape.output.svg.inkscape"
   version="1.0">
  <metadata
     id="metadata39">
    <rdf:RDF>
      <cc:Work
         rdf:about="">
        <dc:format>image/svg+xml</dc:format>
        <dc:type
           rdf:resource="http://purl.org/dc/dcmitype/StillImage" />
      </cc:Work>
    </rdf:RDF>
  </metadata>
  <defs
     id="defs37">
    <inkscape:perspective
       sodipodi:type="inkscape:persp3d"
       inkscape:vp_x="0 : 121.25 : 1"
       inkscape:vp_y="0 : 1000 : 0"
       inkscape:vp_z="242.5 : 121.25 : 1"
       inkscape:persp3d-origin="121.25 : 80.833333 : 1"
       id="perspective41" />
  </defs>
  <sodipodi:namedview
     inkscape:window-height="667"
     inkscape:window-width="638"
     inkscape:pageshadow="2"
     inkscape:pageopacity="0.0"
     guidetolerance="10.0"
     gridtolerance="10.0"
     objecttolerance="10.0"
     borderopacity="1.0"
     bordercolor="#666666"
     pagecolor="#ffffff"
     id="base"
     showgrid="false"
     inkscape:zoom="1.9051546"
     inkscape:cx="254.9172"
     inkscape:cy="109.27128"
     inkscape:window-x="222"
     inkscape:window-y="230"
     inkscape:current-layer="svg2" />
  <g
     id="g2414"
     transform="matrix(2.7527884,0,0,2.7527884,-161.23867,0)">
    <g
       id="g4"
       style="fill:#0072ba;fill-rule:evenodd;stroke:none;stroke-width:1;stroke-linecap:butt;stroke-linejoin:miter;stroke-dasharray:none"
       transform="translate(0,0.959)">
      <path
         id="path6"
         d="M 178.566,5.996 C 174.7,2.1289 169.577,0 164.141,0 C 164.141,0 20.42,0 20.42,0 C 9.16015,0 0,9.1601 0,20.4199 C 0,20.4199 0,48.895 0,48.895 C 0,54.331 2.12988,59.454 5.99609,63.32 C 9.86235,67.186 14.9844,69.315 20.42,69.315 C 20.42,69.315 164.141,69.315 164.141,69.315 C 169.577,69.315 174.7,67.186 178.566,63.32 C 182.431,59.454 184.561,54.331 184.561,48.895 C 184.561,48.895 184.561,20.4199 184.561,20.4199 C 184.561,14.9843 182.431,9.8623 178.566,5.996 z" />
    </g>
    <g
       id="g8"
       style="fill:#161413;fill-rule:evenodd;stroke:none;stroke-width:1;stroke-linecap:butt;stroke-linejoin:miter;stroke-dasharray:none"
       transform="translate(52.60645,9.9433)">
      <path
         id="path10"
         d="M 0,0.0088 C 0,0.0088 0.0117,0.0088 0.0117,0.0088 C 0.0117,0.0088 0.0117,0 0.0117,0 C 0.0117,0 0,0.0088 0,0.0088 z" />
    </g>
    <g
       id="g12"
       style="fill:#ffffff;fill-rule:evenodd;stroke:none;stroke-width:1;stroke-linecap:butt;stroke-linejoin:miter;stroke-dasharray:none"
       transform="translate(106.70625,21.5644)">
      <path
         id="path14"
         d="M 5.228,15.21 C 6.248,9.2383 11.306,4.6641 17.394,4.6641 C 23.506,4.6641 28.581,9.2022 29.572,15.21 C 29.572,15.21 5.228,15.21 5.228,15.21 z M 34.789,17.3946 C 34.789,7.7881 27.001,0 17.394,0 C 7.787,0 0,7.7881 0,17.3946 C 0,27.0006 7.787,34.7886 17.394,34.7886 C 23.648,34.7886 29.131,31.4896 32.197,26.5356 C 32.197,26.5356 27.762,24.3206 27.762,24.3206 C 25.558,27.8146 21.738,30.1256 17.394,30.1256 C 11.353,30.1256 6.325,25.7056 5.253,19.8006 C 5.253,19.8006 34.617,19.8006 34.617,19.8006 C 34.73,18.9986 34.789,18.2276 34.789,17.3946 z" />
    </g>
    <g
       id="g16"
       style="fill:#ffffff;fill-rule:evenodd;stroke:none;stroke-width:1;stroke-linecap:butt;stroke-linejoin:miter;stroke-dasharray:none"
       transform="translate(59.12405,21.8466)">
      <path
         id="path18"
         d="M 20.7451,0 C 20.7451,0 25.9375,0 25.9375,0 C 25.9375,0 25.9375,22.9954 25.9375,22.9954 C 25.9375,22.9954 25.6699,34.7604 12.8349,34.7604 C 0,34.7604 0,22.4604 0,22.4604 C 0,22.4604 0,0 0,0 C 0,0 5.6152,0 5.6152,0 C 5.6152,0 5.6152,19.7864 5.6152,19.7864 C 5.6152,19.7864 4.5459,29.4124 12.8349,29.4124 C 21.124,29.4124 20.7451,24.1984 20.7451,20.9894 C 20.7451,20.9894 20.7451,0 20.7451,0 z" />
    </g>
    <g
       id="g20"
       style="fill:#ffffff;fill-rule:evenodd;stroke:none;stroke-width:1;stroke-linecap:butt;stroke-linejoin:miter;stroke-dasharray:none"
       transform="translate(90.89945,21.8466)">
      <path
         id="path22"
         d="M 0,0 C 0,0 6.2238,0 6.2238,0 C 6.2238,0 6.1638,3.9805 6.1638,3.9805 C 6.1638,3.9805 7.7388,0.1778 11.5718,0.1778 C 15.0188,0.1778 16.8008,1.9903 17.1568,2.2872 C 17.1568,2.2872 14.3348,7.1299 14.1868,7.3086 C 14.0378,7.4864 13.0578,5.7334 11.0668,5.7334 C 8.3338,5.7334 6.3428,8.0508 6.3428,10.1905 C 6.3428,10.1905 6.3428,32.9774 6.3428,32.9774 C 6.3428,32.9774 0,32.9774 0,32.9774 C 0,32.9774 0,0 0,0 z" />
    </g>
    <g
       id="g24"
       style="fill:#ffffff;fill-rule:evenodd;stroke:none;stroke-width:1;stroke-linecap:butt;stroke-linejoin:miter;stroke-dasharray:none"
       transform="translate(3.23926,4.1982)">
      <path
         id="path26"
         d="M 160.902,0 C 160.902,0 17.1807,0 17.1807,0 C 7.73149,0 0,7.7315 0,17.1807 C 0,17.1807 0,45.6558 0,45.6558 C 0,55.1058 7.73149,62.8368 17.1807,62.8368 C 17.1807,62.8368 160.902,62.8368 160.902,62.8368 C 163.755,62.8368 166.447,62.1288 168.821,60.8858 C 168.821,60.8858 165.568,55.7788 165.568,55.7788 C 165.568,55.7788 152.859,34.1368 152.859,34.1368 C 152.859,34.1368 163.376,17.6484 163.376,17.6484 C 163.376,17.6484 157.138,17.6484 157.138,17.6484 C 157.138,17.6484 150.007,29.0567 150.007,29.0567 C 150.007,29.0567 143.055,17.6484 143.055,17.6484 C 143.055,17.6484 136.637,17.6484 136.637,17.6484 C 136.637,17.6484 146.62,34.8498 146.62,34.8498 C 146.62,34.8498 136.548,50.6258 136.548,50.6258 C 136.548,50.6258 142.609,50.6258 142.609,50.6258 C 142.609,50.6258 149.294,39.9308 149.294,39.9308 C 149.294,39.9308 159.956,57.0318 159.956,57.0318 C 159.899,57.0328 159.842,57.0338 159.785,57.0338 C 159.785,57.0338 19.1006,57.0338 19.1006,57.0338 C 11.3897,57.0338 5.08009,50.7248 5.08009,43.0138 C 5.08009,43.0138 5.08009,19.7744 5.08009,19.7744 C 5.08009,12.0635 11.3897,5.7539 19.1006,5.7539 C 19.1006,5.7539 43.3174,5.7539 43.3174,5.7539 C 43.3174,5.7539 43.3174,21.5586 43.3174,21.5586 C 40.2285,18.9014 36.2139,17.292 31.8203,17.292 C 22.0742,17.292 14.1729,25.1934 14.1729,34.9398 C 14.1729,44.6858 22.0742,52.5858 31.8203,52.5858 C 36.2139,52.5858 40.2285,50.9768 43.3174,48.3208 C 43.3174,48.3208 43.3174,50.6258 43.3174,50.6258 C 43.3174,50.6258 49.3789,50.6258 49.3789,50.6258 C 49.3789,50.6258 49.3789,5.7539 49.3789,5.7539 C 49.3789,5.7539 159.785,5.7539 159.785,5.7539 C 167.496,5.7539 173.806,12.0635 173.806,19.7744 C 173.806,19.7744 173.806,43.0138 173.806,43.0138 C 173.806,46.6748 172.378,50.0138 170.059,52.5178 C 170.059,52.5178 173.304,57.5098 173.304,57.5098 C 176.258,54.4208 178.083,50.2428 178.083,45.6558 C 178.083,45.6558 178.083,17.1807 178.083,17.1807 C 178.083,7.7315 170.352,0 160.902,0 z M 31.7441,47.5948 C 24.7549,47.5948 19.0889,41.9288 19.0889,34.9398 C 19.0889,27.9502 24.7549,22.2842 31.7441,22.2842 C 38.7334,22.2842 44.3994,27.9502 44.3994,34.9398 C 44.3994,41.9288 38.7334,47.5948 31.7441,47.5948 z" />
    </g>
    <g
       id="g28"
       style="fill:#0072ba;fill-rule:evenodd;stroke:none;stroke-width:1;stroke-linecap:butt;stroke-linejoin:miter;stroke-dasharray:none"
       transform="translate(179.14625,0)">
      <path
         id="path30"
         d="M 3.97,7.9414 C 5.031,7.9414 6.028,7.5283 6.778,6.7783 C 7.528,6.0283 7.941,5.0312 7.941,3.9707 C 7.941,2.9101 7.528,1.9131 6.778,1.1631 C 6.028,0.4131 5.031,0 3.97,0 C 1.781,0 0,1.7812 0,3.9707 C 0,5.0312 0.413,6.0283 1.163,6.7783 C 1.912,7.5283 2.909,7.9414 3.97,7.9414 z M 0.546,3.9677 C 0.546,3.0537 0.903,2.1943 1.549,1.5478 C 2.196,0.9013 3.055,0.5459 3.969,0.5459 C 4.883,0.5459 5.742,0.9013 6.389,1.5478 C 7.035,2.1943 7.392,3.0537 7.392,3.9677 C 7.392,5.8554 5.856,7.3906 3.969,7.3906 C 3.055,7.3906 2.196,7.0351 1.549,6.3886 C 0.903,5.7422 0.546,4.8828 0.546,3.9677 z" />
    </g>
    <g
       id="g32"
       style="fill:#0073bb;fill-rule:evenodd;stroke:none;stroke-width:1;stroke-linecap:butt;stroke-linejoin:miter;stroke-dasharray:none"
       transform="translate(181.69425,1.8623)">
      <path
         id="path34"
         d="M 3.431,4.125 C 3.431,4.125 2.096,4.125 2.096,4.125 C 2.096,4.125 1.084,2.5381 1.084,2.5381 C 1.084,2.5381 1.073,2.5381 1.073,2.5381 C 1.073,2.5381 1.073,4.125 1.073,4.125 C 1.073,4.125 0,4.125 0,4.125 C 0,4.125 0,0 0,0 C 0,0 1.604,0 1.604,0 C 2.418,0 3.037,0.3886 3.037,1.2695 C 3.037,1.8379 2.72,2.3301 2.134,2.4345 C 2.134,2.4345 3.431,4.125 3.431,4.125 z M 1.073,1.8486 C 1.073,1.8486 1.177,1.8486 1.177,1.8486 C 1.527,1.8486 1.921,1.7832 1.921,1.3349 C 1.921,0.8857 1.527,0.8203 1.177,0.8203 C 1.177,0.8203 1.073,0.8203 1.073,0.8203 C 1.073,0.8203 1.073,1.8486 1.073,1.8486 z" />
    </g>
  </g>
</svg>
