<?xml version="1.0" encoding="utf-8"?>
<!-- Generator: Adobe Illustrator 19.2.1, SVG Export Plug-In . SVG Version: 6.00 Build 0)  -->
<svg version="1.1" id="Layer_9" xmlns="http://www.w3.org/2000/svg" xmlns:xlink="http://www.w3.org/1999/xlink" x="0px" y="0px"
	 viewBox="0 0 677.9 542.3" style="enable-background:new 0 0 677.9 542.3;" xml:space="preserve">
<style type="text/css">
	.st0{fill:#844F10;}
	.st1{fill:#E28C1B;}
	.st2{fill:#0F4722;}
	.st3{fill:#115128;}
	.st4{fill:#1A8246;}
	.st5{fill:#324256;}
	.st6{fill:#2F404F;}
	.st7{fill:#394C60;}
	.st8{fill:#283842;}
	.st9{fill:#668AAD;}
	.st10{fill:#4E6B82;}
	.st11{fill:#3B4F66;}
	.st12{fill:#4E6689;}
	.st13{fill:#707070;}
	.st14{fill:#636363;}
	.st15{fill:#999999;}
	.st16{fill:#2C3A49;}
	.st17{fill:#41576D;}
	.st18{fill:#354659;}
</style>
<title>canon-day-01</title>
<g id="Layer_2">
	<path class="st0" d="M10.4,479c0,0-24.4,41.9,5.3,50.7s341.5,23.5,638.2,0c13-1.1,38.5-17.5,12.3-50.7
		c-5.9-7.5-104.3-9.3-223.1-8.5c-7.9,0-16,0.1-24,0.1c-8,1.1-16.2-0.5-24.4,0.3c-8.2,0.3-16.4-1.2-24.7,0.3
		c-8.3-0.1-16.5,0.3-24.9,0.3C178.7,473.9,10.4,479,10.4,479z"/>
	<path class="st1" d="M676.5,512.7c0,0,9.4-36.7-21-45.5S344.7,434.1,33.3,462C20.1,463.3,1.5,472.3,0,511
		c-0.3,6.6,181.8,11.9,357.3,10.7C519.8,520.3,676.5,512.7,676.5,512.7z"/>
	<path class="st2" d="M676.5,486.6c0,0,4.2-22.9-26.2-31.7s-283.6-11.7-594.4-5.2C42.5,450,13.7,447.3,7,479.7
		c-0.8,3.7,3.4,13.4,28.7,15.3c4.2,0.3,19.1-11.2,23.9-6c4.8-2.5,9.8-9.4,15.1,0.8c5.3-14.2,10.9-6.1,16.7,0.7
		c5.9,13.4,11.9-11.5,18.2,0.5c6.3-8.2,12.7,5.9,19.4,0.5c6.7,9.3,13.5,0.3,20.5,0.4c12.3,0.1,25.1,7.2,38.4,7.4
		c6.6,0,13.4-6.8,20.1-6.8c6.8-0.8,13.6-5,20.6,0.1c7-5,14.1,3.7,21.2,0c7.1-3.4,14.2-2.9,21.4,0c7.2-3.5,14.5-4.8,21.7,0
		c7.2-1.6,14.6-2.6,22-0.1c7.4,0,14.7-0.1,22-0.1c4.6,0,9.1-0.1,13.8-0.1c4.6-2.7,9.1-2,13.8-0.1c4.6,0.3,9.1,4.1,13.8-0.1
		c4.6,2.5,9.1-2.2,13.6-0.1c4.5-0.7,9.1,1.1,13.6-0.1c4.5,3.8,9,8.3,13.5,6.7c4.5,0,9-7.1,13.4-7.1c7.8-0.1,15.6-0.3,23.1-0.3
		c7.6,1.9,15.1,3.3,22.5-0.4c7.4-4.2,14.7,16,22-0.4c7.2,9.8,14.2,11.5,21.2-0.4c7-7.2,13.7-6.8,20.3-0.4c6.5,2.6,13.1-4.5,19.4-0.4
		c6.3-1.6,12.3,2.3,18.3-0.4c3-2.2,5.9-2,8.7-1.5s5.6,1.5,8.3,1.1c2.7,1.2,5.5,2.7,8-0.1c2.6-3.3,5.2-5.3,7.7-0.1
		c8.1-2,15.4,4.8,22.1,4.6s12.7-9.4,18-5.6c5.3-0.7,9.7-5.2,13.4-0.3c3.7-0.1,6.4-0.1,8.3-0.3C674.6,486.6,675.5,486.7,676.5,486.6z
		"/>
	<path class="st3" d="M25.7,454c0,0,4.1,12.4,22,13.5c28.4,1.8,294.8,7.4,584.9,1.1c12.4-0.3,22.9-2.6,24.3-11.3
		c0.3-1.5-171.5-2.3-334.8-2C170.5,455.6,25.7,454,25.7,454z"/>
	<path class="st4" d="M176.9,391.3c-81.4,0-101.8,37.8-151.3,62.7l372.2,2.3C358.8,437.8,258.3,391.3,176.9,391.3z"/>
	<path class="st4" d="M451.5,371.9c-108.7,0-149.8,50.4-215.7,83.7l421.2,1.8C608.4,435.7,560.2,371.9,451.5,371.9z"/>
</g>
<path class="st5" d="M261.3,54.8c-0.9,0.3-1.7,0.7-2.5,1c0.8,0.3,1.7,0.7,2.5,1V54.8z"/>
<path class="st5" d="M416.5,56.7c0.8-0.3,1.5-0.6,2.2-0.9c-0.7-0.3-1.5-0.6-2.2-0.9V56.7L416.5,56.7z"/>
<path class="st5" d="M261.3,62.8h20.2c-6.9-1.5-13.6-3.5-20.2-6V62.8z"/>
<path class="st6" d="M278.2,34v36.2c-5.2,3.1-10.9,5.4-16.8,6.7V11C268,17.9,273.6,25.6,278.2,34z"/>
<path class="st6" d="M399.7,34.1v36.2c5.2,3.1,10.9,5.4,16.8,6.8V11.2C409.9,18,404.2,25.7,399.7,34.1z"/>
<path class="st7" d="M441.8,33L441.8,33c-0.7-8.3-10.1-15.9-25.2-21.8V55l0,0c-14.5-5.6-34.2-9.6-56.6-11.2V0
	c-6.8-0.5-13.9-0.7-21.1-0.7S324.7-0.5,317.9,0v43.7c-22.4,1.6-42.1,5.6-56.6,11.1l0,0V11.1C246,17,236.5,24.6,235.9,33l0,0
	l-21.2,317.1h248.2L441.8,33z"/>
<path class="st8" d="M339.7,104.5c3.1,0,6.2,0.1,9.2,0.3v-7.6c-3.4-0.3-7-0.4-10.6-0.4c-2.6,0-5.2,0.1-7.7,0.2v7.8
	C333.5,104.6,336.6,104.5,339.7,104.5z"/>
<path class="st9" d="M349.1,117.1c3.1,0,6.3,0.8,9.2,1l0.1-7.6c-3.4-0.3-7-1.1-10.7-1.2c-2.6,0-5.2,0-7.7,0.1l-0.1,7.8
	C342.9,117.1,345.9,117,349.1,117.1z"/>
<path class="st10" d="M351.8,96.8v8.7c6.2,0.5,12.4,1.8,18.3,3.8v-8.4C364.2,98.8,358.1,97.4,351.8,96.8z"/>
<path class="st8" d="M310.8,201.6v8.7c-5.5,0.6-11,1.8-16.2,3.8v-8.4C299.8,203.6,305.3,202.2,310.8,201.6z"/>
<path class="st9" d="M302.7,215.9v8.7c-5.5,0.6-11,1.8-16.2,3.8v-8.3C291.7,218,297.2,216.5,302.7,215.9z"/>
<path class="st10" d="M324.2,208.5c-3.1,0-6.2,0.1-9.2,0.3v-7.6c3.4-0.3,7-0.4,10.6-0.4c2.6,0,5.2,0.1,7.7,0.2v7.8
	C330.4,208.6,327.3,208.5,324.2,208.5z"/>
<path class="st8" d="M314.8,222.7c-3.1,0-6.2,0.9-9.2,1.2l-0.1-9.2c3.4-0.4,7-1.3,10.7-1.4c2.6,0,5.2,0,7.7,0.1l0.1,9.4
	C321,222.7,318,222.6,314.8,222.7z"/>
<path class="st9" d="M251.7,121.2v-9.1c-6.9,1.7-12.5,4.4-15.9,7.7l-0.6,9.6C238.2,125.8,244.5,123.2,251.7,121.2z"/>
<polygon class="st11" points="113.6,371.5 85.7,371.5 85.7,328.6 113.6,346.2 "/>
<polygon class="st12" points="85.7,328.6 70.1,333.1 70.1,370.4 85.7,366 "/>
<polygon class="st13" points="150.8,366.8 63.2,343.7 72.3,310.4 159.9,333.8 "/>
<polygon class="st14" points="150.8,366.8 63.2,343.7 67.5,327.7 154.1,358.8 "/>
<polygon class="st11" points="168.2,355.8 140.3,355.8 140.3,312.9 168.2,330.4 "/>
<polygon class="st12" points="140.3,350.9 140.3,312.9 113.6,320.6 113.6,358.3 "/>
<polygon class="st13" points="200.4,350.1 112.7,326.9 121.8,293.7 209.4,317.1 "/>
<polygon class="st14" points="200.4,350.1 112.7,326.9 117.1,311 203.7,342 "/>
<polygon class="st11" points="223.3,339.8 195.5,339.8 195.5,296.9 223.3,314.5 "/>
<polygon class="st12" points="195.5,335.6 195.5,296.9 168.2,304.8 168.2,343.2 "/>
<polygon class="st13" points="256.8,335.6 169.2,312.4 178.3,279.2 265.9,302.6 "/>
<polygon class="st14" points="256.8,335.6 169.2,312.4 173.5,296.5 260.1,327.5 "/>
<polygon class="st11" points="284.7,322.1 256.9,322.1 256.9,279.2 284.7,296.7 "/>
<polygon class="st12" points="256.9,318.6 256.9,279.2 223.3,288.9 223.3,327.9 "/>
<polygon class="st13" points="318.2,319.3 227.5,294.9 236.9,260 327.5,284.6 "/>
<polygon class="st14" points="318.2,319.3 227.5,294.9 232,278.2 321.6,310.9 "/>
<polygon class="st12" points="284.7,271.1 284.7,310.9 338.8,295.9 338.8,255.5 "/>
<polygon class="st12" points="284.7,345.1 256.9,345.1 256.9,318.6 223.3,327.9 223.3,361.9 195.5,361.9 195.5,335.6 168.2,343.2 
	168.2,371.5 140.3,371.5 140.3,350.9 113.6,358.3 113.6,377.2 85.7,377.2 85.7,366 70.1,370.4 70.1,434.6 338.8,434.6 338.8,295.9 
	284.7,310.9 "/>
<polygon class="st12" points="85.7,377.2 113.6,377.2 113.6,358.3 85.7,366 "/>
<polygon class="st12" points="140.3,371.5 168.2,371.5 168.2,343.2 140.3,350.9 "/>
<polygon class="st12" points="195.5,361.9 223.3,361.9 223.3,327.9 195.5,335.6 "/>
<polygon class="st12" points="256.9,345.1 284.7,345.1 284.7,310.9 256.9,318.6 "/>
<ellipse transform="matrix(0.1239 -0.9923 0.9923 0.1239 -72.3789 472.7718)" class="st15" cx="231.6" cy="277.4" rx="18.5" ry="13.6"/>
<ellipse transform="matrix(0.1239 -0.9923 0.9923 0.1239 -72.2905 472.8964)" cx="231.7" cy="277.4" rx="14.5" ry="10.7"/>
<path class="st15" d="M186.3,297.4c-1.2,9.6-8.1,16.7-15.3,15.8s-12.1-9.4-10.9-19c1.2-9.6,8.1-16.7,15.3-15.8
	S187.5,287.8,186.3,297.4z"/>
<path d="M183.5,297c-1,7.6-6.4,13.1-12,12.4c-5.6-0.7-9.5-7.4-8.6-15s6.4-13.1,12-12.4C180.6,282.7,184.5,289.5,183.5,297z"/>
<path class="st15" d="M129.8,311.9c-1.2,9.6-8.1,16.7-15.3,15.8s-12.1-9.4-10.9-19c1.2-9.6,8.1-16.7,15.3-15.8
	C126.1,293.8,131,302.2,129.8,311.9z"/>
<path d="M127.1,311.5c-1,7.6-6.3,13.1-12,12.4c-5.7-0.7-9.5-7.4-8.6-15s6.3-13.1,12-12.4C124.2,297.2,128,304,127.1,311.5z"/>
<path class="st15" d="M80.2,328.6c-1.2,9.6-8.1,16.7-15.3,15.8s-12.1-9.4-10.9-19s8.1-16.7,15.3-15.8S81.4,319,80.2,328.6z"/>
<path d="M77.5,328.3c-1,7.6-6.3,13.1-12,12.4s-9.5-7.4-8.5-15s6.4-13.1,12-12.4C74.6,314,78.5,320.7,77.5,328.3z"/>
<polygon class="st16" points="563.9,371.5 591.8,371.5 591.8,328.6 563.9,346.2 "/>
<polygon class="st17" points="591.8,328.6 607.4,333.1 607.4,370.4 591.8,366 "/>
<polygon class="st13" points="526.7,366.8 614.4,343.7 605.3,310.4 517.7,333.8 "/>
<polygon class="st14" points="526.7,366.8 614.4,343.7 610,327.7 523.4,358.8 "/>
<polygon class="st16" points="509.4,355.8 537.2,355.8 537.2,312.9 509.4,330.4 "/>
<polygon class="st17" points="537.2,350.9 537.2,312.9 563.9,320.6 563.9,358.3 "/>
<polygon class="st13" points="477.2,350.1 564.8,326.9 555.7,293.7 468.1,317.1 "/>
<polygon class="st14" points="477.2,350.1 564.8,326.9 560.5,311 473.9,342 "/>
<polygon class="st16" points="454.2,339.8 482.1,339.8 482.1,296.9 454.2,314.5 "/>
<polygon class="st17" points="482.1,335.6 482.1,296.9 509.4,304.8 509.4,343.2 "/>
<polygon class="st13" points="420.7,335.6 508.4,312.4 499.2,279.2 411.6,302.6 "/>
<polygon class="st14" points="420.7,335.6 508.4,312.4 504,296.5 417.4,327.5 "/>
<polygon class="st16" points="392.8,322.1 420.6,322.1 420.6,279.2 392.8,296.7 "/>
<polygon class="st17" points="420.6,318.6 420.6,279.2 454.2,288.9 454.2,327.9 "/>
<polygon class="st13" points="359.4,319.3 450.1,294.9 440.6,260 350,284.6 "/>
<polygon class="st14" points="359.4,319.3 450.1,294.9 445.5,278.2 356,310.9 "/>
<polygon class="st17" points="392.8,271.1 392.8,310.9 338.8,295.9 338.8,255.5 "/>
<polygon class="st17" points="392.8,345.1 420.6,345.1 420.6,318.6 454.2,327.9 454.2,361.9 482.1,361.9 482.1,335.6 509.4,343.2 
	509.4,371.5 537.2,371.5 537.2,350.9 563.9,358.3 563.9,377.2 591.8,377.2 591.8,366 607.4,370.4 607.4,434.6 338.8,434.6 
	338.8,295.9 392.8,310.9 "/>
<polygon class="st17" points="591.8,377.2 563.9,377.2 563.9,358.3 591.8,366 "/>
<polygon class="st17" points="537.2,371.5 509.4,371.5 509.4,343.2 537.2,350.9 "/>
<polygon class="st17" points="482.1,361.9 454.2,361.9 454.2,327.9 482.1,335.6 "/>
<polygon class="st17" points="420.6,345.1 392.8,345.1 392.8,310.9 420.6,318.6 "/>
<ellipse transform="matrix(0.9923 -0.1239 0.1239 0.9923 -30.9528 57.4104)" class="st15" cx="445.9" cy="277.5" rx="13.6" ry="18.5"/>
<ellipse transform="matrix(0.9923 -0.1239 0.1239 0.9923 -30.9544 57.3946)" cx="445.8" cy="277.5" rx="10.7" ry="14.5"/>
<path class="st15" d="M491.3,297.4c1.2,9.6,8.1,16.7,15.3,15.8c7.2-0.9,12.1-9.4,10.9-19c-1.2-9.6-8.1-16.7-15.3-15.8
	S490.1,287.8,491.3,297.4z"/>
<path d="M494,297c1,7.6,6.4,13.1,12,12.4c5.6-0.7,9.5-7.4,8.6-15s-6.3-13.1-12-12.4C496.9,282.7,493,289.5,494,297z"/>
<path class="st15" d="M547.8,311.9c1.2,9.6,8.1,16.7,15.3,15.8s12.1-9.4,10.9-19c-1.2-9.6-8.1-16.7-15.3-15.8
	S546.6,302.2,547.8,311.9z"/>
<path d="M550.5,311.5c1,7.6,6.3,13.1,12,12.4c5.7-0.7,9.5-7.4,8.5-15s-6.3-13.1-12-12.4C553.4,297.2,549.5,304,550.5,311.5z"/>
<path class="st15" d="M597.3,328.6c1.2,9.6,8.1,16.7,15.3,15.8s12.1-9.4,10.9-19s-8.1-16.7-15.3-15.8S596.1,319,597.3,328.6z"/>
<path d="M600,328.3c1,7.6,6.3,13.1,12,12.4s9.5-7.4,8.5-15s-6.3-13.1-12-12.4C602.9,314,599,320.7,600,328.3z"/>
<polygon class="st9" points="276.6,377.1 296.9,372.3 296.9,356.5 276.6,362.2 "/>
<polygon class="st9" points="262.7,401.6 283,396.8 283,381 262.7,386.6 "/>
<polygon class="st9" points="163.4,381.8 183.7,376.9 183.7,361.2 163.4,366.8 "/>
<polygon class="st9" points="149.5,406.3 169.8,401.4 169.8,385.7 149.5,391.3 "/>
<polygon class="st18" points="553.7,377.1 533.5,372.3 533.5,356.5 553.7,362.2 "/>
<polygon class="st9" points="567.7,401.6 547.4,396.8 547.4,381 567.7,386.6 "/>
<polygon class="st18" points="288.4,395.2 308.6,390.3 308.6,374.6 288.4,380.2 "/>
<polygon class="st9" points="384.4,342 364.1,337.2 364.1,321.4 384.4,327 "/>
<polygon class="st18" points="398.3,366.5 378.1,361.6 378.1,345.9 398.3,351.5 "/>
<polygon class="st18" points="412.8,349.8 392.5,344.9 392.5,329.2 412.8,334.8 "/>
</svg>
