<?xml version="1.0" encoding="utf-8"?>
<!-- Generator: Adobe Illustrator 19.2.1, SVG Export Plug-In . SVG Version: 6.00 Build 0)  -->
<svg version="1.1" id="Layer_9" xmlns="http://www.w3.org/2000/svg" xmlns:xlink="http://www.w3.org/1999/xlink" x="0px" y="0px"
	 viewBox="0 0 677.9 543.1" style="enable-background:new 0 0 677.9 543.1;" xml:space="preserve">
<style type="text/css">
	.st0{fill:#844F10;}
	.st1{fill:#E28C1B;}
	.st2{fill:#0F4722;}
	.st3{fill:#115128;}
	.st4{fill:#1A8246;}
	.st5{fill:#324256;}
	.st6{fill:#2F404F;}
	.st7{fill:#394C60;}
	.st8{fill:#283842;}
	.st9{fill:#668AAD;}
	.st10{fill:#4E6B82;}
	.st11{fill:#3B4F66;}
	.st12{fill:#4E6689;}
	.st13{fill:#707070;}
	.st14{fill:#636363;}
	.st15{fill:#999999;}
	.st16{fill:#2C3A49;}
	.st17{fill:#41576D;}
	.st18{fill:#354659;}
</style>
<title>canon-day-01</title>
<g id="Layer_2">
	<path class="st0" d="M10.4,479.7c0,0-24.4,41.9,5.3,50.7s341.5,23.5,638.3,0c13-1.1,38.5-17.5,12.3-50.7
		c-5.9-7.5-104.3-9.3-223.1-8.5c-7.9,0-16,0.1-24,0.1c-8,1.1-16.3-0.5-24.4,0.3c-8.2,0.3-16.4-1.2-24.7,0.3
		c-8.3-0.1-16.5,0.3-24.9,0.3C178.7,474.6,10.4,479.7,10.4,479.7z"/>
	<path class="st1" d="M676.5,513.4c0,0,9.4-36.7-21-45.5s-310.7-33.1-622.2-5.2c-13.2,1.2-31.8,10.2-33.3,49
		c-0.3,6.6,181.9,11.9,357.3,10.7C519.8,521,676.5,513.4,676.5,513.4z"/>
	<path class="st2" d="M676.5,487.3c0,0,4.2-22.9-26.2-31.7s-283.6-11.7-594.4-5.2c-13.4,0.3-42.2-2.5-48.9,29.9
		c-0.8,3.7,3.4,13.4,28.7,15.3c4.2,0.3,19.1-11.2,23.9-6c4.8-2.5,9.8-9.4,15.2,0.8c5.3-14.2,10.9-6.1,16.7,0.7
		c5.9,13.4,11.9-11.5,18.2,0.5c6.3-8.2,12.7,5.9,19.4,0.5c6.7,9.3,13.5,0.3,20.5,0.4c12.3,0.1,25.1,7.2,38.4,7.4
		c6.6,0,13.4-6.8,20.1-6.8c6.8-0.8,13.6-5,20.6,0.1c7-5,14.1,3.7,21.2,0c7.1-3.4,14.2-2.9,21.4,0c7.2-3.5,14.5-4.8,21.7,0
		c7.2-1.6,14.6-2.6,22-0.1c7.4,0,14.7-0.1,22-0.1c4.6,0,9.1-0.1,13.8-0.1c4.6-2.7,9.1-2,13.8-0.1c4.6,0.3,9.1,4.1,13.8-0.1
		c4.6,2.5,9.1-2.2,13.6-0.1c4.5-0.7,9.1,1.1,13.6-0.1c4.5,3.8,9,8.3,13.5,6.7c4.5,0,9-7.1,13.4-7.1c7.8-0.1,15.6-0.3,23.1-0.3
		c7.6,1.9,15.1,3.3,22.5-0.4c7.4-4.2,14.7,16,22-0.4c7.2,9.8,14.2,11.5,21.2-0.4c7-7.2,13.7-6.8,20.3-0.4c6.5,2.6,13.1-4.5,19.4-0.4
		c6.3-1.6,12.3,2.3,18.3-0.4c3-2.2,5.9-2,8.7-1.5s5.6,1.5,8.3,1.1c2.7,1.2,5.5,2.7,8-0.1c2.6-3.3,5.2-5.3,7.7-0.1
		c8.1-2,15.4,4.8,22.1,4.6s12.7-9.4,18-5.6c5.3-0.7,9.7-5.2,13.4-0.3c3.7-0.1,6.4-0.1,8.3-0.3C674.6,487.3,675.6,487.4,676.5,487.3z
		"/>
	<path class="st3" d="M25.7,454.7c0,0,4.1,12.4,22,13.5c28.4,1.8,294.8,7.4,584.9,1.1c12.4-0.3,22.9-2.6,24.3-11.3
		c0.3-1.5-171.5-2.3-334.8-2C170.6,456.3,25.7,454.7,25.7,454.7z"/>
	<path class="st4" d="M177,392c-81.4,0-101.8,37.8-151.3,62.7l372.2,2.3C358.8,438.4,258.3,392,177,392z"/>
	<path class="st4" d="M451.5,372.6c-108.7,0-149.8,50.4-215.7,83.7l421.2,1.8C608.4,436.4,560.2,372.6,451.5,372.6z"/>
</g>
<path class="st5" d="M261.4,55.5c-0.9,0.3-1.7,0.7-2.5,1c0.8,0.3,1.7,0.7,2.5,1V55.5z"/>
<path class="st5" d="M416.5,57.4c0.8-0.3,1.5-0.6,2.2-0.9c-0.7-0.3-1.5-0.6-2.2-0.9V57.4L416.5,57.4z"/>
<path class="st5" d="M261.4,63.5h20.2c-6.9-1.5-13.6-3.5-20.2-6V63.5z"/>
<path class="st6" d="M278.2,34.7v36.2c-5.2,3.1-10.9,5.4-16.8,6.7l-4.6-32.7l4.6-33.2C268,18.6,273.7,26.3,278.2,34.7z"/>
<path class="st6" d="M399.7,34.8V71c5.2,3.1,10.9,5.4,16.8,6.8l1.1-42.9l-1.1-23C409.9,18.7,404.2,26.4,399.7,34.8z"/>
<path class="st7" d="M441.8,33.7L441.8,33.7c-0.7-8.3-10.1-15.9-25.2-21.8v43.7l0,0C402.1,50,382.4,46,360,44.4V0.7
	C353.2,0.2,346.1,0,338.9,0S324.8,0.3,318,0.7v43.7c-22.4,1.6-42.1,5.6-56.6,11.1l0,0V11.8c-15.3,5.9-24.8,13.5-25.5,21.9l0,0
	l-21.2,317.1h248.2L441.8,33.7z"/>
<path class="st8" d="M339.7,105.2c3.1,0,6.2,0.1,9.2,0.3v-7.6c-3.4-0.3-7-0.4-10.6-0.4c-2.6,0-5.2,0.1-7.7,0.2v7.8
	C333.5,105.3,336.6,105.2,339.7,105.2z"/>
<path class="st9" d="M349.1,117.8c3.1,0,6.3,0.8,9.2,1l0.1-7.6c-3.4-0.3-7-1.1-10.7-1.2c-2.6,0-5.2,0-7.7,0.1l-0.1,7.8
	C342.9,117.8,346,117.7,349.1,117.8z"/>
<path class="st10" d="M351.9,97.4v8.7c6.2,0.5,12.4,1.8,18.3,3.8v-8.4C364.3,99.5,358.1,98.1,351.9,97.4z"/>
<path class="st8" d="M310.9,202.2v8.7c-5.5,0.6-11,1.8-16.2,3.8v-8.4C299.9,204.3,305.3,202.9,310.9,202.2z"/>
<path class="st9" d="M302.8,216.6v8.7c-5.5,0.6-11,1.8-16.2,3.8v-8.3C291.8,218.6,297.2,217.2,302.8,216.6z"/>
<path class="st10" d="M324.2,209.2c-3.1,0-6.2,0.1-9.2,0.3v-7.6c3.4-0.3,7-0.4,10.6-0.4c2.6,0,5.2,0.1,7.7,0.2v7.8
	C330.4,209.3,327.3,209.2,324.2,209.2z"/>
<path class="st8" d="M314.9,223.4c-3.1,0-6.3,0.9-9.2,1.2l-0.1-9.2c3.4-0.4,7-1.3,10.7-1.4c2.6,0,5.2,0,7.7,0.1l0.1,9.4
	C321.1,223.4,318,223.3,314.9,223.4z"/>
<path class="st9" d="M251.7,121.9v-9.1c-6.9,1.7-12.5,4.4-15.9,7.7l-0.6,9.6C238.2,126.5,244.5,123.9,251.7,121.9z"/>
<polygon class="st11" points="116.8,372.2 80.4,372.2 80.4,329.3 116.8,346.9 "/>
<polygon class="st12" points="85.8,329.3 70.1,334.2 70.1,375.3 85.8,370.5 "/>
<polygon class="st13" points="150.9,367.5 63.2,344.3 72.3,311.1 159.9,334.5 "/>
<polygon class="st14" points="150.9,367.5 63.2,344.3 67.6,328.4 154.2,359.5 "/>
<polygon class="st11" points="173.2,356.4 136.8,356.4 136.8,313.6 173.2,331.1 "/>
<polygon class="st12" points="140.4,354 140.4,313.6 113.6,321.8 113.6,361.9 "/>
<polygon class="st13" points="200.4,350.8 112.7,327.6 121.8,294.3 209.4,317.8 "/>
<polygon class="st14" points="200.4,350.8 112.7,327.6 117.1,311.7 203.7,342.7 "/>
<polygon class="st11" points="227.5,340.5 192.5,340.5 192.5,297.6 227.5,315.2 "/>
<polygon class="st12" points="195.5,339.7 195.5,297.6 168.2,306.2 168.2,348 "/>
<polygon class="st13" points="256.9,336.3 169.2,313.1 178.3,279.9 265.9,303.3 "/>
<polygon class="st14" points="256.9,336.3 169.2,313.1 173.6,297.2 260.2,328.2 "/>
<polygon class="st11" points="284.8,322.8 255.1,322.8 255.1,279.9 284.8,297.4 "/>
<polygon class="st12" points="256.9,321.9 256.9,279.9 223.4,290.2 223.4,331.9 "/>
<polygon class="st13" points="318.2,320 227.5,295.6 236.9,260.6 327.6,285.3 "/>
<polygon class="st14" points="318.2,320 227.5,295.6 232,278.9 321.6,311.6 "/>
<polygon class="st12" points="284.8,271.8 284.8,311.6 256.9,319.3 223.4,328.6 195.5,336.3 168.2,343.9 140.3,351.6 113.6,359 
	85.8,366.7 70.1,371.1 70.1,435.3 338.8,435.3 345.6,345.8 338.8,296.6 338.8,256.2 "/>
<ellipse transform="matrix(0.1239 -0.9923 0.9923 0.1239 -73.0373 473.4098)" class="st15" cx="231.6" cy="278.1" rx="18.5" ry="13.6"/>
<ellipse transform="matrix(0.1239 -0.9923 0.9923 0.1239 -72.9191 473.6143)" cx="231.8" cy="278.1" rx="14.5" ry="10.7"/>
<path class="st15" d="M186.3,298.1c-1.2,9.6-8.1,16.7-15.3,15.8s-12.1-9.4-10.9-19c1.2-9.6,8.1-16.7,15.3-15.8
	S187.5,288.4,186.3,298.1z"/>
<path d="M183.6,297.7c-1,7.6-6.4,13.1-12,12.4s-9.5-7.4-8.6-15c0.9-7.6,6.4-13.1,12-12.4S184.5,290.2,183.6,297.7z"/>
<path class="st15" d="M129.8,312.6c-1.2,9.6-8.1,16.7-15.3,15.8s-12.1-9.4-10.9-19c1.2-9.6,8.1-16.7,15.3-15.8
	C126.1,294.4,131,302.9,129.8,312.6z"/>
<path d="M127.1,312.2c-1,7.6-6.3,13.1-12,12.4s-9.5-7.4-8.6-15c0.9-7.6,6.3-13.1,12-12.4C124.2,297.9,128.1,304.7,127.1,312.2z"/>
<path class="st15" d="M80.2,329.3c-1.2,9.6-8.1,16.7-15.3,15.8s-12.1-9.4-10.9-19s8.1-16.7,15.3-15.8S81.5,319.7,80.2,329.3z"/>
<path d="M77.6,329c-1,7.6-6.3,13.1-12,12.4s-9.5-7.4-8.5-15c1-7.6,6.4-13.1,12-12.4S78.5,321.4,77.6,329z"/>
<polygon class="st16" points="560.8,372.2 593.9,372.2 593.9,329.3 560.8,346.9 "/>
<polygon class="st17" points="591.8,329.3 607.5,334 607.5,372.6 591.8,368.1 "/>
<polygon class="st13" points="526.8,367.5 614.4,344.3 605.3,311.1 517.7,334.5 "/>
<polygon class="st14" points="526.8,367.5 614.4,344.3 610.1,328.4 523.5,359.5 "/>
<polygon class="st16" points="508.4,356.4 539.5,356.4 539.5,313.6 508.4,331.1 "/>
<polygon class="st17" points="537.3,352.9 537.3,313.6 564,321.5 564,360.6 "/>
<polygon class="st13" points="477.2,350.8 564.9,327.6 555.8,294.3 468.2,317.8 "/>
<polygon class="st14" points="477.2,350.8 564.9,327.6 560.5,311.7 473.9,342.7 "/>
<polygon class="st16" points="450.1,340.5 483.9,340.5 483.9,297.6 450.1,315.2 "/>
<polygon class="st17" points="482.1,341.6 482.1,297.6 509.4,306.6 509.4,350.2 "/>
<polygon class="st13" points="420.7,336.3 508.4,313.1 499.3,279.9 411.7,303.3 "/>
<polygon class="st14" points="420.7,336.3 508.4,313.1 504,297.2 417.4,328.2 "/>
<polygon class="st16" points="388.3,322.8 426.1,322.8 426.1,279.9 388.3,297.4 "/>
<polygon class="st17" points="420.7,324.5 420.7,279.9 454.2,290.8 454.2,335 "/>
<polygon class="st13" points="359.4,320 450.1,295.6 440.7,260.6 350.1,285.3 "/>
<polygon class="st14" points="359.4,320 450.1,295.6 445.6,278.9 356,311.6 "/>
<polygon class="st17" points="591.8,366.7 564,359 537.3,351.6 509.4,343.9 482.1,336.3 454.2,328.6 420.7,319.3 392.8,311.6 
	392.8,271.8 338.8,256.2 338.8,296.6 338.8,435.3 607.5,435.3 607.5,371.1 "/>
<ellipse transform="matrix(0.9923 -0.1239 0.1239 0.9923 -31.0324 57.4027)" class="st15" cx="446" cy="278.2" rx="13.6" ry="18.5"/>
<ellipse transform="matrix(0.9923 -0.1239 0.1239 0.9923 -31.0339 57.3778)" cx="445.8" cy="278.2" rx="10.7" ry="14.5"/>
<path class="st15" d="M491.3,298.1c1.2,9.6,8.1,16.7,15.3,15.8c7.2-0.9,12.1-9.4,10.9-19c-1.2-9.6-8.1-16.7-15.3-15.8
	S490.1,288.4,491.3,298.1z"/>
<path d="M494,297.7c1,7.6,6.4,13.1,12,12.4c5.6-0.7,9.5-7.4,8.6-15c-0.9-7.6-6.3-13.1-12-12.4S493.1,290.2,494,297.7z"/>
<path class="st15" d="M547.8,312.6c1.2,9.6,8.1,16.7,15.3,15.8s12.1-9.4,10.9-19c-1.2-9.6-8.1-16.7-15.3-15.8
	S546.6,302.9,547.8,312.6z"/>
<path d="M550.5,312.2c1,7.6,6.3,13.1,12,12.4s9.5-7.4,8.5-15c-1-7.6-6.3-13.1-12-12.4S549.5,304.7,550.5,312.2z"/>
<path class="st15" d="M597.4,329.3c1.2,9.6,8.1,16.7,15.3,15.8s12.1-9.4,10.9-19s-8.1-16.7-15.3-15.8S596.1,319.7,597.4,329.3z"/>
<path d="M600,329c1,7.6,6.3,13.1,12,12.4s9.5-7.4,8.5-15c-1-7.6-6.3-13.1-12-12.4S599.1,321.4,600,329z"/>
<polygon class="st9" points="276.7,377.8 296.9,373 296.9,357.2 276.7,362.8 "/>
<polygon class="st9" points="262.7,402.3 283,397.4 283,381.7 262.7,387.3 "/>
<polygon class="st9" points="163.5,382.5 183.7,377.6 183.7,361.9 163.5,367.5 "/>
<polygon class="st9" points="149.5,407 169.8,402.1 169.8,386.4 149.5,392 "/>
<polygon class="st18" points="553.8,377.8 533.5,373 533.5,357.2 553.8,362.8 "/>
<polygon class="st9" points="567.7,402.3 547.5,397.4 547.5,381.7 567.7,387.3 "/>
<polygon class="st18" points="288.4,395.9 308.7,391 308.7,375.3 288.4,380.9 "/>
<polygon class="st9" points="384.4,342.7 364.2,337.8 364.2,322.1 384.4,327.7 "/>
<polygon class="st18" points="398.4,367.2 378.1,362.3 378.1,346.6 398.4,352.2 "/>
<polygon class="st18" points="412.8,350.5 392.6,345.6 392.6,329.9 412.8,335.5 "/>
</svg>
