<?xml version="1.0" encoding="utf-8"?>
<!-- Generator: Adobe Illustrator 19.2.1, SVG Export Plug-In . SVG Version: 6.00 Build 0)  -->
<svg version="1.1" id="Layer_9" xmlns="http://www.w3.org/2000/svg" xmlns:xlink="http://www.w3.org/1999/xlink" x="0px" y="0px"
	 viewBox="0 0 677.9 543" style="enable-background:new 0 0 677.9 543;" xml:space="preserve">
<style type="text/css">
	.st0{fill:#774610;}
	.st1{fill:#B76F18;}
	.st2{fill:#0C3A1D;}
	.st3{fill:#0F4926;}
	.st4{fill:#177742;}
	.st5{fill:#324256;}
	.st6{fill:#273442;}
	.st7{fill:#23303A;}
	.st8{fill:#5F7EA3;}
	.st9{fill:#48617A;}
	.st10{fill:#314056;}
	.st11{fill:#475D7F;}
	.st12{fill:#666666;}
	.st13{fill:#565656;}
	.st14{fill:#919191;}
	.st15{fill:#212B38;}
	.st16{fill:#3D506B;}
</style>
<title>canon-night-01</title>
<g id="Layer_2">
	<path class="st0" d="M10.4,479.7c0,0-24.4,41.9,5.3,50.6c29.8,8.7,341.5,23.5,638.2,0c13-1.1,38.5-17.5,12.3-50.6
		c-5.9-7.5-104.3-9.3-223.1-8.5c-7.9,0-16,0.1-24,0.1c-8,1.1-16.2-0.5-24.4,0.3c-8.2,0.3-16.4-1.2-24.7,0.3
		c-8.3-0.1-16.5,0.3-24.9,0.3C178.7,474.7,10.4,479.7,10.4,479.7z"/>
	<path class="st1" d="M676.5,513.4c0,0,9.4-36.7-21-45.5s-310.8-33.1-622.2-5.2C20.1,464,1.5,473,0,511.8
		c-0.3,6.6,181.8,11.9,357.3,10.7C519.8,521.1,676.5,513.4,676.5,513.4z"/>
	<path class="st2" d="M676.5,487.4c0,0,4.2-22.9-26.2-31.7s-283.6-11.7-594.4-5.2C42.5,450.8,13.7,448,7,480.4
		c-0.8,3.7,3.4,13.4,28.7,15.3c4.2,0.3,19.1-11.2,23.9-6c4.8-2.5,9.8-9.4,15.1,0.8c5.3-14.2,10.9-6.1,16.7,0.7
		c5.9,13.4,11.9-11.5,18.2,0.5c6.3-8.2,12.7,5.9,19.4,0.5c6.7,9.3,13.5,0.3,20.5,0.4c12.3,0.1,25.1,7.2,38.4,7.4
		c6.6,0,13.4-6.8,20.1-6.8c6.8-0.8,13.6-5,20.6,0.1c7-5,14.1,3.7,21.2,0c7.1-3.4,14.2-2.9,21.4,0c7.2-3.5,14.5-4.8,21.7,0
		c7.2-1.6,14.6-2.6,22-0.1c7.4,0,14.7-0.1,22-0.1c4.6,0,9.1-0.1,13.8-0.1c4.6-2.7,9.1-2,13.8-0.1c4.6,0.3,9.1,4.1,13.8-0.1
		c4.6,2.5,9.1-2.2,13.6-0.1c4.5-0.7,9.1,1.1,13.6-0.1c4.5,3.8,9,8.3,13.5,6.7c4.5,0,9-7.1,13.4-7.1c7.8-0.1,15.6-0.3,23.1-0.3
		c7.6,1.9,15.1,3.3,22.5-0.4c7.4-4.2,14.7,16,22-0.4c7.2,9.8,14.2,11.5,21.2-0.4c7-7.2,13.7-6.8,20.3-0.4c6.5,2.6,13.1-4.5,19.4-0.4
		c6.3-1.6,12.3,2.3,18.3-0.4c3-2.2,5.9-2,8.7-1.5s5.6,1.5,8.3,1.1c2.7,1.2,5.5,2.7,8-0.1c2.6-3.3,5.2-5.3,7.7-0.1
		c8.1-2,15.4,4.8,22.1,4.6s12.7-9.4,18-5.6c5.3-0.7,9.7-5.2,13.4-0.3c3.7-0.1,6.4-0.1,8.3-0.3C674.6,487.3,675.5,487.4,676.5,487.4z
		"/>
	<path class="st3" d="M25.7,454.7c0,0,4.1,12.4,22,13.5c28.4,1.8,294.8,7.4,584.9,1.1c12.4-0.3,22.9-2.6,24.3-11.3
		c0.3-1.5-171.5-2.3-334.8-2C170.5,456.4,25.7,454.7,25.7,454.7z"/>
	<path class="st4" d="M176.9,392.1c-81.4,0-101.8,37.8-151.3,62.7l372.2,2.3C358.8,438.5,258.3,392.1,176.9,392.1z"/>
	<path class="st4" d="M451.5,372.7c-108.7,0-149.8,50.4-215.7,83.7l421.2,1.8C608.4,436.4,560.2,372.7,451.5,372.7z"/>
</g>
<path class="st5" d="M261.3,55.6c-0.9,0.3-1.7,0.7-2.5,1c0.8,0.3,1.7,0.7,2.5,1V55.6z"/>
<path class="st5" d="M416.5,57.5c0.8-0.3,1.5-0.6,2.2-0.9c-0.7-0.3-1.5-0.6-2.2-0.9V57.5L416.5,57.5z"/>
<path class="st5" d="M261.3,63.6h20.2c-6.9-1.5-13.6-3.5-20.2-6V63.6z"/>
<path class="st6" d="M278.2,34.7v36.2c-5.2,3.1-10.9,5.4-16.8,6.7V11.8C268,18.6,273.6,26.3,278.2,34.7z"/>
<path class="st6" d="M399.7,34.8V71c5.2,3.1,10.9,5.4,16.8,6.8V11.9C409.9,18.7,404.2,26.5,399.7,34.8z"/>
<path class="st5" d="M441.8,33.7L441.8,33.7c-0.7-8.3-10.1-15.9-25.2-21.8v43.7l0,0c-14.5-5.6-34.2-9.6-56.6-11.2V0.7
	C353.1,0.2,346.1,0,338.8,0s-14.1,0.2-20.9,0.7v43.7c-22.4,1.6-42.1,5.6-56.6,11.1l0,0V11.8c-15.3,5.9-24.8,13.5-25.5,21.9l0,0
	l-21.2,317.1h248.2L441.8,33.7z"/>
<path class="st7" d="M339.7,105.2c3.1,0,6.2,0.1,9.2,0.3v-7.6c-3.4-0.3-7-0.4-10.6-0.4c-2.6,0-5.2,0.1-7.7,0.2v7.8
	C333.5,105.3,336.6,105.2,339.7,105.2z"/>
<path class="st8" d="M349.1,117.8c3.1,0,6.3,0.8,9.2,1l0.1-7.6c-3.4-0.3-7-1.1-10.7-1.2c-2.6,0-5.2,0-7.7,0.1l-0.1,7.8
	C342.9,117.8,345.9,117.8,349.1,117.8z"/>
<path class="st9" d="M351.8,97.5v8.7c6.2,0.5,12.4,1.8,18.3,3.8v-8.4C364.2,99.5,358.1,98.1,351.8,97.5z"/>
<path class="st7" d="M310.8,202.3v8.7c-5.5,0.6-11,1.8-16.2,3.8v-8.4C299.8,204.3,305.3,202.9,310.8,202.3z"/>
<path class="st8" d="M302.7,216.6v8.7c-5.5,0.6-11,1.8-16.2,3.8v-8.3C291.7,218.7,297.2,217.3,302.7,216.6z"/>
<path class="st9" d="M324.2,209.2c-3.1,0-6.2,0.1-9.2,0.3v-7.6c3.4-0.3,7-0.4,10.6-0.4c2.6,0,5.2,0.1,7.7,0.2v7.8
	C330.4,209.4,327.3,209.2,324.2,209.2z"/>
<path class="st7" d="M314.8,223.4c-3.1,0-6.2,0.9-9.2,1.2l-0.1-9.2c3.4-0.4,7-1.3,10.7-1.4c2.6,0,5.2,0,7.7,0.1l0.1,9.4
	C321,223.4,318,223.4,314.8,223.4z"/>
<path class="st8" d="M251.7,121.9v-9.1c-6.9,1.7-12.5,4.4-15.9,7.7l-0.6,9.6C238.2,126.5,244.5,123.9,251.7,121.9z"/>
<polygon class="st10" points="113.6,372.2 85.7,372.2 85.7,329.4 113.6,346.9 "/>
<polygon class="st11" points="85.7,329.4 70.1,333.9 70.1,371.1 85.7,366.8 "/>
<polygon class="st12" points="150.8,367.6 63.2,344.4 72.3,311.1 159.9,334.6 "/>
<polygon class="st13" points="150.8,367.6 63.2,344.4 67.5,328.5 154.1,359.5 "/>
<polygon class="st10" points="168.2,356.5 140.3,356.5 140.3,313.6 168.2,331.1 "/>
<polygon class="st11" points="140.3,351.6 140.3,313.6 113.6,321.3 113.6,359.1 "/>
<polygon class="st12" points="200.4,350.8 112.7,327.6 121.8,294.4 209.4,317.8 "/>
<polygon class="st13" points="200.4,350.8 112.7,327.6 117.1,311.7 203.7,342.7 "/>
<polygon class="st10" points="223.3,340.6 195.5,340.6 195.5,297.6 223.3,315.2 "/>
<polygon class="st11" points="195.5,336.4 195.5,297.6 168.2,305.5 168.2,343.9 "/>
<polygon class="st12" points="256.8,336.3 169.2,313.1 178.3,279.9 265.9,303.3 "/>
<polygon class="st13" points="256.8,336.3 169.2,313.1 173.5,297.2 260.1,328.3 "/>
<polygon class="st10" points="284.7,322.8 256.9,322.8 256.9,279.9 284.7,297.5 "/>
<polygon class="st11" points="256.9,319.3 256.9,279.9 223.3,289.6 223.3,328.6 "/>
<polygon class="st12" points="318.2,320.1 227.5,295.7 236.9,260.7 327.5,285.3 "/>
<polygon class="st13" points="318.2,320.1 227.5,295.7 232,278.9 321.6,311.6 "/>
<polygon class="st11" points="284.7,271.9 284.7,311.6 338.8,296.6 338.8,256.3 "/>
<polygon class="st11" points="284.7,345.8 256.9,345.8 256.9,319.3 223.3,328.6 223.3,362.6 195.5,362.6 195.5,336.4 168.2,343.9 
	168.2,372.2 140.3,372.2 140.3,351.6 113.6,359.1 113.6,377.9 85.7,377.9 85.7,366.8 70.1,371.1 70.1,435.4 338.8,435.4 
	338.8,296.6 284.7,311.6 "/>
<polygon class="st11" points="85.7,377.9 113.6,377.9 113.6,359.1 85.7,366.8 "/>
<polygon class="st11" points="140.3,372.2 168.2,372.2 168.2,343.9 140.3,351.6 "/>
<polygon class="st11" points="195.5,362.6 223.3,362.6 223.3,328.6 195.5,336.4 "/>
<polygon class="st11" points="256.9,345.8 284.7,345.8 284.7,311.6 256.9,319.3 "/>
<ellipse transform="matrix(0.1239 -0.9923 0.9923 0.1239 -73.1033 473.4113)" class="st14" cx="231.6" cy="278.1" rx="18.5" ry="13.6"/>
<ellipse transform="matrix(0.1239 -0.9923 0.9923 0.1239 -73.0148 473.5359)" cx="231.7" cy="278.1" rx="14.5" ry="10.7"/>
<path class="st14" d="M186.3,298.1c-1.2,9.6-8.1,16.7-15.3,15.8s-12.1-9.4-10.9-19s8.1-16.7,15.3-15.8S187.5,288.5,186.3,298.1z"/>
<path d="M183.5,297.8c-1,7.6-6.4,13.1-12,12.4s-9.5-7.4-8.6-15s6.4-13.1,12-12.4S184.5,290.2,183.5,297.8z"/>
<path class="st14" d="M129.8,312.6c-1.2,9.6-8.1,16.7-15.3,15.8s-12.1-9.4-10.9-19s8.1-16.7,15.3-15.8
	C126.1,294.5,131,303,129.8,312.6z"/>
<path d="M127.1,312.2c-1,7.6-6.3,13.1-12,12.4s-9.5-7.4-8.6-15s6.3-13.1,12-12.4C124.2,297.9,128,304.7,127.1,312.2z"/>
<path class="st14" d="M80.2,329.4c-1.2,9.6-8.1,16.7-15.3,15.8s-12.1-9.4-10.9-19s8.1-16.7,15.3-15.8S81.4,319.7,80.2,329.4z"/>
<path d="M77.5,329c-1,7.6-6.3,13.1-12,12.4s-9.5-7.4-8.5-15s6.4-13.1,12-12.4S78.5,321.5,77.5,329z"/>
<polygon class="st15" points="563.9,372.2 591.8,372.2 591.8,329.4 563.9,346.9 "/>
<polygon class="st16" points="591.8,329.4 607.4,333.9 607.4,371.1 591.8,366.8 "/>
<polygon class="st12" points="526.7,367.6 614.4,344.4 605.3,311.1 517.7,334.6 "/>
<polygon class="st13" points="526.7,367.6 614.4,344.4 610,328.5 523.4,359.5 "/>
<polygon class="st15" points="509.4,356.5 537.2,356.5 537.2,313.6 509.4,331.1 "/>
<polygon class="st16" points="537.2,351.6 537.2,313.6 563.9,321.3 563.9,359.1 "/>
<polygon class="st12" points="477.2,350.8 564.8,327.6 555.7,294.4 468.1,317.8 "/>
<polygon class="st13" points="477.2,350.8 564.8,327.6 560.5,311.7 473.9,342.7 "/>
<polygon class="st15" points="454.2,340.6 482.1,340.6 482.1,297.6 454.2,315.2 "/>
<polygon class="st16" points="482.1,336.4 482.1,297.6 509.4,305.5 509.4,343.9 "/>
<polygon class="st12" points="420.7,336.3 508.4,313.1 499.2,279.9 411.6,303.3 "/>
<polygon class="st13" points="420.7,336.3 508.4,313.1 504,297.2 417.4,328.3 "/>
<polygon class="st15" points="392.8,322.8 420.6,322.8 420.6,279.9 392.8,297.5 "/>
<polygon class="st16" points="420.6,319.3 420.6,279.9 454.2,289.6 454.2,328.6 "/>
<polygon class="st12" points="359.4,320.1 450.1,295.7 440.6,260.7 350,285.3 "/>
<polygon class="st13" points="359.4,320.1 450.1,295.7 445.5,278.9 356,311.6 "/>
<polygon class="st16" points="392.8,271.9 392.8,311.6 338.8,296.6 338.8,256.3 "/>
<polygon class="st16" points="392.8,345.8 420.6,345.8 420.6,319.3 454.2,328.6 454.2,362.6 482.1,362.6 482.1,336.4 509.4,343.9 
	509.4,372.2 537.2,372.2 537.2,351.6 563.9,359.1 563.9,377.9 591.8,377.9 591.8,366.8 607.4,371.1 607.4,435.4 338.8,435.4 
	338.8,296.6 392.8,311.6 "/>
<polygon class="st16" points="591.8,377.9 563.9,377.9 563.9,359.1 591.8,366.8 "/>
<polygon class="st16" points="537.2,372.2 509.4,372.2 509.4,343.9 537.2,351.6 "/>
<polygon class="st16" points="482.1,362.6 454.2,362.6 454.2,328.6 482.1,336.4 "/>
<polygon class="st16" points="420.6,345.8 392.8,345.8 392.8,311.6 420.6,319.3 "/>
<ellipse transform="matrix(0.9923 -0.1239 0.1239 0.9923 -31.0433 57.416)" class="st14" cx="445.9" cy="278.2" rx="13.6" ry="18.5"/>
<ellipse transform="matrix(0.9923 -0.1239 0.1239 0.9923 -31.0449 57.4002)" cx="445.8" cy="278.2" rx="10.7" ry="14.5"/>
<path class="st14" d="M491.3,298.1c1.2,9.6,8.1,16.7,15.3,15.8c7.2-0.9,12.1-9.4,10.9-19s-8.1-16.7-15.3-15.8
	S490.1,288.5,491.3,298.1z"/>
<path d="M494,297.8c1,7.6,6.4,13.1,12,12.4s9.5-7.4,8.6-15s-6.3-13.1-12-12.4S493,290.2,494,297.8z"/>
<path class="st14" d="M547.8,312.6c1.2,9.6,8.1,16.7,15.3,15.8s12.1-9.4,10.9-19s-8.1-16.7-15.3-15.8S546.6,303,547.8,312.6z"/>
<path d="M550.5,312.2c1,7.6,6.3,13.1,12,12.4s9.5-7.4,8.5-15s-6.3-13.1-12-12.4S549.5,304.7,550.5,312.2z"/>
<path class="st14" d="M597.3,329.4c1.2,9.6,8.1,16.7,15.3,15.8s12.1-9.4,10.9-19s-8.1-16.7-15.3-15.8S596.1,319.7,597.3,329.4z"/>
<path d="M600,329c1,7.6,6.3,13.1,12,12.4s9.5-7.4,8.5-15s-6.3-13.1-12-12.4S599,321.5,600,329z"/>
<polygon class="st8" points="276.6,377.9 296.9,373 296.9,357.3 276.6,362.9 "/>
<polygon class="st8" points="262.7,402.4 283,397.5 283,381.8 262.7,387.4 "/>
<polygon class="st8" points="163.4,382.5 183.7,377.6 183.7,361.9 163.4,367.5 "/>
<polygon class="st8" points="149.5,407 169.8,402.1 169.8,386.4 149.5,392 "/>
<polygon class="st5" points="553.7,377.9 533.5,373 533.5,357.3 553.7,362.9 "/>
<polygon class="st8" points="567.7,402.4 547.4,397.5 547.4,381.8 567.7,387.4 "/>
<polygon class="st5" points="288.4,396 308.6,391.1 308.6,375.4 288.4,381 "/>
<polygon class="st8" points="384.4,342.8 364.1,337.9 364.1,322.2 384.4,327.8 "/>
<polygon class="st5" points="398.3,367.2 378.1,362.4 378.1,346.6 398.3,352.3 "/>
<polygon class="st5" points="412.8,350.6 392.5,345.7 392.5,329.9 412.8,335.6 "/>
</svg>
