<?xml version="1.0" encoding="utf-8"?>
<!-- Generator: Adobe Illustrator 19.2.1, SVG Export Plug-In . SVG Version: 6.00 Build 0)  -->
<svg version="1.1" id="Layer_9" xmlns="http://www.w3.org/2000/svg" xmlns:xlink="http://www.w3.org/1999/xlink" x="0px" y="0px"
	 viewBox="0 0 677.9 542.9" style="enable-background:new 0 0 677.9 542.9;" xml:space="preserve">
<style type="text/css">
	.st0{fill:#774610;}
	.st1{fill:#B76F18;}
	.st2{fill:#0C3A1D;}
	.st3{fill:#0F4926;}
	.st4{fill:#177742;}
	.st5{fill:#324256;}
	.st6{fill:#273442;}
	.st7{fill:#23303A;}
	.st8{fill:#5F7EA3;}
	.st9{fill:#48617A;}
	.st10{fill:#314056;}
	.st11{fill:#475D7F;}
	.st12{fill:#666666;}
	.st13{fill:#565656;}
	.st14{fill:#919191;}
	.st15{fill:#212B38;}
	.st16{fill:#3D506B;}
</style>
<title>canon-night-01</title>
<g id="Layer_2">
	<path class="st0" d="M10.4,479.5c0,0-24.4,41.9,5.3,50.7s341.5,23.5,638.3,0c13-1.1,38.5-17.5,12.3-50.7
		c-5.9-7.5-104.3-9.3-223.1-8.5c-7.9,0-16,0.1-24,0.1c-8,1.1-16.3-0.5-24.4,0.3c-8.2,0.3-16.4-1.2-24.7,0.3
		c-8.3-0.1-16.5,0.3-24.9,0.3C178.7,474.4,10.4,479.5,10.4,479.5z"/>
	<path class="st1" d="M676.5,513.2c0,0,9.4-36.7-21-45.5s-310.7-33.1-622.2-5.2c-13.2,1.2-31.8,10.2-33.3,49
		c-0.3,6.6,181.9,11.9,357.3,10.7C519.8,520.8,676.5,513.2,676.5,513.2z"/>
	<path class="st2" d="M676.5,487.1c0,0,4.2-22.9-26.2-31.7s-283.6-11.7-594.4-5.2c-13.4,0.3-42.2-2.5-48.9,29.9
		c-0.8,3.7,3.4,13.4,28.7,15.3c4.2,0.3,19.1-11.2,23.9-6c4.8-2.5,9.8-9.4,15.2,0.8c5.3-14.2,10.9-6.1,16.7,0.7
		c5.9,13.4,11.9-11.5,18.2,0.5c6.3-8.2,12.7,5.9,19.4,0.5c6.7,9.3,13.5,0.3,20.5,0.4c12.3,0.1,25.1,7.2,38.4,7.4
		c6.6,0,13.4-6.8,20.1-6.8c6.8-0.8,13.6-5,20.6,0.1c7-5,14.1,3.7,21.2,0c7.1-3.4,14.2-2.9,21.4,0c7.2-3.5,14.5-4.8,21.7,0
		c7.2-1.6,14.6-2.6,22-0.1c7.4,0,14.7-0.1,22-0.1c4.6,0,9.1-0.1,13.8-0.1c4.6-2.7,9.1-2,13.8-0.1c4.6,0.3,9.1,4.1,13.8-0.1
		c4.6,2.5,9.1-2.2,13.6-0.1c4.5-0.7,9.1,1.1,13.6-0.1c4.5,3.8,9,8.3,13.5,6.7c4.5,0,9-7.1,13.4-7.1c7.8-0.1,15.6-0.3,23.1-0.3
		c7.6,1.9,15.1,3.3,22.5-0.4c7.4-4.2,14.7,16,22-0.4c7.2,9.8,14.2,11.5,21.2-0.4c7-7.2,13.7-6.8,20.3-0.4c6.5,2.6,13.1-4.5,19.4-0.4
		c6.3-1.6,12.3,2.3,18.3-0.4c3-2.2,5.9-2,8.7-1.5s5.6,1.5,8.3,1.1c2.7,1.2,5.5,2.7,8-0.1c2.6-3.3,5.2-5.3,7.7-0.1
		c8.1-2,15.4,4.8,22.1,4.6s12.7-9.4,18-5.6c5.3-0.7,9.7-5.2,13.4-0.3c3.7-0.1,6.4-0.1,8.3-0.3C674.6,487.1,675.6,487.2,676.5,487.1z
		"/>
	<path class="st3" d="M25.7,454.5c0,0,4.1,12.4,22,13.5c28.4,1.8,294.8,7.4,584.9,1.1c12.4-0.3,22.9-2.6,24.3-11.3
		c0.3-1.5-171.5-2.3-334.8-2C170.6,456.1,25.7,454.5,25.7,454.5z"/>
	<path class="st4" d="M177,391.8c-81.4,0-101.8,37.8-151.3,62.7l372.2,2.3C358.8,438.2,258.3,391.8,177,391.8z"/>
	<path class="st4" d="M451.5,372.4c-108.7,0-149.8,50.4-215.7,83.7l421.2,1.8C608.4,436.2,560.2,372.4,451.5,372.4z"/>
</g>
<path class="st5" d="M261.4,55.3c-0.9,0.3-1.7,0.7-2.5,1c0.8,0.3,1.7,0.7,2.5,1V55.3z"/>
<path class="st5" d="M416.5,57.2c0.8-0.3,1.5-0.6,2.2-0.9c-0.7-0.3-1.5-0.6-2.2-0.9V57.2L416.5,57.2z"/>
<path class="st5" d="M261.4,63.3h20.2c-6.9-1.5-13.6-3.5-20.2-6V63.3z"/>
<path class="st6" d="M278.2,34.5v36.2c-5.2,3.1-10.9,5.4-16.8,6.7l-4.6-32.9l4.6-32.9C268,18.4,273.7,26.1,278.2,34.5z"/>
<path class="st6" d="M399.7,34.6v36.2c5.2,3.1,10.9,5.4,16.8,6.8l2.2-39.3l-2.2-26.6C409.9,18.5,404.2,26.2,399.7,34.6z"/>
<path class="st5" d="M441.8,33.5L441.8,33.5c-0.7-8.3-10.1-15.9-25.2-21.8v43.7l0,0c-14.5-5.6-34.2-9.6-56.6-11.2V0.5
	c-6.8-0.5-13.9-0.7-21.1-0.7S324.8,0.1,318,0.5v43.7c-22.4,1.6-42.1,5.6-56.6,11.1l0,0V11.6c-15.3,5.9-24.8,13.5-25.5,21.9l0,0
	l-21.2,317.1h248.2L441.8,33.5z"/>
<path class="st7" d="M339.7,105c3.1,0,6.2,0.1,9.2,0.3v-7.6c-3.4-0.3-7-0.4-10.6-0.4c-2.6,0-5.2,0.1-7.7,0.2v7.8
	C333.5,105.1,336.6,105,339.7,105z"/>
<path class="st8" d="M349.1,117.6c3.1,0,6.3,0.8,9.2,1l0.1-7.6c-3.4-0.3-7-1.1-10.7-1.2c-2.6,0-5.2,0-7.7,0.1l-0.1,7.8
	C342.9,117.6,346,117.5,349.1,117.6z"/>
<path class="st9" d="M351.9,97.2v8.7c6.2,0.5,12.4,1.8,18.3,3.8v-8.4C364.3,99.3,358.1,97.9,351.9,97.2z"/>
<path class="st7" d="M310.9,202v8.7c-5.5,0.6-11,1.8-16.2,3.8v-8.4C299.9,204.1,305.3,202.7,310.9,202z"/>
<path class="st8" d="M302.8,216.4v8.7c-5.5,0.6-11,1.8-16.2,3.8v-8.3C291.8,218.4,297.2,217,302.8,216.4z"/>
<path class="st9" d="M324.2,209c-3.1,0-6.2,0.1-9.2,0.3v-7.6c3.4-0.3,7-0.4,10.6-0.4c2.6,0,5.2,0.1,7.7,0.2v7.8
	C330.4,209.1,327.3,209,324.2,209z"/>
<path class="st7" d="M314.9,223.2c-3.1,0-6.3,0.9-9.2,1.2l-0.1-9.2c3.4-0.4,7-1.3,10.7-1.4c2.6,0,5.2,0,7.7,0.1l0.1,9.4
	C321.1,223.2,318,223.1,314.9,223.2z"/>
<path class="st8" d="M251.7,121.7v-9.1c-6.9,1.7-12.5,4.4-15.9,7.7l-0.6,9.6C238.2,126.3,244.5,123.7,251.7,121.7z"/>
<polygon class="st10" points="115,372 83.3,372 83.3,329.1 115,346.7 "/>
<polygon class="st11" points="85.8,329.1 70.1,333.8 70.1,372.4 85.8,367.9 "/>
<polygon class="st12" points="150.9,367.3 63.2,344.1 72.3,310.9 159.9,334.3 "/>
<polygon class="st13" points="150.9,367.3 63.2,344.1 67.6,328.2 154.2,359.3 "/>
<polygon class="st10" points="169.8,356.2 138.3,356.2 138.3,313.4 169.8,330.9 "/>
<polygon class="st11" points="140.4,352.6 140.4,313.4 113.6,321.3 113.6,360.3 "/>
<polygon class="st12" points="200.4,350.6 112.7,327.4 121.8,294.1 209.4,317.6 "/>
<polygon class="st13" points="200.4,350.6 112.7,327.4 117.1,311.5 203.7,342.5 "/>
<polygon class="st10" points="225.3,340.3 193.3,340.3 193.3,297.4 225.3,315 "/>
<polygon class="st11" points="195.5,337.2 195.5,297.4 168.2,305.5 168.2,345 "/>
<polygon class="st12" points="256.9,336.1 169.2,312.9 178.3,279.7 265.9,303.1 "/>
<polygon class="st13" points="256.9,336.1 169.2,312.9 173.6,297 260.2,328 "/>
<polygon class="st10" points="286.8,322.6 255.1,322.6 255.1,279.7 286.8,297.2 "/>
<polygon class="st11" points="256.9,321.2 256.9,279.7 223.4,289.9 223.4,331 "/>
<polygon class="st12" points="318.2,319.8 227.5,295.4 236.9,260.4 327.6,285.1 "/>
<polygon class="st13" points="318.2,319.8 227.5,295.4 232,278.7 321.6,311.4 "/>
<polygon class="st11" points="284.8,271.6 284.8,311.4 256.9,319.1 223.4,328.4 195.5,336.1 168.2,343.7 140.3,351.4 113.6,358.8 
	85.8,366.5 70.1,370.9 70.1,435.1 338.8,435.1 341.8,354.9 338.8,296.4 338.8,256 "/>
<ellipse transform="matrix(0.1239 -0.9923 0.9923 0.1239 -72.8113 473.2103)" class="st14" cx="231.6" cy="277.8" rx="18.5" ry="13.6"/>
<ellipse transform="matrix(0.1239 -0.9923 0.9923 0.1239 -72.6932 473.4149)" cx="231.8" cy="277.9" rx="14.5" ry="10.7"/>
<path class="st14" d="M186.3,297.9c-1.2,9.6-8.1,16.7-15.3,15.8s-12.1-9.4-10.9-19s8.1-16.7,15.3-15.8S187.5,288.2,186.3,297.9z"/>
<path d="M183.6,297.5c-1,7.6-6.4,13.1-12,12.4s-9.5-7.4-8.6-15s6.4-13.1,12-12.4S184.5,290,183.6,297.5z"/>
<path class="st14" d="M129.8,312.4c-1.2,9.6-8.1,16.7-15.3,15.8s-12.1-9.4-10.9-19s8.1-16.7,15.3-15.8
	C126.1,294.2,131,302.7,129.8,312.4z"/>
<path d="M127.1,312c-1,7.6-6.3,13.1-12,12.4s-9.5-7.4-8.6-15s6.3-13.1,12-12.4C124.2,297.7,128.1,304.5,127.1,312z"/>
<path class="st14" d="M80.2,329.1c-1.2,9.6-8.1,16.7-15.3,15.8s-12.1-9.4-10.9-19s8.1-16.7,15.3-15.8S81.5,319.5,80.2,329.1z"/>
<path d="M77.6,328.8c-1,7.6-6.3,13.1-12,12.4s-9.5-7.4-8.5-15s6.4-13.1,12-12.4S78.5,321.2,77.6,328.8z"/>
<polygon class="st15" points="562.3,372 597.2,372 597.2,329.1 562.3,346.7 "/>
<polygon class="st16" points="591.8,329.1 607.5,333.8 607.5,372.4 591.8,367.9 "/>
<polygon class="st12" points="526.8,367.3 614.4,344.1 605.3,310.9 517.7,334.3 "/>
<polygon class="st13" points="526.8,367.3 614.4,344.1 610.1,328.2 523.5,359.3 "/>
<polygon class="st15" points="506.3,356.2 540.1,356.2 540.1,313.4 506.3,330.9 "/>
<polygon class="st16" points="537.3,353.3 537.3,313.4 564,321.4 564,361 "/>
<polygon class="st12" points="477.2,350.6 564.9,327.4 555.8,294.1 468.2,317.6 "/>
<polygon class="st13" points="477.2,350.6 564.9,327.4 560.5,311.5 473.9,342.5 "/>
<polygon class="st15" points="452.6,340.3 483.6,340.3 483.6,297.4 452.6,315 "/>
<polygon class="st16" points="482.1,337.8 482.1,297.4 509.4,305.6 509.4,345.7 "/>
<polygon class="st12" points="420.7,336.1 508.4,312.9 499.3,279.7 411.7,303.1 "/>
<polygon class="st13" points="420.7,336.1 508.4,312.9 504,297 417.4,328 "/>
<polygon class="st15" points="390.3,322.6 423.3,322.6 423.3,279.7 390.3,297.2 "/>
<polygon class="st16" points="420.7,321.2 420.7,279.7 454.2,289.9 454.2,331 "/>
<polygon class="st12" points="359.4,319.8 450.1,295.4 440.7,260.4 350.1,285.1 "/>
<polygon class="st13" points="359.4,319.8 450.1,295.4 445.6,278.7 356,311.4 "/>
<polygon class="st16" points="591.8,366.5 564,358.8 537.3,351.4 509.4,343.7 482.1,336.1 454.2,328.4 420.7,319.1 392.8,311.4 
	392.8,271.6 338.8,256 338.8,296.4 338.8,435.1 607.5,435.1 607.5,370.9 "/>
<ellipse transform="matrix(0.9923 -0.1239 0.1239 0.9923 -31.0042 57.401)" class="st14" cx="446" cy="278" rx="13.6" ry="18.5"/>
<ellipse transform="matrix(0.9923 -0.1239 0.1239 0.9923 -31.0057 57.3761)" cx="445.8" cy="278" rx="10.7" ry="14.5"/>
<path class="st14" d="M491.3,297.9c1.2,9.6,8.1,16.7,15.3,15.8c7.2-0.9,12.1-9.4,10.9-19s-8.1-16.7-15.3-15.8
	S490.1,288.2,491.3,297.9z"/>
<path d="M494,297.5c1,7.6,6.4,13.1,12,12.4c5.6-0.7,9.5-7.4,8.6-15s-6.3-13.1-12-12.4S493.1,290,494,297.5z"/>
<path class="st14" d="M547.8,312.4c1.2,9.6,8.1,16.7,15.3,15.8s12.1-9.4,10.9-19s-8.1-16.7-15.3-15.8S546.6,302.7,547.8,312.4z"/>
<path d="M550.5,312c1,7.6,6.3,13.1,12,12.4s9.5-7.4,8.5-15s-6.3-13.1-12-12.4S549.5,304.5,550.5,312z"/>
<path class="st14" d="M597.4,329.1c1.2,9.6,8.1,16.7,15.3,15.8s12.1-9.4,10.9-19s-8.1-16.7-15.3-15.8S596.1,319.5,597.4,329.1z"/>
<path d="M600,328.8c1,7.6,6.3,13.1,12,12.4s9.5-7.4,8.5-15s-6.3-13.1-12-12.4S599.1,321.2,600,328.8z"/>
<polygon class="st8" points="276.7,377.6 296.9,372.8 296.9,357 276.7,362.6 "/>
<polygon class="st8" points="262.7,402.1 283,397.2 283,381.5 262.7,387.1 "/>
<polygon class="st8" points="163.5,382.3 183.7,377.4 183.7,361.7 163.5,367.3 "/>
<polygon class="st8" points="149.5,406.8 169.8,401.9 169.8,386.2 149.5,391.8 "/>
<polygon class="st5" points="553.8,377.6 533.5,372.8 533.5,357 553.8,362.6 "/>
<polygon class="st8" points="567.7,402.1 547.5,397.2 547.5,381.5 567.7,387.1 "/>
<polygon class="st5" points="288.4,395.7 308.7,390.8 308.7,375.1 288.4,380.7 "/>
<polygon class="st8" points="384.4,342.5 364.2,337.6 364.2,321.9 384.4,327.5 "/>
<polygon class="st5" points="398.4,367 378.1,362.1 378.1,346.4 398.4,352 "/>
<polygon class="st5" points="412.8,350.3 392.6,345.4 392.6,329.7 412.8,335.3 "/>
</svg>
