<?xml version="1.0" encoding="utf-8"?>
<!-- Generator: Adobe Illustrator 16.0.0, SVG Export Plug-In . SVG Version: 6.00 Build 0)  -->
<!DOCTYPE svg PUBLIC "-//W3C//DTD SVG 1.1//EN" "http://www.w3.org/Graphics/SVG/1.1/DTD/svg11.dtd">
<svg version="1.1" xmlns="http://www.w3.org/2000/svg" xmlns:xlink="http://www.w3.org/1999/xlink" x="0px" y="0px"
	 width="796.165px" height="697.503px" viewBox="0 0 796.165 697.503" enable-background="new 0 0 796.165 697.503"
	 xml:space="preserve">
<g id="Layer_2">
	<g>
		<path fill="#473318" d="M18.936,631.56l759.41-3.178c0,0,20.489,10.967,17.526,46.1L1,679.81
			C1,679.81-2.436,651.634,18.936,631.56z"/>
		<path fill="#3F2E19" d="M1.345,667.137l794.876,4.862c0,0-1.673,17.388-11.18,25.481H12.465
			C12.465,697.48-2.983,689.116,1.345,667.137z"/>
		<path fill="#1F2815" d="M17.588,630.134L777.3,626.65l10.437,10.607c0,0-18.908,32.621-60.729,0c0,0,10.246,12.547,4.182,18.819
			c0,0-17.355,11.919-15.056-18.819c0,0-1.254,27.184-17.564,24.047c0,0-14.429-8.363,9.828-25.302c0,0-28.647,29.484-74.86,16.52
			c-46.212-12.965-100.371,6.273-100.371,6.273s-95.143,28.229-194.622-12.772c0,0,7.89,27.363-5.911,22.601
			c0,0-8.364-1.673-9.2-23.838c0,0-8.783,35.13-25.511,24.256c-16.729-10.873,6.273-27.184,6.273-27.184s-55.204-9.619-67.75,0.836
			c-12.546,10.456-73.396,28.436-126.718,3.555c0,0-28.857-11.5-60.432,3.77c-28.083,13.582-43.46,0.349-43.46,0.349
			C8.624,644.232,11.18,637.097,17.588,630.134z"/>
		<g>
			<path fill="#1F2815" d="M10.258,640.907c0,0,30.382-89.79,389.875-83.946V637.1"/>
			<path fill="#1F2815" d="M787.736,637.316c0,0-31.4-85.981-390.894-80.139v80.139"/>
		</g>
		<path opacity="0.7" fill="#171E0E" d="M244.204,561.166c0,0-90.354,5.156-161.032,30.644
			c189.623,32.719,406.747,32.028,648.987,5.295c0,0-81.098-32.602-176.094-35.938c-93.053-3.269,0,0,0,0H244.204"/>
	</g>
</g>
<g id="shadow">
	<path opacity="0.7" fill="#111007" d="M143.44,607.612L5.834,650.347c0,0-16.806,29.463,6.631,47.156h180.729l453.828-91.93
		L143.44,607.612z"/>
	<g id="Layer_1">
		<g>
			<g>
				<g>
					<polygon fill="#050500" points="472.33,259.011 345.036,316.871 162.453,395.304 158.553,438.843 156.138,465.802 
						151.467,517.976 143.166,610.68 651.061,605.532 644.63,451.88 554.624,333.585 537.908,345.158 					"/>
					<polygon fill="#050500" points="357.92,266.262 336.174,256.43 310.803,127.854 287.185,256.693 271.724,266.262 
						271.724,360.587 357.92,360.587 351.214,277.264 					"/>
					<polygon fill="#050500" points="238.506,339.812 223.49,333.021 206.813,244.221 189.654,333.205 178.977,339.812 
						178.977,404.959 238.506,404.959 233.877,347.41 					"/>
					<polygon fill="#050500" points="634.71,369.85 620.19,362.041 604.076,272.624 586.424,359.9 575.318,365.76 570.842,430.754 
						630.229,434.842 629.564,377.112 					"/>
					<polygon fill="#050500" points="473.87,181.249 441.203,12.794 441.203,9.136 440.845,10.968 440.492,9.136 440.492,12.794 
						407.829,181.249 386.183,194.089 386.183,320.728 440.492,320.728 441.203,320.728 495.516,320.728 495.516,194.089 					"/>
				</g>
				<g>
					<polygon fill="#050500" points="458.867,14.583 446.753,14.583 446.753,2.168 434.942,2.168 434.942,14.583 422.824,14.583 
						422.824,28.325 434.942,28.325 434.942,56.533 446.753,56.533 446.753,28.325 458.867,28.325 					"/>
					<polygon fill="#050500" points="325.292,133.17 316.267,133.17 316.267,122.292 306.017,122.292 306.017,133.17 
						297.632,133.17 297.632,143.545 306.017,143.545 306.017,166.53 316.267,166.53 316.267,143.545 325.292,143.545 					"/>
					<polygon fill="#050500" points="218.744,242.894 210.547,242.894 210.547,234.551 203.455,234.551 203.455,242.894 
						194.17,242.894 194.17,249.984 203.455,249.984 203.455,275.544 210.547,275.544 210.547,249.984 218.744,249.984 					"/>
					<polygon fill="#050500" points="599.656,301.84 608.493,301.84 608.493,278.937 615.889,278.937 615.889,272.428 
						608.493,272.428 608.493,262.867 599.656,262.867 599.656,272.428 592.262,272.428 592.262,278.937 599.656,278.937 					"/>
				</g>
			</g>
			<g>
				<path fill="#A55219" d="M439.099,142v-13.888c-6.671,1.232-11.762,6.937-12.062,13.888H439.099z"/>
				<path fill="#A55219" d="M427.128,144.41c0.772,6.434,5.665,11.596,11.971,12.759V144.41H427.128z"/>
				<path fill="#A55219" d="M456.552,142c-0.322-7.478-6.187-13.51-13.596-14.086V142H456.552z"/>
				<path fill="#A55219" d="M442.956,144.41v12.958c7.032-0.546,12.677-6.009,13.509-12.958H442.956z"/>
				<path fill="#A55219" d="M316.749,230.26c2.962-0.844,5.144-3.538,5.144-6.773c0-3.231-2.182-5.929-5.144-6.773V230.26z"/>
				<path fill="#A55219" d="M313.857,216.511c-3.448,0.475-6.109,3.401-6.109,6.976c0,3.578,2.662,6.502,6.109,6.978V216.511z"/>
				<path fill="#A55219" d="M205.242,307.566c-2.125,1.213-3.573,3.465-3.573,6.087c0,2.625,1.448,4.878,3.573,6.088V307.566z"/>
				<path fill="#A55219" d="M210.547,306.851v13.606c3.025-0.799,5.269-3.521,5.269-6.803
					C215.816,310.376,213.572,307.653,210.547,306.851z"/>
				<path fill="#A55219" d="M613.177,346.57c0,3.905-3.168,7.069-7.074,7.069c-3.907,0-7.076-3.164-7.076-7.069
					c0-3.907,3.169-7.075,7.076-7.075C610.009,339.496,613.177,342.664,613.177,346.57z"/>
				<g>
					<path fill="#A55219" d="M438.957,223.966c-13.548,3.692-23.899,23.697-23.899,47.824c0,0.219,0.009,0.434,0.009,0.648h23.89
						V223.966z"/>
					<path fill="#A55219" d="M446.71,223.668v48.771h25.181c0.004-0.214,0.012-0.43,0.012-0.648
						C471.902,246.902,460.885,226.403,446.71,223.668z"/>
				</g>
				<g>
					<path fill="#A55219" d="M312.794,302.851c-6.075,1.657-10.718,10.63-10.718,21.448c0,0.099,0.003,0.192,0.003,0.291h10.715
						V302.851z"/>
					<path fill="#A55219" d="M316.269,302.718v21.871h11.291c0.003-0.099,0.007-0.192,0.007-0.291
						C327.567,313.138,322.625,303.946,316.269,302.718z"/>
				</g>
				<g>
					<path fill="#A55219" d="M207.508,349.783c-6.075,1.657-10.718,10.631-10.718,21.449c0,0.098,0.003,0.192,0.005,0.29h10.713
						V349.783z"/>
					<path fill="#A55219" d="M210.984,349.651v21.871h11.291c0.001-0.098,0.005-0.192,0.005-0.29
						C222.28,360.07,217.341,350.879,210.984,349.651z"/>
				</g>
				<g>
					<path fill="#A55219" d="M604.076,383.22c-6.075,1.656-10.718,10.631-10.718,21.449c0,0.098,0.002,0.191,0.002,0.29h10.716
						V383.22z"/>
					<path fill="#A55219" d="M607.553,383.088v21.871h11.29c0-0.099,0.005-0.192,0.005-0.29
						C618.848,393.507,613.906,384.316,607.553,383.088z"/>
				</g>
				<g>
					<path fill="#A55219" d="M204.225,445.45v-33.406h-1.075c-10.679,0-19.337,8.657-19.337,19.336v14.07H204.225z"/>
					<rect x="183.813" y="458.308" fill="#A55219" width="20.412" height="25.717"/>
					<path fill="#A55219" d="M235.254,445.45v-14.07c0-10.679-8.656-19.336-19.335-19.336h-0.95v33.406H235.254z"/>
					<rect x="214.969" y="458.308" fill="#A55219" width="20.285" height="25.717"/>
				</g>
				<g>
					<path fill="#A55219" d="M327.709,441.593v-29.549h-1.075c-10.677,0-19.335,8.657-19.335,19.336v10.213H327.709z"/>
					<rect x="307.298" y="458.308" fill="#A55219" width="20.411" height="25.717"/>
					<path fill="#A55219" d="M358.74,441.593V431.38c0-10.679-8.658-19.336-19.337-19.336h-0.95v29.549H358.74z"/>
					<rect x="338.453" y="458.308" fill="#A55219" width="20.287" height="25.717"/>
				</g>
				<g>
					<rect x="424.178" y="379.874" fill="#A55219" width="20.411" height="27.64"/>
					<path fill="#A55219" d="M444.589,365.729v-30.197h-1.077c-10.678,0-19.334,8.661-19.334,19.341v10.856H444.589z"/>
					<path fill="#A55219" d="M475.619,365.729v-10.856c0-10.68-8.658-19.341-19.337-19.341h-0.95v30.197H475.619z"/>
					<rect x="455.332" y="379.874" fill="#A55219" width="20.287" height="27.64"/>
				</g>
				<g>
					<path fill="#A55219" d="M597.465,485.31v-31.483h-1.076c-10.679,0-19.337,8.659-19.337,19.339v12.145H597.465z"/>
					<rect x="577.052" y="499.455" fill="#A55219" width="20.413" height="26.351"/>
					<path fill="#A55219" d="M628.494,485.31v-12.145c0-10.68-8.657-19.339-19.336-19.339h-0.948v31.483H628.494z"/>
					<rect x="608.21" y="499.455" fill="#A55219" width="20.284" height="26.351"/>
				</g>
				<path fill="#A55219" d="M455.976,449.292l-22.861,13.053l7.257,68.799c5.105-1.21,10.325-1.981,15.604-2.277V449.292z"/>
				<path fill="#A55219" d="M466.582,447.662v81.207c6.866,0.381,13.638,1.56,20.18,3.488l5.54-70.013L466.582,447.662z"/>
			</g>
		</g>
	</g>
</g>
<g id="Layer_4">
</g>
</svg>
