<?xml version="1.0" encoding="utf-8"?>
<!-- Generator: Adobe Illustrator 19.2.0, SVG Export Plug-In . SVG Version: 6.00 Build 0)  -->
<svg version="1.1" id="Layer_1" xmlns="http://www.w3.org/2000/svg" xmlns:xlink="http://www.w3.org/1999/xlink" x="0px" y="0px"
	 viewBox="0 0 496.5 400.4" style="enable-background:new 0 0 496.5 400.4;" xml:space="preserve">
<style type="text/css">
	.st0{display:none;}
	.st1{fill:#352106;}
	.st2{fill:#442C08;}
	.st3{fill:#0C3A1D;}
	.st4{fill:#0F4926;}
	.st5{fill:#177742;}
	.st6{display:inline;fill:#ACADAF;}
	.st7{display:inline;fill:#990000;}
	.st8{display:inline;fill:#282827;}
	.st9{display:inline;}
	.st10{fill:#8D9093;}
	.st11{fill:#ACADAF;}
	.st12{fill:#9F9FA0;}
	.st13{fill:#990000;}
	.st14{fill:#870000;}
	.st15{clip-path:url(#SVGID_2_);}
	.st16{clip-path:url(#SVGID_4_);}
	.st17{fill:#A5A5A5;}
	.st18{fill:#9B9B9B;}
	.st19{fill:#939393;}
	.st20{fill:#371D04;}
	.st21{fill:#1E1305;}
	.st22{fill:#282827;}
</style>
<g id="Layer_1_1_" class="st0">
</g>
<g id="Layer_5">
	<g>
		<path class="st1" d="M7.7,354c0,0-17.9,30.7,3.9,37.1s250.1,17.2,467.5,0c9.5-0.8,28.2-12.8,9-37.1c-4.3-5.5-76.4-6.8-163.4-6.2
			c-5.8,0-11.7,0.1-17.6,0.1c-5.9,0.8-11.9-0.4-17.9,0.2c-6,0.2-12-0.9-18.1,0.2c-6.1-0.1-12.1,0.2-18.2,0.2
			C131,350.3,7.7,354,7.7,354z"/>
		<path class="st2" d="M495.5,378.7c0,0,6.9-26.9-15.4-33.3c-22.3-6.4-227.6-24.3-455.7-3.8c-9.7,0.9-23.3,7.5-24.4,35.9
			c-0.2,4.8,133.2,8.7,261.7,7.8C380.7,384.3,495.5,378.7,495.5,378.7z"/>
		<path class="st3" d="M495.5,359.6c0,0,3.1-16.8-19.2-23.2c-22.3-6.4-207.7-8.6-435.4-3.8c-9.8,0.2-30.9-1.8-35.8,21.9
			c-0.6,2.7,2.5,9.8,21,11.2c3.1,0.2,14-8.2,17.5-4.4c3.5-1.8,7.2-6.9,11.1,0.6c3.9-10.4,8-4.5,12.2,0.5c4.3,9.8,8.7-8.4,13.3,0.4
			c4.6-6,9.3,4.3,14.2,0.4c4.9,6.8,9.9,0.2,15,0.3c9,0.1,18.4,5.3,28.1,5.4c4.8,0,9.8-5,14.7-5c5-0.6,10-3.7,15.1,0.1
			c5.1-3.7,10.3,2.7,15.5,0c5.2-2.5,10.4-2.1,15.7,0c5.3-2.6,10.6-3.5,15.9,0c5.3-1.2,10.7-1.9,16.1-0.1c5.4,0,10.8-0.1,16.1-0.1
			c3.4,0,6.7-0.1,10.1-0.1c3.4-2,6.7-1.5,10.1-0.1c3.4,0.2,6.7,3,10.1-0.1c3.4,1.8,6.7-1.6,10-0.1c3.3-0.5,6.7,0.8,10-0.1
			c3.3,2.8,6.6,6.1,9.9,4.9c3.3,0,6.6-5.2,9.8-5.2c5.7-0.1,11.4-0.2,16.9-0.2c5.6,1.4,11.1,2.4,16.5-0.3c5.4-3.1,10.8,11.7,16.1-0.3
			c5.3,7.2,10.4,8.4,15.5-0.3c5.1-5.3,10-5,14.9-0.3c4.8,1.9,9.6-3.3,14.2-0.3c4.6-1.2,9,1.7,13.4-0.3c2.2-1.6,4.3-1.5,6.4-1.1
			s4.1,1.1,6.1,0.8c2,0.9,4,2,5.9-0.1c1.9-2.4,3.8-3.9,5.6-0.1c5.9-1.5,11.3,3.5,16.2,3.4c4.9-0.2,9.3-6.9,13.2-4.1
			c3.9-0.5,7.1-3.8,9.8-0.2c2.7-0.1,4.7-0.1,6.1-0.2C494.8,359.7,495.5,359.6,495.5,359.6z"/>
		<path class="st4" d="M18.9,335.7c0,0,3,9.1,16.1,9.9c20.8,1.3,215.9,5.4,428.4,0.8c9.1-0.2,16.8-1.9,17.8-8.3
			c0.2-1.1-125.6-1.7-245.2-1.5C125,336.9,18.9,335.7,18.9,335.7z"/>
		<path class="st5" d="M129.7,289.8c-59.6,0-74.6,27.7-110.8,45.9l272.6,1.7C262.8,323.8,189.3,289.8,129.7,289.8z"/>
		<path class="st5" d="M330.8,275.6c-79.6,0-109.7,36.9-158,61.3l308.5,1.3C445.6,322.3,410.3,275.6,330.8,275.6z"/>
	</g>
</g>
<g id="Layer_2" class="st0">
	<rect x="644.8" y="265.3" class="st6" width="30.7" height="60.4"/>
	<polygon class="st7" points="660.1,233.8 669.8,249.7 679.5,265.7 660.1,265.7 640.8,265.7 650.5,249.7 	"/>
	<path class="st8" d="M664.6,290.7h-8.9v-13.2c0-2.3,1.7-4.1,3.9-4.1h1.5c1.9,0,3.5,1.7,3.5,3.7V290.7z"/>
	<rect x="644.6" y="267.2" class="st6" width="32.2" height="60.2"/>
	<polygon class="st7" points="660.7,233.8 670.8,250.6 681,267.4 660.7,267.4 640.3,267.4 650.5,250.6 	"/>
	<path class="st8" d="M665.2,288.9h-9v-13.5c0-2.3,1.8-4.2,4-4.2h1.5c2,0,3.6,1.7,3.6,3.8L665.2,288.9L665.2,288.9z"/>
	<g class="st9">
		<path class="st10" d="M613.1,254.7c0,0.7,0.1,1.5,0.1,1.6c0,0.7,0,1.3,0,2c0,1.1-0.1,2.1-0.3,3.2c-0.2,1.4-0.6,2.9-1.4,4.1
			c-0.8,1.2-3,2.5-4.3,1.5c-0.7-0.5-1-1.3-1.2-2.1c-0.4-1.5-0.5-3.1-0.4-4.6c0-0.2-0.1-1.1,0-1.9l-3.9,2l-0.1,50
			c2.2,0.8,4.3,1.6,6.5,2.5c3,1.1,9.5,3.6,9.7,3.6c0.6,0,0.3-15.2,0.3-16c0.1-8.7,0.3-17.3,0.3-26.1c0-0.8-0.2-1.8-0.2-2.6
			c0-2.2,0-4.4,0-6.6c0-3.2,0-6.4,0-9.5c0-1.2,0-2.4,0-3.6L613.1,254.7z"/>
	</g>
	<g class="st9">
		<path class="st10" d="M564.7,264.6c0,0.7,0.1,1.5,0.1,1.6c0,0.7,0,1.3,0,2c0,1.1-0.1,2.1-0.3,3.2c-0.2,1.4-0.6,2.9-1.4,4.1
			c-0.8,1.2-3,2.5-4.3,1.5c-0.7-0.5-1-1.3-1.2-2.1c-0.4-1.5-0.5-3.1-0.4-4.6c0-0.2-0.1-1.1,0-1.9l-3.9,2l-0.1,50
			c2.2,0.8,4.3,1.6,6.5,2.5c3,1.1,9.5,3.6,9.7,3.6c0.6,0,0.3-15.2,0.3-16c0.1-8.7,0.3-17.3,0.3-26.1c0-0.8-0.2-1.8-0.2-2.6
			c0-2.2,0-4.4,0-6.6c0-3.2,0-6.4,0-9.5c0-1.2,0-2.4,0-3.6L564.7,264.6z"/>
	</g>
</g>
<g id="Layer_4">
	<rect x="239.8" y="53.6" class="st11" width="51.7" height="96.7"/>
	<path class="st12" d="M239.7,53.8h9.6c0,0,3.6,84.6,25.9,93l-35.7,0.2L239.7,53.8z"/>
	<polygon class="st13" points="265.7,0 282,27 298.4,53.9 265.7,53.9 233,53.9 249.3,27 	"/>
	<rect x="204.3" y="90.4" class="st11" width="32.2" height="60.2"/>
	<path class="st12" d="M204.2,90.5h6c0,0,2.2,52.7,16.1,57.9l-22.2,0.1L204.2,90.5z"/>
	<polygon class="st13" points="220.3,57 230.5,73.8 240.7,90.6 220.3,90.6 200,90.6 210.2,73.8 	"/>
	<polygon class="st14" points="220.3,57 210.4,90.6 200,90.6 	"/>
	<rect x="295.9" y="90.4" class="st11" width="32.2" height="60.2"/>
	<path class="st12" d="M295.8,90.5h6c0,0,2.2,52.7,16.1,57.9l-22.2,0.1L295.8,90.5z"/>
	<polygon class="st13" points="312,57 322.2,73.8 332.4,90.6 312,90.6 291.7,90.6 301.8,73.8 	"/>
	<polygon class="st14" points="312,57 302,90.6 291.7,90.6 	"/>
	<polygon class="st14" points="265.7,0 249.6,53.9 233,53.9 	"/>
	<polygon class="st10" points="194.5,295.6 197.3,295.6 197.3,134.6 192.7,136.8 	"/>
	<g>
		<path class="st10" d="M124.2,170.1l-0.1,9.2c0,2.9-2.1,5.3-4.5,5.3h-0.3c-1.9,0-3.4-1.8-3.4-4.1l0.1-6.7l-4.9,2.2
			c-0.5,0.2,0,8.2,0,8.8c0,7.7,0,15.3,0,23c0,32,0.1,63.9,0.1,95.9l17.8,14.9l1.5-58.8l-1.4-91.9L124.2,170.1z"/>
	</g>
	<g>
		<path class="st10" d="M192.5,136.8l-0.1,9.2c0,2.9-2.1,5.3-4.5,5.3h-0.3c-1.9,0-3.4-1.8-3.4-4.1l0.1-6.7l-4.9,2.2
			c-0.5,0.2,0,8.2,0,8.8c0,7.7,0,15.3,0,23c0,32,0.1,63.9,0.1,95.9l17.8,15.5l0.1-151.2L192.5,136.8z"/>
	</g>
	<g>
		<g>
			<defs>
				<rect id="SVGID_1_" x="127.6" y="167.9" width="271.9" height="150.7"/>
			</defs>
			<clipPath id="SVGID_2_">
				<use xlink:href="#SVGID_1_"  style="overflow:visible;"/>
			</clipPath>
			<g class="st15">
				<path class="st11" d="M391.4,167.6v7.8c0,2-2.1,3.5-4.8,3.5h-1.8c-2.4,0-4.3-1.4-4.3-3.2v-8.1H369v7.8c0,2-2.1,3.5-4.8,3.5h-1.8
					c-2.4,0-4.3-1.4-4.3-3.2v-8.1h-10v7.8c0,2-2.1,3.5-4.8,3.5h-1.8c-2.4,0-4.3-1.4-4.3-3.2v-8.1h-11v7.8c0,2-2.1,3.5-4.8,3.5h-1.8
					c-2.4,0-4.3-1.4-4.3-3.2v-8.1h-10.9v7.8c0,2-2.1,3.5-4.8,3.5h-1.8c-2.4,0-4.3-1.4-4.3-3.2v-8.1h-11v7.8c0,2-2.1,3.5-4.8,3.5
					h-1.8c-2.4,0-4.3-1.4-4.3-3.2v-8.1h-8.4v177h136v-177H391.4z"/>
			</g>
		</g>
		<g>
			<defs>
				<rect id="SVGID_3_" x="127.6" y="167.9" width="271.9" height="150.7"/>
			</defs>
			<clipPath id="SVGID_4_">
				<use xlink:href="#SVGID_3_"  style="overflow:visible;"/>
			</clipPath>
			<g class="st16">
				<path class="st11" d="M256.8,167.6v7.8c0,2-2.1,3.5-4.8,3.5h-1.8c-2.4,0-4.3-1.4-4.3-3.2v-8.1h-11.5v7.8c0,2-2.1,3.5-4.8,3.5
					h-1.8c-2.4,0-4.3-1.4-4.3-3.2v-8.1h-10v7.8c0,2-2.1,3.5-4.8,3.5h-1.8c-2.4,0-4.3-1.4-4.3-3.2v-8.1h-11v7.8c0,2-2.1,3.5-4.8,3.5
					H185c-2.4,0-4.3-1.4-4.3-3.2v-8.1H170v7.8c0,2-2.1,3.5-4.8,3.5h-1.8c-2.4,0-4.3-1.4-4.3-3.2v-8.1h-11v7.8c0,2-2.1,3.5-4.8,3.5
					h-1.8c-2.4,0-4.3-1.4-4.3-3.2v-8.1H129v177h136v-177H256.8z"/>
			</g>
		</g>
	</g>
	<g>
		<path class="st17" d="M325.1,134.6v8.1c0,2-2.1,3.7-4.8,3.7h-1.8c-2.4,0-4.3-1.5-4.3-3.3v-8.5h-11.5v8.1c0,2-2.1,3.7-4.8,3.7h-1.8
			c-2.4,0-4.3-1.5-4.3-3.3v-8.5h-10v8.1c0,2-2.1,3.7-4.8,3.7h-1.8c-2.4,0-4.3-1.5-4.3-3.3v-8.5h-11v8.1c0,2-2.1,3.7-4.8,3.7h-1.8
			c-2.4,0-4.3-1.5-4.3-3.3v-8.5h-10.9v8.1c0,2-2.1,3.7-4.8,3.7h-1.8c-2.4,0-4.3-1.5-4.3-3.3v-8.5h-11v8.1c0,2-2.1,3.7-4.8,3.7H210
			c-2.4,0-4.3-1.5-4.3-3.3v-8.5h-8.4v184h136v-184H325.1z"/>
	</g>
</g>
<g id="Layer_7">
	<rect x="199.3" y="311.1" class="st18" width="15.8" height="6"/>
	<rect x="133.4" y="272.7" class="st19" width="15.8" height="6"/>
	<rect x="147.9" y="226.5" class="st19" width="15.8" height="6"/>
	<rect x="176.2" y="203" class="st19" width="15.8" height="6"/>
	<rect x="207.3" y="286.3" class="st18" width="15.8" height="6"/>
	<rect x="219.3" y="261.6" class="st18" width="15.8" height="6"/>
	<rect x="212.4" y="239.8" class="st18" width="15.8" height="6"/>
	<rect x="255.4" y="223.3" class="st18" width="15.8" height="6"/>
	<rect x="212.5" y="208.2" class="st18" width="15.8" height="6"/>
	<rect x="292.6" y="203" class="st18" width="15.8" height="6"/>
	<rect x="204.5" y="171.6" class="st18" width="15.8" height="6"/>
	<rect x="300.4" y="304.1" class="st18" width="15.8" height="6"/>
	<rect x="317.6" y="287" class="st18" width="15.8" height="6"/>
	<rect x="265.1" y="177.6" class="st18" width="15.8" height="6"/>
	<rect x="309.7" y="258.6" class="st18" width="15.8" height="6"/>
	<rect x="292.6" y="239.8" class="st18" width="15.8" height="6"/>
	<rect x="313.5" y="223.3" class="st18" width="15.8" height="6"/>
	<rect x="130.5" y="306.4" class="st19" width="15.8" height="6"/>
	<rect x="162.7" y="287" class="st19" width="15.8" height="6"/>
	<rect x="177.2" y="303.6" class="st19" width="15.8" height="6"/>
	<rect x="374" y="298.6" class="st19" width="15.8" height="6"/>
	<rect x="342" y="290.9" class="st19" width="15.8" height="6"/>
	<rect x="366.7" y="226.5" class="st19" width="15.8" height="6"/>
	<rect x="339.4" y="199.9" class="st19" width="15.8" height="6"/>
	<rect x="381.2" y="275.8" class="st19" width="15.8" height="6"/>
	<rect x="232.8" y="311.7" class="st18" width="15.8" height="6"/>
</g>
<g id="door">
	<path class="st20" d="M294.5,319h-52.4v-52.8c0-9.1,10.3-16.5,23-16.5h8.6c11.5,0,20.8,6.7,20.8,14.9V319z"/>
	<g>
		<path class="st21" d="M251.2,319h3v-67.4c-1.1,0.4-2.1,0.9-3,1.4V319z"/>
		<path class="st21" d="M293.5,260v59h-3v-63.2c-0.9-0.9-1.9-1.7-3-2.4V319h-3v-67.2c-1-0.4-2-0.8-3-1.1V319h-3v-69
			c-1-0.2-2-0.3-3-0.3V319h-3v-69.3h-3V319h-3v-69.3h-1.2c-0.6,0-1.3,0-1.9,0.1v69.3h31.2v-54.5C294.5,263,294.2,261.5,293.5,260z"
			/>
		<path class="st21" d="M245.2,258v61h-3l0,0h6v-64C247,255.9,246,256.9,245.2,258z"/>
		<path class="st21" d="M257.3,319h3v-69c-1,0.2-2,0.4-3,0.6V319z"/>
	</g>
</g>
<g id="Layer_9">
</g>
<g id="window">
	<g>
		<path class="st22" d="M272.9,88.5h-14.5V66.9c0-3.7,2.9-6.8,6.4-6.8h2.4c3.2,0,5.8,2.7,5.8,6.1L272.9,88.5L272.9,88.5z"/>
		<path class="st22" d="M230.3,190.2h-14.5v-21.6c0-3.7,2.9-6.8,6.4-6.8h2.4c3.2,0,5.8,2.7,5.8,6.1L230.3,190.2L230.3,190.2z"/>
		<path class="st22" d="M259.6,190.2h-14.5v-21.6c0-3.7,2.9-6.8,6.4-6.8h2.4c3.2,0,5.8,2.7,5.8,6.1L259.6,190.2L259.6,190.2z"/>
		<path class="st22" d="M288.6,190.2h-14.5v-21.6c0-3.7,2.9-6.8,6.4-6.8h2.4c3.2,0,5.8,2.7,5.8,6.1L288.6,190.2L288.6,190.2z"/>
		<path class="st22" d="M317.6,190.2h-14.5v-21.6c0-3.7,2.9-6.8,6.4-6.8h2.4c3.2,0,5.8,2.7,5.8,6.1L317.6,190.2L317.6,190.2z"/>
		<path class="st22" d="M359.8,220.2h-14.5v-21.6c0-3.7,2.9-6.8,6.4-6.8h2.4c3.2,0,5.8,2.7,5.8,6.1L359.8,220.2L359.8,220.2z"/>
		<path class="st22" d="M389.1,220.2h-14.5v-21.6c0-3.7,2.9-6.8,6.4-6.8h2.4c3.2,0,5.8,2.7,5.8,6.1L389.1,220.2L389.1,220.2z"/>
		<path class="st22" d="M359.8,267.2h-14.5v-21.6c0-3.7,2.9-6.8,6.4-6.8h2.4c3.2,0,5.8,2.7,5.8,6.1L359.8,267.2L359.8,267.2z"/>
		<path class="st22" d="M389.1,267.2h-14.5v-21.6c0-3.7,2.9-6.8,6.4-6.8h2.4c3.2,0,5.8,2.7,5.8,6.1L389.1,267.2L389.1,267.2z"/>
		<path class="st22" d="M155.8,220.2h-14.5v-21.6c0-3.7,2.9-6.8,6.4-6.8h2.4c3.2,0,5.8,2.7,5.8,6.1L155.8,220.2L155.8,220.2z"/>
		<path class="st22" d="M185.1,220.2h-14.5v-21.6c0-3.7,2.9-6.8,6.4-6.8h2.4c3.2,0,5.8,2.7,5.8,6.1L185.1,220.2L185.1,220.2z"/>
		<path class="st22" d="M155.8,267.2h-14.5v-21.6c0-3.7,2.9-6.8,6.4-6.8h2.4c3.2,0,5.8,2.7,5.8,6.1L155.8,267.2L155.8,267.2z"/>
		<path class="st22" d="M185.1,267.2h-14.5v-21.6c0-3.7,2.9-6.8,6.4-6.8h2.4c3.2,0,5.8,2.7,5.8,6.1L185.1,267.2L185.1,267.2z"/>
		<path class="st22" d="M227.2,111.4h-9V97.9c0-2.3,1.8-4.2,4-4.2h1.5c2,0,3.6,1.7,3.6,3.8v13.9H227.2z"/>
		<path class="st22" d="M318.9,111.4h-9V97.9c0-2.3,1.8-4.2,4-4.2h1.5c2,0,3.6,1.7,3.6,3.8v13.9H318.9z"/>
	</g>
</g>
</svg>
