<?xml version="1.0" encoding="utf-8"?>
<!-- Generator: Adobe Illustrator 17.1.0, SVG Export Plug-In . SVG Version: 6.00 Build 0)  -->
<!DOCTYPE svg PUBLIC "-//W3C//DTD SVG 1.1//EN" "http://www.w3.org/Graphics/SVG/1.1/DTD/svg11.dtd">
<svg version="1.1" xmlns="http://www.w3.org/2000/svg" xmlns:xlink="http://www.w3.org/1999/xlink" x="0px" y="0px"
	 viewBox="0 0 498 389.5" enable-background="new 0 0 498 389.5" xml:space="preserve">
<g id="Layer_12" display="none">
	<rect y="-46.5" display="inline" fill="#051B3F" width="499" height="436"/>
</g>
<g id="Layer_5">
	<g>
		<path fill="#BF872C" d="M8,342.4c0,0-17.9,30.7,3.9,37.1c21.8,6.4,250.5,17.2,468.2,0c9.5-0.8,28.2-12.8,9-37.1
			c-4.3-5.5-76.5-6.8-163.7-6.2c-5.8,0-11.7,0.1-17.6,0.1c-5.9,0.8-11.9-0.4-17.9,0.2c-6,0.2-12.1-0.9-18.1,0.2
			c-6.1-0.1-12.2,0.2-18.3,0.2C131.5,338.7,8,342.4,8,342.4z"/>
		<path fill="#D0962E" d="M496.5,367.1c0,0,6.9-26.9-15.4-33.3c-22.3-6.4-227.6-24.3-455.7-3.8c-9.7,0.9-23.3,7.5-24.4,35.9
			c-0.2,4.8,133.2,8.7,261.7,7.8C381.7,372.7,496.5,367.1,496.5,367.1z"/>
		<path fill="#0C3A1D" d="M19.9,324.1c0,0,3,9.1,16.1,9.9c20.8,1.3,215.9,5.4,428.4,0.8c9.1-0.2,16.8-1.9,17.8-8.3
			c0.2-1.1-125.6-1.7-245.2-1.5C126,325.3,19.9,324.1,19.9,324.1z"/>
		<path fill="#177742" d="M130.7,278.2c-59.6,0-74.6,27.7-110.8,45.9l272.6,1.7C263.8,312.2,190.3,278.2,130.7,278.2z"/>
		<path fill="#177742" d="M331.8,287.2c-79.6,0-109.7,23.3-158,38.6l308.5,0.8C446.6,316.5,411.3,287.2,331.8,287.2z"/>
	</g>
</g>
<g id="Layer_2" display="none">
</g>
<g id="ปราสาท">
	<rect x="293" y="95.4" fill="#ADADAD" width="32.6" height="61"/>
	<rect x="201.5" y="95" fill="#ADADAD" width="32.6" height="70.6"/>
	<rect x="238" y="62" fill="#ADADAD" width="51.7" height="96.7"/>
	<polygon fill="#8D9093" points="195.5,304 198.3,304 198.3,143 193.7,145.2 	"/>
	<g>
		<path fill="#8D9093" d="M125.2,178.5l-0.1,9.2c0,2.9-2.1,5.3-4.5,5.3h-0.3c-1.9,0-3.4-1.8-3.4-4.1l0.1-6.7l-4.9,2.2
			c-0.5,0.2,0,8.2,0,8.8c0,7.7,0,15.3,0,23c0,32,0.1,63.9,0.1,95.9L130,327l1.5-58.8l-1.4-91.9L125.2,178.5z"/>
	</g>
	<g>
		<path fill="#8D9093" d="M193.4,145.2l-0.1,9.2c0,2.9-2.1,5.3-4.5,5.3h-0.3c-1.9,0-3.4-1.8-3.4-4.1l0.1-6.7l-4.9,2.2
			c-0.5,0.2,0,8.2,0,8.8c0,7.7,0,15.3,0,23c0,32,0.1,63.9,0.1,95.9l17.8,15.5l0.1-151.3L193.4,145.2z"/>
	</g>
	<g>
		<defs>
			<rect id="SVGID_1_" x="128.6" y="176.3" width="271.9" height="150.7"/>
		</defs>
		<clipPath id="SVGID_2_">
			<use xlink:href="#SVGID_1_"  overflow="visible"/>
		</clipPath>
		<g clip-path="url(#SVGID_2_)">
			<path fill="#ADADAD" d="M392.4,176v7.8c0,2-2.1,3.5-4.8,3.5h-1.8c-2.4,0-4.3-1.4-4.3-3.2V176h-11.5v7.8c0,2-2.1,3.5-4.8,3.5h-1.8
				c-2.4,0-4.3-1.4-4.3-3.2V176h-10v7.8c0,2-2.1,3.5-4.8,3.5h-1.8c-2.4,0-4.3-1.4-4.3-3.2V176h-11v7.8c0,2-2.1,3.5-4.8,3.5h-1.8
				c-2.4,0-4.3-1.4-4.3-3.2V176h-10.9v7.8c0,2-2.1,3.5-4.8,3.5h-1.8c-2.4,0-4.3-1.4-4.3-3.2V176h-11v7.8c0,2-2.1,3.5-4.8,3.5h-1.8
				c-2.4,0-4.3-1.4-4.3-3.2V176h-8.4v177h136V176H392.4z"/>
		</g>
		<g clip-path="url(#SVGID_2_)">
			<path fill="#ADADAD" d="M257.8,176v7.8c0,2-2.1,3.5-4.8,3.5h-1.8c-2.4,0-4.3-1.4-4.3-3.2V176h-11.5v7.8c0,2-2.1,3.5-4.8,3.5h-1.8
				c-2.4,0-4.3-1.4-4.3-3.2V176h-10v7.8c0,2-2.1,3.5-4.8,3.5h-1.8c-2.4,0-4.3-1.4-4.3-3.2V176h-11v7.8c0,2-2.1,3.5-4.8,3.5h-1.8
				c-2.4,0-4.3-1.4-4.3-3.2V176H171v7.8c0,2-2.1,3.5-4.8,3.5h-1.8c-2.4,0-4.3-1.4-4.3-3.2V176h-11v7.8c0,2-2.1,3.5-4.8,3.5h-1.8
				c-2.4,0-4.3-1.4-4.3-3.2V176H130v177h136V176H257.8z"/>
		</g>
		<g clip-path="url(#SVGID_2_)">
			<g>
				<path fill="#ADADAD" d="M346.3,167.6c7.7,0,7.7-11.9,0-11.9C338.7,155.7,338.7,167.6,346.3,167.6L346.3,167.6z"/>
			</g>
		</g>
		<g clip-path="url(#SVGID_2_)">
			<g>
				<path fill="#ADADAD" d="M346.3,167.6c7.7,0,7.7-11.9,0-11.9C338.7,155.7,338.7,167.6,346.3,167.6L346.3,167.6z"/>
			</g>
		</g>
	</g>
	<path fill="#9F9FA0" d="M238,62.4"/>
	<g>
		<path fill="#8D9093" d="M202.6,149c0.3,1.5,4.5,22.9,3.5,23.1c0.7-0.1,1.4-0.2,2.1-0.2c15.1,0,30.2,0.9,45.4,1.2
			c14.4,0.2,28.8,0.1,43.3,0.1h35.7V143h-8.2v8.1c0,2-2.1,3.7-4.8,3.7h-1.8c-2.4,0-4.3-1.5-4.3-3.3V143H302v8.1c0,2-2.1,3.7-4.8,3.7
			h-1.8c-2.4,0-4.3-1.5-4.3-3.3V143h-10v8.1c0,2-2.1,3.7-4.8,3.7h-1.8c-2.4,0-4.3-1.5-4.3-3.3V143h-11v8.1c0,2-2.1,3.7-4.8,3.7h-1.8
			c-2.4,0-4.3-1.5-4.3-3.3V143h-10.9v8.1c0,2-2.1,3.7-4.8,3.7H231c-2.4,0-4.3-1.5-4.3-3.3V143h-11v8.1c0,2-2.1,3.7-4.8,3.7h-1.8
			c-2.4,0-4.3-1.5-4.3-3.3V143c0,0-5.1,0-5.1,0C201.4,143,202.2,146.7,202.6,149z"/>
	</g>
	<g>
		<path fill="#A8A8A8" d="M325.9,143v8.1c0,2-2.1,3.7-4.8,3.7h-1.8c-2.4,0-4.3-1.5-4.3-3.3V143h-11.5v8.1c0,2-2.1,3.7-4.8,3.7H297
			c-2.4,0-4.3-1.5-4.3-3.3V143h-10v8.1c0,2-2.1,3.7-4.8,3.7h-1.8c-2.4,0-4.3-1.5-4.3-3.3V143h-11v8.1c0,2-2.1,3.7-4.8,3.7h-1.8
			c-2.4,0-4.3-1.5-4.3-3.3V143h-10.9v8.1c0,2-2.1,3.7-4.8,3.7h-1.8c-2.4,0-4.3-1.5-4.3-3.3V143h-11v8.1c0,2-2.1,3.7-4.8,3.7h-1.8
			c-2.4,0-4.3-1.5-4.3-3.3V143h-8.4v184h136V143H325.9z"/>
	</g>
	<path fill="#9B9B9B" d="M249.7,132.1V126c-4.6,1.2-9.4,2.5-11.7,4.7v7.2C240,135.5,244.8,133.5,249.7,132.1z"/>
	<path fill="#8F9193" d="M201.5,105.9c0,0,11.7-7.5,32.6,0v-6.1h-32.6V105.9z"/>
	<path fill="#990000" d="M198.2,95.1c-1.1,2.4,0.2,5.6,2.4,5.6h17.2h17.2c2.2,0,3.5-3.1,2.4-5.6l-8.5-18.3l-8.7-18.7
		c-1.1-2.4-3.7-2.4-4.8,0l-8.7,18.7L198.2,95.1z"/>
	<path fill="#8F9193" d="M293,105.9c0,0,11.7-7.5,32.6,0v-6.1H293V105.9z"/>
	<path fill="#990000" d="M289.8,95.1c-1.1,2.4,0.2,5.6,2.4,5.6h17.2h17.2c2.2,0,3.5-3.1,2.4-5.6l-8.5-18.3l-8.7-18.7
		c-1.1-2.4-3.7-2.4-4.8,0l-8.7,18.7L289.8,95.1z"/>
	<path fill="#8F9193" d="M238,80.7c0,0,18.5-11.9,51.6,0V71H238V80.7z"/>
	<path fill="#990000" d="M233.1,64.4c-1.7,3.9,0.3,9,3.7,9h26.1H289c3.3,0,5.4-5,3.7-9l-12.9-29.4L266.6,4.8c-1.7-3.8-5.7-3.8-7.3,0
		l-13.2,30.1L233.1,64.4z"/>
</g>
<g id="Layer_10">
	<g>
		<g id="วิปป_2_">
			<path fill="#C4C4C4" d="M213.1,261.8c0,0-13.8-18.3,10-29.1c0,0-10.8-23.1,16.3-23.1c0,0-4-23.8,18.6-18.8
				c0,0-10.5-14.2,10.7-24.9c0,0,10.5-5,18.6,3.7c0,0-12.7,2.1-7.8,9.7c0,0,1.9,3.6,4,4.2c0,0,6.4,3.6-1.6,7.9
				c0,0,12.6-4.2,16.2,4.2c0,0,3.8,8.7-1,13.4c0,0,29.1-5,16.1,23.1c0,0,25.1,4.3,9.9,30.3C323.1,262.7,284.4,278.3,213.1,261.8z"/>
			<g id="ชั้นในวิปชั้นรักเธอว์_2_">
				<path fill="#C4C4C4" d="M274.4,164.8c0,0-2.8-0.3-7.6,2.5c-6.8,3.9-15.1,11.2-8.8,23.5c0,0,17.1,24.6,39.2,18.6
					c0,0,4.4-4.6,1.4-12.3c0,0-1.8-9.4-16.1-5.7c0,0-8.2,1.7-13.1-8.8C269.5,182.5,264.9,173.3,274.4,164.8z"/>
				<path fill="#C4C4C4" d="M239.6,209.7c0,0-25.7-2-16.3,22.9c0,0,24.6,25.8,66,30.5c0,0,31.7,0.6,33.7-0.2c0,0,17.5-24.1-9.2-30.5
					C313.7,232.3,260.8,242.9,239.6,209.7z"/>
			</g>
		</g>
		<g id="ขอบถ้วยย_2_">
			<path fill="#C4C4C4" d="M213.6,261.6c0,0,49.9,13.3,109.9,0.6c0,0,3.6,1.4,3.4,10c0,0,0.8,6.2-3.9,10.1c0,0-40.8,12.7-108.7,0.4
				c0,0-3-1.6-3-10.7C211.1,272,210.5,261.4,213.6,261.6z"/>
			<g id="ลายในขอบ_2_">
				<path fill="#C4C4C4" d="M224.9,263.7c0,0-2.2,6,1.1,20.8l11.2,1.5c0,0-4-16.1-1.5-20.6L224.9,263.7z"/>
				<path fill="#C4C4C4" d="M249.4,266.9c0,0-2,9.3,0.4,20.3l11.4,0.6c0,0-1.2-15.8,0.2-20.3L249.4,266.9z"/>
				<path fill="#C4C4C4" d="M274.6,267.4c0,0,1.1,15.7,0.2,20.6l13.1-0.5c0,0,1.7-9.1-0.2-20.7L274.6,267.4z"/>
				<path fill="#C4C4C4" d="M301.4,265.8c0,0,3.1,15.6,0.5,20.3l10.9-1.6c0,0,1.7-6.1-0.6-20.3L301.4,265.8z"/>
			</g>
		</g>
	</g>
</g>
<g id="Layer_11" display="none">
	<ellipse display="inline" fill="#8E0000" cx="309.4" cy="56.8" rx="1.1" ry="0.2"/>
	<path display="inline" fill="#C4C4C4" d="M262.6,173.3c0-1.6,0.5-3.1,1.7-4.5c1.2-1.4,2.5-2.8,4.1-4.2c1.6-1.3,3.2-2.6,4.8-3.8
		c1.6-1.2,2.8-2.3,3.7-3.4l3,85.9c0.6-0.1,1-0.2,1.3-0.5c0.2-0.3,0.4-0.6,0.5-0.9c0.1-0.3,0.3-0.7,0.5-1c0.2-0.4,0.6-0.7,1-0.9
		l0,0.2c2.7-1.8,4.8-4.4,6.3-7.7c1.5-3.3,2.1-7.6,1.8-12.8c-0.5-3-0.9-5.7-1.2-8.1c-0.3-2.4-0.6-4.6-0.8-6.6c-0.2-2-0.3-3.8-0.4-5.5
		c-0.1-1.7-0.1-3.3-0.2-5c-0.1-3.9,0.1-7.7,0.6-11.4c0.5-3.7,1.4-7.2,2.6-10.7c1.3-3.4,3-6.7,5.2-9.8c2.2-3.1,4.9-6.1,8.1-8.8
		l0.3,11.2c0,1.7,0.1,4.4,0.1,8c0.1,3.6,0.1,7.6,0.2,12.2c0.1,4.5,0.1,9.3,0.2,14.4c0,5,0.1,9.9,0.1,14.5l0.3,12.9
		c0.1,2.4,0,4.4-0.3,5.9c-0.2,1.6-0.6,3-1,4.1c-0.4,1.2-0.8,2.2-1.3,3.1c-0.5,0.9-0.9,1.8-1.2,2.6c-1.2,1.9-2.7,3.8-4.5,5.7
		c-1.8,1.8-3.8,3.4-6.1,4.8c-2.3,1.3-4.7,2.3-7.2,3c-2.5,0.6-5.1,0.7-7.7,0.3l-8.5-8c-1,0.9-1.8,1.7-2.5,2.4
		c-0.7,0.7-1.4,1.4-2.2,2.1c-0.7,0.7-1.5,1.5-2.4,2.4c-0.9,0.9-2,1.9-3.2,3.3c-1.8-0.5-3.4-1-4.8-1.6c-1.4-0.6-2.7-1.2-3.9-1.9
		c-1.2-0.7-2.4-1.4-3.5-2.2c-1.1-0.8-2.2-1.7-3.3-2.6c-1.6-1.5-3.2-3.2-4.8-4.9c-1.6-1.7-3-3.6-4.3-5.6c-1.3-2-2.3-4.1-3.2-6.4
		c-0.9-2.3-1.3-4.6-1.5-7.1c-0.2-2.7-0.1-5.3,0.2-7.8c0.3-2.5,0.8-4.9,1.5-7.2c0.7-2.3,1.5-4.6,2.5-6.9c1-2.3,2-4.5,3.2-6.8
		c0.7-1.4,1.5-2.8,2.4-4.3c0.9-1.5,1.4-3.1,1.5-4.8c0.2-2.2-0.1-4.3-1-6.6c-0.9-2.2-1.9-4.2-3.1-6c-1.2-1.8-2.5-3.2-3.8-4.3
		c-1.3-1.1-2.3-1.7-2.9-1.6c-0.4,0-0.4-0.4,0.1-1.2c0.5-0.8,1.2-1.8,2.2-2.9c1-1.1,2.2-2.3,3.5-3.6c1.4-1.3,2.7-2.4,3.9-3.4
		c1.3-1,2.4-1.7,3.5-2.1c1.1-0.5,1.8-0.4,2.3,0.1c1.3,1.4,2.6,2.8,4,4.1c1.4,1.3,2.6,2.8,3.6,4.5c2,3.9,2.9,7.7,2.9,11.5
		c-0.1,3.8-0.7,7.6-1.8,11.3c-1.1,3.8-2.4,7.5-4,11.2c-1.6,3.7-2.8,7.4-3.6,11.1c-0.5,2.2-0.7,4.5-0.6,7c0.1,2.5,0.5,4.9,1.1,7.4
		c0.6,2.5,1.5,4.8,2.5,7.1c1.1,2.2,2.3,4.3,3.7,6c1.4,1.8,3,3.2,4.8,4.3c1.7,1.1,3.6,1.6,5.5,1.7c0.3-1,0.5-2.2,0.6-3.7
		c0.1-1.5,0.2-3.4,0.2-5.8c0-2.4,0-5.3-0.1-8.7c-0.1-3.4-0.2-7.6-0.3-12.5c-0.1-4.9-0.3-10.6-0.5-17.2
		C263,189.4,262.8,181.9,262.6,173.3z"/>
</g>
<g id="อิฐ">
	<rect x="200.3" y="319.5" fill="#9B9B9B" width="15.8" height="6"/>
	<rect x="134.4" y="281.1" fill="#939393" width="15.8" height="6"/>
	<rect x="148.9" y="234.9" fill="#939393" width="15.8" height="6"/>
	<rect x="177.2" y="211.4" fill="#939393" width="15.8" height="6"/>
	<rect x="208.3" y="294.7" fill="#9B9B9B" width="15.8" height="6"/>
	<rect x="220.3" y="270" fill="#9B9B9B" width="15.8" height="6"/>
	<rect x="210.9" y="263.1" fill="#8C8C8C" width="15.8" height="6"/>
	<rect x="256.4" y="231.7" fill="#9B9B9B" width="15.8" height="6"/>
	<rect x="213.5" y="216.6" fill="#9B9B9B" width="15.8" height="6"/>
	<rect x="293.6" y="211.4" fill="#9B9B9B" width="15.8" height="6"/>
	<rect x="205.5" y="180" fill="#9B9B9B" width="15.8" height="6"/>
	<rect x="301.4" y="312.5" fill="#9B9B9B" width="15.8" height="6"/>
	<rect x="318.6" y="295.4" fill="#9B9B9B" width="15.8" height="6"/>
	<rect x="266.1" y="186" fill="#9B9B9B" width="15.8" height="6"/>
	<rect x="310.7" y="267" fill="#9B9B9B" width="15.8" height="6"/>
	<rect x="302.7" y="240" fill="#8C8C8C" width="15.8" height="6"/>
	<rect x="314.5" y="231.7" fill="#9B9B9B" width="15.8" height="6"/>
	<rect x="131.5" y="314.8" fill="#939393" width="15.8" height="6"/>
	<rect x="163.7" y="295.4" fill="#939393" width="15.8" height="6"/>
	<rect x="178.2" y="312" fill="#939393" width="15.8" height="6"/>
	<rect x="375" y="307" fill="#939393" width="15.8" height="6"/>
	<rect x="343" y="299.3" fill="#939393" width="15.8" height="6"/>
	<rect x="367.7" y="234.9" fill="#939393" width="15.8" height="6"/>
	<rect x="340.4" y="208.3" fill="#939393" width="15.8" height="6"/>
	<rect x="382.2" y="284.2" fill="#939393" width="15.8" height="6"/>
	<rect x="233.8" y="320.1" fill="#9B9B9B" width="15.8" height="6"/>
	<path fill="#9B9B9B" d="M316.6,136.3v4.5c3.5,0.3,6.7,1,9.4,2v-4.3C323.4,137.4,320.2,136.7,316.6,136.3z"/>
	<path fill="#9B9B9B" d="M222.2,135.1v6.2c4.5,0.5,8.5,1.4,11.9,2.7v-5.9C230.8,136.7,226.7,135.7,222.2,135.1z"/>
</g>
<g id="door">
	<g>
		<path fill="#492107" d="M295.7,330.1h-52.4v-52.9c0-9.1,10.3-16.6,23-16.6h8.6c11.5,0,20.8,6.7,20.8,14.9V330.1z"/>
		<g>
			<path fill="#3A1906" d="M252.4,330.1h3v-67.4c-1.1,0.4-2.1,0.9-3,1.4V330.1z"/>
			<path fill="#3A1906" d="M267.5,330.1v-69.3h-1.2c-0.6,0-1.3,0-1.9,0.1v69.3h31.2v-54.5c0-1.6-0.3-3.1-1-4.6v59h-3v-63.2
				c-0.9-0.9-1.9-1.7-3-2.4v65.6h-3v-67.2c-1-0.4-2-0.8-3-1.1v68.3h-3v-69c-1-0.2-2-0.3-3-0.3v69.3h-3v-69.3h-3v69.3"/>
			<path fill="#3A1906" d="M246.4,269.1v61l3,0v-64C248.2,267,247.2,268,246.4,269.1z"/>
			<path fill="#3A1906" d="M258.5,330.1h3v-69c-1,0.2-2,0.4-3,0.6V330.1z"/>
		</g>
	</g>
</g>
<g id="Layer_13">
	<path fill="#B7812A" d="M268.9,280.2c0-0.2,0.1-0.3,0.2-0.5c0.1-0.2,0.3-0.3,0.5-0.5c0.2-0.2,0.4-0.3,0.5-0.4
		c0.2-0.1,0.3-0.3,0.4-0.4l0.3,9.7c0.1,0,0.1,0,0.1-0.1c0,0,0-0.1,0.1-0.1c0,0,0-0.1,0.1-0.1c0,0,0.1-0.1,0.1-0.1l0,0
		c0.3-0.2,0.5-0.5,0.7-0.9c0.2-0.4,0.2-0.9,0.2-1.5c-0.1-0.3-0.1-0.6-0.1-0.9c0-0.3-0.1-0.5-0.1-0.7c0-0.2,0-0.4,0-0.6
		c0-0.2,0-0.4,0-0.6c0-0.4,0-0.9,0.1-1.3c0.1-0.4,0.2-0.8,0.3-1.2c0.1-0.4,0.3-0.8,0.6-1.1c0.2-0.4,0.6-0.7,0.9-1l0,1.3
		c0,0.2,0,0.5,0,0.9c0,0.4,0,0.9,0,1.4c0,0.5,0,1.1,0,1.6c0,0.6,0,1.1,0,1.6l0,1.5c0,0.3,0,0.5,0,0.7c0,0.2-0.1,0.3-0.1,0.5
		c0,0.1-0.1,0.2-0.1,0.3c-0.1,0.1-0.1,0.2-0.1,0.3c-0.1,0.2-0.3,0.4-0.5,0.6c-0.2,0.2-0.4,0.4-0.7,0.5c-0.3,0.2-0.5,0.3-0.8,0.3
		c-0.3,0.1-0.6,0.1-0.9,0l-1-0.9c-0.1,0.1-0.2,0.2-0.3,0.3c-0.1,0.1-0.2,0.2-0.2,0.2c-0.1,0.1-0.2,0.2-0.3,0.3
		c-0.1,0.1-0.2,0.2-0.4,0.4c-0.2-0.1-0.4-0.1-0.5-0.2c-0.2-0.1-0.3-0.1-0.4-0.2c-0.1-0.1-0.3-0.2-0.4-0.2c-0.1-0.1-0.3-0.2-0.4-0.3
		c-0.2-0.2-0.4-0.4-0.5-0.6c-0.2-0.2-0.3-0.4-0.5-0.6c-0.1-0.2-0.3-0.5-0.4-0.7c-0.1-0.3-0.2-0.5-0.2-0.8c0-0.3,0-0.6,0-0.9
		c0-0.3,0.1-0.6,0.2-0.8c0.1-0.3,0.2-0.5,0.3-0.8c0.1-0.3,0.2-0.5,0.4-0.8c0.1-0.2,0.2-0.3,0.3-0.5c0.1-0.2,0.2-0.4,0.2-0.5
		c0-0.2,0-0.5-0.1-0.7c-0.1-0.3-0.2-0.5-0.4-0.7c-0.1-0.2-0.3-0.4-0.4-0.5c-0.1-0.1-0.3-0.2-0.3-0.2c0,0,0,0,0-0.1
		c0.1-0.1,0.1-0.2,0.2-0.3c0.1-0.1,0.2-0.3,0.4-0.4c0.2-0.1,0.3-0.3,0.4-0.4c0.1-0.1,0.3-0.2,0.4-0.2c0.1-0.1,0.2,0,0.3,0
		c0.1,0.2,0.3,0.3,0.5,0.5c0.2,0.2,0.3,0.3,0.4,0.5c0.2,0.4,0.3,0.9,0.3,1.3c0,0.4-0.1,0.9-0.2,1.3c-0.1,0.4-0.3,0.8-0.5,1.3
		c-0.2,0.4-0.3,0.8-0.4,1.3c-0.1,0.2-0.1,0.5-0.1,0.8c0,0.3,0.1,0.6,0.1,0.8c0.1,0.3,0.2,0.5,0.3,0.8c0.1,0.3,0.3,0.5,0.4,0.7
		c0.2,0.2,0.3,0.4,0.5,0.5c0.2,0.1,0.4,0.2,0.6,0.2c0-0.1,0.1-0.3,0.1-0.4c0-0.2,0-0.4,0-0.7c0-0.3,0-0.6,0-1c0-0.4,0-0.9,0-1.4
		c0-0.6,0-1.2-0.1-1.9C269,282.1,269,281.2,268.9,280.2z"/>
</g>
<g id="green_bush">
	<g>
		<g>
			<path fill="#0F4720" d="M135.5,320.9v-2C135.5,319.6,135.5,320.3,135.5,320.9L135.5,320.9z"/>
			<path fill="#0F4720" d="M49.1,320.9L49.1,320.9c0-0.6,0-1.3,0-2V320.9z"/>
			<path fill="#0F4720" d="M92.3,272.3c-23.9,0-43.2,20.9-43.2,46.7c0,0.7,0,1.3,0,2h86.3c0-0.6,0-1.3,0-2
				C135.5,293.2,116.2,272.3,92.3,272.3z"/>
		</g>
		<g>
			<path fill="#0F4720" d="M168.1,341.6v-1.8C168.1,340.4,168.1,341,168.1,341.6L168.1,341.6z"/>
			<path fill="#0F4720" d="M81.7,341.6L81.7,341.6c0-0.6,0-1.2,0-1.8V341.6z"/>
			<path fill="#0F4720" d="M124.9,296.6c-23.9,0-43.2,19.3-43.2,43.2c0,0.6,0,1.2,0,1.8h86.3c0-0.6,0-1.2,0-1.8
				C168.1,315.9,148.8,296.6,124.9,296.6z"/>
		</g>
		<g>
			<path fill="#0F4720" d="M94.4,341.6v-1.8C94.4,340.4,94.3,341,94.4,341.6L94.4,341.6z"/>
			<path fill="#0F4720" d="M8,341.6L8,341.6c0-0.6,0-1.2,0-1.8V341.6z"/>
			<path fill="#0F4720" d="M51.2,296.6C27.3,296.6,8,315.9,8,339.8c0,0.6,0,1.2,0,1.8h86.3c0-0.6,0-1.2,0-1.8
				C94.4,315.9,75,296.6,51.2,296.6z"/>
		</g>
	</g>
	<g>
		<g>
			<path fill="#0E662D" d="M141,321.4v-2C141,320.1,141,320.8,141,321.4L141,321.4z"/>
			<path fill="#0E662D" d="M54.6,321.4L54.6,321.4c0-0.6,0-1.3,0-2V321.4z"/>
			<path fill="#0E662D" d="M97.8,272.8c-23.9,0-43.2,20.9-43.2,46.7c0,0.7,0,1.3,0,2H141c0-0.6,0-1.3,0-2
				C141,293.7,121.7,272.8,97.8,272.8z"/>
		</g>
		<g>
			<path fill="#0E662D" d="M173.6,343.1v-1.8C173.6,341.9,173.6,342.5,173.6,343.1L173.6,343.1z"/>
			<path fill="#0E662D" d="M87.2,343.1L87.2,343.1c0-0.6,0-1.2,0-1.8V343.1z"/>
			<path fill="#0E662D" d="M130.4,298.1c-23.9,0-43.2,19.3-43.2,43.2c0,0.6,0,1.2,0,1.8h86.3c0-0.6,0-1.2,0-1.8
				C173.6,317.4,154.3,298.1,130.4,298.1z"/>
		</g>
		<g>
			<path fill="#0E662D" d="M99.9,343.1v-1.8C99.9,341.9,99.8,342.5,99.9,343.1L99.9,343.1z"/>
			<path fill="#0E662D" d="M13.5,343.1L13.5,343.1c0-0.6,0-1.2,0-1.8V343.1z"/>
			<path fill="#0E662D" d="M56.7,298.1c-23.9,0-43.2,19.3-43.2,43.2c0,0.6,0,1.2,0,1.8h86.3c0-0.6,0-1.2,0-1.8
				C99.9,317.4,80.5,298.1,56.7,298.1z"/>
		</g>
	</g>
	<g>
		<g>
			<path fill="#0F4720" d="M456.2,318.8v-1.7C456.2,317.7,456.2,318.2,456.2,318.8L456.2,318.8z"/>
			<path fill="#0F4720" d="M378.8,318.8L378.8,318.8c0-0.6,0-1.2,0-1.7V318.8z"/>
			<path fill="#0F4720" d="M417.5,275.3c-21.4,0-38.7,18.7-38.7,41.8c0,0.6,0,1.2,0,1.7h77.3c0-0.6,0-1.2,0-1.7
				C456.2,294,438.9,275.3,417.5,275.3z"/>
		</g>
		<g>
			<path fill="#0F4720" d="M485.4,337.4v-1.6C485.4,336.3,485.4,336.8,485.4,337.4L485.4,337.4z"/>
			<path fill="#0F4720" d="M408,337.4L408,337.4c0-0.5,0-1.1,0-1.6V337.4z"/>
			<path fill="#0F4720" d="M446.7,297c-21.4,0-38.7,17.3-38.7,38.7c0,0.5,0,1.1,0,1.6h77.3c0-0.5,0-1.1,0-1.6
				C485.4,314.4,468.1,297,446.7,297z"/>
		</g>
		<g>
			<path fill="#0F4720" d="M419.3,337.4v-1.6C419.3,336.3,419.3,336.8,419.3,337.4L419.3,337.4z"/>
			<path fill="#0F4720" d="M341.9,337.4L341.9,337.4c0-0.5,0-1.1,0-1.6V337.4z"/>
			<path fill="#0F4720" d="M380.6,297c-21.4,0-38.7,17.3-38.7,38.7c0,0.5,0,1.1,0,1.6h77.3c0-0.5,0-1.1,0-1.6
				C419.3,314.4,402,297,380.6,297z"/>
		</g>
	</g>
	<g>
		<g>
			<path fill="#0E662D" d="M458,321.1v-1.7C458,319.9,457.9,320.5,458,321.1L458,321.1z"/>
			<path fill="#0E662D" d="M380.6,321.1L380.6,321.1c0-0.6,0-1.2,0-1.7V321.1z"/>
			<path fill="#0E662D" d="M419.3,277.5c-21.4,0-38.7,18.7-38.7,41.8c0,0.6,0,1.2,0,1.7h77.3c0-0.6,0-1.2,0-1.7
				C458,296.2,440.6,277.5,419.3,277.5z"/>
		</g>
		<g>
			<path fill="#0E662D" d="M487.2,339.6V338C487.2,338.5,487.2,339.1,487.2,339.6L487.2,339.6z"/>
			<path fill="#0E662D" d="M409.8,339.6L409.8,339.6c0-0.5,0-1.1,0-1.6V339.6z"/>
			<path fill="#0E662D" d="M448.5,299.3c-21.4,0-38.7,17.3-38.7,38.7c0,0.5,0,1.1,0,1.6h77.3c0-0.5,0-1.1,0-1.6
				C487.2,316.6,469.8,299.3,448.5,299.3z"/>
		</g>
		<g>
			<path fill="#0E662D" d="M421.1,339.6V338C421.1,338.5,421,339.1,421.1,339.6L421.1,339.6z"/>
			<path fill="#0E662D" d="M343.7,339.6L343.7,339.6c0-0.5,0-1.1,0-1.6V339.6z"/>
			<path fill="#0E662D" d="M382.4,299.3c-21.4,0-38.7,17.3-38.7,38.7c0,0.5,0,1.1,0,1.6H421c0-0.5,0-1.1,0-1.6
				C421.1,316.6,403.7,299.3,382.4,299.3z"/>
		</g>
	</g>
	<g>
		<g>
			<path fill="#0F4720" d="M383.6,315.3v-1.4C383.6,314.3,383.6,314.8,383.6,315.3L383.6,315.3z"/>
			<path fill="#0F4720" d="M323.7,315.3L323.7,315.3c0-0.5,0-0.9,0-1.4V315.3z"/>
			<path fill="#0F4720" d="M353.6,280.3c-16.5,0-29.9,15-29.9,33.5c0,0.5,0,0.9,0,1.4h59.8c0-0.5,0-0.9,0-1.4
				C383.6,295.3,370.2,280.3,353.6,280.3z"/>
		</g>
		<g>
			<path fill="#0F4720" d="M406.2,330.1v-1.3C406.2,329.3,406.2,329.7,406.2,330.1L406.2,330.1z"/>
			<path fill="#0F4720" d="M346.3,330.1L346.3,330.1c0-0.4,0-0.9,0-1.3V330.1z"/>
			<path fill="#0F4720" d="M376.2,297.8c-16.5,0-29.9,13.9-29.9,31.1c0,0.4,0,0.9,0,1.3h59.8c0-0.4,0-0.9,0-1.3
				C406.2,311.7,392.8,297.8,376.2,297.8z"/>
		</g>
		<g>
			<path fill="#0F4720" d="M355,330.1v-1.3C355,329.3,355,329.7,355,330.1L355,330.1z"/>
			<path fill="#0F4720" d="M295.2,330.1L295.2,330.1c0-0.4,0-0.9,0-1.3V330.1z"/>
			<path fill="#0F4720" d="M325.1,297.8c-16.5,0-29.9,13.9-29.9,31.1c0,0.4,0,0.9,0,1.3H355c0-0.4,0-0.9,0-1.3
				C355,311.7,341.6,297.8,325.1,297.8z"/>
		</g>
	</g>
	<g>
		<g>
			<path fill="#10722E" d="M387.9,315.8v-1.4C387.9,314.8,387.9,315.3,387.9,315.8L387.9,315.8z"/>
			<path fill="#10722E" d="M328,315.8L328,315.8c0-0.5,0-0.9,0-1.4V315.8z"/>
			<path fill="#10722E" d="M358,280.8c-16.5,0-29.9,15-29.9,33.5c0,0.5,0,0.9,0,1.4h59.8c0-0.5,0-0.9,0-1.4
				C387.9,295.8,374.5,280.8,358,280.8z"/>
		</g>
		<g>
			<path fill="#10722E" d="M410.5,330.6v-1.3C410.5,329.8,410.5,330.2,410.5,330.6L410.5,330.6z"/>
			<path fill="#10722E" d="M350.6,330.6L350.6,330.6c0-0.4,0-0.9,0-1.3V330.6z"/>
			<path fill="#10722E" d="M380.5,298.3c-16.5,0-29.9,13.9-29.9,31.1c0,0.4,0,0.9,0,1.3h59.8c0-0.4,0-0.9,0-1.3
				C410.5,312.2,397.1,298.3,380.5,298.3z"/>
		</g>
		<g>
			<path fill="#10722E" d="M359.4,330.6v-1.3C359.4,329.8,359.3,330.2,359.4,330.6L359.4,330.6z"/>
			<path fill="#10722E" d="M299.5,330.6L299.5,330.6c0-0.4,0-0.9,0-1.3V330.6z"/>
			<path fill="#10722E" d="M329.4,298.3c-16.5,0-29.9,13.9-29.9,31.1c0,0.4,0,0.9,0,1.3h59.8c0-0.4,0-0.9,0-1.3
				C359.4,312.2,346,298.3,329.4,298.3z"/>
		</g>
	</g>
	<g>
		<g>
			<path fill="#0D3F1E" d="M220.2,316.5v-1.3C220.2,315.6,220.2,316,220.2,316.5L220.2,316.5z"/>
			<path fill="#0D3F1E" d="M162.3,316.5L162.3,316.5c0-0.4,0-0.9,0-1.3V316.5z"/>
			<path fill="#0D3F1E" d="M191.3,283.4c-16,0-29,14.2-29,31.7c0,0.4,0,0.9,0,1.3h57.9c0-0.4,0-0.9,0-1.3
				C220.2,297.6,207.3,283.4,191.3,283.4z"/>
		</g>
		<g>
			<path fill="#0D3F1E" d="M242.1,330.5v-1.2C242.1,329.7,242.1,330.1,242.1,330.5L242.1,330.5z"/>
			<path fill="#0D3F1E" d="M184.2,330.5L184.2,330.5c0-0.4,0-0.8,0-1.2V330.5z"/>
			<path fill="#0D3F1E" d="M213.1,299.9c-16,0-29,13.2-29,29.4c0,0.4,0,0.8,0,1.2h57.9c0-0.4,0-0.8,0-1.2
				C242.1,313.1,229.1,299.9,213.1,299.9z"/>
		</g>
		<g>
			<path fill="#0D3F1E" d="M192.6,330.5v-1.2C192.6,329.7,192.6,330.1,192.6,330.5L192.6,330.5z"/>
			<path fill="#0D3F1E" d="M134.7,330.5L134.7,330.5c0-0.4,0-0.8,0-1.2V330.5z"/>
			<path fill="#0D3F1E" d="M163.6,299.9c-16,0-29,13.2-29,29.4c0,0.4,0,0.8,0,1.2h57.9c0-0.4,0-0.8,0-1.2
				C192.6,313.1,179.6,299.9,163.6,299.9z"/>
		</g>
	</g>
	<g>
		<g>
			<path fill="#0C5623" d="M224.5,318v-1.3C224.5,317.2,224.5,317.6,224.5,318L224.5,318z"/>
			<path fill="#0C5623" d="M166.5,318L166.5,318c0-0.4,0-0.9,0-1.3V318z"/>
			<path fill="#0C5623" d="M195.5,285c-16,0-29,14.2-29,31.7c0,0.4,0,0.9,0,1.3h57.9c0-0.4,0-0.9,0-1.3
				C224.5,299.2,211.5,285,195.5,285z"/>
		</g>
		<g>
			<path fill="#0C5623" d="M246.3,332.1v-1.2C246.3,331.3,246.3,331.7,246.3,332.1L246.3,332.1z"/>
			<path fill="#0C5623" d="M188.4,332.1L188.4,332.1c0-0.4,0-0.8,0-1.2V332.1z"/>
			<path fill="#0C5623" d="M217.4,301.5c-16,0-29,13.2-29,29.4c0,0.4,0,0.8,0,1.2h57.9c0-0.4,0-0.8,0-1.2
				C246.3,314.7,233.4,301.5,217.4,301.5z"/>
		</g>
		<g>
			<path fill="#0C5623" d="M196.9,332.1v-1.2C196.9,331.3,196.9,331.7,196.9,332.1L196.9,332.1z"/>
			<path fill="#0C5623" d="M138.9,332.1L138.9,332.1c0-0.4,0-0.8,0-1.2V332.1z"/>
			<path fill="#0C5623" d="M167.9,301.5c-16,0-29,13.2-29,29.4c0,0.4,0,0.8,0,1.2h57.9c0-0.4,0-0.8,0-1.2
				C196.9,314.7,183.9,301.5,167.9,301.5z"/>
		</g>
	</g>
	<path fill="#0C3A1D" d="M497.9,355.1c0,0-0.5-19-22.9-24.6c-22.4-5.6-206.1-3-435.4,1.2c-9.8,0.2-33.2-0.5-38.1,20.3
		c-0.6,2.4,4.6,7.4,23.2,8.7c3.1,0.2,14.1-7.2,17.6-3.8c3.5-1.6,7.3-6,11.2,0.5c3.9-9.1,8-4,12.3,0.4c4.3,8.5,8.7-7.3,13.3,0.4
		c4.6-5.3,9.4,3.7,14.3,0.3c4.9,6,10,0.2,15.1,0.3c9.1,0.1,18.5,4.7,28.3,4.7c4.9,0,9.8-4.4,14.8-4.3c5-0.5,10.1-3.3,15.2,0.1
		c5.1-3.3,10.3,2.4,15.6,0c5.2-2.2,10.5-1.9,15.8,0c5.3-2.3,10.7-3,16,0c5.4-1,10.8-1.6,16.2-0.1c5.4,0,10.8-0.1,16.2-0.1
		c3.4,0,6.8,0,10.2-0.1c3.4-1.8,6.8-1.3,10.2-0.1c3.4,0.1,6.8,2.6,10.1-0.1c3.4,1.6,6.7-1.4,10.1-0.1c3.4-0.4,6.7,0.7,10-0.1
		c3.3,2.4,6.7,5.3,10,4.3c3.3,0,6.6-4.5,9.9-4.5c5.7-0.1,11.4-0.1,17-0.2c5.6,1.2,11.2,2.1,16.7-0.2c5.5-2.8,10.9,10.2,16.2-0.2
		c5.3,6.3,10.5,7.3,15.6-0.2c5.1-4.6,10.1-4.4,15-0.2c4.9,1.7,9.6-2.9,14.3-0.2c4.6-1.1,9.1,1.5,13.4-0.2c2.2-1.4,4.3-1.3,6.4-0.9
		c2.1,0.3,4.1,1,6.2,0.7c2,0.8,4,1.8,5.9-0.1c1.9-2.1,3.8-3.4,5.7-0.1c5.9-1.3,11.4,3.1,16.3,3c4.9-0.2,9.4-6.1,13.3-3.6
		c3.9-0.4,7.2-3.3,9.9-0.2c2.7-0.1,4.8-0.1,6.2-0.1C496.6,355.4,497.9,355.1,497.9,355.1z"/>
	<ellipse fill="#0F4720" cx="124.2" cy="343.5" rx="41" ry="7.5"/>
	<g>
		<g>
			<path fill="#0D3F1E" d="M152.1,330v-0.8C152.1,329.4,152.1,329.7,152.1,330L152.1,330z"/>
			<path fill="#0D3F1E" d="M114.6,330L114.6,330c0-0.3,0-0.6,0-0.8V330z"/>
			<path fill="#0D3F1E" d="M133.3,308.9c-10.4,0-18.8,9.1-18.8,20.3c0,0.3,0,0.6,0,0.8h37.5c0-0.3,0-0.6,0-0.8
				C152.1,317.9,143.7,308.9,133.3,308.9z"/>
		</g>
		<g>
			<path fill="#0D3F1E" d="M166.3,338.2"/>
			<path fill="#0D3F1E" d="M166.2,339L166.2,339"/>
			<path fill="#0D3F1E" d="M128.7,339L128.7,339c0-0.3,0-0.5,0-0.8V339z"/>
			<path fill="#0D3F1E" d="M147.5,319.4c-10.3,0-18.7,8.3-18.8,18.6c0.4,0.4,0.6,0.6,1,0.9h35.6c0.5,0,1-0.4,1-0.9
				C166.2,327.7,157.8,319.4,147.5,319.4z"/>
		</g>
		<g>
			<path fill="#0D3F1E" d="M134.2,339v-0.8C134.2,338.5,134.2,338.7,134.2,339L134.2,339z"/>
			<path fill="#0D3F1E" d="M96.7,339L96.7,339c0-0.3,0-0.5,0-0.8V339z"/>
			<path fill="#0D3F1E" d="M115.4,319.4c-10.4,0-18.8,8.4-18.8,18.8c0,0.3,0,0.5,0,0.8h37.5c0-0.3,0-0.5,0-0.8
				C134.2,327.8,125.8,319.4,115.4,319.4z"/>
		</g>
	</g>
	<path fill="#0D3F1E" d="M166.2,338.6c0,2.2-1.2,3.9-2.7,3.9H99.2c-1.5,0-2.7-1.8-2.7-3.9l0,0c0-2.2,1.2-3.9,2.7-3.9h64.4
		C165,334.6,166.2,336.4,166.2,338.6L166.2,338.6z"/>
	<g>
		<g>
			<g>
				<path fill="#10722E" d="M154.2,330.1v-0.8C154.2,329.5,154.2,329.8,154.2,330.1L154.2,330.1z"/>
				<path fill="#10722E" d="M116.7,330.1L116.7,330.1c0-0.3,0-0.6,0-0.8V330.1z"/>
				<path fill="#10722E" d="M135.4,308.9c-10.4,0-18.8,9.1-18.8,20.3c0,0.3,0,0.6,0,0.8h37.5c0-0.3,0-0.6,0-0.8
					C154.2,318,145.8,308.9,135.4,308.9z"/>
			</g>
			<g>
				<path fill="#10722E" d="M168.4,338.3"/>
				<path fill="#10722E" d="M168.3,339.1L168.3,339.1"/>
				<path fill="#10722E" d="M130.8,339.1L130.8,339.1c0-0.3,0-0.5,0-0.8V339.1z"/>
				<path fill="#10722E" d="M149.6,319.5c-10.3,0-18.7,8.3-18.8,18.6c0.4,0.4,0.6,0.6,1,0.9h35.6c0.5,0,1-0.4,1-0.9
					C168.3,327.8,159.9,319.5,149.6,319.5z"/>
			</g>
			<g>
				<path fill="#10722E" d="M136.3,339.1v-0.8C136.3,338.5,136.3,338.8,136.3,339.1L136.3,339.1z"/>
				<path fill="#10722E" d="M98.8,339.1L98.8,339.1c0-0.3,0-0.5,0-0.8V339.1z"/>
				<path fill="#10722E" d="M117.5,319.5c-10.4,0-18.8,8.4-18.8,18.8c0,0.3,0,0.5,0,0.8h37.5c0-0.3,0-0.5,0-0.8
					C136.3,327.9,127.9,319.5,117.5,319.5z"/>
			</g>
		</g>
		<path fill="#10722E" d="M168.3,338.6c0,2.2-1.2,3.9-2.7,3.9h-64.4c-1.5,0-2.7-1.8-2.7-3.9l0,0c0-2.2,1.2-3.9,2.7-3.9h64.4
			C167.1,334.7,168.3,336.5,168.3,338.6L168.3,338.6z"/>
	</g>
	<ellipse fill="#0F4720" cx="350.8" cy="341.5" rx="41" ry="7.5"/>
	<g>
		<g>
			<path fill="#0D3F1E" d="M378.8,328v-0.8C378.8,327.4,378.8,327.7,378.8,328L378.8,328z"/>
			<path fill="#0D3F1E" d="M341.2,328L341.2,328c0-0.3,0-0.6,0-0.8V328z"/>
			<path fill="#0D3F1E" d="M360,306.9c-10.4,0-18.8,9.1-18.8,20.3c0,0.3,0,0.6,0,0.8h37.5c0-0.3,0-0.6,0-0.8
				C378.8,315.9,370.4,306.9,360,306.9z"/>
		</g>
		<g>
			<path fill="#0D3F1E" d="M392.9,336.2"/>
			<path fill="#0D3F1E" d="M392.9,337L392.9,337"/>
			<path fill="#0D3F1E" d="M355.4,337L355.4,337c0-0.3,0-0.5,0-0.8V337z"/>
			<path fill="#0D3F1E" d="M374.2,317.4c-10.3,0-18.7,8.3-18.8,18.6c0.4,0.4,0.6,0.6,1,0.9H392c0.5,0,1-0.4,1-0.9
				C392.9,325.7,384.5,317.4,374.2,317.4z"/>
		</g>
		<g>
			<path fill="#0D3F1E" d="M360.9,337v-0.8C360.9,336.5,360.9,336.7,360.9,337L360.9,337z"/>
			<path fill="#0D3F1E" d="M323.3,337L323.3,337c0-0.3,0-0.5,0-0.8V337z"/>
			<path fill="#0D3F1E" d="M342.1,317.4c-10.4,0-18.8,8.4-18.8,18.8c0,0.3,0,0.5,0,0.8h37.5c0-0.3,0-0.5,0-0.8
				C360.9,325.8,352.5,317.4,342.1,317.4z"/>
		</g>
	</g>
	<path fill="#0D3F1E" d="M392.9,336.6c0,2.2-1.2,3.9-2.7,3.9h-64.4c-1.5,0-2.7-1.8-2.7-3.9l0,0c0-2.2,1.2-3.9,2.7-3.9h64.4
		C391.7,332.6,392.9,334.4,392.9,336.6L392.9,336.6z"/>
	<g>
		<g>
			<g>
				<path fill="#10722E" d="M380.9,328.3v-0.8C380.9,327.8,380.8,328,380.9,328.3L380.9,328.3z"/>
				<path fill="#10722E" d="M343.3,328.3L343.3,328.3c0-0.3,0-0.6,0-0.8V328.3z"/>
				<path fill="#10722E" d="M362.1,307.2c-10.4,0-18.8,9.1-18.8,20.3c0,0.3,0,0.6,0,0.8h37.5c0-0.3,0-0.6,0-0.8
					C380.9,316.3,372.5,307.2,362.1,307.2z"/>
			</g>
			<g>
				<path fill="#10722E" d="M395,336.5"/>
				<path fill="#10722E" d="M395,337.3L395,337.3"/>
				<path fill="#10722E" d="M357.5,337.3L357.5,337.3c0-0.3,0-0.5,0-0.8V337.3z"/>
				<path fill="#10722E" d="M376.3,317.8c-10.3,0-18.7,8.3-18.8,18.6c0.4,0.4,0.6,0.6,1,0.9h35.6c0.5,0,1-0.4,1-0.9
					C394.9,326.1,386.6,317.8,376.3,317.8z"/>
			</g>
			<g>
				<path fill="#10722E" d="M363,337.3v-0.8C363,336.8,363,337,363,337.3L363,337.3z"/>
				<path fill="#10722E" d="M325.4,337.3L325.4,337.3c0-0.3,0-0.5,0-0.8V337.3z"/>
				<path fill="#10722E" d="M344.2,317.8c-10.4,0-18.8,8.4-18.8,18.8c0,0.3,0,0.5,0,0.8h37.5c0-0.3,0-0.5,0-0.8
					C363,326.2,354.6,317.8,344.2,317.8z"/>
			</g>
		</g>
		<path fill="#10722E" d="M395,336.9c0,2.2-1.2,3.9-2.7,3.9h-64.4c-1.5,0-2.7-1.8-2.7-3.9l0,0c0-2.2,1.2-3.9,2.7-3.9h64.4
			C393.8,333,395,334.7,395,336.9L395,336.9z"/>
	</g>
</g>
<g id="Layer_9">
</g>
<g id="window">
	<g>
		<path fill="#282827" d="M222.3,133h-9.2v-13.6c0-2.4,1.8-4.3,4-4.3h1.5c2,0,3.6,1.7,3.6,3.8V133z"/>
		<path fill="#282827" d="M314.4,133h-9.2v-13.6c0-2.4,1.8-4.3,4-4.3h1.5c2,0,3.6,1.7,3.6,3.8V133z"/>
		<path fill="#282827" d="M231.3,198.6h-14.5v-21.6c0-3.7,2.9-6.8,6.4-6.8h2.4c3.2,0,5.7,2.7,5.7,6.1V198.6z"/>
		<path fill="#282827" d="M260.6,198.6h-14.5v-21.6c0-3.7,2.9-6.8,6.4-6.8h2.4c3.2,0,5.8,2.7,5.8,6.1V198.6z"/>
		<path fill="#282827" d="M289.6,198.6h-14.5v-21.6c0-3.7,2.9-6.8,6.4-6.8h2.4c3.2,0,5.8,2.7,5.8,6.1V198.6z"/>
		<path fill="#282827" d="M318.6,198.6h-14.5v-21.6c0-3.7,2.9-6.8,6.4-6.8h2.4c3.2,0,5.8,2.7,5.8,6.1V198.6z"/>
		<path fill="#282827" d="M360.8,228.6h-14.5v-21.6c0-3.7,2.9-6.8,6.4-6.8h2.4c3.2,0,5.8,2.7,5.8,6.1V228.6z"/>
		<path fill="#282827" d="M390.1,228.6h-14.5v-21.6c0-3.7,2.9-6.8,6.4-6.8h2.4c3.2,0,5.8,2.7,5.8,6.1V228.6z"/>
		<path fill="#282827" d="M360.8,275.6h-14.5v-21.6c0-3.7,2.9-6.8,6.4-6.8h2.4c3.2,0,5.8,2.7,5.8,6.1V275.6z"/>
		<path fill="#282827" d="M390.1,275.6h-14.5v-21.6c0-3.7,2.9-6.8,6.4-6.8h2.4c3.2,0,5.8,2.7,5.8,6.1V275.6z"/>
		<path fill="#282827" d="M156.8,228.6h-14.5v-21.6c0-3.7,2.9-6.8,6.4-6.8h2.4c3.2,0,5.8,2.7,5.8,6.1V228.6z"/>
		<path fill="#282827" d="M186.1,228.6h-14.5v-21.6c0-3.7,2.9-6.8,6.4-6.8h2.4c3.2,0,5.8,2.7,5.8,6.1V228.6z"/>
		<path fill="#282827" d="M156.8,275.6h-14.5v-21.6c0-3.7,2.9-6.8,6.4-6.8h2.4c3.2,0,5.8,2.7,5.8,6.1V275.6z"/>
		<path fill="#282827" d="M186.1,275.6h-14.5v-21.6c0-3.7,2.9-6.8,6.4-6.8h2.4c3.2,0,5.8,2.7,5.8,6.1V275.6z"/>
		<path fill="#282827" d="M271.1,106.9h-14.5V85.3c0-3.7,2.9-6.8,6.4-6.8h2.4c3.2,0,5.8,2.7,5.8,6.1V106.9z"/>
	</g>
</g>
</svg>
