<?xml version="1.0" encoding="utf-8"?>
<!-- Generator: Adobe Illustrator 17.1.0, SVG Export Plug-In . SVG Version: 6.00 Build 0)  -->
<!DOCTYPE svg PUBLIC "-//W3C//DTD SVG 1.1//EN" "http://www.w3.org/Graphics/SVG/1.1/DTD/svg11.dtd">
<svg version="1.1" xmlns="http://www.w3.org/2000/svg" xmlns:xlink="http://www.w3.org/1999/xlink" x="0px" y="0px"
	 viewBox="0 0 498 388.5" enable-background="new 0 0 498 388.5" xml:space="preserve">
<g id="Layer_1" display="none">
	
		<image display="inline" overflow="visible" width="626" height="626" xlink:href="../fairy-tale-castle_23-2147514965.jpg"  transform="matrix(1 0 0 1 -82 -40)">
	</image>
</g>
<g id="Layer_5">
	<g>
		<path fill="#BF872C" d="M8,341.4c0,0-17.9,30.7,3.9,37.1c21.8,6.4,250.5,17.2,468.2,0c9.5-0.8,28.2-12.8,9-37.1
			c-4.3-5.5-76.5-6.8-163.7-6.2c-5.8,0-11.7,0.1-17.6,0.1c-5.9,0.8-11.9-0.4-17.9,0.2c-6,0.2-12.1-0.9-18.1,0.2
			c-6.1-0.1-12.2,0.2-18.3,0.2C131.5,337.7,8,341.4,8,341.4z"/>
		<path fill="#D0962E" d="M496.5,366.1c0,0,6.9-26.9-15.4-33.3c-22.3-6.4-227.6-24.3-455.7-3.8c-9.7,0.9-23.3,7.5-24.4,35.9
			c-0.2,4.8,133.2,8.7,261.7,7.8C381.7,371.7,496.5,366.1,496.5,366.1z"/>
		<path fill="#0C3A1D" d="M19.9,323.1c0,0,3,9.1,16.1,9.9c20.8,1.3,215.9,5.4,428.4,0.8c9.1-0.2,16.8-1.9,17.8-8.3
			c0.2-1.1-125.6-1.7-245.2-1.5C126,324.3,19.9,323.1,19.9,323.1z"/>
		<path fill="#177742" d="M130.7,277.2c-59.6,0-74.6,27.7-110.8,45.9l272.6,1.7C263.8,311.2,190.3,277.2,130.7,277.2z"/>
		<path fill="#177742" d="M331.8,286.2c-79.6,0-109.7,23.3-158,38.6l308.5,0.8C446.6,315.5,411.3,286.2,331.8,286.2z"/>
	</g>
</g>
<g id="Layer_2" display="none">
</g>
<g id="Layer_4">
	<rect x="293" y="94.4" fill="#ADADAD" width="32.6" height="61"/>
	<rect x="201.5" y="94" fill="#ADADAD" width="32.6" height="70.6"/>
	<rect x="238" y="61" fill="#ADADAD" width="51.7" height="96.7"/>
	<polygon fill="#8D9093" points="195.5,303 198.3,303 198.3,142 193.7,144.2 	"/>
	<g>
		<path fill="#8D9093" d="M125.2,177.5l-0.1,9.2c0,2.9-2.1,5.3-4.5,5.3h-0.3c-1.9,0-3.4-1.8-3.4-4.1l0.1-6.7l-4.9,2.2
			c-0.5,0.2,0,8.2,0,8.8c0,7.7,0,15.3,0,23c0,32,0.1,63.9,0.1,95.9L130,326l1.5-58.8l-1.4-91.9L125.2,177.5z"/>
	</g>
	<g>
		<path fill="#8D9093" d="M193.4,144.2l-0.1,9.2c0,2.9-2.1,5.3-4.5,5.3h-0.3c-1.9,0-3.4-1.8-3.4-4.1l0.1-6.7l-4.9,2.2
			c-0.5,0.2,0,8.2,0,8.8c0,7.7,0,15.3,0,23c0,32,0.1,63.9,0.1,95.9l17.8,15.5l0.1-151.3L193.4,144.2z"/>
	</g>
	<g>
		<defs>
			<rect id="SVGID_1_" x="128.6" y="175.3" width="271.9" height="150.7"/>
		</defs>
		<clipPath id="SVGID_2_">
			<use xlink:href="#SVGID_1_"  overflow="visible"/>
		</clipPath>
		<g clip-path="url(#SVGID_2_)">
			<path fill="#ADADAD" d="M392.4,175v7.8c0,2-2.1,3.5-4.8,3.5h-1.8c-2.4,0-4.3-1.4-4.3-3.2V175h-11.5v7.8c0,2-2.1,3.5-4.8,3.5h-1.8
				c-2.4,0-4.3-1.4-4.3-3.2V175h-10v7.8c0,2-2.1,3.5-4.8,3.5h-1.8c-2.4,0-4.3-1.4-4.3-3.2V175h-11v7.8c0,2-2.1,3.5-4.8,3.5h-1.8
				c-2.4,0-4.3-1.4-4.3-3.2V175h-10.9v7.8c0,2-2.1,3.5-4.8,3.5h-1.8c-2.4,0-4.3-1.4-4.3-3.2V175h-11v7.8c0,2-2.1,3.5-4.8,3.5h-1.8
				c-2.4,0-4.3-1.4-4.3-3.2V175h-8.4v177h136V175H392.4z"/>
		</g>
		<g clip-path="url(#SVGID_2_)">
			<path fill="#ADADAD" d="M257.8,175v7.8c0,2-2.1,3.5-4.8,3.5h-1.8c-2.4,0-4.3-1.4-4.3-3.2V175h-11.5v7.8c0,2-2.1,3.5-4.8,3.5h-1.8
				c-2.4,0-4.3-1.4-4.3-3.2V175h-10v7.8c0,2-2.1,3.5-4.8,3.5h-1.8c-2.4,0-4.3-1.4-4.3-3.2V175h-11v7.8c0,2-2.1,3.5-4.8,3.5h-1.8
				c-2.4,0-4.3-1.4-4.3-3.2V175H171v7.8c0,2-2.1,3.5-4.8,3.5h-1.8c-2.4,0-4.3-1.4-4.3-3.2V175h-11v7.8c0,2-2.1,3.5-4.8,3.5h-1.8
				c-2.4,0-4.3-1.4-4.3-3.2V175H130v177h136V175H257.8z"/>
		</g>
		<g clip-path="url(#SVGID_2_)">
			<g>
				<path fill="#ADADAD" d="M346.3,166.6c7.7,0,7.7-11.9,0-11.9C338.7,154.7,338.7,166.6,346.3,166.6L346.3,166.6z"/>
			</g>
		</g>
		<g clip-path="url(#SVGID_2_)">
			<g>
				<path fill="#ADADAD" d="M346.3,166.6c7.7,0,7.7-11.9,0-11.9C338.7,154.7,338.7,166.6,346.3,166.6L346.3,166.6z"/>
			</g>
		</g>
	</g>
	<path fill="#9F9FA0" d="M238,61.4"/>
	<g>
		<path fill="#8D9093" d="M202.6,148c0.3,1.5,4.5,22.9,3.5,23.1c0.7-0.1,1.4-0.2,2.1-0.2c15.1,0,30.2,0.9,45.4,1.2
			c14.4,0.2,28.8,0.1,43.3,0.1h35.7V142h-8.2v8.1c0,2-2.1,3.7-4.8,3.7h-1.8c-2.4,0-4.3-1.5-4.3-3.3V142H302v8.1c0,2-2.1,3.7-4.8,3.7
			h-1.8c-2.4,0-4.3-1.5-4.3-3.3V142h-10v8.1c0,2-2.1,3.7-4.8,3.7h-1.8c-2.4,0-4.3-1.5-4.3-3.3V142h-11v8.1c0,2-2.1,3.7-4.8,3.7h-1.8
			c-2.4,0-4.3-1.5-4.3-3.3V142h-10.9v8.1c0,2-2.1,3.7-4.8,3.7H231c-2.4,0-4.3-1.5-4.3-3.3V142h-11v8.1c0,2-2.1,3.7-4.8,3.7h-1.8
			c-2.4,0-4.3-1.5-4.3-3.3V142c0,0-5.1,0-5.1,0C201.4,142,202.2,145.7,202.6,148z"/>
	</g>
	<g>
		<path fill="#A8A8A8" d="M325.9,142v8.1c0,2-2.1,3.7-4.8,3.7h-1.8c-2.4,0-4.3-1.5-4.3-3.3V142h-11.5v8.1c0,2-2.1,3.7-4.8,3.7H297
			c-2.4,0-4.3-1.5-4.3-3.3V142h-10v8.1c0,2-2.1,3.7-4.8,3.7h-1.8c-2.4,0-4.3-1.5-4.3-3.3V142h-11v8.1c0,2-2.1,3.7-4.8,3.7h-1.8
			c-2.4,0-4.3-1.5-4.3-3.3V142h-10.9v8.1c0,2-2.1,3.7-4.8,3.7h-1.8c-2.4,0-4.3-1.5-4.3-3.3V142h-11v8.1c0,2-2.1,3.7-4.8,3.7h-1.8
			c-2.4,0-4.3-1.5-4.3-3.3V142h-8.4v184h136V142H325.9z"/>
	</g>
	<path fill="#9B9B9B" d="M249.7,131.1V125c-4.6,1.2-9.4,2.5-11.7,4.7v7.2C240,134.5,244.8,132.5,249.7,131.1z"/>
	<path fill="#8F9193" d="M201.5,104.9c0,0,11.7-7.5,32.6,0v-6.1h-32.6V104.9z"/>
	<path fill="#990000" d="M198.2,94.1c-1.1,2.4,0.2,5.6,2.4,5.6h17.2h17.2c2.2,0,3.5-3.1,2.4-5.6l-8.5-18.3l-8.7-18.7
		c-1.1-2.4-3.7-2.4-4.8,0l-8.7,18.7L198.2,94.1z"/>
	<path fill="#8F9193" d="M293,104.9c0,0,11.7-7.5,32.6,0v-6.1H293V104.9z"/>
	<path fill="#990000" d="M289.8,94.1c-1.1,2.4,0.2,5.6,2.4,5.6h17.2h17.2c2.2,0,3.5-3.1,2.4-5.6l-8.5-18.3l-8.7-18.7
		c-1.1-2.4-3.7-2.4-4.8,0l-8.7,18.7L289.8,94.1z"/>
	<path fill="#8F9193" d="M238,79.7c0,0,18.5-11.9,51.6,0V70H238V79.7z"/>
	<path fill="#990000" d="M233.1,63.4c-1.7,3.9,0.3,9,3.7,9h26.1H289c3.3,0,5.4-5,3.7-9l-12.9-29.4L266.6,3.8c-1.7-3.8-5.7-3.8-7.3,0
		l-13.2,30.1L233.1,63.4z"/>
</g>
<g id="Layer_7">
	<rect x="200.3" y="318.5" fill="#9B9B9B" width="15.8" height="6"/>
	<rect x="134.4" y="280.1" fill="#939393" width="15.8" height="6"/>
	<rect x="148.9" y="233.9" fill="#939393" width="15.8" height="6"/>
	<rect x="177.2" y="210.4" fill="#939393" width="15.8" height="6"/>
	<rect x="208.3" y="293.7" fill="#9B9B9B" width="15.8" height="6"/>
	<rect x="220.3" y="269" fill="#9B9B9B" width="15.8" height="6"/>
	<rect x="210.9" y="262.1" fill="#8C8C8C" width="15.8" height="6"/>
	<rect x="256.4" y="230.7" fill="#9B9B9B" width="15.8" height="6"/>
	<rect x="213.5" y="215.6" fill="#9B9B9B" width="15.8" height="6"/>
	<rect x="293.6" y="210.4" fill="#9B9B9B" width="15.8" height="6"/>
	<rect x="205.5" y="179" fill="#9B9B9B" width="15.8" height="6"/>
	<rect x="301.4" y="311.5" fill="#9B9B9B" width="15.8" height="6"/>
	<rect x="318.6" y="294.4" fill="#9B9B9B" width="15.8" height="6"/>
	<rect x="266.1" y="185" fill="#9B9B9B" width="15.8" height="6"/>
	<rect x="310.7" y="266" fill="#9B9B9B" width="15.8" height="6"/>
	<rect x="302.7" y="239" fill="#8C8C8C" width="15.8" height="6"/>
	<rect x="314.5" y="230.7" fill="#9B9B9B" width="15.8" height="6"/>
	<rect x="131.5" y="313.8" fill="#939393" width="15.8" height="6"/>
	<rect x="163.7" y="294.4" fill="#939393" width="15.8" height="6"/>
	<rect x="178.2" y="311" fill="#939393" width="15.8" height="6"/>
	<rect x="375" y="306" fill="#939393" width="15.8" height="6"/>
	<rect x="343" y="298.3" fill="#939393" width="15.8" height="6"/>
	<rect x="367.7" y="233.9" fill="#939393" width="15.8" height="6"/>
	<rect x="340.4" y="207.3" fill="#939393" width="15.8" height="6"/>
	<rect x="382.2" y="283.2" fill="#939393" width="15.8" height="6"/>
	<rect x="233.8" y="319.1" fill="#9B9B9B" width="15.8" height="6"/>
</g>
<g id="door">
	<path fill="#492107" d="M295.4,329.1H243v-52.9c0-9.1,10.3-16.6,23-16.6h8.6c11.5,0,20.8,6.7,20.8,14.9V329.1z"/>
	<g>
		<path fill="#3A1906" d="M252.1,329.1h3v-67.4c-1.1,0.4-2.1,0.9-3,1.4V329.1z"/>
		<path fill="#3A1906" d="M267.2,329.1v-69.3H266c-0.6,0-1.3,0-1.9,0.1v69.3h31.2v-54.5c0-1.6-0.3-3.1-1-4.6v59h-3v-63.2
			c-0.9-0.9-1.9-1.7-3-2.4v65.6h-3v-67.2c-1-0.4-2-0.8-3-1.1v68.3h-3v-69c-1-0.2-2-0.3-3-0.3v69.3h-3v-69.3h-3v69.3"/>
		<path fill="#3A1906" d="M246,268.1v61l3,0v-64C247.9,266,246.9,267,246,268.1z"/>
		<path fill="#3A1906" d="M258.1,329.1h3v-69c-1,0.2-2,0.4-3,0.6V329.1z"/>
	</g>
</g>
<g id="Layer_9">
</g>
<g id="window">
	<g>
		<path fill="#282827" d="M222.3,132h-9.2v-13.6c0-2.4,1.8-4.3,4-4.3h1.5c2,0,3.6,1.7,3.6,3.8V132z"/>
		<path fill="#282827" d="M314.4,132h-9.2v-13.6c0-2.4,1.8-4.3,4-4.3h1.5c2,0,3.6,1.7,3.6,3.8V132z"/>
		<path fill="#282827" d="M231.3,197.6h-14.5v-21.6c0-3.7,2.9-6.8,6.4-6.8h2.4c3.2,0,5.7,2.7,5.7,6.1V197.6z"/>
		<path fill="#282827" d="M260.6,197.6h-14.5v-21.6c0-3.7,2.9-6.8,6.4-6.8h2.4c3.2,0,5.8,2.7,5.8,6.1V197.6z"/>
		<path fill="#282827" d="M289.6,197.6h-14.5v-21.6c0-3.7,2.9-6.8,6.4-6.8h2.4c3.2,0,5.8,2.7,5.8,6.1V197.6z"/>
		<path fill="#282827" d="M318.6,197.6h-14.5v-21.6c0-3.7,2.9-6.8,6.4-6.8h2.4c3.2,0,5.8,2.7,5.8,6.1V197.6z"/>
		<path fill="#282827" d="M360.8,227.6h-14.5v-21.6c0-3.7,2.9-6.8,6.4-6.8h2.4c3.2,0,5.8,2.7,5.8,6.1V227.6z"/>
		<path fill="#282827" d="M390.1,227.6h-14.5v-21.6c0-3.7,2.9-6.8,6.4-6.8h2.4c3.2,0,5.8,2.7,5.8,6.1V227.6z"/>
		<path fill="#282827" d="M360.8,274.6h-14.5v-21.6c0-3.7,2.9-6.8,6.4-6.8h2.4c3.2,0,5.8,2.7,5.8,6.1V274.6z"/>
		<path fill="#282827" d="M390.1,274.6h-14.5v-21.6c0-3.7,2.9-6.8,6.4-6.8h2.4c3.2,0,5.8,2.7,5.8,6.1V274.6z"/>
		<path fill="#282827" d="M156.8,227.6h-14.5v-21.6c0-3.7,2.9-6.8,6.4-6.8h2.4c3.2,0,5.8,2.7,5.8,6.1V227.6z"/>
		<path fill="#282827" d="M186.1,227.6h-14.5v-21.6c0-3.7,2.9-6.8,6.4-6.8h2.4c3.2,0,5.8,2.7,5.8,6.1V227.6z"/>
		<path fill="#282827" d="M156.8,274.6h-14.5v-21.6c0-3.7,2.9-6.8,6.4-6.8h2.4c3.2,0,5.8,2.7,5.8,6.1V274.6z"/>
		<path fill="#282827" d="M186.1,274.6h-14.5v-21.6c0-3.7,2.9-6.8,6.4-6.8h2.4c3.2,0,5.8,2.7,5.8,6.1V274.6z"/>
		<path fill="#282827" d="M271.1,105.9h-14.5V84.3c0-3.7,2.9-6.8,6.4-6.8h2.4c3.2,0,5.8,2.7,5.8,6.1V105.9z"/>
	</g>
</g>
<g id="Layer_10">
	<g>
		<g>
			<path fill="#0E662D" d="M135.5,319.9v-2C135.5,318.6,135.5,319.3,135.5,319.9L135.5,319.9z"/>
			<path fill="#0E662D" d="M49.1,319.9L49.1,319.9c0-0.6,0-1.3,0-2V319.9z"/>
			<path fill="#0E662D" d="M92.3,271.3c-23.9,0-43.2,20.9-43.2,46.7c0,0.7,0,1.3,0,2h86.3c0-0.6,0-1.3,0-2
				C135.5,292.2,116.2,271.3,92.3,271.3z"/>
		</g>
		<g>
			<path fill="#0E662D" d="M168.1,340.6v-1.8C168.1,339.4,168.1,340,168.1,340.6L168.1,340.6z"/>
			<path fill="#0E662D" d="M81.7,340.6L81.7,340.6c0-0.6,0-1.2,0-1.8V340.6z"/>
			<path fill="#0E662D" d="M124.9,295.6c-23.9,0-43.2,19.3-43.2,43.2c0,0.6,0,1.2,0,1.8h86.3c0-0.6,0-1.2,0-1.8
				C168.1,314.9,148.8,295.6,124.9,295.6z"/>
		</g>
		<g>
			<path fill="#0E662D" d="M94.4,340.6v-1.8C94.4,339.4,94.3,340,94.4,340.6L94.4,340.6z"/>
			<path fill="#0E662D" d="M8,340.6L8,340.6c0-0.6,0-1.2,0-1.8V340.6z"/>
			<path fill="#0E662D" d="M51.2,295.6C27.3,295.6,8,314.9,8,338.8c0,0.6,0,1.2,0,1.8h86.3c0-0.6,0-1.2,0-1.8
				C94.4,314.9,75,295.6,51.2,295.6z"/>
		</g>
	</g>
	<g>
		<g>
			<path fill="#0E662D" d="M469,329.4v-1.6C469,328.4,469,328.9,469,329.4L469,329.4z"/>
			<path fill="#0E662D" d="M400.2,329.4L400.2,329.4c0-0.5,0-1,0-1.6V329.4z"/>
			<path fill="#0E662D" d="M434.6,290.7c-19,0-34.4,16.6-34.4,37.2c0,0.5,0,1,0,1.6h68.7c0-0.5,0-1,0-1.6
				C469,307.4,453.6,290.7,434.6,290.7z"/>
		</g>
		<g>
			<path fill="#0E662D" d="M494.9,345.9v-1.4C494.9,345,494.9,345.4,494.9,345.9L494.9,345.9z"/>
			<path fill="#0E662D" d="M426.1,345.9L426.1,345.9c0-0.5,0-1,0-1.4V345.9z"/>
			<path fill="#0E662D" d="M460.5,310.1c-19,0-34.4,15.4-34.4,34.4c0,0.5,0,1,0,1.4h68.7c0-0.5,0-1,0-1.4
				C494.9,325.5,479.5,310.1,460.5,310.1z"/>
		</g>
		<g>
			<path fill="#0E662D" d="M436.2,345.9v-1.4C436.2,345,436.2,345.4,436.2,345.9L436.2,345.9z"/>
			<path fill="#0E662D" d="M367.4,345.9L367.4,345.9c0-0.5,0-1,0-1.4V345.9z"/>
			<path fill="#0E662D" d="M401.8,310.1c-19,0-34.4,15.4-34.4,34.4c0,0.5,0,1,0,1.4h68.7c0-0.5,0-1,0-1.4
				C436.2,325.5,420.8,310.1,401.8,310.1z"/>
		</g>
	</g>
	<path fill="#0C3A1D" d="M497.1,354c0,0,2.5-14.4-20-20c-22.4-5.6-209-7.6-438.3-3.3c-9.8,0.2-31.1-1.6-36,19.2
		c-0.6,2.4,2.5,8.6,21.1,9.8c3.1,0.2,14.1-7.2,17.6-3.8c3.5-1.6,7.3-6,11.2,0.5c3.9-9.1,8-4,12.3,0.4c4.3,8.5,8.7-7.3,13.3,0.4
		c4.6-5.3,9.4,3.7,14.3,0.3c4.9,6,10,0.2,15.1,0.3c9.1,0.1,18.5,4.7,28.3,4.7c4.9,0,9.8-4.4,14.8-4.3c5-0.5,10.1-3.3,15.2,0.1
		c5.1-3.3,10.3,2.4,15.6,0c5.2-2.2,10.5-1.9,15.8,0c5.3-2.3,10.7-3,16,0c5.4-1,10.8-1.6,16.2-0.1c5.4,0,10.8-0.1,16.2-0.1
		c3.4,0,6.8,0,10.2-0.1c3.4-1.8,6.8-1.3,10.2-0.1c3.4,0.1,6.8,2.6,10.1-0.1c3.4,1.6,6.7-1.4,10.1-0.1c3.4-0.4,6.7,0.7,10-0.1
		c3.3,2.4,6.7,5.3,10,4.3c3.3,0,6.6-4.5,9.9-4.5c5.7-0.1,11.4-0.1,17-0.2c5.6,1.2,11.2,2.1,16.7-0.2c5.5-2.8,10.9,10.2,16.2-0.2
		c5.3,6.3,10.5,7.3,15.6-0.2c5.1-4.6,10.1-4.4,15-0.2c4.9,1.7,9.6-2.9,14.3-0.2c4.6-1.1,9.1,1.5,13.4-0.2c2.2-1.4,4.3-1.3,6.4-0.9
		c2.1,0.3,4.1,1,6.2,0.7c2,0.8,4,1.8,5.9-0.1c1.9-2.1,3.8-3.4,5.7-0.1c5.9-1.3,11.4,3.1,16.3,3c4.9-0.2,9.4-6.1,13.3-3.6
		c3.9-0.4,7.2-3.3,9.9-0.2c2.7-0.1,4.8-0.1,6.2-0.1C495.8,354.2,497.1,354,497.1,354z"/>
	<g>
		<g>
			<path fill="#10722E" d="M383.6,314.3v-1.4C383.6,313.3,383.6,313.8,383.6,314.3L383.6,314.3z"/>
			<path fill="#10722E" d="M323.7,314.3L323.7,314.3c0-0.5,0-0.9,0-1.4V314.3z"/>
			<path fill="#10722E" d="M353.6,279.3c-16.5,0-29.9,15-29.9,33.5c0,0.5,0,0.9,0,1.4h59.8c0-0.5,0-0.9,0-1.4
				C383.6,294.3,370.2,279.3,353.6,279.3z"/>
		</g>
		<g>
			<path fill="#10722E" d="M406.2,329.1v-1.3C406.2,328.3,406.2,328.7,406.2,329.1L406.2,329.1z"/>
			<path fill="#10722E" d="M346.3,329.1L346.3,329.1c0-0.4,0-0.9,0-1.3V329.1z"/>
			<path fill="#10722E" d="M376.2,296.8c-16.5,0-29.9,13.9-29.9,31.1c0,0.4,0,0.9,0,1.3h59.8c0-0.4,0-0.9,0-1.3
				C406.2,310.7,392.8,296.8,376.2,296.8z"/>
		</g>
		<g>
			<path fill="#10722E" d="M355,329.1v-1.3C355,328.3,355,328.7,355,329.1L355,329.1z"/>
			<path fill="#10722E" d="M295.2,329.1L295.2,329.1c0-0.4,0-0.9,0-1.3V329.1z"/>
			<path fill="#10722E" d="M325.1,296.8c-16.5,0-29.9,13.9-29.9,31.1c0,0.4,0,0.9,0,1.3H355c0-0.4,0-0.9,0-1.3
				C355,310.7,341.6,296.8,325.1,296.8z"/>
		</g>
	</g>
	<g>
		<g>
			<path fill="#0A2E17" d="M393.8,331.6v-0.8C393.8,331.1,393.8,331.4,393.8,331.6L393.8,331.6z"/>
			<path fill="#0A2E17" d="M356.3,331.6L356.3,331.6c0-0.3,0-0.6,0-0.8V331.6z"/>
			<path fill="#0A2E17" d="M375,310.5c-10.4,0-18.8,9.1-18.8,20.3c0,0.3,0,0.6,0,0.8h37.5c0-0.3,0-0.6,0-0.8
				C393.8,319.6,385.4,310.5,375,310.5z"/>
		</g>
		<g>
			<path fill="#0A2E17" d="M408,340.6v-0.8C408,340.1,408,340.4,408,340.6L408,340.6z"/>
			<path fill="#0A2E17" d="M370.4,340.6L370.4,340.6c0-0.3,0-0.5,0-0.8V340.6z"/>
			<path fill="#0A2E17" d="M389.2,321.1c-10.4,0-18.8,8.4-18.8,18.8c0,0.3,0,0.5,0,0.8H408c0-0.3,0-0.5,0-0.8
				C408,329.5,399.6,321.1,389.2,321.1z"/>
		</g>
		<g>
			<path fill="#0A2E17" d="M375.9,340.6v-0.8C375.9,340.1,375.9,340.4,375.9,340.6L375.9,340.6z"/>
			<path fill="#0A2E17" d="M338.4,340.6L338.4,340.6c0-0.3,0-0.5,0-0.8V340.6z"/>
			<path fill="#0A2E17" d="M357.2,321.1c-10.4,0-18.8,8.4-18.8,18.8c0,0.3,0,0.5,0,0.8h37.5c0-0.3,0-0.5,0-0.8
				C375.9,329.5,367.5,321.1,357.2,321.1z"/>
		</g>
	</g>
	<g>
		<g>
			<path fill="#0A2E17" d="M220.2,315.5v-1.3C220.2,314.6,220.2,315,220.2,315.5L220.2,315.5z"/>
			<path fill="#0A2E17" d="M162.3,315.5L162.3,315.5c0-0.4,0-0.9,0-1.3V315.5z"/>
			<path fill="#0A2E17" d="M191.3,282.4c-16,0-29,14.2-29,31.7c0,0.4,0,0.9,0,1.3h57.9c0-0.4,0-0.9,0-1.3
				C220.2,296.6,207.3,282.4,191.3,282.4z"/>
		</g>
		<g>
			<path fill="#0A2E17" d="M242.1,329.5v-1.2C242.1,328.7,242.1,329.1,242.1,329.5L242.1,329.5z"/>
			<path fill="#0A2E17" d="M184.2,329.5L184.2,329.5c0-0.4,0-0.8,0-1.2V329.5z"/>
			<path fill="#0A2E17" d="M213.1,298.9c-16,0-29,13.2-29,29.4c0,0.4,0,0.8,0,1.2h57.9c0-0.4,0-0.8,0-1.2
				C242.1,312.1,229.1,298.9,213.1,298.9z"/>
		</g>
		<g>
			<path fill="#0A2E17" d="M192.6,329.5v-1.2C192.6,328.7,192.6,329.1,192.6,329.5L192.6,329.5z"/>
			<path fill="#0A2E17" d="M134.7,329.5L134.7,329.5c0-0.4,0-0.8,0-1.2V329.5z"/>
			<path fill="#0A2E17" d="M163.6,298.9c-16,0-29,13.2-29,29.4c0,0.4,0,0.8,0,1.2h57.9c0-0.4,0-0.8,0-1.2
				C192.6,312.1,179.6,298.9,163.6,298.9z"/>
		</g>
	</g>
	<g>
		<g>
			<path fill="#10722E" d="M152.1,329v-0.8C152.1,328.4,152.1,328.7,152.1,329L152.1,329z"/>
			<path fill="#10722E" d="M114.6,329L114.6,329c0-0.3,0-0.6,0-0.8V329z"/>
			<path fill="#10722E" d="M133.3,307.9c-10.4,0-18.8,9.1-18.8,20.3c0,0.3,0,0.6,0,0.8h37.5c0-0.3,0-0.6,0-0.8
				C152.1,316.9,143.7,307.9,133.3,307.9z"/>
		</g>
		<g>
			<path fill="#10722E" d="M166.3,338v-0.8C166.3,337.5,166.3,337.7,166.3,338L166.3,338z"/>
			<path fill="#10722E" d="M128.7,338L128.7,338c0-0.3,0-0.5,0-0.8V338z"/>
			<path fill="#10722E" d="M147.5,318.4c-10.4,0-18.8,8.4-18.8,18.8c0,0.3,0,0.5,0,0.8h37.5c0-0.3,0-0.5,0-0.8
				C166.3,326.8,157.9,318.4,147.5,318.4z"/>
		</g>
		<g>
			<path fill="#10722E" d="M134.2,338v-0.8C134.2,337.5,134.2,337.7,134.2,338L134.2,338z"/>
			<path fill="#10722E" d="M96.7,338L96.7,338c0-0.3,0-0.5,0-0.8V338z"/>
			<path fill="#10722E" d="M115.4,318.4c-10.4,0-18.8,8.4-18.8,18.8c0,0.3,0,0.5,0,0.8h37.5c0-0.3,0-0.5,0-0.8
				C134.2,326.8,125.8,318.4,115.4,318.4z"/>
		</g>
	</g>
</g>
<g id="Layer_11">
	<path fill="#9B9B9B" d="M316.6,135.3v4.5c3.5,0.3,6.7,1,9.4,2v-4.3C323.4,136.4,320.2,135.7,316.6,135.3z"/>
	<path fill="#9B9B9B" d="M222.2,134.1v6.2c4.5,0.5,8.5,1.4,11.9,2.7v-5.9C230.8,135.7,226.7,134.7,222.2,134.1z"/>
</g>
</svg>
