<?xml version="1.0" encoding="utf-8"?>
<!-- Generator: Adobe Illustrator 17.1.0, SVG Export Plug-In . SVG Version: 6.00 Build 0)  -->
<!DOCTYPE svg PUBLIC "-//W3C//DTD SVG 1.1//EN" "http://www.w3.org/Graphics/SVG/1.1/DTD/svg11.dtd">
<svg version="1.1" xmlns="http://www.w3.org/2000/svg" xmlns:xlink="http://www.w3.org/1999/xlink" x="0px" y="0px"
	 viewBox="0 0 498 389.5" enable-background="new 0 0 498 389.5" xml:space="preserve">
<g id="Layer_12" display="none">
</g>
<g id="Layer_5">
	<g>
		<path fill="#BF872C" d="M8.1,343.1c0,0-17.9,30.7,3.9,37.1c21.8,6.4,250.5,17.2,468.2,0c9.5-0.8,28.2-12.8,9-37.1
			c-4.3-5.5-76.5-6.8-163.7-6.2c-5.8,0-11.7,0.1-17.6,0.1c-5.9,0.8-11.9-0.4-17.9,0.2c-6,0.2-12.1-0.9-18.1,0.2
			c-6.1-0.1-12.2,0.2-18.3,0.2C131.6,339.3,8.1,343.1,8.1,343.1z"/>
		<path fill="#D0962E" d="M496.6,367.7c0,0,6.9-26.9-15.4-33.3c-22.3-6.4-227.6-24.3-455.7-3.8c-9.7,0.9-23.3,7.5-24.4,35.9
			c-0.2,4.8,133.2,8.7,261.7,7.8C381.8,373.4,496.6,367.7,496.6,367.7z"/>
		<path fill="#0C3A1D" d="M19.9,324.8c0,0,3,9.1,16.1,9.9c20.8,1.3,215.9,5.4,428.4,0.8c9.1-0.2,16.8-1.9,17.8-8.3
			c0.2-1.1-125.6-1.7-245.2-1.5C126.1,326,19.9,324.8,19.9,324.8z"/>
		<path fill="#177742" d="M130.8,278.9c-59.6,0-74.6,27.7-110.8,45.9l272.6,1.7C263.9,312.9,190.3,278.9,130.8,278.9z"/>
		<path fill="#177742" d="M331.9,287.8c-79.6,0-109.7,23.3-158,38.6l308.5,0.8C446.7,317.2,411.4,287.8,331.9,287.8z"/>
	</g>
</g>
<g id="ปราสาท">
	<rect x="293.1" y="96" fill="#8D9093" width="32.6" height="61"/>
	<rect x="201.5" y="95.7" fill="#8D9093" width="32.6" height="70.6"/>
	<rect x="238.1" y="62.7" fill="#8D9093" width="51.7" height="96.7"/>
	<polygon fill="#8D9093" points="195.6,304.7 198.4,304.7 198.4,143.7 193.8,145.9 	"/>
	<g>
		<path fill="#77797A" d="M125.2,179.2l-0.1,9.2c0,2.9-2.1,5.3-4.5,5.3h-0.3c-1.9,0-3.4-1.8-3.4-4.1l0.1-6.7l-4.9,2.2
			c-0.5,0.2,0,8.2,0,8.8c0,7.7,0,15.3,0,23c0,32,0.1,63.9,0.1,95.9l17.8,14.9l1.5-58.8l-1.4-91.9L125.2,179.2z"/>
	</g>
	<g>
		<path fill="#77797A" d="M193.5,145.9l-0.1,9.2c0,2.9-2.1,5.3-4.5,5.3h-0.3c-1.9,0-3.4-1.8-3.4-4.1l0.1-6.7l-4.9,2.2
			c-0.5,0.2,0,8.2,0,8.8c0,7.7,0,15.3,0,23c0,32,0.1,63.9,0.1,95.9l17.8,15.5l0.1-151.3L193.5,145.9z"/>
	</g>
	<g>
		<defs>
			<rect id="SVGID_3_" x="128.7" y="177" width="271.9" height="150.7"/>
		</defs>
		<clipPath id="SVGID_2_">
			<use xlink:href="#SVGID_3_"  overflow="visible"/>
		</clipPath>
		<g clip-path="url(#SVGID_2_)">
			<path fill="#8D9093" d="M392.5,176.7v7.8c0,2-2.1,3.5-4.8,3.5H386c-2.4,0-4.3-1.4-4.3-3.2v-8.2h-11.5v7.8c0,2-2.1,3.5-4.8,3.5
				h-1.8c-2.4,0-4.3-1.4-4.3-3.2v-8.2h-10v7.8c0,2-2.1,3.5-4.8,3.5h-1.8c-2.4,0-4.3-1.4-4.3-3.2v-8.2h-11v7.8c0,2-2.1,3.5-4.8,3.5
				H321c-2.4,0-4.3-1.4-4.3-3.2v-8.2h-10.9v7.8c0,2-2.1,3.5-4.8,3.5h-1.8c-2.4,0-4.3-1.4-4.3-3.2v-8.2h-11v7.8c0,2-2.1,3.5-4.8,3.5
				h-1.8c-2.4,0-4.3-1.4-4.3-3.2v-8.2h-8.4v177h136v-177H392.5z"/>
		</g>
		<g clip-path="url(#SVGID_2_)">
			<path fill="#8D9093" d="M257.8,176.7v7.8c0,2-2.1,3.5-4.8,3.5h-1.8c-2.4,0-4.3-1.4-4.3-3.2v-8.2h-11.5v7.8c0,2-2.1,3.5-4.8,3.5
				H229c-2.4,0-4.3-1.4-4.3-3.2v-8.2h-10v7.8c0,2-2.1,3.5-4.8,3.5h-1.8c-2.4,0-4.3-1.4-4.3-3.2v-8.2h-11v7.8c0,2-2.1,3.5-4.8,3.5
				h-1.8c-2.4,0-4.3-1.4-4.3-3.2v-8.2h-10.9v7.8c0,2-2.1,3.5-4.8,3.5h-1.8c-2.4,0-4.3-1.4-4.3-3.2v-8.2h-11v7.8c0,2-2.1,3.5-4.8,3.5
				h-1.8c-2.4,0-4.3-1.4-4.3-3.2v-8.2h-8.4v177h136v-177H257.8z"/>
		</g>
		<g clip-path="url(#SVGID_2_)">
			<g>
				<path fill="#ADADAD" d="M346.4,168.3c7.7,0,7.7-11.9,0-11.9C338.7,156.4,338.7,168.3,346.4,168.3L346.4,168.3z"/>
			</g>
		</g>
		<g clip-path="url(#SVGID_2_)">
			<g>
				<path fill="#ADADAD" d="M346.4,168.3c7.7,0,7.7-11.9,0-11.9C338.7,156.4,338.7,168.3,346.4,168.3L346.4,168.3z"/>
			</g>
		</g>
	</g>
	<path fill="#9F9FA0" d="M238.1,63.1"/>
	<g>
		<path fill="#77797A" d="M202.7,149.7c0.3,1.5,4.5,22.9,3.5,23.1c0.7-0.1,1.4-0.2,2.1-0.2c15.1,0,30.2,0.9,45.4,1.2
			c14.4,0.2,28.8,0.1,43.3,0.1h35.7v-30.1h-8.2v8.1c0,2-2.1,3.7-4.8,3.7h-1.8c-2.4,0-4.3-1.5-4.3-3.3v-8.5H302v8.1
			c0,2-2.1,3.7-4.8,3.7h-1.8c-2.4,0-4.3-1.5-4.3-3.3v-8.5h-10v8.1c0,2-2.1,3.7-4.8,3.7h-1.8c-2.4,0-4.3-1.5-4.3-3.3v-8.5h-11v8.1
			c0,2-2.1,3.7-4.8,3.7h-1.8c-2.4,0-4.3-1.5-4.3-3.3v-8.5h-10.9v8.1c0,2-2.1,3.7-4.8,3.7h-1.8c-2.4,0-4.3-1.5-4.3-3.3v-8.5h-11v8.1
			c0,2-2.1,3.7-4.8,3.7h-1.8c-2.4,0-4.3-1.5-4.3-3.3v-8.5c0,0-5.1,0-5.1,0C201.5,143.7,202.3,147.4,202.7,149.7z"/>
	</g>
	<g>
		<path fill="#8F9193" d="M326,143.7v8.1c0,2-2.1,3.7-4.8,3.7h-1.8c-2.4,0-4.3-1.5-4.3-3.3v-8.5h-11.5v8.1c0,2-2.1,3.7-4.8,3.7h-1.8
			c-2.4,0-4.3-1.5-4.3-3.3v-8.5h-10v8.1c0,2-2.1,3.7-4.8,3.7h-1.8c-2.4,0-4.3-1.5-4.3-3.3v-8.5h-11v8.1c0,2-2.1,3.7-4.8,3.7h-1.8
			c-2.4,0-4.3-1.5-4.3-3.3v-8.5h-10.9v8.1c0,2-2.1,3.7-4.8,3.7h-1.8c-2.4,0-4.3-1.5-4.3-3.3v-8.5h-11v8.1c0,2-2.1,3.7-4.8,3.7h-1.8
			c-2.4,0-4.3-1.5-4.3-3.3v-8.5h-8.4v184h136v-184H326z"/>
	</g>
	<path fill="#9B9B9B" d="M249.7,132.8v-6.1c-4.6,1.2-9.4,2.5-11.7,4.7v7.2C240.1,136.2,244.9,134.1,249.7,132.8z"/>
	<path fill="#7D7E7F" d="M201.5,106.6c0,0,11.7-7.5,32.6,0v-6.1h-32.6V106.6z"/>
	<path fill="#990000" d="M198.3,95.8c-1.1,2.4,0.2,5.6,2.4,5.6h17.2H235c2.2,0,3.5-3.1,2.4-5.6l-8.5-18.3l-8.7-18.7
		c-1.1-2.4-3.7-2.4-4.8,0l-8.7,18.7L198.3,95.8z"/>
	<path fill="#7D7E7F" d="M293.1,106.6c0,0,11.7-7.5,32.6,0v-6.1h-32.6V106.6z"/>
	<path fill="#990000" d="M289.9,95.8c-1.1,2.4,0.2,5.6,2.4,5.6h17.2h17.2c2.2,0,3.5-3.1,2.4-5.6l-8.5-18.3l-8.7-18.7
		c-1.1-2.4-3.7-2.4-4.8,0l-8.7,18.7L289.9,95.8z"/>
	<path fill="#7D7E7F" d="M238.1,81.4c0,0,18.5-11.9,51.6,0v-9.7h-51.6V81.4z"/>
	<path fill="#990000" d="M233.2,65.1c-1.7,3.9,0.3,9,3.7,9H263h26.1c3.3,0,5.4-5,3.7-9l-12.9-29.4L266.7,5.5c-1.7-3.8-5.7-3.8-7.3,0
		l-13.2,30.1L233.2,65.1z"/>
</g>
<g id="Layer_10" display="none">
</g>
<g id="Layer_11">
	<ellipse fill="#8E0000" cx="309.5" cy="57.5" rx="1.1" ry="0.2"/>
	<path fill="#AFAFAF" d="M262.7,174.9c0-1.6,0.5-3.1,1.7-4.5c1.2-1.4,2.5-2.8,4.1-4.2c1.6-1.3,3.2-2.6,4.8-3.8
		c1.6-1.2,2.8-2.3,3.7-3.4l3,85.9c0.6-0.1,1-0.2,1.3-0.5c0.2-0.3,0.4-0.6,0.5-0.9c0.1-0.3,0.3-0.7,0.5-1c0.2-0.4,0.6-0.7,1-0.9
		l0,0.2c2.7-1.8,4.8-4.4,6.3-7.7c1.5-3.3,2.1-7.6,1.8-12.8c-0.5-3-0.9-5.7-1.2-8.1c-0.3-2.4-0.6-4.6-0.8-6.6c-0.2-2-0.3-3.8-0.4-5.5
		c-0.1-1.7-0.1-3.3-0.2-5c-0.1-3.9,0.1-7.7,0.6-11.4c0.5-3.7,1.4-7.2,2.6-10.7c1.3-3.4,3-6.7,5.2-9.8c2.2-3.1,4.9-6.1,8.1-8.8
		l0.3,11.2c0,1.7,0.1,4.4,0.1,8c0.1,3.6,0.1,7.6,0.2,12.2c0.1,4.5,0.1,9.3,0.2,14.4c0,5,0.1,9.9,0.1,14.5l0.3,12.9
		c0.1,2.4,0,4.4-0.3,5.9c-0.2,1.6-0.6,3-1,4.1c-0.4,1.2-0.8,2.2-1.3,3.1c-0.5,0.9-0.9,1.8-1.2,2.6c-1.2,1.9-2.7,3.8-4.5,5.7
		c-1.8,1.8-3.8,3.4-6.1,4.8c-2.3,1.3-4.7,2.3-7.2,3c-2.5,0.6-5.1,0.7-7.7,0.3l-8.5-8c-1,0.9-1.8,1.7-2.5,2.4
		c-0.7,0.7-1.4,1.4-2.2,2.1c-0.7,0.7-1.5,1.5-2.4,2.4c-0.9,0.9-2,1.9-3.2,3.3c-1.8-0.5-3.4-1-4.8-1.6c-1.4-0.6-2.7-1.2-3.9-1.9
		c-1.2-0.7-2.4-1.4-3.5-2.2c-1.1-0.8-2.2-1.7-3.3-2.6c-1.6-1.5-3.2-3.2-4.8-4.9c-1.6-1.7-3-3.6-4.3-5.6c-1.3-2-2.3-4.1-3.2-6.4
		c-0.9-2.3-1.3-4.6-1.5-7.1c-0.2-2.7-0.1-5.3,0.2-7.8c0.3-2.5,0.8-4.9,1.5-7.2c0.7-2.3,1.5-4.6,2.5-6.9c1-2.3,2-4.5,3.2-6.8
		c0.7-1.4,1.5-2.8,2.4-4.3c0.9-1.5,1.4-3.1,1.5-4.8c0.2-2.2-0.1-4.3-1-6.6c-0.9-2.2-1.9-4.2-3.1-6c-1.2-1.8-2.5-3.2-3.8-4.3
		c-1.3-1.1-2.3-1.7-2.9-1.6c-0.4,0-0.4-0.4,0.1-1.2c0.5-0.8,1.2-1.8,2.2-2.9c1-1.1,2.2-2.3,3.5-3.6c1.4-1.3,2.7-2.4,3.9-3.4
		c1.3-1,2.4-1.7,3.5-2.1c1.1-0.5,1.8-0.4,2.3,0.1c1.3,1.4,2.6,2.8,4,4.1c1.4,1.3,2.6,2.8,3.6,4.5c2,3.9,2.9,7.7,2.9,11.5
		c-0.1,3.8-0.7,7.6-1.8,11.3c-1.1,3.8-2.4,7.5-4,11.2c-1.6,3.7-2.8,7.4-3.6,11.1c-0.5,2.2-0.7,4.5-0.6,7c0.1,2.5,0.5,4.9,1.1,7.4
		c0.6,2.5,1.5,4.8,2.5,7.1c1.1,2.2,2.3,4.3,3.7,6c1.4,1.8,3,3.2,4.8,4.3c1.7,1.1,3.6,1.6,5.5,1.7c0.3-1,0.5-2.2,0.6-3.7
		c0.1-1.5,0.2-3.4,0.2-5.8c0-2.4,0-5.3-0.1-8.7c-0.1-3.4-0.2-7.6-0.3-12.5c-0.1-4.9-0.3-10.6-0.5-17.2
		C263.1,191.1,262.9,183.5,262.7,174.9z"/>
</g>
<g id="อิฐ">
	<rect x="200.3" y="320.2" fill="#9B9B9B" width="15.8" height="6"/>
	<rect x="134.5" y="281.8" fill="#939393" width="15.8" height="6"/>
	<rect x="149" y="235.5" fill="#939393" width="15.8" height="6"/>
	<rect x="177.3" y="212" fill="#939393" width="15.8" height="6"/>
	<rect x="208.4" y="295.4" fill="#9B9B9B" width="15.8" height="6"/>
	<rect x="220.4" y="270.7" fill="#9B9B9B" width="15.8" height="6"/>
	<rect x="211" y="263.8" fill="#8C8C8C" width="15.8" height="6"/>
	<rect x="256.5" y="232.4" fill="#9B9B9B" width="15.8" height="6"/>
	<rect x="213.5" y="217.3" fill="#9B9B9B" width="15.8" height="6"/>
	<rect x="293.6" y="212" fill="#9B9B9B" width="15.8" height="6"/>
	<rect x="205.6" y="180.7" fill="#9B9B9B" width="15.8" height="6"/>
	<rect x="301.5" y="313.2" fill="#9B9B9B" width="15.8" height="6"/>
	<rect x="318.6" y="296.1" fill="#9B9B9B" width="15.8" height="6"/>
	<rect x="266.1" y="186.7" fill="#9B9B9B" width="15.8" height="6"/>
	<rect x="310.8" y="267.7" fill="#9B9B9B" width="15.8" height="6"/>
	<rect x="302.8" y="240.6" fill="#8C8C8C" width="15.8" height="6"/>
	<rect x="314.6" y="232.4" fill="#9B9B9B" width="15.8" height="6"/>
	<rect x="131.6" y="315.5" fill="#939393" width="15.8" height="6"/>
	<rect x="163.8" y="296.1" fill="#939393" width="15.8" height="6"/>
	<rect x="178.3" y="312.7" fill="#939393" width="15.8" height="6"/>
	<rect x="375" y="307.6" fill="#939393" width="15.8" height="6"/>
	<rect x="343" y="300" fill="#939393" width="15.8" height="6"/>
	<rect x="367.8" y="235.5" fill="#939393" width="15.8" height="6"/>
	<rect x="340.5" y="209" fill="#939393" width="15.8" height="6"/>
	<rect x="382.3" y="284.8" fill="#939393" width="15.8" height="6"/>
	<rect x="233.9" y="320.8" fill="#9B9B9B" width="15.8" height="6"/>
	<path fill="#9B9B9B" d="M316.5,136.9v4.5c3.5,0.3,6.6,1.1,9.3,2l0-4.4C323.1,138,320,137.3,316.5,136.9z"/>
	<path fill="#9B9B9B" d="M222.3,135.8v6.2c4.5,0.5,8.5,1.4,11.9,2.7v-5.9C230.9,137.4,226.8,136.4,222.3,135.8z"/>
</g>
<g id="door">
	<g>
		<path fill="#492107" d="M295.8,330.8h-52.4v-52.9c0-9.1,10.3-16.6,23-16.6h8.6c11.5,0,20.8,6.7,20.8,14.9V330.8z"/>
		<g>
			<path fill="#3A1906" d="M252.5,330.8h3v-67.4c-1.1,0.4-2.1,0.9-3,1.4V330.8z"/>
			<path fill="#3A1906" d="M267.6,330.8v-69.3h-1.2c-0.6,0-1.3,0-1.9,0.1v69.3h31.2v-54.5c0-1.6-0.3-3.1-1-4.6v59h-3v-63.2
				c-0.9-0.9-1.9-1.7-3-2.4v65.6h-3v-67.2c-1-0.4-2-0.8-3-1.1v68.3h-3v-69c-1-0.2-2-0.3-3-0.3v69.3h-3v-69.3h-3v69.3"/>
			<path fill="#3A1906" d="M246.5,269.8v61l3,0v-64C248.3,267.7,247.3,268.7,246.5,269.8z"/>
			<path fill="#3A1906" d="M258.5,330.8h3v-69c-1,0.2-2,0.4-3,0.6V330.8z"/>
		</g>
	</g>
</g>
<g id="Layer_13">
	<path fill="#B7812A" d="M269,280.9c0-0.2,0.1-0.3,0.2-0.5c0.1-0.2,0.3-0.3,0.5-0.5c0.2-0.2,0.4-0.3,0.5-0.4
		c0.2-0.1,0.3-0.3,0.4-0.4l0.3,9.7c0.1,0,0.1,0,0.1-0.1c0,0,0-0.1,0.1-0.1c0,0,0-0.1,0.1-0.1c0,0,0.1-0.1,0.1-0.1l0,0
		c0.3-0.2,0.5-0.5,0.7-0.9c0.2-0.4,0.2-0.9,0.2-1.5c-0.1-0.3-0.1-0.6-0.1-0.9c0-0.3-0.1-0.5-0.1-0.7c0-0.2,0-0.4,0-0.6
		c0-0.2,0-0.4,0-0.6c0-0.4,0-0.9,0.1-1.3c0.1-0.4,0.2-0.8,0.3-1.2c0.1-0.4,0.3-0.8,0.6-1.1c0.2-0.4,0.6-0.7,0.9-1l0,1.3
		c0,0.2,0,0.5,0,0.9c0,0.4,0,0.9,0,1.4c0,0.5,0,1.1,0,1.6c0,0.6,0,1.1,0,1.6l0,1.5c0,0.3,0,0.5,0,0.7c0,0.2-0.1,0.3-0.1,0.5
		c0,0.1-0.1,0.2-0.1,0.3c-0.1,0.1-0.1,0.2-0.1,0.3c-0.1,0.2-0.3,0.4-0.5,0.6c-0.2,0.2-0.4,0.4-0.7,0.5c-0.3,0.2-0.5,0.3-0.8,0.3
		c-0.3,0.1-0.6,0.1-0.9,0l-1-0.9c-0.1,0.1-0.2,0.2-0.3,0.3c-0.1,0.1-0.2,0.2-0.2,0.2c-0.1,0.1-0.2,0.2-0.3,0.3
		c-0.1,0.1-0.2,0.2-0.4,0.4c-0.2-0.1-0.4-0.1-0.5-0.2s-0.3-0.1-0.4-0.2c-0.1-0.1-0.3-0.2-0.4-0.2c-0.1-0.1-0.3-0.2-0.4-0.3
		c-0.2-0.2-0.4-0.4-0.5-0.6c-0.2-0.2-0.3-0.4-0.5-0.6c-0.1-0.2-0.3-0.5-0.4-0.7c-0.1-0.3-0.2-0.5-0.2-0.8c0-0.3,0-0.6,0-0.9
		c0-0.3,0.1-0.6,0.2-0.8c0.1-0.3,0.2-0.5,0.3-0.8c0.1-0.3,0.2-0.5,0.4-0.8c0.1-0.2,0.2-0.3,0.3-0.5c0.1-0.2,0.2-0.4,0.2-0.5
		c0-0.2,0-0.5-0.1-0.7c-0.1-0.3-0.2-0.5-0.4-0.7c-0.1-0.2-0.3-0.4-0.4-0.5c-0.1-0.1-0.3-0.2-0.3-0.2c0,0,0,0,0-0.1
		c0.1-0.1,0.1-0.2,0.2-0.3c0.1-0.1,0.2-0.3,0.4-0.4c0.2-0.1,0.3-0.3,0.4-0.4c0.1-0.1,0.3-0.2,0.4-0.2c0.1-0.1,0.2,0,0.3,0
		c0.1,0.2,0.3,0.3,0.5,0.5c0.2,0.2,0.3,0.3,0.4,0.5c0.2,0.4,0.3,0.9,0.3,1.3c0,0.4-0.1,0.9-0.2,1.3c-0.1,0.4-0.3,0.8-0.5,1.3
		c-0.2,0.4-0.3,0.8-0.4,1.3c-0.1,0.2-0.1,0.5-0.1,0.8c0,0.3,0.1,0.6,0.1,0.8c0.1,0.3,0.2,0.5,0.3,0.8c0.1,0.3,0.3,0.5,0.4,0.7
		c0.2,0.2,0.3,0.4,0.5,0.5c0.2,0.1,0.4,0.2,0.6,0.2c0-0.1,0.1-0.3,0.1-0.4c0-0.2,0-0.4,0-0.7c0-0.3,0-0.6,0-1c0-0.4,0-0.9,0-1.4
		c0-0.6,0-1.2-0.1-1.9C269.1,282.7,269,281.9,269,280.9z"/>
</g>
<g id="green_bush">
	<g>
		<g>
			<path fill="#0F4720" d="M135.6,321.6v-2C135.6,320.3,135.6,320.9,135.6,321.6L135.6,321.6z"/>
			<path fill="#0F4720" d="M49.2,321.6L49.2,321.6c0-0.6,0-1.3,0-2V321.6z"/>
			<path fill="#0F4720" d="M92.4,273c-23.9,0-43.2,20.9-43.2,46.7c0,0.7,0,1.3,0,2h86.3c0-0.6,0-1.3,0-2
				C135.6,293.9,116.3,273,92.4,273z"/>
		</g>
		<g>
			<path fill="#0F4720" d="M168.2,342.3v-1.8C168.2,341.1,168.2,341.7,168.2,342.3L168.2,342.3z"/>
			<path fill="#0F4720" d="M81.8,342.3L81.8,342.3c0-0.6,0-1.2,0-1.8V342.3z"/>
			<path fill="#0F4720" d="M125,297.3c-23.9,0-43.2,19.3-43.2,43.2c0,0.6,0,1.2,0,1.8h86.3c0-0.6,0-1.2,0-1.8
				C168.2,316.6,148.9,297.3,125,297.3z"/>
		</g>
		<g>
			<path fill="#0F4720" d="M94.4,342.3v-1.8C94.4,341.1,94.4,341.7,94.4,342.3L94.4,342.3z"/>
			<path fill="#0F4720" d="M8,342.3L8,342.3c0-0.6,0-1.2,0-1.8V342.3z"/>
			<path fill="#0F4720" d="M51.2,297.3C27.4,297.3,8,316.6,8,340.5c0,0.6,0,1.2,0,1.8h86.3c0-0.6,0-1.2,0-1.8
				C94.4,316.6,75.1,297.3,51.2,297.3z"/>
		</g>
	</g>
	<g>
		<g>
			<path fill="#0E662D" d="M141.1,322.1v-2C141.1,320.8,141.1,321.4,141.1,322.1L141.1,322.1z"/>
			<path fill="#0E662D" d="M54.7,322.1L54.7,322.1c0-0.6,0-1.3,0-2V322.1z"/>
			<path fill="#0E662D" d="M97.9,273.5c-23.9,0-43.2,20.9-43.2,46.7c0,0.7,0,1.3,0,2h86.3c0-0.6,0-1.3,0-2
				C141.1,294.4,121.8,273.5,97.9,273.5z"/>
		</g>
		<g>
			<path fill="#0E662D" d="M173.7,343.8V342C173.7,342.6,173.7,343.2,173.7,343.8L173.7,343.8z"/>
			<path fill="#0E662D" d="M87.3,343.8L87.3,343.8c0-0.6,0-1.2,0-1.8V343.8z"/>
			<path fill="#0E662D" d="M130.5,298.8c-23.9,0-43.2,19.3-43.2,43.2c0,0.6,0,1.2,0,1.8h86.3c0-0.6,0-1.2,0-1.8
				C173.7,318.1,154.4,298.8,130.5,298.8z"/>
		</g>
		<g>
			<path fill="#0E662D" d="M99.9,343.8V342C99.9,342.6,99.9,343.2,99.9,343.8L99.9,343.8z"/>
			<path fill="#0E662D" d="M13.5,343.8L13.5,343.8c0-0.6,0-1.2,0-1.8V343.8z"/>
			<path fill="#0E662D" d="M56.7,298.8c-23.9,0-43.2,19.3-43.2,43.2c0,0.6,0,1.2,0,1.8h86.3c0-0.6,0-1.2,0-1.8
				C99.9,318.1,80.6,298.8,56.7,298.8z"/>
		</g>
	</g>
	<g>
		<g>
			<path fill="#0F4720" d="M456.3,319.5v-1.7C456.3,318.4,456.3,318.9,456.3,319.5L456.3,319.5z"/>
			<path fill="#0F4720" d="M378.9,319.5L378.9,319.5c0-0.6,0-1.2,0-1.7V319.5z"/>
			<path fill="#0F4720" d="M417.6,276c-21.4,0-38.7,18.7-38.7,41.8c0,0.6,0,1.2,0,1.7h77.3c0-0.6,0-1.2,0-1.7
				C456.3,294.7,439,276,417.6,276z"/>
		</g>
		<g>
			<path fill="#0F4720" d="M485.5,338.1v-1.6C485.5,337,485.5,337.5,485.5,338.1L485.5,338.1z"/>
			<path fill="#0F4720" d="M408.1,338.1L408.1,338.1c0-0.5,0-1.1,0-1.6V338.1z"/>
			<path fill="#0F4720" d="M446.8,297.7c-21.4,0-38.7,17.3-38.7,38.7c0,0.5,0,1.1,0,1.6h77.3c0-0.5,0-1.1,0-1.6
				C485.5,315.1,468.2,297.7,446.8,297.7z"/>
		</g>
		<g>
			<path fill="#0F4720" d="M419.4,338.1v-1.6C419.4,337,419.4,337.5,419.4,338.1L419.4,338.1z"/>
			<path fill="#0F4720" d="M342,338.1L342,338.1c0-0.5,0-1.1,0-1.6V338.1z"/>
			<path fill="#0F4720" d="M380.7,297.7c-21.4,0-38.7,17.3-38.7,38.7c0,0.5,0,1.1,0,1.6h77.3c0-0.5,0-1.1,0-1.6
				C419.4,315.1,402.1,297.7,380.7,297.7z"/>
		</g>
	</g>
	<g>
		<g>
			<path fill="#0E662D" d="M458,321.8V320C458,320.6,458,321.2,458,321.8L458,321.8z"/>
			<path fill="#0E662D" d="M380.6,321.8L380.6,321.8c0-0.6,0-1.2,0-1.7V321.8z"/>
			<path fill="#0E662D" d="M419.3,278.2c-21.4,0-38.7,18.7-38.7,41.8c0,0.6,0,1.2,0,1.7H458c0-0.6,0-1.2,0-1.7
				C458,296.9,440.7,278.2,419.3,278.2z"/>
		</g>
		<g>
			<path fill="#0E662D" d="M487.3,340.3v-1.6C487.3,339.2,487.2,339.8,487.3,340.3L487.3,340.3z"/>
			<path fill="#0E662D" d="M409.8,340.3L409.8,340.3c0-0.5,0-1.1,0-1.6V340.3z"/>
			<path fill="#0E662D" d="M448.5,300c-21.4,0-38.7,17.3-38.7,38.7c0,0.5,0,1.1,0,1.6h77.3c0-0.5,0-1.1,0-1.6
				C487.3,317.3,469.9,300,448.5,300z"/>
		</g>
		<g>
			<path fill="#0E662D" d="M421.1,340.3v-1.6C421.1,339.2,421.1,339.8,421.1,340.3L421.1,340.3z"/>
			<path fill="#0E662D" d="M343.7,340.3L343.7,340.3c0-0.5,0-1.1,0-1.6V340.3z"/>
			<path fill="#0E662D" d="M382.4,300c-21.4,0-38.7,17.3-38.7,38.7c0,0.5,0,1.1,0,1.6h77.3c0-0.5,0-1.1,0-1.6
				C421.1,317.3,403.8,300,382.4,300z"/>
		</g>
	</g>
	<g>
		<g>
			<path fill="#0F4720" d="M383.7,315.9v-1.4C383.7,315,383.7,315.5,383.7,315.9L383.7,315.9z"/>
			<path fill="#0F4720" d="M323.8,315.9L323.8,315.9c0-0.5,0-0.9,0-1.4V315.9z"/>
			<path fill="#0F4720" d="M353.7,281c-16.5,0-29.9,15-29.9,33.5c0,0.5,0,0.9,0,1.4h59.8c0-0.5,0-0.9,0-1.4
				C383.7,296,370.3,281,353.7,281z"/>
		</g>
		<g>
			<path fill="#0F4720" d="M406.3,330.8v-1.3C406.3,329.9,406.2,330.4,406.3,330.8L406.3,330.8z"/>
			<path fill="#0F4720" d="M346.4,330.8L346.4,330.8c0-0.4,0-0.9,0-1.3V330.8z"/>
			<path fill="#0F4720" d="M376.3,298.5c-16.5,0-29.9,13.9-29.9,31.1c0,0.4,0,0.9,0,1.3h59.8c0-0.4,0-0.9,0-1.3
				C406.3,312.4,392.9,298.5,376.3,298.5z"/>
		</g>
		<g>
			<path fill="#0F4720" d="M355.1,330.8v-1.3C355.1,329.9,355.1,330.4,355.1,330.8L355.1,330.8z"/>
			<path fill="#0F4720" d="M295.2,330.8L295.2,330.8c0-0.4,0-0.9,0-1.3V330.8z"/>
			<path fill="#0F4720" d="M325.2,298.5c-16.5,0-29.9,13.9-29.9,31.1c0,0.4,0,0.9,0,1.3h59.8c0-0.4,0-0.9,0-1.3
				C355.1,312.4,341.7,298.5,325.2,298.5z"/>
		</g>
	</g>
	<g>
		<g>
			<path fill="#10722E" d="M388,316.4V315C388,315.5,388,316,388,316.4L388,316.4z"/>
			<path fill="#10722E" d="M328.1,316.4L328.1,316.4c0-0.5,0-0.9,0-1.4V316.4z"/>
			<path fill="#10722E" d="M358,281.5c-16.5,0-29.9,15-29.9,33.5c0,0.5,0,0.9,0,1.4h59.8c0-0.5,0-0.9,0-1.4
				C388,296.5,374.6,281.5,358,281.5z"/>
		</g>
		<g>
			<path fill="#10722E" d="M410.6,331.3V330C410.6,330.5,410.6,330.9,410.6,331.3L410.6,331.3z"/>
			<path fill="#10722E" d="M350.7,331.3L350.7,331.3c0-0.4,0-0.9,0-1.3V331.3z"/>
			<path fill="#10722E" d="M380.6,299c-16.5,0-29.9,13.9-29.9,31.1c0,0.4,0,0.9,0,1.3h59.8c0-0.4,0-0.9,0-1.3
				C410.6,312.9,397.2,299,380.6,299z"/>
		</g>
		<g>
			<path fill="#10722E" d="M359.4,331.3V330C359.4,330.5,359.4,330.9,359.4,331.3L359.4,331.3z"/>
			<path fill="#10722E" d="M299.6,331.3L299.6,331.3c0-0.4,0-0.9,0-1.3V331.3z"/>
			<path fill="#10722E" d="M329.5,299c-16.5,0-29.9,13.9-29.9,31.1c0,0.4,0,0.9,0,1.3h59.8c0-0.4,0-0.9,0-1.3
				C359.4,312.9,346,299,329.5,299z"/>
		</g>
	</g>
	<g>
		<g>
			<path fill="#0D3F1E" d="M220.3,317.1v-1.3C220.3,316.3,220.3,316.7,220.3,317.1L220.3,317.1z"/>
			<path fill="#0D3F1E" d="M162.4,317.1L162.4,317.1c0-0.4,0-0.9,0-1.3V317.1z"/>
			<path fill="#0D3F1E" d="M191.3,284.1c-16,0-29,14.2-29,31.7c0,0.4,0,0.9,0,1.3h57.9c0-0.4,0-0.9,0-1.3
				C220.3,298.3,207.3,284.1,191.3,284.1z"/>
		</g>
		<g>
			<path fill="#0D3F1E" d="M242.2,331.2V330C242.2,330.4,242.2,330.8,242.2,331.2L242.2,331.2z"/>
			<path fill="#0D3F1E" d="M184.2,331.2L184.2,331.2c0-0.4,0-0.8,0-1.2V331.2z"/>
			<path fill="#0D3F1E" d="M213.2,300.6c-16,0-29,13.2-29,29.4c0,0.4,0,0.8,0,1.2h57.9c0-0.4,0-0.8,0-1.2
				C242.2,313.8,229.2,300.6,213.2,300.6z"/>
		</g>
		<g>
			<path fill="#0D3F1E" d="M192.7,331.2V330C192.7,330.4,192.7,330.8,192.7,331.2L192.7,331.2z"/>
			<path fill="#0D3F1E" d="M134.8,331.2L134.8,331.2c0-0.4,0-0.8,0-1.2V331.2z"/>
			<path fill="#0D3F1E" d="M163.7,300.6c-16,0-29,13.2-29,29.4c0,0.4,0,0.8,0,1.2h57.9c0-0.4,0-0.8,0-1.2
				C192.7,313.8,179.7,300.6,163.7,300.6z"/>
		</g>
	</g>
	<g>
		<g>
			<path fill="#0C5623" d="M224.6,318.7v-1.3C224.6,317.8,224.5,318.3,224.6,318.7L224.6,318.7z"/>
			<path fill="#0C5623" d="M166.6,318.7L166.6,318.7c0-0.4,0-0.9,0-1.3V318.7z"/>
			<path fill="#0C5623" d="M195.6,285.6c-16,0-29,14.2-29,31.7c0,0.4,0,0.9,0,1.3h57.9c0-0.4,0-0.9,0-1.3
				C224.6,299.9,211.6,285.6,195.6,285.6z"/>
		</g>
		<g>
			<path fill="#0C5623" d="M246.4,332.8v-1.2C246.4,332,246.4,332.4,246.4,332.8L246.4,332.8z"/>
			<path fill="#0C5623" d="M188.5,332.8L188.5,332.8c0-0.4,0-0.8,0-1.2V332.8z"/>
			<path fill="#0C5623" d="M217.5,302.2c-16,0-29,13.2-29,29.4c0,0.4,0,0.8,0,1.2h57.9c0-0.4,0-0.8,0-1.2
				C246.4,315.3,233.5,302.2,217.5,302.2z"/>
		</g>
		<g>
			<path fill="#0C5623" d="M196.9,332.8v-1.2C196.9,332,196.9,332.4,196.9,332.8L196.9,332.8z"/>
			<path fill="#0C5623" d="M139,332.8L139,332.8c0-0.4,0-0.8,0-1.2V332.8z"/>
			<path fill="#0C5623" d="M168,302.2c-16,0-29,13.2-29,29.4c0,0.4,0,0.8,0,1.2h57.9c0-0.4,0-0.8,0-1.2
				C196.9,315.3,184,302.2,168,302.2z"/>
		</g>
	</g>
	<path fill="#0C3A1D" d="M498,355.8c0,0-0.5-19-22.9-24.6c-22.4-5.6-206.1-3-435.4,1.2c-9.8,0.2-33.2-0.5-38.1,20.3
		c-0.6,2.4,4.6,7.4,23.2,8.7c3.1,0.2,14.1-7.2,17.6-3.8c3.5-1.6,7.3-6,11.2,0.5c3.9-9.1,8-4,12.3,0.4c4.3,8.5,8.7-7.3,13.3,0.4
		c4.6-5.3,9.4,3.7,14.3,0.3c4.9,6,10,0.2,15.1,0.3c9.1,0.1,18.5,4.7,28.3,4.7c4.9,0,9.8-4.4,14.8-4.3c5-0.5,10.1-3.3,15.2,0.1
		c5.1-3.3,10.3,2.4,15.6,0c5.2-2.2,10.5-1.9,15.8,0c5.3-2.3,10.7-3,16,0c5.4-1,10.8-1.6,16.2-0.1c5.4,0,10.8-0.1,16.2-0.1
		c3.4,0,6.8,0,10.2-0.1c3.4-1.8,6.8-1.3,10.2-0.1c3.4,0.1,6.8,2.6,10.1-0.1c3.4,1.6,6.7-1.4,10.1-0.1c3.4-0.4,6.7,0.7,10-0.1
		c3.3,2.4,6.7,5.3,10,4.3c3.3,0,6.6-4.5,9.9-4.5c5.7-0.1,11.4-0.1,17-0.2c5.6,1.2,11.2,2.1,16.7-0.2c5.5-2.8,10.9,10.2,16.2-0.2
		c5.3,6.3,10.5,7.3,15.6-0.2c5.1-4.6,10.1-4.4,15-0.2c4.9,1.7,9.6-2.9,14.3-0.2c4.6-1.1,9.1,1.5,13.4-0.2c2.2-1.4,4.3-1.3,6.4-0.9
		c2.1,0.3,4.1,1,6.2,0.7c2,0.8,4,1.8,5.9-0.1c1.9-2.1,3.8-3.4,5.7-0.1c5.9-1.3,11.4,3.1,16.3,3c4.9-0.2,9.4-6.1,13.3-3.6
		c3.9-0.4,7.2-3.3,9.9-0.2c2.7-0.1,4.8-0.1,6.2-0.1C496.7,356,498,355.8,498,355.8z"/>
	<ellipse fill="#0F4720" cx="124.2" cy="344.2" rx="41" ry="7.5"/>
	<g>
		<g>
			<path fill="#0D3F1E" d="M152.2,330.7v-0.8C152.2,330.1,152.2,330.4,152.2,330.7L152.2,330.7z"/>
			<path fill="#0D3F1E" d="M114.7,330.7L114.7,330.7c0-0.3,0-0.6,0-0.8V330.7z"/>
			<path fill="#0D3F1E" d="M133.4,309.5c-10.4,0-18.8,9.1-18.8,20.3c0,0.3,0,0.6,0,0.8h37.5c0-0.3,0-0.6,0-0.8
				C152.2,318.6,143.8,309.5,133.4,309.5z"/>
		</g>
		<g>
			<path fill="#0D3F1E" d="M166.3,338.9"/>
			<line fill="#0D3F1E" x1="166.3" y1="339.7" x2="166.3" y2="339.7"/>
			<path fill="#0D3F1E" d="M128.8,339.7L128.8,339.7c0-0.3,0-0.5,0-0.8V339.7z"/>
			<path fill="#0D3F1E" d="M147.6,320.1c-10.3,0-18.7,8.3-18.8,18.6c0.4,0.4,0.6,0.6,1,0.9h35.6c0.5,0,1-0.4,1-0.9
				C166.3,328.4,157.9,320.1,147.6,320.1z"/>
		</g>
		<g>
			<path fill="#0D3F1E" d="M134.3,339.7v-0.8C134.3,339.1,134.3,339.4,134.3,339.7L134.3,339.7z"/>
			<path fill="#0D3F1E" d="M96.8,339.7L96.8,339.7c0-0.3,0-0.5,0-0.8V339.7z"/>
			<path fill="#0D3F1E" d="M115.5,320.1c-10.4,0-18.8,8.4-18.8,18.8c0,0.3,0,0.5,0,0.8h37.5c0-0.3,0-0.5,0-0.8
				C134.3,328.5,125.9,320.1,115.5,320.1z"/>
		</g>
	</g>
	<path fill="#0D3F1E" d="M166.3,339.2c0,2.2-1.2,3.9-2.7,3.9H99.3c-1.5,0-2.7-1.8-2.7-3.9l0,0c0-2.2,1.2-3.9,2.7-3.9h64.4
		C165.1,335.3,166.3,337.1,166.3,339.2L166.3,339.2z"/>
	<g>
		<g>
			<g>
				<path fill="#10722E" d="M154.3,330.7v-0.8C154.3,330.2,154.3,330.5,154.3,330.7L154.3,330.7z"/>
				<path fill="#10722E" d="M116.7,330.7L116.7,330.7c0-0.3,0-0.6,0-0.8V330.7z"/>
				<path fill="#10722E" d="M135.5,309.6c-10.4,0-18.8,9.1-18.8,20.3c0,0.3,0,0.6,0,0.8h37.5c0-0.3,0-0.6,0-0.8
					C154.3,318.7,145.9,309.6,135.5,309.6z"/>
			</g>
			<g>
				<path fill="#10722E" d="M168.4,339"/>
				<line fill="#10722E" x1="168.4" y1="339.7" x2="168.4" y2="339.7"/>
				<path fill="#10722E" d="M130.9,339.7L130.9,339.7c0-0.3,0-0.5,0-0.8V339.7z"/>
				<path fill="#10722E" d="M149.7,320.2c-10.3,0-18.7,8.3-18.8,18.6c0.4,0.4,0.6,0.6,1,0.9h35.6c0.5,0,1-0.4,1-0.9
					C168.3,328.5,160,320.2,149.7,320.2z"/>
			</g>
			<g>
				<path fill="#10722E" d="M136.4,339.7V339C136.4,339.2,136.4,339.5,136.4,339.7L136.4,339.7z"/>
				<path fill="#10722E" d="M98.8,339.7L98.8,339.7c0-0.3,0-0.5,0-0.8V339.7z"/>
				<path fill="#10722E" d="M117.6,320.2c-10.4,0-18.8,8.4-18.8,18.8c0,0.3,0,0.5,0,0.8h37.5c0-0.3,0-0.5,0-0.8
					C136.4,328.6,128,320.2,117.6,320.2z"/>
			</g>
		</g>
		<path fill="#10722E" d="M168.4,339.3c0,2.2-1.2,3.9-2.7,3.9h-64.4c-1.5,0-2.7-1.8-2.7-3.9l0,0c0-2.2,1.2-3.9,2.7-3.9h64.4
			C167.2,335.4,168.4,337.2,168.4,339.3L168.4,339.3z"/>
	</g>
	<ellipse fill="#0F4720" cx="350.9" cy="342.2" rx="41" ry="7.5"/>
	<g>
		<g>
			<path fill="#0D3F1E" d="M378.9,328.7v-0.8C378.9,328.1,378.8,328.4,378.9,328.7L378.9,328.7z"/>
			<path fill="#0D3F1E" d="M341.3,328.7L341.3,328.7c0-0.3,0-0.6,0-0.8V328.7z"/>
			<path fill="#0D3F1E" d="M360.1,307.5c-10.4,0-18.8,9.1-18.8,20.3c0,0.3,0,0.6,0,0.8h37.5c0-0.3,0-0.6,0-0.8
				C378.9,316.6,370.5,307.5,360.1,307.5z"/>
		</g>
		<g>
			<path fill="#0D3F1E" d="M393,336.9"/>
			<line fill="#0D3F1E" x1="393" y1="337.7" x2="393" y2="337.7"/>
			<path fill="#0D3F1E" d="M355.5,337.7L355.5,337.7c0-0.3,0-0.5,0-0.8V337.7z"/>
			<path fill="#0D3F1E" d="M374.2,318.1c-10.3,0-18.7,8.3-18.8,18.6c0.4,0.4,0.6,0.6,1,0.9h35.6c0.5,0,1-0.4,1-0.9
				C392.9,326.4,384.6,318.1,374.2,318.1z"/>
		</g>
		<g>
			<path fill="#0D3F1E" d="M361,337.7v-0.8C361,337.1,361,337.4,361,337.7L361,337.7z"/>
			<path fill="#0D3F1E" d="M323.4,337.7L323.4,337.7c0-0.3,0-0.5,0-0.8V337.7z"/>
			<path fill="#0D3F1E" d="M342.2,318.1c-10.4,0-18.8,8.4-18.8,18.8c0,0.3,0,0.5,0,0.8h37.5c0-0.3,0-0.5,0-0.8
				C361,326.5,352.6,318.1,342.2,318.1z"/>
		</g>
	</g>
	<path fill="#0D3F1E" d="M393,337.2c0,2.2-1.2,3.9-2.7,3.9h-64.4c-1.5,0-2.7-1.8-2.7-3.9l0,0c0-2.2,1.2-3.9,2.7-3.9h64.4
		C391.8,333.3,393,335.1,393,337.2L393,337.2z"/>
	<g>
		<g>
			<g>
				<path fill="#0E662D" d="M380.9,329v-0.8C380.9,328.4,380.9,328.7,380.9,329L380.9,329z"/>
				<path fill="#0E662D" d="M343.4,329L343.4,329c0-0.3,0-0.6,0-0.8V329z"/>
				<path fill="#0E662D" d="M362.2,307.9c-10.4,0-18.8,9.1-18.8,20.3c0,0.3,0,0.6,0,0.8h37.5c0-0.3,0-0.6,0-0.8
					C380.9,317,372.5,307.9,362.2,307.9z"/>
			</g>
			<g>
				<path fill="#0E662D" d="M395.1,337.2"/>
				<line fill="#0E662D" x1="395.1" y1="338" x2="395.1" y2="338"/>
				<path fill="#0E662D" d="M357.6,338L357.6,338c0-0.3,0-0.5,0-0.8V338z"/>
				<path fill="#0E662D" d="M376.3,318.4c-10.3,0-18.7,8.3-18.8,18.6c0.4,0.4,0.6,0.6,1,0.9h35.6c0.5,0,1-0.4,1-0.9
					C395,326.8,386.6,318.4,376.3,318.4z"/>
			</g>
			<g>
				<path fill="#0E662D" d="M363,338v-0.8C363,337.5,363,337.7,363,338L363,338z"/>
				<path fill="#0E662D" d="M325.5,338L325.5,338c0-0.3,0-0.5,0-0.8V338z"/>
				<path fill="#0E662D" d="M344.3,318.4c-10.4,0-18.8,8.4-18.8,18.8c0,0.3,0,0.5,0,0.8H363c0-0.3,0-0.5,0-0.8
					C363,326.8,354.6,318.4,344.3,318.4z"/>
			</g>
		</g>
		<path fill="#0E662D" d="M395.1,337.6c0,2.2-1.2,3.9-2.7,3.9H328c-1.5,0-2.7-1.8-2.7-3.9l0,0c0-2.2,1.2-3.9,2.7-3.9h64.4
			C393.9,333.6,395.1,335.4,395.1,337.6L395.1,337.6z"/>
	</g>
</g>
<g id="Layer_9">
</g>
<g id="window">
	<g>
		<path fill="#CEA624" d="M222.4,133.6h-9.2V120c0-2.4,1.8-4.3,4-4.3h1.5c2,0,3.6,1.7,3.6,3.8V133.6z"/>
		<path fill="#CEA624" d="M314.5,133.6h-9.2V120c0-2.4,1.8-4.3,4-4.3h1.5c2,0,3.6,1.7,3.6,3.8V133.6z"/>
		<path fill="#353838" d="M231.3,199.2h-14.5v-21.6c0-3.7,2.9-6.8,6.4-6.8h2.4c3.2,0,5.7,2.7,5.7,6.1V199.2z"/>
		<path fill="#CEA624" d="M260.7,199.2h-14.5v-21.6c0-3.7,2.9-6.8,6.4-6.8h2.4c3.2,0,5.8,2.7,5.8,6.1V199.2z"/>
		<path fill="#353838" d="M289.7,199.2h-14.5v-21.6c0-3.7,2.9-6.8,6.4-6.8h2.4c3.2,0,5.8,2.7,5.8,6.1V199.2z"/>
		<path fill="#353838" d="M318.7,199.2h-14.5v-21.6c0-3.7,2.9-6.8,6.4-6.8h2.4c3.2,0,5.8,2.7,5.8,6.1V199.2z"/>
		<path fill="#353838" d="M360.8,229.2h-14.5v-21.6c0-3.7,2.9-6.8,6.4-6.8h2.4c3.2,0,5.8,2.7,5.8,6.1V229.2z"/>
		<path fill="#CEA624" d="M390.2,229.2h-14.5v-21.6c0-3.7,2.9-6.8,6.4-6.8h2.4c3.2,0,5.8,2.7,5.8,6.1V229.2z"/>
		<path fill="#CEA624" d="M360.8,276.2h-14.5v-21.6c0-3.7,2.9-6.8,6.4-6.8h2.4c3.2,0,5.8,2.7,5.8,6.1V276.2z"/>
		<path fill="#353838" d="M390.2,276.2h-14.5v-21.6c0-3.7,2.9-6.8,6.4-6.8h2.4c3.2,0,5.8,2.7,5.8,6.1V276.2z"/>
		<path fill="#353838" d="M156.8,229.2h-14.5v-21.6c0-3.7,2.9-6.8,6.4-6.8h2.4c3.2,0,5.8,2.7,5.8,6.1V229.2z"/>
		<path fill="#353838" d="M186.2,229.2h-14.5v-21.6c0-3.7,2.9-6.8,6.4-6.8h2.4c3.2,0,5.8,2.7,5.8,6.1V229.2z"/>
		<path fill="#CEA624" d="M156.8,276.2h-14.5v-21.6c0-3.7,2.9-6.8,6.4-6.8h2.4c3.2,0,5.8,2.7,5.8,6.1V276.2z"/>
		<path fill="#CEA624" d="M186.2,276.2h-14.5v-21.6c0-3.7,2.9-6.8,6.4-6.8h2.4c3.2,0,5.8,2.7,5.8,6.1V276.2z"/>
		<path fill="#353838" d="M271.1,107.6h-14.5V86c0-3.7,2.9-6.8,6.4-6.8h2.4c3.2,0,5.8,2.7,5.8,6.1V107.6z"/>
	</g>
</g>
</svg>
