<?xml version="1.0" encoding="utf-8"?>
<!-- Generator: Adobe Illustrator 19.2.0, SVG Export Plug-In . SVG Version: 6.00 Build 0)  -->
<svg version="1.1" id="Layer_1" xmlns="http://www.w3.org/2000/svg" xmlns:xlink="http://www.w3.org/1999/xlink" x="0px" y="0px"
	 viewBox="0 0 307 307" style="enable-background:new 0 0 307 307;" xml:space="preserve">
<style type="text/css">
	.st0{fill:#875717;}
</style>
<title>shipInCircle</title>
<g>
	<path class="st0" d="M153.5,8c38.9,0,75.4,15.1,102.9,42.6c27.5,27.5,42.6,64,42.6,102.9s-15.1,75.4-42.6,102.9
		c-27.5,27.5-64,42.6-102.9,42.6s-75.4-15.1-102.9-42.6C23.1,228.9,8,192.4,8,153.5S23.1,78.1,50.6,50.6C78.1,23.1,114.6,8,153.5,8
		 M153.5,0C68.7,0,0,68.7,0,153.5S68.7,307,153.5,307S307,238.3,307,153.5S238.3,0,153.5,0L153.5,0z"/>
</g>
</svg>
