<?xml version="1.0" encoding="utf-8"?>
<!-- Generator: Adobe Illustrator 21.0.0, SVG Export Plug-In . SVG Version: 6.00 Build 0)  -->
<svg version="1.1" id="Layer_1" xmlns="http://www.w3.org/2000/svg" xmlns:xlink="http://www.w3.org/1999/xlink" x="0px" y="0px"
	 viewBox="0 0 108.5 43.5" style="enable-background:new 0 0 108.5 43.5;" xml:space="preserve">
<style type="text/css">
	.st0{opacity:0.38;fill:#E2E2E2;}
</style>
<path class="st0" d="M108.2,28.9c-0.8-12.7-18.7-16.2-26.6-8.9c0.4-5.5-2.1-11-7.8-13.1c-4.2-1.5-8.9,0.6-11.9,3.5
	c-0.6,0.6-1.2,1.3-1.6,1.9c-1.2-6-5.8-11-12.9-11.3c-8.8-0.4-13.3,8.3-12.6,16.2c-2.3-3.5-5.9-5.8-10.6-5.1
	c-2.8,0.4-5.4,1.9-7.3,4.1c-1.8,1.9-3,4.3-3.3,6.9c-5.2-1.6-11.8-0.2-12.1,6.2c-0.4,8.3,8.6,12.3,15.7,12.5c0.9,0.1,1.9-0.1,2.9-0.2
	c3.8,0.4,7.9-0.8,11.8-2.5c0.5,0.1,0.9,0.3,1.4,0.4c3.3,0.8,6.6,0.4,9.8-0.9c2.5,1.1,5.2,1.9,7.5,2.5C60.8,43.9,72.8,43,81,36.3
	C89,43.9,109.1,41.3,108.2,28.9z"/>
</svg>
