<?xml version="1.0" encoding="utf-8"?>
<!-- Generator: Adobe Illustrator 19.2.0, SVG Export Plug-In . SVG Version: 6.00 Build 0)  -->
<svg version="1.1" id="Layer_1" xmlns="http://www.w3.org/2000/svg" xmlns:xlink="http://www.w3.org/1999/xlink" x="0px" y="0px"
	 viewBox="0 0 181.8 70.9" style="enable-background:new 0 0 181.8 70.9;" xml:space="preserve">
<style type="text/css">
	.st0{opacity:0.34;}
	.st1{fill:#86877A;}
</style>
<g id="Background" class="st0">
	<path class="st1" d="M181.7,47.4c-1.4-21.7-31.8-27.5-45.2-15.1c0.7-9.4-3.5-18.8-13.3-22.3c-7.2-2.5-15.2,1.1-20.3,6
		c-1.1,1-2,2.2-2.7,3.3c-2-10.2-9.8-18.7-22-19.3c-15-0.7-22.7,14.2-21.4,27.5c-4-5.9-10-9.8-18-8.6c-4.8,0.7-9.2,3.3-12.5,6.9
		c-3.1,3.2-5.1,7.4-5.7,11.8C11.8,34.8,0.5,37.3,0,48.2c-0.7,14.2,14.7,20.9,26.7,21.3c1.6,0.1,3.2-0.1,4.9-0.3
		c6.4,0.6,13.4-1.3,20-4.2c0.8,0.2,1.6,0.5,2.3,0.6c5.6,1.3,11.3,0.6,16.6-1.5c4.3,1.9,8.8,3.3,12.7,4.3c17.4,4.7,37.8,3.3,51.8-8.2
		C148.9,72.9,183.1,68.5,181.7,47.4z"/>
</g>
</svg>
