<?xml version="1.0" encoding="utf-8"?>
<!-- Generator: Adobe Illustrator 19.2.1, SVG Export Plug-In . SVG Version: 6.00 Build 0)  -->
<svg version="1.1" id="Layer_1" xmlns="http://www.w3.org/2000/svg" xmlns:xlink="http://www.w3.org/1999/xlink" x="0px" y="0px"
	 viewBox="0 0 108.5 43.5" style="enable-background:new 0 0 108.5 43.5;" xml:space="preserve">
<style type="text/css">
	.st0{fill:#E2E2E2;}
</style>
<path class="st0" d="M107.6,28.9C106.8,16.2,88.9,12.7,81,20c0.4-5.5-2.1-11-7.8-13.1c-4.2-1.5-8.9,0.6-11.9,3.5
	c-0.6,0.6-1.2,1.3-1.6,1.9c-1.2-6-5.8-11-12.9-11.3C38,0.6,33.5,9.3,34.2,17.2c-2.3-3.5-5.9-5.8-10.6-5.1c-2.8,0.4-5.4,1.9-7.3,4.1
	c-1.8,1.9-3,4.3-3.3,6.9c-5.2-1.6-11.8-0.2-12.1,6.2c-0.4,8.3,8.6,12.3,15.7,12.5c0.9,0.1,1.9-0.1,2.9-0.2c3.8,0.4,7.9-0.8,11.8-2.5
	c0.5,0.1,0.9,0.3,1.4,0.4c3.3,0.8,6.6,0.4,9.8-0.9c2.5,1.1,5.2,1.9,7.5,2.5c10.2,2.8,22.2,1.9,30.4-4.8
	C88.4,43.9,108.5,41.3,107.6,28.9z"/>
</svg>
