<?xml version="1.0" encoding="utf-8"?>
<!-- Generator: Adobe Illustrator 19.2.0, SVG Export Plug-In . SVG Version: 6.00 Build 0)  -->
<svg version="1.1" id="Layer_1" xmlns="http://www.w3.org/2000/svg" xmlns:xlink="http://www.w3.org/1999/xlink" x="0px" y="0px"
	 viewBox="0 0 985.7 775.7" style="enable-background:new 0 0 985.7 775.7;" xml:space="preserve">
<style type="text/css">
	.st0{display:none;}
	.st1{clip-path:url(#SVGID_2_);fill:#E8DECA;}
	.st2{clip-path:url(#SVGID_4_);fill:#D8CAAF;}
	.st3{clip-path:url(#SVGID_6_);fill:#E2D3BC;}
	.st4{clip-path:url(#SVGID_8_);fill:#D6CBBA;}
	.st5{clip-path:url(#SVGID_10_);}
	.st6{fill:#D6CBBA;}
	.st7{fill:#BCB1A2;}
	.st8{fill:none;}
	.st9{fill:#F89F5F;}
	.st10{fill:#E27D39;}
	.st11{fill:#F4B07D;}
	.st12{fill:#FBD4B0;}
	.st13{display:inline;fill:#FBD4B0;}
	.st14{fill:#D65803;}
	.st15{clip-path:url(#SVGID_12_);fill:#FBD4B0;}
	.st16{clip-path:url(#SVGID_14_);fill:#FBD4B0;}
	.st17{clip-path:url(#SVGID_16_);fill:#FBD4B0;}
	.st18{clip-path:url(#SVGID_18_);fill:#FBD4B0;}
	.st19{fill:#934511;}
	.st20{fill:#4C453F;}
	.st21{fill:#5E2D0D;}
	.st22{fill:#0C6958;}
	.st23{fill:#178772;}
	.st24{fill:#FFFFFF;}
	.st25{fill:#838485;}
	.st26{clip-path:url(#SVGID_20_);fill:#5E2D0D;}
	.st27{fill:#107763;}
	.st28{fill:#91877A;}
	.st29{fill:#AFA597;}
	.st30{fill:#CE920D;}
	.st31{fill:#E5AA17;}
	.st32{fill:#EFCF8F;}
	.st33{fill:#A50E4B;}
	.st34{fill:#E8256B;}
	.st35{fill:#EAA2BF;}
	.st36{fill:#1CC5C9;}
	.st37{fill:#1B8689;}
	.st38{fill:#AF4019;}
	.st39{fill:#F9672D;}
	.st40{fill:#ACFCFC;}
	.st41{fill:#F7A284;}
</style>
<g id="Layer_3" class="st0">
	
		<image style="display:inline;overflow:visible;enable-background:new    ;" width="956" height="923" xlink:href="C0F4C8A.jpeg"  transform="matrix(2.1813 0 0 2.1802 -106.9448 -131.3835)">
	</image>
</g>
<g id="Layer_1_1_">
	<g>
		<g>
			<defs>
				<rect id="SVGID_1_" x="-226.8" y="-199.5" width="1419.4" height="1419.4"/>
			</defs>
			<clipPath id="SVGID_2_">
				<use xlink:href="#SVGID_1_"  style="overflow:visible;"/>
			</clipPath>
			<path class="st1" d="M77.1,712.2c0,0-108.6-120.6,68.9-200.9c0,0-80.8-172.3,121.7-172.2c0,0-29.7-177.7,138.9-140.2
				c0,0-78.4-106.4,79.6-186.1c0,0,78.4-37.5,139,27.8c0,0-95,15.7-58.2,72.5c0,0,14.3,26.6,29.7,31.4c0,0,47.5,26.6-11.9,59.2
				c0,0,93.8-31.4,121.1,31.4c0,0,28.5,65.3-7.1,100.3c0,0,217.3-37.5,120,172.8c0,0,223.9,6.9,75.3,219.3
				C894,727.6,716.8,808.6,77.1,712.2"/>
		</g>
		<g>
			<defs>
				<rect id="SVGID_3_" x="-226.8" y="-199.5" width="1419.4" height="1419.4"/>
			</defs>
			<clipPath id="SVGID_4_">
				<use xlink:href="#SVGID_3_"  style="overflow:visible;"/>
			</clipPath>
			<path class="st2" d="M316,635.9c-52.4-27.3-131.1-77.1-166.7-132.8c0,0-2.5,0.1-6.7,0.7c1.9,4.8,3.2,7.6,3.2,7.6
				c-61,27.6-88.2,60-97.7,90.6C92.8,591.4,181,584.8,316,635.9z"/>
		</g>
		<g>
			<defs>
				<rect id="SVGID_5_" x="-226.8" y="-199.5" width="1419.4" height="1419.4"/>
			</defs>
			<clipPath id="SVGID_6_">
				<use xlink:href="#SVGID_5_"  style="overflow:visible;"/>
			</clipPath>
			<path class="st3" d="M534.6,312.1C482.2,277,434.6,226.6,399,155c0,0-3.7-0.3-10,0c4.7,26.3,17.7,43.9,17.7,43.9
				c-93-20.7-125.7,24.1-136.3,68.4C316.2,254.5,403.3,248.2,534.6,312.1z"/>
		</g>
		<g>
			<defs>
				<rect id="SVGID_7_" x="-226.8" y="-199.5" width="1419.4" height="1419.4"/>
			</defs>
			<clipPath id="SVGID_8_">
				<use xlink:href="#SVGID_7_"  style="overflow:visible;"/>
			</clipPath>
			<path class="st4" d="M267.3,339.1c0,0-192.5-10-121.3,172.2c0,0,183.2,196.5,482.5,221.8c0,0,247.1,0.5,262.5-5.6
				c0,0,166.5-189.1-69.8-219.3C821.2,508.3,425.9,587.1,267.3,339.1"/>
		</g>
		<g>
			<defs>
				<rect id="SVGID_9_" x="-226.8" y="-199.5" width="1419.4" height="1419.4"/>
			</defs>
			<clipPath id="SVGID_10_">
				<use xlink:href="#SVGID_9_"  style="overflow:visible;"/>
			</clipPath>
			<g class="st5">
				<path class="st6" d="M587.7,202.1c-9.9,1.3-63.8,4.8-97.4-66.2c0,0-34.8-68.9,37.1-132.2c0,0-21.3-2.2-57.4,18.4
					c-50.9,29.1-113.9,83.3-65.9,175.4c0,0,128.5,183.5,295.4,138.8c0,0,11.4-11.9,16.3-33.3C699.3,238.4,648.9,218,587.7,202.1z"/>
				<path class="st6" d="M710.2,244.5c0,0-13.2-70.4-121-42.7c0,0-0.6,0.1-1.6,0.2C648.9,218,699.3,238.4,715.8,303
					C719.2,287.9,719.5,268.1,710.2,244.5z"/>
			</g>
		</g>
	</g>
	<path class="st7" d="M402.6,460.6c-52.4-27.3-99.2-65.8-134.9-121.6c0,0-128.4-7.4-137.3,88.6C173.5,416.6,263.1,407.8,402.6,460.6
		z"/>
	<path class="st6" d="M821.4,508.1c0,0-31.3,6.2-79.8,9.7c97.1,22.9,182.8,35.8,185.4,156.9C957.8,621.6,976.7,528,821.4,508.1z"/>
</g>
<g id="Layer_4">
	<rect x="686.2" y="-700" class="st8" width="1419.4" height="1419.4"/>
</g>
<g id="Layer_2">
	<path class="st9" d="M0,718.2c0,0,233.2-117.5,507.9-107c0,0,303.7-3.5,477.8,80v73.1L0,764.2"/>
	<path class="st10" d="M0,721.2c0,0,232.3-108.4,508-98.7c0,0,303.1-3.2,477.8,74.1v67.7L0,763.8"/>
	<path class="st11" d="M214.6,652.9c-30.5,6.9-58.6,14.5-83.7,21.9c0.5,22.4,3.2,52,10.8,89.8l83.9,0
		C219.4,734,211.2,684.8,214.6,652.9z"/>
	<path class="st11" d="M433.3,623.4c-32.1,1.2-63.3,3.9-93.2,7.5c-2.6,30.1-4.1,79,5.4,133.7l88.5,0
		C432.2,734.5,428.9,663.6,433.3,623.4z"/>
	<path class="st11" d="M689.9,632.1c-38.6-3.7-74.1-5.8-103.3-7.1c1.8,33.2,4.9,102.7,1.9,139.8l100.5,0.1
		C691.4,745.4,696.1,695.3,689.9,632.1z"/>
	<path class="st11" d="M890.3,665.1c-28-7.2-57.1-13.2-86.2-18.1c4.5,31.5,10.4,85.2,4.3,118l80.5,0
		C891.2,753.5,895.5,721.2,890.3,665.1z"/>
	<path class="st9" d="M0,725.8c0,0,228.5-98.5,504.1-89.8c0,0,307-4.1,481.6,65.8v61.2L0,764.3"/>
	<path class="st10" d="M0,725.8c0,0,227.2-99.3,502.8-90.5c0,0-291.9,26.5-117.3,96.4h-63.5L0,764.3"/>
	<path class="st12" d="M213.2,662.4c-30.2,6.2-57.9,13-82.7,19.8c0.9,21.3,3.9,48.4,10.6,81.7l83.8-0.1
		C219.3,736.4,212.1,693.9,213.2,662.4z"/>
	<path class="st12" d="M431.4,635.9c-32,1.1-63.2,3.4-93,6.7c-1.9,30.2-1.9,73.4,6.4,121.1l88.5-0.1
		C431.6,736.3,428.8,676.8,431.4,635.9z"/>
	<path class="st12" d="M690.2,643.4c-38.5-3.2-74.2-5.1-103.7-6.2c1.7,35.8,3.8,93.3,1.3,126.1l100.5-0.1
		C690.6,744.7,694.7,700.1,690.2,643.4z"/>
	<path class="st11" d="M339.3,643.3c-0.6,10-1,21.4-1,33.9c16.3-14.4,56.8-24.6,93.6-31.3c0.1-3.2,0.3-6.3,0.5-9.3
		C400.3,637.6,369.1,640,339.3,643.3z"/>
	<path class="st12" d="M890.3,672.8c-27.8-6.4-56.6-11.7-85.5-16.1c4.1,31.6,8.3,77.1,3,106.4l80.5-0.1
		C890.5,751.4,894.2,722.1,890.3,672.8z"/>
	<g id="Layer_5" class="st0">
		<path class="st13" d="M217.2,524.2c0,0-14.6,39.6,7.4,137.9l73.4,9.8c0,0-26.4-106.7-9.5-136.7L217.2,524.2z"/>
		<path class="st13" d="M393.4,508.6c0,0-12.9,67.5,2.7,147.7l74.5,4.5c0,0-8.1-114.9,1.4-147.9L393.4,508.6z"/>
		<path class="st13" d="M598.4,514.3c0,0,7.1,110.8,1.3,145.2l85.5-3.4c0,0,10.8-63.9-1.4-146.2L598.4,514.3z"/>
		<path class="st13" d="M780.5,527.3c0,0,19.4,105.8,2.1,136.7l72.4-11.2c0,0,11.5-42.1-4.1-135.8L780.5,527.3z"/>
	</g>
	<path class="st14" d="M0,731c0,0,228.5-40.8,504.1-37.2c0,0,307-1.2,481.6,27.8V747L0,750.6"/>
	<g>
		<g>
			<path id="XMLID_1_" class="st9" d="M0,748.4c0,0,228.5-40.8,504.1-37.2c0,0,307-1.2,481.6,27.8v25.4H0"/>
		</g>
		<g>
			<defs>
				<path id="SVGID_11_" d="M0,748.4c0,0,228.5-40.8,504.1-37.2c0,0,307-1.2,481.6,27.8v25.4H0"/>
			</defs>
			<clipPath id="SVGID_12_">
				<use xlink:href="#SVGID_11_"  style="overflow:visible;"/>
			</clipPath>
			<path class="st15" d="M214.1,675.6c-30.2,6.2-57.9,13-82.7,19.8c0.9,21.3,3.9,48.4,10.6,81.7l83.8-0.1
				C220.2,749.6,213,707.1,214.1,675.6z"/>
		</g>
		<g>
			<defs>
				<path id="SVGID_13_" d="M0,748.4c0,0,228.5-40.8,504.1-37.2c0,0,307-1.2,481.6,27.8v25.4H0"/>
			</defs>
			<clipPath id="SVGID_14_">
				<use xlink:href="#SVGID_13_"  style="overflow:visible;"/>
			</clipPath>
			<path class="st16" d="M432.3,649.1c-32,1.1-63.2,3.4-93,6.7c-1.9,30.2-1.9,73.4,6.4,121.1l88.5-0.1
				C432.6,749.5,429.8,690,432.3,649.1z"/>
		</g>
		<g>
			<defs>
				<path id="SVGID_15_" d="M0,748.4c0,0,228.5-40.8,504.1-37.2c0,0,307-1.2,481.6,27.8v25.4H0"/>
			</defs>
			<clipPath id="SVGID_16_">
				<use xlink:href="#SVGID_15_"  style="overflow:visible;"/>
			</clipPath>
			<path class="st17" d="M691.2,656.6c-38.5-3.2-74.2-5.1-103.7-6.2c1.7,35.8,3.8,93.3,1.3,126.1l100.5-0.1
				C691.5,757.9,695.6,713.3,691.2,656.6z"/>
		</g>
		<g>
			<defs>
				<path id="SVGID_17_" d="M0,748.4c0,0,228.5-40.8,504.1-37.2c0,0,307-1.2,481.6,27.8v25.4H0"/>
			</defs>
			<clipPath id="SVGID_18_">
				<use xlink:href="#SVGID_17_"  style="overflow:visible;"/>
			</clipPath>
			<path class="st18" d="M891.3,686c-27.8-6.4-56.6-11.7-85.5-16.1c4.1,31.6,8.3,77.1,3,106.4l80.5-0.1
				C891.5,764.6,895.1,735.2,891.3,686z"/>
		</g>
	</g>
	<path class="st10" d="M653.6,693.1c-7.2-5.3-12-13.5-12.9-22.9c-0.7-3.2-1.1-6.5-1.1-9.9c0-25.1,20.4-45.5,45.5-45.5
		c25.1,0,45.5,20.4,45.5,45.5c0,15.5-7.8,29.2-19.6,37.4c2.4,0.1,4.8,0.2,7.3,0.3c11.3-10.3,18.4-25.1,18.4-41.6
		c0-31-25.1-56.1-56.1-56.1s-56.1,25.1-56.1,56.1c0,15.1,6,28.9,15.8,39c5.4,0.1,11,0.3,16.6,0.5C655.7,695,654.7,694.1,653.6,693.1
		z"/>
	<path class="st9" d="M659.2,694.3c-7.2-5.3-12-13.5-12.9-22.9c-0.7-3.2-1.1-6.5-1.1-9.9c0-25.1,20.4-45.5,45.5-45.5
		c25.1,0,45.5,20.4,45.5,45.5c0,15.5-7.8,29.2-19.6,37.4c2.4,0.1,4.8,0.2,7.3,0.3c11.3-10.3,18.4-25.1,18.4-41.6
		c0-31-25.1-56.1-56.1-56.1S630,626.6,630,657.6c0,15.1,6,28.9,15.8,39c5.4,0.1,11,0.3,16.6,0.5
		C661.3,696.2,660.2,695.3,659.2,694.3z"/>
	<path class="st19" d="M736.3,661.5c0-25.1-20.4-45.5-45.5-45.5c-25.1,0-45.5,20.4-45.5,45.5c0,3.4,0.4,6.7,1.1,9.9
		c-0.1-0.9-0.1-1.9-0.1-2.9c0-17.7,14.3-32,32-32c17.7,0,32,14.3,32,32c0,13.2-8,24.5-19.4,29.4c8.5,0.3,17.2,0.6,25.9,1
		C728.5,690.7,736.3,677,736.3,661.5z"/>
	<path class="st20" d="M646.4,671.4c0.8,9.4,5.7,17.6,12.9,22.9C652.9,688.2,648.3,680.3,646.4,671.4z"/>
	<path class="st21" d="M690.7,698c11.4-4.9,19.4-16.2,19.4-29.4c0-17.7-14.3-32-32-32c-17.6,0-32,14.3-32,32c0,1,0,1.9,0.1,2.9
		c2,8.9,6.5,16.8,12.9,22.9c1.5,1.1,3,2,4.6,2.8C672.6,697.4,681.6,697.7,690.7,698z"/>
	<path class="st10" d="M816.8,701.8c-5.9-4.5-9.8-11.5-10.3-19.3c-0.5-2.7-0.8-5.4-0.7-8.3c0.5-20.9,17.8-37.5,38.7-37
		c20.9,0.5,37.5,17.8,37,38.7c-0.3,12.9-7,24.2-17.1,30.8c2,0.1,4,0.3,6,0.4c9.6-8.3,15.8-20.6,16.1-34.3
		c0.6-25.8-19.9-47.2-45.7-47.8c-25.8-0.6-47.2,19.9-47.8,45.7c-0.3,12.6,4.5,24.2,12.4,32.7c4.5,0.2,9.1,0.5,13.8,0.7
		C818.5,703.4,817.6,702.6,816.8,701.8z"/>
	<path class="st9" d="M821.4,702.9c-5.9-4.5-9.8-11.5-10.3-19.3c-0.5-2.7-0.8-5.4-0.7-8.3c0.5-20.9,17.8-37.5,38.7-37
		c20.9,0.5,37.5,17.8,37,38.7c-0.3,12.9-7,24.2-17.1,30.8c2,0.1,4,0.3,6,0.4c9.6-8.3,15.8-20.6,16.1-34.3
		c0.6-25.8-19.9-47.2-45.7-47.8c-25.8-0.6-47.2,19.9-47.8,45.7c-0.3,12.6,4.5,24.2,12.4,32.7c4.5,0.2,9.1,0.5,13.8,0.7
		C823.1,704.5,822.3,703.7,821.4,702.9z"/>
	<path class="st19" d="M886.2,677c0.5-20.9-16.1-38.3-37-38.7c-20.9-0.5-38.3,16.1-38.7,37c-0.1,2.8,0.2,5.6,0.7,8.3
		c-0.1-0.8-0.1-1.6-0.1-2.4c0.3-14.7,12.5-26.3,27.2-26c14.7,0.3,26.3,12.5,26,27.2c-0.2,11-7.1,20.3-16.7,24.1
		c7.1,0.4,14.3,0.8,21.6,1.3C879.2,701.2,885.9,690,886.2,677z"/>
	<path class="st21" d="M847.6,706.5c9.6-3.8,16.5-13.1,16.7-24.1c0.3-14.7-11.3-26.9-26-27.2c-14.7-0.3-26.9,11.3-27.2,26
		c0,0.8,0,1.6,0.1,2.4c1.5,7.4,5.1,14.1,10.3,19.3c1.2,0.9,2.5,1.7,3.8,2.4C832.5,705.7,840,706.1,847.6,706.5z"/>
	<path class="st10" d="M395.6,692.5c7.2-5.3,12-13.5,12.9-22.9c0.7-3.2,1.1-6.5,1.1-9.9c0-25.1-20.4-45.5-45.5-45.5
		c-25.1,0-45.5,20.4-45.5,45.5c0,15.5,7.8,29.2,19.6,37.4c-2.4,0.1-4.8,0.2-7.3,0.3c-11.3-10.3-18.4-25.1-18.4-41.6
		c0-31,25.1-56.1,56.1-56.1s56.1,25.1,56.1,56.1c0,15.1-6,28.9-15.8,39c-5.4,0.1-11,0.3-16.6,0.5
		C393.6,694.4,394.6,693.5,395.6,692.5z"/>
	<path class="st9" d="M390.1,693.7c7.2-5.3,12-13.5,12.9-22.9c0.7-3.2,1.1-6.5,1.1-9.9c0-25.1-20.4-45.5-45.5-45.5
		c-25.1,0-45.5,20.4-45.5,45.5c0,15.5,7.8,29.2,19.6,37.4c-2.4,0.1-4.8,0.2-7.3,0.3c-11.3-10.3-18.4-25.1-18.4-41.6
		c0-31,25.1-56.1,56.1-56.1s56.1,25.1,56.1,56.1c0,15.1-6,28.9-15.8,39c-5.4,0.1-11,0.3-16.6,0.5C388,695.6,389.1,694.7,390.1,693.7
		z"/>
	<path class="st19" d="M313,660.9c0-25.1,20.4-45.5,45.5-45.5c25.1,0,45.5,20.4,45.5,45.5c0,3.4-0.4,6.7-1.1,9.9
		c0.1-0.9,0.1-1.9,0.1-2.9c0-17.6-14.3-32-32-32c-17.7,0-32,14.3-32,32c0,13.2,8,24.5,19.4,29.4c-8.5,0.3-17.2,0.6-25.9,1
		C320.8,690.1,313,676.4,313,660.9z"/>
	<path class="st21" d="M358.6,697.4c-11.4-4.9-19.4-16.2-19.4-29.4c0-17.6,14.3-32,32-32c17.6,0,32,14.3,32,32c0,1,0,1.9-0.1,2.9
		c-2,8.9-6.5,16.8-12.9,22.9c-1.4,1.1-3,2-4.6,2.8C376.7,696.8,367.7,697.1,358.6,697.4z"/>
	<path class="st22" d="M400.4,681.5c0.3-0.5,0.5-1.1,0.8-1.6c1.4-3.2,2.1-7.7,1.8-11.3c-0.5-4.6-3.8-4.1-7.7-3.1
		c-4.1,1.1-8.1,0.5-12.2-0.6c-2.8-0.8-4.4-2.5-7-3.9c-4.6-2.4-9.6-3.6-14.9-2.2c-4.5,1.2-13.2,6.2-15.8,9.6c-2,2.6-1.8,6.3-3.6,9
		c-1.8,2.7-4.8,3.7-6.8,6.2c-4.5,5.8-5,10.2-11.5,14.8c-6.6,4.7-14.8,6.7-21.6,11.6c-11.8,8.5-23.9,17.1-31.8,29.8
		c-1.5,2.4-3.1,4.8-4.3,7.3c-1.3,2.7-2.1,5.5-1.8,8.6c5.7-4.6,18.8-2.9,25.9-4c8.3-1.3,16.3,0.8,24.9,0.8c8.2,0,20,4.3,27.5,2.4
		c6.8-1.6,5.6-6.3,9.7-12c3.4-4.7,8.7-8.1,11.5-13c3.3-5.8,2.7-11,6.5-16.6c3-4.4,6.4-10,10.5-13.5c4.3-3.6,9.6-4,13.2-8.9
		C396,688.1,398.6,684.8,400.4,681.5z"/>
	<path class="st23" d="M303.1,748.2c3.8,0,10.8,3,14.1,1.6c3-1.3,2.8-7.4,7.1-6.9c2.9,0.3,1.9,3.1,4,3.9c3.5,1.4,6.7-4.5,8.4-6.7
		c3.6-4.4,7.8-9.1,10.4-14.2c1.9-3.9,7.5-10.2,7.9-14.3c0.4-3.8-3.6-5.1,0.7-8.2c5.8-4.2,11.6-7.3,17.1-11.7c1.2-1,2.6-1.6,4-2.3
		c0.4-0.2,4.1-1.8,4.1-1.8c2.3-4.2,9.6-6.9,10.4-11.7c0.6-3.6-1.8-3.8-4.4-4.1c-6.3-0.8-7.9-5.8-11.1-10.4c-1.7-2.4-2.6-2.4-5.6-3.1
		c-2.3-0.5-4.2-0.6-6.6-0.7c-2.5-0.1-4-0.8-6.1,1.2c-1.7,1.6-2.7,3.9-5.1,5.3c-2.6,1.5-6.1,2.1-8.1,4.5c-1.1,1.4-1.1,3.1-2,4.5
		c-1,1.5-2.9,2.7-4.1,4.2c-1.8,2.4-1.6,5.7-3.2,8.1c-1.6,2.5-4.4,3.3-6.2,5.6c-4.1,5.2-4.6,9.3-10.5,13.4c-6,4.2-13.5,6.1-19.7,10.5
		c-10.8,7.7-21.8,15.4-29,26.9c-1.4,2.2-2.8,4.3-3.9,6.6c5.1-0.5,10.9-0.2,14.7-0.8C287.9,746.2,295.2,748.2,303.1,748.2z"/>
	<path class="st24" d="M291.4,722.1c0.3,0.6-1,4.1,0.3,5.8c2.1-1.7,3.6-4.5,5.8-6.2c2.9,3.9,4.8-3.4,5-5.3c-4.6-0.7-7.6,4-11.5,5"/>
	<path class="st24" d="M304.2,724.6c1.3,1.1,3.8-0.7,5.4-0.1c2.2,0.8,1.8,2.4,4.6,2.7c2.1,0.2,4.3-1.3,6.4-1.4
		c2.8-0.1,1.7,1.2,3.7,1.8c1.8,0.5,4.2-0.4,6.1-0.4c4.2,0,6.8,0.6,10.6-1c2.5-1.1,7.3-2.1,6.5-5.8c-6.5-0.3-13.3,2.4-19.4,1
		c-2.4-0.5-4.9-2.2-7.2-2.5c-3-0.5-5.9,1.2-9,1c-1-0.1,0.1-5-4.3-3.3C305.3,717.5,301.8,722.6,304.2,724.6z"/>
	<path class="st24" d="M351.6,723.7c-1.2-0.4-3.8,7.2,0.4,5.1c2.1-1.1,2.8-6.2,3.2-8.3c-1.9,0-2.3,1.7-3.9,2.5"/>
	<path class="st24" d="M357.7,696.1c-1.1,1.4-1,3.6-1.7,5.1c-1.5,3.3-1.9,1.8-4.1,2.1c-1.1,0.1-2.3,1-3.4,1.1
		c-2.2,0.1-3-1.7-4.8-2.2c-3.3-0.9-7.8,7-10.8,4.1c-2.2-2.2,1-5-0.2-7c-1.4-2.4-4.2,1-5.6,1.9c-0.2,0.1-2.1-2.8-3.2-2.3
		c-1.6,0.7-1.8,3.6-0.5,4.7c1.8,1.6,6.7-3.5,8.6-4.4c2.4-1.2,5.8-2.3,8.4-1.9c4.1,0.7,5,3.9,9.5,0.9c1-0.6,2.1-1.8,3.2-1.8
		c0.8-0.1,0.6,1.6,1.7,1.5c1.3-0.1,2.6-3.3,3.2-1.1"/>
	<path class="st24" d="M366.8,701.1c-1-1.5-1.4-3.8-3.6-3.6c-1.7,2.2-0.7,7.8-0.1,10.4c2.4-1.4,4-5,3.6-7.9"/>
	<path class="st24" d="M380.2,677.8c-0.1-3.2-1.8-6.3-5.4-4.6c-3.4,1.6-2.9,4.4-7.6,3.3c-1.3-0.3-1.3-1.2-3-1.3
		c-1.6-0.1-2.7,0.7-4.3,0.8c-3.3,0.3-5.9-0.6-8.4,1.8c1.9,0.5,5.4,0.5,7.3,1.7c2.8,1.8,1.7,3.1,5.4,3.1c3.8,0,10.4-1.7,13.3,0.6
		c-0.2-2.1,1-3.7,1.9-5.4"/>
	<path class="st24" d="M258.9,750.7c-0.1,0.7-0.3,2.2-0.4,2.3c-0.5-2.2,2.6-5.6,4.7-6.3c2.8-0.9,4.5,2,7.2,0.1c2-1.4,0.8-4.4,4.1-3
		c1.6,0.6,1.6,3.6,3.7,3.8c2.5,0.2,2.9-3.4,5-4.3c2.1-0.9,6.1,0.2,8.2,0.7c1.4,0.3,1.7,0.2,3.1,0.8c1.3,0.5,1.5,1.8,3.2,1.9
		c2.8,0.2,4-1.6,4-4.3c1.6,0,2.7,0.5,4.2,0.7c0.1,1.2,0,2.5-0.3,3.6c2.3,0.8,4.4-0.8,6.6-0.4c2.4,0.5,3.1,2.9,5.1,3.6
		c4.1,1.4,7.3-2.7,8.2-6.1c4.8-1.3,4.5,4.9,4.7,7.8c1.3,0.8,4.2,2,5.7,1.4c1.8-0.7,1.8-3.7,4-3.9c0.6-0.1,5.6,2.7,6,3.2
		c1.6,1.7,1.7,5.9,1.5,8c-0.4,6.5-3.9,3.2-8.3,4.3c-2.3,0.6-3.5,2.5-5.6,3.5c-1.9,0.9-4.3,1-6.2,1.1c-1.7,0.1-0.9,0-2.7,0.7
		c-3.2,1.3-13.3,5.4-16.6,2.9c-1.6-1.2-0.7-2.8-1.7-4.3c-2.1-3.2-3.7-1.4-5.8,0.5c-2.5,2.4-2.7,3.6-6.6,2.5
		c-3.4-0.9-5.6-2.6-9.4-1.4c-3.2,1-5.2,2.9-9,2.1c-1.6-0.4-2.7-1.6-4-1.8c-0.8-0.2-3.1,0.4-4,0.4c-4.8-0.1-3.1-2.2-5.8-4.7
		c-3.5-3.3-2.3,3-6.4,2.5c-3.8-0.4-5.7-5.2-4.3-8.5c1.3-2.9,5-4,7-6.1c1.3-1.3,0.5-3.2,2.6-3.5"/>
	<path class="st25" d="M814.3,690.8"/>
	<path class="st10" d="M11.7,738.4l-0.4-28.2c0,0,0.4-10.2,10.2-11c9.8-0.8,11.7,5.6,11.7,5.6l0.4,31.7L11.7,738.4z"/>
	<path class="st9" d="M10.8,737.6l-0.2-22.8c0,0-0.6-13.4,7.9-15.6c10.7-2,12.1,4.3,12.1,4.3l0.6,31.9L10.8,737.6z"/>
	<g>
		<g>
			<path id="XMLID_5_" class="st19" d="M13.4,736.5C13,717.5,13,713.7,13,717c0,0.2,0,0.5,0,0.7c0.2-3.9,0.5-8.8,2.2-12
				c1.4-2.6,4.7-4.8,7.1-3.9c1.6,0.6,3.2,1.5,4.2,3.3c0.1,0.2,0.4,0.6,0.4,0.9c0,0,0.5,28.6,0.5,28.6L13.4,736.5z"/>
		</g>
		<g>
			<defs>
				<path id="SVGID_19_" d="M13.4,736.5C13,717.5,13,713.7,13,717c0,0.2,0,0.5,0,0.7c0.2-3.9,0.5-8.8,2.2-12
					c1.4-2.6,4.7-4.8,7.1-3.9c1.6,0.6,3.2,1.5,4.2,3.3c0.1,0.2,0.4,0.6,0.4,0.9c0,0,0.5,28.6,0.5,28.6L13.4,736.5z"/>
			</defs>
			<clipPath id="SVGID_20_">
				<use xlink:href="#SVGID_19_"  style="overflow:visible;"/>
			</clipPath>
			<path class="st26" d="M20.6,736.6L20.1,725c0,0,1.7-5.7,7.7-6.2c6-0.5,7.1,3.5,7.1,3.5l-5.8,12.5L20.6,736.6z"/>
		</g>
	</g>
	<path class="st25" d="M113,739"/>
	<polygon class="st9" points="31.4,731.7 10.9,734.9 10.9,739 31.4,735.8 	"/>
	<path class="st27" d="M836.3,683.4c-1.8-0.7-3.6-1.3-5.4-2c-3.9-1.3-8.1-2.5-12.3-2.5c-1.4,0-3,0.4-4.2,1.1
		c-1.2,0.7-2.6,1.8-3.1,3.2c-0.3,1-0.2,2.1,0,3c0.1,0.7,0.1,1.3,0.3,2c0.2,0.6,0.3,1.1,0.5,1.7c0.3,0.8,0.7,1.6,1.1,2.4
		c0.4,0.8,0.6,1.6,1.1,2.3c0.4,0.6,0.7,1.2,1.2,1.8c0.3,0.4,0.6,0.9,0.9,1.3c0.2,0.3,0.4,0.7,0.7,1c0.3,0.3,0.4,0.5,0.6,0.8
		c0.4,0.6,0.9,0.9,1.4,1.3c0.4,0.3,0.8,0.8,1.2,1.1c0.5,0.5,0.9,0.7,1.3,1.4c0.4,0.7,0.8,1.5,1.3,2.2c1.6,2.5,3.7,4.6,5.3,7.1
		c3.3,5.3,7.8,8.6,11.4,13.6c3.3,4.7,4.8,10.2,7.9,15.1c3.1,5,5.3,8.3,6.9,14.3c1.2,4.5,1.6,8.2,5.9,9.8c8.2,3,21.1-1.4,29.8-1.7
		c6.8-0.3,13.8,0.5,20.6-0.2c0.4-1.9,0.3-3.6-0.1-5.2c-1.7,0.1-3.4,0.2-5.1,0.2c1.7,0,3.4-0.1,5-0.2c-1.7-7.1-9.5-12-13-18.5
		c-2.6-4.8-3.1-5.5-8.1-8.8c-4.9-3.3-8.4-7.7-12.6-11.7c-3.7-3.5-8.3-5.4-12.3-8.5c-4.2-3.2-6.3-7.9-9.7-11.3
		c-1.7-1.7-4.3-2.3-5.6-4.1c-1.2-1.7-0.7-3.9-1.8-5.7C844.6,685.5,840.4,684.9,836.3,683.4z M890.3,758.4
		c-6.5,0.3-15.4,2.8-22.9,2.8c7.5,0,16.4-2.5,22.8-2.8c0.9,0,1.7-0.1,2.6-0.1C892,758.4,891.2,758.4,890.3,758.4z"/>
	<path class="st8" d="M846.4,662.2c-0.1,0-0.2,0-0.4,0"/>
	<path class="st23" d="M889.5,731c-4.9-3.3-8.4-7.7-12.6-11.7c-3.7-3.5-8.3-5.4-12.3-8.5c-4.2-3.2-6.3-7.9-9.7-11.3
		c-1.7-1.7-4.3-2.3-5.6-4.1c-1.2-1.7-0.7-3.9-1.8-5.7c-2.7-4.3-6.9-4.9-11-6.4c-5.6-2-20.6-8.3-24.3-1c-0.1,0.2-0.2,0.4-0.2,0.6
		c-0.7,1.7,2.7,6.4,3.6,7.7c1.2,2,2.5,3.4,5,2.2c2,0.5,2.4,3.1,2.4,4.9c0,4.4,3.5,6.2,5.6,9.7c1.4,2.2,2.7,4.5,5.3,5.1
		c1.7,0.4,4.9-0.2,5.5,2c0.4,1.3-0.2,2.9,0.2,4.2c0.7,2.7,2.4,5.4,3.6,8c1.2,2.4,2.2,4.9,3.5,7.2c1.1,2.1,2.9,3.4,4.3,5.2
		c1.5,2,3.5,3.4,4.3,6c0.4,1.3-0.1,3.4,0.7,4.4c0.5,0.6,1.6,0.5,2.2,1c0.5,0.5,0.5,1.1,0.9,1.7c0.5,0.8,1.5,2.7,2.2,3.2
		c0.8,0.5,2,0.3,2.5,1.1c0.4,0.7-0.2,2.1,0.5,3.1c1.3,1.9,4,2.3,6,1.4c0.9-0.4,1.9-1,2.7-1.4c1-0.5,1.7-0.7,1.8-2
		c1.5-0.8,1.7,1.3,2.8,1.8c1.9,0.9,3.7,0.5,5.6-0.1c1.1-0.3,2.3-0.6,3.2-1.2c0.9-0.6,1.3-1.6,2.4-1.8c1.5-0.2,2.7,0.9,4.1,1.4
		c1.4,0.5,2.9,0.6,4.4,0.6c4.5,0.1,8.9,0.3,13.4-0.1c-1.7-7.1-9.5-12-13-18.5C895,735,894.4,734.4,889.5,731z"/>
	<path class="st24" d="M850.8,736.8c1.3-2.3,3.3-3.4,5.6-3.2c0.5,0,0.9,0.7,1.3,0.7c0.6,0.1,1.1-0.5,1.5-0.4c0.7,0.1,1.2,0.8,2,0.8
		c1,0,2.1-0.9,3.1-0.7c1,0.2,1.9,2,3,1.4c0.7-0.4,0.3-1.7,1-2.1c0.7-0.4,2.5,0.8,3.1,1.3c1.3,1.1,2,2,3.8,1.8c2.8-0.3,7-4.4,9.4-1
		c1.4,2,3.3,7.8-0.9,5.4c-0.9-0.5-1.2-1.5-2.3-1.6c0.4,2.3-2,1.8-3.1,2.3c-1.8,0.7-2,3.2-3.4,4.1c-1.6,1-4.1,0.1-5.8,0
		c-2.4-0.1-4.1-0.1-6.1-1.7c-2-1.6-2.8-1-5-1.2c-1.2-0.1-1.7-0.9-2.7-1.5c-1.1-0.6-2.5-0.2-3.3-1.4c-0.6-0.8-0.6-1.8-1.4-2.6"/>
	<path class="st24" d="M889,732.5c0,1.8,5.5,4.5,4.9,6.9c-0.5,2-3.7-1.9-4.9-1.8c0,0.2-0.1,0.5-0.1,0.7c-1.6,0.6-2.6-1.5-2.3-3
		c0.6,0.1,1,0.2,1.4,0.7c0.9-0.9-0.2-1.9,0.1-3c0.7-0.3,0.8-0.1,0.9,0"/>
	<path class="st24" d="M851.1,742.8c-1.6-0.7-1.9-3-2.2-4.3c-0.2-0.9-1.1-4.3-1.9-1.8c-0.3,1,0.9,3.1,1.3,4.2
		c0.6,1.6,0.6,3.1,2.7,3.2c0.1-0.6,0-1.1-0.3-1.6"/>
	<path class="st24" d="M840.9,720.8c-0.6-0.2-1.9-1.4-2.5-1.1c-1,0.6,0.7,3.5,1.1,4.1c1,1.7,2.3,3.3,3.6,4.5c0.6-1,0.7-3.6-0.4-4.1
		c0.4,0,0.9-0.1,1.4,0.2c-0.2-2.1-0.7-2.6-2-4.3c-0.2,0.2-0.7,0.2-0.9,0.3"/>
	<path class="st24" d="M844.2,719.1c0.4,1.3,1.5,4,3,4.1c0.5-2,1-0.9,2-0.7c1.3,0.2,3.1-0.2,4.4,0.2c1,0.4,1.4,1.7,2.5,1.8
		c1.4,0.1,1.6-1,1.5-2.1c2.1-0.9,4.2,0.5,3.4-2.3c0.1,0.2-0.7-0.8-0.7-0.9c-0.1-0.3,0.1-1.1-0.2-1.7c-0.3-0.6-1.7-1.3-2.4-1.2
		c-0.2,1.2,0.4,2,0.5,3c-2.5,0-5.1-0.5-7.6-0.5c-2.2,0-5.1,1-6.9,0.7"/>
	<path class="st24" d="M861.4,715.7c1.4,1.2,1.7,3.3,3.6,3.7c-0.1-0.7-0.4-1.4-0.3-2.1c1.6-0.9,3.2,0.5,4.6-0.2
		c-0.3-1.1-3.8-5.2-4.3-2.2c-1.4-0.4-1.7-0.4-3,0.2c-0.1,0.1,0,0.4,0,0.5C861.7,715.7,861.5,715.6,861.4,715.7
		c-0.1,0.6,0.1,1,0.5,1.3"/>
	<path class="st24" d="M822,694.4c0.9,1.7,4,8,4.5,3.1c1.9-0.3,3.7,2.4,3.9-0.2c0.2-2-2.5-3.2-3.6-1.8c-0.7-0.6-1.5-1.7-2.5-1.6
		c-1.2,0-1.2,1.4-2.5,1.1c0,0,0,0.5,0,0.5c0.4,0.4,0.6,0.7,0.9,0.9"/>
	<path class="st24" d="M831,693.5c0-0.1-0.3-0.4,0-0.2c1.1,0.8,1.5,2.3,2.7,3c0.7-0.8,0.3-1.4,1.4-1.6c1.2-0.2,2.5,1.3,3.8,1
		c1.4-0.3,0.3-1.5,2.3-0.5c1.4,0.7,1.1,1.5,2.2,0.7c0.8-0.5-0.6-1.3,1.2-1.4c0.6,0,1.5,1.5,2.2,0.3c0.8-1.2-2.4-3.8-3.3-4.4
		c-0.1,0.1-0.1,0.3-0.2,0.4c-1.7,0-1.6,0.6-2.9,1.1c-1.3,0.5-2.8-0.3-4.1,0.1c-1.5,0.4-2,0.4-3.6,0.3c-1.5-0.1-2.4,0.5-1.4,1.8"/>
	<path class="st24" d="M848.5,766.7c-2.5-6.9,4.5-9.6,10.5-8.7c3.6,0.5,3.3,1.5,6.2-2.2c2.1-2.8,2.8-3.2,6.5-2.4
		c2.7,0.5,5.3,1,8.2,1.5c1.2,0.2,1.6,1.1,3.1,1c1.8-0.1,2.1-1.2,3.7-1.7c4.6-1.4,9.6,1.8,13.9-0.5c0.1-1.3,0.2-2.6,0.5-3.9
		c2.3,0.2,4.5,3.5,7.3,3.8c2.5,0.3,4.2-2.3,6.4-1.3c1.9,0.8,3.6,6.4,2.8,8.2c-1.5,3.3-5.5,1.2-7.2,4.1c-2.1,3.6,1.1,5.8-4.3,7.2
		c-3.3,0.9-7.2,0-10.5-0.8c-3.8-0.9-5.8-2.1-9.7-0.7c-3.4,1.2-6.8,3.9-10.5,3.6c-1.6-0.1-2.3-1.5-4.2-1.1c-2.2,0.4-3.6,2.1-5.9,2.3
		c-1.4,0.1-2.7-0.5-4-0.4c-1.5,0.1-2.4,1.1-4,1.1c-5.9-0.2-5.5-7.7-9.4-9.4"/>
	<path class="st27" d="M771.8,756.2c-0.6-0.7-2.8-0.9-3.7-1.8c0,0,0,0,0,0c-0.9-0.9-1.5-2.2-2-3.3c-4.9-9.3-9.9-18.6-15.9-27.5
		c-3.3-4.9-6.9-12.4-11.6-16c-3.5-2.6-8.1-3.6-12.3-4.3c-2.8-0.5-4.9-1.8-7.5-2.5c-5.4-1.5-17.6,1.1-17.8-7.9
		c-0.1-3.2,2.4-6.2,2.5-9.4c0.2-3.3-2.1-7.8-4.4-9.8c-3.7-3.3-10.2-4-15.5-3.2c-1.2,0.2-2.2,0.4-3.2,0.7c-5.7,1.8-15.2,8.2-20.9,4.8
		c-2.7-1.7-6.6-3.8-9.9-3.2c-1.1,0.2-1.7,0.7-2,1.7c-0.5,1.5-0.1,2.2,0.3,3.7c0.3,0.9,0.3,1.7,0.7,2.6c1.4,3.3,3.6,5.7,5.4,8.6
		c0.8,1.3,2.4,2.2,2.8,3.7c0.6,1.8-0.1,4,0.3,5.8c0.2,0.9,0.5,1.7,0.6,2.6c0.1,1.1,0,1.8,0.5,2.8c0.5,1.2,0.8,2.4,1.3,3.6
		c0.9,2.5,2,4.9,3.6,7c1.2,1.6,2.8,2.8,4,4.3c1.4,1.8,1.4,3.5,2.1,5.5c1,3,3.1,4.9,4.9,7.4c3,4.1,4,8.9,6.7,13.1
		c3.1,4.8,6.8,9.1,10.9,13c3.3,3.1,6.3,2,10.8,2.2c7.6,0.4,14.4,0.2,22-0.4c3.6-0.3,6.5-1.4,10.1-1.9c5.5-0.8,11.5-0.3,17-0.3
		c4.9,0,9.9-0.9,14.8-0.4C768.1,757.8,775.1,759.7,771.8,756.2z M674.3,676.2c0.5,0.1,0.4,0.4,0.7,0.8l-2.2,0.6
		C673.2,677.1,673.7,676.6,674.3,676.2z"/>
	<path class="st23" d="M750,724.1c-3.3-4.9-6.9-12.4-11.6-16c-1.3-1-2.6-1.6-4-2.2c-1.3-0.5-2.4-1.5-3.9-1.7
		c-1.2-0.1-2.4-0.5-3.5-1.1c-0.6-0.3-1.1-0.7-1.7-1c-0.8-0.3-1.6-0.3-2.3-0.8c-0.5-0.4-1-1-1.5-1.5c-1.7-1.5-3.7-2.1-5.7-3
		c-2.5-1.2-4.5-2.1-6.5-4.1c-1-1-1.6-2.1-2.5-3.2c-1-1.2-1.6-2.4-2.4-3.7c-0.6-1-1.2-1.4-1.3-2.6c0-1.1-0.1-2-0.5-3.1
		c-0.7-2.2-2-4.3-3.8-5.9c-3.7-3.3-10.2-4-15.5-3.2c-2.4,0.4-5,2.3-7.2,3.4c-1.9,0.9-4.3,2-6.4,2.3c-0.8,0.1-1.6-0.1-2.4,0.1
		c-0.9,0.2-1.5,0.5-2.4,0.5c-1.7,0-2.9,1.6-4.1,2.7c-0.7,0.7-0.8,1.3-0.6,2.3c0.3,1.7,0.8,3.6,1.5,5.2c3.1,7.6,15.7,4.2,18.7,12.3
		c0.8,2.1-3.3,0.9-4.1,0.5c-1.6,1.2,1.7,3.1-0.7,5.6c-1.6,1.7-2.4,0.9-2,3.6c0.5,3,2.7,2.8,4.4,4.6c3.4,3.7,4,9.4,5.4,13.8
		c0.8,2.5,3.5,4.6,4.7,7.1c1.3,2.7,1.7,5.1,3.3,7.6c3.1,4.8,6.8,9.1,10.9,13c3.3,3.1,6.3,2,10.8,2.2c7.6,0.4,14.4,0.2,22-0.4
		c3.6-0.3,6.5-1.4,10.1-1.9c5.5-0.8,11.5-0.3,17-0.3c1.8,0,3.7-0.1,5.5-0.2c-0.9-0.9-1.5-2.2-2-3.3C761,742.3,755.9,733,750,724.1z"
		/>
	<path class="st24" d="M699.7,735.1c0.5-0.4,1.2-0.4,2.4-0.2c3.3,0.5,6.3,2.8,9.7,2.5c2.9-0.2,6.4-6.2,9.4-3.6
		c0.8-0.6,1.8-1.6,2.2-2.6c-1.5-2.6-5.4-9.8-9.1-9.8c-1.2,0-3.7,2.3-5.1,2.9c-1.8,0.8-4.2,2.1-6.2,2.8c-2.2,0.8-4.3,0.7-6.2-0.6
		c-1.5-1-2.3-4.2-4.7-2.7c-1.5,0.9-1.6,2.7-1.2,4.3c0.3,1.3,0.8,2.5,1.4,3.7c0.6,1,1.8,2.4,1.7,3.6c0,0.5-0.9,0.4-0.7,1.3
		c0.1,0.3,1,1,1.3,1.3c0.5,0.5,1.4,2.2,2.3,2.1c1.1-0.2,1.4-2.7,1.8-3.6C699.1,735.9,699.4,735.4,699.7,735.1z"/>
	<path class="st24" d="M725.1,723.6c-1.5,2.9,3.1,9.5,6.7,9.6c0.5,0,0.9-3,1.6-3.4c1.5-0.8,4.4,2.7,6,3.2c2.4,0.7,4.5,0.1,6.8-0.2
		c0.3-1.4-0.6-9-2.8-8.5c0,0.6,0,1.2,0,1.7c-0.8,0-0.8-0.9-1.3-1.3c-0.9-0.7-2.1-0.8-3-1.5c-0.3-0.2-2-2.2-2.6-1.4
		c-1.4,2,0,3.8-3.5,2.5c-2.5-1-5.2-3.1-7.8-1.1c-0.4,0.9,0.3,0.8,0.5,1.5"/>
	<path class="st24" d="M685,741c1,0.5,1.2-4.5,1-5c-0.1-0.4-1.1-3.8-1.3-3.8c0.4,0.1,0.8,0.3,1.2,0.2c0.1-2.4-2.3-12.4-5.7-7.8
		c-2,2.6,2.2,12.3,3.2,15.6C684,740.6,684.5,740.8,685,741z"/>
	<path class="st24" d="M670.5,685.4c-0.9-0.7-2-1.3-2.8-2.1c-0.2-0.2-1.9-2.3-0.8-2.6c0.7-0.2,1.6,0.5,2.3,0.7
		c0.8,0.2,1.3-0.2,2.1,0.4c0.9,0.6,1.3,1.6,2.2,2.2c0.9,0.7,2.2,0.4,2.9,1.1c0.9,0.8,0.8,2.1-0.2,2.4c-0.7,0.2-2.2-0.9-3.1-1.1
		C671.6,686,671.6,686.2,670.5,685.4z"/>
	<path class="st24" d="M680.5,682.9c1.3-0.1,2,0,2.9,0.5c0.7,0.4,2,2.1,2.7,0.8c0.7-1.3-3.9-4.3-4.9-3.8c-0.4-0.8-2.5-2.4-3.3-2.5
		c-2.4-0.3-2.5,2.8-0.8,3.9c1.3,0.9,2.4,2.3,3.9,2.9C681,684.4,680.9,682.9,680.5,682.9z"/>
	<path class="st24" d="M682.9,759.4c-0.3-0.1-0.7,0-1-0.1c-0.4-3.9,6.5-8.6,9.7-9.3c3.8-0.9,7.3,3.5,9.8,0.2c1.6-2-0.1-6.4,4.2-4.9
		c1.8,0.7,2.3,2.7,3.6,4c1.6,1.7,2.6,1.8,4.7,2.8c4.1,1.9,8.9,3.7,9.6-2.8c0.1-0.6,5.1,0.4,5.8-0.1c1.6-1.1,0.8-4.2,2.5-5
		c3.7-1.8,3.7,7.5,6.8,8.6c4.8,1.8,4.8-4.5,7.6-6.1c2-1.2,8.7-0.8,10.9,0.2c4.3,2,2.9,4.3,6.9,1.6c1.5-1,0.7-2.5,3.5-1.8
		c1.5,0.4,3.6,2.7,4.7,4c1.6,1.9,3.6,5.4,2.5,8.2c-0.3,0.6-2.2,2-2.8,3c-1.2,1.8-0.8,2.9-2.9,4.3c-5.1,3.2-13.1,0.4-18.4-0.3
		c-2.2-0.3-6.7-1.9-8.7-1.1c-2.6,1.1-2,3.8-5.9,4.3c-6.3,0.9-12.8,1-19.2,1.4c-5.2,0.4-9.8,5.6-15,3.5c-2.1-0.8-3.2-2.3-5.6-2.8
		c-1.4-0.3-2.8,0.3-4-0.7c-0.7-0.5-0.5-1.8-1.5-2.3c-1.9-1-4.4,0.3-6.2-1.3c-1.9-1.7-0.7-3-1.1-5.1c0,0.2-0.7-4.9-1.6-3.3
		c0.4-0.7,1.1-1.4,1.8-1.8"/>
	<circle class="st28" cx="200.9" cy="438.6" r="41.6"/>
	<circle class="st19" cx="196.3" cy="443.7" r="29.3"/>
	<circle class="st29" cx="772.6" cy="438.6" r="41.6"/>
	<circle class="st28" cx="325.5" cy="254.1" r="36.5"/>
	<circle class="st29" cx="661.7" cy="254.1" r="36.5"/>
	<path class="st24" d="M696.4,706.9c0.4-0.1,0.9,0.1,1.9,0.9c1,0.9,1.1,1.9,3.1,1.6c2.3-0.4,1.1-4,4.1-2.3c0.6-1.5-1.1-2.7-1.9-3.9
		c-1.2-1.7-2.9-5.9-5.5-2.8c-1.9,2.3-2.1,0.8-4.9,0.6c-2.9-0.2-2.6,1.3-4.1,2.3c-1.6,1.1-3.9,0.7-5.4-0.1c-2.1-1-3.2-1.2-6-0.9
		c0,0.8,1.4,2.5,2,3.2c1.1,1.3,2.1,2.3,3,3.7c1.1,1.8,2.8,4.9,5.2,5.9c0.8-1.6,1.4-3,1.4-4.8c0-1.8-0.8-4.7,2.4-3.3
		c0.7,0.3,1.3,0.9,2.1,0.9C695.3,707.9,695.8,707,696.4,706.9z"/>
	<path class="st24" d="M672.6,704c0.8,1.6,2.1,3.5,2.5,5.2c0.3,1.4,0.3,2.9,1.2,3.9c0.2,0.8,0.1,1.9-0.9,2c-1,0.1-1.2-1-1.6-1.7
		c-1-1.6-1.5-2.8-2.1-4.6c-0.6-1.8-2-3.1-2.5-4.8c-0.7-2.4,2.4-1.3,3.4-0.4"/>
	<path class="st24" d="M709.4,704.3c0.8-0.8,0.7-2.4,2.3-2.2c0.9,0.1,1.4,1.3,2.6,1.3c1.6,0,1.6-0.9,2.6-1.5
		c1.2-0.7,1.6,0.2,2.9,0.1c-0.2-1-2.3-2.4-3.5-2.6c-1.9-0.3-3.9,1.4-5.8,0.7c-1.5-0.5-1.7-2.5-3.6-2
		C702.7,699.3,709.8,703.9,709.4,704.3z"/>
	<path class="st24" d="M685.6,677.8c1.3,1.3,2.4,2.8,3.6,4c1.6-1,0-4.9,2.7-3.8c1.4,0.6,1.6,0.9,3.1,0.3c0.7-0.3,1.6-1.1,2.2-0.3
		c1.3-2-1.7-1.7-2.6-1.6c-1.5,0.3-2.2-1.3-3.6-1.1c-1.3,0.2-1.7,1.8-2.7,2.4c-1,0.7-1.5-1.3-2.8-0.3c0,0.4,0.3,0.7,0.7,1"/>
	<circle class="st19" cx="666.4" cy="256.3" r="25.8"/>
	<circle class="st19" cx="776.6" cy="443.7" r="29.3"/>
	<circle class="st19" cx="322.5" cy="256.3" r="25.8"/>
	<path class="st30" d="M220.6,457c-2.3-7.2-9-14.6-15.6-18c-3.9-2-8.5-3.7-12.9-3.4c-3.3,0.2-6.7-0.6-10-0.3
		c-3.7,0.4-7.3,0.9-10.9,1.4c-4.1,0.6-7.9,0.3-11.8,2.1c-4.5,2-8.7,4.8-13.5,6.3c-2,0.6-4,0.7-5.7,1.8c-2.4,1.3-4.3,3.5-6.8,4.8
		c-6.7,3.8-14.1,6.6-20.3,11.2c-3.9,2.9-7.3,6.6-11.2,9.5c-3.5,2.7-5.4,5-8.4,8.3c-2.7,3-5.8,5.3-8.1,8.6
		c-5.4,7.8-10.5,16.9-13.6,25.8c-1.7,4.7-3.7,8.3-4.6,13.3c-0.6,3.4-2.6,8.4-1.6,11.9c0.4,1.5,1.5,2.3,1.8,3.8
		c0.3,1.7-0.4,2.5-0.9,3.9c-1.4,4.3,1.1,10,5.3,11.6c0.5,0.2,1,0.4,1.5,0.5c8.6-9.1,19.4-18.1,32.7-26.8c0.1-2.4,2-2.4,3.5-4.2
		c1.2-1.5,2.2-3.6,2.6-5.4c1-5.3,4.5-6.9,7.6-11c13.1-17.2,32.9-27.6,53.7-32.6c4.1-1,9.5-1.2,13.3-3.2c2.8-1.4,5.9-0.8,8.9-3
		c10.7,0,20-5.8,25.1-14.3C220.9,458.8,220.9,457.9,220.6,457z"/>
	<path class="st31" d="M94.9,521.9c1.6-2,4.4-3.1,5-5.8c0.7-3.6,0-6.9,4.4-7.7c3.4-0.6,9.1,0.4,11.2-3.1c1.5-2.4,0.4-5.3,1.7-7.6
		c1.6-2.9,5.9-5.7,8.9-6.7c2.9-1,5.7,0,7.7-3.1c2.3-3.4,0.2-9.1,4.1-11.4c4-2.3,7,1.2,10.8,1.7c4.3,0.7,7.6,0.7,10.6-2.7
		c3.2-3.6,3.3-5.2,8.3-5.4c4.1-0.1,7.1-3.1,10.8-2.7c5.2,0.5,10,3.9,13.1-1.7c1.1-1.9,0.3-6.1,1.8-7.3c1.6-1.2,4.2-0.2,6-1.5
		c2.8-1.9,1.4-3.2,0.5-5.8c3.4-1.6,6.8-6.4,2.3-9c-1.8-1-4.4-0.7-6.4-1.5c-4.3-1.6-8.4-3.8-12.6-5.4c-0.4,0-0.7,0-1.1,0.1
		c-3.7,0.4-7.3,0.9-10.9,1.4c-4.1,0.6-7.9,0.3-11.8,2.1c-4.5,2-8.7,4.8-13.5,6.3c-2,0.6-4,0.7-5.7,1.8c-2.4,1.3-4.3,3.5-6.8,4.8
		c-6.7,3.8-14.1,6.6-20.3,11.2c-3.9,2.9-7.3,6.6-11.2,9.5c-3.5,2.7-5.4,5-8.4,8.3c-2.7,3-5.8,5.3-8.1,8.6
		c-5.4,7.8-10.5,16.9-13.6,25.8c-1.7,4.7-3.7,8.3-4.6,13.3c-0.6,3.4-2.6,8.4-1.6,11.9c0.4,1.5,1.5,2.3,1.8,3.8
		c0.3,1.7-0.4,2.5-0.9,3.9c-1.4,4.3,1.1,10,5.3,11.6c0.5,0.2,1,0.4,1.5,0.5c3.3-3.5,6.9-6.9,10.9-10.4c2.1-6.8,4-14,7-20.4
		c1-2.1,1.9-4.3,2.8-6.3C94.4,522.6,94.6,522.3,94.9,521.9z"/>
	<path class="st32" d="M178.3,457.8c3.6-1.4,12.2-7.2,16.3-5.1c4.3,2.2-0.5,3.9-3,4.1c-1.9,0.1-3.8,0.7-5.5,1.5
		c-2,1-6.8,6.3-9.2,3.9c-3-3,5.8-6.7,7.5-7.5"/>
	<path class="st32" d="M173.1,453.3c-0.2,0-0.3,0.1-0.5,0.1c-4.5,0.4-1.4-2.6-1.4-5.4c-1.5-0.7-4.3-0.3-5-2.1
		c-0.7-2,1.9-3.5,3.3-4.2c2.6-1.3,6.7-2.6,9.6-2.3c0,1.4-1.7,1.9-1.5,3.1c0.2,1.4,1.5,0.6,2.4,0.4c0.8-0.2,2.2-0.9,2.7,0
		c0.3,0.6-0.4,1.3-0.2,1.8c0.2,0.7,0.7,0.4,1,0.9c0.2,0.4,0.7-0.1,0.6,0.5c-0.1,0.6-1.7,0.9-2.1,1.1
		C178.5,448.3,177.1,452.6,173.1,453.3z"/>
	<path class="st32" d="M114.2,471.6c2.1-1,3.5-3.9,5.3-5.5c2.7-2.2,5.8-4,8.6-5.9c2.7-1.8,5.5-3.9,8.6-4.8c-0.8,1.3-3.1,3.6-0.8,4
		c1.1,0.2,3.3-1.1,4.2,0.1c1.3,1.8-3.3,4.5-4.4,5.5c-0.8,0.7-1.8,1.5-2.4,2.5c-0.6,1-0.2,1.5-0.4,2.5c-0.4,2.4-4.1,2.9-6.2,3.6
		c-1.6,0.5-5.2,2.1-6.9,1.3c-1.1-0.5-0.1-3.4-1.2-3.5c-1.2-0.1-3.4,3.2-4.2,0.4"/>
	<path class="st32" d="M135.5,475.1c1.1-1.1,3.6-4.2,5.3-3.9c1,0.2,1,1.1,2.2,1c1.4-0.1,2.2-1.3,3.2-2c0.9-0.7,3.5-1.7,4.3-0.4
		c0.3,0.4-0.7,3.9-1,4.3c-0.9,1.1-3,0.6-3.9,1.9c-1.6,2.4,3,1.8,3.6,2.3c1.8,1.5-6.7,3.5-7.5,3.9c-1.8,0.8-3.3,1.9-5.1,2.7
		c-1.8,0.9-3.6,3.3-5.9,3.1c-1.4-0.1-3.3-2-3.3-3.4c0-1.6,3.1-1.5,1.7-3.3c-0.6-0.7-2.8-1.1-1.1-2.3c1-0.6,2.4-0.7,3.5-1.2
		C132.9,477,134.2,476.3,135.5,475.1z"/>
	<path class="st32" d="M86.9,505.1c-0.5-0.2-1.1-0.3-1.6-0.2c0.2-0.5,2.6-4.2,0.9-4.1c-1.7,0.1-1.9,2.3-2.4,3.4
		c-0.9,1.7-2.4,3-3.3,4.7c-0.6,1.2-3.2,6.2-2.1,7.6c0.9,1.2,3.5-4.7,4.1-5.7c-0.5,1.4-0.6,4.2,1.6,2.8c1.4-0.9,1.7-3.3,2.6-4.6
		C87.5,507.8,89.2,506,86.9,505.1z"/>
	<path class="st32" d="M87.7,518.4c-3-1.6,3-8,4.1-9.4c1.2-1.6,2-2.6,2.8-0.4c0.6,1.6,0.6,2.6,2.1,1.1c0.8-0.8,2.2-3.5,3.6-2.5
		c1.3,1-0.2,3.9-0.8,4.8c3-0.3,1.2,2.7,0.4,4c-1.5,2.4-4,6.3-6.9,7.1c-0.6-2.6,1.8-4.1,1.7-6.4c-0.1-2.3-2.3-1-3.2,0.1
		C90.6,518,89.4,519.3,87.7,518.4z"/>
	<path class="st32" d="M99.2,522.9c1.3-1.4,2.3-3.1,3.2-4.7c1.1-2,2.3-5.6,4.2-6.9c3.1-2.1,0.4,5.1-0.4,6.2c0.7,0.2,1.1-0.7,2-0.8
		c-0.3,2.8-1.6,5.6-3.4,7.6c-1.5,1.7-3.7,2.8-4.6,0c-0.7,0.2-1.3-0.4-1.2-1.2c0.1-0.4,1.4-1.4,1.8-1.8"/>
	<path class="st31" d="M119.4,454c1.1-0.9,2.3-2.4,1.7-3.5c-1.1-2-8-0.4-10.1-0.7c-2.2-0.3-5.7,1.2-7.5,2.4
		c-2.4,1.6-5.8,4.1-2.6,6.8c1.7,1.4,7-1.7,8.3-2.4c0.8-0.4,2.4-1.6,3.3-1.6c2.2-0.1,3.4,1.3,5.8-0.1
		C118.5,454.6,119,454.3,119.4,454z"/>
	<path class="st31" d="M115.4,445.1c6.1-1.1,1.1-5.6-1.8-2.8C112.2,443.7,113.5,445.5,115.4,445.1z"/>
	<path class="st33" d="M905.1,527.9c-0.9-5-2.9-8.6-4.6-13.3c-3.2-8.9-8.2-18-13.6-25.8c-2.3-3.3-5.4-5.6-8.1-8.6
		c-3-3.3-4.9-5.6-8.4-8.3c-3.9-3-7.2-6.6-11.2-9.5c-6.3-4.6-13.6-7.4-20.3-11.2c-2.4-1.4-4.4-3.5-6.8-4.8c-1.8-1-3.7-1.1-5.7-1.7
		c-4.7-1.5-9-4.2-13.5-6.3c-3.9-1.8-7.7-1.5-11.8-2.1c-3.6-0.5-7.3-1-10.9-1.4c-3.3-0.3-6.6,0.5-10,0.3c-4.4-0.3-9.1,1.4-12.9,3.4
		c-6.6,3.4-13.3,10.8-15.6,18c-0.3,0.9-0.4,1.8-0.3,2.6c5.1,8.6,14.4,14.3,25.1,14.3c3,2.3,6.1,1.6,8.9,3c3.8,2,9.2,2.2,13.3,3.2
		c20.8,5,40.6,15.4,53.7,32.6c0.5,0.6,1,1.2,1.5,1.8c21.9,5.1,39.2,12.1,52.6,20.4C906.2,532,905.4,529.7,905.1,527.9z"/>
	<path class="st34" d="M905.1,527.8c-0.9-5-2.9-8.6-4.6-13.3c-3.2-8.9-8.2-18-13.6-25.8c-2.3-3.3-5.4-5.6-8.1-8.6
		c-3-3.3-4.9-5.6-8.4-8.3c-3.9-3-7.2-6.6-11.2-9.5c-6.3-4.6-13.6-7.4-20.3-11.2c-2.4-1.4-4.4-3.5-6.8-4.8c-1.8-1-3.7-1.1-5.7-1.8
		c-4.7-1.5-9-4.2-13.5-6.3c-3.9-1.8-7.7-1.5-11.7-2.1c-3.6-0.5-7.3-1-10.9-1.4c-0.4,0-0.7,0-1.1-0.1c-4.3,1.6-8.3,3.8-12.6,5.4
		c-2.7,1-8,1.3-8.7,4.9c-0.7,3.8,3.1,10.5,5.6,13.1c4,4,10.4,5.2,15.8,5.1c3.7,0,7.1-0.2,10.6-1.6c2.8-1.1,6.8-4.2,9.6-1.5
		c4.2,4-0.2,8.9,1.5,13.2c1.8,4.6,8.5,5.2,12.6,4.6c3.7-0.6,6.8-4.1,10.8-1.7c3.9,2.3,1.8,8,4.1,11.4c2.1,3,4.8,2.1,7.7,3.1
		c3,1,7.3,3.8,8.9,6.7c1.3,2.4,0.2,5.2,1.7,7.6c2.1,3.4,7.8,2.5,11.2,3.1c4.5,0.8,3.7,4,4.4,7.7c0.4,2.2,2.4,3.4,3.9,4.8
		c11.7,4,21.7,8.7,30.1,14C906.2,532,905.4,529.7,905.1,527.8z"/>
	<path class="st35" d="M790.7,466.2c0.5,0.1,0.9,0.1,1.4,0.1c4.3-0.2,9.8-3.5,13.5,0.2c1.9,1.9,4.4,2.6,7,1.7
		c2.8-0.9,1.7-2.5-0.4-3.8c-6.6-4.1-15.6-6-23.2-7.2c-2.2-0.4-4.4-0.7-6.5,0.1c-3.7,1.4-1.5,4.4,0.9,5.5
		C785.6,463.9,788.1,465.8,790.7,466.2z"/>
	<path class="st35" d="M823.6,447.1c2.6,1.3,6.9,1.7,8,5.1c0.8,2.6-2.2,3.3-4.2,2.1c-1.4-0.9-2.3-3.7-4.3-2.7
		c0.8,0.5,2.4,2.1,1.6,3.1c-0.6,0.8-2.2,0.1-3,0.4c-2.1,0.8-2.4,3.3-5.1,3.2c-3.3,0-4.6-2.8-7.4-3.7c-3-1-6.9,0.8-9.5-1.4
		c-1.1-0.9-1.6-2.1-0.4-3.2c2-1.6,5,0.7,6.8-0.1c2.9-1.3,0.1-4.3,2.6-5.6c3.2-1.8,5.1,2.1,7.7,2.3c0.9,0.1,1.8-0.9,2.7-1
		C820.7,445.5,822.2,446.4,823.6,447.1z"/>
	<path class="st35" d="M854.1,481.2c-1-2.7-5.4-4.4-7.8-5.5c-1.3-0.6-6-4.3-7.2-2.5c-0.8,1.1,2,4.4-0.6,4.8
		c-1.4,0.2-2.1-1.7-3.5-1.8c-1.1-0.1-4.4,2.5-5.2,3.3c-1.6,1.7-0.4,3.1,1.1,4.7c2.7,2.8,6,5.5,9.6,7.2c1.5,0.7,4.2,1.7,4.3-0.6
		c0.1-1.2-2-2.4-1.3-4c0.8-1.8,2.9-0.6,4,0.3c1,0.7,2.8,2.3,4.1,2c2.1-0.6-1-3.3-0.6-4.2C851.6,482.8,855.2,484,854.1,481.2z"/>
	<path class="st35" d="M847.7,473.7c2.1,1.5,4.9,3,7.6,3.2c1,0.1,2.4,0,3.1-0.9c0.6-0.7,0.7-2.7,0.1-3.4c-0.2-0.3-4.2-3.7-1.6-2.9
		c0.9,0.3,1.4,1.3,2.3,1.5c0.8,0.2,1.4-0.2,1.2-1.1c-0.4-1.1-2.4-2.3-3.3-2.8c-1.6-0.9-2.9-2.1-4.8-2.4c-0.6-0.1-1.3-0.2-1.6,0.4
		c-0.1,0.2,0,1.8,0.3,1.8c-1.3,0-1.4,0.6-2.4,1.3c-0.7,0.5-1.6,0.6-2.4,0.7C842.4,469.4,846.7,473,847.7,473.7z"/>
	<path class="st35" d="M861.3,506.7c0.8,1,2.3,3.2,3.9,2.8c1.7-0.5,1.6-2.5,2.5-3.6c1.2-1.6,3.8-1.4,5.5-0.6
		c0.6,0.3,1.7,1.1,2.5,0.6c1.8-1.1-0.8-5-1.8-5.8c-0.8-0.6-1.7-2-2.5-2.4c-1.1-0.6-0.7,0.6-1.1,1.4c-0.4,0.7-1.7,1.2-2.3,1.3
		c-1.1,0.3-2.4,0.4-3.5-0.1c-0.9-0.4-1.5-1.1-2.5-1.2c-1.6-0.2-3.9,0.6-4,2.6C857.9,503.4,860.2,505.4,861.3,506.7z"/>
	<path class="st35" d="M878.7,503c0.5,0.8,1.8,2.6,1.8,0.7c0-2.2-1.4-4.9-2.4-6.7c-0.6-1-1.5-2.6-2.8-2.4c0,0.6-0.1,1.4,0.1,2
		c0.3,0.9,0.9,1.9,1.2,2.8C877,500.5,877.9,501.8,878.7,503z"/>
	<path class="st35" d="M884.5,493c1.5,0,2.6,2.8,3,3.9c0.1,0.2,0.7,3.8-0.1,3.5c-0.6-0.2-0.8-1.5-1.6-1.3c-0.7,0.1-0.9,1.5-1.3,1.9
		c-1.7,2-3-0.4-3.7-1.8c-0.5-1-1.3-2.1-1.6-3.2c-0.9-2.7,2,0.1,2.5,0C883.1,495.9,882.8,493,884.5,493z"/>
	<path class="st36" d="M728.2,247.3c-2-0.6-8.2,0.7-8.5-3c-0.4-4,10.3-2,12.2-1.3c2.7,1,6.7,5.1,3.1,7.8
		C731.7,253.2,730.7,248,728.2,247.3z"/>
	<path class="st36" d="M719.6,235.1c2-0.4,8-2,6.3,1.9c-1.7,4-6.8,1.2-6.9-2.2c0.4-0.1,1-0.1,1.4,0"/>
	<path class="st37" d="M797.3,337.5c-0.9-5-2.9-8.6-4.6-13.3c-3.2-8.9-8.2-18-13.6-25.8c-2.3-3.3-5.4-5.6-8.1-8.6
		c-3-3.3-4.9-5.6-8.4-8.3c-3.9-3-7.2-6.6-11.2-9.5c-6.3-4.6-13.6-7.4-20.3-11.2c-2.4-1.4-4.4-3.5-6.8-4.8c-1.8-1-3.7-1.1-5.7-1.8
		c-2.3-0.7-4.4-1.7-6.5-2.8c-2.3-1.2-4.6-2.4-6.9-3.5c-3.9-1.8-7.7-1.5-11.7-2.1c-3.6-0.5-7.3-1-10.9-1.4c-3.3-0.3-6.6,0.5-10,0.3
		c-4.4-0.3-9.1,1.4-12.9,3.4c-6.6,3.4-13.3,10.8-15.6,18c-0.3,0.9-0.4,1.8-0.3,2.6c5.1,8.6,14.4,14.3,25.1,14.3c3,2.3,6.1,1.6,8.9,3
		c3.8,2,9.2,2.2,13.3,3.2c9.1,2.2,17.6,5.4,25.7,9.7c3.2,1.7,6.4,3.6,9.5,5.7c5.4,3.6,10.9,7.4,15,12.5c3.6,4.4,4.9,9.5,7.5,14.4
		c0.4,0.7,0.8,1.4,1.3,2.1c15.7,1.1,32.8,4,48.2,10.6C799,342.2,797.7,339.7,797.3,337.5z"/>
	<path class="st36" d="M797.6,337.5c-0.9-5-2.9-8.6-4.6-13.3c-3.2-8.9-8.2-18-13.6-25.8c-2.3-3.3-5.4-5.6-8.1-8.6
		c-3-3.3-4.9-5.6-8.4-8.3c-3.9-3-7.2-6.6-11.2-9.5c-6.3-4.6-13.6-7.4-20.3-11.2c-2.4-1.4-4.4-3.5-6.8-4.8c-1.8-1-3.7-1.1-5.7-1.8
		c-2.3-0.7-4.4-1.7-6.5-2.8c-2.3-1.2-4.6-2.4-7-3.5c-3.9-1.8-7.7-1.5-11.8-2.1c-3.6-0.5-7.3-1-10.9-1.4c-0.3,0-0.7-0.1-1.1-0.1
		c-4.3,1.6-8.3,3.8-12.6,5.4c-2.7,1-8,1.3-8.7,4.9c-0.7,3.8,3.1,10.5,5.6,13.1c3.1,3.2,8.7,5.2,12.5,7.7c3.5,2.3,9.5,5.6,13.1,1.4
		c1.7-2,3.2-4.4,6.1-4.5c3.2,0,5.4,2.7,5.8,5.6c0.6,3.4-0.5,4,3.6,3.9c4.8-0.1,5.9,1.3,9,4.9c0.7,0.8,1.3,1.6,2,2.3
		c3.9,4.7,8,9.4,14.3,10.5c9.7,1.7,10.5,9.8,17.1,15.5c3.3,2.9,7.8,3.7,11.1,6.5c2.3,1.9,3.5,4.6,4.4,7.4c0.7,2.1,0.5,4.9,1.8,6.8
		c0.1,0.1,0.2,0.2,0.3,0.4c2.8,0.4,5.7,1,8.5,1.6c0.5,0,1,0,1.5,0.1c1.1,0.1,2,0.5,2.9,0.9c5.8,1.4,11.5,3.2,17.1,5.5
		C799.6,342.5,798,340,797.6,337.5z"/>
	<path class="st38" d="M247.7,316.8c4.1-5,9.6-8.9,15-12.5c10.9-7.3,22.4-12.3,35.2-15.4c4.1-1,9.5-1.2,13.3-3.2
		c2.8-1.4,5.9-0.8,8.9-3c10.7,0,20-5.8,25.1-14.3c0.1-0.8,0-1.7-0.3-2.6c-2.3-7.2-9-14.6-15.6-18c-3.9-2-8.5-3.7-12.9-3.4
		c-3.3,0.2-6.7-0.6-10-0.3c-3.7,0.4-7.3,0.9-10.9,1.4c-4.1,0.6-7.9,0.3-11.8,2.1c-4.5,2-8.7,4.8-13.5,6.3c-2,0.6-4,0.8-5.7,1.8
		c-2.4,1.3-4.3,3.5-6.8,4.8c-6.7,3.8-14.1,6.6-20.3,11.2c-3.9,2.9-7.3,6.6-11.2,9.5c-3.5,2.7-5.4,5-8.4,8.3c-2.7,3-5.8,5.3-8.1,8.6
		c-5.4,7.8-10.5,16.9-13.6,25.8c-1.7,4.7-3.7,8.3-4.6,13.3c-0.6,3.1-1.9,9.4-0.7,13.7c16.2-6.2,32.9-9.3,46.4-10.7
		C241.7,332.9,242.1,323.7,247.7,316.8z"/>
	<path class="st39" d="M221.8,338.2c-0.3-2.6-2.6-3.5-0.5-6.3c1.5-2,4.1-2.4,5.8-4.1c1.8-1.8,1.2-4,2.5-5.9c2.4-3.4,8.4-4,11.6-6.8
		c4.7-4.1,4.5-10.5,8.7-15c2.8-3,4.1-1.3,7.3-1.8c6.5-1,5.3-18,10.4-16.8c2.5,0.6,3.5,4.9,6.3,5.6c2.6,0.6,3.9-1.3,5.5-2.9
		c3.4-3.3,7.2-2.8,10.7-5.6c5.7-4.6,10.9,2.9,17.1-0.1c6.6-3.3,11.4-4.8,13.5-12.3c0.3-1.1,0-3.4,0.6-4.3c2-3,9.4,0.2,9.2-5.9
		c-0.2-4.8-5.8-5-9.1-6.2c-4.3-1.6-8.4-3.8-12.6-5.4c-0.4,0-0.7,0-1.1,0.1c-3.8,0.4-7.7,1.4-11.6,1.5c-2.5,0.1-4.8-0.6-7.4,0
		c-1.7,0.4-4.1,0.9-5.7,1.5c-2.1,0.8-2.9,2.1-4.6,3.4c-2,1.5-4.6,2.6-6.9,3.3c-4.4,1.4-9,2.5-13.4,4c-3.1,1.1-6.7,1.8-9.7,3.4
		c-2.7,1.5-4.7,4.3-7.1,6.3c-4.1,3.4-8.2,6.8-12.1,10.3c-4.1,3.6-9.3,4.9-12.9,9.3c-3.3,4-6.4,8.1-9.8,12
		c-3.9,4.5-6.1,10.3-9.1,15.5c-3.5,5.9-4.8,12.2-5.9,18.9c-0.8,4.6-3.6,14,2.2,16.9c8.3-3.1,16.7-5.3,24.7-7
		C220.6,342.5,222.1,340.9,221.8,338.2z"/>
	<path class="st40" d="M698.9,268.6c-0.1-1.1-1.6-2.1-2.4-2.8c-1-0.8-10.9-8.5-11.9-4.4c-0.7,2.7,3.9,2.7,2.8,5.8
		c-3-0.4-6.5-1.6-9.5-2.4c-5.5-1.3-17.4-0.5-11.8,6.7c3.4,4.3,9.4,5.8,14.5,6.8c3.1,0.6,12.7,3.5,14-0.8c0.7-2.4-4-6.6-1-8.3
		c1-0.6,3.6,1.8,4.9,0.4C698.8,269.4,698.9,269,698.9,268.6z"/>
	<path class="st40" d="M707.2,257.9c2.5,0.3,4.6,1.5,6.9,1.9c-3-4.3-8.6-5.8-13-8.2c-4.6-2.4-12.9-3.3-7.6,3.8
		c-10,0.3,1.4,3.9,4.1,5.6c2.3,1.5,3.9,2.6,5.1,0.2c0.5-1.1-0.6-2,0.5-3C704.1,257.3,706.1,257.7,707.2,257.9z"/>
	<path class="st40" d="M732.9,292.9c-0.6-0.4-9.7-5.3-9.8-4.4c-0.3,1.7,1.1,3,1.8,4.4c-1.9,0.3-4-0.2-5.9,0
		c3.1,3.5,6.7,6.9,10.7,9.5c1.4,0.9,5.2,3.6,7,3c2.4-0.7,0.6-1.6,0.2-3.4c0.1,0.4,5.4-0.4,5.8-0.6
		C741.3,297.7,736.1,295,732.9,292.9z"/>
	<path class="st40" d="M748,290.1c2.9-0.1,5.3,4.7,7.8,1.1c-0.4-3-3-5.1-5.1-7c-3.4-3.1-4.5-1.9-7.5,0.9c-3,2.8-3.7,0.9-6.9-0.6
		c-0.8-0.4-4.4-0.6-4.8,0.5c-0.5,1.2,2.4,3.2,3.1,3.7c1.9,1.6,4,3.2,6.1,4.5c1.4,0.9,3.8,1.5,4.9,2.7c0.1,0.2-0.5-3.5-0.5-3.6
		C745.6,290.7,746.4,290.2,748,290.1z"/>
	<path class="st40" d="M755.9,277.8c2.9,1.4,5.9,4.3,7.2,7.2c1.6,3.6-1.7,0.5-2.9-0.2c-1.5-0.9-2.9-0.2-2.5,1.6
		c-2.5-0.4-4.8-2.7-6.1-4.7c-0.7-1.2-1.5-3.8,0.9-2.5c-0.4-0.2,0.2-2.2,0.6-2.4C753.8,276.6,755.3,277.5,755.9,277.8z"/>
	<path class="st40" d="M755,327.8c-1.3-0.1-2.3-1.5-3.3-2.2c0.3,0.6,0.2,1.7-0.8,1.6c-0.8-0.1-1.7-2.1-2.1-2.7
		c-0.6-1.1-2.5-4.2-0.4-4.9c1.4-0.5,2.5,2.5,4,2.6c1.8,0.1,2.9-1,3.7,1.4C756.8,324.8,757.1,327.9,755,327.8z"/>
	<path class="st40" d="M766.7,323.7c0-0.4,0-0.7,0-0.9c1.5,1.6,3.5,2.5,3.1-0.5c-0.2-1.4-0.6-3.5-2.2-4.1c-2.6-1-1,1.8-1.8,2.5
		c-0.8,0.8-1.3-0.4-1.8-0.8c-0.3-0.3-2.4-1.5-2.4-0.5c0,2-1.6,0.1-2.2-0.1c-2-0.7-1.7,2.7-1.5,3.6c0.1,1,0.3,2.3,0.8,3.2
		c0.2,0.2,2.2,2.1,2.4,1.7c0.8-1.7-0.6-2.4-0.9-3.9c-0.2-1,0.2-2.2,1.4-2.1c1.8,0.3,2.6,3.3,3.3,4.7
		C766.7,329.8,766.8,325.8,766.7,323.7z"/>
	<path class="st40" d="M775.2,315.6c-1.7,0-3.4,1.1-3.8,2.7c-0.4,1.6,0.6,4.9,2.5,5.3c2.2,0.4,1.7-2.7,3.3-3
		c1.9-0.4,3.3,2.3,4.8,2.9c1.7,0.6,4-0.5,2.7-2.4c0.5-1.1,1.9-1.1,2.3-2c0.6-1.3-2.1-3.9-3.4-3.8c-1.5,0.1-2.1,1.6-3.4,2
		c-1.7,0.6-2.1-0.7-3.4-1.4C776.3,315.7,775.8,315.6,775.2,315.6z"/>
	<path class="st41" d="M284.5,257c2.3-0.4,4.4-2.5,6.6-3.4c3.2-1.2,6.6-2,9.9-3c3-0.9,6.4-2,9.6-2c-1.2,0.9-3.9,2.4-1.9,3.2
		c1.1,0.4,3.5-0.2,4.1,1.1c0.8,1.8-4.4,3.1-5.7,3.6c-1,0.4-2.2,0.9-3,1.6c-0.8,0.7-0.6,1.2-1,2c-1,1.9-4.7,1.5-7,1.6
		c-1.7,0.1-5.6,0.6-7-0.5c-0.9-0.7,0.8-2.9-0.2-3.2c-1.1-0.4-4.1,1.9-4.1-0.7"/>
	<path class="st41" d="M304.1,264.8c1.4-0.6,4.6-2.7,6.1-2.1c0.9,0.4,0.7,1.2,1.9,1.4c1.4,0.2,2.5-0.6,3.6-1c1-0.4,3.8-0.6,4.2,0.6
		c0.2,0.4-1.7,3.1-2.1,3.4c-1.1,0.8-3.1-0.2-4.2,0.7c-2.2,1.7,2.4,2.2,2.9,2.7c1.4,1.7-7.4,1.5-8.3,1.6c-2,0.2-3.7,0.8-5.6,1.1
		c-2,0.4-4.4,1.9-6.5,1.3c-1.3-0.4-2.7-2.5-2.3-3.7c0.4-1.3,3.4-0.6,2.5-2.4c-0.4-0.7-2.4-1.6-0.5-2.2c1.1-0.3,2.5,0,3.7-0.2
		C301,265.9,302.6,265.5,304.1,264.8z"/>
	<path class="st41" d="M304.2,280.1c-0.8,0.1-1.8,0.2-2.4-0.4c-1.2-1.2,0.7-2,1.4-2.5c1.4-1.1,3.1-1.7,4.9-1.8
		c1.3-0.1,2.6,0.3,3.9,0.5c2,0.3,3.3-0.5,5.2-1.1c0.9-0.3,1.3-0.1,0.8,0.8c-0.7,1-1.8,1.4-2.8,1.8c-0.2,0.1-0.6,0.2-0.8,0.3
		c-0.2,0.2-0.1,0.3-0.3,0.4c-0.4,0.4-0.8,0.8-1.4,1c-1.3,0.5-2.8,0.2-4.2,0.1c-1.4,0-2.6,0.4-3.9,0.6
		C304.4,280.1,304.3,280.1,304.2,280.1z"/>
	<path class="st41" d="M241,279c3,0.3,3.5,3.8,0.8,4.9c-0.6,0.3-1.2,0.4-1.7,0.9c-0.5,0.6-0.7,1.4-1.3,1.9c-1.4,1.1-2.5-0.6-3.8,0.1
		c-0.6,0.3-0.5,1-0.7,1.6c-0.4,1.1-1.4,1.8-2.5,2.2c-0.8,0.3-1.9,0.6-2.1-0.5c-0.1-0.8,0.3-1.9,0.2-2.7c-1.4-0.8-3.8,2.4-4.6,3.4
		c-0.3,0.4-1.5,2-2.1,1.6c-0.6-0.4,1.3-5,1.6-5.6c0.9-2,2-3.7,3.8-5.1c2-1.6,3.8-3.4,5.9-4.7c3.4-2.2,0.3,1.3,1.8,2.1
		C237.5,279.7,239.7,278.8,241,279z"/>
	<path class="st41" d="M251.4,284.9c0.9,0.1,0.8,0.8,0.7,1.4c-0.1,0.7,0,1.6-0.4,2.3c-0.2,0.3-1.8,1.9-2,1.9
		c-0.4-0.1-0.1-0.6-0.3-0.9c-1-1-3,3.7-3.4,4.2c-1.3,2-3.4,3.6-5.6,4.5c-0.4,0.2-1.7,0.8-2.2,0.3c-0.4-0.5,0.3-1.3,0.6-1.6
		c1.2-1.7,2.4-3.2,3.3-5.1c-1.5-0.6-2.9,0.9-4.1,1.6c-1,0.6-1.9,2.5-3.2,2.3c-1.3-0.2,1.1-3.1,1.6-3.5c1-1,2.3-2.1,3.6-2.8
		c0.5-0.3,0.5-0.1,0.9-0.1c1.8,0,2.3-1.8,3.7-2.6c0.8-0.4,1.7,0.4,2.5,0.2c1-0.2,2.2-1.1,3.1-1.6C250.4,285.3,251,284.8,251.4,284.9
		z"/>
	<path class="st41" d="M197.6,330.4c-1-3.3,1.6-8.1,2.9-10.8c0.7-1.5,2.2-8.3,4.7-7.5c1.6,0.5,1.4,5.7,4.2,4.2
		c1.5-0.8,0.6-3.1,1.8-4.2c0.9-0.9,5.9-0.7,7.1-0.5c2.7,0.5,2.7,2.8,2.5,5.3c-0.3,4.6-1.4,9.5-3.4,13.6c-0.8,1.7-2.5,4.6-4.4,2.4
		c-1-1.2,0.1-3.7-1.8-4.8c-2.1-1.2-3,1.4-3.4,3.1c-0.4,1.3-0.9,4.2-2.3,4.8c-2.3,0.9-1.6-3.9-2.6-4.5
		C201.1,330.2,198.7,333.9,197.6,330.4z"/>
	<path class="st41" d="M234,322.4c-0.1,0.3-0.3,0.6-0.6,0.8c-2.1,2.1-7.1,2.8-6,7.3c0.6,2.3-0.1,4-1.9,4.8c-1.9,0.9-2.7-0.8-2.7-2.7
		c-0.1-6.1,2.6-12.2,5.1-17c0.7-1.4,1.5-2.8,3-3.4c2.7-1.1,4,2.1,3.8,4.1C234.6,318.2,234.8,320.8,234,322.4z"/>
</g>
</svg>
