<?xml version="1.0" encoding="utf-8"?>
<!-- Generator: Adobe Illustrator 19.2.1, SVG Export Plug-In . SVG Version: 6.00 Build 0)  -->
<svg version="1.1" id="Layer_1" xmlns="http://www.w3.org/2000/svg" xmlns:xlink="http://www.w3.org/1999/xlink" x="0px" y="0px"
	 viewBox="0 0 985.7 787.5" style="enable-background:new 0 0 985.7 787.5;" xml:space="preserve">
<style type="text/css">
	.st0{clip-path:url(#SVGID_2_);}
	.st1{fill:#A59D93;}
	.st2{fill:#CCBEAA;}
	.st3{fill:#C4B7A5;}
	.st4{fill:#BAB1A4;}
	.st5{fill:#BCB1A2;}
	.st6{fill:none;}
	.st7{fill:#F89F5F;}
	.st8{fill:#C16C33;}
	.st9{fill:#F4B07D;}
	.st10{fill:#B77649;}
	.st11{fill:#E5C1A3;}
	.st12{fill:#FBD4B0;}
	.st13{fill:#D65803;}
	.st14{fill:#DD8D57;}
	.st15{clip-path:url(#SVGID_4_);}
	.st16{fill:#E27D39;}
	.st17{fill:#E08F58;}
	.st18{fill:#934511;}
	.st19{fill:#4C453F;}
	.st20{fill:#5E2D0D;}
	.st21{fill:#0A5446;}
	.st22{fill:#157764;}
	.st23{fill:#FFFFFF;}
	.st24{clip-path:url(#SVGID_6_);}
	.st25{fill:#91877A;}
	.st26{fill:#AFA597;}
	.st27{fill:#AA750C;}
	.st28{fill:#C69017;}
	.st29{fill:#EFCF8F;}
	.st30{fill:#E5AA17;}
	.st31{fill:#930D4A;}
	.st32{fill:#C92366;}
	.st33{fill:#EAA2BF;}
	.st34{fill:#1CC5C9;}
	.st35{fill:#166D6D;}
	.st36{fill:#1BAFAF;}
	.st37{fill:#AF4019;}
	.st38{fill:#D35429;}
	.st39{fill:#ACFCFC;}
	.st40{fill:#F7A284;}
</style>
<title>fruit-island-night</title>
<g>
	<defs>
		<rect id="SVGID_1_" x="-226.8" y="-197.8" width="1419.4" height="1419.4"/>
	</defs>
	<clipPath id="SVGID_2_">
		<use xlink:href="#SVGID_1_"  style="overflow:visible;"/>
	</clipPath>
	<g class="st0">
		<path class="st1" d="M77.1,713.9c0,0-108.6-120.6,68.9-200.9c0,0-80.8-172.3,121.7-172.2c0,0-29.7-177.7,138.9-140.2
			c0,0-78.4-106.3,79.6-186.1c0,0,78.4-37.5,139,27.8c0,0-95,15.7-58.2,72.5c0,0,14.2,26.6,29.7,31.4c0,0,47.5,26.6-11.9,59.2
			c0,0,93.8-31.4,121.1,31.4c0,0,28.5,65.3-7.1,100.3c0,0,217.3-37.5,120,172.8c0,0,223.9,6.9,75.3,219.3
			C894.1,729.2,716.9,810.3,77.1,713.9"/>
		<path class="st2" d="M316,637.6c-52.4-27.3-131.1-77.1-166.7-132.8c0,0-2.5,0.1-6.7,0.7c1.9,4.9,3.2,7.6,3.2,7.6
			c-61,27.6-88.2,60-97.7,90.6C92.8,593,181,586.4,316,637.6z"/>
		<path class="st3" d="M534.6,313.7c-52.4-35.1-99.9-85.5-135.6-157.1c0,0-3.7-0.2-10,0c2.8,15.7,8.8,30.7,17.7,43.9
			c-93-20.7-125.7,24.1-136.3,68.4C316.2,256.1,403.3,249.9,534.6,313.7z"/>
		<path class="st3" d="M267.3,340.7c0,0-192.5-10-121.3,172.2c0,0,183.2,196.5,482.5,221.9c0,0,247.1,0.5,262.5-5.6
			c0,0,166.5-189.1-69.8-219.3C821.1,509.9,425.9,588.7,267.3,340.7"/>
		<path class="st4" d="M587.7,203.8c-9.9,1.3-63.8,4.8-97.4-66.2c0,0-34.8-68.9,37.1-132.2c0,0-21.3-2.2-57.4,18.4
			c-50.9,29.1-113.9,83.3-66,175.4c0,0,128.5,183.5,295.4,138.8c0,0,11.4-11.9,16.3-33.3C699.3,240.1,648.9,219.6,587.7,203.8z"/>
		<path class="st4" d="M710.2,246.2c0,0-13.2-70.4-121-42.6c0,0-0.5,0.1-1.6,0.2c61.2,15.8,111.6,36.3,128.1,100.9
			C719.2,289.6,719.5,269.8,710.2,246.2z"/>
	</g>
</g>
<path class="st5" d="M402.6,462.3c-52.4-27.3-99.2-65.8-134.9-121.6c0,0-128.4-7.4-137.3,88.6C173.5,418.3,263.1,409.5,402.6,462.3z
	"/>
<path class="st2" d="M821.4,509.8c0,0-31.3,6.2-79.8,9.7c97.1,22.9,182.8,35.8,185.4,156.9C957.8,623.3,976.7,529.7,821.4,509.8z"/>
<rect x="686.2" y="-698.3" class="st6" width="1419.4" height="1419.4"/>
<path class="st7" d="M0,719.9c0,0,233.2-117.5,507.9-107c0,0,303.7-3.5,477.8,80V766L0,765.8"/>
<path class="st8" d="M0,722.9c0,0,232.3-108.4,508-98.7c0,0,303.1-3.2,477.8,74.1V766L0,765.4"/>
<path class="st9" d="M214,654c-30.5,6.9-58.6,14.5-83.7,21.9c0.5,22.4,3.2,52,10.8,89.8h83.9C218.7,735.1,210.5,685.8,214,654z"/>
<path class="st9" d="M433.3,625.1c-32.1,1.2-63.3,3.9-93.3,7.5c-2.6,30.1-4.2,78.5,5.4,133.3l88,0.1
	C431.7,735.7,428.9,665.2,433.3,625.1z"/>
<path class="st9" d="M689.9,633.7c-38.6-3.7-74.1-5.8-103.3-7.1c1.8,33.2,4.9,102.7,1.9,139.8l100.5,0.1
	C691.4,747.1,696.1,697,689.9,633.7z"/>
<path class="st9" d="M890.3,666.8c-28-7.2-57.1-13.2-86.2-18.1c4.5,31.5,10.5,85.2,4.3,118H889C891.2,755.2,895.5,722.8,890.3,666.8
	z"/>
<path class="st10" d="M0,727.5c0,0,228.5-98.5,504.1-89.8c0,0,307-4.1,481.6,65.8v61.2L0,766"/>
<path class="st8" d="M0,727.5c0,0,229.7-98.5,505.3-89.8c0,0-294.4,25.7-119.8,95.7h-63.5L0,766"/>
<path class="st11" d="M213.2,663.8c-30.2,6.2-57.9,13-82.8,19.8c0.9,21.3,3.9,48.3,10.6,81.7l83.8-0.1
	C219.4,737.8,212.2,695.3,213.2,663.8z"/>
<path class="st11" d="M432.2,637c-32,1-63.2,3.4-93,6.7c-2.6,40.5-0.4,81.1,6.4,121.1l88.5-0.1C432.5,737.4,429.7,677.9,432.2,637z"
	/>
<path class="st11" d="M691,645.3c-38.5-3.2-74.2-5.1-103.7-6.2c1.7,35.8,3.8,93.3,1.3,126.1l100.5-0.1
	C691.3,746.6,695.4,702.1,691,645.3z"/>
<path class="st9" d="M339.2,643.7c-0.6,10-1,21.4-1,33.9c16.3-14.4,56.7-23.6,93.6-30.3c0.1-3.2,0.3-7.3,0.5-10.3
	C400.2,638,369.1,640.4,339.2,643.7z"/>
<path class="st12" d="M890.3,674.5c-27.8-6.4-56.6-11.7-85.5-16.1c4.1,31.6,8.3,77.1,3,106.4l80.5-0.1
	C890.5,753,894.2,723.7,890.3,674.5z"/>
<path class="st13" d="M0,732.7c0,0,228.5-40.8,504.1-37.2c0,0,307-1.2,481.6,27.8v25.4L0,752.2"/>
<path id="_Clipping_Path_3" class="st14" d="M0,750c0,0,228.5-40.8,504.1-37.2c0,0,307-1.2,481.6,27.8V766H0"/>
<g>
	<defs>
		<path id="SVGID_3_" d="M0,750c0,0,228.5-40.8,504.1-37.2c0,0,307-1.2,481.6,27.8V766H0"/>
	</defs>
	<clipPath id="SVGID_4_">
		<use xlink:href="#SVGID_3_"  style="overflow:visible;"/>
	</clipPath>
	<g class="st15">
		<path class="st11" d="M214.1,677.2c-30.2,6.2-57.9,13-82.8,19.8c0.9,21.3,3.9,48.3,10.6,81.7l83.8-0.1
			C220.2,751.2,213,708.8,214.1,677.2z"/>
		<path class="st11" d="M432.3,650.7c-32,1-63.2,3.4-93,6.7c-2.6,40.5-0.4,81.1,6.4,121.1l88.5-0.1
			C432.6,751.2,429.8,691.6,432.3,650.7z"/>
		<path class="st11" d="M691.2,658.2c-38.5-3.2-74.2-5.1-103.7-6.2c1.7,35.8,3.8,93.3,1.3,126.1l100.5-0.1
			C691.5,759.5,695.6,715,691.2,658.2z"/>
		<path class="st11" d="M891.3,687.6c-27.8-6.4-56.6-11.7-85.5-16.1c4.1,31.6,8.3,77.1,3,106.4l80.5-0.1
			C891.5,766.2,895.1,736.9,891.3,687.6z"/>
	</g>
</g>
<path class="st16" d="M653.6,694.8c-7.4-5.4-12-13.8-12.9-22.9c-5.5-24.5,10-48.9,34.5-54.3c24.5-5.5,48.9,10,54.3,34.5
	c4,18.1-3.3,36.8-18.6,47.4l7.2,0.3c23-20.8,24.7-56.3,3.9-79.3s-56.3-24.7-79.3-3.9c-23,20.8-24.7,56.3-3.9,79.3
	c0.4,0.4,0.8,0.9,1.2,1.3l16.6,0.5C655.7,696.7,654.7,695.8,653.6,694.8z"/>
<path class="st17" d="M659.2,696c-7.4-5.4-12-13.8-12.9-22.9c-5.5-24.5,10-48.9,34.5-54.3c24.5-5.5,48.9,10,54.3,34.5
	c4,18.1-3.3,36.8-18.6,47.4l7.2,0.3c23-20.8,24.7-56.3,3.9-79.3c-20.8-23-56.3-24.7-79.3-3.9c-23,20.8-24.7,56.3-3.9,79.3
	c0.4,0.4,0.8,0.9,1.2,1.3l16.6,0.5C661.3,697.9,660.2,696.9,659.2,696z"/>
<path class="st18" d="M736.3,663.2c0-25.1-20.3-45.5-45.5-45.5c-25.1,0-45.5,20.3-45.5,45.5c0,3.4,0.4,6.7,1.1,10
	c-0.1-0.9-0.1-1.9-0.1-2.8c0-17.7,14.3-32,31.9-32.1c17.7,0,32,14.3,32.1,31.9c0,12.9-7.7,24.5-19.5,29.5c8.5,0.3,17.2,0.6,25.9,1
	C729,692.2,736.3,678.1,736.3,663.2z"/>
<path class="st19" d="M646.4,673.1c0.8,9.1,5.5,17.4,12.9,22.9C652.8,689.8,648.3,681.8,646.4,673.1z"/>
<path class="st20" d="M690.7,699.7c16.3-6.9,23.9-25.7,17-41.9s-25.7-23.9-41.9-17c-11.9,5-19.6,16.7-19.5,29.5c0,1,0,1.9,0.1,2.8
	c1.9,8.7,6.4,16.7,12.9,22.9c1.5,1.1,3,2,4.6,2.8C672.6,699,681.6,699.3,690.7,699.7z"/>
<path class="st16" d="M816.8,703.5c-6-4.7-9.8-11.7-10.3-19.3c-4.1-20.5,9.2-40.5,29.7-44.6c20.5-4.1,40.5,9.2,44.6,29.7
	c3,15.1-3.4,30.6-16.3,39.1l6,0.4c19.5-16.9,21.6-46.4,4.7-66c-16.9-19.5-46.4-21.6-66-4.7c-19.5,16.9-21.6,46.4-4.7,66
	c0.3,0.4,0.6,0.7,1,1.1l13.8,0.7C818.5,705.1,817.6,704.3,816.8,703.5z"/>
<path class="st17" d="M821.4,704.5c-6-4.7-9.8-11.7-10.3-19.3c-4.1-20.5,9.2-40.5,29.7-44.6c20.5-4.1,40.5,9.2,44.6,29.7
	c3,15.1-3.4,30.6-16.3,39.1l6,0.4c19.5-16.9,21.6-46.4,4.7-66c-16.9-19.5-46.4-21.6-66-4.7c-19.5,16.9-21.6,46.4-4.7,66
	c0.3,0.4,0.6,0.7,1,1.1l13.9,0.7C823.1,706.2,822.3,705.4,821.4,704.5z"/>
<path class="st18" d="M886.2,678.7c0.5-20.9-16.1-38.3-37.1-38.7c-20.9-0.5-38.3,16.1-38.7,37.1c-0.1,2.8,0.2,5.5,0.7,8.2
	c0-0.8-0.1-1.6-0.1-2.4c0.3-14.7,12.5-26.3,27.2-26c14.7,0.3,26.3,12.5,26,27.2c-0.2,10.7-6.8,20.2-16.7,24.1
	c7.1,0.4,14.3,0.8,21.6,1.3C879.6,702.7,885.9,691.1,886.2,678.7z"/>
<path class="st20" d="M847.6,708.2c13.7-5.4,20.3-20.9,14.9-34.6s-20.9-20.3-34.6-14.9c-9.9,4-16.5,13.5-16.7,24.1
	c0,0.8,0,1.6,0.1,2.4c1.5,7.3,5,14,10.3,19.3c1.2,0.9,2.5,1.7,3.8,2.5C832.5,707.4,840,707.8,847.6,708.2z"/>
<path class="st16" d="M395.6,694.2c7.4-5.4,12-13.8,12.9-22.9c5.5-24.5-10-48.9-34.5-54.3c-24.5-5.5-48.9,10-54.3,34.5
	c-4,18.1,3.3,36.8,18.6,47.4l-7.2,0.3c-23-20.8-24.7-56.3-3.9-79.3c20.8-23,56.3-24.7,79.3-3.9s24.7,56.3,3.9,79.3
	c-0.4,0.4-0.8,0.9-1.2,1.3l-16.6,0.5C393.6,696.1,394.6,695.2,395.6,694.2z"/>
<path class="st17" d="M390.1,695.4c7.4-5.4,12-13.8,12.9-22.9c5.5-24.5-10-48.9-34.5-54.3c-24.5-5.5-48.9,10-54.3,34.5
	c-4,18.1,3.3,36.8,18.5,47.4l-7.2,0.3c-23-20.8-24.7-56.3-3.9-79.3s56.3-24.7,79.3-3.9c23,20.8,24.7,56.3,3.9,79.3
	c-0.4,0.4-0.8,0.9-1.2,1.3l-16.6,0.5C388,697.3,389.1,696.3,390.1,695.4z"/>
<path class="st18" d="M313,662.6c0-25.1,20.4-45.5,45.5-45.5c25.1,0,45.5,20.4,45.5,45.5c0,3.3-0.4,6.6-1.1,9.9
	c0.1-0.9,0.1-1.9,0.1-2.8c0-17.7-14.3-32-31.9-32.1c-17.7,0-32,14.3-32.1,31.9c0,12.9,7.7,24.5,19.5,29.5c-8.5,0.3-17.2,0.6-25.9,1
	C320.3,691.6,313,677.6,313,662.6z"/>
<path class="st20" d="M358.6,699.1c-16.3-6.9-23.9-25.7-17-41.9c6.9-16.3,25.7-23.9,41.9-17c11.9,5,19.6,16.7,19.5,29.5
	c0,1,0,1.9-0.1,2.8c-1.9,8.7-6.4,16.7-12.9,22.9c-1.5,1.1-3,2-4.6,2.8C376.7,698.5,367.8,698.7,358.6,699.1z"/>
<path class="st21" d="M400.4,683.1c0.3-0.5,0.5-1.1,0.8-1.6c1.5-3.6,2.1-7.4,1.8-11.2c-0.5-4.6-3.8-4.1-7.7-3.1
	c-4.1,1.1-8.1,0.5-12.2-0.6c-2.8-0.8-4.4-2.5-7-3.9c-4.6-2.4-9.6-3.6-14.9-2.2c-4.5,1.2-13.2,6.2-15.8,9.6c-2,2.6-1.8,6.3-3.5,9
	s-4.8,3.7-6.8,6.2c-4.5,5.8-5,10.2-11.5,14.8c-6.6,4.7-14.8,6.7-21.6,11.6c-11.8,8.5-23.9,17.1-31.8,29.8c-1.6,2.4-3,4.8-4.2,7.3
	c-1.4,2.7-2,5.7-1.8,8.6c5.7-4.6,18.8-2.9,25.9-4c8.3-1.3,16.3,0.8,24.9,0.8c8.2,0,20,4.3,27.5,2.4c6.8-1.6,5.6-6.3,9.7-12
	c3.4-4.7,8.7-8.1,11.5-13c3.3-5.8,2.7-11,6.5-16.6c3-4.4,6.4-10,10.5-13.5s9.6-4,13.2-8.9C396.2,689.7,398.5,686.5,400.4,683.1z"/>
<path class="st22" d="M303.1,749.8c3.8,0,10.8,3,14.1,1.5c3-1.3,2.8-7.4,7.1-6.9c2.9,0.3,1.9,3.1,4,3.9c3.5,1.4,6.7-4.5,8.4-6.7
	c3.6-4.4,7.9-9.1,10.4-14.2c1.9-3.9,7.5-10.2,7.9-14.3c0.4-3.8-3.6-5.1,0.7-8.2c5.8-4.2,11.6-7.3,17.1-11.7c1.3-0.9,2.6-1.7,4-2.3
	c0.4-0.2,4.1-1.8,4.1-1.8c2.3-4.2,9.6-7,10.4-11.7c0.6-3.5-1.8-3.8-4.4-4.1c-6.3-0.8-7.9-5.8-11.1-10.4c-1.7-2.4-2.6-2.4-5.6-3.1
	c-2.2-0.4-4.4-0.7-6.6-0.7c-2.5-0.1-4-0.8-6.1,1.2c-1.7,1.7-2.7,3.9-5.1,5.3c-2.6,1.5-6.1,2.1-8.1,4.5c-1.1,1.4-1.1,3.1-2,4.5
	s-2.9,2.7-4.1,4.2c-1.9,2.4-1.6,5.7-3.2,8.1s-4.4,3.3-6.2,5.6c-4.1,5.2-4.6,9.2-10.5,13.4s-13.5,6.1-19.7,10.5
	c-10.8,7.7-21.8,15.4-29,26.9c-1.4,2.1-2.7,4.3-3.9,6.6c5.1-0.5,10.9-0.2,14.6-0.8C287.9,747.9,295.2,749.8,303.1,749.8z"/>
<path class="st23" d="M291.4,723.7c0.3,0.6-1,4.2,0.3,5.8c2.1-1.7,3.6-4.5,5.8-6.2c2.9,3.9,4.8-3.4,5-5.3c-4.6-0.7-7.6,4-11.5,5"/>
<path class="st23" d="M304.2,726.3c1.3,1.1,3.8-0.7,5.5-0.1c2.2,0.8,1.8,2.4,4.5,2.7c2.1,0.2,4.3-1.3,6.4-1.4
	c2.8-0.1,1.7,1.2,3.7,1.8c1.8,0.5,4.2-0.4,6.1-0.4c4.2,0,6.8,0.7,10.6-1c2.5-1.1,7.3-2.1,6.5-5.8c-6.5-0.3-13.3,2.4-19.4,1
	c-2.4-0.5-4.9-2.2-7.2-2.5c-3-0.5-5.9,1.2-9,1c-1-0.1,0.1-5-4.3-3.3C305.3,719.1,301.8,724.3,304.2,726.3z"/>
<path class="st23" d="M351.6,725.3c-1.2-0.4-3.8,7.2,0.4,5.1c2.1-1.1,2.8-6.2,3.2-8.3c-1.9,0-2.3,1.7-3.9,2.5"/>
<path class="st23" d="M357.7,697.8c-1,1.4-1,3.6-1.7,5.1c-1.5,3.3-1.9,1.8-4.1,2.1c-1.1,0.1-2.3,1-3.4,1.1c-2.1,0.1-3-1.7-4.8-2.2
	c-3.3-0.9-7.8,7-10.8,4.1c-2.2-2.2,1-5-0.2-7c-1.4-2.4-4.2,1-5.6,1.9c-0.2,0.1-2.1-2.8-3.2-2.3c-1.6,0.7-1.8,3.6-0.5,4.7
	c1.8,1.5,6.7-3.5,8.6-4.4c2.4-1.2,5.8-2.3,8.4-1.9c4.1,0.7,5,3.9,9.5,1c1-0.6,2.1-1.8,3.2-1.8c0.8-0.1,0.6,1.6,1.7,1.5
	c1.3-0.1,2.5-3.2,3.2-1.1"/>
<path class="st23" d="M366.8,702.8c-1-1.5-1.4-3.8-3.5-3.5c-1.7,2.2-0.7,7.8-0.1,10.4c2.5-1.8,3.9-4.8,3.6-7.9"/>
<path class="st23" d="M380.2,679.5c-0.1-3.2-1.8-6.3-5.4-4.6c-3.4,1.6-2.9,4.4-7.6,3.3c-1.3-0.3-1.3-1.2-3-1.3s-2.7,0.7-4.3,0.8
	c-3.3,0.3-5.9-0.6-8.4,1.8c1.9,0.5,5.4,0.5,7.3,1.7c2.8,1.8,1.7,3.1,5.4,3.1s10.4-1.7,13.3,0.6c-0.2-2.1,1-3.7,1.9-5.4"/>
<path class="st23" d="M258.9,752.4c-0.1,0.8-0.2,1.5-0.4,2.2c-0.5-2.2,2.6-5.6,4.7-6.2c2.8-0.9,4.5,2,7.2,0.1c2-1.3,0.8-4.3,4.1-3
	c1.5,0.6,1.6,3.6,3.6,3.8c2.5,0.2,2.9-3.4,5-4.3s6.1,0.2,8.2,0.7c1,0.2,2.1,0.4,3.1,0.8c1.3,0.5,1.5,1.8,3.2,1.9
	c2.8,0.2,4-1.6,4-4.3c1.4,0.1,2.8,0.4,4.2,0.7c0.1,1.2,0,2.4-0.3,3.6c2.3,0.8,4.4-0.8,6.6-0.4c2.4,0.5,3.1,2.9,5.1,3.6
	c4.1,1.4,7.3-2.7,8.2-6.1c4.8-1.3,4.5,4.9,4.7,7.8c1.3,0.8,4.2,2,5.7,1.4c1.8-0.7,1.8-3.7,4-3.9c0.6,0,5.5,2.7,6,3.2
	c1.6,1.7,1.7,5.8,1.5,8c-0.4,6.5-3.9,3.2-8.3,4.3c-2.3,0.6-3.5,2.5-5.6,3.5c-2,0.7-4.1,1.1-6.2,1.1c-1.7,0.1-0.9,0-2.7,0.7
	c-3.2,1.3-13.3,5.4-16.6,2.9c-1.6-1.2-0.7-2.8-1.7-4.3c-2.1-3.2-3.7-1.4-5.8,0.5c-2.5,2.4-2.7,3.6-6.6,2.5c-3.4-0.9-5.6-2.6-9.4-1.3
	c-3.2,1-5.2,2.9-9,2.1c-1.6-0.4-2.7-1.5-4-1.8c-0.8-0.2-3.1,0.4-4,0.4c-4.8-0.2-3.1-2.2-5.8-4.7c-3.5-3.3-2.3,3-6.4,2.5
	c-3.8-0.4-5.7-5.2-4.3-8.5c1.3-2.8,5-4,7-6.1c1.3-1.3,0.5-3.2,2.6-3.5"/>
<path class="st16" d="M11.7,740l-0.4-28.2c0,0,0.4-10.2,10.2-11s11.7,5.6,11.7,5.6l0.4,31.7L11.7,740z"/>
<path class="st17" d="M10.8,739.3l-0.2-22.8c0,0-0.6-13.4,8-15.6c10.7-2,12.1,4.3,12.1,4.3l0.6,31.9L10.8,739.3z"/>
<path id="_Clipping_Path_4" class="st18" d="M13.4,738.2C13,719.2,13,715.3,13,718.7c0,0.2,0,0.5,0,0.7c0.2-3.9,0.5-8.8,2.2-12
	c1.4-2.6,4.7-4.8,7-3.9c1.8,0.5,3.3,1.7,4.2,3.3c0.2,0.3,0.4,0.6,0.4,0.9l0.5,28.6L13.4,738.2z"/>
<g>
	<defs>
		<path id="SVGID_5_" d="M13.4,738.2C13,719.2,13,715.3,13,718.7c0,0.2,0,0.5,0,0.7c0.2-3.9,0.5-8.8,2.2-12c1.4-2.6,4.7-4.8,7-3.9
			c1.8,0.5,3.3,1.7,4.2,3.3c0.2,0.3,0.4,0.6,0.4,0.9l0.5,28.6L13.4,738.2z"/>
	</defs>
	<clipPath id="SVGID_6_">
		<use xlink:href="#SVGID_5_"  style="overflow:visible;"/>
	</clipPath>
	<g class="st24">
		<path class="st20" d="M20.6,738.3l-0.5-11.6c0,0,1.8-5.7,7.8-6.2S35,724,35,724l-5.8,12.5L20.6,738.3z"/>
	</g>
</g>
<polygon class="st7" points="31.4,733.4 10.9,736.6 10.9,740.7 31.4,737.5 "/>
<path class="st21" d="M836.3,685.1c-1.8-0.7-3.6-1.3-5.4-2c-3.9-1.5-8.1-2.4-12.3-2.5c-1.5,0-2.9,0.4-4.2,1.2
	c-1.3,0.7-2.4,1.8-3.1,3.2c-0.3,1-0.3,2,0,3c0.1,0.7,0.2,1.3,0.3,2c0.2,0.6,0.3,1.1,0.5,1.7c0.3,0.8,0.7,1.6,1.1,2.4
	c0.3,0.8,0.7,1.6,1.1,2.3c0.4,0.6,0.7,1.2,1.2,1.8c0.3,0.4,0.5,0.9,0.8,1.3c0.2,0.4,0.4,0.7,0.7,1c0.3,0.2,0.5,0.5,0.6,0.8
	c0.4,0.5,0.9,1,1.4,1.3c0.4,0.4,0.8,0.7,1.2,1.2c0.5,0.4,0.9,0.8,1.3,1.4c0.4,0.7,0.8,1.5,1.3,2.2c1.6,2.5,3.7,4.6,5.3,7.1
	c3.3,5.3,7.8,8.6,11.4,13.5c3.3,4.7,4.8,10.2,7.9,15c3.1,5,5.3,8.3,6.9,14.3c1.2,4.5,1.6,8.2,6,9.8c8.2,3,21.2-1.4,29.8-1.8
	c6.8-0.3,13.8,0.5,20.6-0.2c0.4-1.7,0.3-3.5-0.1-5.2c-1.7,0.2-3.4,0.2-5.1,0.2c1.7,0,3.4-0.1,5-0.2c-1.7-7.2-9.5-12-13-18.5
	c-2.6-4.8-3.1-5.5-8.1-8.8s-8.4-7.7-12.6-11.7c-3.7-3.5-8.3-5.4-12.3-8.5c-4.2-3.2-6.2-7.9-9.7-11.3c-1.7-1.7-4.3-2.3-5.6-4.1
	s-0.7-3.9-1.8-5.7C844.6,687.2,840.5,686.6,836.3,685.1z M890.3,760.1c-6.5,0.3-15.4,2.8-22.9,2.8
	C874.9,762.9,883.8,760.4,890.3,760.1c0.8,0,1.7-0.1,2.5-0.1C892,760,891.2,760,890.3,760.1L890.3,760.1z"/>
<path class="st22" d="M889.5,732.7c-4.9-3.3-8.4-7.7-12.6-11.7c-3.7-3.5-8.3-5.4-12.3-8.5s-6.2-7.9-9.7-11.3
	c-1.7-1.7-4.3-2.3-5.6-4.1s-0.7-3.9-1.8-5.7c-2.7-4.3-6.9-4.9-11-6.4c-5.6-2-20.7-8.3-24.3-1c-0.1,0.2-0.2,0.4-0.2,0.6
	c-0.7,1.7,2.7,6.4,3.6,7.7c1.2,2,2.5,3.4,5,2.2c2,0.5,2.4,3.1,2.4,4.8c0,4.4,3.5,6.2,5.6,9.7c1.3,2.2,2.7,4.5,5.3,5.1
	c1.7,0.4,4.9-0.2,5.5,2c0.4,1.3-0.2,2.9,0.2,4.2c0.7,2.7,2.4,5.4,3.6,8s2.2,4.9,3.5,7.2c1.2,2.1,2.8,3.4,4.3,5.2
	c1.5,2,3.5,3.4,4.3,6c0.4,1.3-0.1,3.4,0.7,4.4c0.5,0.6,1.6,0.5,2.2,1c0.4,0.5,0.7,1.1,0.9,1.7c0.5,0.8,1.5,2.7,2.2,3.2
	s2,0.3,2.5,1.1s-0.2,2.1,0.5,3.1c1.4,1.8,3.9,2.4,6,1.4c0.9-0.4,1.9-1,2.7-1.4s1.7-0.7,1.8-2c1.5-0.8,1.7,1.3,2.8,1.8
	c1.9,0.9,3.7,0.5,5.6-0.1c1.1-0.3,2.2-0.7,3.2-1.2c0.9-0.6,1.3-1.6,2.5-1.8c1.5-0.2,2.7,0.9,4.1,1.4c1.4,0.5,2.9,0.6,4.4,0.6
	c4.5,0.2,8.9,0.2,13.4-0.1c-1.7-7.2-9.5-12-13-18.5C895,736.7,894.4,736,889.5,732.7z"/>
<path class="st23" d="M850.8,738.5c1-2.1,3.3-3.4,5.6-3.2c0.5,0,0.9,0.7,1.3,0.7s1.1-0.5,1.5-0.4c0.7,0.1,1.2,0.8,2,0.8
	c1,0,2.1-0.9,3.2-0.7s2,2,3,1.4c0.7-0.4,0.3-1.7,1-2.1s2.5,0.8,3.1,1.3c1.3,1.1,2,2,3.8,1.8c2.8-0.3,7-4.4,9.4-1
	c1.4,2,3.2,7.8-0.8,5.4c-0.9-0.5-1.2-1.5-2.3-1.6c0.5,2.3-2,1.8-3.1,2.3c-1.8,0.8-2,3.2-3.4,4.1c-1.6,1-4.1,0.1-5.8,0
	c-2.4-0.1-4.1-0.1-6.1-1.7s-2.8-1-5-1.2c-1.2-0.1-1.7-0.9-2.7-1.5s-2.5-0.2-3.3-1.4c-0.6-0.8-0.6-1.8-1.4-2.5"/>
<path class="st23" d="M889,734.2c0,1.8,5.5,4.5,4.9,6.9c-0.5,2-3.7-1.9-4.9-1.8c0,0.2-0.1,0.5-0.1,0.7c-1.6,0.6-2.5-1.5-2.3-3
	c0.5,0,1,0.3,1.4,0.7c0.9-0.9-0.2-1.9,0.1-3c0.7-0.2,0.8-0.1,0.9,0"/>
<path class="st23" d="M851.1,744.5c-1.6-0.7-1.9-3-2.2-4.3c-0.2-0.9-1.1-4.3-1.9-1.8c-0.3,1,1,3.1,1.3,4.2c0.6,1.6,0.6,3.1,2.7,3.2
	c0.1-0.6,0-1.1-0.3-1.6"/>
<path class="st23" d="M841,722.4c-0.6-0.2-1.9-1.4-2.5-1c-1,0.6,0.7,3.5,1.1,4.1c1,1.7,2.2,3.2,3.6,4.5c0.6-1,0.7-3.6-0.4-4.1
	c0.5-0.1,1,0,1.4,0.2c-0.2-2.1-0.7-2.6-2-4.3c-0.2,0.2-0.7,0.2-0.9,0.3"/>
<path class="st23" d="M844.2,720.8c0.3,1.3,1.5,4,3,4.1c0.5-2,1-0.9,2-0.7c1.3,0.2,3.1-0.2,4.3,0.2c1,0.4,1.4,1.7,2.5,1.8
	c1.4,0.1,1.6-1,1.5-2.1c2-0.8,4.2,0.5,3.4-2.3c-0.3-0.3-0.5-0.6-0.7-0.9c0-0.6-0.1-1.1-0.2-1.7c-0.6-0.7-1.4-1.2-2.4-1.2
	c-0.2,1.2,0.4,2,0.5,3c-2.5,0-5.1-0.5-7.6-0.5c-2.2,0-5.2,1-6.9,0.7"/>
<path class="st23" d="M861.4,717.4c1.4,1.2,1.7,3.3,3.6,3.7c-0.2-0.7-0.3-1.4-0.3-2.1c1.6-0.9,3.2,0.5,4.7-0.2
	c-0.3-1.1-3.8-5.2-4.3-2.2c-1-0.5-2.1-0.4-3,0.2c0,0.2,0,0.3,0,0.5c-0.2,0-0.3,0-0.5,0c-0.1,0.5,0.1,1,0.5,1.2"/>
<path class="st23" d="M822,696c0.9,1.7,4,8,4.5,3.1c1.9-0.3,3.7,2.4,4-0.2c0.2-2-2.5-3.2-3.6-1.8c-0.7-0.6-1.5-1.7-2.5-1.7
	c-1.2,0-1.2,1.4-2.5,1.1c0,0,0,0.5,0,0.5c0.4,0.3,0.6,0.7,0.9,0.9"/>
<path class="st23" d="M831,695.1c0-0.2-0.3-0.4,0-0.2c1.1,0.8,1.5,2.2,2.7,3c0.7-0.8,0.3-1.4,1.4-1.6s2.5,1.3,3.8,1s0.2-1.5,2.3-0.5
	c1.4,0.7,1.1,1.5,2.2,0.7c0.8-0.5-0.6-1.3,1.2-1.4c0.6,0,1.5,1.5,2.2,0.3s-2.4-3.8-3.3-4.4c-0.1,0.1-0.1,0.3-0.2,0.4
	c-1.7,0-1.6,0.6-2.9,1.1s-2.8-0.3-4.1,0.1c-1.2,0.3-2.4,0.4-3.6,0.3c-1.5-0.1-2.4,0.5-1.4,1.8"/>
<path class="st23" d="M848.5,768.3c-2.5-6.9,4.5-9.6,10.5-8.7c3.6,0.5,3.3,1.5,6.2-2.2c2.1-2.8,2.8-3.2,6.5-2.4
	c2.7,0.5,5.3,1,8.2,1.5c1.2,0.2,1.6,1.1,3,1c1.8-0.1,2.1-1.2,3.7-1.7c4.6-1.4,9.7,1.8,13.9-0.5c0.1-1.3,0.2-2.6,0.5-3.9
	c2.3,0.2,4.5,3.5,7.3,3.8c2.5,0.3,4.2-2.3,6.4-1.3c1.9,0.8,3.6,6.3,2.8,8.2c-1.5,3.3-5.5,1.2-7.2,4.1c-2.1,3.6,1.1,5.8-4.3,7.2
	c-3.3,0.9-7.2,0-10.5-0.8c-3.8-0.9-5.8-2.1-9.7-0.7c-3.4,1.2-6.8,3.9-10.5,3.7c-1.6-0.1-2.2-1.5-4.2-1.1c-2.2,0.4-3.6,2-5.9,2.3
	c-1.4,0.1-2.7-0.5-4-0.4c-1.5,0.1-2.4,1.1-4,1.1c-5.9-0.2-5.5-7.7-9.4-9.4"/>
<path class="st21" d="M771.8,757.9c-0.6-0.7-2.8-0.9-3.7-1.8l0,0c-0.8-1-1.5-2.1-2-3.3c-4.8-9.4-10.1-18.6-15.9-27.5
	c-3.3-4.9-6.9-12.4-11.6-16c-3.5-2.7-8.1-3.6-12.3-4.3c-2.8-0.5-4.9-1.8-7.5-2.5c-5.4-1.5-17.6,1.1-17.8-7.9
	c-0.1-3.2,2.4-6.2,2.5-9.4c0.2-3.3-2.1-7.8-4.4-9.8c-3.7-3.3-10.2-4-15.5-3.2c-1.1,0.2-2.2,0.4-3.2,0.7c-5.7,1.8-15.2,8.2-20.9,4.8
	c-2.7-1.7-6.6-3.8-9.9-3.2c-1,0.1-1.8,0.8-2,1.7c-0.5,1.5-0.1,2.2,0.3,3.7c0.2,0.9,0.4,1.8,0.7,2.6c1.4,3.3,3.6,5.7,5.4,8.6
	c0.8,1.3,2.3,2.2,2.8,3.7c0.6,1.8-0.1,4,0.3,5.8c0.2,0.8,0.4,1.7,0.6,2.5c0,1,0.1,1.9,0.5,2.8c0.5,1.2,0.8,2.4,1.3,3.6
	c0.9,2.5,2.1,4.8,3.6,7c1.2,1.6,2.8,2.8,4,4.3c1.3,1.8,1.4,3.5,2.1,5.5c1,3,3.1,4.9,4.9,7.4c3,4.1,4,8.9,6.7,13.1
	c3.1,4.8,6.8,9.1,10.9,13c3.3,3.1,6.3,2,10.8,2.2c7.3,0.3,14.7,0.2,22-0.4c3.6-0.3,6.5-1.4,10.1-1.9c5.5-0.8,11.5-0.3,17-0.3
	c4.9,0,9.9-0.8,14.8-0.4C768.1,759.5,775,761.4,771.8,757.9z M674.3,677.9c0.3,0.1,0.6,0.4,0.7,0.8l-2.2,0.6
	C673.2,678.7,673.7,678.3,674.3,677.9L674.3,677.9z"/>
<path class="st22" d="M750,725.8c-3.3-4.9-6.9-12.4-11.6-16c-1.2-0.9-2.6-1.7-4-2.2c-1.3-0.5-2.4-1.5-3.9-1.7
	c-1.2-0.1-2.4-0.5-3.5-1.1c-0.6-0.3-1.1-0.7-1.7-1c-0.8-0.2-1.5-0.4-2.3-0.8c-0.5-0.4-1-1-1.5-1.5c-1.7-1.5-3.7-2.1-5.7-3
	c-2.4-0.9-4.6-2.3-6.5-4.1c-1-1-1.6-2.1-2.5-3.2c-0.9-1.2-1.7-2.4-2.4-3.7c-0.6-1-1.2-1.4-1.2-2.6c0-1.1-0.1-2.1-0.5-3.1
	c-0.7-2.2-2-4.3-3.8-5.8c-3.7-3.3-10.2-4-15.5-3.2c-2.4,0.4-5,2.3-7.2,3.4c-2,1.1-4.2,1.8-6.4,2.3c-0.8,0-1.6,0-2.4,0.1
	c-0.8,0.3-1.6,0.4-2.4,0.5c-1.7,0-2.9,1.6-4.1,2.7c-0.6,0.6-0.9,1.5-0.6,2.3c0.3,1.8,0.8,3.6,1.5,5.2c3.1,7.6,15.7,4.2,18.7,12.3
	c0.8,2.1-3.3,0.9-4.1,0.5c-1.6,1.2,1.7,3-0.7,5.7c-1.6,1.7-2.4,0.9-2,3.5c0.5,3,2.7,2.8,4.4,4.5c3.4,3.7,4,9.4,5.4,13.8
	c0.8,2.5,3.5,4.7,4.7,7.2c1.3,2.7,1.7,5.1,3.3,7.6c3.1,4.8,6.8,9.1,10.9,13c3.3,3.1,6.3,2,10.8,2.2c7.3,0.4,14.7,0.2,22-0.4
	c3.6-0.3,6.5-1.4,10.1-1.9c5.5-0.8,11.5-0.3,17-0.3c1.8,0,3.7-0.1,5.5-0.2c-0.8-1-1.5-2.1-2-3.3C761.1,743.9,755.8,734.7,750,725.8z
	"/>
<path class="st23" d="M699.7,736.8c0.5-0.4,1.2-0.4,2.4-0.2c3.3,0.5,6.3,2.8,9.7,2.5c2.9-0.2,6.4-6.2,9.4-3.6
	c0.9-0.7,1.7-1.6,2.2-2.6c-1.5-2.6-5.4-9.8-9.1-9.8c-1.2,0-3.7,2.3-5.1,2.9c-1.8,0.8-4.2,2.1-6.2,2.8c-2,0.8-4.4,0.6-6.2-0.5
	c-1.5-1-2.3-4.2-4.7-2.7c-1.5,0.9-1.6,2.7-1.2,4.2c0.3,1.3,0.8,2.6,1.4,3.7c0.5,1,1.8,2.4,1.7,3.6c0,0.5-0.9,0.4-0.7,1.3
	c0.4,0.5,0.8,0.9,1.3,1.3c0.5,0.5,1.4,2.2,2.3,2.1c1.1-0.2,1.4-2.7,1.8-3.6C699,737.7,699.3,737.2,699.7,736.8z"/>
<path class="st23" d="M725.2,725.3c-1.5,2.9,3.1,9.5,6.7,9.6c0.5,0,0.9-3,1.6-3.4c1.5-0.8,4.4,2.7,6,3.2c2.4,0.7,4.5,0.1,6.8-0.2
	c0.3-1.4-0.6-9-2.8-8.5c0,0.6,0,1.2,0,1.7c-0.8,0-0.8-0.9-1.3-1.3c-0.9-0.7-2.1-0.8-3-1.5c-0.3-0.2-2-2.2-2.6-1.4
	c-1.4,2,0,3.8-3.5,2.5c-2.5-1-5.2-3.1-7.8-1.1c-0.4,0.8,0.2,0.8,0.5,1.5"/>
<path class="st23" d="M685,742.7c1,0.5,1.2-4.5,1-5c-0.3-1.3-0.8-2.6-1.3-3.8c0.4,0.1,0.8,0.2,1.2,0.2c0.1-2.4-2.3-12.4-5.7-7.8
	c-2,2.6,2.2,12.3,3.2,15.6L685,742.7z"/>
<path class="st23" d="M670.5,687c-1-0.6-1.9-1.3-2.8-2.1c-0.2-0.2-1.9-2.3-0.8-2.6c0.7-0.2,1.6,0.5,2.3,0.7s1.2-0.2,2.1,0.4
	s1.3,1.6,2.2,2.2s2.2,0.4,2.9,1.1s0.8,2.1-0.2,2.3c-0.7,0.2-2.2-0.9-3.1-1.1C671.7,687.7,671.6,687.9,670.5,687z"/>
<path class="st23" d="M680.5,684.5c1-0.1,2,0,2.9,0.5c0.7,0.4,2,2.1,2.7,0.8s-3.9-4.3-4.8-3.8c-0.8-1.1-2-2-3.3-2.5
	c-2.4-0.3-2.5,2.8-0.8,4c1.3,0.9,2.4,2.3,3.9,2.8C681,686.1,680.9,684.5,680.5,684.5z"/>
<path class="st23" d="M682.9,761.1c-0.3-0.1-0.7,0-1-0.1c-0.4-3.9,6.5-8.5,9.7-9.3c3.8-0.9,7.2,3.5,9.8,0.2c1.6-2-0.1-6.4,4.2-4.9
	c1.8,0.7,2.3,2.7,3.6,4c1.6,1.7,2.6,1.8,4.7,2.8c4.1,1.9,8.9,3.7,9.6-2.8c0.1-0.6,5.1,0.4,5.8-0.1c1.6-1,0.8-4.2,2.5-5
	c3.7-1.8,3.7,7.5,6.8,8.6c4.8,1.8,4.8-4.5,7.6-6.1c2-1.2,8.7-0.8,10.9,0.2c4.3,2,2.9,4.3,6.9,1.5c1.5-1,0.7-2.5,3.5-1.8
	c1.5,0.3,3.6,2.7,4.7,4c1.6,1.9,3.6,5.4,2.5,8.2c-0.3,0.6-2.2,2-2.8,3c-1.2,1.8-0.8,2.9-2.9,4.3c-5,3.2-13,0.4-18.4-0.3
	c-2.2-0.3-6.7-1.9-8.7-1.1c-2.6,1.1-2,3.8-5.9,4.3c-6.3,0.9-12.8,1-19.2,1.4c-5.2,0.4-9.8,5.6-15,3.5c-2.1-0.8-3.2-2.3-5.6-2.8
	c-1.4-0.3-2.8,0.3-4-0.7c-0.7-0.5-0.5-1.8-1.5-2.3c-1.9-1-4.4,0.3-6.2-1.3s-0.7-3-1.1-5.1c0,0.2-0.7-4.9-1.6-3.3
	c0.4-0.7,1.1-1.3,1.8-1.8"/>
<circle class="st25" cx="200.9" cy="440.2" r="41.6"/>
<circle class="st18" cx="196.3" cy="445.4" r="29.3"/>
<circle class="st26" cx="772.6" cy="440.2" r="41.6"/>
<circle class="st25" cx="325.5" cy="255.8" r="36.5"/>
<circle class="st26" cx="661.7" cy="255.8" r="36.5"/>
<path class="st23" d="M696.4,708.5c0.4-0.1,0.9,0.1,1.8,1s1.1,1.9,3.1,1.6c2.3-0.4,1.1-4,4.2-2.2c0.6-1.5-1.1-2.7-1.9-3.9
	c-1.2-1.7-2.9-5.9-5.5-2.8c-1.9,2.3-2.1,0.8-5,0.6s-2.6,1.3-4.1,2.3s-3.9,0.7-5.4-0.1c-1.8-1-4-1.3-6-0.9c0,0.8,1.4,2.5,2,3.2
	c1.1,1.1,2.1,2.4,3,3.7c1.1,1.8,2.8,4.9,5.2,5.9c0.9-1.5,1.3-3.1,1.4-4.8c0-1.8-0.8-4.7,2.4-3.3c0.6,0.5,1.3,0.8,2.1,1
	C695.3,709.6,695.8,708.7,696.4,708.5z"/>
<path class="st23" d="M672.6,705.7c0.8,1.6,2.1,3.5,2.5,5.2c0.3,1.4,0.3,2.9,1.2,3.8c0.2,0.8,0,1.9-0.9,2s-1.2-1-1.6-1.7
	c-0.9-1.4-1.6-3-2.1-4.6c-0.6-1.8-2-3-2.5-4.8c-0.7-2.4,2.4-1.3,3.3-0.4"/>
<path class="st23" d="M709.4,706c0.8-0.8,0.7-2.4,2.3-2.2c0.9,0.1,1.4,1.3,2.6,1.3c1.6,0,1.6-0.9,2.6-1.5c1.2-0.7,1.6,0.2,2.9,0.1
	c-0.2-1-2.3-2.4-3.5-2.6c-1.9-0.3-3.9,1.4-5.8,0.7c-1.5-0.5-1.7-2.5-3.6-2C702.7,701,709.8,705.6,709.4,706z"/>
<path class="st23" d="M685.6,679.4c1.3,1.3,2.4,2.8,3.6,4c1.5-1,0-4.9,2.7-3.8c1.4,0.6,1.6,0.9,3.1,0.2c0.7-0.3,1.6-1.1,2.2-0.3
	c1.3-2-1.7-1.7-2.6-1.6c-1.5,0.3-2.2-1.3-3.6-1.1c-1.3,0.2-1.7,1.8-2.7,2.4s-1.5-1.3-2.8-0.3c0,0.4,0.3,0.8,0.7,1"/>
<circle class="st18" cx="666.4" cy="258" r="25.8"/>
<circle class="st18" cx="776.6" cy="445.4" r="29.3"/>
<circle class="st18" cx="322.5" cy="258" r="25.8"/>
<path class="st27" d="M220.6,458.7c-2.3-7.2-9-14.6-15.6-18c-3.9-2-8.5-3.7-12.9-3.4c-3.3,0.2-6.7-0.6-10-0.2
	c-3.7,0.4-7.3,0.9-10.9,1.4c-4.1,0.6-7.9,0.3-11.8,2.1c-4.5,2-8.7,4.8-13.4,6.3c-2,0.6-4,0.8-5.7,1.8c-2.4,1.3-4.4,3.5-6.8,4.8
	c-6.7,3.8-14,6.6-20.3,11.2c-3.9,2.9-7.3,6.6-11.2,9.5c-3.5,2.7-5.4,5-8.4,8.3c-2.7,3-5.8,5.3-8.1,8.6c-5.6,8-10.2,16.7-13.6,25.8
	c-1.7,4.8-3.7,8.3-4.6,13.3c-0.6,3.4-2.6,8.4-1.6,11.9c0.4,1.5,1.5,2.3,1.8,3.8c0.3,1.7-0.4,2.5-0.9,3.9c-1.4,4.3,1.1,10,5.3,11.7
	c0.5,0.2,1,0.4,1.5,0.5c9.8-10.2,20.8-19.2,32.7-26.8c0.1-2.4,2-2.4,3.5-4.2c1.3-1.6,2.1-3.5,2.6-5.5c1-5.3,4.5-6.9,7.7-11
	c13.1-17.2,32.9-27.6,53.7-32.6c4.1-1,9.5-1.2,13.3-3.2c2.8-1.4,5.9-0.8,8.9-3c10.3,0,19.8-5.5,25.1-14.3
	C220.9,460.4,220.8,459.5,220.6,458.7z"/>
<path class="st28" d="M94.9,523.6c1.6-2,4.4-3.1,5-5.8c0.7-3.6,0-6.9,4.4-7.7c3.4-0.6,9.1,0.4,11.2-3.1c1.5-2.4,0.4-5.3,1.7-7.6
	c1.6-2.9,5.9-5.7,8.9-6.7c2.9-1,5.7,0,7.7-3c2.3-3.4,0.2-9.1,4.1-11.4s7,1.2,10.8,1.8c4.3,0.7,7.6,0.7,10.6-2.7
	c3.2-3.6,3.3-5.2,8.3-5.4c4.1-0.1,7.1-3.1,10.8-2.7c5.1,0.5,10,3.9,13.1-1.7c1.1-2,0.3-6.1,1.9-7.3s4.2-0.2,6-1.5
	c2.8-1.9,1.4-3.2,0.5-5.8c3.4-1.6,6.8-6.4,2.3-9c-1.8-1-4.4-0.8-6.4-1.5c-4.3-1.6-8.4-3.8-12.6-5.4c-0.4,0-0.7,0-1.1,0.1
	c-3.7,0.4-7.3,0.9-10.9,1.4c-4.1,0.6-7.9,0.3-11.8,2.1c-4.5,2-8.7,4.8-13.4,6.3c-2,0.6-4,0.8-5.7,1.8c-2.4,1.3-4.4,3.5-6.8,4.8
	c-6.7,3.8-14,6.6-20.3,11.2c-3.9,2.9-7.3,6.6-11.2,9.5c-3.5,2.7-5.4,5-8.4,8.3c-2.7,3-5.8,5.3-8.1,8.6c-5.6,8-10.2,16.6-13.6,25.8
	c-1.7,4.8-3.7,8.3-4.6,13.3c-0.6,3.4-2.6,8.4-1.6,11.9c0.4,1.5,1.5,2.3,1.8,3.8c0.3,1.7-0.4,2.5-0.9,3.9c-1.4,4.3,1.1,10,5.3,11.6
	c0.5,0.2,1,0.4,1.5,0.5c3.3-3.5,6.9-6.9,10.8-10.4c2.1-6.8,4-14,7-20.4c1-2.1,1.9-4.3,2.8-6.3C94.3,524.3,94.6,524,94.9,523.6z"/>
<path class="st29" d="M178.3,459.5c3.6-1.4,12.2-7.2,16.3-5.1c4.3,2.2-0.6,3.9-3,4.1c-1.9,0.1-3.8,0.7-5.5,1.5c-2,1-6.8,6.3-9.2,3.9
	c-3-3,5.8-6.7,7.5-7.5"/>
<path class="st29" d="M173.1,454.9l-0.5,0.1c-4.5,0.4-1.4-2.6-1.4-5.4c-1.4-0.7-4.3-0.3-5-2.1c-0.7-2,1.9-3.5,3.2-4.2
	c2.6-1.3,6.7-2.6,9.6-2.3c0,1.4-1.7,1.9-1.5,3.1c0.2,1.4,1.5,0.6,2.4,0.4s2.2-0.9,2.7,0c0.3,0.6-0.4,1.2-0.2,1.8s0.7,0.4,1,0.9
	s0.7-0.1,0.6,0.5s-1.6,0.9-2.1,1.1C178.5,450,177.1,454.2,173.1,454.9z"/>
<path class="st29" d="M114.2,473.2c2.1-1,3.5-3.9,5.3-5.5c2.7-2.2,5.8-4,8.6-5.9c2.7-1.8,5.5-3.9,8.6-4.8c-0.9,1.3-3.1,3.6-0.8,4
	c1.1,0.2,3.3-1.1,4.2,0.1c1.3,1.8-3.3,4.5-4.4,5.5c-0.9,0.7-1.7,1.6-2.4,2.5c-0.6,1-0.2,1.5-0.4,2.5c-0.4,2.4-4.1,2.9-6.2,3.6
	c-1.6,0.5-5.2,2.1-6.9,1.3c-1.1-0.5-0.1-3.4-1.2-3.5s-3.4,3.2-4.2,0.4"/>
<path class="st29" d="M135.5,476.7c1.1-1,3.6-4.2,5.3-3.9c1,0.2,1,1.1,2.2,1c1.4-0.1,2.2-1.3,3.2-2s3.5-1.7,4.2-0.4
	c0.3,0.5-0.7,3.9-1,4.3c-0.9,1.1-3,0.6-3.9,1.9c-1.6,2.4,3,1.8,3.6,2.3c1.8,1.5-6.7,3.5-7.5,3.9c-1.8,0.8-3.3,1.9-5.1,2.8
	s-3.6,3.3-5.9,3.1c-1.4-0.1-3.3-2-3.3-3.4c0-1.5,3.1-1.5,1.7-3.3c-0.6-0.7-2.8-1.1-1.1-2.3c1-0.6,2.4-0.7,3.5-1.2
	C132.9,478.8,134.3,477.9,135.5,476.7z"/>
<path class="st29" d="M86.9,506.8c-0.5-0.2-1.1-0.3-1.6-0.2c0.2-0.5,2.6-4.2,0.9-4.1s-1.9,2.3-2.4,3.4c-0.9,1.7-2.4,3-3.3,4.7
	c-0.6,1.2-3.2,6.2-2.1,7.6c0.9,1.2,3.5-4.7,4.1-5.7c-0.5,1.4-0.6,4.2,1.6,2.8c1.4-0.9,1.7-3.3,2.6-4.6S89.2,507.6,86.9,506.8z"/>
<path class="st29" d="M87.7,520c-3-1.6,3-8,4.1-9.5s2-2.6,2.8-0.4c0.6,1.6,0.6,2.6,2.1,1.1c0.8-0.8,2.2-3.5,3.6-2.5
	s-0.2,3.9-0.8,4.8c3-0.3,1.2,2.7,0.4,4c-1.5,2.4-4,6.3-6.9,7.1c-0.6-2.6,1.8-4.1,1.7-6.4s-2.3-1-3.2,0.1S89.4,521,87.7,520z"/>
<path class="st29" d="M99.2,524.6c1.3-1.4,2.3-3,3.2-4.7c1.1-2,2.3-5.6,4.2-6.9c3.1-2.1,0.4,5.1-0.4,6.2c0.7,0.2,1.1-0.7,2-0.8
	c-0.3,2.8-1.5,5.5-3.4,7.6c-1.5,1.7-3.7,2.8-4.6,0c-0.5,0.1-1.1-0.3-1.2-0.8c0-0.1,0-0.2,0-0.4c0.1-0.5,1.4-1.4,1.8-1.8"/>
<path class="st30" d="M119.4,455.6c1.1-1,2.3-2.4,1.7-3.5c-1.1-2-8-0.4-10.1-0.7s-5.7,1.2-7.5,2.4c-2.4,1.6-5.8,4.1-2.6,6.8
	c1.7,1.4,7-1.7,8.3-2.4c0.8-0.4,2.4-1.6,3.3-1.6c2.2-0.1,3.4,1.3,5.8-0.1C118.6,456.2,119,455.9,119.4,455.6z"/>
<path class="st30" d="M115.4,446.8c6.1-1.1,1.1-5.6-1.8-2.8C112.2,445.4,113.5,447.1,115.4,446.8z"/>
<path class="st31" d="M905.1,529.5c-0.9-5-2.9-8.5-4.6-13.3c-3.4-9.2-8-17.8-13.6-25.8c-2.3-3.3-5.4-5.6-8.1-8.6
	c-3-3.3-4.9-5.6-8.4-8.3c-3.9-3-7.2-6.6-11.2-9.5c-6.3-4.6-13.6-7.4-20.3-11.2c-2.4-1.4-4.4-3.5-6.8-4.8c-1.8-1-3.7-1.1-5.7-1.8
	c-4.8-1.5-9-4.2-13.5-6.3c-3.9-1.8-7.7-1.5-11.8-2.1c-3.6-0.5-7.3-1-10.9-1.4c-3.3-0.3-6.6,0.5-10,0.2c-4.4-0.3-9.1,1.4-12.9,3.4
	c-6.6,3.5-13.3,10.8-15.6,18c-0.3,0.8-0.4,1.7-0.3,2.6c5.3,8.9,14.8,14.3,25.1,14.3c3,2.2,6.1,1.6,8.9,3c3.8,2,9.2,2.2,13.3,3.2
	c20.8,5,40.5,15.4,53.7,32.6c0.5,0.6,1,1.2,1.5,1.8c21.9,5.1,39.2,12.1,52.6,20.4C906.2,533.7,905.4,531.4,905.1,529.5z"/>
<path class="st32" d="M905.1,529.5c-0.9-5-2.9-8.5-4.6-13.3c-3.4-9.2-8-17.8-13.6-25.8c-2.3-3.3-5.4-5.6-8.1-8.6
	c-3-3.3-4.9-5.6-8.4-8.3c-3.9-3-7.2-6.6-11.2-9.5c-6.3-4.6-13.6-7.4-20.3-11.2c-2.4-1.4-4.4-3.5-6.8-4.8c-1.8-1-3.7-1.1-5.8-1.8
	c-4.8-1.5-9-4.2-13.5-6.3c-3.9-1.8-7.7-1.5-11.8-2.1c-3.6-0.5-7.3-1-10.9-1.4c-0.3,0-0.7,0-1.1-0.1c-4.3,1.6-8.3,3.8-12.6,5.4
	c-2.7,1-8,1.3-8.7,4.9c-0.7,3.8,3.1,10.5,5.6,13.1c4,4,10.4,5.2,15.8,5.1c3.7,0,7.1-0.2,10.5-1.6c2.8-1.1,6.8-4.2,9.6-1.5
	c4.2,4-0.2,8.9,1.5,13.2c1.8,4.6,8.5,5.2,12.6,4.5c3.7-0.6,6.8-4.1,10.8-1.8s1.8,8,4.1,11.4c2.1,3,4.8,2.1,7.7,3c3,1,7.3,3.8,9,6.7
	c1.3,2.4,0.2,5.2,1.7,7.6c2.1,3.5,7.8,2.5,11.2,3.1c4.5,0.8,3.7,4,4.5,7.7c0.4,2.2,2.3,3.3,3.9,4.8c10.5,3.6,20.6,8.2,30.1,14
	C906.2,533.7,905.4,531.4,905.1,529.5z"/>
<path class="st33" d="M790.7,467.9c0.5,0.1,0.9,0.1,1.4,0.1c4.3-0.2,9.8-3.5,13.5,0.2c1.8,1.9,4.5,2.6,7,1.7
	c2.8-0.9,1.7-2.5-0.4-3.8c-6.6-4.1-15.6-6-23.2-7.2c-2.2-0.4-4.4-0.7-6.5,0.1c-3.7,1.4-1.5,4.4,0.9,5.5S788.1,467.5,790.7,467.9z"/>
<path class="st33" d="M823.6,448.8c2.6,1.3,6.9,1.7,8,5.1c0.8,2.6-2.2,3.3-4.2,2.1c-1.4-0.9-2.2-3.7-4.3-2.7c0.8,0.5,2.4,2,1.6,3.1
	c-0.6,0.8-2.2,0.1-3,0.4c-2.1,0.8-2.4,3.2-5.1,3.2c-3.3,0-4.6-2.8-7.4-3.7s-6.9,0.8-9.5-1.4c-1.1-0.9-1.6-2.1-0.4-3.2
	c2-1.6,5,0.7,6.8-0.1c2.9-1.3,0.1-4.3,2.6-5.6c3.2-1.8,5.1,2.1,7.7,2.3c0.9,0.1,1.8-0.9,2.7-1C820.7,447.2,822.2,448,823.6,448.8z"
	/>
<path class="st33" d="M854.1,482.9c-1-2.7-5.4-4.4-7.8-5.5c-1.3-0.6-6-4.3-7.2-2.5c-0.8,1.1,2,4.4-0.6,4.8c-1.4,0.2-2.1-1.7-3.5-1.8
	c-1.1-0.1-4.4,2.5-5.2,3.3c-1.6,1.6-0.4,3.1,1.1,4.7c2.7,2.9,6,5.4,9.6,7.2c1.5,0.7,4.2,1.7,4.3-0.6c0-1.2-2-2.4-1.3-4
	c0.8-1.8,2.8-0.6,4,0.3c1,0.7,2.8,2.3,4.1,2c2.1-0.6-1-3.3-0.6-4.2C851.6,484.5,855.2,485.7,854.1,482.9z"/>
<path class="st33" d="M847.7,475.3c2.1,1.5,4.9,3,7.6,3.2c1,0.1,2.4,0,3.1-0.9c0.6-1.1,0.6-2.3,0.2-3.4c-0.2-0.3-4.2-3.7-1.6-2.9
	c0.9,0.3,1.4,1.3,2.3,1.5s1.4-0.2,1.2-1c-0.4-1.1-2.4-2.2-3.3-2.8c-1.6-0.9-3-2.1-4.8-2.4c-0.6-0.2-1.2-0.1-1.6,0.4
	c-0.1,0.6,0,1.3,0.3,1.8c-1.3,0-1.4,0.6-2.4,1.3c-0.8,0.4-1.6,0.6-2.4,0.7C842.4,471.1,846.7,474.7,847.7,475.3z"/>
<path class="st33" d="M861.3,508.4c0.8,1,2.3,3.2,3.9,2.8s1.6-2.5,2.5-3.6c1.2-1.6,3.8-1.4,5.5-0.6c0.7,0.3,1.7,1,2.5,0.6
	c1.8-1.1-0.8-5-1.8-5.8c-0.8-0.6-1.7-2-2.5-2.4c-1.1-0.6-0.7,0.5-1.1,1.4c-0.6,0.7-1.4,1.2-2.3,1.3c-1.1,0.4-2.4,0.3-3.5-0.1
	c-0.9-0.4-1.5-1.1-2.5-1.2c-1.7-0.2-3.9,0.6-4,2.5S860.2,507,861.3,508.4z"/>
<path class="st33" d="M878.7,504.7c0.5,0.8,1.8,2.6,1.8,0.7c0-2.2-1.4-4.9-2.4-6.7c-0.6-1-1.5-2.6-2.8-2.4c-0.1,0.7-0.1,1.3,0.1,2
	c0.3,0.9,0.9,1.9,1.2,2.8C877.1,502.3,877.8,503.5,878.7,504.7z"/>
<path class="st33" d="M884.5,494.6c1.5,0,2.6,2.9,3,4c0.1,0.2,0.7,3.8-0.1,3.5s-0.8-1.5-1.6-1.3s-0.9,1.5-1.3,1.9
	c-1.7,2-3-0.4-3.7-1.8c-0.6-1-1.2-2.1-1.6-3.2c-0.9-2.7,2,0.1,2.5,0C883.1,497.6,882.8,494.6,884.5,494.6z"/>
<path class="st34" d="M728.2,249c-2-0.6-8.2,0.7-8.5-3c-0.4-4,10.2-2,12.2-1.3c2.7,1,6.7,5.1,3.1,7.8
	C731.7,254.9,730.7,249.7,728.2,249z"/>
<path class="st34" d="M719.5,236.8c2-0.4,8-2,6.3,1.9s-6.8,1.2-6.9-2.2c0.5-0.1,1-0.1,1.4,0"/>
<path class="st35" d="M797.3,339.2c-0.9-5-2.9-8.5-4.6-13.3c-3.4-9.2-8-17.8-13.6-25.8c-2.3-3.3-5.4-5.6-8.1-8.6
	c-3-3.3-4.9-5.6-8.4-8.3c-3.9-3-7.2-6.6-11.2-9.5c-6.3-4.6-13.6-7.4-20.3-11.2c-2.4-1.4-4.4-3.5-6.8-4.8c-1.8-1-3.7-1.1-5.7-1.8
	c-2.2-0.7-4.4-1.7-6.5-2.8c-2.3-1.2-4.6-2.4-6.9-3.5c-3.9-1.8-7.7-1.5-11.8-2.1c-3.6-0.5-7.3-1-10.9-1.4c-3.3-0.3-6.6,0.5-10,0.2
	c-4.4-0.3-9.1,1.4-12.9,3.4c-6.6,3.4-13.3,10.8-15.6,18c-0.3,0.8-0.4,1.7-0.3,2.6c5.3,8.9,14.8,14.3,25.1,14.3c3,2.2,6.2,1.6,8.9,3
	c3.8,2,9.2,2.2,13.3,3.2c8.9,2.1,17.6,5.4,25.7,9.8c3.2,1.7,6.4,3.6,9.5,5.7c5.4,3.6,10.9,7.4,15,12.5c3.6,4.4,4.9,9.5,7.5,14.4
	c0.4,0.7,0.8,1.4,1.3,2.1c15.7,1.1,32.8,4,48.2,10.6C799,343.8,797.7,341.4,797.3,339.2z"/>
<path class="st36" d="M797.6,339.1c-0.9-5-2.9-8.5-4.6-13.3c-3.4-9.2-8-17.9-13.6-25.9c-2.3-3.3-5.4-5.6-8.1-8.6
	c-3-3.3-4.9-5.6-8.4-8.3c-3.9-3-7.2-6.6-11.2-9.5c-6.3-4.6-13.6-7.4-20.3-11.2c-2.4-1.4-4.4-3.5-6.8-4.8c-1.8-1-3.7-1.1-5.7-1.8
	c-2.2-0.7-4.4-1.7-6.5-2.8c-2.3-1.2-4.6-2.4-7-3.5c-3.9-1.8-7.7-1.5-11.8-2.1c-3.6-0.5-7.3-1-10.9-1.4c-0.3,0-0.7,0-1.1-0.1
	c-4.3,1.6-8.3,3.8-12.6,5.4c-2.7,1-8,1.3-8.7,4.9c-0.7,3.8,3.1,10.5,5.6,13.1c3.1,3.1,8.7,5.2,12.5,7.7c3.5,2.3,9.5,5.6,13.1,1.4
	c1.7-2,3.2-4.4,6.1-4.5c3.2,0,5.4,2.7,5.8,5.6c0.5,3.4-0.5,4,3.6,3.9c4.8-0.1,5.9,1.3,9,4.9c0.7,0.8,1.3,1.6,2,2.3
	c3.9,4.7,8,9.4,14.3,10.5c9.7,1.7,10.5,9.8,17.1,15.5c3.3,2.9,7.8,3.7,11.1,6.5c2.1,2,3.7,4.6,4.4,7.4c0.7,2.1,0.5,4.9,1.8,6.8
	c0.1,0.1,0.2,0.2,0.3,0.4c2.8,0.4,5.7,1,8.5,1.5c0.5,0,1,0,1.5,0.1c1,0.1,2,0.5,2.9,0.9c5.8,1.4,11.5,3.2,17,5.5
	C799.6,344.2,798,341.6,797.6,339.1z"/>
<path class="st37" d="M247.8,318.5c4.1-5,9.6-8.9,15-12.5c10.7-7.2,22.6-12.4,35.2-15.4c4.1-1,9.5-1.2,13.3-3.2c2.8-1.4,6-0.8,8.9-3
	c10.3,0,19.8-5.5,25.1-14.3c0.1-0.9,0-1.7-0.3-2.6c-2.3-7.2-9-14.6-15.6-18c-3.9-2-8.5-3.7-12.9-3.4c-3.3,0.2-6.7-0.6-10-0.2
	c-3.7,0.4-7.3,0.9-10.9,1.4c-4.1,0.6-7.9,0.3-11.8,2.1c-4.5,2-8.7,4.8-13.5,6.3c-2,0.6-4,0.8-5.7,1.8c-2.4,1.3-4.4,3.5-6.8,4.8
	c-6.7,3.8-14.1,6.6-20.3,11.2c-3.9,2.9-7.3,6.6-11.1,9.5c-3.5,2.7-5.4,5-8.4,8.3c-2.7,3-5.8,5.3-8.1,8.6c-5.6,8-10.2,16.7-13.6,25.8
	c-1.7,4.8-3.7,8.3-4.6,13.3c-0.6,3.1-1.9,9.4-0.7,13.7c16.2-6.2,32.9-9.3,46.4-10.7C241.7,334.6,242.1,325.3,247.8,318.5z"/>
<path class="st38" d="M221.8,339.9c-0.3-2.6-2.6-3.5-0.5-6.3c1.5-2,4.1-2.4,5.8-4.1s1.2-4,2.5-5.9c2.4-3.4,8.4-4,11.6-6.8
	c4.7-4.1,4.6-10.5,8.7-15c2.8-3,4.1-1.2,7.3-1.8c6.5-1,5.3-18,10.4-16.8c2.5,0.6,3.5,4.9,6.3,5.6c2.6,0.6,3.9-1.3,5.5-2.9
	c3.4-3.3,7.2-2.8,10.7-5.6c5.7-4.6,11,2.9,17.1-0.1c6.6-3.3,11.4-4.8,13.5-12.3c0.3-1.1,0-3.4,0.6-4.3c2-3,9.4,0.2,9.2-5.9
	c-0.2-4.8-5.8-5-9.1-6.2c-4.3-1.6-8.4-3.8-12.6-5.4c-0.4,0-0.7,0-1.1,0.1c-3.8,0.4-7.7,1.4-11.5,1.5c-2.5,0.1-4.8-0.6-7.4,0
	c-1.9,0.4-3.8,0.9-5.7,1.5c-2.1,0.8-2.9,2.1-4.6,3.4c-2.1,1.5-4.4,2.6-6.9,3.3c-4.4,1.4-9,2.5-13.4,4c-3.1,1.1-6.7,1.8-9.7,3.4
	c-2.7,1.5-4.7,4.3-7.1,6.3c-4.1,3.4-8.1,6.8-12.1,10.3s-9.3,4.9-12.9,9.3c-3.3,4-6.4,8.1-9.8,12c-3.9,4.5-6.1,10.3-9.1,15.5
	c-3.5,5.9-4.8,12.2-5.9,18.9c-0.8,4.5-3.6,14,2.2,16.9c8-3,16.3-5.3,24.7-7C220.6,344.2,222.1,342.6,221.8,339.9z"/>
<path class="st39" d="M698.9,270.3c-0.1-1.1-1.6-2.1-2.4-2.8s-10.9-8.5-11.9-4.4c-0.7,2.7,3.9,2.7,2.8,5.8c-3-0.4-6.5-1.6-9.5-2.4
	c-5.5-1.3-17.4-0.5-11.8,6.7c3.3,4.3,9.4,5.8,14.5,6.8c3.1,0.6,12.7,3.5,14-0.8c0.7-2.4-4-6.6-1-8.3c1-0.6,3.6,1.8,5,0.4
	C698.7,271.1,698.9,270.7,698.9,270.3z"/>
<path class="st39" d="M707.2,259.5c2.5,0.3,4.6,1.5,6.9,1.9c-3-4.3-8.6-5.9-13-8.2c-4.6-2.4-12.9-3.3-7.6,3.8
	c-10,0.3,1.4,3.9,4.1,5.6c2.3,1.5,3.9,2.6,5.1,0.2c0.5-1.1-0.6-2,0.5-3C704.1,258.9,706.1,259.4,707.2,259.5z"/>
<path class="st39" d="M732.9,294.6c-0.6-0.4-9.7-5.3-9.8-4.4c-0.2,1.7,1.2,3,1.8,4.4c-1.9,0.3-4-0.2-5.9,0c3.1,3.6,6.7,6.8,10.7,9.5
	c1.4,0.9,5.2,3.6,7,3c2.4-0.7,0.6-1.5,0.2-3.4c0.1,0.4,5.4-0.4,5.8-0.6C741.3,299.4,736.1,296.6,732.9,294.6z"/>
<path class="st39" d="M748,291.8c2.9-0.1,5.3,4.7,7.8,1.1c-0.4-3-3-5.1-5.1-7c-3.5-3.1-4.5-1.9-7.5,0.9s-3.7,0.9-6.9-0.6
	c-0.8-0.4-4.4-0.6-4.8,0.5c-0.5,1.2,2.4,3.2,3.1,3.8c1.9,1.6,4,3.1,6.1,4.5c1.4,0.9,3.8,1.5,4.9,2.7c0.1,0.1-0.5-3.5-0.5-3.6
	C745.6,292.3,746.4,291.8,748,291.8z"/>
<path class="st39" d="M755.9,279.5c3.1,1.5,5.7,4.1,7.2,7.2c1.5,3.6-1.7,0.5-2.9-0.2c-1.5-0.9-2.9-0.2-2.5,1.6
	c-2.5-0.4-4.8-2.7-6.1-4.7c-0.7-1.2-1.5-3.8,0.9-2.5c-0.4-0.2,0.2-2.2,0.6-2.4C753.8,278.2,755.3,279.2,755.9,279.5z"/>
<path class="st39" d="M755,329.4c-1.3-0.1-2.3-1.5-3.3-2.2c0.3,0.6,0.2,1.7-0.8,1.6s-1.7-2.1-2.1-2.7c-0.6-1.1-2.5-4.2-0.4-4.9
	c1.4-0.5,2.5,2.5,4,2.6c1.8,0.1,2.9-1,3.7,1.4C756.8,326.5,757.1,329.6,755,329.4z"/>
<path class="st39" d="M766.7,325.4c0-0.4,0-0.7,0-0.9c1.5,1.5,3.5,2.5,3.1-0.5c-0.2-1.5-0.6-3.5-2.2-4.1c-2.6-1-1,1.8-1.8,2.5
	s-1.3-0.4-1.8-0.8c-0.3-0.3-2.4-1.5-2.4-0.5c0,2-1.6,0.1-2.2-0.1c-2-0.7-1.7,2.8-1.5,3.6c0.1,1.1,0.3,2.2,0.8,3.2
	c0.2,0.2,2.2,2.1,2.4,1.7c0.8-1.7-0.6-2.4-0.9-3.9c-0.2-1,0.2-2.2,1.4-2.1c1.8,0.2,2.6,3.3,3.3,4.6
	C766.7,331.4,766.8,327.5,766.7,325.4z"/>
<path class="st39" d="M775.2,317.2c-1.7,0-3.3,1.1-3.8,2.7c-0.4,1.6,0.6,4.9,2.5,5.3c2.2,0.4,1.7-2.6,3.3-3c1.9-0.4,3.3,2.3,4.8,2.9
	c1.7,0.6,4-0.5,2.7-2.4c0.5-1.1,1.9-1.1,2.3-2c0.6-1.3-2.1-3.9-3.4-3.8c-1.5,0.1-2.2,1.6-3.4,2c-1.7,0.6-2.1-0.7-3.4-1.4
	C776.3,317.3,775.8,317.2,775.2,317.2z"/>
<path class="st40" d="M284.5,258.6c2.3-0.4,4.4-2.5,6.6-3.4c3.2-1.2,6.6-2,9.9-3c3-0.9,6.4-2,9.6-2c-1.2,0.9-3.9,2.4-1.9,3.2
	c1,0.4,3.5-0.2,4.1,1.1c0.8,1.8-4.4,3.1-5.7,3.6c-1.1,0.4-2.1,0.9-3,1.6c-0.8,0.7-0.6,1.2-1,2c-1,1.9-4.7,1.5-7,1.6
	c-1.7,0.1-5.6,0.6-7-0.5c-0.9-0.7,0.8-2.9-0.2-3.2s-4.1,1.9-4.1-0.7"/>
<path class="st40" d="M304.1,266.5c1.4-0.6,4.6-2.7,6.1-2.1c1,0.4,0.7,1.2,1.9,1.4s2.5-0.6,3.6-1s3.8-0.6,4.2,0.6
	c0.1,0.4-1.7,3.1-2.1,3.4c-1.1,0.8-3.1-0.2-4.2,0.7c-2.2,1.6,2.4,2.2,2.9,2.8c1.4,1.7-7.4,1.5-8.3,1.6c-2,0.2-3.7,0.8-5.6,1.1
	s-4.4,1.9-6.5,1.3c-1.3-0.4-2.7-2.5-2.3-3.7s3.4-0.6,2.5-2.4c-0.4-0.7-2.4-1.6-0.5-2.2c1.1-0.3,2.5,0,3.7-0.2
	C301,267.6,302.6,267.2,304.1,266.5z"/>
<path class="st40" d="M304.2,281.8c-0.8,0.2-1.7,0.1-2.4-0.4c-1.2-1.2,0.7-2,1.4-2.5c1.4-1.1,3.1-1.7,4.9-1.8
	c1.3,0.1,2.6,0.2,3.9,0.5c2,0.3,3.3-0.5,5.2-1.1c0.9-0.3,1.3-0.1,0.8,0.8c-0.7,0.9-1.7,1.5-2.9,1.8c-0.3,0.1-0.5,0.2-0.8,0.3
	c-0.1,0.1-0.2,0.3-0.3,0.4c-0.4,0.4-0.9,0.8-1.4,1c-1.3,0.5-2.8,0.2-4.2,0.1c-1.3,0.1-2.7,0.3-4,0.6L304.2,281.8z"/>
<path class="st40" d="M241,280.6c3,0.3,3.5,3.8,0.8,4.9c-0.6,0.2-1.2,0.5-1.7,0.9c-0.4,0.7-0.8,1.4-1.3,1.9
	c-1.4,1.1-2.5-0.6-3.8,0.1c-0.6,0.3-0.5,1-0.7,1.6c-0.4,1.1-1.4,1.9-2.5,2.2c-0.8,0.3-1.9,0.6-2.1-0.5c0-0.9,0.1-1.8,0.2-2.7
	c-1.4-0.8-3.8,2.4-4.6,3.4c-0.3,0.4-1.5,2-2.1,1.6s1.3-5,1.6-5.6c0.8-2,2.1-3.7,3.8-5.1c2-1.6,3.8-3.4,5.9-4.7
	c3.4-2.2,0.3,1.3,1.8,2.1C237.5,281.4,239.7,280.5,241,280.6z"/>
<path class="st40" d="M251.4,286.6c0.9,0.1,0.8,0.8,0.7,1.4c0,0.8-0.1,1.6-0.4,2.3c-0.6,0.7-1.2,1.4-2,1.9c-0.4-0.1-0.1-0.6-0.3-0.9
	c-1-1-3,3.7-3.4,4.2c-1.4,2-3.4,3.6-5.7,4.5c-0.4,0.2-1.8,0.8-2.1,0.3s0.3-1.3,0.6-1.6c1.2-1.6,2.3-3.3,3.3-5.1
	c-1.4-0.6-2.9,0.9-4.1,1.6s-1.9,2.5-3.2,2.3s1.1-3.1,1.6-3.5c1.1-1.1,2.3-2,3.6-2.8c0.2-0.2,0.6-0.2,0.9-0.1c1.8,0,2.3-1.8,3.7-2.6
	c0.8-0.4,1.7,0.4,2.5,0.2c1.1-0.4,2.1-0.9,3.1-1.5C250.4,286.9,250.9,286.7,251.4,286.6z"/>
<path class="st40" d="M197.6,332.1c-1-3.3,1.6-8.1,2.9-10.8c0.7-1.5,2.2-8.3,4.7-7.5c1.6,0.5,1.4,5.7,4.2,4.2
	c1.4-0.8,0.6-3.1,1.8-4.2c0.9-0.9,5.9-0.7,7.1-0.5c2.7,0.5,2.7,2.8,2.5,5.3c-0.3,4.7-1.4,9.3-3.4,13.6c-0.8,1.7-2.5,4.6-4.4,2.4
	c-1-1.1,0.1-3.7-1.8-4.8c-2.1-1.2-3,1.4-3.4,3.1c-0.4,1.3-0.9,4.2-2.3,4.8c-2.3,0.9-1.6-3.9-2.6-4.5
	C201.1,331.9,198.7,335.6,197.6,332.1z"/>
<path class="st40" d="M234,324.1c-0.1,0.3-0.3,0.6-0.6,0.8c-2.1,2.1-7.1,2.8-6,7.3c0.6,2.2-0.1,4-1.9,4.8s-2.7-0.8-2.7-2.7
	c-0.1-6.1,2.6-12.2,5.1-17c0.7-1.4,1.5-2.8,3-3.4c2.8-1.1,4,2.1,3.8,4.1S234.8,322.4,234,324.1z"/>
</svg>
