<?xml version="1.0" encoding="utf-8"?>
<!-- Generator: Adobe Illustrator 19.2.0, SVG Export Plug-In . SVG Version: 6.00 Build 0)  -->
<svg version="1.1" id="Layer_1" xmlns="http://www.w3.org/2000/svg" xmlns:xlink="http://www.w3.org/1999/xlink" x="0px" y="0px"
	 viewBox="0 0 995 724" style="enable-background:new 0 0 995 724;" xml:space="preserve">
<style type="text/css">
	.st0{display:none;}
	.st1{display:inline;fill:none;stroke:#000000;stroke-miterlimit:10;}
	.st2{fill:#D0962E;}
	.st3{fill:#381D14;}
	.st4{fill:#603527;}
	.st5{fill:#A05D40;}
	.st6{fill:#854734;}
	.st7{fill:#683829;}
	.st8{fill:#F05622;}
	.st9{fill:#EF6C33;}
	.st10{fill:#ED8433;}
	.st11{fill:#914F38;}
	.st12{fill:#4F271B;}
	.st13{display:none;fill:#A05D40;}
	.st14{display:inline;}
	.st15{fill:#204746;}
	.st16{fill:#3D9191;}
	.st17{fill:#57BFC4;}
	.st18{display:none;fill:#A9DDE4;}
	.st19{fill:#A9DDE4;}
	.st20{fill:#EAF5F4;}
</style>
<g id="Layer_1_1_" class="st0">
	<line class="st1" x1="4.7" y1="561.7" x2="1003.3" y2="561.7"/>
</g>
<g id="Layer_4">
	<path class="st2" d="M43.6,533.3c21.6-5.7,47.2-7.2,70.1-10.1c20.7-2.7,41.5-1.1,62.3-3.7c38.3-4.8,76.2-12,114.7-15.8
		c55.3-5.5,111.5-6.2,167-9.3c49.7-2.8,98-10.6,148-10.6c48.1,0,96.4,1.6,144.4,1.5c35-0.1,72-4.9,106.6,0
		c27.9,3.9,66.4,17.2,138.4,74.7c-18.3,22.4-21.9,46.3-48,58c-12.2,5.5-21.1,19.3-33.7,23.1c-6.5,2-13.2,1-20,4
		c-7.1,3.2-13.6,7.8-20,12.1c-14.4,9.6-30.2,14.1-47.2,15.8c-2.5,0.3-9.8,1.1-12,0c-2.9-1.4-1.4-5.5-4.2-7
		c-6.1-3.4-14.9-2.3-21.8-1.2c-23.1,3.7-44.2,18.2-67.8,19.3c-22.3,1-41.6,7.3-63.1,13.6c-48.8,14.3-98.7,26.4-149.8,26.4
		c-31.8,0-63.4-5.5-94-13.8c-28.2-7.6-56.2-22.8-85.2-26.2c-42.4-4.9-82.1-19.1-122-29.2c-9-2.3-19.5-6.8-27.8-0.8
		c-4.9,3.6-2.8,7.1-9.2,9c-5.3,1.6-10.6-1.6-15.4-3c-23.3-7-45.6-16.1-69.2-22.2c-17.7-4.5-38.7-15.7-52.4-28.2
		C20.5,599.2,17.4,617,0,564c6.3-6.9,21.7-12,28-14.3C39.8,545.4,31.3,536.6,43.6,533.3z"/>
</g>
<g id="Layer_2">
	<path class="st3" d="M496,473.3c14.2,8.1,35.4,18.7,48.4,4.1c6.8-7.7,3.9-13.5,14.8-20.3c8.3-5.2,18.2-8.1,27.4-11.5
		c23.9-8.8,52.2-18.5,78-21.1c44.9-4.5,88.5,8.2,132.2,15.7c17.3,3,36.1-0.6,52.3,2.6c18.5,3.6,30.7,23.1,49.3,27.9
		c26.2,6.7,48.1,20,67.6,39.9c1.1-11.2-5.1-19.3-4.6-31c0.6-12.6,1.5-19.6-1.6-33c-5.4-23.7-7.6-47.6-13.3-71
		c-4.7-19.4,3.5-39-3.1-58c-6.4-18.4-11.5-38-18.3-55.2c-6.8-17.1-14.7-26.1-23.3-40c-6.4-10.3-7.6-25.5-11.4-36.9
		c-9.2-27.5-24.9-46-51.5-21.9c-11.4,10.4-21,21.1-30.1,33.6c-8,10.9-17.4,17.5-27.3,27.4c-27.6,27.5-49,77.3-90,85.5
		c-24.7,5-65.2-18.8-81-36.3c-12.7-14.1-9.5-21-0.8-36.5c11.9-21.4,23.1-43.1,22.2-68.3c-0.5-14.2,0-33.4-12.7-42.9
		c-6.3-4.7-14.9-6.5-21.5-11c-8.7-5.9-16.3-13.1-24.1-20.1c-8-7.1-14.4-18.1-26.3-16.1c-10.8,1.8-15.7,12.5-19.7,21.4
		c-5.5,12.2-11.4,24.4-16.9,36.6c-8.1,17.9-8.7,37.9-16.9,55.4c-7.8,16.6-3.6,34.4-7.1,52c-5.1,25.7-12.6,51-17.6,76.7
		c-3.2,16.9,1.4,32.9,4.6,49.2c2.8,14.5,1.8,26.5,2.2,41c0.4,12.5,4.2,24.6,4.8,37.1C481.4,459.8,485,467,496,473.3z"/>
	<path class="st4" d="M521.2,525.3c-8.5-8.3-11.4-18.8-20.5-26.4c-7.8-6.5-17.4-10.7-23.9-18.6c-8.8-10.7,1.3-29.4,3.7-40.8
		c3.5-16.2,6.2-33,9.5-49.4c5-25.3,20.3-44.5,37.4-62.9c19.3-20.7,19.1-50.2,30.8-75.1c7.2-15.4,14.6-31.4,16.8-48
		c2.7-20.3,0.2-40.1,4.9-60c2.8-12,6.1-23.8,12-35c18.1-34.8,37.3-71.2,68.8-96c6.5-5.1,11.6-12.6,20.2-13c8.2-0.4,18.9,5.6,25.2,10
		c13,8.9,26,18.6,37.5,29.3c14.4,13.4,31.1,20,36.2,40.8c6.7,27.3,30.3,42.2,41.8,66.2c12.7,26.6,12.7,58.2,33.3,80.9
		c12.3,13.6,23.4,25.4,33.6,40.2c12.1,17.5,19.2,22.6,20.8,44.7c1.2,16.6,0.4,35.5,9.7,50.1c9.9,15.5,23.5,20.8,24.8,41
		c1,16.9-2.8,32.3-2,49c0.8,16.7,10.2,27.6,16.3,41.9c6.5,15.5,16.5,38.6,9.5,55.9c-9,2-18.5,0.1-27.8,1.2c-7.9,0.9-14.7,3.1-23,4
		c-9.5,1.1-18.3,3.3-28.3,3c-15.2-0.5-29.9-5.4-45.2-6.8c-73.3-6.5-148.9-14.3-222.5-11.2C588.1,541.4,547.2,550.6,521.2,525.3z"/>
	<path class="st5" d="M877.5,347.5c-3.4,8-0.1,15.2-7.6,21.9c-3.5,3.1-7.6,4.7-11.5,7c-5.6,3.3-2.7,7.3-7.2,10.6
		c-4.5,3.4-11.9,5.6-18.1,7.6c4.6,2.3,9,4.8,12.3,8.8c11.9,14.3,9.2,34.5,14.7,51.1c6.7,19.9,22.2,37.4,33.2,55
		c9.3,14.9,13.2,37.8,23.5,50.9L995,560c-9-12.2-17.6-23.8-25-37c-4.8-8.6-4.9-16.5-7.8-25.3c-6.1-18.5-27-29.8-32-48.8
		c-2.1-8,0.9-16.7,2-24c1.6-10.9-2.2-14.8-7.2-24c-6.4-11.7-11.8-30.3-22-39c-5.5-4.7-12.4-4.8-17.2-10.9c-2-2.6-3.3-5.6-4.2-8.7
		C880,343.9,878.4,345.3,877.5,347.5z"/>
	<path class="st6" d="M850.9,329c-9.7,18.7-17,41-27,61.5c3.3,1.9,6.8,3.4,10.2,5.1c6.2-2,13.5-4.2,18.1-7.6
		c4.5-3.4,1.7-7.3,7.2-10.6c4-2.3,8-3.9,11.5-7c7.5-6.7,4.2-13.9,7.6-21.9c0.9-2.2,2.5-3.7,4.1-5.2c-1.3-4.5-2-9.2-3.6-13.3
		C871.6,310.1,858.7,313.8,850.9,329z"/>
	<path class="st6" d="M894.3,510.5c-11-17.3-26.5-34.4-33.2-54c-5.6-16.2,1.8-37.4-10.1-51.5c-3.3-3.9-4.4-11.9-9-14.2
		c-3.4-1.6-7.8-11.7-11-13.5c-1.5,3-10.1,21.4-11.7,24.2c-6.1,10.9-13.2,20.9-22.3,29.1c-7.6,6.9-14.4,11.3-19.8,20.6
		c-5.5,9.5-3,19.5-5.2,29.7c-3.3,15.5-8.9,31.7-16,45.9c-5.5,11-20.3,23.3-23,34.4l184.8-0.7C907.5,547.5,903.6,525.1,894.3,510.5z"
		/>
	<path class="st7" d="M602,248c-0.9-5.7-3.4-11.4,0.2-16.5c3.1-4.4,8.7-6.7,12.8-10c6.1-5,15.8-10.4,23.9-10.6c9-0.2,9.8,7,16.1,8.9
		c6.1,1.8,5.9-0.9,11.2-4.5c16.8-11.3,31-7.8,47.8,0.6c9.4,4.8,41.9,6.9,32.9,26c-4.5,9.4-15.9,12.9-18.9,23
		c-3.3,11.2-9.8,20.6-21.5,25.5c-16.4,6.9-31.9,14.9-50.1,12.9c-12-1.3-21.5-5.4-29.8-14.4c-3.9-4.2-8.5-7-12.1-11.5
		C608.1,269.5,603.5,258.1,602,248z"/>
	<path class="st8" d="M618,239c-3.8-8.5-2.5-29.9-2-39.8c0.4-8.5,0.9-21.6,4.2-29.2c4.6-10.6,5.7-22.1,4.9-33.5
		c-0.4-5.3-2.3-11.1-2-16.4c0.2-3.2,1.3-6.2,1.3-9.5c0-7.6-2.7-15.3-1.6-22.9c1.1-6.9,4.9-10.8,3.3-18.5c6.3,5.4,11.4,18.1,16.6,3.3
		c3.5-9.8,4.3-23.8,1.7-33.8c2.8,1.6,2.5,6,3.6,8.8c2.4,6.2,11.3,13.1,14.4,4c2.4-7.1-0.2-15,1.7-22.4c0.8-3,8.1-14.7,3.1-17.2
		c5.8,2.8,2.3,7.4,3.3,12c0.8,3.7,3.9,7.5,5.3,11.4c1.7,4.5,5.6,18.6,11.9,10.4c3.1-4,3.8-10.1,7.1-13.7c2.3-2.6,5.6-1.2,7.8-3.4
		c2.2-2.1,3.1-9.1,0.5-11.1c7.9,4.8,4.8,15.2,3.7,22.4c-0.8,5.8,2.9,30.1,11.5,30.3c4.1,0.1,6.9-6.9,7.5-10.1
		c1.6,3.9,3.4,7.2,4.1,11.3c0.9,5.4-0.9,6.7-2.9,11.5c-3.5,8.7,4.7,14.6-0.2,22.5c-2.6,4.2-4,5.9-3,11c0.4,2.3,2.1,8.4,4.1,9.4
		c4.6,2.3,5.1-2.8,7.6-4.4c2.4-1.5,7.7,1.3,8.5-3.5c1,6-2.9,9-7,13.1c-5.7,5.7-7.8,13.2-8.9,20.9c-1.3,8.8,1.9,16.8-0.2,25.6
		c-2,8.6-7.1,17-7,26.4c0,6.1,3.6,12.3,4,18c0.6,7.3-3.4,10-5.3,16.7c-2.5,9-5.2,17.4-6.7,26.4c-1.3,7.3-1.1,15.2-8.7,19.1
		c-5.4,2.8-10.2-0.8-16.3-1.2c-15.1-1-26.9,4.6-42-1c-11.6-4.3-17.3-10.7-23.3-21c-7.6-13.1-4.2-15.9-1.7-29.1"/>
	<path class="st9" d="M707,164.9c2.5,8.1,4.9,15.6,5.8,24.6c2.5,24.1-0.1,48.5-14.7,68.6c-13.1,18-39,23.9-57.2,10
		c-10.5-8-8.6-13.3-7.8-24.7c1-14.4-1-28.4,2.4-42.6c5.5-22.8,15.2-42.9,22.3-64.9c2.2-6.8,3.4-18.7,10.1-21.7
		c1.6,14.8,6.2,29.6,8.4,43.8c8.9-10.4,7.4-36.8,10-50.6c5.2,10.9,1,32.9,8.8,41.3c1.9-6.9,0.6-14.6,2.1-21.6
		c-0.5,2.4,4.2,11.1,5,14c1.5,6.2,1.5,12.8,3.3,18.9C706,161.7,706.5,163.3,707,164.9z"/>
	<path class="st10" d="M641,255.5c-2.3-4.6-0.7-15.6,1.1-20.5c2.4-6.4,5.9-5.7,10.3-9.9c4.8-4.7,7.8-17.5,7.7-24.1
		c9.1-1.6,10.9,7.3,13.8,13.4c0.6,1.3,2.1,2.1,2.6,3.5c0.5,1.4-0.3,4.5,1,5.5c3.1,2.5,4.8-4.3,6.4-6.5c0.2,15,4.9,33.7-7.9,45
		c-6.6,5.8-13.1,6.8-21,3.9c-2.8-1-6.4-2.3-8.6-4.3c-2.2-1.8-2.9-4.5-4.9-6.1"/>
	<path class="st11" d="M880.7,509.3c-11-17.6-26.5-35.1-33.2-55c-5.6-16.5-2.8-36.7-14.7-51.1c-7.8-9.4-21.8-10.7-29.9-19.5
		c-9.4-10.1-6.9-24-12-36.2c-3-7.2-7.6-13.7-10.8-21.4c-7.2-17.2-12.2-34.8-18.5-51.7c-2.2-5.8-3.9-19.3-7.3-29.8
		c-4,5.9-9.1,11-12.5,17.3c-3.5,6.6-6.2,13-10.6,19.1c-4.3,6-10,10.5-13.6,16.8c-4.8,8.3-12.5,13.5-17.4,21.6
		c-4.7,7.7-11.2,10.5-13.6,19.6c-2.7,10.3-5.4,20.2-10.3,29.9c-3.9,7.9-6.4,16.1-13,22.1c-8.6,7.9-15.9,18.2-28.1,19.9
		c-11.5,1.6-19.6,6.5-30.1,11.5c-4.9,2.3-9.7,5.1-14.9,6c-2,0.4-4.6,0-6.6,0.6c-2.6,0.8-4.4,3.4-6.9,4.5c-5,2.5-7.4-0.3-12-0.1
		c-4.4,0.2-6.8,4.4-10.1,6.5c-4.3,2.7-9.8,2.7-14.4,4.6c-5.6,2.4-10.1,6.3-16,7.4c-4,0.7-8,1.9-12,2.5c-2.8,0.4-5.7,0-8.5,0.4
		c-5,0.6-11.6,3.2-16.7,2c-1.2-0.3-2.2-0.7-3.1-1.3c-2.2,7.3-4.4,14.6-7.1,21.9c-10.7,29-23.7,61-45,83.5l474.3,1.3
		C894.2,549.7,890.5,525.1,880.7,509.3z"/>
	<path class="st6" d="M503.5,452.9c2.8-0.4,5.7,0,8.5-0.4c4-0.6,8-1.8,12-2.5c5.9-1.1,10.4-5,16-7.4c4.6-1.9,10.1-1.9,14.4-4.6
		c3.3-2.1,5.7-6.4,10.1-6.5c4.7-0.2,7,2.6,12,0.1c2.4-1.2,4.2-3.8,6.9-4.5c2-0.6,4.6-0.2,6.6-0.6c5.2-0.9,10-3.7,14.9-6
		c10.5-5,18.6-9.9,30.1-11.5c12.2-1.7,19.5-12,28.1-19.9c6.6-6,9.1-14.3,13-22.1c4.9-9.7,7.6-19.6,10.3-29.9
		c2.4-9.1,8.9-11.9,13.6-19.6c4.9-8.1,12.5-13.3,17.4-21.6c3.6-6.3,9.4-10.8,13.6-16.8c4.4-6.1,7.1-12.5,10.6-19.1
		c3.3-6.3,8.5-11.5,12.5-17.3c-2.2-6.7-5.1-12.2-9.3-13.8c-5.5-2.2-28.4,9.7-33.3,13.9c-8.4,7.1-5.2,21.2-7,32.2
		c-8.6-1.9-11.4-17.2-15.7-24.5c-6.7-11.2-9.4-11-21.9-10.4c-11.5,0.5-24.1,0.9-35.1-1.4c-12.3-2.5-21.8-12.9-32.1-2.5
		c-7.6,7.7-14.3,35-16.9,45.7c-4.9,20.3-15.2,35.9-21.7,55.1c-4,11.8-2.5,17.7-11.8,27.6c-9.4,10.2-18.8,11.7-29.6,17.7
		c-10.1,5.6-13.7,14.7-19,25.1c-7.8,14.9-12.2,30.5-16.8,46.1c0.9,0.6,1.9,1,3.1,1.3C492,456.2,498.5,453.6,503.5,452.9z"/>
	<path class="st9" d="M621.5,235c-7.2,2.6-3.8,12.2-2.9,16.9c1.2,6.3-3.9,14.4-6.1,20.6c-2.3,6.7-5.7,12.7-8,19.5
		c-2.5,7.4-1.7,16.6-2,24.3c-0.1-5,2.9-9,4.8-13.3c2.1-4.7,2.3-10.1,3.1-14.9c1.5,0,2.3,1,3.2,2.3c2.1,3,2.6,6.6,4.9,9.3
		c2.3,2.7,5.3,4.6,7.5,7.6c5.5,7.6,10.3,21.7,9,31.2c-1.1,7.8-6,14.1-10.7,20.1c-1,1.3-9.8,11.9-5.8,12.4
		c10.4,1.4,8.9-25.5,21.5-21.5c3.6,1.1,3.7,11.9,8.5,6c3.3-4,0.1-6.7-2.6-9.9c-2.1-2.5-4.7-5.1-5.9-8.1c-2.5-6.6-2.9-14.2-5.4-21.1
		c-2.2-6.2-4.7-11.6-8.6-17c-3.7-5.1-11.5-11.2-11.4-18.1c0.1-7,6.7-14.2,7.4-21.8c0.5-5.3-3-17.5,2.9-19.6c1.7-3.2-2.3-5.9-5.4-5.4
		"/>
	<path class="st9" d="M712.3,292.7c0.5,1.4,0.7,2.8,1.1,4.2c1,3.6,2.7,7,3.7,10.6c0.9,3.2,1.3,6.6,2.4,9.7
		c3.6,9.5,12.1,17.2,14.6,26.8c1.1,4,0.6,8.1,1.5,12c0.8,3.7,5.5,6.4,4.8,10.4c-6.3-1.5-6.5-9.3-7.8-14.4c-1.1-4.4-2.7-8.9-3.9-13.2
		c-6.7,2.5-10.3,10.6-14,16.3c-4,6.1-9.1,11.9-9,19.3c0,7,7.5,12.9,4,20.1c-1.5,3.1-4.8,6-6.7,8.9c-1.7,2.6-3.2,7.7-5.9,9.2
		c-4.3-4.6,5.9-13.5,7.9-17.7c4.3-8.8-2.3-12.7-1.9-21.4c0.4-9.3,5.8-17.2,11.5-24.6c4-5.2,10-11.3,8.6-18.5c-1.1-5.8-5.1-12.1-7-18
		c-2.4-7.5-5.4-14.8-8.2-22.3c-1.2-3.2-2.8-6.2-4.1-9.4c-0.6-1.5-0.9-3-1.4-4.5c-0.4-1.2-1.7-2.3-1.9-3.6c-0.1-0.8,4.1,1.8,4.5,2.4
		c1.3,1.8,1.5,4.3,2.6,6.2c1.8,3.3,2.9,6.6,4,10.1C712,291.9,712.2,292.3,712.3,292.7z"/>
	<path class="st10" d="M600.2,318.9c-3.3-3.1,0.4-10,1.6-13.2c0.5-1.2,1.3-5.9,3.1-3.6c0.7,0.8,0.4,3.6,0.5,4.7
		c0.4,3.4,1,6.9,0,10.2C604.5,320,602.7,321.3,600.2,318.9z"/>
	<path class="st10" d="M625.9,361.8c0.1-1.3-0.2-2.3-1.5-1.8c-0.6,0.3-1.7,2.1-2.4,2.5c-1.4,1.1-2.9,1.6-3.7,3.1
		c-0.8,1.5-1,3.7-1,5.4c0,3,3.6,5,5.8,2.6c2-2.2,1.7-6,2.2-8.7C625.5,364.5,625.9,363.1,625.9,361.8z"/>
	<path class="st10" d="M648.1,360.9c2.3-2.6,4.3-8.5,1.3-11.2c-0.4-0.3-1-0.3-1.3-0.6c-0.4-0.3-0.6-1-1.1-1.3
		c-1.1-0.6-1.7-0.3-2.3,0.9c-1.6,3-1,5.8-0.4,9C644.6,359.6,645.7,363.6,648.1,360.9z"/>
	<path class="st10" d="M700,410.7c-0.5,2.7-2.5,4.1-4.5,1.8c-1.6-1.9-0.7-3.9,0.7-5.7c0.5-0.7,2.9-4.1,3.5-3.8
		C700.8,403.6,700.2,409.6,700,410.7z"/>
	<path class="st10" d="M737.5,366.4c0.9,1.5,3.2,3.6,3.9,1.2c0.7-2.5-1.1-5.3-3.3-6.3C734,359.2,736.4,364.6,737.5,366.4z"/>
	<path class="st12" d="M590.5,283.1c-1.1-1.2-1.9-2.4-2.2-3.4c-1.5-5.1,3.6-12.7,5.2-17.7c1.6-5,6.3-30.7,15.9-24.8
		c8.1,5,2.6,24.3,0.6,30.8c-1.3,4.2-3.9,18.5-8.4,20.3C598.6,289.6,593.5,286.4,590.5,283.1z"/>
	<path class="st6" d="M521,520c-8.1-15.7-11.4-26.7-20.2-42.1c-13.5-23.7-31.9-54.9-45-78.3c-3.7-6.6-15.3,2.3-19.3-4.2
		c-9.4-4.9-18.1-11.7-28-11.2c1.2,9.7-3,13.7,1.1,23.6c3.7,9.1,7.5,16.4,8.6,26.1c-15.3-2.1-33.1-14.2-47.8-20.6
		c-14.1-6.2-25.2-13.8-34.9-23.7c-0.4,0.6-0.8,1.1-1.3,1.7c-16.6,18.5-39.9,32.1-59.4,47.4c-19.1,15-30.7,35-42.8,55.6
		c-13.6,23.1-37.6,44.2-56.8,62.8c-1.4,1.3-3.2,3.6-5.2,6.1l381.3-2.2C546.2,546.7,528.1,533.8,521,520z"/>
	<path class="st12" d="M579.4,302.9c3.6-9.1,4.3-22.4,15.2-10.5c3,3.3,3.9,4.1,3.9,9.1c-0.1,6.7-8.9,15.7-5.8,20.9
		c2.6,4.3,12.1,6.4,16.2,3.5c2.5-1.8,3.6-6.2,4.5-9c0.6-1.8,1.2-2.9,1-4.9c-0.1-1-2.7-4.5-1.8-5.5c3.4-4.3,12.2,13.4,12.8,15.6
		c1.9,7.1-5.6,17.1-12,20.8c-10.7,6.1-19.7-3.5-30-4.7c-4.1-0.5-7,1.5-10.4-1.8c-3.6-3.5-2.9-9.3-1.1-13.5
		C574.6,316.6,576.8,309.4,579.4,302.9z"/>
	<path class="st12" d="M590,347.9c-9.1,0.9-13.7-7.8-22.1-8.5c-8.4-0.7-3.3,9.3-4.8,15c-0.8,2.9-4.9,9-3.3,11.7
		c3.5,6,19.2,3.1,23.7,0.9c1.8-0.9,3.3-2.3,5.5-2c2.5,0.4,2.9,3.4,6,3c2.9-0.3,10.7-9.1,11.4-12.5
		C608.4,345.7,595.4,347.4,590,347.9z"/>
	<path class="st12" d="M626,268c0,3.7,0.1,8.2-0.9,11.6c-1.4,5.1-2.3,3.3,1.2,7.5c4.2,4.9,7.6,10.4,14.9,8.1
		c5.2-1.6,10.1-4.3,9.2-10.2c-0.9-6.2-4.8-11.2,3-14.6c6.1-2.7,10.2-2.2,15.1,1.5c4.3,3.3,5.9,2.2,10.1,0.9c2.3-0.7,8-1.7,9.5-3.7
		c1.8-2.4-0.5-9.2-1.5-11.6c-1.8-4.3-4.1-8.1-8.6-8.5c-3.7-0.3-6.9,1.1-10.6,0.4c-2.5-0.5-5.1-1.6-8-1.9c-4.2-0.4-7.8-1.8-11.9-2.5
		c-3.4-0.6-7,0-10.5-0.5c-5.5-0.8-8.3-3.7-9.8,2.3C625.7,253.1,626,261.6,626,268z"/>
	<path class="st12" d="M641.4,312.7c2.1,4.4,2.2,13.3,7.1,15.7c4.8,2.4,13.5-2,17.5-4.4c7.6-4.6,6.1-12.3,2.7-19.5
		c-2-4.1-3.4-6.1-3.6-10.9c-0.2-4.4-0.1-7.2-1.9-11.1c-1.2-2.7-3.4-8.7-6.8-7.5c-3.3,1.1-3.1,7.9-2.7,10.5c0.6,4.3,3,7.5-1.5,10.2
		c-3.9,2.3-18.7,0.4-17.2,8C635.4,306.5,640,309.8,641.4,312.7z"/>
	<path class="st12" d="M696.4,281.2c-3.1-4-8-4.1-12.6-3.7c-2.7,0.2-12.2,0.3-14.2,1.9c-5.3,4.6,4.1,20,5.9,25.1
		c1.3,3.7,4.1,6.6,9,5.4c5.5-1.4,6.8-8.4,10.4-11.5c3-2.6,6.9-2,6.6-7.4C701.4,287.8,698.3,283.6,696.4,281.2z"/>
	<path class="st12" d="M560.9,374.7c4.4,1.1,9,1.3,13.4,0.3c3.4-0.8,7.7-4.1,9.3,1c1.8,5.6-8.4,12.4-11.9,15.3
		c-7.8,6.4-15.8,1.6-25.2,1.7c-6.4,0.1-11.1,2.4-17.1,4c-2.1,0.6-9.3,1.4-10.3-1.4c-1.7-4.4,11.9-9.4,14.4-10.5
		c4-1.7,8.4-3,12.1-5.5c6-4.1,4.8-8.2,12.8-5.6C559.3,374.3,560.1,374.5,560.9,374.7z"/>
	<path class="st12" d="M633.8,372.8c-2,2.1-5.8,4.2-8.3,5.6c-4.9,2.9-13.6,6.7-16.8-0.6c-2.1-4.8,4.5-15.5-5.5-11.3
		c-4.9,2-23.3,19.8-11.7,23c3,0.8,7.9-2.3,9.9-0.4c2.4,2.3-1.6,7.1,0.1,9.9c2,3.4,8.1,2,11,0.9c3.3-1.2,7.3-3.4,10-5.8
		c3.2-2.8,4.4-5.6,8.4-6.8c4.1-1.2,8.1,0.1,11.3-3.6c3-3.4,3.1-7.8,1.4-11.9c-0.7-1.7-2.8-6.8-5-6.3
		C636.5,366.1,635.4,371.2,633.8,372.8C633.9,372.8,633.9,372.8,633.8,372.8z"/>
	<path class="st12" d="M667.1,362.7c-3.8,3.6-9.1,9.1-14.8,7c-8.4-3.1-0.3-7.4,0.8-12c1.2-4.8-0.1-9.7,0-14.5
		c0-1.6,17.3-4.2,19.2-3.5C679.4,342.3,671.4,358.6,667.1,362.7z"/>
	<path class="st12" d="M670.3,333.3c3.7-2.5,0.6-4.9-5.9-3.9c-3.3,0.5-21.3,3.9-14.4,9.1c3.8,2.9,13.2-2.3,16.9-3.6
		C668.4,334.4,669.5,333.8,670.3,333.3z"/>
	<path class="st12" d="M712.6,265c4.7,0.7,7.7-8.2,10.4-10.8c3.5-3.3,8.1-5,7.1-11.1c-0.6-3.4-0.1-2.4-3.7-3.4
		c-2.4-0.7-4.2-0.9-6.5,0.2C713.7,243,708.8,259.1,712.6,265z"/>
	<path class="st12" d="M725,260.6c1.4-0.3-3.8,19.5-9.5,13.4C712.2,270.5,721.8,261.2,725,260.6z"/>
	<path class="st12" d="M509,405c-4.8,4.3-9.1,16.3-8,22.6c1.4,8.1,9.2,8.8,15.1,5.3c4.5-2.7,7.9-5.9,12.9-7.4
		c5.4-1.6,11.1-3.2,16.7-5c9.8-3.2,16.8-10.3,21.8-19c-6.3-3.5-12.1-0.2-18.4,0.9c-6.3,1.1-12.7,0.9-19,2.1
		c-3.3,0.6-27.2-4.3-22.5,6.5"/>
	<path class="st13" d="M905.2,560.3c-11.8-12.7-15.5-37.3-25.4-53c-11-17.6-26.5-35.1-33.2-55c-5.6-16.5-2.8-36.7-14.7-51.1
		c-7.8-9.4-21.8-10.7-29.9-19.5c-9.4-10.1-6.9-24-12-36.2c-3-7.2-7.6-13.7-10.8-21.4c-7.2-17.2-12.2-34.8-18.5-51.7
		c-3.6-9.6-5.8-39.3-16.7-43.6c-5.5-2.2-28.4,9.7-33.3,13.9c-8.4,7.1-5.2,21.2-7,32.3c-8.6-1.9-11.4-17.2-15.7-24.5
		c-6.7-11.2-9.4-11-21.9-10.4c-11.5,0.5-24.1,0.9-35.1-1.4c-12.3-2.5-21.8-12.9-32.1-2.5c-7.6,7.7-14.3,35-16.9,45.7
		c-4.9,20.3-15.2,35.9-21.7,55.1c-4,11.8-2.5,17.7-11.8,27.6c-9.4,10.2-18.8,11.7-29.6,17.7c-10.1,5.6-13.7,14.7-19,25.1
		c-11.4,21.9-15.5,45.2-24,68c-10.7,29-23.7,61-45,83.5L905.2,560.3z"/>
	<path class="st6" d="M732.6,309c2.7-2,5.2-4.6,6.5-6.2c2.3-2.9,7.4-6.3,6.4-10.2c-0.6-2.6-6.3-7.1-9-7.2c-4.4-0.1-10.7,3.7-11.8,8
		c-0.5,1.9,0.5,3.2-0.1,4.9c-0.6,1.6-3,3.2-3.8,5.1c-1.8,4.5,1.7,8.9,6.1,8.5C728.5,311.7,730.6,310.5,732.6,309z"/>
	<path class="st6" d="M695.1,345.2c4.6-0.7,9.9-3.4,13.1-5.9c4.3-3.4,5.5-9.6,3.9-15.3c-1-3.4-1.5-4.6-4.8-3.4
		c-1.1,0.4-2.8,3-4.3,3.7c-1.7,0.9-4,1.1-5.8,1.7c-10.1,3.1-6.2,11.8-5.3,19.5C692.9,345.5,694,345.4,695.1,345.2z"/>
	<path class="st6" d="M691.2,351.3c3.7-1.1,6.8-3.8,10.5-5c4.6-1.5,8.4,2.2,5.1,7c-1.7,2.5-9,4-11.8,4.3c-2.2,0.2-2.4,2.2-4.2-0.5
		c-1.4-2.1-0.2-4.3,1.4-5.9"/>
	<path class="st6" d="M737.5,281c3.1,1.6,7,6.6,11,5.5c3.7-1,5.7-7.7,2.9-10.4c-1.7-1.7-10.4-3.2-12-2.2c-3.7,2.2-3.4,9.2,1.1,9.6"
		/>
	<path class="st6" d="M685.3,376.9c3.9-7.9-5.8-3.4-8.3,0c-0.6,0.9-2.9,7-3.5,7C679.1,384.2,682.7,382.3,685.3,376.9z"/>
	<g class="st0">
		<g class="st14">
			<path id="XMLID_2_" class="st5" d="M996,561c-9-12.2-17.6-23.8-25-37c-4.8-8.6-4.9-16.5-7.8-25.3c-6.1-18.5-27-29.8-32-48.8
				c-2.1-8,0.9-16.7,2-24c1.6-10.9-2.2-14.8-7.2-24c-6.4-11.7-11.8-30.3-22-39c-5.5-4.7-12.4-4.8-17.2-10.9c-5-6.3-5.1-15-7.8-22
				c-7.4-19.9-20.3-16.2-28.2-1c-16.5,31.9-26.2,74.5-53.8,100.1c-7.6,7.1-14.4,11.5-19.8,20.9c-5.5,9.7-3,19.8-5.2,30.2
				c-3.3,15.8-8.9,32.2-16,46.8c-5.5,11.2-20.3,23.8-23,35L996,561z"/>
		</g>
	</g>
	<path class="st6" d="M873.6,374.1c-0.2,0.9-0.1,1.8,0.5,2.6c3.3,4.5,11.5-0.4,11.1-5.2C884.6,364.5,874.7,369.4,873.6,374.1z"/>
	<path class="st6" d="M866.5,384c6.2,2.6,7-7,1.2-5.7C864.8,379,863.4,382.7,866.5,384z"/>
	<path class="st6" d="M602.2,560.5c-1.2-2.2,0.8-8.8,1.1-11.4c0.8-5.6,1-10.7,2.9-16.2c3.3-9.6,6.3-16.4,15.5-20.5
		c12.2-5.5,12.4-20.8,18.9-31.5c5.2-8.6,12-14.9,18.6-21.4c4.5-4.3,9.5-3,14.5-5.9c4.2-2.5,5.4-6.3,10.1-8.2
		c2.8-1.2,9.9-3.4,12.4-2.4c2.9,1.2,6.6,6.6,9.4,8.7c6.8,5.1,18.8,12.7,18.1,22.4c-0.1,2-2.1,5.3-1.5,7c1.2,3.5,11.9,7.1,15.2,9.6
		c3.8,2.9,8.1,5.8,11.2,9.5c3.6,4.2,4.6,9.1,7,13.9c5.5,10.9,17,14.7,25.7,22.3c3.9,3.4,9.5,6.5,13,10c2.3,2.3,4.7,7.3,6.8,10
		c-3,0.2-6.4-0.8-9.3-1.4c1.4,0.1,0.7,1,1.3,1.5"/>
	<path class="st6" d="M612.3,554.5c-1.2-2.2,0.3-4.9,0.6-7.5c0.8-5.6,1-10.7,2.9-16.2c3.3-9.6,6.3-16.4,15.5-20.5
		c12.2-5.5,12.4-20.8,18.9-31.5c5.2-8.6,12-14.9,18.6-21.4c4.5-4.3,9.5-3,14.5-5.9c4.2-2.5,5.4-6.3,10.1-8.2
		c2.8-1.2,9.9-3.4,12.4-2.4c2.9,1.2,6.6,6.6,9.4,8.7c6.8,5.1,18.8,12.7,18.1,22.4c-0.1,2-2.1,5.3-1.5,7c1.2,3.5,11.9,7.1,15.2,9.6
		c3.8,2.9,8.1,5.8,11.2,9.5c3.6,4.2,4.6,9.1,7,13.9c5.5,10.9,17,14.7,25.7,22.3c3.9,3.4,9.5,6.5,13,10c2.3,2.3,8.4,14,10.5,16.7
		c-3,0.2-10-0.6-13.3-0.3c1.4,0.1,1.1-6.9,1.7-6.3"/>
	<path class="st5" d="M611.5,561c-1.2-2.2,0.3-4.9,0.6-7.5c0.8-5.6,1-10.7,2.9-16.2c3.3-9.6,6.3-16.4,15.5-20.5
		c12.2-5.5,12.4-20.8,18.9-31.5c5.2-8.6,12-14.9,18.6-21.4c4.5-4.3,9.5-3,14.5-5.9c4.2-2.5,5.4-6.3,10.1-8.2
		c2.8-1.2,9.9-3.4,12.4-2.4c2.9,1.2,6.6,6.6,9.4,8.7c6.8,5.1,18.8,12.7,18.1,22.4c-0.1,2-2.1,5.3-1.5,7c1.2,3.5,11.9,7.1,15.2,9.6
		c3.8,2.9,8.1,5.8,11.2,9.5c3.6,4.2,4.6,9.1,7,13.9c5.5,10.9,17,14.7,25.7,22.3c3.9,3.4,9.5,6.5,13,10c2.3,2.3,4.7,7.3,6.8,10"/>
	<path class="st6" d="M660.5,561c5.6-6,6.7-20.8,6.6-28.9c7-2.7,8.7-12,8.9-18.4c0.1,9.8-5.6,19.2-6.5,28.8
		c-0.4,4.3,0.6,22.5-7.5,18"/>
	<path class="st6" d="M716.5,558.5c3.1-1.1-1-14.5-0.9-17.5c0.2-4.7,2.9-12.7-0.4-17c4.1,6.6,2.1,13.6,3.3,21
		c1,6.7,5.1,12.4,10.5,15.4c-3.8,0.4-8.7,0.6-12.4,0c-0.1-0.8-0.3-2.1-0.1-2.9"/>
	<path class="st6" d="M868.3,559.4c-9.1-2.4-13.6-23.4-15.9-31.9c-0.6-2.3-1.6-4.6-2.1-6.7c4.1,0.6,6.5,4.8,8.2,8.1
		c2.2,4.1,4.2,6.7,8.3,9.2c1.8,1.1,2.6,2.9,4.2,4.3c0.8,0.8,1.2,1.3,2.3,1.4c2.6,0.3,0.3-0.7-0.2-1.5c-1.3-2.1-2-3.7-4-5.3
		c-2.1-1.7-4.7-3-6.3-5.2c-2.2-3-4.8-5.7-7.3-8.5c-2.4-2.7-4.9-5.2-6.8-8.3c-1.9-3-3.3-6.2-5.5-9c-4.7-6.1-10-11.6-12.8-18.1
		c-2.2-5-4.4-10.9-8.4-14.8c-3.9-3.7-7.7-7.4-9.1-12.9c2.2,5.1,5.5,9.1,8.1,13.8c2.3,4.2,3.2,9.3,5,13.7c2.8,6.4,6.5,11.6,10.8,17.2
		c4.2,5.5,9.7,11,12.6,17.4c3.4,7.3,2.7,15.3,6,22.5c2.2,4.8,7.2,18.8,14.5,15.5"/>
	<path class="st15" d="M482.3,414.6c0.7,7.1,1.6,13.6,3.4,20.5c2.5,9.1,0.2,12.1-5.8,19c-3.8,4.4-7.1,9.3-12.7,11.6
		c-16.3,6.7-33.5-2.7-49.6-5c-20.4-2.9-41-3-61.9-1.1c-42.4,3.8-81.8,26.9-124.1,27.1c-24,0.1-47.9,2.5-71.8,0.8
		c-24.9-1.7-48.9-10.5-74-11.3c-12.6-0.4-25.2,1.4-36.5,7.2c-11.2,5.8-26.4,20.9-30.5,33.1c-2,5.7-1.3,11.1-3.9,16.9
		C14.2,535,7,552,7,552.1c-5.1-5.1-2.8-14.8-3.5-21.2c-0.9-7.9-0.9-15.7-1.4-23.7c-1-15.1-1.4-30.3,0.5-45.4
		c2.5-20.1,7.6-38.9,11.7-58.8c3.8-18.7,5.9-38.5,8.9-57.4c2.8-17.2,8.5-31.2,13.2-48c4.7-16.6-1.7-41.8,21.9-38.1
		c16.7,2.6,27.1,20.3,43.8,22.8c14.9,2.2,36.3-7.6,43.3-21c10-19.5,8-51.1,14.8-73.2c7.1-23,13.7-47.7,20.9-70.2
		c12.1-0.6,29-21.4,35.5-31.4c8.5-13.1,16.8-25.1,25.8-37.9c5.9-8.5,13-24.6,24-25.5c9.3-0.7,28.8,12.1,35.9,18.3
		c17.7,15.5,28.4,39.5,45.5,56.4c16.1,15.9,32.4,29.3,47.6,46.8c28.7,32.9,60.2,93.2,64.5,138c2.3,23.7,10.5,43,11.6,66
		C472.6,372.8,480.1,391.5,482.3,414.6z"/>
	<path class="st16" d="M41,527.3c-23.3-11.2-10.4-40.9-4.8-58.9c6.7-21.7,12-43.6,20.1-64.9c8.6-22.5,13.9-45.4,21.5-68.2
		c2.7-8.3,7.7-16.5,9.1-25.2c1.3-8.2-0.6-16.8,0.2-25c2.9-32.5,1.9-63.8,13.3-95c2.2-6.1,14.4-33.1,20.2-35.6
		c17.3-7.6,26.9,21.3,33,30.9c4.5,7.1,13.2,12.6,17.3,20.1c3.6,6.5,3.7,15,6.6,22c31.6-7.1,1.6-36.8,6.9-53.8
		c4.3-13.9,8.2-28.6,15.4-41.4c7.6-13.4,20-19,27.8-32.3c3.7-6.2,8.9-23.3,15.3-26.8c9.8-5.4,23.3,8.5,31,16.5
		c5.2,5.4,9.9,9.5,14.5,15.5c14.9,19.3,29.1,38.2,45.8,56.3c16.7,18.1,17.7,32.3,22.8,54c4,16.9,15.3,32.4,24.2,47
		c11.4,18.7,18.8,36.4,25.2,57c4.5,14.4,16.1,24.3,24.8,36c7.5,10.1,12.1,22.6,18.7,33.2c5.5,8.9,12,17.1,17.9,25.7
		c3.3,4.8,6.7,10,8.9,15.5c1.9,4.6,5.7,7.3,7.8,11.7c1.8,3.7,1.1,8.2,1.3,12.3c0.3,5.9,1.1,11.1,0,17c-1.4,7.3,2.2,14,2.1,21.2
		c-0.1,6.8,2.5,13.5,1.6,20.4c-4-3.7-9.2-10.1-15.3-8.7c-6,1.4-8,7.9-13.8,10.1c-9.5,3.5-20.5,1.6-30.4,1.6
		c-16.9,0-33.7,0.2-50.5,0.8c-47.5,1.6-93.4,7.3-140.5,13c-39.8,4.8-79,8.5-118.8,11.3C95.9,542,63.1,538,41,527.3z"/>
	<path class="st6" d="M552.8,556.7c-4.3-8.6-1.5-23.3,4.9-30.3c6.6-7.3,13.7-11.5,18.1-20.8c3.3-7,5.4-14.6,8.5-21.7
		c-1.4,1.9-3.2,3.7-4.2,5.8c-1.4,2.8-2.6,9.2-6,9.4c-0.3-10.1,5.8-20.3,6-30.8c-0.1,3.4-3,8.5-3.9,11.9c-1.2,4.8-2.1,9.6-3.1,14.4
		c-1.8,8.7-3.4,14.3-11,19.6c-14.6,10.2-16.6,32.6-27.1,46.6l20.3,0.1C554.6,559.5,553.5,558.2,552.8,556.7z"/>
</g>
<g id="Layer_3">
	<path class="st17" d="M145,557.1c19.2-18.5,43.2-39.6,56.8-62.8c12.1-20.6,23.7-40.6,42.8-55.6c19.5-15.3,42.8-28.9,59.4-47.4
		c12.9-14.4-4.1-54.5-7.9-73.3c-3.6-18-7.5-48.3-19.1-63.3c-6.9,3.4-13.2,10.6-17.3,15.4c-14,16.3-21.6,37.4-36.8,52.7
		c-14.4,14.6-25.1,30.2-37.8,46.2c-5.4,6.8-11,16-19,20.5c-0.7,1.6-1.3,3.3-1.8,5.1c-2.7,10.5,1.7,20.9-0.2,31.3
		c-3.6,19.4-23.7,40.8-33,58c-7.5,13.9-19,33.8-22,49c-1.9,9.6,3,17.6,4.7,26.7c0.2,1.1,0.2,2.3,0.3,3.7l25.8-0.1
		C141.8,560.7,143.6,558.4,145,557.1z"/>
	<path class="st18" d="M0,562c-0.9-0.3,21.5-66.4,26-73.9c11.5-19.4,25.1-37.3,36-57.1c9.4-17,22.8-35.9,38.3-47.8
		c10.6-8.2,21.9-8.5,33.8-3.3c9.9,4.3,15.8,13.4,27.8,9.5c10.3-3.3,16.8-14.4,23.1-22.4c12.7-15.9,23.4-31.6,37.8-46.2
		c15.2-15.4,22.8-36.4,36.8-52.7c5.7-6.6,15.8-18,25.5-17.3c10.9,0.8,17.1,15.4,22.9,23.2c6.9,9.3,14.7,16.5,22.9,24.8
		c14.5,14.6,32.8,28.9,43.8,46.2c14.4,22.5,29.9,44.8,43,68.1c13.1,23.4,40.9,33.3,54.4,57c8.8,15.4,16.8,31.2,24.9,47
		c7.1,13.7,18.7,27.7,23.9,42L0,562z"/>
	<path class="st19" d="M497.1,519c-8.1-15.7-16.1-31.6-24.9-47c-13.5-23.7-41.4-33.6-54.4-57c-3.7-6.6-7.6-13.2-11.6-19.7
		c-9.4-4.9-18.1-11.7-28-11.2c1.2,9.7-3,13.7,1.1,23.6c3.7,9.1,7.5,16.4,8.6,26.1c-15.3-2.1-33.1-14.2-47.8-20.6
		c-14.1-6.2-25.2-13.8-34.9-23.7c-0.4,0.6-0.8,1.1-1.3,1.7c-16.6,18.5-39.9,32.1-59.4,47.4c-19.1,15-30.7,35-42.8,55.6
		c-13.6,23.1-37.6,44.2-56.8,62.8c-1.4,1.3-3.2,3.6-5.2,6.1L521,561C515.8,546.7,504.2,532.7,497.1,519z"/>
	<path class="st17" d="M347.6,433c2.6,0.4,5.3,0.7,7.9,1.1c6,0.9,11.9,2.5,17.9,2.8c4.4,0.2,9-1.3,13.3-2.1
		c-0.8-7.8-11.4-7.1-17-8.2c-9.9-2-20.4-8.3-28.3-14.5c-8.4-6.7-17.4-13.3-26.5-18.8c-6-3.6-14.2-5.5-21.1-4.6
		c-7.5,1-13,7.3-19.3,11c-5.6,3.3-12.2,5.5-11,12.9c2.1,12.4,21-1,27.2-1.9c15-2.2,24.7,6.4,35.8,15
		C332.7,430.4,340,431.9,347.6,433z"/>
	<path class="st17" d="M373.8,386.3c-0.3,0.6-2,4-0.4,3.8c0.4-0.1,0.3-0.6,0.9-0.5c0.4,0.1,0.7,0.6,0.9,0.8c0.5,0.7,0.8,1.6,1.4,2.2
		c1,0.9,2.8-1.8,3.9-2c1.5-0.3,3.7,1.1,5.1,1.4c2.6,0.7,5.2,1.4,7.8,2.2c2.1,0.6,4,1.6,6.1,2.5c1.5,0.6,2.8,0.5,4.4,0.7
		c0.9,0.1,2.4,0.2,3.1-0.5c-1-3.1-4.1-5-6.3-7.1c-3.6-3.5-6.2-6.8-11.2-8.2c-3.5-1-10.2-2.3-13.3,0.2
		C374.4,383,374.5,384.6,373.8,386.3z"/>
	<path class="st20" d="M340,413.3c14.8,6.4,32.6,18.5,47.8,20.6c-1.1-9.7-4.9-17-8.6-26.1c-4.1-10,0.1-13.9-1.1-23.6
		c9.9-0.5,18.6,6.3,28,11.2c-10.1-16.3-21-32.4-31.3-48.4c-11.1-17.3-29.3-31.6-43.8-46.2c-8.2-8.3-16.1-15.5-22.9-24.8
		c-5.7-7.7-11.9-22.4-22.9-23.2c-2.8-0.2-5.6,0.6-8.3,1.9c11.6,14.9,15.4,45.3,19.1,63.3c3.7,18.1,19.6,56,9.2,71.6
		C314.8,399.5,325.9,407.2,340,413.3z"/>
	<path class="st17" d="M56.2,523.7c4.8-10.6,9.7-20.5,16.8-29.9c7.6-10.1,20.4-18.6,26-29.8c4.7-9.3,5.1-19.1,11.8-27.3
		c6.3-7.7,16.5-12.5,17.2-23.7c0.5-8.9-6.3-15-10.3-22.1c-1.5-2.6-2.6-7.8-4.3-11.9c-4.5,0.9-8.9,2.9-13.2,6.2
		C84.8,397.1,71.5,416,62,433c-11,19.8-24.5,37.7-36,57.1c-4.5,7.5-26.9,73.7-26,73.9l28-0.2c3.7-7.2,7.1-14.6,12-20.9
		C46.1,535.1,52.1,532.8,56.2,523.7z"/>
	<path class="st19" d="M125.2,421.7c-3.6,5.7-10,9.7-14.4,15.1c-6.7,8.1-7.1,18-11.8,27.3c-5.6,11.1-18.5,19.6-26,29.8
		c-7.1,9.5-12.1,19.3-16.8,29.9c-4.1,9.1-10.1,11.4-16.2,19.3c-4.9,6.2-8.2,13.7-12,20.9l85.9-0.5c0-1.3-0.1-2.6-0.3-3.7
		c-1.7-9.1-6.6-17.1-4.7-26.7c3-15.2,14.5-35.1,22-49c4.6-8.5,11.8-18.1,18.4-27.9c-5.7-8.7-10.8-18.5-17.1-26.1
		C130,427.2,127.6,424.4,125.2,421.7z"/>
	<path class="st17" d="M127.3,435.2c1.7,1.4,3.9,2,5.6,3.5c1.6,1.4,2.8,2.8,4.5,4c2.8,2,7.5,5.8,8.6,0.6c1.3-6.2-2.8-14.4-7-18.5
		c-5.4-5.3-16.1-12.3-23.2-6.5c-2.6,2.1-6.1,6.6-4.1,10.2c1.4,2.6,5.5,1.6,7.8,1.7C123.1,430.2,124.5,433,127.3,435.2z"/>
	<path class="st20" d="M164.2,394.6c0.5-1.8,1.1-3.5,1.8-5.1c-1.3,0.8-2.7,1.4-4.1,1.9c-12,3.8-17.8-5.2-27.8-9.5
		c-7.1-3.1-14-4.2-20.6-2.9c1.6,4.1,2.8,9.2,4.3,11.9c4,7.1,10.8,13.2,10.3,22.1c-0.2,3.4-1.3,6.2-2.8,8.6c2.4,2.7,4.8,5.5,7.1,8.3
		c6.4,7.7,11.4,17.4,17.1,26.1c6.7-10,12.7-20.3,14.6-30.1C166,415.6,161.5,405.1,164.2,394.6z"/>
</g>
</svg>
