<?xml version="1.0" encoding="utf-8"?>
<!-- Generator: Adobe Illustrator 19.2.0, SVG Export Plug-In . SVG Version: 6.00 Build 0)  -->
<svg version="1.1" id="Layer_1" xmlns="http://www.w3.org/2000/svg" xmlns:xlink="http://www.w3.org/1999/xlink" x="0px" y="0px"
	 viewBox="0 0 969.4 698.6" style="enable-background:new 0 0 969.4 698.6;" xml:space="preserve">
<style type="text/css">
	.st0{fill:#D0962E;}
	.st1{fill:#7C5923;}
	.st2{fill:#543B19;}
	.st3{display:none;}
	.st4{display:inline;fill:#863A23;}
	.st5{display:inline;fill:#60271B;}
	.st6{display:inline;fill:#487D8E;}
	.st7{display:inline;fill:#65ADCE;}
	.st8{display:inline;fill:#FFFFFF;}
	.st9{fill:#6C6D5E;}
	.st10{fill:#4C4C42;}
	.st11{fill:#929380;}
	.st12{fill:#4AA5A5;}
	.st13{display:none;fill:none;}
	.st14{display:none;fill:#3E8785;}
	.st15{fill:#3E8785;}
	.st16{fill:#EAF5F4;}
	.st17{display:none;fill:#854734;}
	.st18{fill:#4F271B;}
	.st19{fill:#854734;}
	.st20{display:inline;fill:#914F38;}
	.st21{display:inline;fill:#61B546;}
	.st22{display:inline;fill:#487F3C;}
	.st23{display:inline;fill:#B27C33;}
	.st24{display:inline;fill:#E0D894;}
	.st25{display:inline;fill:#EE919C;}
	.st26{display:inline;fill:#4C8A3F;}
	.st27{display:inline;fill:#35592B;}
	.st28{display:inline;fill:#314F27;}
	.st29{display:inline;fill:#CD2027;}
	.st30{display:inline;fill:#5AA345;}
	.st31{fill:#57BFC4;}
	.st32{fill:#A9DDE4;}
	.st33{fill:#A05D40;}
	.st34{fill:#683829;}
	.st35{fill:#F05622;}
	.st36{fill:#EF6C33;}
	.st37{fill:#ED8433;}
	.st38{fill:#914F38;}
</style>
<g id="earth">
</g>
<g id="Layer_4">
	<path class="st0" d="M965.4,544.7c-0.9-1.4-1.9-2.9-3-4.4c-11.9-15.9-27.5-19.1-46-26.1c-13.4-5.1-27-10.3-38.5-18.8
		c-12.6-9.2-18-33.5-31.6-35.4c-34.6-4.9-71.6-0.1-106.6,0c-37,0.1-73.9-0.9-110.9-1.3c-13.9-0.2-30.3-3.6-44-2.1
		c-14.6,1.6-28.2,12.6-40.7,19.7c-5.2,2.9-10.3,5.9-15.8,8.2c-17.8,7.5-38.6,7.3-56.5,0.4c-8.4-3.2-15.2-11.3-22.9-14.2
		c-8.4-3.1-19.4-0.7-28.3-0.2c-46.8,2.2-93.6,3.3-140.2,8c-38.5,3.8-76.4,11-114.7,15.8c-20.4,2.5-41.2,0.2-61.5,3.3
		c-17,2.7-27.3,11-42.2,18.2c-17,8.2-73.6,26.5-59.8,55.4c3.9,8.3,13.3,7.7,19.5,13.3c13.7,12.4,34.7,23.6,52.4,28.1
		c23.6,6,45.9,15.2,69.2,22.2c4.8,1.4,10.1,4.6,15.4,3c6.4-1.9,4.3-5.5,9.2-9c8.2-6,18.7-1.5,27.8,0.8c39.9,10.2,79.6,24.3,122,29.2
		c29,3.4,57,18.6,85.2,26.2c30.6,8.3,62.2,13.8,94,13.8c51.1,0,101-12.1,149.8-26.4c21.6-6.3,40.8-12.6,63.1-13.6
		c23.6-1,44.7-15.6,67.8-19.3c6.9-1.1,15.7-2.1,21.8,1.2c2.7,1.5,1.3,5.6,4.2,7c2.2,1.1,9.5,0.3,12,0c17-1.7,32.8-6.2,47.2-15.8
		c6.5-4.3,12.9-9,20-12.1c6.8-3,13.5-2,20-4c12.6-3.8,21.5-17.7,33.7-23.1c6.3-2.8,11.3-6.4,15.5-10.4c0.4-0.4,0.8-0.8,1.2-1.3
		C967,566.8,974.6,559.7,965.4,544.7z"/>
	<path class="st1" d="M960.1,573.1c-3.2-2.2-11.9-0.6-15.9-0.4c-3.5,0.1-9,1.5-12.3,0.7c-2.8-0.7-3.7-2.9-6.5-4.1
		c-4.5-2-9.8,0.1-14,2.7c-4.2,2.6-8.3,5.9-13.2,6.5c-5.9,0.7-11.5-2.8-17.4-4c-8.5-1.7-16.9,1.6-24.3,5.5c-7.6,4-14.8,4.2-23.4,4.8
		c-4.8,0.3-10.8,2.1-15.3-0.2c-2.2-1.1-4.1-2.7-6.3-3.8c-6-3.2-13.5-2.8-19.9-0.6c-8.6,3-14.7,10-23.7,11.1
		c-9.1,1.1-19.9,0.8-28.7,3.4c-4.4,1.3-10.2,4.1-14.8,4.1c-4.9-0.1-9-2.5-14.3-1.7c-8.5,1.3-13.9,7.2-21.4,10.3
		c-7.8,3.2-18.5,3.8-26.9,5c-7.1,1-8.5-1.7-14.2-5.4c-2.9-1.8-6.6-1.6-9.8-0.4c-3.2,1.2-6,3.2-8.9,4.9c-12.7,7.3-29.9,7.9-44.2,8.4
		c-18.1,0.7-36.3,0.5-54.4-0.4c-14.8-0.8-29.7-2.1-44.5-3.4c-6.2-0.5-8.7-0.8-14.5,1.4c-5.4,2-11.3,3.5-16.9,1.6
		c-4.9-1.6-7.9-6.1-12.9-7.2c-5.6-1.2-12.2-0.8-18-1.3c-19.7-1.7-39.4-3.5-59.2-5.2c-9.1-0.8-18.2-1-26.9-3.4
		c-9.1-2.5-18.6-3.7-28-4.2c-2.8-0.1-4,1.5-6.3,2c-2.7,0.5-5.9-0.2-8.6-0.5c-6.5-0.6-13-1.1-19.5-1.7c-14.2-1.2-27.6-0.5-40-8.1
		c-4.4-2.7-9.7-5-14.5-3.3c-6.7,6.9-14.9,4.7-23.4,4.2c-10.4-0.6-20.9-1.5-31.3-2.4c-10.8-0.9-26.9-5.5-37.2-1.7
		c-5,1.8-6.5,3.2-12.2,2.4c-5.8-0.8-11.6-2-17.4-2.9c-1.5-0.2-2.9-0.5-4.4-0.2s-2.8,1.3-3.2,2.7c-1.1,4.5,6,7.6,0.8,11.5
		c-3.3,2.4-12.5,0.7-16.1-0.3c-8.9-2.5-19.1-10-25.2-16.8c-1.2-1.3-2.3-2.8-4-3.4c-1.7-0.6-4,0-4.4,1.7c-0.4,1.5,0.8,3,1.5,4.4
		c2.4,5.6-4.1,2.6-6,1.4c-5.3-3.4-13.2-5.4-17.7-9.7c-2.3-2.3-3.3-6-6-7.8c-1.6-1.1-7-1.1-8.9-0.6c-1.8,0.5-2.3,1.6-2.1,2.9
		c7,11.6,11,5.8,18.7,12.9c13.7,12.4,34.8,23.6,52.4,28.2c23.6,6,45.9,15.2,69.2,22.2c4.8,1.4,10.1,4.6,15.4,3
		c6.4-1.9,4.3-5.5,9.2-9c8.2-6,18.7-1.5,27.8,0.8c39.9,10.2,79.6,24.3,122,29.2c29,3.4,57,18.6,85.2,26.2
		c30.6,8.3,62.2,13.8,94,13.8c51.1,0,101-12.1,149.8-26.4c21.6-6.3,40.8-12.6,63.1-13.6c23.6-1,44.7-15.6,67.8-19.3
		c6.9-1.1,15.7-2.1,21.8,1.2c2.7,1.5,1.3,5.6,4.2,7c2.2,1.1,9.5,0.3,12,0c17-1.7,32.8-6.2,47.2-15.8c6.5-4.3,12.9-9,20-12.1
		c6.8-3,13.5-2,20-4c12.6-3.8,21.5-17.7,33.7-23.1c6.3-2.8,11.3-6.4,15.5-10.4C955.5,579.4,958.2,576.3,960.1,573.1z"/>
	<path class="st2" d="M243.7,574.7c72.9,3.3,145.9,6.6,218.8,6.3c77-0.3,153.9-4.7,230.8-9c49-2.8,97.8-6.7,146.8-9.9
		c25.1-1.7,50.2-3.2,75.4-4.3c12.2-0.5,28.2-6,40.1-1.8c23.5,8.5,0.5,22.1-14.3,26.5c-21.8,6.5-45.2,3.7-67.5,6.2
		c-34.3,3.9-68.5,7.8-102.8,11.6c-68.5,7.8-137,15.3-205.5,23.3c-63.1,7.1-126.3,14.3-189.8,14c-95.2-0.5-189.3-17.8-282.9-35
		c-26.8-4.9-62.5-2.5-83.7-22.3c-15.6-14.7-9.6-17.6,7.3-15.9c22.8,2.2,45.7,2.2,68.6,3.2C137.9,569.9,190.8,572.3,243.7,574.7z"/>
</g>
<g id="Layer_3" class="st3">
	<path class="st4" d="M955.4,399.8c0,0-4.7-10.3-2.2-13.4c0,0-8.2,6.4-15.9,8.1c-7.8,1.7,1.7-15.1,3.1-15.3c0,0-8.6,6.4-22,7.8
		s6.7-12.3,6.7-12.3s-24.8,5.6-26.5,3.9c-1.7-1.7,3.1-8.1,7-9.2c0,0-18.4,2.8-19.2,2s-4.2-8.5,6.1-12.7c0,0-15.3,5.2-17,2.1
		c-1.7-3.1-0.6-9.3,7.5-11.8c0,0-37.4,6.3-12.3-11.4c0,0-42.1,6.1-23.7-6.1c0,0-23.1,3.6-24.5,11.7
		C822.4,343.2,922.8,412.3,955.4,399.8z"/>
	<path class="st5" d="M436.8,138.5c0,0,0-30.1,23.4-21.2c0,0,25.6-4.3,29,15.1c0,0,299.7,46.2,305.4,102c5.7,55.8-102.5,97-102.5,97
		L585.7,308c0,0-32.9-82.5-112.1-170.6l-2.8-7.8c0,0-10,2.2-13.9-1.7C453,124,440.2,133.5,436.8,138.5z"/>
	<path class="st4" d="M674.9,290.2c0,0,32.3-43.5,77.2-58c44.9-14.5,66.5-66.9,3.6-107.6c0,0-26.2-13.4-37.3-13.4s-2.8,15.1-36.8-10
		c0,0-8.9-2.8-10-7.8c-1.1-5-7.2-7.2-7.2-7.2s-8.9,10.6-20.1,7.2c0,0-5.4,7.1-3.8,11.7c0,0-7.5-7-2.1-19c0,0,5.4-11.2,21.3-10.7
		c0,0,6.7-10.5,20.9,5.9c0,0,6.7-0.8,5.9,3.3c0,0,136.3,25.9,182.7,32.2c38.4,5.2,73.5,7.8,110.2,21.1c40.6,14.7,84.5,24.4,121.8,47
		c27.7,16.8,50.5,40.8,71.1,65.4c20.9,24.9,29.9,52.3,38.6,83.1c5.1,18.1,10.3,36.3,15.4,54.4c0,0-266-212.3-419.9-29.2
		C806.5,358.6,652.1,381.6,674.9,290.2z"/>
	<path class="st4" d="M557.3,525.5c0,0,18.4-40.7,27.9-49.1s45.7-66.4,45.7-66.4h27.9l3.9,15.8c0,0,13.4-3,15.1-4.6
		s-5,9.3-13.4,12.7c-8.4,3.4,7.2,2.9,7.2,2.9S661,448,655.4,448.5c-5.6,0.6-19,27.3-19,27.3s5,30.7-36.8,44.6l-4.5-7.2L584,533.3
		c0,0-3.9-16.2-1.7-21.7c2.2-5.6-9.5,13.4-14.5,21.7c0,0-6.1-9.5-3.9-13.9L557.3,525.5z"/>
	<path class="st4" d="M562.3,222.2c-11.7-11.7,0,0-10.9-1.7c-11.8-1.8-5.9-53.5-5.9-53.5l4.2,10c1.7,9.2,10,16.7,14.2-5.9
		s-2.5-26.8,16.7-33.5s47.7-44.3,47.7-44.3c7.5,15.1-27.6,43.5-27.6,43.5c47.7-3.3,60.2-41,65.2-32.6s-36,46-36,46
		c51.9-48.5,74.4-3.3,61.1-11.7s-45.2,19.2-30.1,15.9s43.5,26.8,41.8,22.6s-26.8-3.3-30.9,5.9s19.2,28.4,19.2,28.4s-10-2.5-25.1-6.7
		c-15.1-4.2,3.3,25.9,3.3,25.9c0-13.4-25.1,13.4-20.9,10.9s7.5,19.2,6.7,12.5c-0.8-6.7-19.2-7.5-13.4-5.9c5.9,1.7,5.9,20.1,2.5,17.6
		s-2.5-17.6-15.9,1.7s10.9,19.2,10.9,19.2c50.2-31.8,49.3-7.5,52.7,8.4c3.3,15.9,16.7,18.4,67.7,22c51,3.6,71.1,29,71.1,29
		s35.1,14.2,94.5,40.1c59.4,25.9,38.5-4.2,38.5-4.2c1.7-26.8-84.5-65-84.5-65c87-21.5,134.7,62.5,109.6,97.6
		c-25.1,35.1-115.4,14.2-133.8,2.3c-18.4-11.9-32.6-1.5-89.5-19.9c-56.9-18.4-68.6-2.5-68.6-2.5c-43.5,36-75.3,31.8-75.3,31.8
		c-127.1-88.7-16.7-221.6-16.7-221.6s4.2-10.9-2.5-8.1s-26.2,11.2-30.1,16.2c-3.9,5-3.9,17.2-3.9,17.2s-3.9-9.4-5-12.2
		S562.3,222.2,562.3,222.2z"/>
	<path class="st4" d="M823.2,396.1c0,0,23.4,69.4,0,97c0,0,5-32.6,0-43.5c0,0,6.7,29.3-20.9,36.8c0,0,9.2-8.4,10.9-20.1
		c0,0-5.9,11.7-20.9,16.7c-15.1,5,51-67.2-13.4-66.2c0,0-27.6-12.4-22.6-47.5S823.2,396.1,823.2,396.1z"/>
	<path class="st4" d="M752.1,384.4c0,0-15.1,41-11.7,54.4s-29.3,23.4-36.8,28.4c-7.5,5,4.2-13.4,4.2-13.4s-15.1,11.8-17.6,14.3
		c-2.5,2.5,6.7-15.1,6.7-15.1l-19.2,15.3c0,0,10.9-22.9,28.4-24.5s2.8-17.7-0.8-35.1s6.7-36,9.6-40.1
		C717.9,364.3,752.1,384.4,752.1,384.4z"/>
	<path class="st4" d="M989.7,384.4c0,0,8.3-9.9,5.8-25.8c0,0-2.5,22.3-10.9,22.4s0-13,0-13s7.6,0.8,3.8-29c0,0-2,18.4-7.5,22.7
		c-5.5,4.3-4.6-36.9-13-44.7c0,0,4.2,19.5-4.7,21.2s-5.6-16.7-16.2-27.9c0,0,6.1,19.5,0,20.1s-15.1-18.4-19-20.1c0,0,5,12.3,0,14.5
		s-15.6-21.2-19.5-21.2c0,0,7.2,14.5,3.3,16.2s-15.6-17.8-20.1-16.2c0,0,6.1,8.9,5,13.4s-18.4-7.2-18.4-7.2l7.5,8.6
		c0,0,75.6,8.1,89.2,52.1C988.8,414.5,989.7,384.4,989.7,384.4z"/>
</g>
<g id="Layer_2" class="st3">
	<path class="st6" d="M305.2,409.6c0,0,102.2,95.1,117.3,101.4c15.1,6.3,58.6-1.6,67.3,5.5c8.7,7.1-14.3-17.4-19.8-17.4
		c0,0,15,6.3,21.8,11.1c0,0-12.3-16.6-17-16.6c0,0,19.8,7.1,25.4,11.9c5.5,4.8-10.3-20.6-34.9-16.6c-24.6,4-15.8,6.3-34.1-0.8
		c-18.2-7.1-33.3-41.2-21.4-59c11.9-17.8,11.9-34.6,11.9-34.6L305.2,409.6z"/>
	<path class="st7" d="M-72,261.4c-0.2,1.6,10.3,10.6,11.6,12c10.6,11.6,26.6,27.8,28.7,44.2c-0.2-2.5,5.2-4.4,7-4.7
		c3.5,11.7,1,27.4,0.6,39.5c-0.2,5.1-3,24.5,2.6,27.8c7.1,4.2,0,11.1,0,11.1c-7.1,6.8-22,0.5-29.2-3c-4.2-2.1-8.3-4.5-11.5-8
		c-1.5-1.6-10.3-19-9.8-19.1c0,0,7.8-0.8,7.9-0.8c-9.2,1-14.6-13.7-15.3-20.9c-0.6-6,4.7-20.8-1.3-25c0,0,11.9,7.9,11.9,7.9
		c-4.5-3-5.7-27.1-5.8-33C-74.9,280-73.1,270.7-72,261.4z"/>
	<path class="st6" d="M401.8,418.3c0,0,16.6,18.2,26.9,23.8c10.3,5.5-17.4,4.8-13.5,8.7c4,4,39.6,7.9,61.8,33.3s20.6,17.4,20.6,17.4
		s49.1-2.4,56.3,1.2c7.1,3.6-19-18.6-19-18.6l20.2,7.1c0,0,5.1-4.8-9.2-10.3c0,0,5.8-4,10,0.8c4.2,4.8-6.1-12.7-35.4-10.3
		c-29.3,2.4-14.3,4.8-14.3,4.8s-58.6-8.4-27-65S401.8,418.3,401.8,418.3z"/>
	<path class="st6" d="M225.1,420.7c0,0,122-65,110.1-12.7c-11.9,52.3,11.1,63.4,11.1,63.4c23,2.4,57.8,6.3,57.8,6.3l5.5,15.8
		l-11.9,2.4c0,0-16.6,0-26.1,0s-39.6-4.8-44.4-6.3s-19.8-24.6-22.2-34.9c-2.4-10.3-21.4-12.7-30.1-12.7s-23,12.7-27.5,19.8
		s5.3,19.8,19.6,29.3c14.3,9.5,28.5-2.4,40.4-1.6c11.9,0.8,15.8,17.4,15.8,17.4c-4.8-5.5-17.4-11.9-17.4-11.9
		c15.1,5.5,12.7,19.8,12.7,19.8c-4.8-6.3-16.6-12.7-16.6-12.7c12.7,7.9,11.9,21.4,11.9,21.4c-4.8-5.5-14.3-4.8-14.3-4.8
		c-21.4,4-61-11.1-61-11.1c-23-52.3-62.6-60.2-62.6-60.2L225.1,420.7z"/>
	<path class="st6" d="M187.9,45.1c0,0,38-8.7,53.9,0s104.3,44.7,128.6,63.2c24.3,18.4,29,36.7,29,36.7l-4,61.8l14.3,81.6l-15.1,26.1
		c0,0-26.9-3.2-35.7-22.2l0.8-13.7H344l6.3-19.6l-16.6,3.2l11.1-12.7c0,0-12.7,7.1-26.1,2.4c0,0,1.6-19,15.1-23c0,0-7.1,0-34.9,1.6
		s-35.7-23.8-35.7-23.8l-43.6-56.3l-72.1-50.7l-4.8-6.3c0,0,37.2-18.2,49.1-14.3c0,0-42.8-18.2-58.6-11.1c0,0,57-13.5,77.6-7.9
		L187.9,45.1z"/>
	<path class="st7" d="M508,193.3c0,0-10.1-2-12.5-7.6l6.2-1.2c0,0-20.8-33-32.4-42.5c-11.6-9.5-12.5-22.3-13.1-26.4
		c0,0-11.6,2.4-11.3,15.2c0,0-41.9-32.4-46.9-41c0,0-3.3,24.7,0,30.9l-42.8-19c0,0,7.1,24.6,25.6,39.9c0,0-33.3,2.9-38.6,8.2
		c0,0,4.2,9.5,20.8,10.7c0,0-36.2,13.1-36.2,23.8c0,0,34.5,4.2,44.6,3c0,0-36.2,9.5-33.3,30.9c0,0,19,0.6,26.7,7.1
		c0,0-12.5,7.1-11.9,16.6c0,0,13.1-4.2,16.6-3.6c3.6,0.6-1.2,14.9-1.2,14.9l10.7,4.2c0,0,13.7,57,6.5,61.8
		c-5.4,3.6-23.9-2.7-29.6-3.2c-28.1-2.3-54.4,8.2-78,22.5c-34.1,20.6-62.6,50.7-98.7,68.1c-36.5,17.6-78.2,24.7-118.1,15.8
		c-14.3-3.2-28-8.5-41-15.4c-4.1-2.2-40.9-27.3-41.6-26.7c0,0-10.1,8.3-10.1,8.3c-2.7,2.2,41.8,41.8,43.8,43.4
		c41.2,31.4,89.2,41.8,140.1,32.1c18.9-3.6,37.4-9.3,55.6-15.7c9.9-3.5,19.7-7.2,29.4-11.1c9.2-3.6,17.8-8.8,27.4-11.4
		c10-2.7,20.8-2.8,31.1-3.7c22.2-1.9,44.8-3.2,67-1.9c10.6,0.6,21.4,1.5,31.6,4.6c39.8,11.9,90.3,20.2,113.5-19.6
		c23.2-39.8-19.6-108.7-70.1-196.1c0,0-14.9-25-6.5-23.8l11.3,11.9l25.6,4.8c0,0-5.3,41.6,1.2,49.9c0.5,0.6,1,1.1,1.6,1.5
		c0.9,0.5,1.8-14.8,2.1-15.9c1.7-6.8,16.3-13.7,23-11.1c-8.3-3.2-19.5-11.9-18.2-22c-0.2,1.3,12.6,7.5,13.9,8.3
		c4.2,2.3,7.1,3.9,11.7,2.4c7.1-2.2,12.7-7.9,17.4-13.3c2-2.2,4.2-4.4,5.4-7.2c1.1-2.4-0.4-9.8,0-10.5
		C526.4,184.2,520.5,192.9,508,193.3z"/>
	<path class="st7" d="M371.7,328c0,0-132.3-103.8-46-190.2l-29.3-7.1c0,0-42-33.3-67.4-26.9l-9.5,4.8c0,0-111.7-32.5-115.7-27.7
		c0,0-33.3,6.3-36.4,13.5L96,97.4c0,0-72.5,19.8-80.4,28.1c0,0,59.4,0.4,61.4,1.2c0,0-80.8,44.8-82,55.5l82-15.8l54.7-2l10.3,0.4
		c0,0-54.7,25.4-57.4,30.1l65.4,4.4c0,0,45.2-1.2,49.5-3.6c0,0-64.2,30.9-67.7,51.5c0,0,36.8,5.5,83.2-24.6c0,0-5.9,21.8-2.8,29.3
		c0,0,22.6-4.8,26.9-7.9c0,0-0.8,10.7,1.2,12.3c0,0,13.5-4,13.1-7.5c0,0-8.3,13.9-13.9,19c0,0,10.7,8.3,20.6-2c0,0-2.4,10.7-2,12.9
		c0,0,11.5,0.6,13.9-2.6c0,0-4.4,8.7-2.8,13.5c0,0,11.1-1.6,14.3-5.9l34.5,19.8l43.2,31.3L371.7,328z"/>
	<path class="st8" d="M460.8,152.6l16.5,7.5l2.4,9.2C479.6,169.3,471.8,171.9,460.8,152.6z"/>
	<path class="st8" d="M596.3,152.6l-16.5,7.5l-2.4,9.2C577.4,169.3,585.3,171.9,596.3,152.6z"/>
</g>
<g id="Layer_6">
	<path class="st9" d="M772.2,200.2c11.2-22.7,22.5-45.4,33.7-68c5.3-10.7,14.7-28.2,23.8-36c3.9-3.4,9.6-5.2,14.3-3
		c3.6,1.7,5.9,5.3,9.3,7.3c9.9,5.9,42.2-7.5,53.1-12c18-7.5,24-29.5,4.7-40.9c-17.8-10.6-32.3-6.3-51.1-7.8
		c-17-1.4-29.7-8.1-45.1,4.8c-9.4,7.9-16.1,20.6-28.2,22.5c-11,1.8-21.3-6.5-32.5-6.7c-16.3-0.3-21.2,13.1-31.7,21.8
		c-7.8,6.4-18.5,9-25.1,17.3c-15.5,19.5,2.4,50.2-8.3,72.7c19.2,7.8,34.9,11.6,54,19.4C752.8,195.6,762.7,204.8,772.2,200.2z"/>
	<path class="st9" d="M843,7.6c8.1,0.1,16.2-1.7,23.4-5.3c2.8-1.4,5.9-3.1,8.7-1.9c3.4,1.4,4.2,6.3,2.3,9.5s-5.4,5-8.8,6.4
		c-9.6,3.9-19.8,6-29.9,8.2c-5.8,1.2-15.2,1.8-20.2,4.6c-3.5,2-8.6,11.3-13.6,4.5c-2.4-3.2,0-7.7,2.4-11c4.7-6.5,7.8-13.6,16-15.4
		C829.7,5.8,836.5,7.5,843,7.6z"/>
	<path class="st10" d="M791.2,99.1c2.4-2.2,5.5-4.6,5.1-7.8c-0.4-3-4.1-4.8-7-4s-5.2,3.2-6.8,5.7c-2.3,3.5-8.7,17.3-3.6,20.5
		C782.7,115.9,788,101.9,791.2,99.1z"/>
	<path class="st10" d="M754.3,184.5c-0.8,1.3-1.9,2.7-3.4,2.6c-1.6-0.1-2.6-1.7-3.1-3.2c-3.4-8.6-2.5-18.8,2.4-26.7
		c4.3-6.9,11.5-12.4,12.7-20.4c0.4-2.9,0-5.8,0.4-8.7c1.7-10,4.9-0.3,5.1,4.2c0.2,6.1-0.2,12.2-1.2,18.2
		C765.1,162.5,760.8,174.2,754.3,184.5z"/>
	<path class="st10" d="M730.3,158.3c-0.6,3.9-1.2,7.9-2.9,11.5s-4.6,6.8-8.5,7.8c-5.3,1.4-11-2.1-13.8-6.9s-3.1-10.6-2.7-16.1
		c0.7-10.1,3.5-19.9,8.1-28.9c3.1-5.9,7-11.7,11.2-16.9c1.6-2,7.1-13.9,10.9-11.2c1.8,1.3,0,4.2-0.2,5.9c-0.5,4.6,1,6.6,5.3,5.8
		c3.3-0.6,3.2-2.1,3.4,3c0.3,6.4-4.7,16-6.2,22.4C733.2,142.5,731.6,150.4,730.3,158.3z"/>
	<path class="st11" d="M911.4,35.4c2.2,1.4,4.3,3.3,6.6,4.6c3.7,1.9,10.6,1.5,14.2-0.6c3.3-1.9,5.2-6.8,5.5-10.4
		c-5.9-0.9-10.8-0.3-13.1-7.4c-1-3.2-1.2-7-3.7-9.2c-2.4-2.1-5.9-1.9-9.1-1.7c-5.2,0.4-10.4,0.9-15.5,1.3c-2.7,0.2-5.6,0.5-8,1.8
		c-10.7,6,0.9,22.5,10.4,21.3c2.7-0.3,5.2-1.7,7.8-1.6C908.3,33.7,909.9,34.4,911.4,35.4z"/>
</g>
<g id="Layer_5">
	<path class="st12" d="M71.5,395.6c31.1-54.4,71-103.2,110.8-151.6c39.8-48.5,78.7-96.4,122.7-141.1c5-5.1,10.3-10.4,17-13
		c8.7-3.4,18.7-1.6,26.8,2.9c25.7,14.4,42.3,33.9,57.5,58.3c9.4,15,100.3,107.1,115.4,121.1c23.9,22,47.2,47.7,74.4,65.2
		c31.4,20.3,62.8,40.5,94.2,60.8c31.4,20.3,62.8,40.5,94.2,60.8c9.5,6.1,84.9,62.7,91.1,58.7c-13.6,8.7-29.3,17.6-45.2,16
		c-17.6-1.7-36.9-11-54.2-15.3c-35.2-8.8-71-15.4-107-20c-22.8-2.9-55.5-12.2-78.2-7.8c-20.4,4-39.1,27.4-60.4,34.7
		c-20.8,7.1-38.1,4.3-58-3c-16.3-6-34-19.2-51.4-21.1c-9.6-1-22.4,4.6-31.5,7.2c-20.3,5.8-36.3,18.8-55.1,25.8
		c-18.7,7-46.3,1.5-66.5,1c-23.3-0.6-46.6-1.8-69.9-1.8c-28.2,0-56.5-1.5-84.7-2.2c-22.3-0.6-63.2,6.4-83.4-2.7
		C1.9,516.1,59.6,416.4,71.5,395.6z"/>
	<path class="st13" d="M92.8,551.3c20.5-11.2,35.9-29.4,50.9-47.3c49.3-58.8,98.6-117.5,147.9-176.3c10.5-12.5,21.1-25.1,34.4-34.5
		c13.3-9.4,29.8-15.4,45.9-12.8c30.8,4.9,54.9,39.2,85.5,33.1c-10.3-21-20.7-42-31-63c11,9.3,22.1,18.6,35.3,24.3
		c13.2,5.6,28.9,7.1,41.6,0.4c15.6-8.2,23.2-27.3,22.2-44.9s-9.2-34-18.7-48.9c-47-73.6-131.4-122-218.7-125.4
		c-26.9-1.1-53.8,1.9-80.2,7.1c-80.5,16-159.9,56.9-203,126.8C-28.3,243.8-37,309.5-34.7,372.7C-32.5,433.7-3.7,603.9,92.8,551.3z"
		/>
	<path class="st14" d="M362,226.3c2.8,11.7,5.6,23.9,12.5,33.8c6.5,9.3,16,15.9,25.4,22.2c9.3,6.3,18.6,12.6,27.9,18.9
		c10,6.9,22.2,7.9,34,6.7c2.5-0.2-6.2-18.8-7-20.5c-2.2-4.9-6.1-9.2-8-14.3c-2-5.5-2.2-11.6-3.1-17.5c9.7,1.3,19.3,4,28.1,8.3
		c10.7,5.1,23.1,5.7,34.8,7.9c9.2,1.7,20.8,2.3,25.5-5.8c2.3-4,2-9.1,1.3-13.7C530,228.9,520,207,510,185.4
		c-11.2-24.4-22.6-48.9-38-70.9c-15.4-22-35.3-41.5-59.9-52.5c-29.7-13.3-73.2-14.4-101,4.9c-6.8,4.7-4.5,4.4,0.2,9.6
		c5.9,6.4,8.1,14.6,11.2,22.7c7.5,19.6,14.4,39.4,20.7,59.5C350.4,180.9,356.6,203.5,362,226.3z"/>
	<path class="st15" d="M143.7,504c49.3-58.8,98.6-117.5,147.9-176.3c10.5-12.5,21.1-25.1,34.4-34.5c13.3-9.4,29.8-15.4,45.9-12.8
		c30.8,4.9,40.4,38.4,90.3,27.4c-10.3-21-25.5-36.3-35.8-57.4c13.3,7.5,22.6,17.5,36.7,20.4c19.3,4,42.3,5.5,57.2,1.8
		c-26.1-25.5-105.5-108-113.9-121.5c-15.3-24.4-31.8-43.9-57.5-58.3c-8.1-4.5-18.2-6.2-26.8-2.9c-6.7,2.6-12,7.9-17,13
		c-44,44.7-82.8,92.6-122.7,141.1c-39.8,48.4-79.7,97.1-110.8,151.6C59.6,416.4,1.9,516.1,30,528.7c20.2,9,61.2,2.1,83.4,2.7
		c1.8,0,3.6,0.1,5.4,0.2C127.7,523,135.8,513.4,143.7,504z"/>
	<path class="st16" d="M343.4,158.6c7,22.3,13.3,44.9,18.7,67.6c2.8,11.7,5.6,23.9,12.5,33.8c6.5,9.3,16,15.9,25.4,22.2
		c9.3,6.3,18.6,12.6,27.9,18.9c10,6.9,22.2,7.9,34,6.7c2.5-0.2-6.2-18.8-7-20.5c-2.2-4.9-6.1-9.2-8-14.3c-2-5.5-2.2-11.6-3.1-17.5
		c9.7,1.3,19.3,4,28.1,8.3c10.7,5.1,23.1,5.7,34.8,7.9c4.8,0.9,10.4,1.5,15.2,0.6c-0.1-0.1-0.1-0.1-0.2-0.2
		c-4.6-4.2-8.9-8.7-13.2-13.2c-7.2-7.4-14.3-14.8-21.4-22.2c-8.5-8.8-16.9-17.7-25.3-26.6c-8.3-8.8-16.5-17.5-24.7-26.3
		c-6.6-7.1-13.2-14.2-19.8-21.4c-2.9-3.2-6-6.4-8.7-9.8c-2.7-3.4-4.9-7.1-7.3-10.7c-4.6-6.7-9.6-13.1-15-19.2
		c-10.8-12-21.6-22-35.7-29.8c-8.1-4.5-19.9-6.9-28.7-3.1c-0.8,0.3-1.6,0.7-2.3,1c1,2.7,2,5.4,3,8.1
		C330.2,118.8,337.1,138.6,343.4,158.6z"/>
	<path class="st17" d="M759.5,221.7c0.6,1.7,1,3.2,1.4,5.1c0.3,1.2,2.3,4.7,2,5.7c2.2-9.3,2.9-18.7,4.7-28.1c0.3-1.3,0.9-3,0.8-4.3
		c-0.1-1.5-1.2-2.6-1-4.3c0.2-1.4,0.8-2.6,1.3-3.9c1.2-3.1-0.4-5.1-0.5-8.1c0-3.7-0.1-7.4-0.1-11.2c0-4-0.1-6.6,1.6-10.2
		c1.2-2.5,2.5-4.9,3.8-7.3c2.2-4.3,5.6-11.7-0.7-14.2c-3.6-1.4-8.3,2.3-10.7,4.7c-2.8,2.6-2.8,6.5-2.7,10.3
		c0.2,3.6,0.4,7.4-1.3,10.6c-0.9-5.6-1-12.4-3-17.7c-1.4-3.7-5-5.1-5-9.8c0-2.1,0.5-4.4-0.3-6.4c-0.7-2-3.4-3.5-5.1-2.1
		c-1.3,16.4,3.3,32.7,5.4,48.9c1.2,9.5,2.9,19,5.2,28.3C756.7,212.4,757.9,217.1,759.5,221.7z"/>
	<g>
		<path class="st18" d="M916.6,475.4c-5.2-13.9-10.4-27.8-15.5-41.7c-5.2-13.9-10.4-27.8-15.5-41.7c-5-13.4-13.5-24.7-19.4-37.4
			c-0.3-0.7-0.7-1.4-1-2.2c-7.5-17.2-9.3-35.8-14.4-53.7c-5.8-20.3-14.8-40.1-22.1-59.9c-7.9-21.2-16.6-41.8-22.6-63.6
			c-4.1-15.3-4.9-20.1-18.3-26.3c-3.4-1.6-6.9-3-10.5-4.3c1,3.3-1.1,7.7-2.7,10.7c-1.2,2.5-2.6,4.9-3.8,7.3
			c-1.7,3.6-1.6,6.3-1.6,10.2c0,3.7,0.1,7.4,0.1,11.2c0,3,1.7,5,0.5,8.1c-0.5,1.3-1.1,2.5-1.3,3.9c-0.2,1.7,0.8,2.8,1,4.3
			c0.1,1.4-0.6,3-0.8,4.3c-1.8,9.4-2.5,18.8-4.7,28.1c0.2-1-1.8-4.5-2-5.7c-0.4-1.8-0.8-3.3-1.4-5.1c-1.6-4.6-2.8-9.3-4-14
			c-2.3-9.3-4-18.8-5.2-28.3c-1.9-14.8-5.9-29.7-5.6-44.6c-3.6-1-7.2-2.1-10.7-3.2c-2.3,3.6-4.6,7.2-6.9,10.9
			c-1.5,0.2-42.6-26.7-45.2-16.5c-4.7,18.3-4.6,45.6-12.2,62.2c-8.1,17.6-32.6,19.4-46.1,31.9c-39.6,36.6-72.3,80.4-110.4,118.5
			C466,386.8,411,427.9,351.3,460.6c-8,4.4-16.2,8.7-22.2,15.5s-9.4,16.7-6,25.1c4.8,11.6,19.3,15.1,31.8,16.9
			c24.3,3.6,50.7,10.9,75.2,11c11,0,22-0.9,33-2c5.5-0.5,10.9-1.1,16.4-1.6c2.9-0.3,3.6-0.3,6,1.4c2.8,2,5.7,4.2,8.9,5.5
			c2.5,1,4.6,2.6,7.3,1.8c1.9-0.5,4.3-2.1,5.8-3.4c3.6-3,5.9-7.4,11-8c4.8-0.5,9.8-0.3,14.5-0.6c10.4-0.5,20.8-1.1,31.2-1.6
			c20.8-1.1,41.6-2.2,62.4-3.2c8.3-0.4,16.6-0.8,25-1.3c69.9-3.6,141.1-7.1,208.7,10.8c13,3.5,26.5,7.5,40.1,7.9
			c12.9,0.3,23.5-5,36.1-5.4C929.1,511.8,923.3,493.3,916.6,475.4z"/>
		<path class="st19" d="M777.2,144.4c-2.8-1-5.6-1.9-8.4-2.8c0,0,0,0,0,0C771.6,142.6,774.4,143.5,777.2,144.4
			C777.2,144.5,777.2,144.4,777.2,144.4z"/>
		<path class="st19" d="M751.3,136.6c-1.9-0.5-3.8-1.1-5.6-1.6c0,0,0,0,0,0C747.5,135.5,749.4,136,751.3,136.6
			C751.3,136.6,751.3,136.6,751.3,136.6z"/>
		<path class="st19" d="M751.3,179.6c1.2,9.5,2.9,19,5.2,28.3c1.2,4.7,2.4,9.4,4,14c0.6,1.7,1,3.2,1.4,5.1c0.3,1.2,2.3,4.7,2,5.7
			c2.2-9.3,2.9-18.7,4.7-28.1c0.3-1.3,0.9-3,0.8-4.3c-0.1-1.5-1.2-2.6-1-4.3c0.2-1.4,0.8-2.6,1.3-3.9c1.2-3.1-0.4-5.1-0.5-8.1
			c0-3.7-0.1-7.4-0.1-11.2c0-4-0.1-6.6,1.6-10.2c1.2-2.5,2.5-4.9,3.8-7.3c1.5-3,3.6-7.4,2.7-10.7c-2.8-1-5.6-2-8.5-2.9
			c-2,1.8-2.7,5.5-3,8.1c-0.6-0.2-0.9-1-0.8-1.6c0-0.7,0.2-1.3,0-2c-1-2.9-3.7,2.3-4,3.1c-0.7,2.1-0.6,4.5-0.5,6.8
			c0.2,3.6,0.4,7.4-1.3,10.6c-0.9-5.6-1-12.4-3-17.7c-1.4-3.7-5-5.1-5-9.8c0-0.8,0.1-1.7,0.1-2.6c-1.9-0.5-3.8-1.1-5.6-1.6
			C745.3,149.9,749.3,164.8,751.3,179.6z"/>
	</g>
	<path class="st19" d="M784.4,216.9c-0.1-0.2,0.2-1.7,0.2-2c0.1-0.7,0.1-1.4,0.2-2.1c0.1-1.3,0.1-2.7,0-4c-0.1-2.9-0.3-5.8-0.6-8.6
		c-0.2-1.8-0.4-3.6-0.7-5.4c-0.2-1.6-0.7-3.1-1.2-4.7c-0.2-0.7-0.2-2.1-0.7-2.6c-0.7-0.9-0.9,0.6-0.9,1.2c0,1.4,0.4,2.4,0.7,3.7
		c0,1,0.4,1.9,0.4,2.9c0,0.9-0.1,1.9-0.1,2.8c0,0.3,0,0.6-0.2,0.8c-0.3,0.2-0.6-0.2-0.7-0.5c-1.6-2.9-2.3-6.5-1.9-9.9
		c0-0.2,0.1-0.4,0-0.6s-0.2-0.3-0.4-0.2c-0.2,0.1,0,0.5,0,0.6c-0.1,0.3-0.3,0.5-0.3,0.8c-0.1,0.8-0.2,1.6-0.2,2.3
		C778,200.4,779.4,210.3,784.4,216.9z"/>
	<path class="st19" d="M771.9,214.4c-0.2-2.7-0.3-5.5-0.5-8.2c-0.1-1.6-0.2-3.2,0.1-4.8c0.3-1.6,1-3.1,2.3-4.1
		c0.4,2.8,0.7,5.6,0.8,8.4c0.1,2.3,0.1,4.6,0.1,6.9c0,1.7,0,3.4,0,5.1c0,0.6,0,1.2-0.3,1.7C772.5,222.2,772,215.2,771.9,214.4z"/>
	<path class="st19" d="M790.9,172.5c-0.5-2.4-0.9-4.9-1.2-7.3c-0.3-2.2-0.3-7.9-2.1-9.1c-1.8,2-1.4,6.1-0.9,8.7
		C787.3,167.6,790.4,170.2,790.9,172.5z"/>
	<path class="st19" d="M794.4,168.9c-0.4-1.9-0.7-3.8-1-5.7c-0.3-1.7-0.2-6.2-1.6-7.1c-1.4,1.5-1.1,4.8-0.7,6.8
		C791.6,165.1,794.1,167.1,794.4,168.9z"/>
	<path class="st19" d="M534.9,402.5c3.1-1.3,6.3-2.4,9.5-3.4c-0.9,0.3-3,5.4-3.7,6.4c-1.4,2.2-2.9,4.4-4.6,6.5
		c-3.1,4-7.8,7.3-10.7,11.4c-2.7,3.8-4.5,8.4-7.3,12.3c-3.4,4.7-7.1,9.2-11.1,13.5c-20.8,22.5-51.3,45.5-81.8,52
		c0.6-11.7-4.6-21.7,2.5-32.4c3.5-5.3,8.4-9.5,13.3-13.6c6.8-5.8,13.4-11.8,20.1-17.7c10.4-9.1,21.4-16.3,33.1-23.7
		c-1.4,0.9-2.9,5.3-3.9,6.8c-1.6,2.5-3.5,4.8-5.5,7c-1.9,2-4,3.8-6.1,5.6c-2,1.7-3.2,3.7-4.9,5.7c-3.7,4.4-5.3,10.2-10.1,13.8
		c13.6-10.2,28.9-17.9,42.1-28.6c3.3-2.7,6.7-5.3,9.7-8.2c2.1-2.1,3.4-4.5,5.9-6.2C525.7,406.8,530.2,404.4,534.9,402.5z"/>
	<path class="st19" d="M491.3,387.4c-18.9,16.5-37.7,33-56.6,49.5c4.5-1.9,9.1-3.1,13.6-5c3.4-1.4,6.9-2.9,9.5-5.5
		c2.3-2.5,3.8-5.9,6.9-7.4c2.1-1.1,4.7-1,6.9-2c2.5-1,4.3-3.1,6-5.1C483.9,404.4,489.4,397,491.3,387.4z"/>
	<path class="st19" d="M524.7,463.1c-10.6,3.7-19.5,10.8-29,16.4c-9.9,5.9-19.1,13.1-27.2,21.3c0.8,4.3-0.3,8.1,0.5,12.4
		c2.9,2.2,9.5,3.1,11.9-0.2c0.9-1.1,0.7-3.3,1-4.6c0.7-2.9,1.9-5.7,3.5-8.2c4.7-7.6,16-16.6,25.2-16.9c-1.6,4.6-4,7.6-7,11.5
		c-0.5,0.7-1.1,1.6-0.6,2.3c0.8,1.3,5.6-2.5,6.6-3.2c2.7-1.7,3.4-4.3,5.2-6.9c2.8-4.1,4.9-8.1,6.7-12.8
		C523,470.1,524.7,467.9,524.7,463.1z"/>
	<path class="st19" d="M491.6,507.5c-0.8,0.9-1.9,2-3,1.5c-0.8-0.3-1.2-1.2-1.1-2c0.1-0.8,0.5-1.6,1-2.3c1.9-2.7,5-5.5,8.3-6.2
		C498.1,501.5,493.2,505.6,491.6,507.5z"/>
	<path class="st19" d="M788.7,290.8c1.6,10.8,3.2,21.6,4.8,32.4c-4-0.9-5.6-5.7-6.4-9.8c-2.3-12-5.7-27.1-3.7-39.2
		C788.3,277.2,787.9,285.6,788.7,290.8z"/>
	<path class="st19" d="M543.5,360.7c1.4-1.9,2.9-3.8,4.3-5.6c2.3-2.9,5.6-6,9.1-4.9c2.1,0.7,3.4,2.9,3.7,5.1
		c0.3,2.1-2.3,9.9-0.5,11.3c1.4,1.1,3.2-0.8,3.9-2.3c4.7-9.9,13.3-27.2,11.4-38.3c-10.7,1.5-21,14-28,21.4
		c-7.6,8-18.1,16.4-21.8,27.1c-1.8,5-1.4,10.2,3.5,4.6C534.2,373.3,538.8,366.9,543.5,360.7z"/>
	<path class="st19" d="M521.9,386.8c-3.1,2.7-6.1,5.5-8.8,8.6c-0.7,0.8-1.4,1.7-1.4,2.7s1.3,2,2.1,1.3c4.3-2.6,7.4-7.3,8-12.3"/>
	<path class="st19" d="M859.3,363.4c-3.2,0-9.8-7.6-11.2-10c-3.8-6.5-6.7-13.4-9.7-20.3c-1.1-2.5-10.7-31.8-8.8-31.6
		c9.7,1.1,9.7,20.4,12.3,27.9c1.1,3.2,2,9.7,5.9,10.4c-1.7-2.5-2.4-5.7-1.3-8.6c4,7.1,8.1,14.3,12.1,21.4c0.9,1.6,1.8,3.2,2.1,4.9
		C861.5,361.9,860.8,363.5,859.3,363.4z"/>
	<path class="st19" d="M776.7,327.9c1.3,2.4,2.5,4.9,3.8,7.3c0.4,0.9,1.9,5.7,3.2,5.4c1-0.3,0.3-7.5,0.2-8.5c-0.3-3-1-6-2.1-8.9
		c-0.4-1.1-0.9-2.2-1.8-3c-0.9-0.8-2.3-1.1-3.3-0.4c-1,0.7-1.1,2.1-1.2,3.2c-0.5,8.9-1,17.9-1.4,26.8c-0.1,2.1-0.2,4.3,0.3,6.3
		c0.3,1.1,0.8,2.3,1.5,3.2c0.2,0.3,0.8,1.2,1.1,1.2c1.7,0.3,0.3-5.7,0.2-6.7c-0.4-3.1-0.8-6.3-1.1-9.4
		C775.7,340.1,778.4,331.4,776.7,327.9z"/>
	<path class="st19" d="M883.3,436.7c-0.5,0-0.9,0.4-0.6,0.9c1.5,2.7,1.5,5.9,2,8.9c1.2,8,2.1,16,3.4,24c0.7,4.4,3.1,8.9,2.8,13.4
		c-0.4,5.8-5.3,6.7-8.7,1.5c-1.5-2.3-1.9-5-2.3-7.7c0-2.9-0.9-6.1-1.4-9c-0.5-3.2-1-6.3-1.5-9.5c-0.5-3-0.9-6-1.4-9
		c-0.2-1.5-0.5-3-0.7-4.5c-0.2-1,0-6-1.8-3.4c-0.4,0.6-0.7,1.2-1,1.8c-0.5,1.2-0.9,2.6-1.1,3.9c-0.4,2.8-0.3,5.8,0,8.6
		c0.7,8.9,1.4,17.8,2,26.7c0.3,3.4,0.5,6.9,2,10c1.7,3.6,4.8,4.1,7.2,6.5c2.5,2.5,2.6,7,7.7,6.4c4-0.5,6.2-4.7,7.7-8.4
		c1.3-3.2,2.6-6.5,3-9.9c0.5-5.1-2.2-10.7-3.5-15.6c-1.5-6-3.7-11.8-5.8-17.6c-1.5-4.1-3.4-8.1-5-12.1c-0.4-1.1-1.3-5.3-2.3-5.7
		C883.7,436.7,883.5,436.7,883.3,436.7z"/>
	<path class="st19" d="M893,437c-0.1,0.2-0.4,0.3-1,0c-0.5-0.2-1-0.6-1.4-1.1c-0.8-0.9-1.4-1.9-2-2.9c-1.1-1.9-2.2-4.3-2.3-6.5
		c-0.2-5.9,3.3,0.9,4,2.6c0.6,1.3,0.9,2.7,1.4,4.1C891.8,433.7,893.3,436.3,893,437z"/>
</g>
<g id="Layer_4_1_" class="st3">
	<path class="st20" d="M285.1,423.1c-3.1,16.4-5,34.9,4.8,48.4c9.7,13.4,27.5,17.3,43.8,19.8c73.1,11.2,147.2,12.3,221.1,13.4
		c36.7,0.5,73.3,1.1,110,1.6c18.5,0.3,38.5,0,53.1-11.3c13.9-10.9,19.3-30,18-47.7c-1.3-17.6-8.4-34.3-15.5-50.5
		c-35.3-80.2-74.6-158.8-117.5-235.2c-11.5-20.5-23.8-41.4-42.6-55.5c-18.7-13.9-65.1-32.7-88.3-22.9c-22.1,9.3-47,48.6-61.7,67
		c-40.7,51.1-73.4,108.6-96.4,169.8C301.3,353.4,291.6,387.9,285.1,423.1z"/>
</g>
<g id="dragon" class="st3">
	<path class="st21" d="M448.3,468.8c-12.4-29.9-11.4-65,2.6-94.2c9.5-19.8,24.4-36.5,34.9-55.7s16.3-43.4,6.2-62.8
		c-10.3-19.9-33.6-28.8-55.4-33.9c-54.6-12.8-112.4-11.6-166.4,3.5c-14.8,4.2-30.5,9.4-45.3,4.9c-13.9-4.2-24.5-16.9-28-31
		s-0.6-29.3,6-42.3c12.4-24.4,36.9-40.8,62.9-49.3s53.7-10,81-11.3c44.3-2.1,89.2-3.8,132.3,6.6c43.1,10.4,84.8,34.5,106.6,73.1
		c21,37.1,21.4,82.8,11.4,124.3s-29.2,79.9-46,119.1c-8.8,20.6-16.3,46.6-1.8,63.7c3.7,4.4,8.5,7.7,12,12.3s5.1,11.3,1.8,15.9
		c-4.2,5.8-30.4,9.8-37.7,12.4c-11.6,4.1-16.2,6.2-28,0.7C475.5,514.5,457.3,490.5,448.3,468.8z"/>
	<path class="st22" d="M356.9,16.3c-16.2-6.4-34.8-1.1-50,7.5s-28.6,20.2-44.2,27.9C235.9,64.8,205,65.2,175.8,71
		s-60.3,19.9-70.7,47.8c-6.1,16.4-4.3,32.6-3.5,49.6c0.8,15.6-3.7,32.1-5.9,47.7c-0.3,2.1-0.2,4.8,1.7,5.5c2,0.7,3.8-1.5,4.8-3.5
		c4-7.8,8.1-15.6,12.1-23.5c1.8-3.6,3.7-7.2,4.4-11.2c1.4-8.7-6.3-17.4-8-25.8c-5-23.9,5.2-47.3,24.5-61.7
		c21.3-15.9,48.5-15.1,73.3-20c8.6-1.7,16.8-5.8,25.7-7.3c22.7-3.8,37.7-13.2,56.4-25.3c10.1-6.6,20.5-12.8,31.6-17.5
		C333.8,20.9,345.8,20.9,356.9,16.3z"/>
	<path class="st23" d="M299.7-45.1c6.4-3.6,12.8-7.3,19-11.3c3.2-1.2,6.6-2.4,10-2s6.8,3,6.9,6.5c0.1,7.8-26.4,18.6-32.3,21.8
		C290.1-23,278-13.8,267.7-3c-6.5,6.7-21.6,17.9-21.2,27.6c0.2,6.2,33.6-8.8,36.5-10c2.8-1.1,6.3-2.2,8.7-0.2c2.4,1.9,2,5.9,0,8.3
		c-2,2.4-5,3.5-7.9,4.5c-25.5,9.1-56.8,14.5-74.8,36.1c-3.5,4.2-20.1,30.5-27.4,26.7c-7.5-3.8,9.3-27.3,11.6-30.9
		c7.9-12.6,19.9-24.9,26-38.2c6.5-14.4,14.2-36.7,14.4-52.5c0.1-4.7-0.1-11.3,3.3-15.1c4.2-4.6,7.1-3,7.5,3.4
		c1.1,14.9,0.4,30-2.1,44.7c0.3-1.6,8.4-9.9,10.2-11.9C265.5-25.3,282.4-35.4,299.7-45.1z"/>
	<path class="st24" d="M257.5,240.2c4.3-4.2,8.8-9.2,8.4-15.1c-0.4-4.8-4.1-8.8-8.5-10.7c-4.4-1.9-9.3-2-14.1-1.7
		c-30.9,2-56.1,21.2-71.7,46.9c-4.9,8.2-18.8,23.3-16.9,33.6c2.7,14.6,23.4,15.3,33.8,10c7.5-3.8,13.2-10.2,18.8-16.4
		C222.5,269.9,241.3,256.1,257.5,240.2z"/>
	<path class="st25" d="M169.9,229.2c-9.4,12.4-10.7,34.6-14.8,49.3c-1.9,6.9-3.1,15.9,3,19.7c3.6,2.2,8.4,1.4,12-0.9
		c5.6-3.7,8.2-10,12.4-14.9c11.8-13.7,26.2-25.7,39.2-38.2C250.6,216.2,186.2,207.7,169.9,229.2z"/>
	<path class="st21" d="M158.6,93.3c-3,2-5.9,4.1-8.8,6.3c-15.2,11.7-18.2,34.3-24.3,51.9c-3.6,10.6-7.3,21.2-12.5,31.1
		c-6.7,12.8-19.8,23.4-25.4,36.3c-4.5,10.3-4.8,26.5-4.7,37.5c0,11.9-1.3,21.1,9.2,26.9c23.5,13,42.6,13.2,65.8,1.5
		c13.1-6.6,25.7-14.6,35.6-25.2c6.6-7,13.5-13.6,21.8-18.5c10.8-6.3,7.8-1.2,14.7,4.6c13.2,11.2,29.4-8.8,38.2-15.8
		c12.1-9.5,26.9-13.3,36.8-26.2c15.8-20.5,11.9-46.7,4.3-69.4c-4.7-14-8-32.7-19.1-43.2c-7.2-6.8-15.8-12-25.1-15.3
		c-10.9-3.9-16-0.4-26.3,4.3c-5.1,2.3-10.6,4.7-16.1,4.1c-6.7-0.8-6.8-6.9-11.5-9c-4.4-2-11.9,0.3-16.2,1.5
		C181.7,80.3,169.8,85.9,158.6,93.3z"/>
	<path class="st23" d="M390.3,28.7c37.6-18.3,81.8-29,121.5-43.1c3.3-1.2,6.8-2.4,10.3-1.9c11.4,1.4,6.1,10.4,0.7,14.4
		c-7.2,5.2-20.2,8.3-28.6,11.4c-16.8,6.3-33.9,11.6-50.7,18.1c-2.1,0.8-3.7,1.4-4.6,3.5c-1.9,4.5,30.7,8.9,33.4,9.3
		c2.7,0.5,30.4,8.4,19.2,14.4c-2,1.1-4.5,0.6-6.7,0.2c-27.2-5.7-57.5-9.3-85.4-7.7c-20.7,1.2-41.7,11.5-60.1,20.7
		c-11.2,5.6-19.5,15.2-31.2,20.5c-7.8,3.5-27.5,19.6-35.5,12.5c-9.7-8.6,19.5-20.8,25.4-24.3C327.8,59.1,359,43.9,390.3,28.7z"/>
	<path class="st22" d="M559.1,107.4c-18.1-5.5-39.3-1.1-54.6,9.8c-13.8,9.8-23.8,25.1-39.3,31.8c-29.3,12.6-64.5-10.3-94.5,0.9
		c-22.1,8.2-34.8,32.8-56.7,41.5c-13.7,5.4-29.1,3.9-43.5,0.9c-14.1-2.8-27.9-6.9-42.3-8c-18.7-1.4-34,10-46.7,22.3
		c-7.1,6.9-13.6,14.5-20.4,21.6c-3.9,4.1-14.9,16.4-5.5,17.7c5.8,0.8,16-14.1,20-17.8c8.1-7.6,16.8-14.6,25.4-21.6
		c18.7-15.2,30.8-14.4,54.8-10.7c20.2,3.1,40.7,13,60.3,7.2c20.7-6.2,32.8-27.8,51.9-38c16.4-8.8,35.3-7.9,53.3-6.4
		c14.5,1.2,34.4,6.5,47.9-0.7c13.7-7.3,23.2-22.9,36.4-31.6c16.8-11.1,34.7-15.3,54-18.9C559.4,107.5,559.2,107.5,559.1,107.4z"/>
	<polygon class="st26" points="506,264.1 494.9,242.9 507.8,222.8 531.6,223.8 542.6,245 529.8,265.1 	"/>
	<polygon class="st27" points="550.3,239.7 539.2,218.5 552.1,198.4 575.9,199.5 586.9,220.6 574.1,240.7 	"/>
	<polygon class="st26" points="546.7,291.5 535.6,270.3 548.5,250.2 572.3,251.3 583.3,272.4 570.5,292.5 	"/>
	<polygon class="st26" points="509.1,320 498.1,298.8 510.9,278.7 534.7,279.8 545.7,300.9 532.9,321 	"/>
	<polygon class="st26" points="457.7,431 446.7,409.8 459.5,389.7 483.3,390.7 494.4,411.9 481.5,432 	"/>
	<polygon class="st26" points="505.3,406.8 494.3,385.6 507.1,365.5 530.9,366.5 542,387.7 529.1,407.8 	"/>
	<path class="st27" d="M488.3,384.4l12.8-20.1l-11-21.2l-18.1-0.8c-5.6,8.1-11.2,16.3-15.9,24.9l8.4,16.1L488.3,384.4z"/>
	<ellipse class="st28" cx="94.6" cy="228.6" rx="3.7" ry="6.9"/>
	
		<ellipse transform="matrix(0.4364 -0.8997 0.8997 0.4364 -141.2966 246.9551)" class="st28" cx="126.5" cy="236.3" rx="6.9" ry="3.7"/>
	<path class="st22" d="M171.3,151.5c1.2-2.8,2.5-5.3,2.9-8.3c0.5-3.4,0.7-6.8,1-10.2c0.1-1,0.9-3.8-0.6-3.8c-1.1,0-1.9,2.5-2.2,3.3
		c-2.8,8.5-6.2,16.8-10,24.8c-3.8,8-9.1,15.3-13,23.2c-6.8,13.9-21.7,22.9-31.2,35.2c-4.1,5.3-20.3,21.4-13.3,29.4
		c5.1-3.5,6-11.1,9.4-16c5.1-7.4,12.4-14.6,18.9-20.7c9.1-8.6,16.9-18.4,23.7-28.9C162.7,170.7,167.3,161.2,171.3,151.5z"/>
	<path class="st22" d="M122.7,215.1c1.9,0.4,3.9,0.4,5.8,0.4c6.3-0.1,12.6-0.2,18.9-0.3c-1.1-2-3.4-3-5.6-3.2s-4.5,0.3-6.7,0.6
		c-8.8,1-15.3-2.3-23.1-5.3C113.7,210.8,118.8,214.2,122.7,215.1z"/>
	<path class="st22" d="M135.2,205.9c2.8,0.2,5.7,0.5,8.6,0.4c0.9,0,1.6,0,2.5,0.1c0.7,0.1,1.3,0.3,2,0.3c0.3,0,1.5-0.4,1.7-0.3
		c-2.9-1.5-6.1-4-9.4-4.3c-1.2-0.1-2.5,0.2-3.8,0.2c-1.6,0-3.2-0.2-4.7-0.4c-2.7-0.4-6.2-1.3-8.1-3.5c-0.5-0.6-1.3-1.2-2.1-0.9
		c1.2,2.3,1.9,5.7,4.3,6.9C128.9,205.8,132.2,205.7,135.2,205.9z"/>
	<path class="st22" d="M264.5,125.4c11-8.8-3.4-21.5-30.2-20.2c-26.7,3.4-34.2,24.1-28.6,27.7c5.4,4.3,22.9,1.4,31.9,4.4
		C245.9,139.2,253.1,135.5,264.5,125.4z"/>
	<path class="st21" d="M263,129.1c11-8.8-3.4-21.5-30.2-20.2c-26.7,3.4-34.2,24.1-28.6,27.7c5.4,4.3,22.9,1.4,31.9,4.4
		C244.4,142.9,251.6,139.2,263,129.1z"/>
	<path class="st8" d="M260.7,133c1.4-1.4,2.4-3.1,2.7-5.1c1.7-11.3-26.5-11.3-32.3-11.1c-25.5,2.5-32.6,18.2-27.2,20.9
		C219.4,145.4,247.4,145.9,260.7,133z"/>
	
		<ellipse transform="matrix(0.4364 -0.8997 0.8997 0.4364 -12.9029 202.6786)" class="st22" cx="155.3" cy="111.6" rx="24.9" ry="18"/>
	
		<ellipse transform="matrix(0.4364 -0.8997 0.8997 0.4364 -17.141 200.9123)" class="st21" cx="151.8" cy="114.1" rx="24.9" ry="18"/>
	<path class="st8" d="M135.8,115.3c-3.8-5.9,4.3-11.3,16.3-7.6c11.6,4.7,12.3,16.7,9.3,18C151.5,130,140.9,123.3,135.8,115.3z"/>
	<circle class="st29" cx="223.5" cy="130" r="13.2"/>
	<path class="st29" d="M224.1,121.4c-7.9,0-14.2,5.9-14.2,13.2c0,2.2,0.6,4.3,1.6,6.1c7.2,1.9,15.5,2.8,23.6,2.3
		c2-2.3,3.2-5.2,3.2-8.4C238.3,127.3,231.9,121.4,224.1,121.4z"/>
	<path class="st29" d="M151.8,114.1c-7.3,0-13.2,4.9-13.2,11c0,1.8,0.5,3.6,1.5,5.1c6.7,1.6,14.4,2.3,22,1.9c1.9-1.9,3-4.4,3-7
		C165.1,119.1,159.1,114.1,151.8,114.1z"/>
	<path class="st29" d="M161.3,125.7c2.5-1.1,2.4-9.4-4.1-14.9c-1.7-0.6-3.5-1-5.4-1c-6.6,0-12.1,4-13.1,9.3
		C144.4,125.2,153.1,129.3,161.3,125.7z"/>
	<path class="st29" d="M230.7,134.6c0-7.3-6.4-13.2-14.2-13.2c-1,0-1.9,0.1-2.8,0.3c-7.6,3.9-11.1,9.1-11.4,12.6c0,0.1,0,0.1,0,0.2
		c0,0.1,0,0.2,0,0.3c0,0.1,0,0.3,0,0.4c0.1,1.2,0.7,2,1.6,2.5c6.1,3,14.2,4.9,22.6,5.3c0.3,0,0.7,0,1,0
		C229.5,140.8,230.7,137.8,230.7,134.6z"/>
	<path class="st30" d="M475.1,234.8c-1.4,6.4-8.3,9.6-13.5,13.5c-3.6,2.7-8.4,10-9.2,14.4c-1.9,11.2,9.1,3.2,11.8,10.2
		c2.6,7-15.4,6.4-19.2,11.1c-3.9,4.8-2,11.2-5.8,16.1c-4.7,6-8.7,0.4-8.8-4.7c-0.1-5.8-8-1.6-10.8-1.1c-1.6,0.3-4.9,2.1-6.5,0.9
		c-1.1-0.8-1.9-7.8-0.7-7.7c-3.3-0.2-10.6,1.7-13.4-0.5c-5.3-4.1,3.7-9.8,8.4-10.6c5.5-1,11.4,0.1,16.7-1.5
		c8.2-2.4,13.5-10.5,16.4-18.6s4.1-16.8,7.9-24.5c2.7-5.5,9.8-14.7,17-13.2C471.4,219.8,476.3,229.2,475.1,234.8z"/>
</g>
<g id="ice">
	<path class="st31" d="M184.7,531.5c16.1-18.2,36.2-38.8,47.6-61.5c10.2-20.2,19.9-39.8,35.9-54.5c16.3-15,35.9-28.3,49.8-46.4
		c10.8-14.1-3.4-53.4-6.6-71.7c-3.1-17.6-6.3-47.3-16-61.9c-5.8,3.4-11.1,10.4-14.5,15.1c-11.8,16-18.1,36.6-30.8,51.6
		c-12.1,14.3-21.1,29.6-31.7,45.2c-4.6,6.7-9.3,15.6-15.9,20.1c-0.6,1.6-1.1,3.2-1.5,5c-2.3,10.3,1.5,20.5-0.2,30.7
		c-3,19-19.8,39.9-27.7,56.8c-6.3,13.6-15.9,33.1-18.4,48c-0.8,4.6-0.1,9.1,0.9,13.6c0.6,2.4,1.3,4.8,1.9,7.2
		c0.4,1.7,0.5,5.4,1.3,6.8c1.8,2.9,8.5,1.9,11.3,1.6C175.1,536.7,181,535.7,184.7,531.5z"/>
	<path class="st32" d="M480.1,494.2c-6.8-15.4-13.5-30.9-20.9-46c-11.3-23.2-34.7-32.9-45.7-55.8c-3.1-6.5-6.4-12.9-9.7-19.2
		c-7.9-4.8-15.2-11.4-23.5-11c1,9.5-2.5,13.4,0.9,23.1c3.1,8.9,6.3,16,7.2,25.6c-12.8-2-27.7-13.9-40.1-20.2
		c-11.9-6-21.1-13.5-29.2-23.2c-0.3,0.6-0.7,1.1-1.1,1.6c-13.9,18.1-33.5,31.4-49.8,46.4c-16,14.7-25.7,34.3-35.9,54.5
		c-13,25.8-33.5,43.6-50.7,65c7.5-0.6,14.5,1.2,21.9,1.2c11.4,0.7,17,2.8,27.5,8.2c18.8,9.6,39.3,8.9,58.7,14.9
		c20.2,6.2,41,9.2,61.8,9c9.5-0.1,27.6,2,36.1-3.6c8.6-5.7,10.8-16,22.6-17.9c15.9-2.7,26.1,11.4,42.9,6.5c8-2.3,15.6-6.2,22.4-11.5
		c9.9-7.6,12.6-6.5,24.6-6.6C495.7,521.3,486,507.6,480.1,494.2z"/>
	<path class="st31" d="M354.6,409.9c2.2,0.4,4.4,0.7,6.7,1.1c5,0.9,10,2.4,15,2.7c3.7,0.2,7.5-1.3,11.1-2.1c-0.7-7.7-9.6-6.9-14.3-8
		c-8.3-1.9-17.1-8.1-23.7-14.2c-7.1-6.5-14.6-13-22.2-18.4c-5-3.6-11.9-5.4-17.7-4.5c-6.3,0.9-10.9,7.1-16.2,10.8
		c-4.7,3.3-10.2,5.4-9.2,12.6c1.7,12.2,17.6-1,22.8-1.9c12.6-2.1,20.7,6.3,30,14.7C342.1,407.4,348.3,408.9,354.6,409.9z"/>
	<path class="st31" d="M376.6,364.2c-0.2,0.6-1.7,4-0.4,3.7c0.4-0.1,0.3-0.6,0.8-0.5c0.3,0.1,0.6,0.6,0.7,0.8
		c0.4,0.7,0.6,1.6,1.1,2.2c0.8,0.9,2.3-1.7,3.3-1.9c1.3-0.2,3.1,1,4.3,1.4c2.2,0.7,4.4,1.4,6.5,2.1c1.8,0.6,3.4,1.6,5.1,2.4
		c1.3,0.6,2.3,0.5,3.7,0.7c0.8,0.1,2,0.2,2.6-0.5c-0.8-3.1-3.4-4.9-5.3-7c-3-3.4-5.2-6.7-9.4-8.1c-2.9-1-8.6-2.3-11.2,0.2
		C377.1,361,377.2,362.5,376.6,364.2z"/>
	<path class="st16" d="M348.3,390.7c12.4,6.3,27.3,18.2,40.1,20.2c-0.9-9.5-4.1-16.7-7.2-25.6c-3.4-9.8,0.1-13.6-0.9-23.1
		c8.3-0.5,15.6,6.2,23.5,11c-8.5-16-17.6-31.7-26.3-47.4c-9.3-16.9-24.6-30.9-36.7-45.2c-6.9-8.1-13.5-15.2-19.2-24.2
		c-4.8-7.6-10-21.9-19.2-22.7c-2.3-0.2-4.7,0.6-6.9,1.9c9.7,14.6,12.9,44.3,16,61.9c3.1,17.7,16.4,54.8,7.7,70.1
		C327.2,377.1,336.5,384.7,348.3,390.7z"/>
	<path class="st31" d="M110.3,498.8c4-10.4,8.2-20,14.1-29.3c6.4-9.9,17.1-18.2,21.8-29.1c3.9-9.1,4.3-18.7,9.9-26.7
		c5.3-7.5,13.9-12.3,14.4-23.2c0.4-8.7-5.3-14.7-8.6-21.6c-1.2-2.6-2.2-7.6-3.6-11.6c-3.8,0.9-7.5,2.8-11.1,6.1
		c-13,11.6-24.2,30.1-32.1,46.8c-9.2,19.4-20.6,36.9-30.2,55.9c-3.7,7.4-22.5,72.1-21.8,72.4l23.5-0.2c3.1-7,5.9-14.3,10-20.5
		C101.8,510,106.8,507.7,110.3,498.8z"/>
	<path class="st32" d="M168.1,398.9c-3.1,5.6-8.3,9.5-12,14.8c-5.6,8-5.9,17.6-9.9,26.7c-4.7,10.9-15.5,19.2-21.8,29.1
		c-5.9,9.3-10.1,18.9-14.1,29.3c-3.4,8.9-8.4,11.2-13.6,18.9c-4.1,6.1-6.9,13.5-10,20.5c0.1-0.3,3.7-0.1,3.9,0
		c2,0.5,3.5,2.3,5.3,3.8c4.1,3.5,8.6,6.7,13.6,8.2c6.9,2.1,14.2,0.8,20.9-2.1c4.5-2,7.5-5.9,12.3-5.8c6.3,0.2,10.1-4.7,16-4.5
		c0.1-1.2,0.1-2.5-0.1-3.7c-1.4-8.9-5.5-16.7-3.9-26.1c2.5-14.9,12.2-34.4,18.4-48c3.9-8.4,9.9-17.7,15.4-27.3
		c-4.8-8.5-9-18.1-14.4-25.6C172.1,404.2,170.1,401.5,168.1,398.9z"/>
	<path class="st31" d="M169.9,412.2c1.5,1.3,3.3,1.9,4.7,3.4c1.3,1.4,2.3,2.7,3.8,3.9c2.4,2,6.3,5.7,7.2,0.5
		c1.1-6-2.4-14.1-5.9-18.1c-4.5-5.2-13.5-12-19.5-6.4c-2.2,2.1-5.1,6.4-3.5,10c1.2,2.5,4.6,1.5,6.6,1.6
		C166.4,407.3,167.5,410,169.9,412.2z"/>
	<path class="st16" d="M200.9,372.4c0.4-1.7,0.9-3.4,1.5-5c-1.1,0.7-2.3,1.4-3.5,1.8c-10,3.8-14.9-5.1-23.3-9.3
		c-6-3-11.7-4.1-17.3-2.8c1.4,4,2.3,9.1,3.6,11.6c3.3,6.9,9.1,13,8.6,21.6c-0.2,3.3-1.1,6-2.4,8.4c2,2.7,4,5.4,6,8.1
		c5.3,7.5,9.6,17,14.4,25.6c5.6-9.8,10.7-19.9,12.2-29.5C202.3,392.9,198.6,382.7,200.9,372.4z"/>
</g>
<g id="fire">
	<path class="st33" d="M825.9,353.1c-2.5,6.9-0.1,13-5.6,18.8c-2.6,2.7-5.5,4-8.4,6c-4.1,2.8-2,6.2-5.3,9.1
		c-3.3,2.9-8.7,4.8-13.3,6.5c3.4,1.9,6.6,4.1,9,7.5c8.7,12.3,6.7,29.6,10.8,43.7c4.9,17.1,16.3,32,24.3,47.1
		c6.8,12.8,9.7,32.3,17.3,43.6l57.3-0.3c-6.6-10.4-12.9-20.3-18.3-31.7c-3.5-7.3-3.6-14.2-5.7-21.6c-4.5-15.9-19.8-25.5-23.5-41.7
		c-1.6-6.8,0.7-14.3,1.5-20.6c1.2-9.3-1.6-12.7-5.3-20.6c-4.7-10-8.6-25.9-16.2-33.4c-4.1-4-9.1-4.1-12.6-9.4
		c-1.5-2.2-2.4-4.8-3.1-7.5C827.8,350,826.6,351.3,825.9,353.1z"/>
	<path class="st19" d="M806.4,337.3c-7.1,16-12.5,35.1-19.8,52.7c2.4,1.6,5,2.9,7.5,4.3c4.6-1.7,9.9-3.6,13.3-6.5
		c3.3-2.9,1.2-6.3,5.3-9.1c2.9-2,5.9-3.3,8.4-6c5.5-5.7,3.1-11.9,5.6-18.8c0.7-1.9,1.9-3.1,3-4.4c-1-3.8-1.5-7.9-2.6-11.4
		C821.6,321.1,812.2,324.3,806.4,337.3z"/>
	<path class="st19" d="M838.3,492.6c-8.1-14.8-19.4-29.5-24.3-46.2c-4.1-13.9,1.3-32-7.4-44.1c-2.4-3.3-3.2-10.2-6.6-12.1
		c-2.5-1.4-5.7-10-8.1-11.6c-1.1,2.5-7.4,18.3-8.6,20.7c-4.5,9.3-9.7,17.9-16.3,24.9c-5.6,5.9-10.6,9.7-14.5,17.6
		c-4,8.1-2.2,16.7-3.8,25.4c-2.4,13.2-6.6,27.1-11.7,39.3c-4,9.4-14.9,20-16.9,29.4l135.5-0.6C847.9,524.4,845.1,505.2,838.3,492.6z
		"/>
	<path class="st34" d="M624,267.9c-0.6-4.9-2.5-9.8,0.1-14.1c2.3-3.8,6.4-5.7,9.4-8.6c4.5-4.3,11.6-8.9,17.5-9
		c6.6-0.2,7.2,6,11.8,7.6c4.4,1.5,4.3-0.8,8.2-3.8c12.3-9.7,22.8-6.7,35.1,0.5c6.9,4.1,30.8,5.9,24.1,22.3
		c-3.3,8.1-11.7,11-13.9,19.7c-2.4,9.6-7.2,17.6-15.7,21.8c-12,5.9-23.4,12.7-36.7,11c-8.8-1.1-15.8-4.6-21.8-12.3
		c-2.8-3.6-6.3-6-8.9-9.8C628.4,286.4,625.1,276.5,624,267.9z"/>
	<path class="st35" d="M635.7,260.2c-2.7-7.3-1.8-25.6-1.5-34.1c0.3-7.3,0.7-18.5,3.1-25c3.4-9,4.2-18.9,3.6-28.7
		c-0.3-4.6-1.7-9.5-1.5-14c0.1-2.8,0.9-5.3,0.9-8.1c0-6.5-2-13.1-1.1-19.6c0.8-5.9,3.6-9.3,2.4-15.8c4.6,4.6,8.3,15.5,12.2,2.8
		c2.5-8.4,3.1-20.4,1.2-29c2,1.4,1.8,5.1,2.6,7.6c1.8,5.3,8.3,11.2,10.5,3.4c1.8-6.1-0.1-12.9,1.2-19.2c0.6-2.6,5.9-12.6,2.3-14.7
		c4.2,2.4,1.7,6.3,2.4,10.3c0.6,3.2,2.8,6.4,3.9,9.7c1.2,3.8,4.1,15.9,8.7,8.9c2.3-3.4,2.8-8.6,5.2-11.8c1.7-2.2,4.1-1,5.7-2.9
		c1.6-1.8,2.3-7.8,0.4-9.5c5.8,4.1,3.5,13,2.7,19.2c-0.6,5,2.1,25.8,8.4,25.9c3,0.1,5.1-5.9,5.5-8.7c1.2,3.3,2.5,6.1,3,9.7
		c0.6,4.6-0.7,5.7-2.1,9.8c-2.6,7.4,3.5,12.5-0.2,19.2c-1.9,3.6-2.9,5.1-2.2,9.4c0.3,1.9,1.5,7.2,3,8c3.4,2,3.7-2.4,5.6-3.8
		c1.7-1.3,5.6,1.1,6.2-3c0.7,5.1-2.1,7.7-5.1,11.2c-4.2,4.9-5.7,11.3-6.5,17.9c-1,7.6,1.4,14.4-0.2,21.9c-1.5,7.4-5.2,14.6-5.2,22.6
		c0,5.2,2.6,10.5,3,15.4c0.4,6.2-2.5,8.6-3.9,14.3c-1.9,7.7-3.8,14.9-4.9,22.6c-0.9,6.2-0.8,13-6.4,16.4c-4,2.4-7.5-0.7-11.9-1.1
		c-11.1-0.9-19.7,4-30.8-0.8c-8.5-3.7-12.7-9.2-17-18c-5.6-11.2-3.1-13.6-1.3-24.9"/>
	<path class="st36" d="M700.9,196.8c1.8,6.9,3.6,13.3,4.2,21.1c1.8,20.6-0.1,41.5-10.8,58.7c-9.6,15.4-28.6,20.5-41.9,8.6
		c-7.7-6.8-6.3-11.4-5.7-21.2c0.8-12.3-0.7-24.3,1.8-36.5c4-19.5,11.1-36.7,16.4-55.6c1.6-5.8,2.5-16,7.4-18.6
		c1.2,12.6,4.5,25.3,6.1,37.5c6.6-8.9,5.4-31.5,7.3-43.3c3.8,9.4,0.8,28.2,6.5,35.4c1.4-5.9,0.4-12.5,1.6-18.5
		c-0.4,2,3.1,9.5,3.6,12c1.1,5.3,1.1,11,2.4,16.2C700.2,194,700.5,195.4,700.9,196.8z"/>
	<path class="st37" d="M652.6,274.4c-1.7-3.9-0.5-13.3,0.8-17.6c1.8-5.5,4.4-4.8,7.5-8.4c3.6-4,5.7-15,5.6-20.6
		c6.7-1.3,8,6.3,10.1,11.5c0.5,1.1,1.5,1.8,1.9,3c0.4,1.2-0.2,3.9,0.7,4.7c2.3,2.1,3.5-3.7,4.7-5.5c0.1,12.9,3.6,28.9-5.8,38.5
		c-4.8,5-9.6,5.8-15.4,3.3c-2-0.9-4.7-2-6.3-3.6c-1.6-1.6-2.1-3.8-3.6-5.3"/>
	<path class="st38" d="M828.2,491.6c-8.1-15.1-19.4-30-24.3-47.1c-4.1-14.2-2.1-31.5-10.8-43.7c-5.7-8-15.9-9.2-21.9-16.7
		c-6.9-8.6-5-20.6-8.8-31c-2.2-6.2-5.6-11.7-7.9-18.3c-5.3-14.7-9-29.8-13.6-44.2c-1.6-5-2.8-16.5-5.4-25.5c-2.9,5-6.7,9.5-9.1,14.9
		c-2.6,5.7-4.6,11.1-7.8,16.4c-3.1,5.1-7.3,9-10,14.3c-3.5,7.1-9.1,11.6-12.7,18.5c-3.4,6.6-8.2,9-10,16.8c-2,8.8-4,17.3-7.5,25.6
		c-2.9,6.7-4.7,13.8-9.5,18.9c-6.3,6.7-11.6,15.6-20.6,17c-8.4,1.3-14.4,5.6-22.1,9.8c-3.6,2-7.1,4.3-10.9,5.1
		c-1.5,0.3-3.4,0-4.8,0.5c-1.9,0.7-3.3,2.9-5,3.9c-3.7,2.1-5.4-0.3-8.8-0.1c-3.3,0.1-5,3.8-7.4,5.6c-3.1,2.3-7.2,2.3-10.5,4
		c-4.1,2-7.4,5.4-11.7,6.3c-3,0.6-5.8,1.6-8.8,2.1c-2,0.3-4.2,0-6.2,0.3c-3.7,0.5-8.5,2.8-12.2,1.7c-0.8-0.2-1.6-0.6-2.3-1.1
		c-1.6,6.2-3.3,12.5-5.2,18.7c-7.8,24.8-17.4,52.2-32.9,71.5c4.3-5.3,20.5,7,24.6,8.7c10.9,4.7,22.5,7.4,34.2,8
		c28.8,1.5,52.1-17.2,79.8-16.2c30.6,1,61.4,0.2,92,0.3c12.8,0,25.6,0.1,38.4,0.1c2.9,0,6.7-0.8,9.5,0c2.2,0.6,3.9,2.3,6.1,3.3
		c4.9,2.2,10.6,1.7,15.7,1.1c9.1-1,19,2.1,28,3.5c3.7,0.6,7.5,1.1,11.1-0.2c11.4-4.2,3.5-15,0.7-22.9
		C835.5,511.7,833.2,500.9,828.2,491.6z"/>
	<path class="st38" d="M830.3,483.4c-8.1-15.1-19.4-30-24.3-47.1c-4.1-14.2-2.1-31.5-10.8-43.7c-5.7-8-15.9-9.2-21.9-16.7
		c-6.9-8.6-5-20.6-8.8-31c-2.2-6.2-5.6-11.7-7.9-18.3c-5.3-14.7-9-29.8-13.6-44.2c-1.6-5-6.7-15.4-9.3-24.4c-2.9,5-2.8,8.3-5.3,13.7
		c-2.6,5.7-4.6,11.1-7.8,16.4c-3.1,5.1-7.3,9-10,14.3c-3.5,7.1-9.1,11.6-12.7,18.5c-3.4,6.6-15.1,4.3-16.8,12.1
		c-2,8.8-6.8,15.9-10.4,24.2c-2.9,6.7-2,16.3-6.9,21.4c-6.3,6.7-4.7,19.2-13.6,20.6c-8.4,1.3-14.4,5.6-22.1,9.8
		c-3.6,2-7.1,4.3-10.9,5.1c-1.5,0.3-3.4,0-4.8,0.5c-1.9,0.7-3.3,2.9-5,3.9c-3.7,2.1-5.4-0.3-8.8-0.1c-3.3,0.1-5,3.8-7.4,5.6
		c-3.1,2.3-7.2,2.3-10.5,4c-4.1,2-7.4,5.4-11.7,6.3c-3,0.6-5.8,1.6-8.8,2.1c-2,0.3-4.2,0-6.2,0.3c-3.7,0.5-8.5,2.8-12.2,1.7
		c-0.8-0.2-1.6-0.6-2.3-1.1c-1.6,6.2-3.3,12.5-5.2,18.7c-7.8,24.8-13.3,52.1-28.9,71.4c4.3-5.3,16.4,7.1,20.5,8.9
		c10.9,4.7,22.5,7.4,34.2,8c28.8,1.5,52.1-17.2,79.8-16.2c30.6,1,61.4,0.2,92,0.3c12.8,0,25.6,0.1,38.4,0.1c2.9,0,6.7-0.8,9.5,0
		c2.2,0.6,3.9,2.3,6.1,3.3c4.9,2.2,10.6,1.7,15.7,1.1c9.1-1,19,2.1,28,3.5c3.7,0.6,7.5,1.1,11.1-0.2c11.4-4.2,3.5-15,0.7-22.9
		C837.5,503.4,835.2,492.6,830.3,483.4z"/>
	<path class="st19" d="M551.8,443.4c2-0.3,4.2,0,6.2-0.3c3-0.5,5.8-1.5,8.8-2.1c4.3-0.9,7.6-4.3,11.7-6.3c3.4-1.7,7.4-1.7,10.5-4
		c2.4-1.8,4.2-5.4,7.4-5.6c3.4-0.1,5.1,2.2,8.8,0.1c1.8-1,3.1-3.2,5-3.9c1.4-0.5,3.4-0.2,4.8-0.5c3.8-0.8,7.3-3.2,10.9-5.1
		c7.7-4.2,13.7-8.5,22.1-9.8c9-1.4,14.3-10.3,20.6-17c4.8-5.1,6.7-12.2,9.5-18.9c3.6-8.3,5.5-16.7,7.5-25.6
		c1.8-7.8,6.6-10.2,10-16.8c3.6-6.9,9.2-11.4,12.7-18.5c2.7-5.4,6.9-9.2,10-14.3c3.2-5.3,5.2-10.7,7.8-16.4
		c2.4-5.4,6.2-9.8,9.1-14.9c-1.6-5.7-3.8-10.4-6.9-11.8c-4-1.8-20.8,8.3-24.4,11.9c-6.2,6.1-3.8,18.1-5.1,27.6
		c-6.3-1.6-8.4-14.8-11.5-21c-4.9-9.6-6.9-9.4-16.1-8.9c-8.4,0.4-17.7,0.7-25.8-1.2c-9-2.1-16-11.1-23.5-2.1
		c-5.5,6.6-10.5,30-12.4,39.2c-3.6,17.4-11.1,30.7-15.9,47.2c-2.9,10.1-1.9,15.1-8.6,23.7c-6.9,8.7-13.8,10-21.7,15.2
		c-7.4,4.8-10,12.6-14,21.5c-5.7,12.8-8.9,26.1-12.3,39.5c0.7,0.5,1.4,0.9,2.3,1.1C543.3,446.1,548.1,443.9,551.8,443.4z"/>
	<path class="st36" d="M638.3,256.8c-5.3,2.2-2.8,10.4-2.1,14.5c0.9,5.4-2.9,12.3-4.5,17.6c-1.7,5.7-4.2,10.9-5.9,16.7
		c-1.8,6.4-1.3,14.2-1.5,20.8c-0.1-4.3,2.1-7.7,3.5-11.4c1.5-4,1.7-8.6,2.3-12.8c1.1,0,1.7,0.9,2.4,2c1.5,2.5,1.9,5.6,3.6,8
		c1.7,2.3,3.9,4,5.5,6.5c4,6.5,7.6,18.5,6.6,26.7c-0.8,6.7-4.4,12.1-7.8,17.2c-0.7,1.1-7.2,10.2-4.3,10.6
		c7.6,1.2,6.6-21.9,15.8-18.5c2.6,1,2.7,10.2,6.2,5.2c2.4-3.4,0-5.7-1.9-8.5c-1.5-2.1-3.5-4.4-4.3-6.9c-1.9-5.7-2.1-12.2-3.9-18.1
		c-1.6-5.3-3.4-10-6.3-14.6c-2.7-4.4-8.4-9.6-8.4-15.5c0.1-6,4.9-12.2,5.4-18.6c0.4-4.5-2.2-15,2.1-16.8c1.2-2.8-1.7-5.1-4-4.6"/>
	<path class="st36" d="M704.8,306.2c0.4,1.2,0.5,2.4,0.8,3.6c0.7,3.1,2,6,2.7,9.1c0.6,2.7,0.9,5.7,1.8,8.3c2.7,8.1,8.9,14.7,10.7,23
		c0.8,3.4,0.4,6.9,1.1,10.3c0.6,3.2,4,5.5,3.5,8.9c-4.6-1.3-4.8-7.9-5.7-12.3c-0.8-3.8-2-7.6-2.8-11.3c-4.9,2.2-7.5,9.1-10.3,14
		c-2.9,5.2-6.6,10.2-6.6,16.5c0,6,5.5,11,2.9,17.2c-1.1,2.6-3.5,5.1-4.9,7.6c-1.3,2.2-2.4,6.6-4.3,7.9c-3.2-4,4.3-11.6,5.8-15.1
		c3.2-7.6-1.7-10.9-1.4-18.3c0.3-8,4.3-14.7,8.4-21.1c2.9-4.4,7.3-9.7,6.3-15.8c-0.8-5-3.8-10.4-5.1-15.4c-1.7-6.4-3.9-12.7-6-19.1
		c-0.9-2.7-2.1-5.3-3-8.1c-0.4-1.3-0.7-2.6-1-3.8c-0.3-1.1-1.3-2-1.4-3.1c-0.1-0.6,3,1.6,3.3,2c0.9,1.6,1.1,3.7,1.9,5.3
		c1.3,2.8,2.1,5.6,3,8.7C704.6,305.5,704.7,305.8,704.8,306.2z"/>
	<path class="st37" d="M622.6,328.6c-2.4-2.6,0.3-8.5,1.2-11.3c0.3-1,0.9-5.1,2.3-3.1c0.5,0.7,0.3,3.1,0.4,4c0.3,2.9,0.7,5.9,0,8.8
		C625.8,329.5,624.5,330.7,622.6,328.6z"/>
	<path class="st37" d="M641.5,365.4c0-1.1-0.2-2-1.1-1.5c-0.5,0.2-1.3,1.8-1.7,2.2c-1,0.9-2.1,1.4-2.7,2.6c-0.6,1.3-0.7,3.2-0.7,4.6
		c0,2.5,2.6,4.3,4.3,2.3c1.5-1.9,1.3-5.1,1.6-7.4C641.2,367.7,641.4,366.4,641.5,365.4z"/>
	<path class="st37" d="M657.7,364.6c1.7-2.2,3.2-7.2,0.9-9.6c-0.3-0.3-0.7-0.2-1-0.5c-0.3-0.3-0.4-0.9-0.8-1.1
		c-0.8-0.5-1.3-0.2-1.7,0.8c-1.2,2.5-0.8,4.9-0.3,7.7C655.1,363.5,656,366.9,657.7,364.6z"/>
	<path class="st37" d="M695.8,407.2c-0.4,2.3-1.8,3.5-3.3,1.5c-1.2-1.7-0.5-3.4,0.5-4.9c0.4-0.6,2.2-3.5,2.6-3.3
		C696.4,401.1,696,406.2,695.8,407.2z"/>
	<path class="st37" d="M723.3,369.3c0.6,1.3,2.4,3.1,2.9,1c0.5-2.1-0.8-4.5-2.4-5.4C720.7,363.1,722.5,367.7,723.3,369.3z"/>
	<path class="st18" d="M615.5,298c-0.8-1-1.4-2-1.6-2.9c-1.1-4.4,2.7-10.9,3.8-15.1c1.1-4.3,4.6-26.3,11.7-21.2
		c6,4.3,1.9,20.8,0.5,26.3c-0.9,3.6-2.9,15.9-6.1,17.4C621.5,303.5,617.7,300.8,615.5,298z"/>
	<path class="st18" d="M607.4,314.9c2.7-7.8,3.2-19.2,11.2-9c2.2,2.8,2.9,3.5,2.8,7.8c-0.1,5.7-6.5,13.4-4.3,17.9
		c1.9,3.7,8.9,5.4,11.9,3c1.8-1.5,2.7-5.3,3.3-7.7c0.4-1.6,0.9-2.4,0.8-4.2c-0.1-0.9-2-3.9-1.3-4.7c2.5-3.7,9,11.5,9.4,13.4
		c1.4,6.1-4.1,14.7-8.8,17.8c-7.8,5.2-14.5-3-22-4c-3-0.4-5.1,1.3-7.6-1.5c-2.7-3-2.1-8-0.8-11.6
		C603.8,326.7,605.5,320.5,607.4,314.9z"/>
	<path class="st18" d="M615.2,353.5c-6.7,0.8-10.1-6.6-16.2-7.3c-6.1-0.6-2.4,8-3.5,12.9c-0.6,2.5-3.6,7.7-2.4,10
		c2.6,5.1,14.1,2.6,17.3,0.7c1.3-0.8,2.4-2,4-1.7c1.8,0.3,2.1,2.9,4.4,2.6c2.1-0.3,7.9-7.8,8.4-10.7
		C628.6,351.6,619.1,353,615.2,353.5z"/>
	<path class="st18" d="M641.6,285.1c0,3.1,0,7-0.6,10c-1,4.4-1.7,2.8,0.9,6.4c3,4.2,5.6,8.9,10.9,6.9c3.8-1.4,7.4-3.6,6.7-8.7
		c-0.7-5.4-3.5-9.6,2.2-12.5c4.5-2.3,7.4-1.9,11.1,1.3c3.2,2.8,4.3,1.9,7.4,0.8c1.7-0.6,5.9-1.4,6.9-3.1c1.3-2.1-0.4-7.9-1.1-10
		c-1.3-3.7-3-7-6.3-7.3c-2.7-0.3-5.1,0.9-7.8,0.3c-1.9-0.4-3.7-1.4-5.8-1.6c-3.1-0.4-5.7-1.6-8.7-2.1c-2.5-0.5-5.1,0-7.7-0.4
		c-4-0.7-6.1-3.1-7.2,2C641.3,272.3,641.6,279.5,641.6,285.1z"/>
	<path class="st18" d="M652.8,323.3c1.6,3.8,1.6,11.4,5.2,13.4c3.5,2,9.9-1.7,12.8-3.8c5.6-4,4.5-10.6,1.9-16.7
		c-1.5-3.5-2.5-5.3-2.7-9.3c-0.1-3.8-0.1-6.2-1.4-9.5c-0.9-2.3-2.5-7.5-5-6.5c-2.4,1-2.3,6.8-2,9c0.4,3.7,2.2,6.4-1.1,8.8
		c-2.8,2-13.7,0.3-12.6,6.9C648.5,318,651.8,320.8,652.8,323.3z"/>
	<path class="st18" d="M693.2,296.3c-2.3-3.4-5.9-3.5-9.3-3.1c-2,0.2-9,0.2-10.4,1.7c-3.9,3.9,3,17.1,4.4,21.5c1,3.2,3,5.7,6.6,4.6
		c4-1.2,5-7.2,7.6-9.9c2.2-2.2,5.1-1.7,4.9-6.3C696.8,302,694.5,298.4,693.2,296.3z"/>
	<path class="st18" d="M593.8,376.4c3.2,0.9,6.6,1.1,9.8,0.2c2.5-0.7,5.7-3.5,6.8,0.9c1.3,4.8-6.2,10.6-8.8,13.1
		c-5.7,5.5-11.6,1.4-18.5,1.5c-4.7,0.1-8.1,2-12.5,3.4c-1.5,0.5-6.8,1.2-7.5-1.2c-1.2-3.7,8.7-8.1,10.6-9c2.9-1.5,6.2-2.5,8.9-4.7
		c4.4-3.5,3.5-7,9.4-4.8C592.6,376,593.2,376.2,593.8,376.4z"/>
	<path class="st18" d="M647.3,374.8c-1.5,1.8-4.3,3.6-6.1,4.8c-3.6,2.5-10,5.8-12.3-0.5c-1.5-4.1,3.3-13.3-4-9.7
		c-3.6,1.7-17.1,17-8.6,19.7c2.2,0.7,5.8-2,7.2-0.4c1.8,2-1.2,6.1,0.1,8.5c1.5,2.9,5.9,1.7,8.1,0.7c2.4-1.1,5.3-2.9,7.3-4.9
		c2.3-2.4,3.2-4.8,6.2-5.8c3-1,5.9,0.1,8.3-3c2.2-2.9,2.3-6.7,1-10.2c-0.5-1.5-2.1-5.8-3.7-5.4C649.2,369,648.4,373.4,647.3,374.8
		C647.3,374.8,647.3,374.8,647.3,374.8z"/>
	<path class="st18" d="M671.7,366.1c-2.8,3.1-6.7,7.8-10.9,6c-6.1-2.7-0.3-6.3,0.6-10.3c0.9-4.1-0.1-8.3,0-12.5
		c0-1.4,12.7-3.6,14.1-3C680.7,348.7,674.9,362.6,671.7,366.1z"/>
	<path class="st18" d="M674,340.9c2.7-2.1,0.5-4.2-4.3-3.3c-2.4,0.5-15.6,3.4-10.6,7.8c2.8,2.4,9.7-2,12.4-3.1
		C672.6,341.9,673.4,341.4,674,340.9z"/>
	<path class="st18" d="M705,282.4c3.4,0.6,5.6-7,7.6-9.2c2.6-2.8,6-4.3,5.2-9.5c-0.4-2.9,0-2-2.7-2.9c-1.8-0.6-3.1-0.8-4.8,0.2
		C705.8,263.6,702.3,277.4,705,282.4z"/>
	<path class="st18" d="M714.1,278.7c1-0.2-2.8,16.7-6.9,11.5C704.8,287.2,711.8,279.2,714.1,278.7z"/>
	<path class="st18" d="M555.8,402.4c-3.5,3.7-6.7,13.9-5.9,19.3c1,6.9,6.8,7.6,11.1,4.6c3.3-2.3,5.8-5.1,9.4-6.3
		c4-1.4,8.1-2.7,12.2-4.3c7.2-2.7,12.3-8.8,16-16.3c-4.6-3-8.9-0.2-13.5,0.8c-4.6,0.9-9.3,0.8-13.9,1.8c-2.4,0.5-19.9-3.7-16.5,5.6"
		/>
	<path class="st19" d="M719.7,320.1c1.9-1.7,3.8-4,4.8-5.3c1.7-2.5,5.4-5.4,4.7-8.7c-0.5-2.2-4.6-6.1-6.6-6.1
		c-3.2-0.1-7.8,3.2-8.7,6.8c-0.4,1.6,0.4,2.7-0.1,4.2c-0.4,1.4-2.2,2.8-2.8,4.4c-1.3,3.8,1.2,7.7,4.5,7.3
		C716.7,322.4,718.2,321.4,719.7,320.1z"/>
	<path class="st19" d="M692.2,351.2c3.4-0.6,7.3-2.9,9.6-5.1c3.1-2.9,4.1-8.2,2.9-13.1c-0.7-2.9-1.1-3.9-3.5-2.9
		c-0.8,0.3-2.1,2.6-3.1,3.2c-1.3,0.8-2.9,0.9-4.3,1.4c-7.4,2.7-4.5,10.1-3.9,16.7C690.6,351.4,691.4,351.3,692.2,351.2z"/>
	<path class="st19" d="M689.4,356.3c2.7-1,5-3.2,7.7-4.3c3.4-1.3,6.1,1.9,3.8,6c-1.2,2.1-6.6,3.5-8.6,3.7c-1.6,0.2-1.8,1.9-3.1-0.4
		c-1-1.8-0.2-3.7,1-5"/>
	<path class="st19" d="M723.3,296.2c2.3,1.4,5.2,5.6,8.1,4.7c2.7-0.8,4.1-6.6,2.1-8.9c-1.2-1.4-7.6-2.8-8.8-1.9
		c-2.7,1.9-2.5,7.9,0.8,8.3"/>
	<path class="st19" d="M685,378.3c2.9-6.8-4.3-2.9-6.1,0c-0.5,0.8-2.1,6-2.6,6C680.5,384.5,683.1,382.9,685,378.3z"/>
	<path class="st19" d="M823.1,375.9c-0.1,0.8-0.1,1.5,0.4,2.2c2.5,3.9,8.5-0.4,8.1-4.5C831.1,367.7,823.9,371.9,823.1,375.9z"/>
	<path class="st19" d="M817.8,384.4c4.5,2.2,5.2-6,0.9-4.9C816.6,380,815.6,383.3,817.8,384.4z"/>
	<path class="st19" d="M624.1,535.5c-0.9-1.8,0.6-7.5,0.8-9.8c0.6-4.8,0.7-9.2,2.1-13.8c2.4-8.2,4.6-14,11.4-17.5
		c8.9-4.7,9.1-17.8,13.8-27c3.8-7.4,8.8-12.8,13.6-18.3c3.3-3.7,7-2.5,10.6-5.1c3.1-2.1,4-5.4,7.4-7.1c2.1-1,7.3-3,9.1-2.1
		c2.1,1,4.8,5.6,6.9,7.4c5,4.4,13.8,10.9,13.3,19.2c-0.1,1.8-1.6,4.5-1.1,6c0.9,3,8.7,6.1,11.2,8.3c2.8,2.4,5.9,4.9,8.2,8.1
		c2.6,3.6,3.4,7.8,5.2,11.9c4,9.4,12.5,12.6,18.9,19.1c2.9,3,7,5.5,9.5,8.6c1.7,1.9,3.5,6.2,5,8.6c-2.2,0.2-4.7-0.6-6.8-1.2
		c1,0.1,0.5,0.8,1,1.3"/>
	<path class="st19" d="M631.5,530.4c-0.9-1.8,0.2-4.2,0.5-6.4c0.6-4.8,0.7-9.2,2.1-13.8c2.4-8.2,4.6-14,11.4-17.5
		c8.9-4.7,9.1-17.8,13.8-27c3.8-7.4,8.8-12.8,13.6-18.3c3.3-3.7,7-2.5,10.6-5.1c3.1-2.1,4-5.4,7.4-7.1c2.1-1,7.3-3,9.1-2.1
		c2.1,1,4.8,5.6,6.9,7.4c5,4.4,13.8,10.9,13.3,19.2c-0.1,1.8-1.6,4.5-1.1,6c0.9,3,8.7,6.1,11.2,8.3c2.8,2.4,5.9,4.9,8.2,8.1
		c2.6,3.6,3.4,7.8,5.2,11.9c4,9.4,12.5,12.6,18.9,19.1c2.9,3,7,5.5,9.5,8.6c1.7,1.9,6.1,12,7.7,14.3c-2.2,0.2-7.3-0.5-9.8-0.2
		c1,0.1,0.8-5.9,1.2-5.4"/>
	<path class="st33" d="M776.4,535.9c-1.5-2.4-3.3-6.7-5-8.6c-2.6-3-6.7-5.6-9.5-8.6c-6.4-6.5-14.8-9.8-18.9-19.1
		c-1.8-4.1-2.5-8.3-5.2-11.9c-2.3-3.2-5.4-5.7-8.2-8.1c-2.5-2.1-10.3-5.3-11.2-8.3c-0.4-1.5,1-4.2,1.1-6c0.5-8.3-8.3-14.8-13.3-19.2
		c-2-1.8-4.8-6.4-6.9-7.4c-1.8-0.9-7,1-9.1,2.1c-3.4,1.7-4.3,4.9-7.4,7.1c-3.7,2.5-7.4,1.4-10.6,5.1c-4.9,5.5-9.9,10.9-13.6,18.3
		c-4.7,9.2-4.9,22.3-13.8,27c-6.7,3.5-8.9,9.3-11.4,17.5c-1.4,4.7-1.5,9-2.1,13.8c-0.3,2.2-1.4,4.5-0.5,6.4
		C630.9,535.9,677.6,556.6,776.4,535.9z"/>
	<path class="st19" d="M665,543.4c4.1-5.1,4.9-17.8,4.8-24.8c5.1-2.3,6.3-10.3,6.5-15.8c0.1,8.4-4.1,16.5-4.8,24.7
		c-0.3,3.7,0.5,19.3-5.5,15.4"/>
	<path class="st19" d="M707.9,543.1c2.3-1-0.7-12.4-0.6-15c0.1-4,2.1-10.9-0.3-14.5c3,5.7,1.6,11.6,2.4,17.9
		c0.8,5.7,3.7,10.7,7.7,13.2c-2.8,0.4-6.4,0.5-9.1,0c-0.1-0.7-0.2-1.8-0.1-2.5"/>
	<path class="st19" d="M820.4,542.2c-6.6-2.1-10-20.1-11.6-27.3c-0.5-1.9-1.2-3.9-1.6-5.8c3,0.5,4.7,4.1,6,7
		c1.6,3.5,3.1,5.7,6.1,7.9c1.3,1,1.9,2.5,3.1,3.7c0.6,0.6,0.9,1.1,1.7,1.2c1.9,0.2,0.2-0.6-0.2-1.3c-1-1.8-1.5-3.2-2.9-4.5
		c-1.5-1.5-3.4-2.6-4.6-4.5c-1.6-2.6-3.5-4.8-5.4-7.3c-1.7-2.3-3.6-4.5-5-7.1c-1.4-2.6-2.4-5.3-4.1-7.7c-3.5-5.2-7.3-9.9-9.4-15.5
		c-1.6-4.3-3.2-9.3-6.2-12.7c-2.8-3.2-5.6-6.3-6.7-11c1.6,4.4,4,7.8,5.9,11.8c1.7,3.6,2.3,8,3.7,11.8c2,5.5,4.8,10,7.9,14.8
		c3.1,4.7,7.1,9.5,9.3,14.9c2.5,6.3,2,13.1,4.4,19.3c1.6,4.1,5.3,16.1,10.6,13.3"/>
	<path class="st19" d="M581.9,548.1c-3.2-7.4-1.1-20,3.6-26c4.9-6.3,10-9.9,13.2-17.8c2.4-6,3.9-12.5,6.2-18.5
		c-1,1.6-2.3,3.2-3.1,4.9c-1,2.4-1.9,7.9-4.4,8.1c-0.2-8.7,4.2-17.4,4.4-26.3c0,2.9-2.2,7.2-2.9,10.2c-0.9,4.1-1.6,8.2-2.3,12.4
		c-1.3,7.4-2.5,12.3-8,16.8c-10.7,8.7-12.2,27.9-19.9,39.9l15.1-2.5C583.4,548,582.5,549.4,581.9,548.1z"/>
</g>
</svg>
