<?xml version="1.0" encoding="utf-8"?>
<!-- Generator: Adobe Illustrator 19.2.0, SVG Export Plug-In . SVG Version: 6.00 Build 0)  -->
<svg version="1.1" id="Layer_1" xmlns="http://www.w3.org/2000/svg" xmlns:xlink="http://www.w3.org/1999/xlink" x="0px" y="0px"
	 viewBox="0 0 1155.2 622.6" style="enable-background:new 0 0 1155.2 622.6;" xml:space="preserve">
<style type="text/css">
	.st0{display:none;}
	.st1{display:inline;fill:#471413;}
	.st2{display:inline;fill:#5C1713;}
	.st3{display:inline;fill:#FFFFFF;}
	.st4{fill:#5C1713;}
	.st5{fill:#471413;}
	.st6{fill:#3C1311;}
	.st7{fill:none;}
	.st8{display:none;opacity:0.3;fill:#5C1713;enable-background:new    ;}
	.st9{display:none;opacity:0.3;fill:#A53023;enable-background:new    ;}
	.st10{fill:#F6EC13;}
	.st11{fill:#72692B;}
	.st12{fill:#FFFFFF;}
	.st13{display:none;fill:#471413;}
	.st14{fill:#2C1211;}
	.st15{display:none;fill:#5C1713;}
	.st16{display:none;fill:#FFFBF6;}
	.st17{display:none;fill:#FFFFFF;}
</style>
<g id="Layer_1_1_" class="st0">
</g>
<g id="Layer_4" class="st0">
	<path class="st1" d="M1136.2,372.1c0.2-0.2,0.4-0.3,0.7-0.4c0.6-0.2,1.2-0.4,1.7-0.5c0.5,0,0.9,0.2,1,0.6c1.6-3,3.9-5.8,6-8.6
		c-4.1-22.7-34.2-26.5-52.6-19c-9.2,3.8-15.9,11.7-24.4,16.6c-8.4,4.9-18,7.9-27.1,11.4c-14,5.4-28.5,9.9-43.6,10.5
		c-14.4,0.5-30,3.3-44.1-0.2c-4.2-1-10.6-7-14.2-7c-0.9,0-1.8,0.3-2.5,0.7c-0.1,2.3-0.2,4.4-0.1,5.7c0,9.6,3.5,14.5,10.5,20.5
		c8.8,7.5,20.5,10.8,31.8,11.7c11.5,0.9,21.6-5.9,31.6-10.4c13.4-5.9,26.4-11.6,38.9-19.4c12.1-7.5,23.6-15.8,35.7-23.3
		c8.5-5.2,19.9-14.3,30.6-10c9.3,3.8,12.1,14.7,16.4,22.2c0.1,0.2,0.9,0.4,1.8,0.5C1135.2,373.1,1136.1,372.3,1136.2,372.1z"/>
	<path class="st2" d="M953.9,382.6c14.1,3.5,29.7,0.7,44.1,0.2c15.1-0.6,29.6-5.1,43.6-10.5c9.1-3.5,18.7-6.5,27.1-11.4
		c8.5-5,15.2-12.9,24.4-16.6c18.4-7.5,48.5-3.7,52.6,19c3.3-4.3,6.3-8.8,5.9-14.6c-1.5-25.7-33.7-30.3-53-22.4
		c-9.2,3.8-15.9,11.7-24.4,16.6c-8.4,4.9-18,7.9-27.1,11.4c-14,5.4-28.5,9.9-43.6,10.5c-14.4,0.5-30,3.3-44.1-0.2
		c-4.2-1-10.6-7-14.2-7c-5.9-0.1-7.6,11-8,18.7c0.7-0.5,1.6-0.8,2.5-0.7C943.3,375.6,949.7,381.6,953.9,382.6z"/>
	<path class="st3" d="M1043.1,360.7c1.9,0.4,3.3,3.4,5.6,4.9c1.7-2-1.2-3.3-3.8-5.5c-1.2-0.1-1.4,0.3-1.5,1"/>
	<path class="st3" d="M1049.2,359.3c0.8,1.1,4.4,4.8,6.2,5.5c0.5-2,0.5-4-0.1-5.9c1.9-0.8,3.4,1,5.1,1.6c-0.5-2.2,0.4-3.6,2.7-2.3
		c0.5-0.7,0.8-1.3,0.7-2.2c-0.7-0.4-2.4-0.7-3.2-0.6c-0.2,0.4-0.1,0.7-0.3,1c-1,0.4-0.7-0.3-1.4,0.5c-3.1-0.8-6.1-0.6-5.2,3.1
		c-1.6-0.2-2.2-0.5-3.1-1.7c-1.1,0.3-1,0.9-1.2,1.9"/>
	<path class="st3" d="M1069.1,352.2c-1.8-0.8-3.2,0.5-2.9,2.9c2,0.3,2.8-0.6,2.9-2.4"/>
	<path class="st3" d="M1039.2,366.3c0.1-1.1-0.1-2-0.6-2.9c-3.2-0.3-2.7,2.9-2.3,5.4c0.7-1.3,1.9-2.5,3.4-3"/>
	<path class="st3" d="M1031.6,367.4c-0.6-0.8-0.7-1.5-2.4-0.9c-0.7,2.4,0.4,3.8,2.8,3.4c0.1-0.8,0.2-1.6,0.1-2.4"/>
</g>
<g id="Layer_2">
	<path class="st4" d="M553.2,453.1c6.5,6.1,18.1,14.1,20.6,23.1c3.1,11.1-300.6,5.7-312.5,4.4c-23.3-2.5-47.1-8.8-68.1-19.3
		c-14.8-7.3-29.7-13.1-43-23.1c-19.2-14.4-34-33.7-49.6-51.7c-13.4-15.5-32.9-40-56.4-35.3c-48.3,9.7-19.5,98.9,26.1,76.2
		c6.4-3.2,9.7-5.3,11.1-12.4c3.7-19.2-16.7-22.7-29.9-15c-3.3,2-6.5,9.6-1.9,12.3c1.9,1.1,5.3,0.7,6.8-1c3-3.4-0.2-3-1.9-4.3
		c-0.1-0.1-1.1-0.1-1.3-0.1c0.1-1.1-0.1-2.6-0.3-3.5c4.8-3.9,10.1-0.2,10.3,5.3c0.2,5.8-5.6,8.5-10.7,8c-5.5-0.5-11.2-4.1-13-9.5
		c-3.8-11.7,8.2-17.4,17.2-19.8c11.9-3.1,23.8-1.3,31.4,9.8c12.1,17.6-4.9,41-24,44.6c-23.9,4.5-46.5-9-57.5-30.2
		C0.1,399-2,380.9,2.1,367c2.8-9.4,9.5-22.4,17.5-28.5c22.4-17.2,54-6.7,73.9,9.9c6,5,11.8,10.9,17,16.7
		c32.9,36.1,103.5,53.8,154,56.6c16,0.9,31.7-2.9,47.3-5.2c16.5-2.4,33.4-1.1,49.9-4.3c15.5-3,30.8-9.5,46.9-8.2
		c39.1,3,58.2,23.6,97.1,28.5c9.4,1.2,24.1,1,32.4,6.4C544,442.6,548.2,448.3,553.2,453.1z"/>
	<path class="st5" d="M544.9,457.5c-13.9-10-235.7-7.3-251.3-4.2c-16.5,3.4-32.9,7.8-49.8,7.2c-36.3-1.3-70-24.7-97.9-46
		c-10.6-8.1-18.3-19.2-28.1-28.2c-4.8-4.3-9.6-8.6-14.3-12.9c-7-6.5-13.3-14.3-21.4-19.6c-9.2-6.1-19.9-10.2-31.1-9.7
		c-9,0.4-19.1,5.6-25.1,12.1c-5.9,6.4-6.6,13.4-6.6,21.3c1.9-12.6,9.5-23.3,24.5-26.3c23.5-4.7,43,19.8,56.4,35.3
		c15.6,18,30.4,37.3,49.6,51.7c13.3,10,28.2,15.8,43,23.1c21,10.4,44.8,16.8,68.1,19.3c7.6,0.8,55.6,2.1,88,0.1
		c0.5-0.7,205.5-0.1,205.9-0.8C560.8,470.6,552.3,462.8,544.9,457.5z"/>
	<path class="st5" d="M938.1,294.5c2.7,2.9,10.9,10.6,15.1,10.5c5.1-0.1,10.6-14,13.3-18.5c4.3-7.2,8.8-14.3,13.1-21.5
		c5.5-9.3,9.8-19.9,13.7-29.9c4.6-11.8,6.1-25.8,4.5-38.4c-1.3-9.6-4.4-19.5-8.6-28.2c-1.3-2.6-2.9-5.6-4.7-8.6
		c-1.9,5.8,0.1,13.8,1.6,19.1c6.1,20.4-2.2,43-14.4,59.9c-7.2,10-14.9,20.5-24.3,28.6c-3.9,3.3-14.2,2.9-22.8,4.1
		c-0.2,0.3-0.3,0.5-0.3,0.8C922.4,279,934.1,290.3,938.1,294.5z"/>
	<path class="st4" d="M944,423.5c-18.2,25.2-28.8,56.2-53.3,76.5c-23,19.1-55.1,11.8-83.2,18.1c-19.5,4.4-36,20.8-56.4,19
		c-19.6-1.7-42.4-11.4-61.1-17.6c-14.8-5-26.7-15.9-40.5-23c-13.2-6.8-27.4-12.6-41.6-17c-17.4-5.4-27.1-1.4-44.3-0.9
		c-16.8,0.6-32-7.5-48-11.2c-29.8-7-59.6-24.4-88.1-35.1c-32-12-64.8-22-95.7-36.7c-24.9-11.9-44.9-32-62.1-53.2
		c-24.3-30-37.7-68.6-27.9-107.5c7.1-28.1,35.1-51,55.6-69.6c21.5-19.5,35.4-43.3,32.8-73.4c-2.4-29.1-23.2-44.5-51.9-37
		c-14.6,3.8-28.7,14.7-33.1,29.6c-4.2,14.3-4,45,19,40.8c15.1-2.8,13.9-24.8-1.2-21.3c2.3,2.2,3.3,5.8,3.2,8.8
		c-7.5,1.2-14.2-4.8-9.1-12.1c0,0,0,0,0,0c4.8-6.9,24.5-2.5,28.4,3.1c13.3,19.3-16.7,41.2-34.5,36.1c-17.8-5.1-28.1-26.4-29.9-43.5
		c-5.7-54.5,65.1-83.7,108.3-62.7c33.4,16.2,54.2,53.3,44.6,90.2c-11.5,43.7-63.8,58.6-83.8,96c-14.3,26.8,0.8,60.3,21.7,78.9
		c42.1,37.5,111.8,45.5,165.8,45.5c62.5-0.1,124.4-15.3,155.7-72.6c12-21.9,33.9-28.6,55.9-36.6c10.7-3.9,20.4-7.4,28.4-15.4
		c12.5-12.5,16.7-23,35.5-22.5c25.1,0.7,47.9-0.7,72.7-3.1c37-3.7,63.5,21.5,85.4,47.9c10.4,12.5,19.8,26.1,32.1,36.8
		c12.3,10.7,30.4,20.1,37.2,35.6C998.9,355.2,966.6,392.2,944,423.5z"/>
	<path class="st5" d="M631.2,476.3c2.7-1,8.6-20.9,11.4-25.9c11.8-21.3,26-41.1,38.9-61.7c13.1-21,23.1-43.3,33.9-65.5
		c3.5-7.3,2.6-20.4,9.5-25.3c1.5-1.1,3.2,16.6,3.1,18.3c-3.5,38-11.7,78-7.6,116.2c2.2,20.8,26.2,64-2.5,76.4
		c-8.7,3.8-20.3-2.2-29.3-2.5c-7.2-0.3-15,0.4-21.8-1.8c-11.2-3.6-24.9-9.6-30.7-20.3c-2.8-5.3-1.6-9-0.8-14.5"/>
	<path class="st5" d="M647.7,378.4c10-14,20.2-27.8,28.6-42.9c4.3-7.9,8.9-15.6,13.1-23.6c1.7-3.2,3.2-6.3,4.7-9.6
		c5.1-11.1,11.2-19.7,9.8-33c-7.8,10.9-15.9,21.6-24.2,32.4c-13.4,17.4-30.2,33.2-50.7,41.8c-56.7,23.8-119.3,21.9-179.4,17.8
		c-22.8-1.5-45.6-3.2-68.2-7.1c-41.4-7.3-77.7-23.2-103.6-57.1c-3.3-4.3-5.8-9-7.8-14c-8-20.2-7.2-46.3,6.2-64.1
		c6-7.9,10.4-16.6,17.2-24c13.1-14,27.1-25.7,38-41.7c9.3-13.6,17.3-23.6,19.3-40.4c2-16.2-0.1-32.3-7.4-46.9
		c-4.9-9.8-14.4-16-24.5-20.4c-19-8.2-39-7-56.9,4.1c-9.3,5.8-18.5,13-22.5,23.5c-2.9,7.6-4.8,16-4.5,24.5
		c0.5,13.9,7.3,35.7,24.1,28.1l0,0c-0.6,0-1.1-0.1-1.6-0.2c0,0,0,0,0,0c-6.8-1.1-10.6-6.2-12.6-12.7c0,0,0,0,0,0
		c-0.1-0.5-0.3-1-0.4-1.5c0,0,0,0,0,0c-0.9-3.6-1.2-7.5-1.2-11.3c0-0.1,0-0.1,0-0.2c0-0.4,0-0.8,0-1.3c0-0.2,0-0.3,0-0.5
		c0-0.4,0-0.7,0.1-1.1c0-0.2,0-0.4,0-0.6c0-0.3,0-0.7,0.1-1c0-0.2,0-0.5,0.1-0.7c0-0.3,0.1-0.6,0.1-0.9c0-0.3,0.1-0.5,0.1-0.8
		c0-0.3,0.1-0.6,0.1-0.8c0-0.3,0.1-0.5,0.1-0.8c0-0.3,0.1-0.5,0.1-0.8c0-0.3,0.1-0.6,0.1-0.8c0-0.2,0.1-0.5,0.1-0.7
		c0.1-0.3,0.1-0.6,0.2-0.9c0-0.2,0.1-0.4,0.1-0.6c0.1-0.3,0.1-0.6,0.2-0.9c0-0.2,0.1-0.3,0.1-0.5c0.1-0.5,0.2-0.9,0.4-1.3
		c4.4-14.9,18.5-25.8,33.1-29.6c28.7-7.5,49.4,7.9,51.9,37c2.5,30-11.3,53.9-32.8,73.4c-0.9,0.8-1.9,1.7-2.8,2.6
		c-20.2,18.1-45.9,40.2-52.7,67c0,0,0,0,0,0c-0.5,3.1-1.3,7.3-2.4,12.3c-4.5,34.7,8.5,68.4,30.2,95.3c17.2,21.2,37.2,41.3,62.1,53.2
		c30.9,14.7,63.7,24.6,95.7,36.7c28.5,10.7,58.3,28.1,88.1,35.1c16,3.7,31.2,11.8,48,11.2c2.2-0.1,4.2-0.2,6.2-0.4
		C603.5,464.4,626.3,408.4,647.7,378.4z"/>
	<path class="st4" d="M748.4,560c11.5-15.3,5.8-35.3,13.4-51.8c5.6-12.1,21.3-16.7,17.4-32.4c-7.6-30.4-43.4,6-52.8,11.9
		c-19.1,11.9-65-3.2-80.4-17c-9.3-8.3-8.6-20.1-11.5-31.8c-7.6-30.5-3.9-61.8-4.2-92.8c-0.3-31.6-1.8-62.5,4.2-93.9
		c3.1-16,3-31.5,4.2-48c3.5-48.3,20.1-101.9-5-147.3c-28.1-50.9-95-80.8-143.3-32.1c-13.1,13.2-17.7,42-15.2,60.5
		c2.5,18.3,20.9,41,38.6,46.5c18.7,5.8,48.5-4.7,53.9-23.6c4.9-16.8-7.1-43.9-28-32.6c-7.4,4-13.5,15.2-6.4,19.2
		c12.6,7,14.2-14.7,5.3-4.4c-0.6-2.3-0.1-6.5,0.3-8.8c0.5-2.8,20.6,5.9,15,19c-8,18.6-28.7,15.9-43.6,6.9
		c-19.2-11.5-21.6-39.3-9.8-56.5c14.2-20.7,51.8-18.1,72.4-9.9c52.2,20.8,30.8,73.4,20.9,113.3c-8.1,32.6-18.5,66-25.3,98.7
		c-12.3,58.8-29.2,118.1-26.7,178.8c2.5,60.8,14.4,129.5,83.8,142.8c28.1,5.4,60.5,10.2,88.8,3.7C726.1,575.4,740.9,569.9,748.4,560
		z"/>
	<path class="st4" d="M986.1,179c-1.6-5.3-3.5-13.2-1.6-19.1c-14.1-23.2-44.1-55-70.3-37.9c-10.7,7-18.5,17.6-29.8,23.8
		c-18.3,10-16.3-32.6-30.1-20.5c-3.6,3.2-6.2,10.6-4.8,15.3c0.7,2.4,2.1,4.3,4.7,4.7c1.8,0.2,5.1-1.3,4.9-3.5
		c-0.2-2.2-2.5-0.9-3.7-1.9c-0.8-0.7-0.8-2.5-0.5-3.5c1.1-3.7,4.6-1.5,6.4,0.4c1.5,1.5,2.3,3.5,3.1,5.6c0,0,0.1,0,0.1,0
		c1.5,1,2.7,3.2,3.7,4.8c1.8,2.9,3.8,3.9,6.2,5.9c2.6,2,3.7,2.8,6.9,2.3c2.4-0.4,5-0.6,7.1-2.2c1.8-1.3,2.4-3.4,3.7-5.1
		c2-2.6,4.2-4.7,6.8-6.7c2.8-2.3,5.8-4.2,9.3-5.1c5.7-1.5,12.8-3.6,18.7-1.3c0.1,0.1,0.4,0.1,0.6,0.3c2.2,0.2,4.4,0.7,6.6,1.5
		c10.9,4.2,18.4,14,25.7,22.7c9.4,11.2,14.9,25.2,15.1,39.9c0.2,17-6.7,28.6-17.4,41.3c-4.3,5.1-10,8.8-14.4,14
		c-2.9,3.5-6.2,6.8-9.6,9.8c-2.1,1.9-7.4,4.6-9,7.3c8.6-1.3,18.9-0.8,22.8-4.1c9.4-8.1,17.1-18.6,24.3-28.6
		C983.8,221.9,992.2,199.4,986.1,179z"/>
	<path class="st5" d="M908.2,136.2c-3.5,0.9-6.6,2.8-9.3,5.1c-2.5,2.1-4.8,4.2-6.8,6.7c-1.3,1.7-2,3.8-3.7,5.1
		c-2.1,1.6-4.7,1.8-7.1,2.2c-3.2,0.5-4.3-0.2-6.9-2.3c-2.5-2-4.5-3-6.2-5.9c-0.9-1.5-2.1-3.8-3.7-4.8c0,0-0.1,0-0.1,0
		c0.8,2.4,1.4,4.9,2.4,7c2.8,5.8,8,10.9,14.6,11.4c8.3,0.7,13.8-8.5,19-13.8c7.1-7.2,17.1-12.7,27.2-11.8c-0.3-0.1-0.5-0.2-0.6-0.3
		C921,132.5,913.9,134.6,908.2,136.2z"/>
	<path class="st6" d="M866,136.3c1.4,6.2,5.1,10.8,10.9,13.4c1.4,0.6,3.6,0.3,4.8-0.5c3-2-0.9-1-2.1-0.9c-1,0.1-2.5-0.3-3.4-0.6
		c-2.4-0.8-4.6-3-6.1-5.1c-1.5-2-2.4-4.6-3.3-7c-0.4-1.1-0.8-2.3-1.4-3.4c-1.2-2.2-3.5-4.6-5.8-5.6c-3.1-1.4-5.5,1.3-6.3,4.2
		c-0.4,1.7-0.8,3.4-0.8,5.1c0,0.9,0,5,1.8,4.6c-0.5-0.9-0.7-1.2-0.8-2.2c-0.1-0.9-0.1-1.8,0-2.6c0.1-1.5,0.2-3.2,0.9-4.6
		c1.3-2.7,2.8-4.2,5.8-2.5C863,130.1,865.3,133.1,866,136.3z"/>
	<path class="st6" d="M886.8,145.7c0.2,0.7-0.6,1.4-1.1,1.7c-0.5,0.2-1.5,0-1.1-0.7C884.9,146.2,886.3,145.6,886.8,145.7z"/>
	<path class="st6" d="M888.6,144.8c0.2,0.6-1.5,1.8-1.1,0.6C887.6,145,888.4,144,888.6,144.8z"/>
	<path class="st7" d="M957.6,559c0,0.4-0.2,0.7-0.5,1"/>
	<path class="st8" d="M949.3,449.8C931.1,475,920.5,506,896,526.4c-23,19.1-55.1,11.8-83.2,18.1c-19.5,4.4-36,20.8-56.4,19
		c-19.6-1.7-42.4-11.4-61.1-17.6c-14.8-5-26.7-15.9-40.5-23c-13.2-6.8-27.4-12.6-41.6-17c-17.4-5.4-27.1-1.4-44.3-0.9
		c-16.8,0.6-32-7.5-48-11.2c-29.8-7-59.6-24.4-88.1-35.1c-32-12-64.8-22-95.7-36.7c-24.9-11.9-44.9-32-62.1-53.2
		c-24.3-30-37.7-68.6-27.9-107.5c7.1-28.1,35.1-51,55.6-69.6c21.5-19.5,35.4-43.3,32.8-73.4c-2.4-29.1-23.2-44.5-51.9-37
		C269.1,85,255,96,250.7,110.8c-4.2,14.3-4,45,19,40.8c15.1-2.8,13.9-24.8-1.2-21.3c2.3,2.2,3.3,5.8,3.2,8.8
		c-7.5,1.2-14.2-4.8-9.1-12.1c0,0,0,0,0,0c4.8-6.9,24.5-2.5,28.4,3.1c13.3,19.3-16.7,41.2-34.5,36.1c-17.8-5.1-28.1-26.4-29.9-43.5
		C220.9,68.2,291.6,39,334.9,60c33.4,16.2,54.2,53.3,44.6,90.2c-11.5,43.7-63.8,58.6-83.8,96c-14.3,26.7,0.8,60.3,21.7,78.9
		c42.1,37.5,111.8,45.5,165.8,45.5c62.5-0.1,124.4-15.3,155.7-72.6c12-21.9,33.9-28.6,55.9-36.6c10.7-3.9,20.4-7.4,28.4-15.4
		c12.5-12.5,16.7-23,35.5-22.5c25.1,0.7,47.9-0.7,72.7-3.1c37-3.7,63.5,21.5,85.4,47.9c10.4,12.5,19.8,26.1,32.1,36.8
		c12.3,10.7,30.4,20.1,37.2,35.6C1004.2,381.5,971.9,418.6,949.3,449.8z"/>
	<path class="st9" d="M753.7,581.3c11.5-15.3,5.8-35.3,13.4-51.8c5.6-12.1,21.3-16.7,17.4-32.4c-7.6-30.4-43.4,6-52.8,11.9
		c-19.1,11.9-65-3.2-80.4-17c-9.3-8.3-8.6-20.1-11.5-31.8c-7.6-30.5-3.9-61.8-4.2-92.8c-0.3-31.6-1.8-62.5,4.2-93.9
		c3.1-16,3-31.5,4.2-48c3.5-48.3,20.1-101.9-5-147.3c-28.1-50.9-95-80.8-143.3-32.1c-13.1,13.2-17.7,42-15.2,60.5
		c2.5,18.3,20.9,41,38.6,46.5c18.7,5.8,48.5-4.7,53.9-23.6c4.9-16.8-7.1-43.9-28-32.6c-7.4,4-13.5,15.2-6.4,19.2
		c12.6,7,14.2-14.7,5.3-4.4c-0.6-2.3-0.1-6.5,0.3-8.8c0.5-2.8,20.6,5.9,15,19c-8,18.6-28.7,15.9-43.6,6.9
		c-19.2-11.5-21.6-39.3-9.8-56.5c14.2-20.7,51.8-18.1,72.4-9.9c52.2,20.8,30.8,73.4,20.9,113.3c-8.1,32.6-18.5,66-25.3,98.7
		C561.4,333,544.5,392.3,547,452.9c2.5,60.8,14.4,129.5,83.8,142.8c28.1,5.4,60.5,10.2,88.8,3.7
		C731.4,596.8,746.2,591.2,753.7,581.3z"/>
	<path class="st5" d="M702.7,529.4c-7.8-1.7-16.1,0-24-1.4c-29.1-5.2-49.9-28.7-60.5-55.1c-17.1-42.4-11.2-89.9-11.3-134.5
		c0-23.8-1.3-47.6,1-71.4c4-42.4,5-85,9.3-127.3c2.2-21.8,4.5-41.7,2-64c-4.9-43.7-49.4-71.1-91.5-62.1
		c-23.1,4.9-38.7,17.4-45.9,41.5c-5.8,19.5,1.4,46.4,17.3,59.5c8.6,7.1,19.7,7.7,30.7,7.2c19.6-0.9,27.5-8,26.6-27.9
		c-0.2,0-1.2,0-1.6,0c0,1.5-0.3,3.1-1,4.7c-1.4,3.4-3.3,6-5.5,8.1c-0.4,0.5-0.7,0.8-1,1c0,0-0.1,0-0.2,0.1c-9.9,8-25.2,4.8-36.9-2.3
		c-19.2-11.5-21.6-39.3-9.8-56.5c14.2-20.7,51.8-18.1,72.4-9.9c52.2,20.8,30.8,73.4,20.9,113.3c-8.1,32.6-18.5,66-25.3,98.7
		c-12.3,58.8-29.2,118.1-26.7,178.8c2.5,60.8,14.4,129.5,83.8,142.8c28.1,5.4,60.5,10.2,88.8,3.7c7.6-1.7,16.4-4.6,23.7-9.1
		c-3.7-8.7-12-16.1-17.9-23.6C714.8,537.2,711.3,531.2,702.7,529.4z"/>
	<path class="st5" d="M938.1,379c-7.1,15.9-14.7,31.8-24.3,46.3c-4.4,6.7-9.2,11.8-12.3,19.2c-2.9,7-5.7,14.2-10.8,20
		c-6.4,7.2-17.9,14-27.5,10.4c-4.4-1.6-6.7-5.1-9.3-8.5c-3.8-4.9-6-6.3-12-8.8c-4.9-2.1-9.9-5-13.5-9c-4.7-5.2-4-8.1-2.7-14.8
		c1.4-7,3.6-25.4-5.6-27.7c-3.6-0.9-9.9,1.6-14.1,1.3c-5.8-0.5-12.3-1.2-17.6-3.6c-4.5-2-7-6.6-10-10.7
		c-7.4-9.9-14.6-20.8-15.2-33.5c-0.7-13.6-2.9-37.9,10.4-46.7c3.6,21.2,15.5,52.8,43.1,42.2c12.2-4.7,21.1-13.9,32.5-19.5
		c10.8-5.3,20.5-3.6,31.2-0.3c5,1.5,10.8,2.7,16.2,2.5c5.6-0.2,10.7-2.8,16.7-2c5.8,0.8,8.9,3.4,13.2,6.9c3.7,3,8.8,5.3,12,8
		C946.3,357,941.7,370.7,938.1,379z"/>
	<path class="st5" d="M809.9,349.6c-16.8,3.4-24.2-19.3-26.7-31.7c-2.6-13.2-2.1-27.3,1.5-40.3c5.8-20.9,20.3-35.2,40.6-41.3
		c8.8-2.6,19.1-7.7,27.9-3.3c6.5,3.1,18.1,9.9,19.4,16.6c1.9,9.7,2,24.7-1.5,33.8c-3.8,10-14.2,11.5-21.8,16.3
		c-6.2,3.9-10.3,11.9-10.7,19.2c-0.4,7.4-0.7,14.4-6.8,19.8C826.2,343.7,816.9,348.2,809.9,349.6z"/>
	<path d="M808.3,298.3c-2.8,0.8-5.7,1.3-8.6,1.7c-2,0.3-3.3,0.3-2.7-2.2c3.2-12.3,10.9-22.1,20.5-30.2c7.4-6.2,15.5-11.6,22.9-17.8
		c1.9-1.6,3.7-3.4,5.6-5c-1.9,1.6-0.7,4.4,0,6.3c2.8,8.4-2.6,18.2-7.2,25.1c-1.4,2.1-3,4.1-4.7,6c-5.4,5.9-12.2,10.8-19.6,13.9
		C812.5,297,810.4,297.7,808.3,298.3z"/>
	<circle class="st10" cx="819.4" cy="280.3" r="11.4"/>
	<path class="st6" d="M938.5,289.4c-1.5-0.2-3.3-8.8-4.1-10.2c-1.6-2.8-4.4-4.3-6.4-6.8c-8.2-10.1-7,10.8,0.5,12
		c0.2-1.9-0.1-3.6-0.3-5.4C932.6,280.8,934.1,288.7,938.5,289.4z"/>
	<circle class="st11" cx="819.8" cy="280.3" r="6.1"/>
	
		<ellipse transform="matrix(0.918 -0.3967 0.3967 0.918 -40.9924 350.1271)" class="st12" cx="825.9" cy="274.2" rx="7.4" ry="2.7"/>
	<path class="st6" d="M479.1,72.5c0.1-1.7-1.2-18.1,1.8-17c1.6,0.6,1.7,4.2,1.6,5.4c-0.2,2.4-0.7,3.5-0.5,6.1c0.2,2.6,0.1,4.4,0.1,7
		c0.1,5.9,1.1,12.3,3,17.9c1.1,3.2,3.1,5.4,4.8,8.2c1.3,2,2.1,4.5,3.3,6.4c0,0,4.7,5.5,2.4,5.7c-2.6,0.1-3.1-2.8-4.2-4.3
		c-1.4-2.1-3.8-3.7-5.4-5.7c-3.2-4.1-4.4-9.8-5.9-14.7C478.4,82,478.8,78,479.1,72.5z"/>
	<path class="st6" d="M484.3,38.5c1.2-0.6,3.7,1.2,3.8,2.5c0.1,1-1.9,3.1-2.4,4.1c-0.7,1.3-2.8,7.7-3.8,7.4
		c-2.9-0.9,1.3-17.3,4.7-13.4"/>
	<path class="st6" d="M625.3,188.2c0.6-3.7,2.6-6.8,0.3-10.5c-1.4,1.8-0.9,4.6-2.2,6.5c-1.2,1.7-3,2.9-3.6,4.7
		c-0.9,2.6,3.1,12.8,6.1,8.5C623.6,195,624.8,191.2,625.3,188.2z"/>
	<path class="st6" d="M627.8,170c0,2,0,7.6,2.4,3.5c0.8-1.4,0.4-2.8,0.8-4.3c0.3-1.2,3.1-4.2,1.4-5.4c-1-0.7-1.5,0.3-2.1,0.9
		c-1.2,1.2-3,5.3-2.3,7"/>
	<path class="st6" d="M461.8,396.8c0-2.8,2.3-22.8,4.8-23.2c1.9-0.3,4.5-0.3,6.5,0c0.7,4.4-0.8,8.3-1.2,12.6
		c-0.5,5.2,0.7,9.7,1.4,14.6c0.8,0,1.7,0.2,2.5,0.2c2.2,5.6,1.4,15.5-5,9.7c-4.3-3.8-8.6-12.3-8.9-17.8"/>
	<path class="st6" d="M479.2,414.8c-0.7,2.8,0.1,4.6,2.7,5.3c3.6-4,1.5-9.4,0.7-13.7c-2.2,2.8-1.8,6.5-2.7,9.1"/>
	<path class="st6" d="M434.4,371c-2.4,5.5-4,18.3-0.9,24c5.7,10.5,6-6.5,6.3-11.3c1-0.2,2.1-0.2,3.1,0c0.7,3-0.4,7.8,3.3,7.8
		c4.3,0,2.8-20.7,0-23.4c-5.7-5.5-11.6-2.2-11.8,5.4"/>
	<path class="st6" d="M421.8,376c2.4,0.2,2.6-12.4,2.1-13.9c-1.2-3.4-3.9-3.4-5.2-0.2c-0.9,2.1-0.9,4.8-0.9,7.1
		C417.6,372,418.1,375.7,421.8,376z"/>
	<path class="st4" d="M894.8,490.2c5.7-11.4,3.4-25.8,6.3-37.7c3.2-13.3,11.2-25.8,18.5-37.5c8-12.7,14.2-25.9,21.1-38.8
		c6.2-11.6,16.9-34.1,29.2-37c22.5-5.3,44.7,0.3,60.4,16.9c20,21.1,34.6,37.6,65.6,24.1c23.8-10.4,47-64.5,16.2-80.7
		c-8.7-4.6-23.9-1.6-29.5,6.8c-5.1,7.7,0.2,19,8.1,22.5c4.1,1.8,8.1,2.1,12.1-0.2c1.2-0.7,8.7-10,6.1-10.3c-1.8-0.2-3.9-0.5-5.7,0
		c-1.5,3.5-4.5,3.6-8.1,1.6c1-8.3,9.2-8,15.7-7.6c5.5,0.3,7.3,12.3,6.2,15.8c-5.1,16.6-39.8,15.3-46.2,0c-5.7-13.5-0.7-37.3,14.2-43
		c69.4-26.8,84.2,86,57.7,126.6c-18.8,28.7-53,31.4-84.4,23.5c-10.3-2.6-19.5-7.1-29.8-8.3c-20.8-2.4-41.5,0.2-61.5,6.1
		c-16.8,4.9-40.7,10.7-52.9,24c-9.5,10.3-12.6,24.6-20,35.1"/>
	<path class="st5" d="M977.6,399c5.1-11.6,10.2-23.1,13.5-35.4c2.4-9,8.5-15.4,11.5-24.2c-5.3-1.4-10.8-2.1-16.4-2.1
		c0.8,31.9-23.5,60.2-41.7,85.4c-5.1,7.1-10,15.4-14.4,23c11.3-5.6,25.3-9.3,36-12.4c0.3-1.8,0.4-4.2,0.9-5.9
		C969.5,417.5,973.5,408.2,977.6,399z"/>
	<path class="st5" d="M1033.3,411.1c0.9-4.3,5.9-6.3,2.5-6c-13,1.1-25.1-4.6-36.7-9.8c-4.4-2-9.3-3.9-12.4-7.8
		c-1.1-1.4-1.9-3.1-2.4-4.8c-0.2-0.6-1.5-5.5-1-5.8l-3.5,2.2c-2.8,1.3-2.9,1.8-4.1,4.9c-1,2.7-1.9,5.4-3.4,8
		c-2.9,4.8-4.4,9.8-6.3,15c-1.8,5.2-4.3,10.5-5.8,15.9c-1.5,5.2-0.4,8,4.7,9.4c0.3-0.1,0.7-0.2,1-0.3c15.5-4.5,31.3-7.1,47.3-6.9
		c3.9-2.6,7.6-5.4,11.2-7.6C1027.5,415.8,1032.5,415.1,1033.3,411.1z"/>
	<path class="st6" d="M1014.5,368.1c0.9-2.7-1.4-11.4-3.8-6.1C1009.6,364.4,1011.3,369.1,1014.5,368.1z"/>
	<path class="st6" d="M1019.8,365.6c0-0.1-0.8,0-0.9,0c0.2,0.9-1.6,0-1.7,0.3c-0.2,1.3,0.6,2.1,1.9,2.2
		C1020,367.3,1020.2,366.7,1019.8,365.6z"/>
	<path class="st6" d="M1000.5,356.3c0.6,1.8,2.7,4.6,4.8,3.3c2.7-1.7-0.8-6.8,2.8-8.4c3.2-1.4,5,2.7,6.4,4.9c2.3,3.6,5,7.8,9.3,9.4
		c3.7,1.4,8,0.3,11.2,3.1c2.3,2,2.9,5.5,5.4,7.2c1.7,1.2,2.7,0.3,3.7,0.4c8.1,1.6,13.8,8.4,21.7,10.1c3.1,0.7,6.5,1.2,9.7,1
		c0.3,0,7.1-1.6,6.2-2.4c-0.1-0.1-0.2-0.2-0.3-0.3c-21.6,3.4-34.6-11-51.2-28.6c-9.1-9.6-20.4-15.5-32.6-17.8c0.5,0.7,1,1.5,1.2,2.3
		C1000.3,345.6,998.8,351.2,1000.5,356.3z"/>
	<path class="st6" d="M1095.8,380.3c-2.4,1.1-4.8,1.9-7,2.6l0.2,0c3.3-0.2,8.2,0.1,11.4-0.9c2.5-0.8,3.5-3.1,5.3-4.5
		c2.5-2,5.7-0.2,7.4-3.3c0.6-1.1,0-2.6,0.4-3.7c0.5-1.4,1.7-2.2,2.7-3.6c1.8-2.7,1.7-5.4,2.4-8.4c0.8-3.7,2.9-7,4.1-10.5
		c-0.1,0.1-0.2,0.1-0.2,0.2C1116.6,362.7,1106.2,375.7,1095.8,380.3z"/>
	<path class="st6" d="M1104.8,384.8c1.6,1.1,4.1-1.5,2.6-3.5c-1.5-2.1-4.1-0.1-3.5,2.1C1104.1,384,1104.4,384.5,1104.8,384.8z"/>
	<path class="st6" d="M1097.7,392.9c0.4-0.3,0.6-1,0.7-1.6c0.1-0.7,0.1-1.5-0.1-2.3c-0.3-1.3-0.9-3-2.1-3.8
		c-0.6-0.4-1.7-0.7-2.3-0.4c0,0.7,0.3,1.3,0.3,1.9c0.1,1.2,0.5,2.5,1,3.6c0.4,0.8,0.8,1.6,1.4,2.2
		C1097.1,393.1,1097.4,393.1,1097.7,392.9z"/>
	<path class="st6" d="M1101.9,389.5c0.3-0.7,0.9-1.9,0.6-2.7c-0.2-0.5-1.3-1.2-1.8-1c-0.4,0.2-0.4,1.2-0.4,1.5
		c-0.1,0.5-0.1,1.1,0,1.7C1100.4,390.1,1101.4,390.6,1101.9,389.5z"/>
</g>
<g id="Layer_5" class="st0">
	<path class="st1" d="M1091,272.2c1.5-1.7,3.1-3.2,4.7-4.7c1.1-1,3.1-2.5,3.8-3.8c1.9-4.1-2.7-6.9-6.1-6.1
		c-9.5,2.4-18.3,14.4-12.5,24.1c0.8,1.3,3.2,3.7,4.8,4.1c-1.7-7.9-5.7-19,5.1-23.2c6.8-2.6,7.6,1.9,3.1,6.1c-1.1,1-2.4,2-3.4,3
		c0.1,0.2,0.2,0.4,0.3,0.6L1091,272.2z"/>
</g>
<g id="Layer_6">
	<path class="st13" d="M694.8,334.8c-4.2,8-8.7,15.7-13.1,23.6c-8.4,15.1-18.6,28.9-28.6,42.9c-5.9,8.3-11.9,16.9-20,23.4
		c-9,7.2-20.4,9-30.7,13.5c-9.5,4.1-17.8,9.1-26.5,14.5c-7.9,4.8-15.9,6.4-25,6.6c-12.2,0.2-26.4-0.9-38.4-3.3
		c-11.8-2.3-23-6.8-34.4-10.6c-11-3.6-21.1-9.9-32.2-13.1c-20.6-6-40.8-14.9-61.3-22.3c-11.2-4-21.4-10.2-32.5-14.4
		c-4-1.5-8.3-2.2-12.2-3.9c-3.9-1.8-7-4.6-10.9-6.3c-14.1-6.2-23.9-14.1-35.2-24c-5-4.3-9-9.6-13.4-14.4
		c-4.8-5.3-10.5-10.1-14.7-15.9c-4.9-6.7-8.8-14-11.5-21.8c-9.4-26.6-12.6-56.5,5.2-80.1c7.7-10.2,13.7-20.2,24.3-27.9
		c6-4.3,12.3-7.1,16.9-12.9c4.7-5.8,8.3-12.4,13-18.2c7.4-9.2,9-17.6,10.4-28.7c1.6-12.8,3-26-0.9-38.4
		c-4.7-14.8-15.4-13.2-28.7-12.4c-13.2,0.7-25.3,4.5-33,16c-8.7,13.1-9.2,31.7,4.5,41.7c-17.6,9.2-24.8-13.3-25.3-27.5
		c-0.3-8.5,1.6-16.9,4.5-24.5c4-10.5,13.2-17.8,22.5-23.5c17.9-11.1,37.8-12.2,56.9-4.1c10.1,4.3,19.6,10.5,24.5,20.4
		c7.3,14.7,9.4,30.8,7.4,46.9c-2.1,16.8-10,26.8-19.3,40.4c-10.9,16-24.9,27.7-38,41.7c-6.8,7.3-11.3,16-17.2,24
		c-13.4,17.8-14.2,43.9-6.2,64.1c2,5,4.5,9.7,7.8,14c5.9,7.7,11.5,14.2,18.6,21.1c6.3,6.2,13.9,10.5,21.9,14
		c16.7,7.4,29.9,15.7,48.2,18.9c12.7,2.3,24.8,6.5,37.7,8.3c15,2.1,30.3,0.9,45.4,1.9c23.4,1.6,46.5,3.6,69.9,4.6
		c7.9,0.3,15.9,1.8,23.7,0.3c28.7-5.7,58.6-11.3,85.8-22.7c20.5-8.6,37.3-24.4,50.7-41.8c4.4-5.7,7.1-12.5,11.8-18
		c4.5-5.2,10.3-3.3,9.5,3.6c-0.6,5.5-4.6,10.2-6.8,15.1C698,328.4,696.4,331.6,694.8,334.8z"/>
	<path class="st6" d="M502,343c2.6,3.8,1,24.5-2.3,21.3c-4-3.8-2.2-7.1-4.2-11.8c-5.6,2.9,0.1,20.9-9.4,18.9c-4.2-0.9-4.1-17-4-21.8
		c-2.3,3-5.8,2-8,5.3c-1.8,2.6-0.7,8.7-4.5,10c-9.9,3.5-4.1-13.6-6-16.8c-0.4,3-14.3,3.5-17.5,2.3c-2.9-1-1.9-3.4-6-3.5
		c-2.4-0.1-5.5,0.6-6.1,3.4c-0.9,0.5-2.3,0.7-3.3,0.5c0.1-1-0.6-1.9-0.7-2.9c-4.5-0.6-5.4,2.1-8.8,4c-4,2.4-5.1,1.2-9-1.1
		c-3.8-2.2-4.7-2.5-9.1-2.5c-4,0-6.6,0.2-9.9-2.6c-1.1-0.9-2-2.8-3-3.5c-2.1-1.5-1.9-0.6-4.1-1.4c-3.4-1.2-7-3-11-2.5
		c-4,0.5-5.2,2.4-9.1-0.4c-3.8-2.7-3.5-3.9-8.4-4.6c-6.6-1-9-3.2-14.4-6.4c-4.7-2.8-10.9-2.1-15.1-6.1c-4.5-4.4-6.9-10.5-13.4-13
		c-2.8-1.1-6,0.1-9.6-1c-2.7-0.9-5.4-2.2-7.6-4.5c-2.5-2.6-3.5-5.5-5-8.5c-1.6-3.1-3.5-3.7-5-6.3c-4.1,8.4-5.9,2.1-5.9-4.2
		c0-5.9,0.4-11.4,0.5-17.3c-2.4,2.7-3.5,7.3-4.6,10.7c-8.6,2.5,0.1-25.2,6.5-27.6c4.1-1.5,3.6,5.8,4.1,8.6c0.7,3.4,1.4,6.9,2.9,10.1
		c2.9,6.5,7.1,13,12.3,18.3c11.2,11.6,28.3,24,43.2,29c5.8,1.9,10.9,5.5,16.7,7.6c6.6,2.3,12.5,6.2,19.4,7.5
		c6.5,1.3,13.2,2.7,19.8,3.9c15.1,2.9,30.5,4.3,45.8,6.1c9.6,1.1,18.5,3.9,28.1,3.1C484.2,342.8,494.2,341,502,343z"/>
	<path class="st6" d="M338.6,89.9c0.2,2.7-0.6,5.5-0.3,8.3c0.3,2.7,1.2,5.1,0.9,8.1c-0.6,5.7-2.8,9.6-4.4,14.7
		c-1.7,5.2-3.2,11-4.3,16.3c-1.2,5.8-5.6,11.5-9.9,15.7c-2.9,2.8-6.3,5.2-9.3,8c-2.3,2.3-4.1,4-7.3,4.3c2.1-3.8,4.6-7.8,8-10.9
		c3.8-3.6,7.9-6.3,10.7-11c2.7-4.6,3.4-9.6,4.8-14.5c1.4-4.6,4.1-9.3,5.4-13.9c1-3.6,0.3-8.2,0.7-12c0.4-4,1.9-7.9,1.4-11.7
		c-0.5-3.8-3-7.1-3.7-10.9c-0.2-1.3-1.9-8,0-8.5C334.3,71,338.5,87.7,338.6,89.9z"/>
	<path class="st6" d="M296.3,170.9c2.3,0.4,5.4-1.8,5.7-4C299.5,167.4,297.2,168.4,296.3,170.9z"/>
	<path class="st6" d="M316,47.9c3.7,1.6,7.3,4.8,9.5,8.1c1.5,2.2,2.6,5.8-1.7,4.1c-2.1-0.9-2.1-2.4-3.5-4.1c-2.5-3-7.1-4.8-10.7-5.3
		c-2.9-0.4-4.4-2-7-2.7c-2.7-0.8-4.7,0.9-7,1.4c-5.5,1.1-10.3-1.7-15.4-0.7c-5.6,1.1-8.6,2.5-13.2,5.7c-3.1,2.2-8,7.2-11.9,7
		c3.5-9.5,19.5-17.5,29.1-16.4c2.9,0.3,5,1.2,8.1,0.6c2.9-0.6,5.4-1.8,8.6-1.6c2.4,0.2,4.7,1.2,7,2.1c1.7,0.6,2.1,1,4,1.3
		C313.3,47.5,314.7,47.3,316,47.9z"/>
	<path class="st14" d="M838.9,245.9c-3.2,1.7-6.9,2.5-9.8,5.1c-2.1,1.9-3.1,4.7-5.8,6c-2-4.1,1.9-9.4,4.1-12.8
		c4.9-7.7,15.5-10,23.9-10.8c2,4.4,1,8.6,0.8,13.1c-0.1,2.9-1.6,9.9-0.8,12.4c-1.5-4.3-1.6-10.5-3.9-14.5c-2.8-4.9-4.3-1.1-7.3,0.9
		C839.8,245.5,839.4,245.7,838.9,245.9z"/>
	<path class="st14" d="M830.3,295.5c0.1-0.9-18.7,4.7-20.7,7.6C815,307.2,829.2,303,830.3,295.5z"/>
	<path class="st14" d="M805.2,273.9c-2.5,4.4-6.9,9.4-8.2,14.4c-3.9-7.5,3.8-23.8,11.5-26.5C809.6,265.6,807.2,270.5,805.2,273.9z"
		/>
	<path class="st14" d="M814.9,310.4c3.2-1.5,7.6-4.9,10.4-2.7c-1.9,3.5-9.2,6.3-10.7,2.1"/>
	<path class="st6" d="M757.7,321c-3.7-8.5,1.3-21.7-4.6-28.9c-1.5,3.4-2.9,7.8-3.2,11.6c-0.5,4.8,0.2,9.9,0.7,14.7
		c0.8,9.3,5.3,18.2,5.9,27.3c0.3,4.9-4.4,10-5.7,14.7c-1.9,6.6,0.6,9.1,1.2,14.7c0.3,2.7-1.4,5-1.3,7.6c0.1,3.4,1.9,5,2.4,8
		c0.9,5.5-3.6,12.2,4.1,14.6c-0.1,13.9,1.6,26.6,18.6,28.7c4.1,0.5,10.5,0.2,9.4-6.2c-0.3-1.8-4.4-4.7-5.2-6.7
		c-1.4-3.1-0.5-4.9-2.7-8c-3.4-5.1-8.6-7.3-10-13.3c-1.3-5.6-1.9-10.7-3.8-16.1c-3.5-9.7-5.1-21.1-3.5-31.2
		C761.5,341.2,762.2,331.3,757.7,321z"/>
	<path class="st6" d="M676.6,345c-1.9,3-5.5,5.4-7.2,8.1c-2.2,3.4-1.9,7-5.3,9.8c-1.5-6.7,8-15.9,11.2-21.3
		c4.3-7.3,6.7-15.1,11.3-22c4.5-6.7,8.6-13.3,11.5-20.7c3.1-7.9,4.4-16.7,8-24.5c6.7-1.5,4.2,8.6,3.2,11.9c-1.1,3.5-4,5.7-5.2,8.8
		c-2.5,6.5-2.5,15.4-6.8,21.2c-0.8,1.1-2.4-0.2-3.4,2c-0.5,1.2,0.2,3.4,0,4.7c-0.6,3.2,0.2,5.3-2.7,7.4c-0.7,0.5-3.3-4.4-3.5-4.9
		c-2.8,7.4-3.5,21.2-11.5,24.9c0.2-1.5,0.7-3.2,1-4.8"/>
	<path class="st6" d="M650,380.8c-1-0.5,6.5-11.5,9.8-11.5C658.3,374.7,658.4,384.5,650,380.8z"/>
	<path class="st6" d="M679.2,257.8c8.6,0,17.6-3.4,24.7-7.9c6.7-4.2,10.4-11,16.1-16c3.1-2.7,8.2-1.8,10.7-3.8
		c3.2-2.6,1.3-8.7,7.1-7.4c2.6,0.6-14.5,27-15.1,29.1c3.8,0.6,9-2.6,12.4-2.9c0.8-0.1,0.3,2.8,2.7,2.3c1.4-0.3,2.7-2.6,4-3.4
		c4.3-2.7,4.6-1.9,10-1c10.7,1.8,20.7-5.3,14.9-16c15.8-4.4,10,10.4,4.7,17.9c-4.3,6.1-7.7,21.1-1.6,27.3c1.9-4.7,4.7-8.6,6.6-13.3
		c2-4.6,1.9-9.2,4.7-13.5c2-3.1,5.9-8.4,8-10.6c4.1-4.4,9.9-4.5,15-7c9.7-4.7,19.8-5,30-5.4c10.8-0.4,18.3,3,27.8,6
		c5.4,1.7,10.2,4.3,13.5,8.9c4,5.7,1.6,24.2,8.9,27c3.7,1.4,2.3-2.1,3.3-3.8c2-3.5,5-2.6,4.3-7.3c-0.5-3.3-2.7-6.3-3-9.6
		c-0.8-6.8,3.1-10.4,8.5-5.2c6.4,6.2,10.7,18.9,21.2,21.7c0.4-5.4-7.1-16.2-10-20.6c-2.5-3.7-3.8-7.6-4.8-11.6
		c-20.4-22.7-44.9-42-77.6-38.8c-24.8,2.5-47.6,3.8-72.7,3.1c-18.8-0.5-23,10-35.5,22.5c-8,8-17.7,11.5-28.4,15.4
		c-4.7,1.7-9.3,3.4-13.9,5.1c-6.1,5.1-12.3,9.5-19.6,14.2C658.2,262.9,672.6,257.8,679.2,257.8z"/>
	<path class="st4" d="M886.2,227c-0.3-2.7-3.6-5.2-5.8-6.5c-0.9-0.5-9.3-2.3-9.1-1.4c1.7,6.6,10.1,10.1,16.5,9.1
		c-0.6-1.4-1.8-3-3.2-3.9"/>
	<path class="st4" d="M861.3,214.1c-0.1,2.3-0.6,4.3,0.6,6.3c1.2,2.1,4.8,4.1,4.8,0.4C866.7,219.1,863.1,214.2,861.3,214.1z"/>
	<path class="st4" d="M712.5,230.5C712.5,230.6,712.5,230.6,712.5,230.5c-1.3,1.2-5.4,4-7.2,3.6c-3.6-0.9,0.6-3.4,1.9-4.3
		c3.6-2.5,7.3-4.7,11-6.9c2.8-1.6,5.9-4.5,8.9-5.2c0.7,2.3-0.9,4.9-2.9,5.9c-2.6,1.3-6.6,1.6-8.8,3.4
		C714.1,228,713.7,229.5,712.5,230.5z"/>
	<path class="st4" d="M697.9,239.3c3,0.2,4.6-3.9,2.1-3.2C699.3,236.2,698.1,239.3,697.9,239.3z"/>
	<path class="st6" d="M517.7,377.4c7.6-4.2,2.3-14.9,2.9-22.1c0.4-4.5,2.8-9.6,3.7-14.4c-1.4,0.2-2.9,0.4-4.3,0.6
		C516,352.7,511.1,370.8,517.7,377.4z"/>
</g>
<g id="Layer_3">
	<path class="st15" d="M823.1,457.5c-13.1,15.6-29.1,31.3-35.8,51c-3.3,9.5-3,14.6,8.4,12.1c12.2-2.7,24.3-7,36.9-7.7
		c5.4-0.3,17.5-3.4,22.2,0.3c5,3.8-2.1,11.5-5.2,14.7c-12.4,12.9-28.4,20.8-45.5,25c-4.4,1.1-8.6,3.2-13,4.6
		c-14.3,4.6-29.1,12.9-44.1,14.3c-16.4,1.5-34.5-4.3-40.6-21c-4.9-13.3-0.9-35.4,3.2-48.5c5.6-17.7,15.9-33.6,26.4-48.7
		c10.6-15.2,23.9-27.8,36.2-41.5c12-13.4,29.4-19.9,45.6-27.6c18.2-8.7,39-12.9,58.5-17.6c18.4-4.5,37-5.9,55.5-9
		c17.1-2.9,32.9,1.6,49.7,5c24.2,4.9,53.7,29.9,55.8,56.2c2,25.5-21.7,46.3-42.6,55.4c-13.1,5.7-33.6,13.8-48.2,11.4
		c-21.4-3.5-21.7-31.3-14.6-46.8c4.1-8.9,10.4-17.2,20.7-18.8c15-2.3,26.8,7.9,20.4,23.3c-2.7,6.5-7.5,11.6-14.6,9.2
		c-9.6-3.2-8.4-10.1,0.2-9c1.2,0.2,2.5,0.1,3.6-0.3c2.2-19.2-30.1-4.7-18.8,13.8c16.3,26.4,53.8-6,50.3-29.4
		c-5-33.6-52.6-29.6-76.9-28C878.5,402.5,846.8,429.4,823.1,457.5z"/>
	<path class="st13" d="M941.1,384.5c-17.6-6-37.1-4.2-54.5,1.8c-12.2,4.1-23.7,10.1-34.4,17.1c-14.8,9.8-29.8,19.5-43.6,30.7
		c-11,8.9-22,17.8-30.7,29.1c-8.1,10.6-14.6,23-20.4,34.6c-3.4,6.9-10.9,21.2-7.7,29.1c2.9,7.2,15.9,7.6,22.2,7
		c11.3-1.1,24.6-6.3,34.4-12.1c3.2-1.9,5.3-3.7,6.8-5.7c-5.9,1.5-11.7,3.1-17.6,4.4c-11.4,2.5-11.7-2.6-8.4-12.1
		c6.8-19.7,22.7-35.4,35.8-51c23.7-28.1,55.5-55,93.7-57.6c16.5-1.1,43.5-3.3,60.9,5.8C970.3,395.3,952,388.1,941.1,384.5z"/>
	<path class="st7" d="M963.9,359.4c1,0.2,2,0.4,3.1,0.6c-1.4-0.9-2.9-1.6-4.4-1.9c0,0.1,0,0.1,0,0.2l1.9,0.8
		C964.3,359.1,964.1,359.2,963.9,359.4z"/>
	<path class="st15" d="M874.3,617.4c-11.4,5.8-21.8,13.4-33.4,18.9c-18.8,9-41.1,15-61.1,6.3c-17.4-7.5-28.1-24.7-29.4-43.3
		c-1.5-21.4,8.3-41.7,20-58.9c13.5-19.8,30.3-37.7,48.3-53.5c17.4-15.2,36.8-28,58.7-35.8c21.6-7.7,44.7-10.6,67.4-12.7
		c37.7-3.4,89.5-9.8,108.1,32.3c8.5,19.1,9,43.7-1.3,62.2c-8.9,16.1-26.2,23.8-44.1,19c-7.4-2-27.8-11-23.6-22c3.5-9.1,23.4-9,31-11
		c12.2-3.2,23.6-10.7,19.5-24.9c-5.1-17.9-24.9-30-41.5-35.2c-46.7-14.7-94.6,14.7-130.9,41.2c-18.4,13.4-36.9,28.7-49.1,48.2
		c-8,12.7-15.3,31.7-4.6,45.1c11.1,14,29.5-6.1,45.1-8.9c4-0.7,17.4-9.5,21.4-10.4c2.3-0.6,14.5,0.6,15.1-1.3
		c0.5-1.4,6.3,3.8,7.3,2.7c1.1-1.2,6,3.4,7.4,2.7c3-1.5,16.7,5.5,24.5,0.6c-10.1,6.4-18.4,15.2-27.8,22.5L874.3,617.4z"/>
	<path class="st5" d="M962.1,358l0.6,0.2c0-0.1,0-0.1,0-0.2C962.4,358,962.2,358,962.1,358z"/>
	<path class="st13" d="M1037.3,419.2c-2.1-26.3-31.6-51.3-55.8-56.2c-4.9-1-9.7-2.1-14.5-3c2.3,1.4,4.5,3.3,6.5,4.5
		c4.6,2.6,9.4,4.5,13.4,8.1c7.8,7,13.6,16.6,16.5,26.7c4.9,17,9,37.7,1,54.6c-7.3,15.4-24.2,21.4-37.9,29.6c-0.8,0.4-1.7,1-2.8,1.6
		c11-2.2,22.6-6.9,31-10.6C1015.6,465.4,1039.4,444.7,1037.3,419.2z"/>
	<path class="st15" d="M1042.6,442.4c-2.1-26.3-31.6-51.3-55.8-56.2c-16.8-3.4-32.6-7.9-49.7-5c-18.6,3.1-37.1,4.5-55.5,9
		c-19.5,4.8-40.3,9-58.5,17.7c-16.2,7.8-33.6,14.2-45.6,27.6c-12.3,13.6-25.6,26.3-36.2,41.5c-10.5,15.1-20.8,31-26.4,48.7
		c-4.2,13.1-8.2,35.2-3.2,48.5c6.2,16.7,24.2,22.5,40.6,21c15-1.4,29.8-9.8,44.1-14.3c4.4-1.4,8.6-3.5,13-4.6
		c17.1-4.2,33.1-12.1,45.5-25c3.1-3.2,10.2-11,5.2-14.7c-4.7-3.6-16.8-0.5-22.2-0.3c-6.5,0.3-12.9,1.7-19.3,3.3
		c-1.5,2-3.6,3.8-6.8,5.7c-9.8,5.8-23.1,11-34.4,12.1c-6.3,0.6-19.3,0.2-22.2-7c-3.2-7.9,4.2-22.2,7.7-29.1
		c5.8-11.6,12.3-24,20.4-34.6c8.7-11.4,19.7-20.2,30.7-29.1c13.8-11.2,28.8-20.9,43.6-30.7c10.7-7.1,22.2-13,34.4-17.1
		c17.4-5.9,36.9-7.8,54.5-1.8c10.8,3.7,29.2,10.9,36.6,21.3c8.3,4.4,14.4,11.3,16,22.2c3.5,23.4-34,55.8-50.3,29.4
		c-11.4-18.5,21-33,18.8-13.8c-1.2,0.4-2.4,0.5-3.6,0.3c-8.5-1.1-9.7,5.8-0.2,9c7.2,2.4,11.9-2.7,14.6-9.2
		c6.4-15.3-5.4-25.6-20.4-23.3c-10.3,1.6-16.6,9.9-20.7,18.8c-7.1,15.6-6.9,43.3,14.6,46.8c14.6,2.4,35.1-5.7,48.2-11.4
		C1020.9,488.7,1044.6,467.9,1042.6,442.4z"/>
	<path class="st4" d="M797.1,502.3c8,9.1-12.8,20.9-1.4,18.4c12.2-2.7,24.3-7,36.9-7.7c5.4-0.3,61.6-26.9,66.3-23.3
		c3.3,2.5-32.3,31.9-35.4,34.5c-17.1,14.5-37.7,23.5-59.4,28.9c-4.4,1.1-8.6,3.2-13,4.6c-14.3,4.6-29.1,12.9-44.1,14.3
		c-16.4,1.5-34.5-4.3-40.6-21c0,0,16.9-24.2,38.9-35.3C765.9,505.2,793.3,497.9,797.1,502.3z"/>
	<path class="st16" d="M840.7,387.3c0.9,0.4,1.7,0.9,2.6,1c3.4,0.1,1.7-2.5,3-4c1.5-1.7,2.1,0.7,3.8,1c2.7,0.5,1.3-0.9,2.2-2.5
		c1.2-2,2.2-0.5,3.8-1.7c4.1-2.8-2.8-4.6-5.1-3.6c-1,0.5-0.8,1.4-1.7,1.8c-0.6,0.2-2-0.3-2.8-0.3c-3.2,0.1-2.2,1.2-3.7,3.1
		c-1.5,1.9-3.6,0.5-5.6,1.4c-1.5,0.7-1.7,3.4-3.2,3.8c-1.7,0.5-2.9-1.5-4.8-1.1c-2.6,0.7-1.1,3.1-2.9,4c-1.3,0.6-3.2-1.7-5.3-1
		c-2.4,0.8-1.9,2.4-2.5,4.5c-1.7,0.2-3-1.7-5-1c-4.2,1.5-1.4,11.1,0.8,9.3c0.8-0.7-0.3-3.2,0.2-4.3c1.8-0.4,4.2,1.9,5.8,0.8
		c1.8-1.4-0.5-3.6,2.2-4.3c2.2-0.6,3.4,1.6,5.6,0.6c2.2-1.1,0.6-3.7,1.9-4.6c1.3-1,3.6,1.8,5.3,1.3c2.2-0.7,0.4-3.6,2.7-4.5
		C839,386.6,839.9,386.8,840.7,387.3z"/>
	<path class="st16" d="M862.1,378c2,0.2,2.6-1.7,1.5-2.9c1.2-0.7,2.9,0.8,3.8,0c1.3-1.2-1.3-2.5-2.3-2.3c-0.9,0.1-2.9,1.1-3.7,1.5
		C858.5,375.5,859.2,377.6,862.1,378z"/>
	<path class="st16" d="M869.8,370.7c-2.1,3,3.5,3.1,3,0.3c-0.9-0.3-1.7-0.5-2.7-0.5"/>
	<path class="st6" d="M132.8,385.3c2.1,1,2,1.7,3.1,3.5c0.7,1.2,2,1.9,3.2,2.4c0.7,0.3,2,0.5,2.5,1.1c-0.6,0.9-1.4,2.1-0.1,2.7
		c1.2,0.6,2.3-0.9,3-0.9c1,0,2.5,0.8,3.3,1.5c0.9,0.8,0.5,1.9,1.3,2.8c0.9,1.1,1.5,0.1,2.4-0.1c2.6-0.6,5.5,2.8,7.5,3.9
		c1.1,0.7,2.9,2.3,4.3,2.5c1,0.2,1.6-0.5,2.5,0.1c1.3,0.9,2.5,4,3.1,5.4c0.7,1.4,0.9,2.3,2.4,3c2.2,1.1,4.7,1.7,6.9,2.6
		c2.2,0.9,4.4,2.2,6.5,3.2c2.8,1.2,2-1,2.6-2.6c0.6-1.7,1.9,1,2.8-0.3c0.3-0.4-0.3-1-0.1-1.3c0.5-0.7,1.4-0.3,1.8,0.2
		c1,1.2,0.4,3.2,1.6,4.4c1.2,1.2,2,1,2.8,2.6c0.6,1.3,0.7,2.5,2.3,3c1.4,0.5,3.6-0.1,3.4-2c2.5-0.7,7.3,1.2,7.1,4.3
		c-0.1,1.4-0.8,1.5,0,2.7c1,1.6,2.8,1.5,4.4,1.8c1.5,0.3,3.3,1,4.7,0.1c1.8-1.1,1.1-3.2,2-4.8c1.6-2.8,5.5-1.1,8-0.8
		c2.1,0.3,2.7-1.3,4.3-2.2c1.8-1,3.9-0.5,5.7-1.8c1.2-0.9,2.7-1.6,3.9-2.6c-41.3-8.3-83.9-17.6-117.8-42.3
		C121.7,382.8,129.3,383.6,132.8,385.3z"/>
	<path class="st6" d="M156.2,404.1c0.2,0-1.2-2.6-1.7-2.8c-1-0.4-2.7,1.3-2,1.6c1.9,0.7,1.3,3.6,2.1,5c1,1.7,2,0.9,1.9-0.8
		c0.7-0.3,1.3-0.5,2.1-0.6C158.8,405.5,157.3,403.9,156.2,404.1z"/>
	<path class="st6" d="M137.4,398.5c-0.6-1.5-1.2-1.6-2.2-2.7c-0.7-0.7-1.6-1.7-0.4-2.4c1.5-0.9,4.1,2.7,4.4,3.8
		c0.1,0.5,0.1,2.3-0.3,2.6C137.6,400.7,137.7,399.1,137.4,398.5z"/>
	<path class="st6" d="M143.6,401.9c0.1,1.1-1.3,4.6,0.5,4.6c1,0,0.4-1.9,1.7-0.3c0.5,0.7-0.2,1.6,0.8,2c2.1,1,1.7-2.4,0.5-3.2
		c-0.7-0.4-1.4,0-2-0.7c-0.7-0.7-0.5-1.5-0.5-2.3c-0.1-0.1-0.5-0.3-0.6-0.4c-0.6,0.5-0.7,1.4-0.2,2"/>
	<path class="st6" d="M53.4,393.1c1.5-0.1,3.1-0.5,4.6-0.7c0.9-0.1,2.7-0.3,1.9-1.8c1.6-0.4,5.9-0.1,5.8-2.2c-2.7-0.8-6.3,0.7-9,1.3
		c-1.5,0.3-2.3,0.7-3.5,1.4c-1.2,0.7-2.3,0.7-3.5,1.3c-1.1,0.5-2,1.3-3.1,1.7c-1.5,0.6-2.2,0.6-2.9,2.1c-0.4,1-1,3.4-0.5,4.4
		c1,2.3,1.7-0.6,2.2-1.7c0.9-1.8,2.5-2.6,4.4-2.9C51.7,395.7,53.2,395.4,53.4,393.1z"/>
	<path class="st6" d="M43.6,400.8c-0.3,1.8-1.5,3.1-0.8,5.2c0.2,0.6,1.2,1,1,1.8c-0.4,1.2-1.6,0.6-2.2,0c-1.1-1.1-0.8-3-0.1-4.2
		c0.4-0.8,1.7-2.9,2.3-3c0.3,0.6,0,1-0.5,1.5"/>
	<path class="st6" d="M74.4,390c1-1.6-5.5-3.3-6.1-1.6c1.2,0.1,2.1,0.6,3.1,1.2C72.1,390.1,73.8,390.9,74.4,390z"/>
	<path class="st6" d="M586.1,17c4.6,1.7,7.3,7.4,12.6,10.2c4.6,2.4,6.8,3.7,9.9,7.8c3,4,4.2,9.1,7.2,13.2c1.7,2.4,3.4,4,5,6.4
		c0.3,0.5,0.2,2.4,0.6,3.2c0.5,1,1.8,0,2.2,1.1c1.4,3.7,2.3,7.5,3.7,11.4c1.1,3.1,3.3,7.2,3.4,10.6c0.6,0.1,1.2,0,1.8,0
		c2.7-7.3-3.5-14.2-5.8-20c-1.4-3.6-1.8-6.6-3.9-10c-2.2-3.5-4.4-5.5-6-9.4C613.6,34,611.2,28,603.7,25c-4.2-1.6-5.2-2.2-7.9-6.4
		c-2.2-3.5-3.3-5.2-7.4-6.3c-5.2-1.5-11.8,0.5-16.7-2.4c-1.4-0.8-1.4-2.6-3.2-2.9c-3.8-0.6-2.1,5.5,0.5,6.4c0.9,0.3,1.4-0.4,2.7,0.4
		c2.1,1.4,2.8,2.4,5.5,2.6C580.2,16.7,583.3,16,586.1,17z"/>
	<path class="st6" d="M559.9,7.4c1.6-0.5,5,1.3,3.5-1.8c-0.6-1.2-2.4-1.8-3.6-1.9c-1.4-0.2-3.2-0.1-4.4,0.6
		c-0.3,0.2-2.5,2.5-2.1,2.5c-2.3-0.1-5.7-3.1-7.8-1.3c-3.2,2.8,4.2,2.7,5.5,2.7c2.4,0,6,1.2,8,0.6C559.8,8.6,559.2,7.6,559.9,7.4z"
		/>
	<path class="st4" d="M708.9,584.5c10.9,15.1,25.8,23.8,44,25.5c23.4,2.2,46.9,4.2,69.8-2.6c29-8.7,52.1-30.4,80-41.7
		c25.6-10.3,70.9-11.6,79,24c2.9,12.6-6.7,13-16.3,12c0,0,0,0,0,0c-6.4-0.7-18.9-5.8-18.3,3.9c1.1,15.6,22.8,18.3,34.3,16.5
		c28.3-4.4,21.5-37.6,15.9-56.5c-9-30.3-38.1-44.6-65.6-55.8c-51.4-21-100.3,5.1-152.3,1c-18.8-1.5-36.8-17.8-55.7-14
		c-1.8,0.4-4,0.1-5.8,0.2c0,0-17.2,36.9-18.4,40.6C694.5,552.5,699.9,571.9,708.9,584.5z"/>
	<path class="st5" d="M988.2,591c2.6-8.4-2-21.5-8-27.3c-22.5-21.6-59.1-20.7-87.6-17.2c-45.5,5.6-91.4,10.5-137.1,4.8
		c-12.2-1.5-25.7-5.2-31.8-17c-1-1.9-10-19.7-8.8-20.6c-8.5,6.3-15.1,23.3-15.4,24.2c-4.9,15,0.4,34.3,9.5,46.9
		c10.9,15.1,25.8,23.8,44,25.5c23.4,2.2,46.9,4.2,69.8-2.6c29-8.7,52.1-30.4,80-41.7c25.6-10.3,70.9-11.6,79,24
		c2.8,12.1-5.9,12.9-15.1,12.1C975.6,605.3,985.1,601.1,988.2,591z"/>
	<path class="st6" d="M748.5,501c0.1,0.2,0.1,0.4,0.2,0.6c6.9,3.1,9.5,11.8,12.4,18.4c2.6,6.1,3.5,6.8,10.4,5
		c3.7-1,8.1-4.1,11.6-4.5c9.8-1.1,12,14.4,23.4,8.4c3.5-1.9,3.7-6.5,7.2-8.8c4.3-2.7,9.4-2.2,14-1.7c8,0.8,4.3-1.6,8.5-5.4
		c2.6-2.4,9.7-1.7,12-0.2c4.3,2.8,5.6,6.2,11.9,3.3c4.5-2.1,5.4-6.2,11-7c4.3-0.7,10.3-0.6,14.6,0c2.9,0.4,3.9-0.1,5.8,2.6
		c1.3,1.8,0.3,5.1,1.7,6.3c1.1,0.9,5.1,0.1,6-0.8c2.5-2.3,0.9-3.1-0.1-5.6c-0.5-1.1-3.6-1.8-2.9-3.5c0.9-2.3,4.2-0.3,5.9-0.5
		c4.8-0.5,10.5-1.9,15.8-2.7c-46.2-11.6-90.7,9.5-137.8,5.7c-11.5-0.9-22.8-7.4-34.1-11.4C746.8,500.1,747.6,500.9,748.5,501z"/>
	<path class="st5" d="M1028.7,427c10.3,1.2,19.5,5.7,29.8,8.3c31.4,7.9,65.6,5.2,84.4-23.5c15-23,16.8-69,3-99.9
		c0.2,6.7,0.4,13.3,0.3,20c-0.1,20.5,0,45.9-13.2,62.9c-20.9,26.9-58.8,10.1-86.7,9.9c-17.3-0.1-34.5,3.6-50.6,9.5
		c-8.9,3.3-27.2,8.6-30.8,19.5c0.8-0.2,1.6-0.4,2.3-0.7C987.2,427.2,1007.8,424.6,1028.7,427z"/>
</g>
<g id="Layer_7">
	<path class="st13" d="M1113.9,382.4c0.2-0.5,0.4-0.9,0.7-1.4C1114.3,381.4,1114,381.8,1113.9,382.4z"/>
	<path class="st17" d="M1133.3,335.5c-1.2,0.4-2.6-0.3-3.3,1.6c-0.1,0.4-0.1,0.9-0.4,1.2c-0.3,0.3-1.2,0.4-1.6,0.6
		c-1.1,0.5-1.4,1.2-2.1,2.1c-1,1.4-2.2,0.3-3.5,0.8c-1.2,0.5-1.2,2.1-1.4,3.1c-0.6,2.4-6.1,1.3-5.3,4.2c0.2,0.6,0.9,1.2,0.1,1.7
		c-0.6,0.3-1.3-0.2-1.7-0.6c-0.8-1-1.1-2.4-0.6-3.5c0.6-1.4,1.9-1.6,3.2-2.3c0.9-0.5,1.9-1,2.4-1.9c0.7-1.3,0.8-2.6,2.4-3.2
		c0.6-0.2,1.5,0,2-0.3c0.9-0.5,0.4-1.5,1.5-1.8c0.8-0.3,2,0.2,2.7-0.5c0.6-0.7,0.2-1.6,0.9-2.3c0.6-0.6,1.4-0.7,2.2-0.8
		c0.8,0,1.8-0.1,2.4-0.8c0.5-0.7,1.2-2.2,1.8-0.4c0.5,1.3-0.1,1.9-0.9,2.7C1134,335.2,1133.7,335.4,1133.3,335.5z"/>
	<path class="st17" d="M1138.1,331.1c-1.1,2.3-4.2-1.7-1-1.5C1137.7,329.6,1138.4,330.4,1138.1,331.1z"/>
	<path class="st15" d="M1164.2,366.1c-0.4-3.5-1.4-7-3.1-10c-0.8-1.5-1.9-3-3.1-4.2c-0.6-0.6-0.8-1.4-1.2-1.4
		c-0.8,0-2.4,1.9-3.3,2.7c-1.7,1.6-2.6,3-4,4.8c-1.6,2.1-3.2,4-4.8,6.1c-1.3,1.8-2.7,3.6-3.8,5.6c-0.5,0.8-1.2,1.2-2.1,1.5
		c1,0,1.5,0.6,0.6,2.2c-1,1.7-3.4,3.2-5.4,2.4c-1.1-0.4,2.1-3.4,2.4-3.6c0.2-0.2,0.4-0.3,0.7-0.4c-0.2,0.1-0.3,0.1-0.5,0.2
		c-2.5,1.1-4.3,2-6.2,2.2c-4.4,0.5-8.5,2.7-12.1,5.1c-4.4,2.9-8.4,6.4-12.1,10.1c-1.3,1.3-2.5,2.6-3.7,3.9c-0.2,0.3-2.3-1.7-2.3-1.3
		c0,3.6,2.7,7.3,4.6,10.1c3,4.3,6.2,7.8,11.4,9.2c8.1,2.2,16.9,1.8,24.9-0.6c2.4-0.7,4.7-1.8,6.8-3.2c7-4.7,11.2-12.3,13.9-20.1
		C1164,380.5,1165.1,373.2,1164.2,366.1z"/>
	<path class="st17" d="M1137.2,371.7c0.6-0.2,1.2-0.4,1.7-0.5C1138.4,371.2,1137.8,371.4,1137.2,371.7z"/>
	<path class="st15" d="M1186.2,320.2c0-8,0.6-14.4-4.5-21.3c-6.3-8.7-16.8-13.1-27.3-16.2c-4.1-1.2-8.2-2.2-12.1-3.2
		c-8.8-2.2-20,3-28.5,5.4c-9.5,2.7-18.9,8.1-27.9,2c-0.1-0.6-0.2-1.3-0.4-2c-1.6-0.4-3.7-2.2-4.5-3.6c-5.7-9.6,3-21.5,12.3-23.9
		c3.4-0.9,7.8,2,6,6c-0.6,1.4-2.6,2.8-3.7,3.8c-1.6,1.5-3.1,2.8-4.6,4.4l-0.3,0.3c-0.1-0.2-0.2-0.4-0.3-0.6c-2,2-3,4.2-0.2,8.1
		c7.6-1.5,20.6-9.1,20.1-18c-0.8-13.5-17.1-9.1-24.7-4.5c-9.4,5.8-17.9,20.7-14.8,32c2.5,9.3,11.8,19.9,21.6,21
		c15.6,1.8,34.2-2.8,49.6-5.5c5.1-0.9,9.5-1,13.9,2c3.9,2.7,9.3,8.6,4.9,12.7c-3.6,3.4-12,2.4-16.6,3.5c-6.4,1.6-12.1,4.9-17.4,8.7
		c-10.3,7.5-19.1,16.1-24.5,28c-2.5,5.5-3.5,12.1-3.7,18.1c-0.2,5.3,0.6,10.6,1.5,15.7c1.2,6.5,7.8,4.2,12.2,2.8
		c0.7-0.2,1.4-0.5,2.2-0.8c9.1-3.6,18.6-11.8,23.5-19.7c6.3-10.1,12.7-21.7,22.9-28.4c5.3-3.4,11.3-4.6,17-6.9
		C1187.6,336.5,1186.2,328.8,1186.2,320.2z M1139.3,373.5c-1,1.7-3.4,3.2-5.4,2.4c-1.1-0.4,2.1-3.4,2.4-3.6c0.2-0.2,0.4-0.3,0.7-0.4
		c0.6-0.2,1.2-0.4,1.7-0.5C1139.6,371.3,1140.2,371.9,1139.3,373.5z"/>
	<path class="st13" d="M1138.4,374.5c0-0.1,0.1-0.2,0.1-0.3c-0.1,0.1-0.2,0.2-0.3,0.3C1138.3,374.5,1138.4,374.5,1138.4,374.5z"/>
	<path class="st17" d="M1138.6,374.2c0.2-0.3,0.5-0.6,0.6-0.9c0.4-0.7,0.5-1.2,0.4-1.6C1139.2,372.6,1138.9,373.4,1138.6,374.2z"/>
	<path class="st13" d="M1186.2,320.5c0-8,0.6-14.4-4.5-21.3c-6.3-8.7-16.8-13.1-27.3-16.2c0.7,0.8,1.9,1.4,2.5,1.8
		c2.8,1.9,5.7,3.9,8.4,6.1c3.3,2.7,6.1,5.3,8.2,9c1.9,3.4,4.1,6.3,4.9,10.2c0.9,4.3,0.9,8.5-1,12.6c-1.7,3.8-4.2,5.1-7.8,6.9
		c-3.8,1.9-7.9,2.2-11.8,3.9c-4.9,2.2-9.1,4.7-13.2,8c-3.2,2.6-6.6,5-9.5,8c-3.1,3.1-6.1,6.2-8.9,9.5c-5.3,6.3-16.3,18.9-7.4,26.8
		c6.3,5.6,19.4,2.4,24.2-4c2.8-3.7,4.1-8.7,4.3-13.2c0-1.3-0.3-4.4-1.6-5c4.2-6.2,9-12,15.2-16c5.3-3.4,11.3-4.6,17-6.9
		C1187.6,336.7,1186.2,329.1,1186.2,320.5z M1139.3,373.8c-1,1.7-3.4,3.2-5.4,2.4c-1.1-0.4,2.1-3.4,2.4-3.6
		C1138,371.2,1140.9,371,1139.3,373.8z"/>
	<path class="st6" d="M962.6,255.5c1.2-0.8,3-1.5,3.8-2.4c1.2-1.4,1.1-3.6,2.7-5c3-2.6,7.2-1.1,4.6-7c0.7,1.5,5.4-2.1,5.8-3
		c1.2-2.5-0.4-6.4,1.1-8.4c0.8-1,2.2-0.8,3-1.8c1.1-1.5,1.2-3.5,1.4-5.4c0.3-2.6,1.1-4,2.1-6.3c0.7-1.6,3.6-10.7-0.1-10.7
		c-0.5,0-2.2,6.3-2.4,7c-0.6,2.2-2,3.4-2.3,5.9c-0.3,2.1,0,4.1-1.7,5.7c-1.6,1.5-3.2,2-3.6,4.2c-0.5,3.3,1,6.3-1.4,9.2
		c-1.4,1.6-3.9,1-5.4,2.7c-1.2,1.3,0.1,2.7-0.7,3.9c-0.5,0.7-1.9,0.7-2.6,1.3c-0.3,0.3-1.3,1.8-1.7,2.3c-1.5,1.8-2.5,3.7-3.8,5.6
		c-1.7,2.7-1.4,9.5-4.4,11.1c-0.9,0.5-2.6-0.5-3.3,0c-2.1,1.3,4.5,4.2,6.5,2.9c4.4-2.7,0-7.5,1.6-10.8
		C961.8,256.1,962.1,255.8,962.6,255.5z"/>
	<path class="st6" d="M989.2,198.4c-0.1,0-0.8,0-0.9,0c-0.1-0.1-1.2,4.5-0.9,5.1C989.3,206.9,990.4,198.2,989.2,198.4z"/>
	<path class="st6" d="M951.6,268.2c0.3,0.8,2.5,1.3,2.7,2.6c0.3,1.9-1.6,1.9-2.9,1.4c-1.5-0.5-3-2.1-1.3-3.4
		c1.9-1.5,2.6,1.4,4.3,1.4"/>
</g>
<g id="Layer_8">
	<path class="st6" d="M625.3,443.1c-4.8,5.4-4.4,24.3,1,29.2c0.7-1.9,3.7-4.8,4.3-6.7c8.9,3.3,7.2,14.6,12.2,21
		c6,7.6,14.9-0.1,22.8,4.9c6.9,4.3,8.3,14.8,16.1,18.2c1.8-3.1,1.3-6.2,0.7-9.9c3.9-1.1,7.4,0.9,10,3.7c5.5-14.4-1.5-13.9-11.5-16.5
		c-3.5-0.9-7.8-2.1-11.3-3.1c-7.5-2-12.6-6.1-18.3-10.2c-7.5-5.4-7.7-7.3-12.2-15.8c-2.1-4.1-8.4-15.6-12.1-17
		c-1.7,2.6-2.8,6.2-3,9.5"/>
	<path class="st16" d="M810.6,502c4.7-2.1,8.1-6.1,13-8.3c5.5-2.5,9.4-1.4,15-2.7c8.2-2,17.2-13.7,24.9-4.2
		c-5.9,5.6-17,10-24.9,11.3c-5.4,0.9-9.3,0.5-14.3,2.7c-5.1,2.2-6.1,5.7-12.6,5.1c-0.3-5.2,4.4-7.7,8.8-8.8"/>
	<path class="st6" d="M621.3,412.7c9.9-3.2,2.5,19.3-1.6,22.3c-11,7.9-5.5-7.6-3-14.5C618.1,416.5,619.8,413.2,621.3,412.7z"/>
	<path class="st6" d="M622.1,403c-0.1,3-2.7,9.2-6.7,11.8c-5.2-6.6-2.3-19,7.6-17.7c1.9,4.4,1.1,8.8-2.8,10.8"/>
	<path class="st16" d="M778.9,513.3c-2.4,0.7-9.3,5.5-6.1-1.4c1.7-3.7,7.7-4.2,11.2-4.5c2.1-0.2,16.4-6.6,14.4-1.9
		c-0.8,1.8-9.8,7.3-11.9,8C784.4,514.3,781.3,512.7,778.9,513.3z"/>
	<path class="st16" d="M868.6,481.5c0.1,0.5-0.1,0.9,0.1,1.4c3.8,0.7,6.2-2.5,7.9-5.3c-2.9-1.7-4.8,1.4-7.3,2.5
		c-0.3,1.2-0.1,2.2,0.4,2.9"/>
	<path class="st17" d="M1095.1,271.7c0.3-0.6,0.1-0.9,0.2-1.5c0-0.2,1.3,0.2,1.5,0.1c0.4-0.2,1.1-1,1.3-1.4c0.2-0.5-0.2-1.4,0.5-1.7
		c0.2-0.1,0.6,0.1,0.8,0.1c0.5-0.1,1.2-0.5,1.4-1c0.3-0.6-0.1-1.2,0.1-1.7c0.2-0.6,0.6-0.4,0.9-0.8c0.7-0.7,0.6-2.1-0.3-2.7
		c0,0,0.3-1.2,0.2-1.4c-0.1-0.7-1.1-0.9-1.5-1.5c-0.4-0.5-0.1-0.6-0.8-1c-0.4-0.2-1.3-0.3-1.1,0.4c0.8,0.1,0.6,0.9,1,1.4
		c0.4,0.5,1.1,0.5,1.3,1.3c0,0.2,0,0.6,0,0.9c0,0.3,0.3,0.6,0.2,0.9c-0.1,0.5-0.4,0.6-0.6,1c-0.4,0.7-0.2,1.6-0.5,2.4
		c-0.5,1-2,0.5-2.5,1.7c-0.1,0.4,0.1,0.7-0.1,1.1c-0.4,0.7-1.5,0.6-2.1,1.1c-0.8,0.6-1.5,1.5-1.6,2.5
		C1093.2,273.6,1094.5,272.7,1095.1,271.7z"/>
	<path class="st17" d="M1097.7,256.9c-0.1,0,0-0.1-0.2-0.1c-0.1,0.3-0.2,0.5-0.2,0.8c-0.5,0.1-0.8-0.3-0.7-0.8
		c0.4-0.1,0.8-0.3,1.2-0.1"/>
</g>
</svg>
