<?xml version="1.0" encoding="utf-8"?>
<!-- Generator: Adobe Illustrator 19.2.1, SVG Export Plug-In . SVG Version: 6.00 Build 0)  -->
<svg version="1.1" id="Layer_2" xmlns="http://www.w3.org/2000/svg" xmlns:xlink="http://www.w3.org/1999/xlink" x="0px" y="0px"
	 viewBox="0 0 1157.4 622.5" style="enable-background:new 0 0 1157.4 622.5;" xml:space="preserve">
<style type="text/css">
	.st0{fill:#7F1F20;}
	.st1{fill:#60201F;}
	.st2{fill:#541B1B;}
	.st3{fill:none;}
	.st4{fill:#4E1818;}
	.st5{fill:#F6EC13;}
	.st6{fill:#72692B;}
	.st7{fill:#FFFFFF;}
	.st8{fill:#662020;}
	.st9{fill:#341717;}
	.st10{fill:#5C1713;}
	.st11{fill:#471413;}
</style>
<title>Kraken_V2-day</title>
<path class="st0" d="M555.4,453c6.5,6.1,18.1,14.1,20.6,23.1c3.1,11.1-300.6,5.7-312.5,4.4c-23.3-2.5-47.1-8.8-68.1-19.2
	c-14.8-7.3-29.7-13.1-43-23.1c-19.2-14.5-34-33.7-49.6-51.7c-13.4-15.5-32.8-40-56.4-35.3c-48.3,9.7-19.5,98.9,26.1,76.2
	c6.4-3.2,9.7-5.3,11.1-12.4c3.7-19.2-16.7-22.7-29.9-15c-3.3,2-6.5,9.6-1.9,12.3c2.3,1.1,5,0.7,6.8-1c3-3.4-0.2-3-1.9-4.2
	c-0.4-0.1-0.9-0.1-1.3,0c0.1-1.2,0-2.4-0.3-3.5c4.8-3.9,10.1-0.2,10.3,5.3c0.2,5.8-5.6,8.5-10.7,8c-5.5-0.5-11.2-4.1-13-9.5
	c-3.8-11.7,8.2-17.4,17.2-19.8c11.9-3.1,23.8-1.3,31.4,9.8c12.1,17.6-4.9,41-24,44.6c-23.8,4.5-46.5-9-57.5-30.2
	c-6.6-12.7-8.8-30.9-4.6-44.8c2.8-9.4,9.6-22.4,17.5-28.5c22.4-17.2,54-6.7,73.9,9.9c6,5.2,11.7,10.7,17,16.6
	c32.8,36.1,103.5,53.8,154,56.6c16,0.9,31.7-3,47.3-5.2c16.5-2.4,33.4-1.1,49.9-4.3c15.5-3,30.8-9.5,46.9-8.2
	c39.1,3,58.2,23.6,97.1,28.5c9.4,1.2,24.1,1,32.4,6.4C546.1,442.5,550.3,448.2,555.4,453z"/>
<path class="st1" d="M547.1,457.4c-13.9-10-235.7-7.3-251.3-4.2c-16.5,3.4-32.9,7.8-49.8,7.2c-36.3-1.3-70-24.7-97.9-46
	c-10.6-8.1-18.3-19.2-28.1-28.2c-4.8-4.3-9.6-8.6-14.3-12.9c-7-6.5-13.3-14.3-21.3-19.6c-9.2-6.1-19.9-10.2-31.2-9.6
	c-9,0.4-19.1,5.6-25.1,12.1c-5.9,6.4-6.6,13.4-6.6,21.3c1.9-12.6,9.6-23.3,24.6-26.3c23.5-4.7,43,19.8,56.4,35.3
	c15.6,18,30.4,37.3,49.6,51.7c13.3,10,28.2,15.8,43,23.1c21,10.4,44.8,16.8,68.1,19.2c7.6,0.8,55.6,2.2,88,0.1
	c0.5-0.7,205.5-0.1,205.9-0.8C563,470.6,554.5,462.7,547.1,457.4z"/>
<path class="st1" d="M940.2,294.4c2.7,2.9,10.9,10.6,15,10.5c5.2-0.1,10.7-14,13.3-18.5c4.3-7.2,8.8-14.3,13.1-21.5
	c5.5-9.3,9.8-19.9,13.7-29.9c4.6-12.2,6.1-25.4,4.5-38.4c-1.4-9.8-4.3-19.3-8.6-28.2c-1.3-2.6-2.9-5.5-4.7-8.6
	c-1.9,5.8,0.1,13.8,1.6,19.1c6.1,20.4-2.2,43-14.3,59.9c-7.2,10-14.9,20.5-24.3,28.6c-3.9,3.3-14.2,2.9-22.8,4.1
	c-0.1,0.2-0.3,0.5-0.3,0.8C924.6,278.9,936.3,290.2,940.2,294.4z"/>
<path class="st0" d="M946.2,423.4c-18.2,25.2-28.8,56.2-53.3,76.5c-23,19.1-55.1,11.8-83.2,18.1c-19.5,4.4-36,20.8-56.4,19
	c-19.6-1.7-42.4-11.3-61.1-17.6c-14.8-5-26.7-15.9-40.5-23c-13.4-6.9-27.3-12.6-41.6-17c-17.4-5.4-27.1-1.4-44.3-0.9
	c-16.8,0.5-32-7.5-48-11.2c-29.8-7-59.6-24.4-88.1-35.1c-32-12-64.8-22-95.7-36.7c-24.9-11.9-44.9-32-62.1-53.2
	c-24.3-30-37.7-68.6-27.9-107.5c7.1-28.1,35.1-51,55.6-69.6c21.5-19.5,35.4-43.3,32.9-73.4c-2.5-29.1-23.2-44.5-51.9-37
	c-14.6,3.8-28.7,14.7-33.1,29.6c-4.2,14.3-4,45,19,40.8c15.1-2.8,13.9-24.8-1.2-21.4c2.3,2.1,3.3,5.8,3.2,8.8
	c-7.5,1.2-14.2-4.8-9.1-12.1l0,0c4.8-6.9,24.5-2.5,28.4,3.1c13.4,19.3-16.7,41.2-34.5,36.1s-28.1-26.4-29.9-43.5
	c-5.7-54.5,65.1-83.7,108.3-62.7c33.4,16.2,54.2,53.3,44.5,90.2c-11.5,43.7-63.9,58.6-83.8,96c-14.3,26.8,0.8,60.3,21.7,78.9
	c42.1,37.4,111.8,45.4,165.8,45.4c62.5-0.1,124.4-15.4,155.8-72.6c12-22,33.9-28.6,55.9-36.6c10.7-3.9,20.4-7.4,28.4-15.4
	c12.5-12.5,16.7-23,35.5-22.5c25.1,0.7,47.8-0.6,72.7-3.1c37-3.7,63.5,21.5,85.4,47.9c10.4,12.5,19.8,26.1,32.1,36.8
	s30.4,20.1,37.2,35.6C1001.1,355.1,968.7,392.1,946.2,423.4z"/>
<path class="st1" d="M633.4,476.2c2.7-1,8.6-20.9,11.4-25.9c11.8-21.3,26-41.1,38.9-61.7c13.1-21,23.1-43.3,33.9-65.5
	c3.5-7.3,2.6-20.4,9.5-25.3c1.5-1.1,3.2,16.6,3.1,18.3c-3.5,38-11.7,78-7.5,116.2c2.2,20.8,26.2,64-2.5,76.5
	c-8.7,3.8-20.3-2.2-29.3-2.5c-7.2-0.3-15,0.4-21.8-1.8c-11.2-3.7-24.9-9.6-30.6-20.3c-2.8-5.3-1.6-9-0.8-14.5"/>
<path class="st1" d="M649.8,378.3c10-14,20.2-27.8,28.6-42.9c4.3-7.9,8.9-15.6,13.1-23.6c1.7-3.1,3.2-6.3,4.7-9.6
	c5.1-11.1,11.2-19.7,9.8-33c-7.8,10.9-15.9,21.6-24.2,32.4c-13.4,17.4-30.2,33.2-50.7,41.8c-56.7,23.8-119.3,21.9-179.5,17.8
	c-22.8-1.5-45.6-3.2-68.2-7.1c-41.4-7.3-77.7-23.2-103.6-57.1c-3.2-4.3-5.9-9-7.8-14c-8-20.2-7.2-46.3,6.2-64.1
	c6-7.9,10.4-16.6,17.2-24c13.1-14,27.1-25.6,38-41.7c9.3-13.6,17.2-23.6,19.3-40.4c2-16.2-0.1-32.3-7.4-46.9
	c-4.9-9.8-14.4-16-24.5-20.4c-19-8.2-39-7-56.9,4.1c-9.3,5.8-18.5,13-22.5,23.5c-2.9,7.6-4.8,16-4.5,24.5
	c0.5,13.9,7.3,35.7,24.1,28.1l0,0c-0.6,0-1.1-0.1-1.6-0.2l0,0c-6.8-1.1-10.6-6.2-12.6-12.7l0,0c-0.1-0.5-0.3-1-0.4-1.5l0,0
	c-0.9-3.7-1.3-7.5-1.2-11.3c0-0.1,0-0.1,0-0.2c0-0.4,0-0.9,0-1.3c0-0.2,0-0.3,0-0.5c0-0.4,0-0.7,0.1-1.1c0-0.2,0-0.4,0-0.6
	s0-0.7,0.1-1s0-0.5,0.1-0.7s0.1-0.6,0.1-0.9s0.1-0.5,0.1-0.8s0.1-0.6,0.1-0.9s0.1-0.5,0.1-0.8s0.1-0.5,0.1-0.8s0.1-0.6,0.1-0.8
	s0.1-0.5,0.1-0.7s0.1-0.6,0.2-0.9s0.1-0.4,0.1-0.6s0.1-0.6,0.2-0.9l0.1-0.5c0.1-0.5,0.2-0.9,0.4-1.3c4.4-14.9,18.5-25.8,33.1-29.6
	c28.7-7.5,49.4,7.9,51.9,37c2.5,30-11.3,53.9-32.9,73.4l-2.8,2.6c-20.2,18.1-45.9,40.2-52.7,67l0,0c-0.4,3-1.3,7.3-2.4,12.3
	c-4.6,34.7,8.5,68.4,30.2,95.3c17.2,21.2,37.2,41.4,62.1,53.2c30.9,14.7,63.7,24.6,95.7,36.7c28.5,10.7,58.3,28.1,88.1,35.1
	c16,3.8,31.2,11.8,48,11.2c2.2-0.1,4.2-0.2,6.2-0.3C605.7,464.3,628.4,408.3,649.8,378.3z"/>
<path class="st0" d="M750.5,559.9c11.5-15.3,5.8-35.3,13.4-51.7c5.6-12.1,21.3-16.7,17.4-32.4c-7.6-30.4-43.4,6-52.8,11.9
	c-19.1,11.9-65-3.2-80.4-17c-9.3-8.3-8.6-20.1-11.5-31.8c-7.6-30.5-3.9-61.8-4.2-92.8c-0.3-31.6-1.8-62.5,4.2-93.9
	c3.1-16,3-31.5,4.2-48c3.5-48.3,20.1-101.9-5-147.3c-28.1-50.9-95-80.8-143.3-32.1c-13.1,13.2-17.7,42-15.2,60.5
	c2.5,18.3,20.9,41,38.6,46.5c18.7,5.8,48.5-4.7,54-23.6c4.9-16.9-7.1-43.9-28-32.6c-7.4,4-13.5,15.2-6.4,19.2
	c12.6,7,14.2-14.7,5.3-4.4c-0.6-2.3-0.1-6.5,0.3-8.9c0.5-2.8,20.6,5.9,15,19c-8,18.6-28.7,15.9-43.6,6.9
	c-19.2-11.5-21.6-39.3-9.9-56.5c14.2-20.7,51.8-18.1,72.4-9.9c52.2,20.8,30.8,73.4,21,113.3c-8.1,32.6-18.5,66-25.3,98.7
	c-12.3,58.8-29.2,118.1-26.7,178.8s14.4,129.4,83.7,142.7c28.1,5.4,60.5,10.2,88.8,3.7C728.2,575.4,743,569.8,750.5,559.9z"/>
<path class="st0" d="M988.2,178.9c-1.6-5.3-3.5-13.2-1.6-19.1c-14.1-23.2-44.1-55-70.3-37.9c-10.7,7-18.5,17.6-29.8,23.8
	c-18.3,10-16.3-32.6-30.1-20.5c-3.7,3.2-6.2,10.6-4.8,15.4c0.7,2.4,2.1,4.4,4.7,4.7c1.8,0.2,5.1-1.3,4.9-3.5s-2.5-0.9-3.7-1.9
	c-0.8-0.7-0.8-2.5-0.5-3.5c1.1-3.7,4.6-1.5,6.4,0.4c1.4,1.6,2.5,3.5,3,5.6h0.1c1.5,1,2.7,3.2,3.7,4.8c1.8,2.9,3.8,3.9,6.2,5.9
	s3.7,2.8,6.9,2.3c2.4-0.4,5-0.6,7.1-2.2c1.8-1.3,2.4-3.4,3.7-5.1c2-2.5,4.3-4.8,6.8-6.8c2.7-2.4,5.9-4.1,9.3-5.1
	c5.7-1.5,12.8-3.6,18.7-1.3l0.6,0.2c2.3,0.2,4.5,0.7,6.6,1.5c10.9,4.2,18.4,14,25.7,22.6c9.5,11.2,14.8,25.3,15.1,39.9
	c0.2,17-6.7,28.6-17.4,41.3c-4.3,5.1-10,8.8-14.4,14c-2.9,3.5-6.1,6.8-9.6,9.8c-2.1,1.9-7.5,4.6-9,7.3c8.6-1.3,18.9-0.8,22.8-4.1
	c9.4-8.1,17.1-18.6,24.3-28.6C986,221.8,994.3,199.3,988.2,178.9z"/>
<path class="st1" d="M910.3,136.1c-3.4,1-6.6,2.8-9.3,5.1c-2.5,2-4.8,4.2-6.8,6.8c-1.3,1.7-2,3.8-3.7,5.1c-2.1,1.6-4.7,1.8-7.1,2.2
	c-3.2,0.5-4.3-0.2-6.9-2.3s-4.5-3-6.2-5.9c-0.9-1.5-2.1-3.8-3.7-4.8h-0.1c0.7,2.4,1.5,4.7,2.4,7c2.8,5.8,8,10.9,14.6,11.4
	c8.3,0.7,13.8-8.5,19-13.8c7.1-7.2,17.2-12.7,27.2-11.8l-0.6-0.2C923.2,132.4,916,134.5,910.3,136.1z"/>
<path class="st2" d="M868.2,136.2c1.2,6,5.3,11,10.8,13.4c1.6,0.6,3.4,0.4,4.8-0.5c3-2-1-1-2.1-0.9c-1.2,0-2.3-0.2-3.4-0.6
	c-2.4-0.9-4.6-3-6.1-5.1c-1.4-2.2-2.5-4.5-3.2-7c-0.4-1.2-0.9-2.3-1.4-3.4c-1.3-2.4-3.3-4.4-5.8-5.6c-3.1-1.4-5.5,1.2-6.3,4.2
	c-0.5,1.7-0.7,3.4-0.8,5.1c0,0.9,0,5,1.8,4.6c-0.5-0.7-0.7-1.4-0.8-2.2c-0.1-0.9-0.1-1.8,0-2.6c0-1.6,0.3-3.1,0.9-4.6
	c1.3-2.7,2.8-4.2,5.8-2.5C865.3,130.1,867.4,132.9,868.2,136.2z"/>
<path class="st2" d="M889,145.6c0.2,0.7-0.5,1.4-1.1,1.7s-1.5,0-1.1-0.7C887.3,146,888.1,145.6,889,145.6z"/>
<path class="st2" d="M890.8,144.7c0.2,0.6-1.5,1.8-1.1,0.6C889.7,144.9,890.5,143.9,890.8,144.7z"/>
<path class="st3" d="M959.7,558.9c0,0.4-0.2,0.8-0.5,1"/>
<path class="st1" d="M704.9,529.3c-7.8-1.7-16.1,0-24-1.4c-29.1-5.2-49.9-28.7-60.5-55.1c-17.1-42.5-11.2-89.9-11.3-134.5
	c0-23.8-1.2-47.6,1-71.4c4-42.4,5-85,9.3-127.4c2.2-21.8,4.5-41.7,2-64c-4.9-43.7-49.4-71.1-91.5-62.1
	c-23.1,4.9-38.7,17.4-45.9,41.5c-5.8,19.4,1.4,46.4,17.3,59.5c8.6,7.1,19.6,7.8,30.6,7.2c19.6-0.9,27.5-8,26.6-27.9
	c-0.5,0-1.1,0-1.6,0c0,1.6-0.3,3.2-1,4.7c-1.3,3-3.1,5.8-5.5,8.1c-0.3,0.4-0.6,0.7-1,1l-0.2,0.1c-9.9,8-25.2,4.8-36.9-2.2
	c-19.2-11.5-21.6-39.3-9.9-56.5c14.2-20.7,51.8-18.1,72.4-9.9c52.2,20.8,30.8,73.4,21,113.3c-8.1,32.6-18.5,66-25.3,98.7
	c-12.3,58.8-29.2,118.1-26.7,178.8s14.4,129.5,83.8,142.8c28.1,5.4,60.5,10.2,88.8,3.7c7.6-1.7,16.4-4.7,23.7-9.1
	c-3.7-8.7-12-16.1-17.9-23.6C717,537.1,713.5,531.1,704.9,529.3z"/>
<path class="st1" d="M940.2,378.9c-7.1,15.9-14.7,31.8-24.3,46.3c-4.4,6.7-9.2,11.8-12.3,19.2c-2.9,7-5.7,14.2-10.8,20
	c-6.4,7.2-17.9,14-27.5,10.3c-4.4-1.7-6.7-5.2-9.3-8.5c-3.8-4.9-6-6.3-12-8.8c-5.1-2-9.7-5.1-13.5-9c-4.7-5.2-4-8.1-2.7-14.8
	c1.4-7,3.6-25.4-5.6-27.7c-3.6-0.9-9.9,1.7-14.1,1.3c-5.8-0.5-12.3-1.2-17.6-3.6c-4.5-2-7-6.6-10-10.7c-7.4-9.9-14.6-20.8-15.2-33.5
	c-0.7-13.6-2.9-37.9,10.3-46.8c3.6,21.2,15.5,52.8,43.1,42.2c12.2-4.7,21.1-13.9,32.5-19.5c10.8-5.3,20.5-3.6,31.2-0.3
	c5.2,1.7,10.7,2.5,16.2,2.5c5.6-0.2,10.8-2.8,16.7-2s8.9,3.4,13.2,6.9c3.7,3,8.8,5.3,12,8C948.5,356.9,943.9,370.6,940.2,378.9z"/>
<path class="st4" d="M812,349.5c-16.8,3.4-24.2-19.3-26.7-31.7c-2.6-13.4-2.1-27.2,1.5-40.3c5.8-20.9,20.3-35.2,40.5-41.3
	c8.8-2.6,19.1-7.7,28-3.4c6.5,3.1,18.1,9.9,19.3,16.6c1.9,9.7,2,24.7-1.5,33.9c-3.8,10-14.2,11.5-21.8,16.3
	c-6.2,3.9-10.3,11.9-10.7,19.2s-0.7,14.4-6.8,19.8C827.5,343.9,820,347.7,812,349.5z"/>
<path d="M810.4,298.2c-2.8,0.8-5.7,1.3-8.6,1.7c-2,0.3-3.3,0.3-2.7-2.2c3.2-12.3,10.9-22.1,20.5-30.2c7.4-6.2,15.5-11.6,22.9-17.8
	c1.9-1.6,3.7-3.4,5.6-5c-1.8,1.6-0.7,4.4,0,6.3c2.8,8.4-2.7,18.2-7.2,25c-1.4,2.1-3,4.1-4.7,6c-5.5,6-12.1,10.7-19.6,13.9
	C814.7,296.9,812.6,297.6,810.4,298.2z"/>
<circle class="st5" cx="821.5" cy="280.2" r="11.4"/>
<path class="st2" d="M940.6,289.3c-1.5-0.2-3.3-8.8-4.1-10.2c-1.7-2.8-4.4-4.3-6.4-6.8c-8.2-10.1-7,10.8,0.5,12
	c0.1-1.8,0-3.6-0.3-5.4C934.7,280.8,936.3,288.6,940.6,289.3z"/>
<circle class="st6" cx="822" cy="280.2" r="6.1"/>
<ellipse transform="matrix(0.918 -0.3967 0.3967 0.918 -40.7938 350.9473)" class="st7" cx="828.1" cy="274.1" rx="7.4" ry="2.7"/>
<path class="st2" d="M481.2,72.4c0.1-1.7-1.2-18.1,1.8-17c1.6,0.6,1.7,4.2,1.6,5.4c-0.2,2.4-0.7,3.5-0.5,6.1s0.1,4.4,0.1,7
	c0.1,6.1,1.1,12.1,3,17.9c1,3.2,3.1,5.4,4.8,8.2c1.2,2,2.1,4.4,3.3,6.4c0,0,4.7,5.5,2.4,5.7c-2.6,0.1-3.1-2.8-4.2-4.3
	c-1.4-2.1-3.8-3.7-5.4-5.7c-3.2-4.1-4.4-9.8-5.9-14.7C480.5,81.9,481,77.9,481.2,72.4z"/>
<path class="st2" d="M486.5,38.4c1.2-0.6,3.7,1.2,3.8,2.5c0.1,1-1.9,3.1-2.4,4.1c-0.7,1.3-2.8,7.7-3.8,7.4
	c-2.9-0.9,1.3-17.3,4.7-13.4"/>
<path class="st2" d="M627.5,188.1c0.6-3.7,2.6-6.8,0.3-10.5c-1.5,1.8-0.9,4.6-2.2,6.5c-1.2,1.7-3,2.9-3.6,4.7
	c-0.9,2.6,3.1,12.8,6.1,8.5C625.7,194.9,627,191.1,627.5,188.1z"/>
<path class="st2" d="M630,169.9c0,2,0,7.6,2.4,3.5c0.8-1.4,0.4-2.8,0.8-4.3c0.3-1.2,3-4.2,1.4-5.4c-1-0.7-1.5,0.3-2.1,0.9
	c-1.2,1.2-3,5.3-2.3,7"/>
<path class="st2" d="M464,396.8c0-2.8,2.3-22.8,4.8-23.2c2.1-0.3,4.3-0.3,6.5,0c0.7,4.4-0.8,8.3-1.2,12.6c-0.5,5.2,0.7,9.7,1.4,14.6
	c0.8,0,1.7,0.2,2.5,0.2c2.2,5.5,1.4,15.5-5,9.7c-4.3-3.8-8.6-12.2-8.9-17.8"/>
<path class="st2" d="M481.3,414.8c-0.7,2.8,0.1,4.7,2.7,5.2c3.6-4,1.5-9.4,0.7-13.7c-2.2,2.8-1.8,6.5-2.7,9.1"/>
<path class="st2" d="M436.6,370.9c-2.4,5.5-4,18.3-0.9,24c5.7,10.5,6-6.5,6.3-11.3c1-0.2,2.1-0.2,3.1,0c0.7,3-0.4,7.8,3.3,7.8
	c4.2,0,2.8-20.7,0-23.4c-5.7-5.5-11.6-2.2-11.8,5.4"/>
<path class="st2" d="M423.9,375.9c2.4,0.2,2.6-12.4,2.1-13.9c-1.2-3.5-3.9-3.4-5.2-0.2c-0.9,2.1-0.9,4.8-0.9,7.1
	C419.8,372,420.3,375.6,423.9,375.9z"/>
<path class="st0" d="M876,489.2c5.7-11.4,24.4-5.9,27.3-17.8c3.2-13.3,11.2-25.8,18.5-37.5c8-12.7,14.2-25.9,21-38.8
	c6.2-11.6,16.9-34,29.2-37c22.5-5.3,44.7,0.2,60.4,16.9c19.9,21.1,34.6,37.7,65.6,24.1c23.8-10.4,47-64.5,16.2-80.7
	c-8.7-4.6-23.9-1.6-29.5,6.8c-5.1,7.7,0.2,19,8.1,22.5c4.1,1.8,8.1,2,12.1-0.2c1.2-0.7,8.7-10,6.1-10.3c-1.9-0.3-3.8-0.3-5.7,0
	c-1.5,3.5-4.6,3.5-8.1,1.6c1-8.2,9.2-8,15.8-7.6c5.5,0.3,7.2,12.3,6.2,15.8c-5.1,16.6-39.8,15.3-46.2,0c-5.7-13.5-0.7-37.2,14.2-43
	c69.4-26.8,84.2,86,57.7,126.6c-18.8,28.7-53,31.4-84.4,23.5c-10.2-2.6-19.4-7.1-29.8-8.3c-20.8-2.4-41.5,0.2-61.5,6.1
	c-16.8,4.9-44.9,13.8-57.2,27.1C902.3,489.4,883.5,478.6,876,489.2"/>
<path class="st8" d="M1035.5,430c0.9-4.3,5.9-6.2,2.5-6c-13,1.1-25.1-4.6-36.7-9.8c-4.4-2-9.3-3.9-12.4-7.8c-1.1-1.4-1.9-3-2.4-4.8
	c-0.2-0.6-1.5-5.5-1-5.8l-3.5,2.2c-2.8,1.3-2.9,1.8-4.1,4.9c-0.9,2.8-2,5.5-3.4,8c-2.9,4.8-4.4,9.8-6.3,15s-4.3,10.5-5.8,15.9
	s-0.4,8,4.7,9.5l1-0.3c15.3-4.6,31.3-6.9,47.3-6.9c3.9-2.6,7.6-5.4,11.2-7.6C1029.6,434.7,1034.7,434.1,1035.5,430z"/>
<path class="st2" d="M1016.6,387.1c0.9-2.7-1.4-11.4-3.8-6.1C1011.8,383.3,1013.5,388,1016.6,387.1z"/>
<path class="st2" d="M1021.9,384.5c-0.3-0.1-0.6-0.1-0.9,0c0.2,0.9-1.6,0-1.7,0.3c-0.2,1,0.5,2,1.5,2.2c0.1,0,0.2,0,0.4,0
	C1022.1,386.5,1022.4,385.4,1021.9,384.5z"/>
<path class="st2" d="M1002.7,375.2c0.6,1.8,2.7,4.6,4.8,3.3c2.7-1.7-0.8-6.8,2.8-8.4c3.2-1.4,5,2.7,6.4,4.9c2.3,3.6,5,7.8,9.3,9.4
	c3.7,1.4,8,0.3,11.2,3.1c2.3,2,2.9,5.5,5.4,7.2c1.7,1.2,2.7,0.3,3.7,0.4c8.1,1.6,13.8,8.4,21.7,10.1c3.2,0.8,6.4,1.1,9.7,1
	c0.3,0,7.1-1.7,6.2-2.4l-0.3-0.3c-21.6,3.4-34.6-11-51.2-28.6c-8.7-9.3-20.1-15.5-32.6-17.8c0.5,0.7,0.9,1.4,1.2,2.3
	C1002.4,364.5,1000.9,370.2,1002.7,375.2z"/>
<path class="st2" d="M1097.9,399.2c-2.3,1-4.6,1.9-7,2.6h0.2c3.3-0.2,8.2,0.1,11.4-0.9c2.5-0.8,3.5-3.1,5.3-4.5
	c2.5-2,5.7-0.2,7.4-3.3c0.6-1.1,0-2.6,0.4-3.7c0.5-1.4,1.7-2.2,2.7-3.6c1.8-2.7,1.7-5.4,2.4-8.4c0.8-3.7,2.9-7,4.1-10.5l-0.2,0.2
	C1118.8,381.6,1108.3,394.6,1097.9,399.2z"/>
<path class="st2" d="M1107,403.7c1.6,1.1,4.1-1.5,2.6-3.5s-4.1-0.1-3.5,2.1C1106.2,402.8,1106.5,403.3,1107,403.7z"/>
<path class="st2" d="M1099.8,411.8c0.4-0.4,0.7-1,0.7-1.5c0.1-0.8,0.1-1.5-0.1-2.3c-0.3-1.3-0.9-3-2.1-3.8c-0.7-0.5-1.5-0.6-2.3-0.4
	c0,0.7,0.3,1.3,0.3,1.9c0.1,1.3,0.5,2.5,1,3.6c0.3,0.8,0.8,1.5,1.4,2.2C1099,411.9,1099.5,412,1099.8,411.8z"/>
<path class="st2" d="M1104,408.4c0.3-0.7,0.9-1.9,0.6-2.7c-0.2-0.5-1.3-1.2-1.8-1c-0.4,0.2-0.4,1.2-0.4,1.5c-0.1,0.6-0.1,1.1,0,1.7
	C1102.5,409,1103.6,409.5,1104,408.4z"/>
<path class="st8" d="M993.3,356.4c-2.5-0.2-5-0.2-7.5-0.1c-6.6,24.5-22.5,44.5-37,64.7c-12.7,17.6-21.7,38.1-34.4,55.8
	c5.4-5.8,33.7-20,71-28.6c1.1-1.9,1.5-5.3,2-7.5c0.7-3,1.1-6.1,1.2-9.3c0.1-6.2-0.4-12.3-1.3-18.4c-1.3-9.8-2.8-20-0.3-29.7
	C987.5,381,995.1,356.5,993.3,356.4z"/>
<path class="st2" d="M504.1,342.9c2.6,3.8,1,24.5-2.3,21.3c-4-3.8-2.2-7.1-4.2-11.9c-5.6,2.9,0.1,20.9-9.4,18.9
	c-4.2-0.9-4-17-4-21.8c-2.3,3-5.8,2-8,5.3c-1.8,2.6-0.7,8.7-4.5,10c-10,3.5-4.1-13.6-6-16.8c-0.4,3-14.3,3.5-17.5,2.4
	c-2.9-1-1.9-3.4-6-3.5c-2.4-0.1-5.5,0.6-6.1,3.4c-1,0.5-2.2,0.7-3.3,0.5c0-1-0.6-1.9-0.7-2.9c-4.5-0.6-5.4,2.1-8.8,4
	c-4,2.4-5.1,1.2-9-1.1c-3.8-2.2-4.7-2.5-9.1-2.5c-4,0-6.6,0.2-9.9-2.6c-1.1-1-2-2.8-3-3.5c-2.1-1.5-1.9-0.6-4.1-1.4
	c-3.4-1.2-7-3-11-2.5s-5.2,2.4-9.1-0.4s-3.5-3.9-8.4-4.6c-6.6-1-9-3.2-14.4-6.4c-4.7-2.8-10.9-2.1-15.1-6.1
	c-4.5-4.4-6.9-10.5-13.4-13c-2.8-1.1-6,0.1-9.6-1c-2.9-0.8-5.5-2.4-7.6-4.5c-2.5-2.5-3.5-5.5-5-8.5s-3.5-3.7-5-6.4
	c-4.1,8.4-5.9,2.1-5.9-4.2c0-5.9,0.4-11.4,0.5-17.3c-2.4,2.7-3.5,7.3-4.6,10.7c-8.6,2.5,0.1-25.2,6.5-27.6c4.1-1.5,3.6,5.8,4.1,8.6
	c0.6,3.5,1.5,6.9,2.9,10.1c3,6.8,7.1,12.9,12.3,18.3c11.2,11.6,28.3,24,43.2,29c5.8,2,10.9,5.5,16.7,7.6c6.6,2.3,12.5,6.2,19.4,7.5
	c6.5,1.3,13.2,2.7,19.8,3.9c15.1,2.9,30.5,4.3,45.8,6.1c9.6,1.1,18.5,3.9,28.1,3.1C486.4,342.7,496.4,340.9,504.1,342.9z"/>
<path class="st2" d="M340.8,89.8c0.2,2.7-0.6,5.5-0.3,8.3s1.2,5.1,0.9,8.1c-0.6,5.7-2.8,9.6-4.4,14.7c-1.7,5.4-3.2,10.8-4.3,16.3
	c-1.2,5.8-5.6,11.5-9.9,15.7c-2.9,2.8-6.3,5.2-9.2,8c-2.3,2.3-4.1,4-7.3,4.3c2.1-4,4.8-7.7,8-10.9c3.8-3.6,7.9-6.3,10.7-11
	s3.4-9.6,4.8-14.5c1.4-4.6,4.1-9.3,5.4-13.9c1-3.6,0.3-8.2,0.7-12c0.4-4,1.9-7.9,1.4-11.7s-3-7.1-3.8-10.9c-0.2-1.3-1.9-8,0-8.5
	C336.5,70.9,340.6,87.6,340.8,89.8z"/>
<path class="st2" d="M298.4,170.8c2.3,0.4,5.4-1.8,5.7-4C301.6,167.3,299.4,168.3,298.4,170.8z"/>
<path class="st2" d="M318.1,47.8c3.9,1.8,7.1,4.6,9.5,8.1c1.5,2.2,2.6,5.8-1.7,4.1c-2.1-0.9-2.1-2.4-3.5-4.1
	c-2.5-3-7.1-4.8-10.8-5.3c-3-0.4-4.4-2-7-2.7c-2.7-0.8-4.7,0.9-7,1.4c-5.5,1.1-10.3-1.7-15.4-0.7c-4.8,0.8-9.4,2.8-13.2,5.7
	c-3.1,2.2-8,7.2-11.9,7c3.5-9.5,19.5-17.5,29.1-16.4c2.9,0.3,5,1.2,8.1,0.6s5.4-1.8,8.6-1.6c2.5,0.2,4.7,1.2,7,2.1
	c1.3,0.6,2.6,1,4,1.3C315.5,47.4,316.8,47.2,318.1,47.8z"/>
<path class="st9" d="M841.1,245.9c-3.2,1.7-6.9,2.5-9.8,5c-2.1,1.9-3.1,4.7-5.8,6c-2-4.1,1.9-9.4,4.1-12.8
	c4.9-7.7,15.5-10,23.9-10.8c2,4.4,1,8.6,0.8,13.1c-0.1,2.9-1.7,9.9-0.8,12.4c-1.5-4.4-1.6-10.5-3.9-14.5c-2.8-4.9-4.2-1.1-7.3,0.9
	C841.9,245.4,841.5,245.6,841.1,245.9z"/>
<path class="st9" d="M832.4,295.5c0.1-0.9-18.7,4.7-20.7,7.6C817.2,307.1,831.4,302.9,832.4,295.5z"/>
<path class="st9" d="M807.4,273.8c-2.5,4.4-6.9,9.4-8.2,14.4c-3.9-7.5,3.8-23.9,11.5-26.5C811.8,265.6,809.3,270.4,807.4,273.8z"/>
<path class="st9" d="M817,310.3c3.2-1.5,7.6-4.9,10.4-2.7c-1.9,3.5-9.2,6.3-10.7,2.1"/>
<path class="st2" d="M759.9,320.9c-3.8-8.5,1.2-21.7-4.6-28.9c-1.6,3.7-2.7,7.6-3.3,11.6c-0.5,4.8,0.2,9.9,0.7,14.7
	c0.8,9.3,5.3,18.2,5.9,27.3c0.3,4.9-4.4,10-5.7,14.7c-1.9,6.6,0.6,9.1,1.2,14.7c0.3,2.7-1.4,5-1.3,7.6c0.1,3.4,1.9,5,2.4,8
	c0.9,5.5-3.6,12.2,4.2,14.6c-0.1,13.9,1.6,26.6,18.6,28.7c4.1,0.5,10.5,0.2,9.4-6.2c-0.3-1.8-4.4-4.7-5.2-6.7
	c-1.4-3.1-0.5-4.9-2.7-8c-3.4-5-8.6-7.3-10-13.3c-1.3-5.7-1.9-10.7-3.8-16.2c-3.5-9.7-5.1-21.1-3.5-31.2
	C763.7,341.1,764.4,331.2,759.9,320.9z"/>
<path class="st2" d="M678.7,344.9c-1.9,3-5.5,5.4-7.2,8.1c-2.2,3.4-1.9,7-5.3,9.8c-1.5-6.7,8-15.9,11.2-21.3
	c4.3-7.3,6.7-15.1,11.3-22c4.5-6.7,8.6-13.3,11.5-20.7c3.1-7.9,4.4-16.7,8-24.5c6.8-1.5,4.2,8.6,3.2,11.9c-1.1,3.5-4,5.7-5.2,8.8
	c-2.5,6.5-2.5,15.4-6.8,21.2c-0.8,1.1-2.4-0.2-3.4,2c-0.5,1.2,0.2,3.4,0,4.7c-0.5,3.2,0.2,5.3-2.7,7.4c-0.7,0.5-3.3-4.4-3.5-4.9
	c-2.8,7.4-3.5,21.2-11.5,24.9c0.2-1.5,0.7-3.2,1-4.8"/>
<path class="st2" d="M652.1,380.7c-1-0.5,6.5-11.5,9.8-11.5C660.5,374.6,660.5,384.4,652.1,380.7z"/>
<path class="st2" d="M681.4,257.7c8.6,0,17.6-3.4,24.7-7.9c6.7-4.2,10.4-11,16.1-16c3.1-2.7,8.2-1.8,10.7-3.8c3.2-2.6,1.3-8.7,7-7.4
	c2.6,0.6-14.5,27-15.1,29.1c3.8,0.6,9-2.6,12.4-2.9c0.8-0.1,0.3,2.8,2.7,2.3c1.4-0.4,2.7-2.6,4-3.4c4.3-2.7,4.6-1.9,10-1
	c10.7,1.8,20.7-5.3,14.9-16c15.8-4.4,10,10.4,4.8,17.9c-4.3,6.1-7.7,21.1-1.7,27.3c1.9-4.7,4.7-8.6,6.7-13.3s1.9-9.2,4.7-13.5
	c2.4-3.7,5.1-7.3,8-10.6c4.1-4.4,9.9-4.5,15-7c9.7-4.7,19.8-5,30-5.4c10.8-0.4,18.3,3,27.8,6c5.4,1.7,10.2,4.2,13.5,8.9
	c4,5.7,1.6,24.2,8.9,27c3.7,1.4,2.3-2,3.3-3.9c2-3.5,5-2.6,4.3-7.3c-0.5-3.3-2.7-6.3-3-9.6c-0.8-6.8,3.1-10.4,8.5-5.2
	c6.4,6.2,10.7,18.9,21.2,21.8c0.4-5.4-7.1-16.3-10-20.6c-2.3-3.6-3.9-7.5-4.8-11.6c-20.4-22.7-44.9-42-77.6-38.8
	c-24.8,2.5-47.6,3.8-72.7,3.1c-18.8-0.5-23,10-35.5,22.5c-8,8-17.7,11.5-28.4,15.4c-4.7,1.7-9.3,3.4-13.9,5.1
	c-6.2,5.1-12.8,9.8-19.6,14.1C660.3,262.8,674.8,257.7,681.4,257.7z"/>
<path class="st0" d="M888.4,226.9c-0.3-2.7-3.6-5.2-5.8-6.5c-0.8-0.5-9.3-2.3-9.1-1.4c1.7,6.6,10.1,10.1,16.5,9.1
	c-0.7-1.6-1.8-2.9-3.2-3.9"/>
<path class="st0" d="M863.5,214c-0.1,2.3-0.6,4.3,0.6,6.3s4.8,4.1,4.8,0.4C868.9,219,865.3,214.1,863.5,214z"/>
<path class="st10" d="M714.7,230.5L714.7,230.5c-1.3,1.2-5.4,4-7.2,3.5c-3.6-0.9,0.6-3.4,1.9-4.4c3.6-2.5,7.2-4.7,11-6.9
	c2.8-1.6,5.9-4.5,8.9-5.2c0.7,2.3-0.9,4.9-2.9,5.9c-2.6,1.3-6.6,1.6-8.8,3.4C716.3,227.9,715.8,229.4,714.7,230.5z"/>
<path class="st10" d="M700.1,239.2c3,0.1,4.6-3.9,2.1-3.2C701.5,236.1,700.2,239.2,700.1,239.2z"/>
<path class="st2" d="M519.9,377.3c7.6-4.2,2.3-14.9,3-22.1c0.4-4.5,2.8-9.6,3.7-14.5c-1.4,0.2-2.9,0.4-4.3,0.6
	C518.1,352.7,513.3,370.7,519.9,377.3z"/>
<path class="st3" d="M966.1,359.3l3.1,0.6c-1.3-0.9-2.8-1.6-4.4-1.9v0.2l1.9,0.8C966.4,359,966.3,359.1,966.1,359.3z"/>
<path class="st11" d="M964.2,357.9l0.6,0.2v-0.2C964.6,357.9,964.4,357.9,964.2,357.9z"/>
<path class="st0" d="M799.3,502.2c8,9.1-12.8,20.9-1.4,18.4c12.2-2.7,24.3-7,36.9-7.7c5.4-0.3,61.6-26.9,66.3-23.3
	c3.3,2.5-32.3,31.9-35.4,34.5c-17.2,14.5-37.7,23.5-59.4,28.9c-4.4,1.1-8.6,3.2-13,4.6c-14.3,4.6-29.1,12.9-44.1,14.3
	c-16.4,1.5-34.5-4.3-40.6-21c0,0,16.9-24.2,38.9-35.3C768.1,505.1,795.4,497.8,799.3,502.2z"/>
<path class="st2" d="M134.9,385.2c2.1,1,2,1.7,3.1,3.5c0.8,1.1,1.9,2,3.2,2.4c0.7,0.3,2,0.5,2.5,1.1c-0.6,0.9-1.4,2-0.1,2.7
	s2.2-0.9,3-0.9c1.2,0.1,2.4,0.6,3.3,1.5c0.9,0.8,0.6,1.9,1.3,2.8c0.9,1.1,1.5,0.1,2.4-0.1c2.6-0.6,5.5,2.8,7.5,3.9
	c1.1,0.7,2.9,2.3,4.3,2.5c1,0.2,1.6-0.5,2.5,0.2c1.3,0.8,2.5,4,3.1,5.4s0.9,2.3,2.4,3c2.2,1.1,4.7,1.7,6.9,2.6s4.4,2.2,6.5,3.2
	c2.8,1.2,2-1,2.6-2.6c0.6-1.7,1.9,1,2.8-0.3c0.3-0.4-0.3-1-0.1-1.3c0.5-0.7,1.4-0.3,1.9,0.2c1,1.2,0.4,3.2,1.6,4.4s2,1,2.8,2.6
	c0.6,1.3,0.7,2.5,2.3,3c1.4,0.5,3.6-0.1,3.4-2c2.5-0.7,7.3,1.2,7.1,4.3c-0.1,1.4-0.8,1.5,0,2.7c1,1.6,2.8,1.5,4.4,1.8s3.3,1,4.7,0.1
	c1.8-1.1,1.1-3.2,2-4.8c1.6-2.8,5.5-1.1,8-0.8c2.1,0.3,2.7-1.3,4.3-2.2c1.8-1,3.9-0.5,5.7-1.8c1.3-0.8,2.6-1.7,3.9-2.6
	c-41.3-8.2-83.9-17.6-117.8-42.3C123.8,382.7,131.5,383.5,134.9,385.2z"/>
<path class="st2" d="M158.4,404c-0.4-1-0.9-2-1.7-2.8c-1-0.4-2.7,1.3-2,1.6c1.9,0.7,1.3,3.6,2.1,5c1,1.7,2,0.9,1.9-0.8
	c0.7-0.3,1.4-0.5,2.1-0.5C161,405.5,159.5,403.8,158.4,404z"/>
<path class="st2" d="M139.6,398.4c-0.6-1.5-1.2-1.6-2.2-2.7c-0.7-0.7-1.6-1.7-0.4-2.4c1.5-0.9,4.1,2.7,4.4,3.8
	c0.1,0.5,0.1,2.3-0.3,2.6C139.8,400.6,139.8,399,139.6,398.4z"/>
<path class="st2" d="M145.8,401.8c0.1,1.1-1.3,4.6,0.5,4.6c1,0,0.4-1.9,1.7-0.3c0.5,0.7-0.2,1.6,0.8,2c2.1,1,1.7-2.4,0.5-3.2
	c-0.7-0.4-1.4,0-2-0.7s-0.5-1.5-0.5-2.3c-0.2-0.1-0.4-0.3-0.6-0.4c-0.6,0.5-0.7,1.4-0.2,2c0,0,0,0,0,0"/>
<path class="st2" d="M55.6,393.1c1.5-0.1,3.1-0.5,4.6-0.7c0.9-0.1,2.7-0.3,1.9-1.8c1.6-0.4,5.9-0.1,5.8-2.2c-2.7-0.8-6.3,0.7-9,1.3
	c-1.2,0.2-2.4,0.7-3.5,1.4c-1.2,0.5-2.3,0.9-3.5,1.3c-1.1,0.5-2,1.3-3.1,1.7c-1.5,0.6-2.2,0.6-2.9,2.1c-0.4,1-1,3.4-0.5,4.4
	c1,2.3,1.7-0.6,2.2-1.7c0.9-1.6,2.5-2.7,4.4-2.9C53.8,395.6,55.3,395.3,55.6,393.1z"/>
<path class="st2" d="M45.7,400.7c-0.3,1.8-1.5,3.1-0.8,5.2c0.2,0.7,1.2,1,1,1.8c-0.4,1.2-1.6,0.6-2.2,0c-1.1-1-0.8-3-0.1-4.2
	c0.4-0.8,1.7-2.9,2.3-3c0.2,0.5,0,1.2-0.5,1.5"/>
<path class="st2" d="M76.6,389.9c1-1.6-5.5-3.3-6.1-1.6c1.1,0.2,2.1,0.6,3.1,1.2C74.3,390,75.9,390.9,76.6,389.9z"/>
<path class="st2" d="M588.3,16.9c4.6,1.7,7.3,7.4,12.7,10.2c4.6,2.4,6.8,3.7,9.9,7.8S615,44,618,48.1c1.7,2.4,3.4,4,5,6.4
	c0.3,0.5,0.2,2.4,0.5,3.2c0.5,1,1.8,0,2.2,1.1c1.4,3.7,2.3,7.5,3.7,11.4c1.1,3.1,3.2,7.2,3.4,10.6c0.6,0.1,1.2,0.1,1.8,0
	c2.7-7.3-3.5-14.2-5.8-20c-1.4-3.6-1.8-6.6-4-10s-4.4-5.5-6-9.4c-3.2-7.5-5.5-13.4-13.1-16.4c-4.2-1.6-5.2-2.2-7.9-6.4
	c-2.2-3.5-3.3-5.2-7.4-6.3c-5.2-1.5-11.8,0.5-16.7-2.4c-1.4-0.8-1.4-2.6-3.2-2.9c-3.8-0.6-2.1,5.5,0.5,6.4c0.9,0.3,1.4-0.4,2.7,0.4
	c2.1,1.4,2.8,2.4,5.5,2.6C582.4,16.6,585.4,15.9,588.3,16.9z"/>
<path class="st2" d="M562,7.3c1.6-0.5,5,1.3,3.5-1.8c-0.6-1.2-2.4-1.8-3.6-1.9c-1.5-0.3-3,0-4.4,0.6c-0.3,0.2-2.5,2.5-2.1,2.5
	c-2.3-0.1-5.7-3.1-7.8-1.3c-3.2,2.9,4.2,2.7,5.5,2.7c2.4,0,6,1.2,8,0.6C561.9,8.5,561.4,7.5,562,7.3z"/>
<path class="st0" d="M711.1,584.4c10.9,15.1,25.8,23.8,44,25.5c23.4,2.2,46.9,4.2,69.8-2.6c29-8.7,52.1-30.4,80-41.7
	c25.6-10.3,70.8-11.6,79,24c2.9,12.6-6.7,13-16.3,12l0,0c-6.4-0.7-18.9-5.8-18.3,3.8c1,15.6,22.8,18.3,34.3,16.5
	c28.3-4.4,21.5-37.6,15.9-56.5c-9-30.3-38.1-44.6-65.6-55.8c-51.4-21-100.3,5.1-152.3,1c-18.8-1.5-36.8-17.8-55.7-14
	c-1.8,0.3-4,0.1-5.8,0.2c0,0-17.2,36.9-18.4,40.6C696.7,552.4,702,571.8,711.1,584.4z"/>
<path class="st1" d="M990.4,590.9c2.6-8.3-2-21.5-8-27.3c-22.5-21.6-59.1-20.7-87.6-17.2c-45.5,5.6-91.4,10.5-137.2,4.8
	c-12.2-1.5-25.7-5.2-31.8-17c-1-1.9-10-19.8-8.8-20.6c-8.5,6.2-15.1,23.2-15.4,24.2c-4.9,15,0.4,34.3,9.5,46.9
	c10.9,15.1,25.8,23.8,44,25.5c23.4,2.2,46.9,4.2,69.8-2.6c29-8.7,52.1-30.4,80-41.7c25.6-10.3,70.8-11.6,79,24
	c2.8,12.1-5.9,12.9-15.1,12.1C977.8,605.2,987.2,601,990.4,590.9z"/>
<path class="st2" d="M750.7,501c0,0.2,0.1,0.4,0.2,0.5c6.9,3.2,9.5,11.8,12.4,18.4c2.6,6.1,3.5,6.8,10.4,5c3.7-1,8.1-4.1,11.6-4.5
	c9.8-1.1,12,14.4,23.4,8.4c3.5-1.9,3.7-6.5,7.2-8.8c4.3-2.7,9.4-2.2,14-1.7c8,0.8,4.3-1.6,8.5-5.4c2.6-2.4,9.7-1.7,12-0.2
	c4.3,2.8,5.6,6.2,11.9,3.3c4.5-2.1,5.5-6.2,11-7c4.8-0.6,9.8-0.6,14.6,0c2.9,0.4,3.9-0.1,5.8,2.6c1.3,1.8,0.3,5.1,1.7,6.3
	c1.1,0.9,5.1,0.1,6-0.8c2.5-2.3,0.9-3.1-0.1-5.6c-0.5-1.2-3.6-1.8-2.9-3.5c0.9-2.3,4.2-0.3,5.9-0.5c4.8-0.5,10.5-1.9,15.8-2.7
	c-46.2-11.6-90.7,9.5-137.8,5.7c-11.5-0.9-22.8-7.4-34.1-11.4C748.7,500,749.6,500.7,750.7,501z"/>
<path class="st1" d="M1030.8,445.9c10.3,1.2,19.5,5.7,29.8,8.3c31.4,7.9,65.6,5.2,84.4-23.5c15-23,16.8-69,3-99.9
	c0.2,6.7,0.4,13.3,0.3,20c-0.1,20.5,0,45.9-13.2,62.9c-20.9,27-58.8,10.1-86.7,9.9c-17.3-0.1-34.5,3.6-50.6,9.5
	c-8.9,3.3-27.2,8.6-30.8,19.5l2.3-0.7C989.3,446.1,1010,443.5,1030.8,445.9z"/>
<path class="st2" d="M964.7,255.4c1.2-0.8,3-1.5,3.8-2.4c1.2-1.5,1.1-3.6,2.7-5c3-2.6,7.2-1.1,4.6-7c0.7,1.5,5.4-2.1,5.8-3
	c1.2-2.5-0.4-6.4,1-8.4c0.8-1,2.2-0.8,3-1.8c1.1-1.5,1.2-3.5,1.4-5.4c0.3-2.6,1.1-4,2.1-6.3c0.7-1.6,3.5-10.7-0.1-10.7
	c-0.5,0-2.2,6.3-2.4,7c-0.6,2.2-2,3.4-2.3,5.9c-0.3,2.1,0,4.1-1.7,5.7s-3.2,2-3.6,4.2c-0.5,3.3,1,6.3-1.4,9.2
	c-1.4,1.6-3.9,1-5.4,2.6c-1.2,1.3,0.1,2.7-0.7,3.9c-0.5,0.7-1.9,0.7-2.6,1.3c-0.3,0.3-1.3,1.8-1.7,2.3c-1.4,1.8-2.7,3.7-3.8,5.6
	c-1.7,2.7-1.4,9.5-4.4,11.1c-0.9,0.5-2.6-0.5-3.3,0c-2.1,1.3,4.5,4.2,6.5,2.9c4.4-2.7,0-7.5,1.6-10.8
	C964.1,255.9,964.4,255.6,964.7,255.4z"/>
<path class="st2" d="M991.3,198.3c-0.3,0-0.6,0-0.9,0c-0.1,0-1.2,4.5-0.9,5.1C991.5,206.8,992.5,198.1,991.3,198.3z"/>
<path class="st2" d="M953.7,268.1c0.3,0.8,2.5,1.3,2.7,2.6c0.3,1.9-1.6,1.9-2.9,1.4s-3-2.1-1.3-3.4c1.9-1.5,2.6,1.4,4.3,1.4"/>
<path class="st2" d="M627.5,443c-4.8,5.4-4.4,24.3,1,29.2c0.7-1.9,3.7-4.8,4.3-6.7c8.9,3.3,7.2,14.6,12.2,21
	c6,7.6,14.9-0.1,22.8,4.9c6.9,4.3,8.3,14.8,16.1,18.2c1.8-3.1,1.3-6.2,0.7-9.9c3.9-1.1,7.4,0.9,10,3.7c5.5-14.4-1.5-13.9-11.5-16.5
	c-3.5-0.9-7.8-2.1-11.3-3.1c-7.5-2-12.6-6.1-18.3-10.2c-7.5-5.4-7.8-7.3-12.2-15.8c-2.1-4.1-8.4-15.6-12.1-17
	c-1.7,2.9-2.7,6.1-3,9.5"/>
<path class="st2" d="M623.4,412.6c9.9-3.2,2.5,19.3-1.6,22.3c-11,7.9-5.5-7.6-3-14.5C620.2,416.4,622,413.1,623.4,412.6z"/>
<path class="st2" d="M624.2,402.9c-0.1,3-2.7,9.2-6.8,11.8c-5.2-6.6-2.3-19,7.6-17.7c1.9,4.4,1.1,8.8-2.8,10.8"/>
</svg>
