<?xml version="1.0" encoding="utf-8"?>
<!-- Generator: Adobe Illustrator 19.2.0, SVG Export Plug-In . SVG Version: 6.00 Build 0)  -->
<svg version="1.1" id="Layer_1" xmlns="http://www.w3.org/2000/svg" xmlns:xlink="http://www.w3.org/1999/xlink" x="0px" y="0px"
	 viewBox="0 0 428.5 467.6" style="enable-background:new 0 0 428.5 467.6;" xml:space="preserve">
<style type="text/css">
	.st0{display:none;}
	.st1{fill:#7D4E24;}
	.st2{fill:#643C17;}
	.st3{fill:#B07F4A;}
	.st4{fill:#5F320E;}
	.st5{fill:#8E5B2D;}
	.st6{fill:#EDE6E2;}
</style>
<g id="Layer_1_1_" class="st0">
</g>
<g id="Layer_3">
	<g>
		<path class="st1" d="M159,23.3l43.7-7.9c0,0,73.3,426.2,84.4,433.3l-63.2,11.4L159,23.3z"/>
		<path class="st2" d="M223.9,460.2l13.7,7.4l62.2-11.2l-90.6-439l-6.4-2c0,0,72.3,424.3,84.4,433.3L223.9,460.2z"/>
	</g>
</g>
<g id="Layer_2">
	<g>
		<polygon class="st3" points="35.5,264.7 0,68.2 376.4,0.2 416.2,184.7 		"/>
		<polygon class="st4" points="0,68.2 376.3,0 384.2,36.3 371.1,38.7 385.8,43.9 390.5,65.4 363.4,66.9 391.7,71.2 404.7,131.5 
			394.9,136.8 408.1,138.7 409.2,145.2 383.8,152.8 410.4,151.7 416.5,185.3 35.5,264.7 33.4,254.5 40.3,248.4 28.7,245 19.6,194.9 
			36,191.3 21.6,185.4 15.4,151.1 41.1,141.6 13.4,142.6 5.5,99.9 27.6,94.1 3,89.4 		"/>
		<polygon class="st5" points="376.4,0.2 387.1,6.8 428.5,193.7 416.2,184.7 		"/>
		<polygon class="st5" points="35.5,264.7 416.2,184.7 428.5,193.7 48.2,271.6 		"/>
	</g>
</g>
<g id="Layer_4">
	<g>
		<g>
			<path class="st6" d="M78.2,144.5l5.5,25.2l0.1,0.5c0.1,0.5,0.2,1.2,0.3,2.1c0.1,0.9,0.2,2,0.1,3.2s-0.3,2.5-0.6,3.8
				c-0.3,1.3-0.9,2.6-1.8,3.8s-2,2.3-3.5,3.3s-3.3,1.7-5.6,2.2l-1.4,0.3c-1.7,0.3-3.4,0.3-4.8,0.1c-0.6-0.1-1.3-0.2-1.9-0.4
				c-0.6-0.2-1.2-0.4-1.8-0.8c-0.5-0.3-1-0.7-1.5-1.2c-0.4-0.5-0.7-1.1-0.9-1.9l1.2,5.7l-6,1.3l-8.9-40.3l6-1.3l5.5,25.2
				c0,0.1,0.1,0.4,0.3,1c0.2,0.5,0.4,1.2,0.8,1.9s0.8,1.5,1.4,2.2c0.6,0.8,1.3,1.4,2.2,2c0.9,0.6,1.9,1,3.1,1.2s2.6,0.2,4.1-0.2
				c0.2,0,0.5-0.1,1-0.3s1.1-0.4,1.8-0.8c0.7-0.4,1.4-0.8,2.1-1.4c0.7-0.6,1.3-1.3,1.8-2.2s0.8-2,1-3.3s0.1-2.8-0.3-4.5L72,145.7
				L78.2,144.5z"/>
			<path class="st6" d="M91.5,141.3c0.2,0,0.5-0.1,1.1-0.2c0.6-0.1,1.3-0.1,2.2-0.1c0.9,0,1.8,0.2,2.8,0.5s1.9,0.8,2.9,1.5
				c0.9,0.7,1.8,1.7,2.6,3c0.8,1.3,1.4,2.9,1.8,4.9l6.3,28.9l-6,1.3l-6.3-28.9c-0.3-1.1-0.7-2-1.2-2.8c-0.2-0.3-0.5-0.7-0.8-1
				s-0.7-0.6-1-0.8c-0.4-0.2-0.8-0.3-1.3-0.4c-0.5-0.1-1,0-1.6,0.1c-1,0.2-1.8,0.5-2.5,0.9c-0.6,0.4-1.2,0.8-1.5,1.2
				c-0.4,0.4-0.7,0.8-0.9,1.1c-0.2,0.3-0.4,0.6-0.4,0.8l-5.1-3.4c0.5-1,1.1-1.9,2-2.7c0.7-0.7,1.6-1.5,2.8-2.2
				C88.3,142.2,89.7,141.7,91.5,141.3z"/>
			<path class="st6" d="M125.6,176.6l-6.1,1.3l-8.9-40.6l6.1-1.3L125.6,176.6z"/>
			<path class="st6" d="M145.1,130.6c1.9,0.3,3.6,0.8,5,1.6s2.6,1.7,3.5,2.8s1.7,2.2,2.3,3.3s1,2.1,1.3,3s0.5,1.6,0.6,2l0.1,0.4
				l5.4,24.7l-6,1.3l-2.6-11.9c-0.3-1.2-0.7-2.1-1.4-2.8s-1.5-1.2-2.4-1.5s-1.9-0.6-2.8-0.6c-1-0.1-1.9-0.1-2.7-0.1
				s-1.8,0.1-2.8,0.3c-0.1,0-0.3,0.1-0.7,0.2c-0.4,0.1-0.9,0.3-1.5,0.6s-1.2,0.6-1.9,1c-0.6,0.4-1.2,1-1.8,1.6
				c-0.5,0.6-1,1.4-1.3,2.3c-0.3,0.9-0.5,1.9-0.5,3.1c0,0.4,0,0.7,0.1,1c0.2,0.9,0.6,1.5,1.1,2.1c0.6,0.5,1.2,0.9,2,1.2
				c0.7,0.3,1.6,0.4,2.4,0.5c0.9,0.1,1.7,0.1,2.5,0c0.8,0,1.6-0.1,2.2-0.2c0.7-0.1,1.2-0.2,1.6-0.3l0.5-0.1l1.2,5.7l-6.8,1.5
				c-1.4,0.3-2.8,0.3-4.2,0s-2.7-0.9-3.8-1.8c-1.2-0.8-2.2-1.9-3-3.1c-0.8-1.3-1.4-2.6-1.7-4.2c-0.3-1.5-0.3-3.1,0-4.8
				s1.1-3.4,2.4-5.2c0.7-1.1,1.5-2,2.4-2.8s1.7-1.5,2.6-2c0.9-0.6,1.8-1,2.7-1.4s1.8-0.6,2.7-0.8c1.4-0.3,2.7-0.5,4-0.5
				s2.4,0,3.3,0.2c1.1,0.2,2.2,0.4,3.1,0.6l-0.5-2.3c-0.3-1.3-0.7-2.3-1.1-3.2c-0.5-0.9-1-1.6-1.7-2.2c-0.6-0.6-1.3-1.1-2-1.4
				c-0.7-0.4-1.4-0.6-2.1-0.8c-1.6-0.4-3.3-0.5-5.2-0.2c-1.6,0.4-3,1-4,1.8s-1.8,1.7-2.3,2.7s-0.9,2-1.1,3c-0.2,1-0.3,1.9-0.3,2.6
				l-6.3,1.4c-0.3-2.3-0.3-4.3,0.1-6c0.4-1.7,1-3.2,1.7-4.5c0.8-1.3,1.7-2.3,2.8-3.2s2.1-1.6,3.1-2.1s2-0.9,2.8-1.2
				c0.9-0.3,1.5-0.4,1.8-0.5l0.4-0.1C140.9,130.4,143.2,130.3,145.1,130.6z"/>
			<path class="st6" d="M145.5,112.6l2.5,11.5l-5.7,1.2l-2.5-11.5L145.5,112.6z"/>
			<path class="st6" d="M166.9,125l5.5,25.2c0.4,1.7,0.9,3.1,1.6,4.2c0.7,1.1,1.5,1.9,2.3,2.5s1.7,1,2.6,1.3
				c0.9,0.2,1.7,0.4,2.5,0.4s1.4,0,2-0.1c0.5-0.1,0.9-0.1,1.1-0.2c1.6-0.3,2.8-0.9,3.8-1.6c1-0.7,1.7-1.5,2.3-2.4
				c0.5-0.9,0.9-1.8,1.1-2.7c0.2-0.9,0.3-1.8,0.3-2.6s0-1.5-0.1-2c-0.1-0.6-0.1-0.9-0.2-1l-5.5-25.2l6-1.3l8.9,40.6l-6,1.3l-1.2-5.7
				c0.1,0.8,0.1,1.5-0.1,2.1c-0.2,0.6-0.4,1.2-0.8,1.7c-0.4,0.5-0.8,1-1.3,1.4s-1,0.8-1.6,1.1c-1.3,0.8-2.8,1.4-4.4,1.9l-1.4,0.3
				c-2.3,0.5-4.3,0.6-6.1,0.3c-1.7-0.3-3.3-0.8-4.5-1.6c-1.3-0.7-2.4-1.7-3.2-2.7c-0.9-1.1-1.6-2.2-2.2-3.2c-0.6-1.1-1-2.1-1.3-3
				s-0.5-1.6-0.6-2.1l-0.1-0.5l-5.5-25.2L166.9,125z"/>
			<path class="st6" d="M215.5,156.9l-6.1,1.3l-8.9-40.6l6.1-1.3L215.5,156.9z"/>
			<path class="st6" d="M223.2,155.2l-6.8-31.1c0.5-1.7,1.1-3.2,1.9-4.5s1.6-2.4,2.4-3.4c0.9-0.9,1.8-1.7,2.7-2.4
				c0.9-0.6,1.8-1.2,2.6-1.6s1.6-0.7,2.2-0.9c0.6-0.2,1.1-0.3,1.5-0.4l0.4-0.1c2-0.4,3.8-0.5,5.3-0.4c1.6,0.1,3,0.4,4.3,0.9
				c1.3,0.4,2.4,1,3.4,1.7s1.8,1.5,2.5,2.3s1.3,1.7,1.8,2.5s0.9,1.6,1.2,2.3s0.5,1.3,0.7,1.8c0.1,0.5,0.2,0.8,0.3,1l5.5,25.1l-6,1.3
				l-5.5-25.1c-0.4-1.6-0.9-2.9-1.6-3.9c-0.7-1-1.4-1.8-2.3-2.4c-0.8-0.6-1.7-1-2.6-1.1s-1.7-0.3-2.5-0.3s-1.4,0-2,0.1
				c-0.5,0.1-0.9,0.2-1,0.2c-1.2,0.3-2.3,0.6-3.2,1.1s-1.6,1-2.2,1.6c-0.6,0.6-1.1,1.3-1.4,1.9c-0.3,0.7-0.6,1.4-0.8,2
				c-0.4,1.6-0.4,3.3-0.2,5.1l5.5,25.1L223.2,155.2z"/>
			<path class="st6" d="M285.2,99.1l5.5,25.2l0.1,0.5c0.1,0.5,0.2,1.2,0.3,2.1c0.1,0.9,0.2,2,0.1,3.2s-0.3,2.5-0.6,3.8
				c-0.3,1.3-0.9,2.6-1.8,3.8s-2,2.3-3.5,3.3s-3.3,1.7-5.6,2.2l-1.4,0.3c-1.7,0.3-3.4,0.3-4.8,0.1c-0.6-0.1-1.3-0.2-1.9-0.4
				s-1.2-0.4-1.8-0.8c-0.5-0.3-1-0.7-1.5-1.2c-0.4-0.5-0.7-1.1-0.9-1.9l1.2,5.7l-6,1.3l-8.9-40.6l6-1.3l5.5,25.2
				c0,0.1,0.1,0.4,0.3,1c0.2,0.5,0.4,1.2,0.8,1.9s0.8,1.5,1.4,2.2c0.6,0.8,1.3,1.4,2.2,2c0.9,0.6,1.9,1,3.1,1.2s2.6,0.2,4.1-0.2
				c0.2,0,0.5-0.1,1-0.3s1.1-0.4,1.8-0.8c0.7-0.4,1.4-0.8,2.1-1.4c0.7-0.6,1.3-1.3,1.8-2.2s0.8-2,1-3.3s0.1-2.8-0.3-4.5L279,100
				L285.2,99.1z"/>
			<path class="st6" d="M301.6,138l-6.8-31.1c0.5-1.7,1.1-3.2,1.9-4.5c0.7-1.3,1.6-2.4,2.5-3.4c0.9-0.9,1.8-1.7,2.7-2.4
				c0.9-0.6,1.8-1.2,2.6-1.6c0.8-0.4,1.6-0.7,2.2-0.9c0.6-0.2,1.1-0.3,1.5-0.4l0.4-0.1c2-0.4,3.8-0.5,5.3-0.4c1.6,0.1,3,0.4,4.3,0.9
				c1.3,0.4,2.4,1,3.4,1.7s1.8,1.5,2.5,2.3s1.3,1.7,1.8,2.5s0.9,1.6,1.2,2.3c0.3,0.7,0.5,1.3,0.7,1.8c0.1,0.5,0.2,0.8,0.3,1
				l5.5,25.1l-6,1.3l-5.5-25.1c-0.4-1.6-0.9-2.9-1.6-3.9s-1.4-1.8-2.3-2.4c-0.8-0.6-1.7-1-2.6-1.2s-1.7-0.3-2.5-0.3s-1.4,0-2,0.1
				c-0.5,0.1-0.9,0.2-1,0.2c-1.2,0.3-2.3,0.6-3.2,1.1c-0.9,0.5-1.6,1-2.2,1.6s-1.1,1.2-1.4,1.9c-0.3,0.7-0.6,1.4-0.8,2
				c-0.4,1.6-0.4,3.3-0.2,5.1l5.5,25.1L301.6,138z"/>
			<path class="st6" d="M309.3,79.6l0.7,3l15.2-3.3l1.2,5.7l-18.2,4c-0.7,0.1-1.2,0.1-1.6-0.1s-0.7-0.4-1-0.8s-0.5-0.8-0.7-1.3
				l-1.3-6L309.3,79.6z"/>
			<path class="st6" d="M338.1,87.4l5.5,25.2c0.4,1.7,0.9,3.1,1.6,4.2s1.5,1.9,2.3,2.5s1.7,1,2.6,1.3c0.9,0.2,1.7,0.4,2.5,0.4
				s1.4,0,2-0.1c0.5-0.1,0.9-0.1,1.1-0.2c1.6-0.3,2.8-0.9,3.8-1.6s1.7-1.5,2.3-2.4c0.5-0.9,0.9-1.8,1.1-2.7s0.3-1.8,0.3-2.6
				c0-0.8,0-1.5-0.1-2c-0.1-0.6-0.1-0.9-0.2-1l-5.5-25.2l6-1.3l8.9,40.6l-6,1.3l-1.2-5.7c0.1,0.8,0.1,1.5-0.1,2.1s-0.4,1.2-0.8,1.7
				s-0.8,1-1.3,1.4s-1,0.8-1.6,1.1c-1.3,0.8-2.8,1.4-4.5,1.9l-1.4,0.3c-2.3,0.5-4.3,0.6-6,0.3s-3.3-0.8-4.5-1.6
				c-1.3-0.7-2.4-1.7-3.2-2.7s-1.6-2.2-2.2-3.2c-0.6-1.1-1-2.1-1.3-3s-0.5-1.6-0.6-2.1l-0.1-0.5L332,88.6L338.1,87.4z"/>
		</g>
	</g>
</g>
<g id="Layer_5" class="st0">
</g>
</svg>
