<?xml version="1.0" encoding="utf-8"?>
<!-- Generator: Adobe Illustrator 21.0.0, SVG Export Plug-In . SVG Version: 6.00 Build 0)  -->
<svg version="1.1" id="Layer_1" xmlns="http://www.w3.org/2000/svg" xmlns:xlink="http://www.w3.org/1999/xlink" x="0px" y="0px"
	 viewBox="0 0 470 470" style="enable-background:new 0 0 470 470;" xml:space="preserve">
<style type="text/css">
	.st0{display:none;}
	.st1{fill:#0E4420;}
	.st2{fill:#3A7033;}
	.st3{fill:#4E9944;}
	.st4{fill:#8AC53F;}
	.st5{fill:#845E39;}
	.st6{fill:#4F270C;}
	.st7{fill:#498C3F;}
	.st8{enable-background:new    ;}
	.st9{fill:#EDE6E2;}
	.st10{fill:#754410;}
	.st11{fill:#AA6915;}
	.st12{fill:#0C3A1D;}
	.st13{display:inline;}
	.st14{font-family:'supermarket';}
	.st15{font-size:73.1406px;}
</style>
<g id="Layer_1_2_">
	<g id="Layer_1_1_" class="st0">
	</g>
	<g id="Layer_8">
		<g>
			<path class="st1" d="M279,406.7c1-2.8,1.3-4.8,1.3-7.7c0-3.3,1.2-6.4,1.6-9.7c0.4-2.9,0.5-5.8,0.9-8.7c1.2-10.3,1.4-20.7,1.7-31
				c0.2-5.6,0.3-11.1,0.6-16.7c0.1-2.8,0.2-5.6,0.4-8.3c0.1-1.1-0.3-7.1,0.5-7.7c0.1-0.1,0.1-0.1,0,0c-3,2.7-4,10.5-5.1,14.3
				c-2.2,8-3.9,16.3-5.3,24.5c-1.9,11.2-3.9,22.9-4.3,34.3c-0.2,6.4-0.4,13-0.1,19.4c0.2,4.1-0.3,9.1,1,13
				C275.2,417.8,277.1,411.9,279,406.7z"/>
			<path class="st2" d="M262.5,418c1.1,1.9,7.9,13.7,10.5,9.9c1.7-2.5-2-6.3-2.9-8.4c-1.7-4-2.6-8.1-3.5-12.4
				c-2.3-11.2-4-22.4-4.9-33.9c-0.7-9.1-0.6-18.2-1.1-27.3c-0.2-4-0.3-8-0.2-11.9c0.1-2,0.7-4.9,0.3-6.9c-0.1-0.3,0.1-0.4,0.1-0.6
				c-1.6,3.5-3.5,6.7-4.9,10.3c-2.5,6.4-3.2,13.5-3.6,20.3C250.8,378.1,251.4,399.4,262.5,418z"/>
			<path class="st2" d="M287.5,388c-4.2,10.4-11.8,20.5-12.7,32c-0.4,4.6-0.2,12.1,5.4,10.3c4.6-1.5,6.9-12.4,8.3-16.3
				c2.5-6.8,6.2-13.1,8.4-20.2c5-16.1,7.6-30.6,4.8-49.9C300.1,359.9,292.6,375.5,287.5,388z"/>
			<path class="st3" d="M309.5,391.2c7.4-20.4,13-51.2,3.8-72c-0.1,19.6-3.6,37.7-8.8,56.1c-3.3,11.6-9.4,22-15.6,32.3
				c-3,5-20.6,29.9-3.1,21.8C298.6,423.6,305,403.3,309.5,391.2z"/>
			<path class="st4" d="M275.3,431.1c-11.3-3.7-19.2-28.2-22.2-38.2c-4.3-14.4-3-29.7-6.5-43.5c-10,12.9-6.3,34.4-2.5,49.1
				c2.6,10.2,12.8,41.3,28.8,34L275.3,431.1z"/>
			<path class="st2" d="M292.4,377.2c1.3-2.9,1.6-6.3,2-9.4c1.2-8.6,1-17.4,0.7-26c-0.3-9.1-1-18.3-2.2-27.4
				c-0.6-4.4-1.9-8.7-2.6-13.1c-2.2,4-1,10-0.9,14.5c0.2,7.8,0.6,16.1-0.3,23.9c-1.7,14.4-2.8,29-5,43.4c-0.6,4.3-1.6,8.6-2.1,13
				c-0.2,1.8-0.4,3.5-0.7,5.3c-0.1,0.6-0.8,2.1-0.6,2.6c0.8,1.9,3.2-1.2,4.1-2.3c2.7-3.4,5.1-7.4,7.3-11.2L292.4,377.2z"/>
			<path class="st1" d="M271.7,418.3c2.5-4.1,1.5-11.7,1.7-16.4c0.5-12.5,1.1-24.9,0.7-37.4c-0.4-12.6,0-25.2,0.9-37.8
				c0.4-5.1,2.6-11,2.1-16c-2.4,3.9-3.5,9.1-4.8,13.8c-2.6,9-5.2,17.9-5.8,27.3c-0.9,12.6-2.4,24.8-1.4,37.5
				c0.5,6.7,1.4,13.4,2.8,20c0.7,3.7,1,9.2,3.9,12c0-0.4,0.1-0.8,0.1-1.2L271.7,418.3z"/>
			<path class="st4" d="M275.4,429.5c3.8-9,6-19,7.7-29.2c2.1-12.4,7.2-37.2,1.8-48.4c-3,11.7-5.8,23.9-8.4,36.2
				c-1.6,7.6-10.5,37.4-3.6,42.1L275.4,429.5z"/>
			<path class="st4" d="M270.3,427.9c0.4-3.7-0.8-10.7-1.1-15.2c-0.8-11.3-0.8-22.5-1.2-33.8c-0.5-16.7-0.2-34,1.2-50.8
				c-2.6,4.3-3.8,10.4-5,15.5c-2.2,10-3.4,20.3-3.8,30.6c-0.4,11.2-1.1,22.8,0.3,33.9c0.5,3.8,3.7,21.5,9.5,20.6L270.3,427.9z"/>
			<path class="st3" d="M283.4,420.9c3.5-8.1,6-16.3,8.3-24.8c6-22.5,8.7-45.2,8.2-68.4c-0.1-3.6-0.4-7.1-0.3-10.6
				c-2,4.1-2,9.5-2.3,14.1c-0.6,8.6-2.2,17.2-3.6,25.6c-2.4,14.3-5.4,28.9-10.1,42.7c-2.3,6.8-4.6,14-8,20.3
				c-1.2,2.1-3.2,4.3-3.6,6.8c-0.5,2.9,2.6,4,4.9,3.1C280.2,428.5,282,423.9,283.4,420.9z"/>
			<path class="st3" d="M274.8,386.1c0.9-12.9,0.5-25.9,1.4-38.8c0.5-7.5,0.9-15,1.6-22.5c-6.2,13.1-8.1,29.1-9.9,43.6
				c-1.5,11.8-1.9,23.9-1.8,35.8c0.1,5.5,0.6,11,1.1,16.5c0.2,2.1,0,8.5,3.1,8.4c3.7-0.1,4.1-8.4,4.2-10.7
				C275.5,407.5,274.1,396.8,274.8,386.1z"/>
		</g>
	</g>
	<g id="Layer_3">
		<g>
			<path class="st5" d="M164.6,22.2l39.2-7.1c0,0,4.1,6.7,5.9,16.9c12.6,72.6,61.2,366.3,69.8,371.9l-56.7,10.2L164.6,22.2z"/>
			<path class="st6" d="M222.8,414.2l12.3,6.6l55.8-10.1L209.5,16.8l-5.8-1.8c0,0,64.9,380.7,75.7,388.8L222.8,414.2z"/>
		</g>
	</g>
	<g id="Layer_7">
		<g>
			<path class="st1" d="M208.7,374.1c-1.8-2.4-2.6-4.3-3.5-7c-1-3.1-3.1-5.8-4.4-8.8c-1.2-2.7-2.2-5.4-3.4-8.1
				c-4.1-9.5-7.4-19.4-10.7-29.2c-1.8-5.3-3.6-10.5-5.4-15.8c-0.9-2.6-1.9-5.2-2.8-7.9c-0.4-1.1-1.8-6.9-2.7-7.2c-0.1,0-0.1,0,0,0
				c3.7,1.7,6.9,8.9,9,12.2c4.4,7,8.5,14.4,12.2,21.8c5.1,10.2,10.4,20.7,14.1,31.6c2.1,6.1,4.1,12.3,5.8,18.5c1.1,4,3,8.6,2.9,12.8
				C215.6,383.6,212,378.5,208.7,374.1z"/>
			<path class="st1" d="M227.8,380.1c-0.5,2.1-3.6,15.4-7.1,12.5c-2.3-1.9,0.1-6.6,0.3-8.9c0.4-4.3,0.1-8.6-0.3-12.9
				c-1-11.4-2.7-22.6-5.2-33.8c-2-8.9-4.8-17.6-6.9-26.4c-0.9-3.9-2-7.7-3.3-11.5c-0.6-1.9-2.1-4.5-2.3-6.5c0-0.3-0.2-0.4-0.3-0.5
				c2.5,2.9,5.3,5.4,7.7,8.4c4.2,5.4,6.9,12,9.4,18.3C227.4,338.4,233,359,227.8,380.1z"/>
			<path class="st2" d="M195.1,358.7c7.1,8.7,17.3,16.2,21.5,26.9c1.7,4.3,3.8,11.5-2.2,11.4c-4.8-0.1-10.2-9.9-12.7-13.1
				c-4.4-5.7-9.8-10.8-13.9-16.9c-9.5-13.9-16.2-27-19.2-46.4C174.9,335.5,186.6,348.1,195.1,358.7z"/>
			<path class="st7" d="M175,368.1c-13.1-17.4-27.4-45.2-24.6-67.7c5.8,18.7,14.4,35,24.8,51.1c6.5,10.1,15.4,18.3,24.3,26.4
				c4.3,3.9,28.4,22.6,9.3,20C194.9,395.9,182.8,378.4,175,368.1z"/>
			<path class="st7" d="M219.4,396.3c9.7-6.9,10.1-32.6,10.1-43c-0.1-15.1-5.7-29.2-6.4-43.5c13.3,9.4,16,31.1,16.7,46.3
				c0.4,10.5-0.2,43.2-17.6,40.9L219.4,396.3z"/>
			<path class="st1" d="M187.3,349.7c-2.1-2.4-3.4-5.6-4.7-8.4c-3.7-7.9-6-16.3-8.3-24.7c-2.4-8.8-4.4-17.8-5.8-26.8
				c-0.7-4.4-0.7-8.9-1.3-13.3c3.3,3.2,3.9,9.3,5.1,13.6c2.1,7.6,4.1,15.6,7.2,22.8c5.8,13.3,11.1,26.9,17.4,40
				c1.9,4,4.1,7.8,5.8,11.8c0.7,1.6,1.4,3.3,2.3,4.8c0.3,0.5,1.4,1.7,1.3,2.4c-0.2,2.1-3.4-0.2-4.6-1c-3.5-2.5-7.1-5.6-10.2-8.6
				L187.3,349.7z"/>
			<path class="st2" d="M219,383c-3.6-3.2-4.8-10.8-6.4-15.2c-4.1-11.8-8.3-23.5-11.6-35.5c-3.3-12.1-7.4-24.1-11.9-35.9
				c-1.8-4.8-5.7-9.8-6.7-14.7c3.5,3.1,6,7.7,8.6,11.7c5.1,7.9,10.2,15.6,13.6,24.4c4.5,11.8,9.5,23.1,12.3,35.4
				c1.5,6.6,2.5,13.3,3.2,19.9c0.4,3.7,1.7,9.1-0.3,12.6c-0.1-0.4-0.3-0.8-0.4-1.1L219,383z"/>
			<path class="st7" d="M218.8,394.8c-6.3-7.5-11.3-16.4-15.9-25.7c-5.6-11.3-17.7-33.5-15.9-45.8c6.3,10.3,12.5,21.1,18.6,32.2
				c3.8,6.8,20.9,32.7,15.7,39.2L218.8,394.8z"/>
			<path class="st7" d="M223.2,391.7c-1.5-3.4-2.4-10.5-3.4-14.9c-2.5-11-5.8-21.8-8.7-32.7c-4.4-16.2-9.7-32.6-16-48.2
				c3.8,3.4,6.7,8.9,9.3,13.4c5,8.9,9.2,18.4,12.5,28.1c3.6,10.6,7.7,21.5,9.6,32.6c0.6,3.8,2.8,21.7-3,22.4L223.2,391.7z"/>
			<path class="st7" d="M208.7,388.9c-5.7-6.7-10.5-13.8-15.1-21.3c-12.4-19.6-21.6-40.6-27.8-63c-1-3.4-1.7-6.9-2.8-10.3
				c3.1,3.3,4.7,8.5,6.3,12.8c3.1,8,7.1,15.8,10.9,23.4c6.5,13,13.6,26.1,22.1,37.9c4.2,5.8,8.4,12,13.5,17.1
				c1.7,1.7,4.3,3.2,5.5,5.5c1.4,2.7-1.3,4.6-3.8,4.4C214,395.3,210.8,391.4,208.7,388.9z"/>
			<path class="st7" d="M206.7,353.1c-4.6-12.1-8-24.6-12.7-36.7c-2.7-7-5.3-14.1-8.1-21.1c9.8,10.7,16.2,25.5,22.2,38.8
				c4.8,10.9,8.8,22.3,12.1,33.7c1.5,5.3,2.7,10.7,3.7,16.1c0.4,2,2.5,8.1-0.6,8.9c-3.6,1-6.3-6.9-7.2-9
				C212.3,373.8,210.5,363.1,206.7,353.1z"/>
		</g>
	</g>
	<g id="Layer_2">
		<g>
			<polygon class="st5" points="53.7,238.8 21.8,62.4 359.6,1.4 376.8,60.3 395.3,167 			"/>
			<polygon class="st6" points="21.8,62.4 359.5,1.2 366.6,33.9 354.9,36 368.1,40.6 372.2,59.9 347.9,61.3 373.3,65.2 385,119.2 
				376.2,124 388,125.7 389.1,131.5 366.2,138.4 390.1,137.4 395.6,167.6 110.5,229.5 53.7,238.8 51.8,229.6 58,224.2 47.6,221.1 
				39.4,176.1 54.2,172.9 41.2,167.6 35.6,136.9 58.7,128.3 33.9,129.2 26.8,90.9 46.6,85.7 24.5,81.4 			"/>
			<polygon class="st5" points="359.6,1.4 369.2,7.4 406.3,175.1 395.6,172 395.3,167 			"/>
			<polygon class="st5" points="53.7,238.8 395.3,167 406.3,175.1 65.1,245 			"/>
		</g>
	</g>
	<g id="Layer_4">
		<g>
			<g class="st8">
				<path class="st9" d="M89.8,122.4l5.1,23.3l0.1,0.5c0.1,0.4,0.2,1.1,0.3,1.9c0.1,0.9,0.1,1.9,0.1,3c-0.1,1.1-0.2,2.3-0.6,3.5
					c-0.3,1.2-0.9,2.4-1.7,3.5c-0.8,1.1-1.9,2.1-3.2,3.1c-1.3,0.9-3.1,1.6-5.2,2.1l-1.3,0.3c-1.6,0.2-3.1,0.3-4.5,0.1
					c-0.6-0.1-1.2-0.2-1.8-0.3c-0.6-0.2-1.1-0.4-1.7-0.7c-0.5-0.3-1-0.7-1.3-1.1c-0.4-0.5-0.7-1-0.9-1.7l1.1,5.2l-5.6,1.2l-8.2-37.4
					l5.6-1.2l5.1,23.3c0,0.1,0.1,0.4,0.3,0.9c0.1,0.5,0.4,1.1,0.7,1.7c0.3,0.7,0.8,1.3,1.3,2.1c0.5,0.7,1.2,1.3,2,1.8
					s1.7,0.9,2.8,1.1c1.1,0.2,2.4,0.2,3.8-0.1c0.1,0,0.5-0.1,0.9-0.3c0.5-0.1,1.1-0.4,1.7-0.7s1.3-0.8,1.9-1.3
					c0.7-0.5,1.2-1.2,1.7-2.1c0.5-0.8,0.8-1.8,0.9-3c0.2-1.2,0.1-2.5-0.3-4.1l-5.1-23.3L89.8,122.4z"/>
				<path class="st9" d="M102.1,119.5c0.1,0,0.5-0.1,1-0.2c0.6-0.1,1.2-0.1,2-0.1s1.6,0.2,2.5,0.4c0.9,0.3,1.8,0.7,2.7,1.4
					c0.9,0.7,1.7,1.6,2.4,2.7s1.3,2.7,1.7,4.5l5.9,26.7l-5.6,1.2l-5.9-26.7c-0.3-1-0.6-1.8-1.1-2.6c-0.2-0.3-0.5-0.6-0.7-0.9
					c-0.3-0.3-0.6-0.5-1-0.7s-0.8-0.3-1.2-0.4c-0.4-0.1-0.9,0-1.5,0.1c-0.9,0.2-1.7,0.5-2.3,0.8c-0.6,0.4-1.1,0.7-1.4,1.1
					c-0.4,0.4-0.6,0.7-0.8,1c-0.2,0.3-0.3,0.6-0.4,0.7l-4.7-3.2c0.4-0.9,1-1.7,1.8-2.5c0.7-0.7,1.5-1.4,2.6-2
					C99.2,120.3,100.5,119.8,102.1,119.5z"/>
				<path class="st9" d="M133.6,152l-5.7,1.2l-8.2-37.4l5.7-1.2L133.6,152z"/>
				<path class="st9" d="M151.6,109.6c1.8,0.3,3.3,0.7,4.6,1.5c1.3,0.7,2.4,1.6,3.2,2.6c0.9,1,1.6,2,2.1,3c0.6,1,1,1.9,1.2,2.8
					c0.3,0.8,0.4,1.5,0.5,1.8l0.1,0.3l5,22.8l-5.6,1.2l-2.4-11c-0.2-1.1-0.7-1.9-1.3-2.5s-1.4-1.1-2.2-1.4c-0.8-0.3-1.7-0.5-2.6-0.6
					c-0.9-0.1-1.7-0.1-2.5-0.1s-1.6,0.1-2.6,0.3c-0.1,0-0.3,0.1-0.7,0.2c-0.4,0.1-0.8,0.3-1.4,0.5c-0.5,0.3-1.1,0.6-1.7,1
					c-0.6,0.4-1.1,0.9-1.6,1.5s-0.9,1.3-1.2,2.1s-0.5,1.8-0.4,2.8c0,0.3,0,0.7,0.1,0.9c0.2,0.8,0.5,1.4,1,1.9s1.1,0.8,1.8,1.1
					c0.7,0.2,1.4,0.4,2.2,0.5s1.6,0.1,2.3,0c0.8,0,1.4-0.1,2.1-0.2c0.6-0.1,1.1-0.2,1.4-0.3l0.5-0.1l1.1,5.2l-6.3,1.4
					c-1.3,0.3-2.6,0.3-3.9,0c-1.3-0.3-2.4-0.8-3.5-1.6s-2-1.7-2.8-2.9s-1.3-2.4-1.6-3.8c-0.3-1.4-0.3-2.8,0-4.4
					c0.3-1.6,1-3.2,2.2-4.8c0.7-1,1.4-1.8,2.2-2.6c0.8-0.7,1.6-1.4,2.4-1.9s1.7-0.9,2.5-1.3c0.9-0.3,1.7-0.6,2.5-0.8
					c1.3-0.3,2.5-0.4,3.7-0.4s2.2,0,3.1,0.1c1,0.1,2,0.3,2.9,0.6l-0.5-2.2c-0.3-1.2-0.6-2.2-1.1-3c-0.4-0.8-1-1.5-1.5-2.1
					c-0.6-0.6-1.2-1-1.8-1.3s-1.3-0.6-1.9-0.7c-1.5-0.4-3.1-0.4-4.8-0.2c-1.5,0.3-2.7,0.9-3.7,1.6c-0.9,0.8-1.6,1.6-2.1,2.5
					s-0.8,1.9-1,2.8s-0.3,1.7-0.3,2.4l-5.9,1.3c-0.3-2.1-0.3-3.9,0-5.5s0.9-3,1.6-4.1c0.7-1.2,1.6-2.2,2.6-3s1.9-1.4,2.9-1.9
					s1.8-0.9,2.6-1.1s1.4-0.4,1.7-0.5l0.3-0.1C147.8,109.4,149.8,109.3,151.6,109.6z"/>
				<path class="st9" d="M152,93l2.3,10.6l-5.2,1.1l-2.3-10.6L152,93z"/>
				<path class="st9" d="M171.8,104.4l5.1,23.3c0.3,1.6,0.8,2.9,1.5,3.9c0.6,1,1.4,1.8,2.1,2.3c0.8,0.6,1.6,0.9,2.4,1.2
					c0.8,0.2,1.6,0.3,2.3,0.4c0.7,0,1.3,0,1.8-0.1s0.8-0.1,1-0.2c1.4-0.3,2.6-0.8,3.5-1.5s1.6-1.4,2.1-2.2s0.9-1.6,1-2.5
					c0.2-0.9,0.3-1.7,0.3-2.4c0-0.7,0-1.4-0.1-1.9s-0.1-0.8-0.1-0.9l-5.1-23.3l5.6-1.2l8.2,37.4l-5.6,1.2l-1.1-5.2
					c0.1,0.7,0.1,1.4-0.1,1.9c-0.2,0.6-0.4,1.1-0.7,1.6s-0.7,0.9-1.2,1.3c-0.5,0.4-0.9,0.7-1.4,1c-1.2,0.7-2.6,1.3-4.1,1.8l-1.3,0.3
					c-2.1,0.5-4,0.6-5.6,0.3s-3-0.7-4.2-1.4s-2.2-1.5-3-2.5s-1.5-2-2-3s-0.9-1.9-1.2-2.8c-0.3-0.8-0.4-1.5-0.5-1.9l-0.1-0.5
					l-5.1-23.3L171.8,104.4z"/>
				<path class="st9" d="M216.6,133.8l-5.7,1.2l-8.2-37.4l5.7-1.2L216.6,133.8z"/>
				<path class="st9" d="M223.7,132.3l-6.3-28.7c0.5-1.6,1-3,1.7-4.2s1.4-2.2,2.3-3.1c0.8-0.9,1.7-1.6,2.5-2.2
					c0.9-0.6,1.7-1.1,2.4-1.4c0.8-0.4,1.4-0.6,2-0.8c0.6-0.2,1-0.3,1.3-0.4l0.3-0.1c1.8-0.4,3.5-0.5,4.9-0.4c1.5,0.1,2.8,0.4,4,0.8
					s2.2,0.9,3.1,1.6c0.9,0.7,1.7,1.4,2.3,2.1c0.7,0.8,1.2,1.5,1.6,2.3c0.4,0.8,0.8,1.5,1.1,2.2s0.5,1.2,0.6,1.7s0.2,0.8,0.2,0.9
					l5.1,23.2l-5.6,1.2l-5.1-23.2c-0.3-1.5-0.8-2.7-1.4-3.6c-0.6-0.9-1.3-1.6-2.1-2.2c-0.8-0.5-1.6-0.9-2.4-1.1
					c-0.8-0.2-1.6-0.3-2.3-0.3s-1.3,0-1.8,0.1s-0.8,0.1-1,0.2c-1.1,0.3-2.1,0.6-2.9,1c-0.8,0.4-1.5,0.9-2,1.5s-1,1.2-1.3,1.8
					c-0.3,0.6-0.5,1.3-0.7,1.9c-0.4,1.4-0.4,3-0.1,4.7l5.1,23.2L223.7,132.3z"/>
				<path class="st9" d="M280.9,80.5l5.1,23.3l0.1,0.5c0.1,0.4,0.2,1.1,0.3,1.9c0.1,0.9,0.1,1.9,0.1,3c-0.1,1.1-0.2,2.3-0.6,3.5
					c-0.3,1.2-0.9,2.4-1.7,3.5c-0.8,1.1-1.9,2.1-3.2,3.1c-1.3,0.9-3.1,1.6-5.2,2.1l-1.3,0.3c-1.6,0.2-3.1,0.3-4.5,0.1
					c-0.6-0.1-1.2-0.2-1.8-0.3s-1.1-0.4-1.7-0.7c-0.5-0.3-1-0.7-1.3-1.1c-0.4-0.5-0.7-1-0.9-1.7l1.1,5.2l-5.6,1.2L251.6,87l5.6-1.2
					l5.1,23.3c0,0.1,0.1,0.4,0.3,0.9c0.1,0.5,0.4,1.1,0.7,1.7c0.3,0.7,0.8,1.3,1.3,2.1c0.5,0.7,1.2,1.3,2,1.8s1.7,0.9,2.8,1.1
					c1.1,0.2,2.4,0.2,3.8-0.1c0.1,0,0.5-0.1,0.9-0.3c0.5-0.1,1.1-0.4,1.7-0.7c0.6-0.3,1.3-0.8,1.9-1.3c0.7-0.5,1.2-1.2,1.7-2.1
					c0.5-0.8,0.8-1.8,0.9-3c0.2-1.2,0.1-2.5-0.3-4.1l-5.1-23.3L280.9,80.5z"/>
				<path class="st9" d="M296.1,116.4l-6.3-28.7c0.5-1.6,1-3,1.7-4.2s1.4-2.2,2.3-3.1c0.8-0.9,1.7-1.6,2.5-2.2
					c0.9-0.6,1.7-1.1,2.4-1.4c0.8-0.4,1.4-0.6,2-0.8c0.6-0.2,1-0.3,1.3-0.4l0.3-0.1c1.8-0.4,3.5-0.5,4.9-0.4s2.8,0.4,4,0.8
					s2.2,0.9,3.1,1.6s1.7,1.4,2.3,2.1c0.7,0.8,1.2,1.5,1.6,2.3s0.8,1.5,1.1,2.2c0.3,0.7,0.5,1.2,0.6,1.7s0.2,0.8,0.2,0.9l5.1,23.2
					l-5.6,1.2L314.7,88c-0.3-1.5-0.8-2.7-1.4-3.6s-1.3-1.6-2.1-2.2c-0.8-0.5-1.6-0.9-2.4-1.1s-1.6-0.3-2.3-0.3c-0.7,0-1.3,0-1.8,0.1
					s-0.8,0.1-1,0.2c-1.1,0.3-2.1,0.6-2.9,1s-1.5,0.9-2,1.5s-1,1.2-1.3,1.8c-0.3,0.6-0.5,1.3-0.7,1.9c-0.4,1.4-0.4,3-0.1,4.7
					l5.1,23.2L296.1,116.4z"/>
				<path class="st9" d="M303.2,62.5l0.6,2.8l14-3.1l1.1,5.2l-16.8,3.7c-0.6,0.1-1.1,0.1-1.5-0.1s-0.7-0.4-0.9-0.7
					c-0.3-0.3-0.5-0.7-0.6-1.2l-1.2-5.5L303.2,62.5z"/>
				<path class="st9" d="M329.8,69.7l5.1,23.3c0.3,1.6,0.8,2.9,1.5,3.9c0.6,1,1.4,1.8,2.1,2.3c0.8,0.6,1.6,0.9,2.4,1.2
					c0.8,0.2,1.6,0.3,2.3,0.4c0.7,0,1.3,0,1.8-0.1s0.8-0.1,1-0.2c1.4-0.3,2.6-0.8,3.5-1.5s1.6-1.4,2.1-2.2c0.5-0.8,0.9-1.6,1-2.5
					c0.2-0.9,0.3-1.7,0.3-2.4c0-0.7,0-1.4-0.1-1.9s-0.1-0.8-0.1-0.9l-5.1-23.3l5.6-1.2l8.2,37.4l-5.6,1.2l-1.1-5.2
					c0.1,0.7,0.1,1.4-0.1,1.9c-0.2,0.6-0.4,1.1-0.7,1.6c-0.3,0.5-0.7,0.9-1.2,1.3s-0.9,0.7-1.4,1c-1.2,0.7-2.6,1.3-4.1,1.8l-1.3,0.3
					c-2.1,0.5-4,0.6-5.6,0.3c-1.6-0.3-3-0.7-4.2-1.4c-1.2-0.7-2.2-1.5-3-2.5s-1.5-2-2-3s-0.9-1.9-1.2-2.8c-0.3-0.8-0.4-1.5-0.5-1.9
					l-0.1-0.5L324.2,71L329.8,69.7z"/>
			</g>
		</g>
	</g>
	<g id="Layer_6">
		<g id="Layer_2_1_">
			<g>
				<path class="st10" d="M6.6,424.8c0,0-17,29.1,3.7,35.2s237.1,16.3,443.2,0c9-0.8,26.7-12.1,8.5-35.2
					c-4.1-5.2-72.4-6.4-154.9-5.9c-5.5,0-11.1,0.1-16.7,0.1c-5.6,0.8-11.3-0.4-17,0.2c-5.7,0.2-11.4-0.9-17.2,0.2
					c-5.8-0.1-11.5,0.2-17.3,0.2C123.4,421.3,6.6,424.8,6.6,424.8z"/>
				<path class="st11" d="M469,448.2c0,0,6.5-25.5-14.6-31.6s-215.7-23-432-3.6c-9.2,0.9-22.1,7.1-23.1,34
					c-0.2,4.5,126.3,8.2,248.1,7.4C360.2,453.5,469,448.2,469,448.2z"/>
				<path class="st1" d="M469,430.1c0,0,2.9-15.9-18.2-22C429.7,402,254,400,38.1,404.5c-9.3,0.2-29.3-1.7-33.9,20.8
					c-0.6,2.6,2.4,9.3,19.9,10.6c2.9,0.2,13.3-7.8,16.6-4.2c3.3-1.7,6.8-6.5,10.5,0.6c3.7-9.9,7.6-4.3,11.6,0.5
					c4.1,9.3,8.2-8,12.6,0.4c4.4-5.7,8.8,4.1,13.5,0.4c4.6,6.4,9.4,0.2,14.2,0.3c8.5,0.1,17.4,5,26.6,5.1c4.5,0,9.3-4.7,13.9-4.7
					c4.7-0.6,9.5-3.5,14.3,0.1c4.8-3.5,9.8,2.6,14.7,0c4.9-2.4,9.9-2,14.9,0c5-2.5,10-3.3,15.1,0c5-1.1,10.1-1.8,15.3-0.1
					c5.1,0,10.2-0.1,15.3-0.1c3.2,0,6.4-0.1,9.6-0.1c3.2-1.9,6.4-1.4,9.6-0.1c3.2,0.2,6.4,2.8,9.6-0.1c3.2,1.7,6.4-1.5,9.5-0.1
					c3.1-0.5,6.4,0.8,9.5-0.1c3.1,2.7,6.3,5.8,9.4,4.6c3.1,0,6.3-4.9,9.3-4.9c5.4-0.1,10.8-0.2,16-0.2c5.3,1.3,10.5,2.3,15.6-0.3
					c5.1-2.9,10.2,11.1,15.3-0.3c5,6.8,9.9,8,14.7-0.3c4.8-5,9.5-4.7,14.1-0.3c4.5,1.8,9.1-3.1,13.5-0.3c4.4-1.1,8.5,1.6,12.7-0.3
					c2.1-1.5,4.1-1.4,6.1-1s3.9,1,5.8,0.8c1.9,0.9,3.8,1.9,5.6-0.1c1.8-2.3,3.6-3.7,5.3-0.1c5.6-1.4,10.7,3.3,15.4,3.2
					c4.6-0.2,8.8-6.5,12.5-3.9c3.7-0.5,6.7-3.6,9.3-0.2c2.6-0.1,4.5-0.1,5.8-0.2C468.3,430.2,469,430.1,469,430.1z"/>
				<path class="st1" d="M17.2,407.4c0,0,2.8,8.6,15.3,9.4c19.7,1.2,204.7,5.1,406.1,0.8c8.6-0.2,15.9-1.8,16.9-7.9
					c0.2-1-119.1-1.6-232.4-1.4C117.7,408.6,17.2,407.4,17.2,407.4z"/>
				<path class="st12" d="M122.2,363.9c-56.5,0-70.7,26.3-105,43.5l258.4,1.6C248.5,396.2,178.7,363.9,122.2,363.9z"/>
				<path class="st12" d="M312.8,350.5c-75.5,0-104,35-149.8,58.1l292.4,1.2C421.7,394.7,388.3,350.5,312.8,350.5z"/>
			</g>
		</g>
	</g>
</g>
<g id="Layer_2_2_" class="st0">
	<g id="Layer_4_1_" class="st13">
		<g>
			<text transform="matrix(0.9767 -0.2144 0.2144 0.9767 67.7432 284.4698)" class="st9 st14 st15">มาเล่นเกมกัน</text>
		</g>
	</g>
</g>
</svg>
