<?xml version="1.0" encoding="utf-8"?>
<!-- Generator: Adobe Illustrator 21.0.0, SVG Export Plug-In . SVG Version: 6.00 Build 0)  -->
<svg version="1.1" id="Layer_1" xmlns="http://www.w3.org/2000/svg" xmlns:xlink="http://www.w3.org/1999/xlink" x="0px" y="0px"
	 viewBox="0 0 424.1 421.8" style="enable-background:new 0 0 424.1 421.8;" xml:space="preserve">
<style type="text/css">
	.st0{display:none;}
	.st1{fill:#3A7033;}
	.st2{fill:#4E9944;}
	.st3{fill:#8AC53F;}
	.st4{fill:#7D4E24;}
	.st5{fill:#643C17;}
	.st6{fill:#498C3F;}
	.st7{fill:#8CBC40;}
	.st8{fill:#B07F4A;}
	.st9{fill:#5F320E;}
	.st10{fill:#8E5B2D;}
	.st11{enable-background:new    ;}
	.st12{fill:#EDE6E2;}
	.st13{display:inline;}
	.st14{display:inline;fill:#7D4E24;}
	.st15{display:inline;fill:#643C17;}
	.st16{display:inline;fill:#B07F4A;}
	.st17{display:inline;fill:#5F320E;}
	.st18{display:inline;fill:#8E5B2D;}
	.st19{fill:#754410;}
	.st20{fill:#AA6915;}
	.st21{fill:#135B2B;}
	.st22{fill:#13592C;}
	.st23{fill:#1B8746;}
	.st24{font-family:'supermarket';}
	.st25{font-size:65.994px;}
</style>
<g id="Layer_1_2_">
	<g id="Layer_1_1_" class="st0">
		
			<image style="display:inline;overflow:visible;enable-background:new    ;" width="626" height="626" xlink:href="EC99B0BD.jpeg"  transform="matrix(1 0 0 1 -249.7132 -79.1113)">
		</image>
	</g>
	<g id="Layer_8">
		<g>
			<path class="st1" d="M251.7,365.9c0.9-2.6,1.1-4.4,1.2-7c0-3,1.1-5.8,1.5-8.7c0.3-2.6,0.5-5.2,0.8-7.8c1-9.3,1.3-18.7,1.6-28
				c0.2-5,0.3-10,0.5-15.1c0.1-2.5,0.2-5,0.4-7.5c0.1-1-0.3-6.4,0.4-6.9c0.1-0.1,0.1-0.1,0,0c-2.7,2.5-3.6,9.5-4.6,12.9
				c-2,7.2-3.5,14.7-4.8,22.1c-1.8,10.1-3.5,20.6-3.8,31c-0.2,5.8-0.3,11.7-0.1,17.5c0.1,3.7-0.3,8.2,0.9,11.8
				C248.3,375.9,250.1,370.5,251.7,365.9z"/>
			<path class="st1" d="M236.8,376.1c1,1.7,7.1,12.3,9.4,8.9c1.5-2.2-1.8-5.7-2.6-7.6c-1.5-3.6-2.4-7.4-3.2-11.2
				c-2.1-10.1-3.6-20.2-4.4-30.6c-0.6-8.2-0.5-16.4-1-24.6c-0.2-3.6-0.3-7.2-0.2-10.8c0-1.8,0.7-4.4,0.3-6.2c0-0.2,0.1-0.4,0.1-0.5
				c-1.4,3.1-3.2,6-4.4,9.3c-2.2,5.8-2.8,12.1-3.3,18.3C226.3,340,226.8,359.3,236.8,376.1z"/>
			<path class="st2" d="M259.4,349c-3.8,9.4-10.7,18.5-11.5,28.8c-0.3,4.1-0.2,10.9,4.9,9.3c4.1-1.3,6.2-11.2,7.5-14.7
				c2.3-6.1,5.6-11.9,7.6-18.2c4.5-14.5,6.9-27.6,4.4-45.1C270.8,323.6,264,337.6,259.4,349z"/>
			<path class="st3" d="M279.2,351.8c6.7-18.4,11.8-46.2,3.5-64.9c-0.1,17.7-3.2,34-8,50.6c-3,10.5-8.5,19.9-14.1,29.2
				c-2.7,4.5-18.6,27-2.8,19.7C269.4,381,275.2,362.8,279.2,351.8z"/>
			<path class="st3" d="M248.4,387.8c-10.2-3.4-17.3-25.5-20-34.5c-3.9-13-2.7-26.8-5.9-39.2c-9,11.7-5.7,31.1-2.2,44.3
				c2.4,9.2,11.5,37.3,26,30.7L248.4,387.8z"/>
			<path class="st2" d="M263.8,339.2c1.1-2.6,1.4-5.7,1.8-8.5c1.1-7.7,0.9-15.7,0.6-23.5c-0.3-8.3-0.9-16.5-2-24.7
				c-0.6-4-1.7-7.9-2.3-11.8c-2,3.6-0.9,9-0.8,13.1c0.2,7.1,0.6,14.6-0.2,21.6c-1.5,13-2.5,26.1-4.5,39.1c-0.6,3.9-1.5,7.8-1.9,11.7
				c-0.2,1.6-0.3,3.2-0.7,4.8c-0.1,0.5-0.7,1.9-0.5,2.4c0.7,1.7,2.9-1.1,3.7-2.1c2.4-3.1,4.6-6.7,6.5-10.1L263.8,339.2z"/>
			<path class="st1" d="M245.2,376.3c2.2-3.7,1.3-10.6,1.5-14.8c0.4-11.2,1-22.5,0.7-33.7c-0.4-11.3,0-22.8,0.8-34.1
				c0.3-4.6,2.3-10,1.9-14.5c-2.2,3.5-3.1,8.2-4.4,12.4c-2.4,8.1-4.7,16.2-5.3,24.7c-0.8,11.3-2.2,22.4-1.3,33.8
				c0.5,6,1.3,12.1,2.5,18c0.7,3.3,0.9,8.3,3.6,10.8c0-0.4,0.1-0.7,0.1-1.1L245.2,376.3z"/>
			<path class="st3" d="M248.5,386.4c3.4-8.1,5.4-17.1,7-26.4c1.9-11.2,6.5-33.6,1.7-43.7c-2.7,10.6-5.2,21.5-7.6,32.6
				c-1.4,6.9-9.5,33.7-3.2,38L248.5,386.4z"/>
			<path class="st3" d="M243.8,384.9c0.4-3.3-0.7-9.7-1-13.7c-0.7-10.2-0.8-20.3-1.1-30.5c-0.5-15.1-0.2-30.7,1.1-45.8
				c-2.4,3.9-3.5,9.4-4.5,14c-2,9-3.1,18.3-3.4,27.6c-0.3,10.1-1,20.6,0.3,30.6c0.4,3.4,3.3,19.4,8.5,18.6L243.8,384.9z"/>
			<path class="st3" d="M255.7,378.7c3.2-7.3,5.4-14.7,7.5-22.3c5.4-20.3,7.9-40.8,7.4-61.7c-0.1-3.2-0.3-6.4-0.3-9.6
				c-1.8,3.7-1.8,8.5-2.1,12.7c-0.5,7.7-2,15.5-3.3,23.1c-2.2,12.9-4.9,26.1-9.1,38.6c-2.1,6.1-4.1,12.6-7.2,18.3
				c-1,1.9-2.9,3.9-3.3,6.1c-0.5,2.7,2.3,3.6,4.4,2.8C252.8,385.5,254.5,381.4,255.7,378.7z"/>
			<path class="st3" d="M247.9,347.2c0.8-11.7,0.5-23.3,1.3-35c0.5-6.8,0.9-13.6,1.4-20.3c-5.6,11.8-7.3,26.3-8.9,39.4
				c-1.3,10.6-1.7,21.6-1.6,32.3c0.1,5,0.5,9.9,1,14.9c0.2,1.9,0,7.6,2.8,7.5c3.4-0.1,3.7-7.6,3.8-9.7
				C248.5,366.6,247.3,356.9,247.9,347.2z"/>
		</g>
	</g>
	<g id="Layer_3">
		<g>
			<path class="st4" d="M148.5,18.9l35.4-6.4c0,0,1.6,2.9,2.8,10c10.2,59,57.5,335.7,65.5,340.8l-51.1,9.2L148.5,18.9z"/>
			<path class="st5" d="M201,372.6l11.1,6l50.4-9.1L189.1,14.1l-5.2-1.6c0,0,58.5,343.5,68.3,350.8L201,372.6z"/>
		</g>
	</g>
	<g id="Layer_7">
		<g>
			<path class="st1" d="M188.3,336.4c-1.6-2.2-2.4-3.8-3.1-6.3c-0.9-2.8-2.8-5.2-4-7.9c-1.1-2.4-2-4.9-3-7.3
				c-3.7-8.6-6.7-17.5-9.7-26.3c-1.6-4.8-3.2-9.5-4.9-14.3c-0.8-2.4-1.7-4.7-2.5-7.1c-0.4-1-1.6-6.2-2.4-6.5c-0.1,0-0.1,0,0,0
				c3.3,1.6,6.2,8,8.1,11c4,6.3,7.6,13,11,19.7c4.6,9.2,9.4,18.7,12.7,28.5c1.9,5.5,3.7,11.1,5.2,16.7c1,3.6,2.7,7.8,2.6,11.5
				C194.5,345,191.3,340.3,188.3,336.4z"/>
			<path class="st1" d="M205.6,341.8c-0.5,1.9-3.2,13.9-6.4,11.3c-2.1-1.7,0.1-6,0.3-8c0.4-3.9,0.1-7.7-0.2-11.6
				c-0.9-10.3-2.4-20.4-4.7-30.5c-1.8-8.1-4.3-15.9-6.2-23.9c-0.8-3.5-1.8-7-2.9-10.4c-0.6-1.7-1.9-4-2.1-5.8c0-0.2-0.2-0.3-0.3-0.5
				c2.3,2.6,4.8,4.9,6.9,7.6c3.8,4.9,6.3,10.8,8.5,16.6C205.1,304.2,210.3,322.8,205.6,341.8z"/>
			<path class="st6" d="M176,322.5c6.4,7.8,15.6,14.6,19.4,24.2c1.5,3.8,3.4,10.4-2,10.3c-4.4-0.1-9.2-8.9-11.5-11.9
				c-4-5.2-8.8-9.7-12.6-15.2c-8.5-12.6-14.6-24.4-17.3-41.8C157.8,301.6,168.3,313,176,322.5z"/>
			<path class="st7" d="M157.9,331c-11.8-15.7-24.7-40.8-22.2-61.1c5.2,16.9,13,31.6,22.4,46.1c5.9,9.2,13.9,16.5,22,23.8
				c3.9,3.5,25.6,20.4,8.4,18C175.9,356,164.9,340.3,157.9,331z"/>
			<path class="st7" d="M197.9,356.4c8.8-6.2,9.1-29.4,9.1-38.8c-0.1-13.6-5.2-26.4-5.8-39.2c12,8.5,14.5,28.1,15.1,41.7
				c0.4,9.5-0.1,39-15.9,36.9L197.9,356.4z"/>
			<path class="st1" d="M169,314.4c-1.9-2.2-3-5-4.2-7.6c-3.3-7.1-5.4-14.7-7.5-22.3c-2.1-8-4-16-5.3-24.2c-0.6-4-0.6-8-1.2-12
				c3,2.9,3.5,8.4,4.6,12.3c1.9,6.8,3.7,14.1,6.5,20.6c5.2,12,10.1,24.3,15.7,36.1c1.7,3.6,3.7,7,5.3,10.6c0.7,1.5,1.3,3,2,4.4
				c0.3,0.5,1.3,1.6,1.2,2.1c-0.2,1.9-3.1-0.2-4.1-0.9c-3.2-2.2-6.4-5-9.2-7.8L169,314.4z"/>
			<path class="st6" d="M197.6,344.4c-3.2-2.9-4.4-9.7-5.7-13.7c-3.7-10.6-7.5-21.2-10.5-32.1c-3-11-6.6-21.8-10.7-32.4
				c-1.7-4.3-5.1-8.9-6-13.3c3.1,2.8,5.4,6.9,7.8,10.6c4.6,7.1,9.2,14.1,12.2,22.1c4,10.6,8.6,20.8,11.1,32c1.3,5.9,2.3,12,2.9,18
				c0.3,3.4,1.5,8.3-0.2,11.4c-0.1-0.3-0.3-0.7-0.4-1L197.6,344.4z"/>
			<path class="st7" d="M197.4,355.1c-5.7-6.8-10.2-14.8-14.4-23.2c-5.1-10.2-16-30.2-14.3-41.3c5.7,9.3,11.3,19.1,16.8,29
				c3.4,6.1,18.9,29.5,14.2,35.4L197.4,355.1z"/>
			<path class="st7" d="M201.4,352.3c-1.3-3.1-2.2-9.4-3.1-13.4c-2.3-9.9-5.2-19.6-7.8-29.5c-3.9-14.6-8.8-29.4-14.4-43.5
				c3.4,3,6,8,8.4,12.1c4.5,8,8.3,16.6,11.3,25.4c3.3,9.6,7,19.4,8.7,29.4c0.6,3.4,2.5,19.6-2.7,20.3L201.4,352.3z"/>
			<path class="st7" d="M188.3,349.8c-5.2-6-9.5-12.5-13.7-19.2c-11.1-17.8-19.4-36.7-25-56.9c-0.9-3.1-1.6-6.2-2.5-9.3
				c2.8,3,4.2,7.6,5.7,11.6c2.8,7.3,6.4,14.2,9.9,21.1c5.9,11.7,12.3,23.5,19.9,34.2c3.8,5.3,7.6,10.9,12.2,15.4
				c1.6,1.5,3.9,2.9,4.9,4.9c1.2,2.4-1.2,4.2-3.4,4C193.1,355.5,190.2,352,188.3,349.8z"/>
			<path class="st7" d="M186.5,317.5c-4.1-10.9-7.2-22.2-11.4-33.1c-2.4-6.3-4.8-12.7-7.3-19c8.8,9.6,14.6,23,20,35.1
				c4.4,9.8,7.9,20.1,10.9,30.4c1.4,4.8,2.4,9.6,3.4,14.5c0.4,1.8,2.2,7.3-0.5,8c-3.3,0.9-5.7-6.2-6.5-8.1
				C191.6,336.1,190,326.5,186.5,317.5z"/>
		</g>
	</g>
	<g id="Layer_2">
		<g>
			<polygon class="st8" points="48.5,214.3 19.7,55.2 324.5,0.2 332.9,32.6 356.6,149.5 			"/>
			<polygon class="st9" points="19.7,55.2 324.4,0 330.8,29.4 320.2,31.4 332.1,35.5 335.8,52.9 313.9,54.2 336.8,57.7 347.3,106.4 
				339.4,110.8 350.1,112.3 351,117.6 330.4,123.7 352,122.8 356.9,150.1 81.5,208.8 48.5,214.3 46.8,206.1 52.3,201.1 42.9,198.4 
				35.6,157.8 48.9,154.9 37.2,150.1 32.2,122.4 53,114.7 30.6,115.5 24.2,80.9 42.1,76.2 22.1,72.4 			"/>
			<polygon class="st10" points="324.5,0.2 333.1,5.5 366.6,156.9 359.1,153.3 356.6,149.5 			"/>
			<polygon class="st10" points="48.5,214.3 356.6,149.5 366.6,156.9 58.7,219.9 			"/>
		</g>
	</g>
	<g id="Layer_4">
		<g>
			<g class="st11">
				<path class="st12" d="M81,109.3l4.6,21l0.1,0.4c0.1,0.4,0.2,1,0.3,1.8c0.1,0.8,0.1,1.7,0.1,2.7c-0.1,1-0.2,2.1-0.5,3.2
					c-0.3,1.1-0.8,2.2-1.5,3.2c-0.7,1-1.7,1.9-2.9,2.8c-1.2,0.8-2.8,1.4-4.7,1.9l-1.2,0.3c-1.5,0.2-2.8,0.2-4,0.1
					c-0.5-0.1-1-0.2-1.6-0.3c-0.5-0.1-1-0.4-1.5-0.6c-0.5-0.3-0.9-0.6-1.2-1c-0.4-0.4-0.6-0.9-0.8-1.6l1,4.7l-5,1.1l-7.4-33.8l5-1.1
					l4.6,21c0,0.1,0.1,0.4,0.2,0.8c0.1,0.5,0.3,1,0.6,1.6c0.3,0.6,0.7,1.2,1.2,1.9c0.5,0.6,1.1,1.2,1.8,1.7c0.7,0.5,1.6,0.8,2.6,1
					c1,0.2,2.1,0.2,3.4-0.1c0.1,0,0.4-0.1,0.9-0.2s1-0.3,1.5-0.6c0.6-0.3,1.2-0.7,1.8-1.2c0.6-0.5,1.1-1.1,1.5-1.9
					c0.4-0.8,0.7-1.7,0.9-2.7c0.2-1.1,0.1-2.3-0.2-3.7l-4.6-21L81,109.3z"/>
				<path class="st12" d="M92.1,106.7c0.1,0,0.4-0.1,0.9-0.2c0.5-0.1,1.1-0.1,1.8-0.1c0.7,0,1.5,0.2,2.3,0.4
					c0.8,0.2,1.6,0.7,2.4,1.3c0.8,0.6,1.5,1.4,2.2,2.5s1.2,2.4,1.5,4.1l5.3,24.1l-5,1.1l-5.3-24.1c-0.2-0.9-0.6-1.7-1-2.3
					c-0.2-0.3-0.4-0.6-0.7-0.8c-0.3-0.3-0.5-0.5-0.9-0.6c-0.3-0.2-0.7-0.3-1.1-0.3c-0.4-0.1-0.8,0-1.3,0.1c-0.8,0.2-1.5,0.4-2.1,0.8
					c-0.5,0.3-1,0.7-1.3,1s-0.6,0.6-0.7,0.9c-0.2,0.3-0.3,0.5-0.4,0.6l-4.3-2.9c0.4-0.8,0.9-1.5,1.6-2.3c0.6-0.6,1.4-1.2,2.3-1.8
					C89.5,107.4,90.7,107,92.1,106.7z"/>
				<path class="st12" d="M120.5,136.1l-5.1,1.1l-7.4-33.8l5.1-1.1L120.5,136.1z"/>
				<path class="st12" d="M136.8,97.7c1.6,0.2,3,0.7,4.1,1.3c1.2,0.6,2.1,1.4,2.9,2.3c0.8,0.9,1.4,1.8,1.9,2.7
					c0.5,0.9,0.9,1.8,1.1,2.5s0.4,1.3,0.5,1.6l0.1,0.3l4.5,20.6l-5,1.1l-2.2-9.9c-0.2-1-0.6-1.7-1.2-2.3c-0.6-0.6-1.3-1-2-1.3
					c-0.8-0.3-1.5-0.5-2.4-0.5c-0.8-0.1-1.6-0.1-2.3-0.1c-0.7,0-1.5,0.1-2.4,0.3c-0.1,0-0.3,0.1-0.6,0.2c-0.3,0.1-0.8,0.3-1.2,0.5
					c-0.5,0.2-1,0.5-1.5,0.9c-0.5,0.3-1,0.8-1.5,1.3c-0.4,0.5-0.8,1.2-1.1,1.9c-0.3,0.7-0.4,1.6-0.4,2.5c0,0.3,0,0.6,0.1,0.8
					c0.2,0.7,0.5,1.3,0.9,1.7c0.5,0.4,1,0.7,1.6,1c0.6,0.2,1.3,0.4,2,0.4c0.7,0.1,1.4,0.1,2.1,0c0.7,0,1.3-0.1,1.9-0.2
					c0.6-0.1,1-0.2,1.3-0.2l0.4-0.1l1,4.7l-5.7,1.2c-1.2,0.3-2.3,0.2-3.5,0c-1.1-0.3-2.2-0.8-3.2-1.5c-1-0.7-1.8-1.6-2.5-2.6
					c-0.7-1-1.2-2.2-1.5-3.5c-0.3-1.2-0.3-2.6,0-4c0.3-1.4,0.9-2.8,2-4.3c0.6-0.9,1.3-1.7,2-2.3c0.7-0.7,1.4-1.2,2.2-1.7
					s1.5-0.8,2.3-1.1c0.8-0.3,1.5-0.5,2.3-0.7c1.2-0.3,2.3-0.4,3.3-0.4c1.1,0,2,0,2.8,0.1c0.9,0.1,1.8,0.3,2.6,0.5l-0.4-2
					c-0.2-1.1-0.5-1.9-1-2.7c-0.4-0.7-0.9-1.4-1.4-1.9c-0.5-0.5-1.1-0.9-1.6-1.2s-1.2-0.5-1.7-0.7c-1.3-0.3-2.8-0.4-4.3-0.1
					c-1.4,0.3-2.5,0.8-3.3,1.5c-0.8,0.7-1.5,1.5-1.9,2.3c-0.5,0.8-0.8,1.7-0.9,2.5s-0.2,1.6-0.3,2.2l-5.3,1.2c-0.3-1.9-0.3-3.6,0-5
					c0.3-1.4,0.8-2.7,1.5-3.7c0.7-1.1,1.4-1.9,2.3-2.7c0.9-0.7,1.7-1.3,2.6-1.7c0.9-0.4,1.6-0.8,2.4-1c0.7-0.2,1.2-0.4,1.5-0.4
					l0.3-0.1C133.3,97.6,135.2,97.5,136.8,97.7z"/>
				<path class="st12" d="M137.1,82.8l2.1,9.6l-4.7,1l-2.1-9.6L137.1,82.8z"/>
				<path class="st12" d="M155,93.1l4.6,21c0.3,1.4,0.8,2.6,1.3,3.5c0.6,0.9,1.2,1.6,1.9,2.1c0.7,0.5,1.4,0.9,2.2,1
					c0.7,0.2,1.4,0.3,2.1,0.3c0.6,0,1.2,0,1.7-0.1c0.5-0.1,0.8-0.1,0.9-0.1c1.3-0.3,2.4-0.7,3.2-1.3c0.8-0.6,1.5-1.3,1.9-2
					c0.5-0.7,0.8-1.5,0.9-2.3c0.2-0.8,0.3-1.5,0.3-2.2c0-0.7,0-1.2-0.1-1.7c-0.1-0.5-0.1-0.7-0.1-0.8l-4.6-21l5-1.1l7.4,33.8l-5,1.1
					l-1-4.7c0.1,0.6,0.1,1.2-0.1,1.8c-0.1,0.5-0.4,1-0.7,1.4c-0.3,0.4-0.7,0.8-1.1,1.2s-0.8,0.7-1.3,0.9c-1.1,0.7-2.3,1.2-3.7,1.6
					l-1.2,0.3c-1.9,0.4-3.6,0.5-5,0.3c-1.5-0.2-2.7-0.7-3.8-1.3c-1.1-0.6-2-1.4-2.7-2.3c-0.7-0.9-1.3-1.8-1.8-2.7
					c-0.5-0.9-0.8-1.7-1.1-2.5c-0.2-0.8-0.4-1.3-0.5-1.7l-0.1-0.4l-4.6-21L155,93.1z"/>
				<path class="st12" d="M195.4,119.6l-5.1,1.1L182.9,87l5.1-1.1L195.4,119.6z"/>
				<path class="st12" d="M201.8,118.2l-5.7-25.9c0.4-1.4,0.9-2.7,1.5-3.8c0.6-1.1,1.3-2,2-2.8c0.7-0.8,1.5-1.4,2.3-2
					c0.8-0.5,1.5-1,2.2-1.3c0.7-0.3,1.3-0.6,1.8-0.7c0.5-0.2,0.9-0.3,1.2-0.3l0.3-0.1c1.6-0.3,3.1-0.4,4.5-0.3
					c1.3,0.1,2.5,0.3,3.6,0.7c1.1,0.4,2,0.9,2.8,1.4c0.8,0.6,1.5,1.2,2.1,1.9c0.6,0.7,1.1,1.4,1.5,2.1c0.4,0.7,0.7,1.4,1,1.9
					c0.3,0.6,0.4,1.1,0.6,1.5c0.1,0.4,0.2,0.7,0.2,0.8l4.6,20.9l-5,1.1l-4.6-20.9c-0.3-1.3-0.7-2.4-1.3-3.3c-0.6-0.8-1.2-1.5-1.9-2
					c-0.7-0.5-1.4-0.8-2.2-1c-0.8-0.2-1.4-0.3-2.1-0.3c-0.6,0-1.2,0-1.6,0.1c-0.5,0.1-0.7,0.1-0.9,0.2c-1,0.2-1.9,0.5-2.6,0.9
					c-0.7,0.4-1.3,0.9-1.8,1.4c-0.5,0.5-0.9,1-1.2,1.6c-0.3,0.6-0.5,1.1-0.6,1.7c-0.3,1.3-0.4,2.7-0.1,4.2l4.6,20.9L201.8,118.2z"/>
				<path class="st12" d="M253.4,71.5l4.6,21l0.1,0.4c0.1,0.4,0.2,1,0.3,1.8c0.1,0.8,0.1,1.7,0.1,2.7c-0.1,1-0.2,2.1-0.5,3.2
					c-0.3,1.1-0.8,2.2-1.5,3.2c-0.7,1-1.7,1.9-2.9,2.8c-1.2,0.8-2.8,1.4-4.7,1.9l-1.2,0.3c-1.4,0.2-2.8,0.2-4,0.1
					c-0.5-0.1-1-0.2-1.6-0.3s-1-0.4-1.5-0.6c-0.5-0.3-0.9-0.6-1.2-1c-0.4-0.4-0.6-0.9-0.8-1.6l1,4.7l-5,1.1l-7.4-33.8l5-1.1l4.6,21
					c0,0.1,0.1,0.4,0.2,0.8c0.1,0.5,0.3,1,0.6,1.6c0.3,0.6,0.7,1.2,1.2,1.9c0.5,0.6,1.1,1.2,1.8,1.7c0.7,0.5,1.6,0.8,2.6,1
					s2.1,0.2,3.4-0.1c0.1,0,0.4-0.1,0.9-0.2s1-0.3,1.5-0.6c0.6-0.3,1.2-0.7,1.8-1.2c0.6-0.5,1.1-1.1,1.5-1.9
					c0.4-0.8,0.7-1.7,0.9-2.7c0.2-1.1,0.1-2.3-0.2-3.7l-4.6-21L253.4,71.5z"/>
				<path class="st12" d="M267.1,103.9L261.4,78c0.4-1.4,0.9-2.7,1.5-3.8c0.6-1.1,1.3-2,2-2.8s1.5-1.4,2.3-2c0.8-0.5,1.5-1,2.2-1.3
					c0.7-0.3,1.3-0.6,1.8-0.7c0.5-0.2,0.9-0.3,1.2-0.3l0.3-0.1c1.6-0.3,3.1-0.4,4.5-0.3s2.5,0.3,3.6,0.7s2,0.9,2.8,1.4
					c0.8,0.6,1.5,1.2,2.1,1.9c0.6,0.7,1.1,1.4,1.5,2.1c0.4,0.7,0.7,1.4,1,1.9c0.3,0.6,0.4,1.1,0.5,1.5c0.1,0.4,0.2,0.7,0.2,0.8
					l4.6,20.9l-5,1.1l-4.6-20.9c-0.3-1.3-0.7-2.4-1.3-3.3c-0.6-0.8-1.2-1.5-1.9-2c-0.7-0.5-1.4-0.8-2.2-1c-0.8-0.2-1.4-0.3-2.1-0.3
					c-0.6,0-1.2,0-1.6,0.1c-0.5,0.1-0.7,0.1-0.9,0.2c-1,0.2-1.9,0.5-2.6,0.9c-0.7,0.4-1.3,0.9-1.8,1.4c-0.5,0.5-0.9,1-1.2,1.6
					c-0.3,0.6-0.5,1.1-0.6,1.7c-0.3,1.3-0.4,2.7-0.1,4.2l4.6,20.9L267.1,103.9z"/>
				<path class="st12" d="M273.5,55.3l0.6,2.5l12.7-2.8l1,4.7L272.6,63c-0.5,0.1-1,0.1-1.3-0.1c-0.3-0.2-0.6-0.4-0.8-0.6
					c-0.2-0.3-0.4-0.7-0.6-1.1l-1.1-5L273.5,55.3z"/>
				<path class="st12" d="M297.6,61.8l4.6,21c0.3,1.4,0.8,2.6,1.3,3.5c0.6,0.9,1.2,1.6,1.9,2.1c0.7,0.5,1.4,0.9,2.2,1
					c0.7,0.2,1.4,0.3,2.1,0.3c0.6,0,1.2,0,1.7-0.1c0.5-0.1,0.7-0.1,0.9-0.1c1.3-0.3,2.4-0.7,3.2-1.3c0.8-0.6,1.5-1.3,1.9-2
					c0.5-0.7,0.8-1.5,0.9-2.3c0.2-0.8,0.3-1.5,0.3-2.2c0-0.7,0-1.2-0.1-1.7c-0.1-0.5-0.1-0.7-0.1-0.8l-4.6-21l5-1.1l7.4,33.8l-5,1.1
					l-1-4.7c0.1,0.6,0.1,1.2-0.1,1.8c-0.1,0.5-0.4,1-0.7,1.4c-0.3,0.4-0.7,0.8-1.1,1.2c-0.4,0.4-0.8,0.7-1.3,0.9
					c-1.1,0.7-2.3,1.2-3.7,1.6l-1.2,0.3c-1.9,0.4-3.6,0.5-5,0.3c-1.5-0.2-2.7-0.7-3.8-1.3c-1.1-0.6-2-1.4-2.7-2.3
					c-0.7-0.9-1.3-1.8-1.8-2.7c-0.5-0.9-0.8-1.7-1.1-2.5c-0.2-0.8-0.4-1.3-0.5-1.7l-0.1-0.4l-4.6-21L297.6,61.8z"/>
			</g>
		</g>
	</g>
	<g id="Layer_5" class="st0">
		<g class="st13">
			
				<text transform="matrix(0.9993 -3.730000e-02 3.730000e-02 0.9993 -767.4651 104.4008)" class="st12 st24" style="font-size:95.7016px;">มาเล่นเกมกัน</text>
		</g>
		<path class="st14" d="M-603.7-74h53.6c0,0-4.3,522.2,7.2,533.1h-77.5L-603.7-74z"/>
		<path class="st15" d="M-620.3,459.1l14.7,11.7h76.3l-13.5-541.1l-7.2-3.7c0,0-5.2,519.8,7.2,533.1L-620.3,459.1L-620.3,459.1z"/>
		<polygon class="st16" points="-802.3,186.4 -802.3,-54.8 -340.4,-54.8 -332.8,173 		"/>
		<polygon class="st17" points="-802.3,-54.8 -340.5,-55.1 -338.9,-10.2 -355,-10.2 -338.6,-0.9 -337.7,25.7 -370.2,21.7 
			-337.4,32.9 -335,107.3 -347.7,111.5 -332.5,116.6 -332.5,124.6 -364.4,128.2 -332.5,132.5 -332.5,173.8 -802.3,186.4 
			-802.6,173.8 -793.2,168 -806.2,161.5 -806.2,99.9 -785.9,99.2 -801.9,89.1 -801.9,47 -769.3,41.3 -802.3,36.5 -802.6,-16 
			-775.1,-18.1 -803.3,-29 		"/>
		<polygon class="st18" points="-802.3,186.4 -332.8,173 -320.1,186.4 -788.7,197.2 		"/>
		<polygon class="st18" points="-340.4,-54.8 -329.1,-44.7 -320.1,186.4 -332.8,173 		"/>
	</g>
	<g id="Layer_6">
		<g id="Layer_2_1_">
			<g>
				<path class="st19" d="M5.9,382.1c0,0-15.3,26.3,3.3,31.7c18.6,5.5,213.9,14.7,399.8,0c8.1-0.7,24.1-10.9,7.7-31.7
					c-3.7-4.7-65.3-5.8-139.7-5.3c-5,0-10,0.1-15.1,0.1c-5,0.7-10.2-0.3-15.3,0.2c-5.1,0.2-10.3-0.8-15.5,0.2
					c-5.2-0.1-10.3,0.2-15.6,0.2C111.4,379,5.9,382.1,5.9,382.1z"/>
				<path class="st20" d="M423.2,403.3c0,0,5.9-23-13.2-28.5c-19.1-5.5-194.7-20.8-389.7-3.3C12,372.3,0.4,378-0.6,402.2
					c-0.2,4.1,113.9,7.4,223.8,6.7C325,408.1,423.2,403.3,423.2,403.3z"/>
				<path class="st21" d="M423.2,386.9c0,0,2.7-14.4-16.4-19.8s-177.6-7.4-372.4-3.3C26,364,8,362.3,3.8,382.6
					c-0.5,2.3,2.1,8.4,18,9.6c2.7,0.2,12-7,15-3.8c3-1.5,6.2-5.9,9.5,0.5c3.3-8.9,6.8-3.8,10.4,0.4c3.7,8.4,7.4-7.2,11.4,0.3
					c3.9-5.1,8,3.7,12.1,0.3c4.2,5.8,8.5,0.2,12.8,0.3c7.7,0.1,15.7,4.5,24,4.6c4.1,0,8.4-4.3,12.6-4.3c4.3-0.5,8.6-3.2,12.9,0.1
					c4.4-3.2,8.8,2.3,13.3,0c4.4-2.1,8.9-1.8,13.4,0c4.5-2.2,9.1-3,13.6,0c4.5-1,9.2-1.6,13.8-0.1c4.6,0,9.2-0.1,13.8-0.1
					c2.9,0,5.7-0.1,8.6-0.1c2.9-1.7,5.7-1.3,8.6-0.1c2.9,0.2,5.7,2.6,8.6-0.1c2.9,1.5,5.7-1.4,8.6-0.1c2.8-0.4,5.7,0.7,8.6-0.1
					c2.8,2.4,5.6,5.2,8.5,4.2c2.8,0,5.6-4.4,8.4-4.4c4.9-0.1,9.8-0.2,14.5-0.2c4.8,1.2,9.5,2.1,14.1-0.3c4.6-2.7,9.2,10,13.8-0.3
					c4.5,6.2,8.9,7.2,13.3-0.3c4.4-4.5,8.6-4.3,12.7-0.3c4.1,1.6,8.2-2.8,12.1-0.3c3.9-1,7.7,1.5,11.5-0.3c1.9-1.4,3.7-1.3,5.5-0.9
					c1.8,0.3,3.5,0.9,5.2,0.7c1.7,0.8,3.4,1.7,5-0.1c1.6-2.1,3.3-3.3,4.8-0.1c5-1.3,9.7,3,13.9,2.9c4.2-0.2,8-5.9,11.3-3.5
					c3.3-0.4,6.1-3.3,8.4-0.2c2.3-0.1,4-0.1,5.2-0.2C422.5,387,423.2,386.9,423.2,386.9z"/>
				<path class="st22" d="M15.5,366.5c0,0,2.6,7.8,13.8,8.5c17.8,1.1,184.7,4.6,366.4,0.7c7.8-0.2,14.4-1.6,15.2-7.1
					c0.2-0.9-107.4-1.5-209.7-1.3C106.2,367.5,15.5,366.5,15.5,366.5z"/>
				<path class="st23" d="M110.3,327.2c-51,0-63.8,23.7-94.8,39.3l233.1,1.5C224.2,356.3,161.2,327.2,110.3,327.2z"/>
				<path class="st23" d="M282.2,315.1c-68.1,0-93.8,31.6-135.1,52.4l263.8,1.1C380.5,355,350.3,315.1,282.2,315.1z"/>
			</g>
		</g>
	</g>
</g>
<g id="Layer_2_2_" class="st0">
	<g id="Layer_4_1_" class="st13">
		<g>
			<text transform="matrix(0.9767 -0.2144 0.2144 0.9767 61.1211 255.537)" class="st12 st24 st25">มาเล่นเกมกัน</text>
		</g>
	</g>
</g>
</svg>
