<?xml version="1.0" encoding="utf-8"?>
<!-- Generator: Adobe Illustrator 19.2.1, SVG Export Plug-In . SVG Version: 6.00 Build 0)  -->
<svg version="1.1" id="Layer_1" xmlns="http://www.w3.org/2000/svg" xmlns:xlink="http://www.w3.org/1999/xlink" x="0px" y="0px"
	 viewBox="0 0 686 685.9" style="enable-background:new 0 0 686 685.9;" xml:space="preserve">
<style type="text/css">
	.st0{fill:#FFF5AB;}
	.st1{fill:#D8CD95;}
	.st2{fill:#EDE2A2;}
	.st3{opacity:0.3;fill:#C9C8AD;enable-background:new    ;}
</style>
<title>MOON(edit)</title>
<g>
	<g id="Layer_1_1_">
		<g id="ความกลม">
			
				<image style="overflow:visible;opacity:0.61;enable-background:new    ;" width="2863" height="2863" xlink:href="5CAC96EEF33F3638.png"  transform="matrix(0.2396 0 0 0.2396 -0.3395 0)">
			</image>
			<circle class="st0" cx="342.6" cy="342.9" r="162.9"/>
		</g>
		<g id="หลุม">
			<path class="st1" d="M271.7,259.1c0.8,7.5-4.5,14.3-12,15.3h-0.2c-7.6,0.3-14.1-5.6-14.4-13.3c-0.3-6.9,4.5-12.9,11.3-14.2
				c1-0.1,2.1-0.1,3.1,0C265.9,247.7,270.9,252.7,271.7,259.1z"/>
			<path class="st2" d="M271.7,259.1c0.8,7.5-4.5,14.3-12,15.3c-7.6-0.9-13-7.8-12.1-15.4c0.8-6.3,5.7-11.2,11.9-12.1
				C265.9,247.6,270.9,252.7,271.7,259.1z"/>
			<path class="st1" d="M260.7,307c1.5,13.1-7.8,24.9-20.9,26.6h-0.4c-13.2,1.7-25.3-7.6-27-20.9c-1.7-13.2,7.6-25.3,20.9-27
				c0.2,0,0.5-0.1,0.7-0.1c1.8-0.2,3.7-0.2,5.5,0C250.6,287,259.4,295.8,260.7,307z"/>
			<path class="st2" d="M260.7,307c1.5,13.1-7.8,24.9-20.9,26.6c-13.2-1.6-22.7-13.6-21.1-26.8c1.3-11,9.9-19.7,20.8-21.1
				C250.6,287,259.4,295.8,260.7,307z"/>
			<path class="st1" d="M456.7,283.2c1.3,11.7-7,22.2-18.6,23.7h-0.3c-11.8,1.3-22.4-7.2-23.8-18.9c-1.3-11.8,7.2-22.4,18.9-23.8
				c1.6-0.2,3.3-0.2,4.9,0C447.7,265.3,455.6,273.2,456.7,283.2z"/>
			<path class="st2" d="M456.7,283.2c1.3,11.7-7,22.2-18.6,23.7c-11.8-1.4-20.2-12-18.9-23.8c1.1-9.8,8.8-17.6,18.6-18.8
				C447.7,265.4,455.5,273.2,456.7,283.2z"/>
			<path class="st1" d="M473.3,316.6c0.8,7.3-4.4,14-11.7,14.9h-0.2c-7.4,0.9-14.2-4.3-15.1-11.7c-0.9-7.4,4.3-14.2,11.7-15.1
				c0.1,0,0.3,0,0.4,0c1-0.1,2.1-0.1,3.1,0C467.7,305.4,472.6,310.4,473.3,316.6z"/>
			<path class="st2" d="M473.3,316.6c0.1,6.6-5.3,12-11.9,12.1c-6.6,0.1-12-5.3-12.1-11.9s5.3-12,11.9-12.1c0.1,0,0.2,0,0.2,0
				C467.7,305.5,472.6,310.4,473.3,316.6z"/>
			<path class="st1" d="M404.7,232.9c0.9,8.2-4.9,15.6-13.1,16.7h-0.2c-8.3,1.1-15.9-4.6-17-12.9c-1.1-8.3,4.6-15.9,12.9-17
				c0.2,0,0.5-0.1,0.7-0.1c1.1-0.1,2.3-0.1,3.4,0C398.4,220.3,403.9,225.9,404.7,232.9z"/>
			<path class="st2" d="M404.7,232.9c0.9,8.2-4.9,15.6-13.1,16.7c-8.3-0.9-14.3-8.4-13.4-16.6c0.8-7,6.2-12.5,13.2-13.4
				C398.4,220.3,403.9,225.9,404.7,232.9z"/>
			<path class="st1" d="M370,224.6c0.5,4.6-2.7,8.7-7.3,9.3h-0.1c-4.6,0.6-8.9-2.6-9.5-7.2c-0.6-4.6,2.6-8.9,7.2-9.5
				c0.1,0,0.2,0,0.4,0c0.6-0.1,1.3-0.1,1.9,0C366.5,217.6,369.5,220.6,370,224.6z"/>
			<path class="st2" d="M370,224.6c0,4.1-3.3,7.5-7.4,7.5c-4.1,0-7.5-3.3-7.5-7.4c0-4.1,3.3-7.5,7.4-7.5c0,0,0.1,0,0.1,0
				C366.5,217.6,369.5,220.7,370,224.6z"/>
			<path class="st1" d="M473.3,403.8c0.9,8.2-4.9,15.6-13.1,16.7H460c-8.3,1.1-15.9-4.6-17-12.9c-1.1-8.3,4.6-15.9,12.9-17
				c0.2,0,0.5-0.1,0.7-0.1c1.1-0.1,2.3-0.1,3.4,0C467,391.2,472.5,396.8,473.3,403.8z"/>
			<path class="st2" d="M473.3,403.8c0.9,8.2-4.9,15.6-13.1,16.7c-8.3-0.9-14.3-8.4-13.4-16.6c0.8-7,6.2-12.5,13.2-13.4
				C467,391.2,472.5,396.8,473.3,403.8z"/>
			<path class="st1" d="M437.4,375.3c0.5,4.3-2.6,8.2-6.8,8.7h-0.1c-4.3,0.5-8.2-2.7-8.7-7c-0.5-4.3,2.6-8.1,6.9-8.7
				c0.6-0.1,1.2-0.1,1.8,0C434.1,368.7,437,371.6,437.4,375.3z"/>
			<path class="st2" d="M437.4,375.3c0,3.9-3.1,7-7,7c-3.9,0-7-3.1-7-7c0-3.9,3.1-7,7-7c0,0,0,0,0.1,0
				C434.1,368.7,437,371.6,437.4,375.3z"/>
			<path class="st1" d="M245.6,419.6c0.5,4.8-2.9,9.2-7.8,9.9h-0.1c-4.9,0.6-9.3-3-9.9-7.9c-0.6-4.9,3-9.3,7.9-9.9
				c0.7-0.1,1.3-0.1,2,0C241.8,412.1,245.1,415.4,245.6,419.6z"/>
			<path class="st2" d="M245.6,419.6c0.5,4.8-2.9,9.2-7.8,9.9c-4.9-0.6-8.4-5-7.9-9.9c0.5-4.1,3.7-7.3,7.8-7.8
				C241.9,412.2,245.1,415.4,245.6,419.6z"/>
			<path class="st1" d="M285.1,289.5c0.5,4.3-2.6,8.2-6.8,8.7h-0.1c-4.3,0.4-8.2-2.8-8.6-7.2c-0.4-4.2,2.6-7.9,6.7-8.5
				c0.6-0.1,1.2-0.1,1.8,0C281.8,283,284.7,285.9,285.1,289.5z"/>
			<path class="st2" d="M285.1,289.5c0.5,4.3-2.6,8.2-6.8,8.7c-4.3-0.5-7.4-4.4-6.9-8.8c0.4-3.6,3.2-6.4,6.8-6.9
				C281.8,283,284.7,285.9,285.1,289.5z"/>
			<path class="st1" d="M311,237.9c0.2,2.1-1.2,4-3.3,4.2h0c-2.1,0.3-4-1.2-4.3-3.3s1.2-4,3.3-4.3c0,0,0.1,0,0.1,0
				c0.3,0,0.6,0,0.9,0C309.4,234.8,310.8,236.2,311,237.9z"/>
			<path class="st2" d="M311,237.9c0,1.9-1.5,3.4-3.4,3.4c-1.9,0-3.4-1.5-3.4-3.4c0-1.9,1.5-3.4,3.4-3.4c0,0,0,0,0,0
				C309.4,234.8,310.8,236.2,311,237.9z"/>
			<path class="st1" d="M340.5,366.5c1,8.9-5.3,16.9-14.2,18h-0.2c-8.9,1.5-17.3-4.5-18.8-13.5c-1.5-8.9,4.5-17.3,13.5-18.8
				c0.6-0.1,1.1-0.2,1.7-0.2c1.2-0.1,2.5-0.1,3.7,0C333.7,353,339.7,359,340.5,366.5z"/>
			<path class="st2" d="M340.5,366.5c1,8.9-5.3,16.9-14.2,18c-9-1-15.4-9.1-14.4-18.1c0.9-7.5,6.7-13.4,14.2-14.3
				C333.7,353,339.7,359,340.5,366.5z"/>
			<path class="st1" d="M382.2,461.7c1.1,9.5-5.7,18.1-15.2,19.3h-0.3c-9.6,0.9-18.2-6.2-19-15.9c-0.8-9.3,5.8-17.7,15.1-18.9
				c1.3-0.2,2.7-0.2,4,0C374.9,447.2,381.3,453.6,382.2,461.7z"/>
			<path class="st2" d="M382.2,461.7c1.1,9.5-5.7,18.1-15.2,19.3c-9.6-1.1-16.5-9.9-15.3-19.5c0.9-8,7.2-14.3,15.1-15.3
				C374.9,447.2,381.2,453.6,382.2,461.7z"/>
			<path class="st1" d="M370.2,297.8c0.3,2.3-1.4,4.4-3.7,4.7h-0.1c-2.3,0.3-4.4-1.4-4.7-3.7s1.4-4.4,3.7-4.7l0,0c0.3,0,0.7,0,1,0
				C368.4,294.2,370,295.8,370.2,297.8z"/>
			<path class="st2" d="M370.2,297.8c0,2.1-1.7,3.8-3.7,3.8c-2.1,0-3.8-1.7-3.8-3.7c0-2.1,1.7-3.8,3.7-3.8c0,0,0,0,0,0
				C368.4,294.3,370,295.8,370.2,297.8z"/>
			<path class="st1" d="M265.3,463.7c0.2,1.4-0.8,2.6-2.2,2.8l0,0c-1.4,0.1-2.6-1-2.7-2.4c-0.1-1.3,0.8-2.4,2.1-2.7
				c0.2,0,0.4,0,0.6,0C264.3,461.6,265.2,462.5,265.3,463.7z"/>
			<path class="st2" d="M265.3,463.7c0,1.2-1,2.3-2.2,2.3c-1.2,0-2.3-1-2.3-2.2c0-1.2,1-2.3,2.2-2.3c0,0,0,0,0,0
				C264.2,461.6,265.2,462.5,265.3,463.7z"/>
			<path class="st1" d="M451,431.3c0.5,4.3-2.6,8.2-6.8,8.7h-0.1c-4.3,0.3-8.1-2.9-8.5-7.2c-0.3-4.1,2.6-7.8,6.7-8.4
				c0.6-0.1,1.2-0.1,1.8,0C447.8,424.7,450.6,427.6,451,431.3z"/>
			<path class="st2" d="M451,431.3c0,3.9-3.1,7-7,7c-3.9,0-7-3.1-7-7c0-3.9,3.1-7,7-7c0,0,0,0,0.1,0
				C447.8,424.7,450.6,427.6,451,431.3z"/>
			<path class="st1" d="M488.7,362c0.3,2.3-1.4,4.4-3.7,4.7H485c-2.3,0.3-4.4-1.4-4.7-3.7s1.4-4.4,3.7-4.7c0.3,0,0.7,0,1,0
				C486.9,358.5,488.5,360,488.7,362z"/>
			<path class="st2" d="M488.7,362c0,2.1-1.7,3.8-3.7,3.8c-2.1,0-3.8-1.7-3.8-3.7c0-2.1,1.7-3.8,3.7-3.8c0,0,0,0,0,0
				C486.9,358.5,488.5,360,488.7,362z"/>
			<path id="เงาจัน" class="st3" d="M442.7,214.3c0,0,85,61.8,58.3,166.9c0,0-21.6,108.2-139.7,123.6
				c0,0-28.9,5.8-71.7-7.4c0,0,81.3,25.4,143-53.9C432.6,443.5,524.3,325.4,442.7,214.3z"/>
		</g>
	</g>
</g>
</svg>
