<?xml version="1.0" encoding="utf-8"?>
<!-- Generator: Adobe Illustrator 16.0.0, SVG Export Plug-In . SVG Version: 6.00 Build 0)  -->
<!DOCTYPE svg PUBLIC "-//W3C//DTD SVG 1.1//EN" "http://www.w3.org/Graphics/SVG/1.1/DTD/svg11.dtd">
<svg version="1.1" id="Layer_1" xmlns="http://www.w3.org/2000/svg" xmlns:xlink="http://www.w3.org/1999/xlink" x="0px" y="0px"
	 width="755.205px" height="182.668px" viewBox="0 0 755.205 182.668" enable-background="new 0 0 755.205 182.668"
	 xml:space="preserve">
<path fill="#37434C" d="M0,185.269c0,0,31.393,3.69,196.55-129.171c0,0-0.682,0.738,12.284,9.595l11.602-0.738
	c0,0,111.925,104.813,150.825,120.314H0z"/>
<path fill="#55626B" d="M176.076,185.269c0,0,172.664-121.052,195.185-147.624h13.649L423.811,0l19.791,14.763l10.92-2.953
	c0,0,101.687,124.005,292.777,173.459H176.076z"/>
<polygon fill="#3A4951" points="443.602,14.763 443.602,52.675 454.521,11.811 "/>
<polygon fill="#21272B" points="208.834,65.693 220.436,64.955 214.635,100.613 "/>
<polygon fill="#3A4951" points="371.261,37.645 366.903,82.785 384.91,37.645 423.811,0 350.297,118.841 350.297,78.104 
	300.008,95.73 "/>
<polygon fill="#21272B" points="196.55,56.098 145.178,128.832 155.687,100.614 115.954,118.177 "/>
</svg>
