<?xml version="1.0" encoding="utf-8"?>
<!-- Generator: Adobe Illustrator 19.2.0, SVG Export Plug-In . SVG Version: 6.00 Build 0)  -->
<svg version="1.1" id="Layer_10" xmlns="http://www.w3.org/2000/svg" xmlns:xlink="http://www.w3.org/1999/xlink" x="0px" y="0px"
	 viewBox="0 0 144.5 49.5" style="enable-background:new 0 0 144.5 49.5;" xml:space="preserve">
<style type="text/css">
	.st0{fill:#FFBC50;}
	.st1{fill:#E29524;}
	.st2{fill:#AA7B43;}
	.st3{fill:#FCAC38;}
	.st4{fill:#CC8C37;}
	.st5{fill:#F7A937;}
	.st6{fill:url(#SVGID_1_);}
	.st7{fill:none;}
	.st8{fill:url(#SVGID_2_);}
</style>
<g>
	<path class="st0" d="M140.5,2.7c-1,1.4-2.8,1.6-3.3,3.2c-0.6,1.8-0.5,3.6-0.3,5.5c0.1,1.2,0.7,2.2,1,3.3c0.8,3.2,0.3,6.9,0.3,10.2
		c0,2.5-0.7,5,0.2,7.4c0.5,1.3,0.3,2.5,0.7,3.7c0.4,1.5,1,2.9,1.3,4.3c0.2,1.1,1.8,3.4,1.2,4.5c-0.6,1.1-4.1,1-5.5,1.1
		c-2,0.1-3.9,0.5-6,0.3c-5-0.3-9.5-2-14.4-2.7c-1.4-0.2-3-0.9-4.4-0.5c-0.8,0.2,1.2-6.5,0.8-5.6c-0.2,0.4-2.8,5.4-3.4,5.4
		c-5.6-0.4-11.2-0.3-16.7-0.3c-5.3,0-10.7,0.2-16,0.8c-1.5,0.2-3,0.5-4.5,0.5c-5.1,0.2-10.3-0.2-15.5-0.1c-1.1,0-2.2,0.1-3.2,0.1
		c-0.1,0,0.4-1,0.2-1.3c-0.1-0.2-0.9,0.2-1-0.1c-0.3-0.7-0.7-1.4-0.8-1.4c-0.4,0,0,2.9-0.4,3c-2.9,0.3-5.8,0.9-8.8,1.7
		c-4.3,1.1-7.8,3.1-12.5,3.5c-4.2,0.4-8.8,0-12.1-2.1c-5.3-3.2-4.7-9.4-5.8-13.9C10.2,26.7,9.2,19.9,7,13.2
		c-0.4-1.1-1.6-2.3-1.7-3.5C5.1,8.1,5,8.6,7,8c3-0.9,6.5-1.8,9.7-2.4c7.5-1.3,15.1-1.2,22.7-1c0.9,0,5.5,5.2,5.3,4.6
		c-0.5-1.3-1.5-4.5-1-4.5c4.5,0,8.9,0,13.3-0.5C63.5,3.5,70,3.7,76.5,3.5c3.7-0.1,7.3-0.4,10.9-0.5c0.4,0,0.1,2.9,0.5,2.9
		c0.4,0,1.6-2.8,1.7-3C90,2.1,90.3,4.6,91,4.6c0.2,0,1.3-1.8,1.5-1.8c10.5,0,21,0.8,31.4,1.2c3.4,0.1,6.8,0.9,10.2,1
		c2.4,0.1,4.4-1,6.2-2.1"/>
</g>
<g>
	<path class="st1" d="M4.9,5.5c0.5-0.2,1-0.4,1.5-0.7c0.3-0.2,0.9-0.7,1.3-0.7c1,0.1,1.5,1.6,1.8,2.4c0.4,1.2,1,2.7,0.4,4
		c-0.7,1.7-2.7,2.2-4.4,2C3.7,12.2,2,10.7,1.4,9C1.1,8.3,0.9,7,1.5,6.4c0.3-0.3,0.9-0.2,1.3-0.3C3.5,6,4.2,5.8,4.9,5.5z"/>
	<g>
		<path class="st2" d="M4.9,5.6c0.6-0.2,1.3-0.5,1.8-0.9C8,3.9,8.5,5.2,8.8,6.1c0.8,2.1,1.5,5-1.3,5.9C5.3,12.8,3,11.2,2,9.2
			c-0.6-1-0.6-2.5,0.8-2.8C3.6,6.3,4.3,6,4.9,5.6c0.2,0,0.1-0.2,0-0.2C2.6,5.7-0.2,5.8,0.8,8.9c0.9,2.9,3.9,4.5,6.8,3.9
			c3.2-0.7,3-3.9,2.1-6.4C9.5,5.6,9,4.2,8.1,4C6.9,3.7,5.8,5,4.8,5.5C4.7,5.5,4.8,5.6,4.9,5.6z"/>
	</g>
</g>
<path class="st3" d="M132.1,14c0,0-6,0.4-6.5,0.6c-0.5,0.2,3.6,0.4,3.6,0.3s-0.8,0.5-0.8,0.5s2.1,0.4,2.3,1
	C131,17.1,132.1,14,132.1,14z"/>
<g>
	<g>
		<path class="st2" d="M134.6,13.7c-1.1-0.3-2.1-0.4-3.2-0.4c-1.3,0-2.3,0.4-3.5,0.8c-0.1,0,0,0.2,0.1,0.2c1.1,0,2.1,0.1,3.2,0
			C132.3,14.1,133.5,14,134.6,13.7C134.7,13.8,134.6,13.7,134.6,13.7L134.6,13.7z"/>
	</g>
</g>
<g>
	<g>
		<path class="st2" d="M131.6,14.9c-0.6,0-1.1-0.2-1.7-0.1c-0.5,0.1-1,0.4-1.5,0.6c0,0,0,0.1,0,0.1c0.5-0.1,1.1-0.1,1.6-0.2
			C130.6,15.2,131.1,15,131.6,14.9C131.6,15,131.6,14.9,131.6,14.9L131.6,14.9z"/>
	</g>
</g>
<path class="st3" d="M18.1,17.6c0,0,8,1.4,8.5,1c0.6-0.4-2.8,2-3.3,2.1c-0.5,0.2-1.7,2.9-3.1,2.9C18.9,23.6,18.1,17.6,18.1,17.6z"/>
<g>
	<g>
		<path class="st2" d="M17.7,17.4c1.5,0.6,3.3,0.9,5,1.1c1.5,0.2,3.3,0.5,4.8,0.3c0.1,0,0.2-0.2,0.1-0.2
			C24.3,18.1,20.9,18.4,17.7,17.4C17.7,17.3,17.7,17.4,17.7,17.4L17.7,17.4z"/>
	</g>
</g>
<g>
	<path class="st4" d="M22.9,20.6c-0.7,0.5-1.9-0.1-2.6-0.4"/>
	<g>
		<path class="st2" d="M22.9,20.6c-0.9,0.5-1.7-0.3-2.6-0.5c0,0-0.2,0.1-0.1,0.1c0.4,0.3,1,0.5,1.5,0.6
			C22.1,20.9,22.5,20.9,22.9,20.6C22.9,20.6,22.9,20.6,22.9,20.6L22.9,20.6z"/>
	</g>
</g>
<g>
	<path class="st5" d="M142.4,47.3c0.6-0.1,1.7-0.3,1.8-1c0.2-0.8-0.7-1.8-0.9-2.5c-0.4-1.1-0.5-2.2-0.6-3.3c-0.1-2-0.4-4-0.2-6
		c0.1-1.9,0.4-4.1,0-6c-0.2-0.7-0.4-1.3-0.5-2c-0.1-1-0.2-1.9-0.2-2.9c-0.1-1.2,0-2.4-0.1-3.6c-0.1-1.7-0.3-3.4-0.2-5.1
		c0.1-1.5-0.2-3.1,0.2-4.6c0.4-1.8,1-3.5,1.7-5.2c0.3-0.9,1-2.1,1.1-3.1c0-0.8-0.5-2.1-1.3-2.2c-1.1-0.1-2.5,0.3-3.6,0.6
		c-1.3,0.3-2.6,0.7-3.8,1.2c-0.9,0.4-2.1,1.3-3,1.4c-0.9,0.1-1.8-0.7-2.7-0.6c1.1,1,0.9,3.2,0.8,4.5c-0.1,2.2-0.2,4.4-0.4,6.7
		c-0.5,5.3-0.8,10.6-1,15.9c-0.1,2.7-0.1,5.3-0.2,8c0,1.2,0.1,2.4,0.1,3.6c0,0.9-0.2,2.4,0.2,3.2c0.3,0.6,1.1,0.7,1.7,0.9
		c1.1,0.4,2.2,0.9,3.4,1.1c1.3,0.2,2.7,0.2,3.9,0.5C139.9,47.4,141.1,47.5,142.4,47.3z"/>
</g>
<g>
	<path class="st5" d="M5.6,2.4c1-0.4,2-0.5,3-0.6c0.7-0.1,0.7,5.6,2.2-0.1c3.3-0.6,2.4-0.2,3.6-0.5C16,0.8,16,2.8,16.3,3.8
		c0.4,1.4,0.7,2.8,0.9,4.2c0.3,1.8,0.6,3.5,1,5.3c0.4,1.7,0.9,3.2,1.3,4.9c0.2,0.9,0.2,1.9,0.5,2.8c0.4,1.4,1.1,2.7,1.5,4.2
		c0.4,1.5,0.7,3.1,1.4,4.5c0.6,1.3,1.3,2.5,1.8,3.9c0.4,1,1,1.9,1.4,2.8c0.6,1.4,1.3,2.7,1.8,4.1c0.4,1.1,1.5,2.3,1.6,3.5
		c0.1,1.1-0.8,1.9-1.6,2.4c-1.9,1.3-3.9,2.3-6.2,2.6c-0.8,0.1-1.7,0.3-2.6,0.2c-1.2-0.1-2.4-0.6-3.5-1.1c-1.1-0.5-3.2-1.2-3.7-2.4
		c-0.3-0.7-0.2-1.6-0.3-2.3c-0.2-1.6-0.2-3.1-0.6-4.6c-0.5-2.3-1.5-4.4-2.3-6.6c-1.2-3.2-1.9-6.5-2.9-9.8c-0.6-1.8-1.3-3.6-1.9-5.4
		C3.3,15.8,3,14.4,2.5,13c-0.2-0.6-0.3-1.2-0.5-1.7C1.4,9.7,1.1,8.1,0.4,6.6C0.1,6-0.3,5.5,0.3,5C1,4.5,2.1,4.1,2.9,3.7
		C3.1,3.6,1.6,5.6,3,6.2C5.2,7,6.8,9.4,7,9.3C7.5,9,5.1,2.6,5.6,2.4z"/>
</g>
<g>
	<g>
		<path class="st2" d="M11.7,21.3c1.1,2.2,4.7,0.9,5.7-0.8c0-0.1,0-0.1-0.1-0.1c-0.8,0.7-1.7,1.2-2.8,1.3
			C13.5,21.9,12.7,21.5,11.7,21.3C11.7,21.2,11.7,21.2,11.7,21.3L11.7,21.3z"/>
	</g>
</g>
<g>
	<g>
		<path class="st2" d="M17.8,23.4c-1.7-0.5-3.3,0.8-4.6,1.6c-0.1,0.1,0.1,0.2,0.1,0.1c1.6-0.4,2.7-1.7,4.5-1.5
			C17.9,23.7,17.9,23.5,17.8,23.4L17.8,23.4z"/>
	</g>
</g>
<g>
	
		<linearGradient id="SVGID_1_" gradientUnits="userSpaceOnUse" x1="19.3462" y1="69.2414" x2="22.1991" y2="55.0645" gradientTransform="matrix(1 0 0 -1 0 110.5808)">
		<stop  offset="0" style="stop-color:#C49145"/>
		<stop  offset="2.500000e-003" style="stop-color:#C49145"/>
		<stop  offset="0.147" style="stop-color:#D59332"/>
		<stop  offset="0.2984" style="stop-color:#DF9528"/>
		<stop  offset="0.4677" style="stop-color:#E29524"/>
		<stop  offset="0.6576" style="stop-color:#DB942B"/>
		<stop  offset="0.9425" style="stop-color:#C99240"/>
		<stop  offset="1" style="stop-color:#C49145"/>
	</linearGradient>
	<path class="st6" d="M26,43.2c0.6,0.5,2.4,2.1,2.1,3c-0.2,0.5-1.4,1-1.9,1.2c-0.7,0.3-1.5,0.6-2.2,0.9c-1.6,0.6-3.4,1-5.1,0.8
		c-1.7-0.2-3.2-0.8-4.7-1.6c-0.4-0.2-1.6-0.5-1.7-1.1c-0.1-0.4,0.6-0.9,0.9-1.1c0.8-0.6,1.7-1.1,2.6-1.5c2.1-0.9,4.5-1.7,6.8-1.7
		C23.9,42.2,25.1,42.4,26,43.2z"/>
</g>
<g>
	<path class="st7" d="M18.8,42.8c1,0.8,2.1,0.4,3.2,0.5c0.5,0,1.7,0.7,1.4,1.4c-0.2,0.4-0.6,0.5-1,0.6c-0.4,0.1-0.7,0-1.1-0.1"/>
</g>
<g>
	<g>
		<path class="st2" d="M134,18.3c0.9-0.1,1.8,0.2,2.6,0c0,0,0.1-0.1,0-0.1c-0.4-0.1-0.8-0.1-1.3-0.1C134.9,18.2,134.4,18.2,134,18.3
			C133.9,18.3,133.9,18.3,134,18.3L134,18.3z"/>
	</g>
</g>
<g>
	<g>
		<path class="st2" d="M139.8,18.8c-1.1-0.5-2.3,0.1-3.3,0.5c-1.2,0.4-2.9,0.9-3.8,1.8c0,0,0,0.1,0,0.1c1.2-0.3,2.3-1,3.5-1.4
			C137.4,19.3,138.6,19.4,139.8,18.8C139.8,18.9,139.8,18.8,139.8,18.8L139.8,18.8z"/>
	</g>
</g>
<g>
	
		<linearGradient id="SVGID_2_" gradientUnits="userSpaceOnUse" x1="136.8518" y1="72.2035" x2="136.6718" y2="57.9845" gradientTransform="matrix(1 0 0 -1 0 110.5808)">
		<stop  offset="0" style="stop-color:#C49145"/>
		<stop  offset="0.2696" style="stop-color:#D8942F"/>
		<stop  offset="0.4677" style="stop-color:#E29524"/>
		<stop  offset="0.4848" style="stop-color:#E29524"/>
		<stop  offset="0.4875" style="stop-color:#E29524"/>
		<stop  offset="0.6467" style="stop-color:#D19337"/>
		<stop  offset="0.8135" style="stop-color:#C79141"/>
		<stop  offset="1" style="stop-color:#C49145"/>
	</linearGradient>
	<path class="st8" d="M143.8,45.3c0.2,0.6-0.5,1.4-1,1.7c-0.6,0.4-1.5,0.3-2.2,0.3c-0.7-0.1-1.3-0.3-2-0.3c-0.5,0-0.9,0-1.4,0
		c-0.5,0-1-0.3-1.5-0.3c-0.3,0-0.6-0.1-1-0.2c-0.7-0.2-1.4-0.4-2.1-0.6c-0.6-0.2-1.2-0.4-1.8-0.7c-0.3-0.1-1.3-0.4-1.3-0.8
		c0-0.1,0.6-0.4,0.7-0.4c0.6-0.3,1.3-0.4,2-0.6c0.9-0.2,1.8-0.5,2.7-0.6c1.7-0.2,3.8-0.3,5.4,0.2c0.5,0.1,1,0.3,1.4,0.4
		c0.3,0.1,0.7,0.2,1,0.3c0.3,0.1,0.4,0.4,0.6,0.7C143.6,44.8,143.8,45.1,143.8,45.3z"/>
</g>
<g>
	<path class="st7" d="M136.2,42.8c0.4,0.1,0.8,0.6,1,1c0.1,0.3,0,0.9,0.4,1.1c0.3,0.1,0.7-0.1,1-0.2"/>
</g>
<g>
	
		<image style="overflow:visible;opacity:0.75;enable-background:new    ;" width="125" height="51" xlink:href="9C6901E6.png"  transform="matrix(1 0 0 1 14.3853 -3.7096)">
	</image>
	<g>
		<g>
			<path d="M41.2,17.8c0,0,0,0.1-0.1,0.2c-0.1,0.1-0.1,0.2-0.3,0.3c-0.1,0.1-0.2,0.3-0.4,0.4c-0.1,0.1-0.3,0.3-0.4,0.4
				c-0.1,0.1-0.3,0.2-0.4,0.3s-0.2,0.2-0.3,0.2c0.3,0.3,0.5,0.6,0.7,1c0.2,0.3,0.3,0.7,0.4,1s0.2,0.6,0.2,0.8c0,0.2,0.1,0.4,0.1,0.5
				l0,0.1l0.4,7.9l-2,0.1l-0.2-3.8c0-0.4-0.1-0.7-0.3-0.9c-0.2-0.2-0.4-0.4-0.7-0.6c-0.3-0.2-0.6-0.3-0.9-0.3
				c-0.3-0.1-0.6-0.1-0.9-0.2c-0.3,0-0.6,0-1,0c0,0-0.1,0-0.2,0c-0.1,0-0.3,0.1-0.5,0.1c-0.2,0.1-0.4,0.1-0.7,0.2
				c-0.2,0.1-0.5,0.2-0.7,0.4c-0.2,0.2-0.4,0.4-0.6,0.6s-0.3,0.6-0.3,0.9c0,0.1,0,0.1,0,0.2c0,0.1,0,0.1,0,0.2
				c0,0.3,0.1,0.5,0.3,0.7s0.3,0.3,0.6,0.5c0.2,0.1,0.5,0.2,0.8,0.3c0.3,0.1,0.6,0.1,0.8,0.1c0.3,0,0.5,0,0.7,0c0.2,0,0.4,0,0.5,0
				l0.2,0l0.1,1.8l-2.3,0.1c-0.5,0-0.9,0-1.4-0.2c-0.4-0.2-0.8-0.4-1.1-0.7c-0.3-0.3-0.6-0.7-0.8-1.1c-0.2-0.4-0.3-0.9-0.3-1.4
				c0-0.5,0.1-1,0.3-1.5c0.2-0.5,0.6-1,1.1-1.5c0.3-0.3,0.6-0.5,0.9-0.7c0.3-0.2,0.6-0.4,1-0.5s0.6-0.2,1-0.3
				c0.3-0.1,0.6-0.1,0.9-0.1c0.5,0,0.9,0,1.3,0.1c0.4,0.1,0.8,0.1,1.1,0.2c0.4,0.1,0.7,0.2,1,0.3l0-0.7c0-0.4-0.1-0.8-0.2-1.1
				c-0.1-0.3-0.3-0.6-0.4-0.8c-0.2-0.2-0.4-0.4-0.6-0.5c-0.2-0.1-0.4-0.3-0.6-0.3c-0.5-0.2-1.1-0.3-1.7-0.3c-0.6,0-1,0.1-1.4,0.4
				c-0.4,0.2-0.7,0.4-0.9,0.7c-0.2,0.3-0.4,0.6-0.5,0.9c-0.1,0.3-0.2,0.6-0.3,0.8L30,23.1c0-0.7,0.1-1.3,0.3-1.8
				c0.2-0.5,0.5-0.9,0.8-1.3c0.3-0.4,0.7-0.6,1.1-0.8c0.4-0.2,0.8-0.4,1.1-0.5s0.7-0.2,1-0.2c0.3,0,0.5-0.1,0.6-0.1l0.1,0
				c0.6,0,1.3,0,2,0.1c0.4-0.1,0.7-0.2,1-0.3c0.3-0.1,0.6-0.3,0.8-0.6s0.5-0.6,0.7-0.9l0.7,0.6c0.1,0.1,0.2,0.2,0.3,0.2
				c0.1,0.1,0.2,0.1,0.2,0.2c0.1,0.1,0.1,0.1,0.2,0.2C41.1,17.8,41.1,17.8,41.2,17.8z"/>
			<path d="M54.9,17.5l0.3,8l0,0.2c0,0.1,0,0.4,0,0.7c0,0.3-0.1,0.6-0.2,1c-0.1,0.4-0.2,0.8-0.4,1.1c-0.2,0.4-0.5,0.8-0.8,1.1
				c-0.3,0.3-0.8,0.6-1.3,0.8c-0.5,0.2-1.2,0.4-2,0.4l-0.5,0c-0.6,0-1.1-0.1-1.6-0.2c-0.2-0.1-0.4-0.1-0.6-0.2
				c-0.2-0.1-0.4-0.2-0.5-0.3c-0.2-0.1-0.3-0.3-0.4-0.5c-0.1-0.2-0.2-0.4-0.2-0.6l0.1,1.8l-2,0.1l-0.5-12.9l2-0.1l0.3,8
				c0,0,0,0.1,0,0.3c0,0.2,0.1,0.4,0.1,0.6c0.1,0.2,0.2,0.5,0.3,0.8c0.1,0.3,0.3,0.5,0.6,0.7c0.2,0.2,0.6,0.4,0.9,0.5
				c0.4,0.1,0.8,0.2,1.3,0.2c0.1,0,0.2,0,0.3,0s0.4-0.1,0.6-0.1c0.2-0.1,0.5-0.2,0.8-0.3c0.3-0.1,0.5-0.3,0.7-0.6
				c0.2-0.2,0.4-0.6,0.5-0.9c0.1-0.4,0.2-0.8,0.2-1.4l-0.3-8L54.9,17.5z"/>
			<path d="M52,13.3l0,1l5.1-0.2l0.1,1.8l-6.1,0.2c-0.2,0-0.4,0-0.5-0.1c-0.1-0.1-0.2-0.2-0.3-0.3c-0.1-0.1-0.1-0.3-0.1-0.4
				l-0.1-1.9L52,13.3z"/>
			<path d="M67.8,17.4c0.6,0.2,1.1,0.5,1.5,0.8c0.4,0.3,0.7,0.7,1,1.1s0.4,0.8,0.5,1.1c0.1,0.4,0.2,0.7,0.2,1c0,0.3,0.1,0.5,0.1,0.6
				l0,0.1l0.2,7.9l-2,0L69,22.2c0-0.4-0.1-0.8-0.2-1.1s-0.2-0.6-0.4-0.8s-0.3-0.4-0.5-0.6c-0.2-0.2-0.4-0.3-0.6-0.4
				c-0.5-0.2-1-0.3-1.7-0.4c-0.4,0-0.7,0.1-1,0.2c-0.3,0.1-0.6,0.2-0.8,0.4c-0.2,0.2-0.4,0.3-0.6,0.5c-0.2,0.2-0.3,0.4-0.4,0.6
				c-0.2,0.5-0.4,1-0.4,1.6l0,1.3c0.8-0.5,1.7-0.7,2.6-0.7c0.5,0,0.9,0,1.2,0.1l0,2c-0.2-0.1-0.4-0.1-0.6-0.1c-0.2,0-0.4,0-0.7,0
				c-0.6,0-1.2,0.2-1.6,0.5c-0.2,0.2-0.4,0.3-0.6,0.5c-0.2,0.2-0.3,0.5-0.4,0.7l0.1,3.6l-2,0l-0.2-8c0-0.8,0.1-1.5,0.3-2
				c0.2-0.6,0.5-1,0.8-1.4c0.3-0.4,0.7-0.7,1.1-0.9c0.4-0.2,0.8-0.4,1.2-0.5c0.4-0.1,0.7-0.2,1-0.2s0.5,0,0.7-0.1l0.1,0
				C66.4,17.1,67.2,17.2,67.8,17.4z"/>
			<path d="M82.7,20.3l-0.9-0.5c-0.2-0.1-0.5-0.2-0.7-0.4c-0.3-0.1-0.5-0.2-0.8-0.3c-0.3-0.1-0.5-0.2-0.8-0.2
				c-0.2,0-0.4-0.1-0.6-0.1c-0.3,0-0.6,0-0.9,0.1c-0.3,0.1-0.5,0.2-0.8,0.3c-0.2,0.1-0.4,0.3-0.5,0.6c-0.1,0.2-0.2,0.6-0.2,1
				c0,0.4,0.1,0.7,0.3,0.9c0.2,0.2,0.5,0.4,0.9,0.5s0.8,0.2,1.2,0.3c0.4,0.1,0.9,0.1,1.4,0.2c0.5,0.1,0.9,0.2,1.3,0.4
				s0.8,0.5,1.1,0.8c0.3,0.3,0.6,0.7,0.8,1.1c0.2,0.4,0.3,0.8,0.3,1.3c0,0.7-0.1,1.2-0.4,1.7c-0.3,0.5-0.6,0.9-1,1.2
				c-0.4,0.3-0.9,0.6-1.5,0.7c-0.6,0.2-1.2,0.2-1.9,0.2c-0.9,0-1.7-0.1-2.4-0.3c-0.7-0.2-1.2-0.4-1.6-0.6c-0.5-0.3-0.9-0.6-1.3-0.9
				l1.3-1.3c0.2,0.2,0.4,0.3,0.7,0.5s0.6,0.3,0.9,0.4c0.3,0.1,0.7,0.2,1.1,0.3c0.4,0.1,0.8,0.1,1.2,0.1c0.4,0,0.8-0.1,1.2-0.2
				c0.3-0.1,0.6-0.2,0.9-0.4c0.2-0.2,0.4-0.4,0.5-0.7c0.1-0.2,0.2-0.5,0.2-0.8c0-0.3-0.1-0.6-0.2-0.8s-0.2-0.3-0.4-0.5
				s-0.3-0.2-0.5-0.2s-0.3-0.1-0.4-0.1c0,0-0.2,0-0.4-0.1c-0.2,0-0.5-0.1-0.8-0.1c-0.3,0-0.6-0.1-0.9-0.1c-0.3,0-0.5-0.1-0.7-0.1
				c-0.1,0-0.2,0-0.4-0.1c-0.2-0.1-0.4-0.1-0.6-0.2c-0.2-0.1-0.5-0.2-0.7-0.4s-0.4-0.4-0.6-0.6c-0.2-0.3-0.4-0.6-0.5-0.9
				c-0.1-0.3-0.2-0.8-0.2-1.2c0-0.7,0.1-1.3,0.4-1.8c0.3-0.5,0.6-0.9,1-1.2c0.4-0.3,0.9-0.5,1.4-0.7s1.1-0.2,1.6-0.2
				c0.6,0,1.1,0.1,1.5,0.2c0.5,0.1,0.9,0.2,1.2,0.4c0.4,0.2,0.8,0.3,1.1,0.5l1.1,0.7L82.7,20.3z"/>
			<path d="M94.8,17.2c0.6,0.2,1.1,0.5,1.5,0.8c0.4,0.3,0.7,0.7,0.9,1.1c0.2,0.4,0.4,0.8,0.5,1.2c0.1,0.4,0.2,0.7,0.2,1
				c0,0.3,0,0.5,0,0.6l0,0.1l-0.1,7.9l-2,0l0.1-7.9c0-0.4,0-0.8-0.1-1.1c-0.1-0.3-0.2-0.6-0.4-0.8c-0.2-0.2-0.3-0.4-0.5-0.6
				c-0.2-0.2-0.4-0.3-0.6-0.4c-0.5-0.2-1-0.4-1.7-0.4c-0.4,0-0.8,0-1.1,0.1s-0.6,0.2-0.8,0.4c-0.2,0.2-0.4,0.3-0.6,0.5
				s-0.3,0.4-0.4,0.6c-0.3,0.5-0.4,1-0.5,1.6l0,1.3c0.8-0.4,1.7-0.7,2.6-0.6c0.4,0,0.9,0.1,1.2,0.2l0,2c-0.2-0.1-0.4-0.1-0.6-0.1
				c-0.2,0-0.4,0-0.7,0c-0.6,0-1.2,0.1-1.6,0.4c-0.2,0.1-0.4,0.3-0.6,0.5c-0.2,0.2-0.3,0.4-0.4,0.7l0,3.6l-2,0l0.1-8
				c0-0.8,0.1-1.5,0.3-2s0.5-1,0.9-1.4c0.3-0.4,0.7-0.7,1.1-0.9c0.4-0.2,0.8-0.4,1.2-0.5c0.4-0.1,0.7-0.2,1-0.2c0.3,0,0.5,0,0.7,0
				l0.1,0C93.4,16.9,94.2,17,94.8,17.2z"/>
			<path d="M97.9,11.8l-0.1,3.7l-1.9,0l0.1-3.7L97.9,11.8z"/>
			<path d="M105.2,17c0.1,0,0.2,0,0.4,0c0.2,0,0.4,0.1,0.7,0.1c0.3,0.1,0.6,0.2,0.8,0.3c0.3,0.2,0.6,0.4,0.8,0.7
				c0.2,0.3,0.4,0.6,0.6,1.1c0.2,0.4,0.2,1,0.2,1.6l-0.2,9.2l-2,0l0.2-9.2c0-0.3-0.1-0.7-0.2-0.9c0-0.1-0.1-0.2-0.2-0.4
				s-0.2-0.2-0.3-0.3c-0.1-0.1-0.2-0.2-0.4-0.2c-0.1-0.1-0.3-0.1-0.5-0.1c-0.3,0-0.6,0-0.9,0.1s-0.4,0.2-0.6,0.2
				c-0.2,0.1-0.3,0.2-0.4,0.3s-0.2,0.2-0.2,0.2l-1.4-1.4c0.2-0.3,0.5-0.5,0.8-0.7c0.3-0.2,0.6-0.3,1.1-0.5
				C104.1,17.1,104.6,17,105.2,17z"/>
			<path d="M123.4,17.7l-0.3,9.3c0,0.5-0.1,1-0.3,1.4c-0.2,0.4-0.4,0.7-0.7,1c-0.3,0.3-0.6,0.5-0.9,0.6c-0.3,0.1-0.6,0.3-0.9,0.3
				c-0.3,0.1-0.6,0.1-0.8,0.1s-0.4,0-0.5,0l-2.5-0.1c-0.7,0-1.2-0.1-1.7-0.3c-0.5-0.1-0.9-0.3-1.2-0.6c-0.3-0.2-0.6-0.5-0.7-0.7
				c-0.2-0.3-0.3-0.5-0.4-0.8c-0.1-0.3-0.1-0.5-0.2-0.7c0-0.2,0-0.4,0-0.5c0-0.5,0.1-0.9,0.3-1.3c0.2-0.3,0.4-0.6,0.7-0.8
				c0.3-0.2,0.5-0.4,0.7-0.5c0.2-0.1,0.4-0.2,0.4-0.2c-0.3-0.1-0.5-0.1-0.7-0.3c-0.2-0.1-0.4-0.3-0.5-0.4s-0.3-0.3-0.4-0.5
				c-0.1-0.2-0.2-0.3-0.3-0.5c-0.2-0.4-0.2-0.8-0.3-1.3c0-0.5,0.1-0.9,0.2-1.2c0.1-0.4,0.2-0.7,0.4-0.9c0.2-0.3,0.4-0.5,0.6-0.6
				c0.2-0.2,0.4-0.3,0.6-0.4c0.5-0.3,1.1-0.4,1.7-0.4l2.7,0.1l-0.1,1.8l-1.6-0.1c-0.3,0-0.6,0-0.8,0.1c-0.2,0-0.4,0.1-0.6,0.2
				s-0.3,0.2-0.4,0.3s-0.2,0.2-0.3,0.3c-0.2,0.3-0.3,0.6-0.3,1c0,0.3,0,0.6,0.1,0.8s0.2,0.4,0.4,0.6c0.2,0.2,0.3,0.3,0.5,0.4
				c0.2,0.1,0.4,0.2,0.6,0.2c0.2,0,0.3,0.1,0.5,0.1c0.1,0,0.2,0,0.2,0l1.6,0.1l-0.1,1.8l-1.6-0.1c-0.4,0-0.7,0-0.9,0.1
				s-0.5,0.2-0.6,0.3c-0.2,0.1-0.3,0.2-0.4,0.4c-0.1,0.1-0.2,0.3-0.2,0.4s-0.1,0.2-0.1,0.3c0,0.1,0,0.2,0,0.2c0,0.3,0,0.6,0.1,0.8
				c0.1,0.2,0.2,0.4,0.3,0.6c0.1,0.1,0.3,0.3,0.5,0.3s0.3,0.2,0.5,0.2s0.3,0.1,0.4,0.1c0.1,0,0.2,0,0.3,0l0.1,0l2.5,0.1
				c0.5,0,0.9-0.1,1.1-0.2c0.3-0.2,0.5-0.4,0.6-0.6c0.2-0.3,0.3-0.6,0.4-0.9l0.3-9.3L123.4,17.7z"/>
		</g>
	</g>
</g>
</svg>
