<?xml version="1.0" encoding="utf-8"?>
<!-- Generator: Adobe Illustrator 19.2.0, SVG Export Plug-In . SVG Version: 6.00 Build 0)  -->
<svg version="1.1" id="Layer_1" xmlns="http://www.w3.org/2000/svg" xmlns:xlink="http://www.w3.org/1999/xlink" x="0px" y="0px"
	 viewBox="0 0 307 307" style="enable-background:new 0 0 307 307;" xml:space="preserve">
<style type="text/css">
	.st0{fill:#FFFFFF;}
	.st1{fill:#875717;}
</style>
<g id="Layer_2">
	<circle class="st0" cx="152.5" cy="154.5" r="152.5"/>
</g>
<title>shipInCircle</title>
<g>
	<path class="st1" d="M153.5,0C68.7,0,0,68.7,0,153.5S68.7,307,153.5,307S307,238.3,307,153.5S238.3,0,153.5,0z M251.2,196.1
		l-4.6,25.1v0.2c-4.2,19.5-23.8,35.4-43.8,35.4H93.2c-20.7,0-37.5-16.8-37.5-37.5v-24.4c0-3.7,3-6.7,6.7-6.7h36.1v-8.7H67.9
		c-3.1,0-5.8-2.1-6.5-5.1c-0.9-3.6,1.3-7.2,4.9-8.1c8-2,14-13.1,14-25.8s-6-23.8-14-25.8c-3-0.7-5.1-3.4-5.1-6.5
		c0-3.7,3-6.7,6.7-6.7h30.5v-4H85.5c-3.1,0-5.8-2.1-6.5-5.1c-0.9-3.6,1.3-7.2,4.9-8.1c2.1-0.5,5-4.4,5-10.5s-2.9-10-5-10.5
		c-3-0.7-5.1-3.4-5.1-6.5c0-3.7,3-6.7,6.7-6.7h29.2c0.5,0,1.1,0.1,1.6,0.2c8.9,2.2,15.2,11.9,15.2,23.5s-6.2,21.3-15.2,23.5
		c-0.5,0.1-1.1,0.2-1.6,0.2h-2.9v4h11.5c0.5,0,1.1,0.1,1.6,0.2c14,3.4,24.2,19.8,24.2,38.8c0,19.1-10.2,35.4-24.2,38.8
		c-0.5,0.1-1.1,0.2-1.6,0.2h-11.4v8.7h9.6c3.7,0,6.7,3,6.7,6.7c0,2.3,2.8,4.3,6,4.3h33.2c3.2,0,6-2,6-4.3c0-3.7,3-6.7,6.7-6.7h12.3
		v-8.7h-32c-3.1,0-5.8-2.1-6.5-5.1c-0.9-3.6,1.3-7.2,4.9-8.1c8-2,14-13.1,14-25.8s-6-23.8-14-25.8c-3-0.7-5.1-3.4-5.1-6.5
		c0-3.7,3-6.7,6.7-6.7h32v-4h-14.3c-3.1,0-5.8-2.1-6.5-5.1c-0.9-3.6,1.3-7.2,4.9-8.1c2.1-0.5,5-4.4,5-10.5s-2.9-10-5-10.5
		c-3-0.7-5.1-3.4-5.1-6.5c0-3.7,3-6.7,6.7-6.7h29.1c0.5,0,1.1,0.1,1.6,0.2c8.9,2.2,15.2,11.9,15.2,23.5s-6.2,21.3-15.2,23.5
		c-0.5,0.1-1.1,0.2-1.6,0.2h-1.5v4h10.1c0.5,0,1.1,0.1,1.6,0.2c14,3.5,24.2,19.8,24.2,38.8s-10.2,35.4-24.2,38.8
		c-0.5,0.1-1.1,0.2-1.6,0.2h-10.1v8.7h38.9c2,0,3.9,0.9,5.1,2.4l0,0C251,192.1,251.6,194.1,251.2,196.1z"/>
</g>
</svg>
