<?xml version="1.0" encoding="utf-8"?>
<!-- Generator: Adobe Illustrator 19.2.1, SVG Export Plug-In . SVG Version: 6.00 Build 0)  -->
<svg version="1.1" id="Layer_1" xmlns="http://www.w3.org/2000/svg" xmlns:xlink="http://www.w3.org/1999/xlink" x="0px" y="0px"
	 viewBox="0 0 897.9 799.9" style="enable-background:new 0 0 897.9 799.9;" xml:space="preserve">
<style type="text/css">
	.st0{fill:#685F4B;}
	.st1{fill:#B22028;}
	.st2{fill:#682A2A;}
	.st3{fill:#861719;}
	.st4{clip-path:url(#SVGID_2_);fill:#682A2A;}
	.st5{fill:#996128;}
	.st6{fill:#825022;}
	.st7{fill:#2B1E10;}
	.st8{fill:#452B12;}
	.st9{fill:#4E2D15;}
	.st10{fill:#372313;}
	.st11{fill:#432613;}
	.st12{fill:#432812;}
	.st13{fill:#6B5924;}
	.st14{fill:#503111;}
	.st15{display:none;}
	.st16{display:inline;fill:#372712;}
	.st17{display:inline;fill:#452B12;}
	.st18{display:inline;fill:#5F3613;}
	.st19{display:inline;}
	.st20{fill:#949292;}
	.st21{display:inline;fill:#503111;}
	.st22{fill:#2B2B2B;}
	.st23{clip-path:url(#SVGID_4_);fill:#443718;}
	.st24{clip-path:url(#SVGID_6_);fill:#443718;}
	.st25{fill:#C69720;}
	.st26{fill:#F4E1B0;}
	.st27{fill:#706651;}
	.st28{clip-path:url(#SVGID_8_);fill:#CEBD97;}
	.st29{clip-path:url(#SVGID_12_);fill:#443E30;}
	.st30{clip-path:url(#SVGID_16_);fill:#CEBD97;}
	.st31{clip-path:url(#SVGID_19_);fill:#443E30;}
	.st32{fill:#BFAC8A;}
	.st33{fill:#897229;}
	.st34{fill:#382D1C;}
	.st35{fill:#A5A4A4;}
	.st36{fill:none;}
	.st37{fill:#9E7339;}
	.st38{fill:#C18329;}
	.st39{clip-path:url(#SVGID_21_);fill:#C18329;}
	.st40{clip-path:url(#SVGID_23_);fill:#C18329;}
	.st41{clip-path:url(#SVGID_25_);fill:#C18329;}
	.st42{clip-path:url(#SVGID_27_);fill:#C18329;}
	.st43{clip-path:url(#SVGID_29_);fill:#C18329;}
	.st44{fill:#8E612D;}
	.st45{fill:#9DEBF4;}
	.st46{fill:#76B4B7;}
	.st47{fill:#554E3C;}
	.st48{fill:#2C1010;}
	.st49{clip-path:url(#SVGID_31_);fill:#333333;}
	.st50{fill:#764E1F;}
	.st51{fill:#593A17;}
	.st52{fill:#372712;}
	.st53{fill:#5F3613;}
	.st54{clip-path:url(#SVGID_33_);fill:#443718;}
	.st55{clip-path:url(#SVGID_35_);fill:#443718;}
	.st56{display:inline;fill:#6B5924;}
	.st57{display:inline;fill:#DCCB99;}
	.st58{display:inline;fill:#554E3C;}
	.st59{clip-path:url(#SVGID_37_);fill:#A89876;}
	.st60{clip-path:url(#SVGID_39_);fill:#3F3A2C;}
	.st61{clip-path:url(#SVGID_41_);fill:#A89876;}
	.st62{clip-path:url(#SVGID_43_);fill:#3F3A2C;}
	.st63{fill:#DCCB99;}
	.st64{fill:#A89876;}
	.st65{fill:#AE9431;}
	.st66{fill:#241D11;}
	.st67{fill:#636161;}
	.st68{display:inline;fill:#755421;}
	.st69{fill:#98722B;}
	.st70{clip-path:url(#SVGID_45_);fill:#755421;}
	.st71{clip-path:url(#SVGID_47_);fill:#755421;}
	.st72{clip-path:url(#SVGID_49_);fill:#755421;}
	.st73{clip-path:url(#SVGID_51_);fill:#755421;}
	.st74{clip-path:url(#SVGID_53_);fill:#755421;}
	.st75{display:inline;fill:#755522;}
	.st76{display:inline;fill:#A0D7C5;}
	.st77{display:inline;fill:#79A597;}
	.st78{display:inline;fill:#A0822E;}
</style>
<g id="day_1_">
	<g id="Layer_3">
		<path class="st0" d="M228.9,229.4l29.4,443.3l-19-0.4l-16.9-443C222.3,229.2,223.9,223.3,228.9,229.4z"/>
		<g>
			<path class="st1" d="M520,31.3c-0.8,0.1-1.6,0-2-0.9c-0.4-0.9-0.3-2.1-0.1-3c0,0,0-0.2,0.1-0.2c0.4,0.1,0.7,0.3,1.1,0.4
				c0-0.1,0-0.2,0-0.2c-3.5-3.1-4.9-7.7-5.3-12.3c0,0.3-0.2,0.7-0.2,0.8c-0.3,0.4-0.6,1.3-1.1,1.5c-0.1,0-0.3,0.1-0.4,0.1
				c-0.1,0.1-0.2,0.2-0.4,0.3c-0.1,0-0.1-0.1-0.1-0.1c0-0.1,0-0.1,0-0.2c-0.4,0-0.9,0-1.2,0c-0.2,0,0.2-1,0.3-1.1
				c0.4-0.6,0.8-1.2,1.2-1.8c0,0,0,0,0,0c-0.2-0.6-0.2-1.2-0.3-1.9c0-0.1,0.3-1.2,0.5-1.1c0.2,0.1,0.3,0.1,0.5,0.2
				c-0.1-0.3-0.2-0.6-0.3-1c-0.3-0.1-0.5-0.3-0.6-0.6c-0.2-1.6-0.7-3-1.2-4.4C485.1,20.1,444.5,18,444.5,18
				c-1.1-6.2-4.8-9.6-10.2-11c0,0,0,0.1,0,0.1c-0.1,0.2-0.4,0.3-0.5,0.3c0,0-0.1-0.1-0.1-0.3c-0.1,0-0.2,0.1-0.4,0.1
				c0.4,0.2,0.8,0.5,1.2,0.8c0.2,0.1,0.3,1.2,0.1,1.3c-0.6,0.2-1.2,0.3-1.8,0.3c0,0.1,0,0.2-0.1,0.1c-0.1,0-0.1-0.1-0.2-0.1
				c-2.8,0.2-5.6-0.7-8.3-1.1c0.1,0.2,0.2,0.5,0.3,0.7c0,0.1,0.2,1.2,0,1.1c-0.3-0.1-0.9-0.1-1.4-0.3c-0.3,0.3-0.9,0.3-1.8-0.1
				c-0.2-0.1-0.3-1.2-0.1-1.3c0.1-0.1,0.2-0.1,0.3-0.2c-0.2,0-0.4,0-0.6,0.1c0,0.1,0,0.2-0.1,0.1c-0.1,0-0.1-0.1-0.2-0.1
				c-0.2,0-0.4,0-0.6,0.1c0,0.1,0,0.2-0.1,0.2c-0.6,0-1.3-0.1-1.9-0.2c-0.1,0-0.1-0.1-0.2-0.3l-7,0.5c-26.2,7-58,25.8-58,25.8
				s5.9,4.6,8.6,6.7c2.7,2.1,12.1,56.5,3.8,68.8c-11.9,17.4-12.9,23-12.9,23c12.7-7.7,23.7-14.1,33.4-19.4c1.2-1.1,2.4-2.1,3.8-2.8
				c0.8-0.4,1.5-0.8,2.3-1.1c1.6-1,3.2-1.8,4.8-2.8c2-1.2,4-2.4,6.1-3.4c2.4-3.4,5.6-6.1,8.7-8.9c0.1-0.1,0.2,0.2,0.2,0.3
				c0.1,0.2,0.1,0.5,0.1,0.7c1.4-2.2,3-4.3,3.3-7c0-0.2,0.1-0.2,0.2,0c0.6,2.4,0.4,4.5-1.2,6.1c-0.8,1-1.6,1.9-2.5,2.7
				c-0.4,1.8-1.6,3.3-3.1,4.7c63.3-29.2,28.8,18.4,28.8,18.4c9.1,1.4,26.3-1.5,43.3-5.3c0.9-1.5,2-2.7,3.3-3.8
				c0.2-0.1,0.3-0.1,0.5-0.1c0.1-0.1,0.2-0.2,0.2-0.3c-0.1-0.2-0.1-0.5,0.1-0.6c0.2-0.2,0.6-0.3,0.9-0.4c1.3-1.4,2.8-2.6,4.6-3.5
				c-0.3-1.1-0.4-2.2-0.5-3.3c-0.1-0.9-0.9-2.3-0.5-3.1c0.1-0.3,0.3-0.6,0.5-0.8c-0.1-0.2-0.2-0.5-0.2-0.7c-1-1.1-1.4-3.3-0.6-4.4
				c0-0.3,0-0.7,0-1c0-0.7,0.3,0,0.3,0.3c0.1,1,0.2,2,0.7,2.9c0,0,0,0.1,0,0.2c0.1,0,0.2,0.1,0.3,0.2c0.2,0.4,0.4,0.7,0.5,1.1
				c0.5-0.7,0.9-1.4,1.2-2.3c0.5-1.6,0.9-3.1,1.1-4.8c0-0.2,0.1-0.3,0.2-0.4c0-0.2,0-0.4,0.1-0.5c0.1-0.1,0.2-0.2,0.3-0.3
				c0-0.1,0.1-0.1,0.1-0.1c0,0,0-0.1,0-0.1c0-0.3,0.1-0.7,0.2-0.2c0.1,0.4,0.1,0.8,0,1.3c0.2,0.1,0.3,0.3,0.3,0.6
				c-0.2,1.3-0.4,2.6-0.6,4c0.2,0.1,0.3,0.3,0.3,0.6c0,0.1,0,0.2,0,0.2c0,0,0,0,0.1,0.1c0.7,2.7,0.6,4.4-0.3,6.7
				c-0.2,1.5-0.5,3-0.8,4.4c0,0.1,0.1,0.2,0.1,0.3c0,1,0,1.4-0.7,1.9c-0.1,0.4-0.3,0.7-0.5,1.1c0,0,0,0,0,0c0.2,0.1,0.3,0.4,0.2,0.6
				c-0.2,0.7-0.6,1.3-1.2,1.9c15.8-3.8,29.8-7.9,34.8-9.4c0-0.7,0.3-1.5,0.7-2.3c0-0.1,0-0.2-0.1-0.3c0,0,0,0-0.1,0
				c-0.5-0.3-0.7-0.8-0.8-1.4c0-0.3,0.1-0.6,0.3-0.9c0-0.1,0.2-0.4,0.3-0.1c0,0.2,0.1,0.4,0.2,0.6c0-0.1,0-0.2,0-0.3
				c-0.2-0.6-0.2-1.2-0.1-1.7c-0.1-0.5-0.4-1-0.7-1.4c-0.2-0.2,0.4-1.3,0.5-1.2c0.2,0.3,0.4,0.7,0.6,1.1c0.1-0.1,0.1-0.1,0.2-0.1
				c0,0.1,0.1,0.1,0.1,0.2c0-0.1,0.1-0.2,0.1-0.2c0-0.2,0.1-0.6,0.2-0.7c0,0,0.2-0.5,0.3-0.4c0,0.1,0.1,0.2,0.1,0.3c0,0,0,0,0-0.1
				C526.7,70.5,523.3,47.9,520,31.3 M504.2,26.3c-0.1,0.4-0.1,0.7-0.2,1.1c0,0,0-0.1,0-0.1c0,0.1-0.1,0.2-0.1,0.3
				c-0.3,1.4-0.6,2.9-1,4.3c-0.1,0.7-0.2,1.3-0.3,1.9c0,0.2,0.1,0.4,0.1,0.4c0.1,2.9-0.5,5.6-1.5,8.2c-0.1,0.5-0.3,0.9-0.5,1.3
				c-0.5,1.2-1,2.4-1.6,3.6c0,0.1-0.1,0-0.1-0.1c-0.2,0.4-0.5,0.9-0.8,1.4c-0.2,0.6-0.4,1.2-0.7,1.8c0,0-0.1,0-0.1-0.1
				c0,0.2-0.1,0.4-0.1,0.5c0,0.3-0.2,0.6-0.3,0.9c-0.1,0.2-0.2,0.2-0.2-0.1c0-0.1,0-0.1,0-0.2c-0.2,0.6-0.5,1.2-0.7,1.8
				c-0.1,0.3-0.3-0.9-0.2-1.1c0,0,0,0,0,0c-0.1-0.3-0.1-0.8-0.1-0.9c0.4-1.3,0.9-2.6,1.5-3.8c0.4-1.9,1-3.7,1.6-5.6
				c0.2-0.6,0.4-1.2,0.6-1.8c0.2-0.5,0.3-0.9,0.5-1.4c0.3-1.7,0.7-3.4,1.7-4.9c0,0,0,0,0.1,0l-0.1-0.9c0-0.1,0-0.2,0-0.2
				c-0.2,0.4-0.4,0.8-0.3,0.2c0.2-1,0.7-2,1.1-2.9c0-0.3,0-0.6,0-0.9c0-0.2,0-0.6,0.1-0.7c0-0.1,0-0.3,0-0.5c0-0.9,0.3-0.1,0.3,0.3
				c0,0.3,0,0.6,0,0.9c0.3-0.6,0.5-1.2,0.6-1.9C503.7,26.9,504.3,25.8,504.2,26.3"/>
			<path class="st2" d="M444.7,19c0,0,0.4,1.3,1.1,3.5c0.7,2.2,1.5,5.4,2.4,9.3c0.4,2,0.9,4.1,1.3,6.3c0.4,2.3,0.8,4.6,1.1,7.1
				c0.3,2.5,0.7,5,0.9,7.7c0.3,2.6,0.4,5.3,0.6,7.9c0.1,2.7,0.1,5.3,0.2,8c0,2.6-0.1,5.2-0.2,7.7c-0.2,2.5-0.4,4.9-0.6,7.2
				c-0.3,2.3-0.6,4.4-1,6.4c-0.4,2-0.8,3.8-1.2,5.3c-0.3,1.6-0.9,2.9-1.2,4c-0.7,2.2-1.2,3.4-1.2,3.4s0.1-1.3,0.5-3.6
				c0.1-0.6,0.2-1.2,0.3-1.9c0.1-0.3,0.1-0.7,0.2-1.1c0-0.4,0.1-0.8,0.1-1.2c0.1-1.6,0.3-3.4,0.5-5.4c0.1-2,0.2-4.1,0.3-6.3
				c0.1-2.2,0-4.6,0.1-7.1c0-2.5-0.1-5-0.1-7.6c-0.1-2.6-0.2-5.2-0.3-7.8c-0.2-2.6-0.2-5.2-0.5-7.8c-0.2-2.6-0.3-5.1-0.6-7.6
				c-0.2-2.5-0.4-4.8-0.6-7.1c-0.2-2.3-0.4-4.4-0.6-6.4C445.2,24.3,444.7,19,444.7,19"/>
			<path class="st3" d="M437.3,121.1c0,0,1.5-16.2-2.5-27.9C434.8,93.2,461,86.5,437.3,121.1"/>
			<g>
				<g>
					<g>
						<g>
							<g>
								<defs>
									
										<rect id="SVGID_1_" x="435.5" y="92.3" transform="matrix(0.9921 -0.1258 0.1258 0.9921 -9.8695 56.4275)" width="12.7" height="28.1"/>
								</defs>
								<clipPath id="SVGID_2_">
									<use xlink:href="#SVGID_1_"  style="overflow:visible;"/>
								</clipPath>
								<path class="st4" d="M437.3,121.1c0,0,1.5-16.2-2.5-27.9C434.8,93.2,461,86.5,437.3,121.1"/>
							</g>
						</g>
					</g>
				</g>
			</g>
		</g>
		<path class="st5" d="M897.9,407L672.7,522.7l-7-28l229.8-97.4C895.5,397.3,899.2,398.7,897.9,407z"/>
		<path class="st6" d="M725.3,469.5l-47.2,20l-13.2,8.7l6.3,25.2l60.6-31.1C717,485.5,725.3,469.5,725.3,469.5z"/>
	</g>
	<g id="ลายไม้">
		<path class="st7" d="M122.2,655v-99.3c0,0-105.5,0-105.5,0c-1,0-2.9,3.5-3.3,4.1c-2.5,3.8-4.5,7.9-6.1,12
			c-2.6,6.5-4.4,13.3-5.2,20.2c-1.2,9.4-0.6,18.9,1.7,28.1c2.5,10.3,6.5,20.3,12,29.4c7.6,12.6,19.5,21.8,27.8,33.9
			c2.2,3.3,4.3,6.7,6,10.2c2.4,4.8,4.2,9.9,4.9,15.3c3.4,26.9,11.5,78.1,31.5,86.1h396.1l74-29.8l64.9-45.5l44.8-64.6l13.2-29.9
			l5.5-51.1v-50.1l3.4-25.8l-5.6-11.5l-25.8,8.2l-40.6,25.7l-45.5,27.7l-10.4,16.8l-69.2,12l-47,10.3l-2.7,12.2l7.9,5.1l2.4,13.6
			l-2.4,14.9l-16.7,17.9l-24.3,4.2L122.2,655L122.2,655z"/>
		<path class="st8" d="M80.3,791.4l412.2-0.5l63.7-25.6l5.9-4.2l-497.3,0.6C68.7,774.4,73.7,785.4,80.3,791.4z"/>
		<path class="st9" d="M621,720.6l5.1-7.3L55,714c1,7.7,2.4,16.9,4.3,26.3l534.6-0.6L621,720.6z"/>
		<path class="st10" d="M643,687.7l-596.3,0.7c1,1.7,1.9,3.4,2.8,5.2c2.4,4.8,4.2,9.9,4.9,15.3c0.2,1.8,0.5,3.8,0.8,5.8l569.6-0.6
			L643,687.7z"/>
		<path class="st9" d="M661.8,660.6l-637.3,0.7c6.4,7.3,13.5,14.1,19,22.1c0.9,1.4,1.8,2.8,2.7,4.2l597.4-0.7L661.8,660.6z"/>
		<path class="st11" d="M678.4,604.4l-223,1.6c6.4,7.3-9.1,25.1-8.2,26.5l222-1.1L678.4,604.4z"/>
		<path class="st12" d="M116.6,556c-21.8,0-99.9,0-99.9,0c-1,0-2.9,3.5-3.3,4.1c-2.5,3.8-4.5,7.9-6.1,12c-2.6,6.5-4.4,13.3-5.2,20.2
			c-1.2,9.4-0.6,18.9,1.7,28.1c2.5,10.3,6.5,20.3,12,29.4c1.1,1.9,2.4,3.7,3.7,5.5h97.3L116.6,556L116.6,556z"/>
		<polyline class="st13" points="111.1,660.5 111.1,554.6 122.1,554.6 122.1,650 		"/>
		<polygon class="st8" points="455.4,605.9 683,604.6 683,576.5 446.6,582.7 		"/>
		<polygon class="st14" points="576.5,545.5 684.9,545.5 684.9,520.8 600.7,520.8 		"/>
	</g>
	<g id="Layer_11" class="st15">
		<circle class="st16" cx="1327.4" cy="118.8" r="82.2"/>
		<circle class="st17" cx="1539.3" cy="122.3" r="82.2"/>
		<circle class="st18" cx="1330.1" cy="308.2" r="82.2"/>
		<g class="st19">
			<g>
				<path class="st20" d="M1624.5,316.1c-38.9,20.9-63,19.9-66.2,20c-38.6,0.4-62.2-15.7-62.2-15.7c-16.7-9.8-21.9-28.8-21.9-28.8
					c-6.3-18.1,3.8-32.5,3.8-32.5c-4.8-8.7-23.2-9.1-23.2-9.1c-16.5-1.6-32.9-6.2-32.9-6.2c-19.1-4.6-25.1-16.3-25.1-16.3
					c-8.8-11.5-6.9-16.1-6.9-16.1c0.1-11,8.8-6.6,8.8-6.6c-1.7-15-24.5-24.6-24.5-24.6c-1.1-1.2-16.2-6-16.2-6l-18.5-6.3l-62.6-19.6
					c-8,20-30.8,9-30.8,9c5.2,11.3,0.5,31.5,0.5,31.5c-5,72.6,21.8,116.3,21.8,116.3c37,85.4,118.1,115.9,118.1,115.9
					c26.6,15.1,87.7,7.1,87.7,7.1c8.9-0.1,18.2-1.4,27.7-3.4c2.6-0.7,5.3-1.3,7.9-1.8c12.1-3.1,24.3-7.2,35.6-11.6
					c0.9-0.4,1.9-0.8,2.9-1.1c32.6-13.1,58.3-28.6,58.3-28.6c11.7-6.4,25.5-15.9,38.2-25.3c2.4-3.1,6.1-5.5,9.5-7.4
					c2-1.5,4-3,6.1-4.4c14.3-11.2,23-20,23-20c-0.2-1.5-0.3-3.8-0.1-5.8c0.6-8.6,1.6-14.3,3.9-22.6c0.2-0.6,0.4-1.2,0.6-1.9
					c0.1-0.5,0.4-1,0.5-1.5c0.1-0.5,0.3-0.9,0.5-1.4c0.2-0.8,0.6-1.8,1-2.7c0.2-0.5,0.4-1.2,0.7-1.7c0.2-0.3,0.2-0.6,0.4-0.9
					c0.1-0.3,0.2-0.6,0.3-0.9c0.2-0.3,0.3-0.7,0.5-1.1c0.2-0.4,0.3-0.7,0.5-1.1c0.1-0.4,0.3-0.6,0.4-0.9c0.1-0.2,0.1-0.4,0.2-0.6
					c0.6-1.5,1-2.6,1-2.6L1624.5,316.1z"/>
			</g>
		</g>
		<circle class="st21" cx="1539.3" cy="308.2" r="82.2"/>
		<circle class="st16" cx="1552" cy="513.8" r="82.2"/>
	</g>
	<g id="window">
		<g>
			<g>
				<path id="XMLID_1_" class="st22" d="M46.6,622.8h42.6c0,0,8.1-49.2-21.3-49.2C38.5,573.6,46.6,622.8,46.6,622.8z"/>
			</g>
			<g>
				<g>
					<g>
						<defs>
							<path id="SVGID_3_" d="M46.6,622.8h42.6c0,0,8.1-49.2-21.3-49.2C38.5,573.6,46.6,622.8,46.6,622.8z"/>
						</defs>
						<clipPath id="SVGID_4_">
							<use xlink:href="#SVGID_3_"  style="overflow:visible;"/>
						</clipPath>
						<rect x="33.4" y="598.8" class="st23" width="71.4" height="1.8"/>
					</g>
				</g>
			</g>
			<g>
				<g>
					<g>
						<defs>
							<path id="SVGID_5_" d="M46.6,622.8h42.6c0,0,8.1-49.2-21.3-49.2C38.5,573.6,46.6,622.8,46.6,622.8z"/>
						</defs>
						<clipPath id="SVGID_6_">
							<use xlink:href="#SVGID_5_"  style="overflow:visible;"/>
						</clipPath>
						<rect x="67.1" y="567.1" class="st24" width="1.8" height="71.4"/>
					</g>
				</g>
			</g>
		</g>
	</g>
	<g id="ผ้าใบหลัง">
		<path class="st25" d="M122.2,564.1H10.7c0.2-0.5,5.3-9.4,7.4-10.8s104,0,104,0L122.2,564.1L122.2,564.1z"/>
		<path class="st26" d="M354.7,225.2c0,0,78.2,65.6,24.7,169.5c0,0-71-28-329.9,46.9c0,0,48.7-133.9-33.1-177.9
			C16.3,263.7,336.4,182.1,354.7,225.2"/>
		<path class="st27" d="M354.3,224.8c0,0-2.8-42.1-338.9,42.1c0,0-9.8,1.4-4.3-9.3c0,0,313-79.5,342-43.3
			C353.2,214.4,359.8,219.8,354.3,224.8"/>
		<path class="st26" d="M383.4,400.8c0,0,78.2,65.6,24.7,169.5c0,0-71-28-329.9,46.9c0,0,48.7-133.9-33.1-177.9
			C45,439.3,365.1,357.8,383.4,400.8"/>
		<path class="st27" d="M383,400.5c0,0-2.8-42.1-338.9,42.1c0,0-9.8,1.4-4.3-9.3c0,0,313-79.5,342-43.3
			C381.8,390.1,388.5,395.4,383,400.5"/>
		<path class="st27" d="M415.8,579.4c0,0-2.8-42.1-338.9,42.1c0,0-9.8,1.4-4.3-9.3c0,0,313-79.5,342-43.3
			C414.7,569,421.3,574.3,415.8,579.4"/>
	</g>
	<g id="เงาผ้าใบ">
		<g>
			<defs>
				<rect id="SVGID_7_" x="64.3" y="216" width="396.4" height="392.6"/>
			</defs>
			<clipPath id="SVGID_8_">
				<use xlink:href="#SVGID_7_"  style="overflow:visible;"/>
			</clipPath>
			<path class="st28" d="M357.8,402c9.2-1,17.5-1.6,24.9-2.1c-0.6-1.4-3.3-5.5-16.5-8c-5.2,0.5-10.5,1.1-16,1.7
				c-1.1-1.2-2.2-2.4-3.3-3.6c-33.5-1.1-98.5,5.1-224.3,33.7c-2,5.3-4.4,10.5-7.5,15.8c-8.1,2-12.7,3.1-12.7,3.1
				c-5.6,10.6,4.3,9.3,4.3,9.3c3.1-0.8,6.1-1.5,9.1-2.3c13.7,17.7,56.7,81.3,27.5,145.8c89.1-19.9,234.4-48.4,266.8-30.1
				c4-7.2,12.3-25.1,14.1-52.1C425.9,487.5,396.1,445.2,357.8,402z"/>
		</g>
		<g>
			<defs>
				<rect id="SVGID_10_" x="64.3" y="216" width="396.4" height="392.6"/>
			</defs>
			<clipPath id="SVGID_12_">
				<use xlink:href="#SVGID_10_"  style="overflow:visible;"/>
			</clipPath>
			<path class="st29" d="M143.2,595.5c-0.3,0.6-0.5,1.2-0.8,1.8c-4.5,1-7,1.6-7,1.6c-4,6.3,1.5,6.3,2.9,6.2l0,0c0.2,0,0.3,0,0.3,0
				c267.4-61.2,269.1-32.9,269.1-32.9c2.3-1.8,2-3.6,1.2-5c0.3-0.5,0.6-1.1,1-1.8C377.7,547.1,232.3,575.6,143.2,595.5z"/>
		</g>
		<g>
			<defs>
				<rect id="SVGID_14_" x="64.3" y="216" width="396.4" height="392.6"/>
			</defs>
			<clipPath id="SVGID_16_">
				<use xlink:href="#SVGID_14_"  style="overflow:visible;"/>
			</clipPath>
			<path class="st30" d="M220.8,254.6c205.9-42.2,191-13.4,191-13.4c5.5-5.1-1.1-10.4-1.1-10.4c-29-36.2-342,43.3-342,43.3
				c-5.6,10.6,4.3,9.3,4.3,9.3c3.1-0.8,6.1-1.5,9.1-2.3c15.5,17.9,58.4,73.9,44,132c67.4-14.7,158.3-32.2,212.3-32.6
				C282.7,321.5,235.1,266.9,220.8,254.6z"/>
		</g>
		<g>
			<defs>
				<rect id="SVGID_18_" x="64.3" y="216" width="396.4" height="392.6"/>
			</defs>
			<clipPath id="SVGID_19_">
				<use xlink:href="#SVGID_18_"  style="overflow:visible;"/>
			</clipPath>
			<path class="st31" d="M347,390.1c-2.9-3.2-5.8-6.3-8.8-9.5c-54,0.4-144.9,17.8-212.3,32.6c-0.9,3.5-1.9,7-3.3,10.6
				C248.5,395.2,313.5,389,347,390.1z"/>
		</g>
	</g>
	<g id="ผ้าใบหน้า">
		<path class="st0" d="M355.3,35.5l38.3,622.2h-19L348.7,35.5C348.7,35.5,350.2,27,355.3,35.5z"/>
		<path class="st26" d="M517,178.2c0,0,77.2,69.8,18.7,173.7c0,0-71.3-31.2-338,35.2c0,0,54.7-134.6-27-182.5
			C170.7,204.6,500,133.7,517,178.2"/>
		<path class="st27" d="M516.6,177.9c0,0-1.3-43-346.9,30c0,0-10.1,1-4-9.6c0,0,322-69.1,350.2-31.1
			C515.9,167.2,522.5,172.9,516.6,177.9"/>
		<path class="st26" d="M534.6,358.3c0,0,77.2,69.8,18.7,173.7c0,0-71.3-31.2-338,35.2c0,0,54.7-134.6-27-182.5
			C188.3,384.7,517.6,313.7,534.6,358.3"/>
		<path class="st32" d="M329.4,355.6c10.8-7.1,13.2-43.4,12.7-47.6c-0.4-5.4-2.1-10.4-5.2-15.6c-3.1-5-6.4-9.4-10.1-13.3
			c-3.7-3.9-7.4-6.7-11.1-8.9c-3.6-2.1-6.3-3.2-7.7-2.7c-1,0.2-1.1-0.8-0.3-3c0.9-2.2,2.2-4.9,4.1-8c2-3.1,4.4-6.5,7-10.2
			c2.9-3.8,5.6-7,8-9.9c2.7-3,5.1-5.1,7.6-6.6c2.5-1.7,4.2-1.7,5.6-0.7c3.8,2.9,7.5,5.7,11.5,8.3c4,2.6,7.5,5.7,10.6,9.4
			c6.5,8.6,10.3,17.5,11.9,26.7c1.4,9.3,3.1,70.4-7.8,74.7C355.5,352.7,318.6,362.8,329.4,355.6z"/>
		<path class="st32" d="M510.6,340.8c22.3,17.6-20.9,101.3-33.4,110.4c-3.7,2.7-7.8,5.3-12,7.3c-3.9,1.8-24.6,8.1-26.8,7.9
			c-1.4-0.1-6,0-7.1-0.9l-20.9-17.5c-2.6,2-4.7,3.9-6.6,5.5c-1.8,1.6-15.2,8.7-20.8,10.7c-0.7,0.3-3.5-1.3-4.2-1.7
			c-1.5-0.7-2.9-1.4-4.3-2.2c-2.7-1.5-5.3-3.3-7.7-5.3c-9.9-7.9-17.6-18.2-24.1-29c-3.4-5.7-6.1-11.7-7.6-18.1
			c-1.4-6-2-12.3-1.8-18.4c0.2-6,1.3-11.9,1.9-17.8c0.4-3.4,0.5-6.9-0.1-10.3c-0.2-1.4-0.5-2.7-0.9-4.1c-0.2-0.8-0.7-3.8-1.4-4.2
			c-4.3-2.8,28.7-10.4,34.9-2.9c3.7,4.6,1.9,10.6-0.1,15.5c-2.2,5.4-4.1,11.1-4.6,16.9c-0.5,6,0.4,12,1.9,17.9
			c0.6,2.6,1.4,5.3,2.3,7.8c3.2,9.5,10.1,18.3,18.4,23.9c1.1,0.7,11.5,5.7,12,4.3c0.9-2.4,33.9-71,8.7-93
			c24.1-0.1,21.3-3.1,37.8-3.6c19.8,25.3-5,97-5,97.3c0.1-1.8,8.4-5.5,9.8-6.4c5.2-3.1,9.9-7.1,13.6-11.9c5.9-7.7,9.1-18.1,12-27.3
			c3.4-10.4,5-21.4,3.8-32.2c-0.9-7.7-4.3-15.6-9.5-21.4C494.4,339.2,478.9,337.5,510.6,340.8z"/>
		<path class="st32" d="M465.7,343.6c6.7-6,9.1-15.1,9.8-23.8c0.7-8.5-0.4-17.1-1.6-25.6c-2.4-16.9-4-37.3,4.1-52.9
			c2.1-4,4.7-8.1,7.6-11.5c2.7-3.2,5.7-6.2,8.7-9.2c0,0,40.4,93,13,118.9C470.4,343.5,491.2,341.5,465.7,343.6z"/>
		<path class="st32" d="M402.4,348c13.4-13.6-6.9-54.9-9.6-75.9c-0.4-3.9,0.4-7.7,3-11.5c2.6-3.7,5.4-7.5,9-11.4
			c3.6-3.6,7.2-7.2,10.8-10.6c3.6-3.4,6.3-6.4,8.2-9.3c0,0,34.4,114,15.8,111.6C420.8,338.5,430.6,341.3,402.4,348z"/>
		<path class="st27" d="M534.2,357.9c0,0-1.3-43-346.9,30c0,0-10.1,1-4-9.6c0,0,322-69.1,350.2-31.1
			C533.5,347.3,540,353,534.2,357.9"/>
		<path class="st27" d="M560.4,541.5c0,0-1.3-43-346.9,30c0,0-10.1,1-4-9.6c0,0,322-69.1,350.2-31.1
			C559.7,530.9,566.2,536.6,560.4,541.5"/>
		<path class="st27" d="M553.5,525.9C499.8,499.7,209.9,562,209.9,562c-6.1,10.6,4,9.6,4,9.6c227.1-48,305.5-45.9,332.6-38.8
			L553.5,525.9z"/>
	</g>
	<g id="ขอบไม้">
		<path class="st25" d="M680.6,502.4c4-0.7,6-5,1.4-7.6c-3.4-1.9-8.5,0.8-10.1,4c-2.1,4.1,2,8.6,5.3,11c3.9,2.7,9.8,2.2,12.3-0.8
			c2.4-3,3.4-8,2.7-11.7c-0.8-4.5-3.2-8.1-6.2-11.4c-7.9-8.8-25.1-3.5-33.4,1.8c-7.3,4.7-14.7,9.3-22,14
			c-19.9,12.7-39.7,25.4-59.6,38c-6.3,4-12.1,8.3-8,16.6c3.7,7.6,21.3,13.1,21.8,0.3c0.1-3.8-3.2-6.7-6.7-7.4
			c-3.3-0.6-11.3,3.6-5.4,6.2c-4.5-2,0.4-5.6,2.4-6.3c9.2-3.3,17.8-10.1,26-15.2c13.4-8.4,26.8-17,40.1-25.5
			c6.8-4.4,13.6-9.2,20.8-13c5.1-2.7,23.1-6.6,22.6,3.2"/>
		<path class="st25" d="M565.8,549.6c0,0-17.1,21.5-69.8,22.7c-52.7,1.1-64.1,12.1-64.8,22c-0.7,9.9,11.9,4.4,11.9,4.4
			s-10.6-13.5,52.9-15.7c63.6-2.2,73.8-17.7,78.6-28.6C579.3,543.4,565.8,549.6,565.8,549.6z"/>
		<path class="st25" d="M185.1,660.5l225.7-0.5c16.8,0,38.3-10.9,45.4-26.7c3.5-7.8,5.2-19,3.1-27.4c-2.3-9.3-7.3-20.2-18.1-20.8
			c-5.9-0.3-10.2,0.3-13.8,5.8c-3.6,5.7-2.8,14.8,1.3,20c4.8,6,17.4,5.5,18.9-3.5c0.4-2.2-1.7-5.5-3.2-7c-2.5-2.5-3.5-1.1-6.6-1
			c3.6-1.6,5.4-1.3,8,2.2c11.9,16-9.5,38.7-23.9,43.9c-4,1.4-8.2,2.5-12.4,3.3c-6.6,1.2-12.3,2.2-19,2.2c-4.1,0-8.2,0-12.4,0
			c-12.7-0.1-25.3-0.1-38-0.2c-31.5-0.1-63-0.3-94.5-0.4c-16.6-0.1-33.2-0.1-49.8-0.2C196.1,650,187.2,655.6,185.1,660.5z"/>
		<path class="st25" d="M76.9,787.8c2.7,0,75,0,77.7,0c7.4,0,14.7,0,22.1,0c11,0,21.9,0,32.9,0c13.5,0,27,0,40.5,0
			c15.1,0,30.1-0.1,45.2,0c15.4,0,30.9,0,46.3,0c14.7,0,29.4,0.1,44.1,0.1c13.1,0,26.2-0.1,39.3,0c10.7,0.1,21.3-0.4,32-0.2
			c7.4,0.1,14.5,0.4,21.9-0.4c6.8-0.8,14-3,20.6-4.9c7.3-2,14.5-4.5,21.5-7.5c8-3.4,15.8-7.4,23.4-11.7c8.9-5,17.5-10.5,25.9-16.2
			c9.6-6.5,18.9-13.3,27.9-20.5c9.7-7.8,19.1-16.1,27.7-25.2c9.1-9.5,17.3-19.9,24.1-31.1c7.3-12,13-25,17.2-38.5
			c4.6-15,7.3-30.5,9-46.1c1.8-17.1,2.4-34.3,2.8-51.5c0.1-4.1,0.7-8.6,0.3-12.7c0,0,5.1-17.9,21.6-8.9c0,0,8.3,11.2-4.1,18.5
			c0,0-14.4,0.5-5.5-11.8c0.3-0.4,1.8-0.4,2.3-0.3c1.6,0.3,1.9,2,1.8,3.4c0.4-1.1,0.1-2.8-1-3.4c-1.3-0.7-2.5,0-3.4,1
			c-0.8,0.9-1.3,2.3-1.8,3.3c-0.6,1.3-1.4,2.5-1.5,4c-0.1,1.3,0,2.6,0,3.9c0.9,4.1,1.4,8.2,1.9,12.3c1.2,10.3,1.5,20.6,1.2,31
			c-0.5,14.7-2.3,29.4-5.6,43.7c-4,17.5-10.2,34.6-18.5,50.6c-9.8,18.9-22.5,36.2-37.4,51.5c-18.2,18.6-39.6,34-62.5,46.4
			c-13.7,7.5-28,13.9-42.5,19.5c-16.2,6.2-33.7,13.6-51.2,13.6c-14,0-27.9,0-41.9,0c-21.3,0-42.6,0-63.9,0c-24.2,0-48.5,0-72.7,0
			c-22.8,0-45.5,0-68.3,0c-16.9,0-33.8,0-50.7,0c-6.6,0-82.7,0-89.3,0"/>
		<path class="st33" d="M687.7,526.2c1.2-2.5,1.5-8.6,5.5-8.1c2.1,0.2,3.4,2.9,2.5,4.7c-1.1,2.2-4,0.1-3.2-1.9
			c-0.3,0.8,0.2,1.5,1,1.7c0.6,0.2,1.5,0.3,1.6-0.5c0-0.5-0.1-1.2-0.3-1.6c-0.6-1.3-2.2-1.9-3.6-0.9
			C689.5,520.7,688.6,524.4,687.7,526.2z"/>
		<path class="st33" d="M680,492.3C680,492.3,680,492.3,680,492.3c1.1,0.1,2.2,0.4,3,1.2c0.6,0.6,0.9,1.3,1.3,2
			c0.4,0.8,0.6,1.7,0.6,2.6c0,0.8,0.1,1.6,0,2.4c-0.1,0.6-0.4,1.2-0.8,1.6c-0.4,0.4-1,0.6-1.5,0.7c-1.4,0.3-3,0.1-3.8-1.2
			c-0.2-0.4-0.4-0.8-0.5-1.3c-0.2-1.1,0.4-2.3,1.4-2.8c0.4-0.2,0.8-0.4,1.2-0.3c0.4,0.1,0.7,0.5,1,0.8c-0.7-0.5-1.8-0.2-2.3,0.4
			c-0.4,0.4-0.5,1.1-0.5,1.6c0,1,1.3,1.6,2.2,1.6c1.4,0,2.4-1.3,2.2-2.6c-0.1-1.2-0.6-2.4-1.1-3.4c-0.2-0.3-0.3-0.6-0.5-0.9
			c-0.5-0.6-1-1.3-1.7-1.7c-0.7-0.5-1.4-0.6-2.2-0.7c-0.1,0-0.2,0-0.3,0C678.4,492.3,679.2,492.2,680,492.3z"/>
		<path class="st33" d="M563.1,556.3c-0.5-1.1-0.9-2.1-1.1-3c-0.2,0.1,0.1,0-0.1,0.1c0.2,1,0.4,2.2,1,3.3c1.2,2.4,4,4.2,7,5.7
			c0.1-0.2-0.1,0.2,0,0C566.8,560.9,564.3,558.7,563.1,556.3z"/>
		<path class="st33" d="M582.6,545.5c-0.3,0.3-1,0.4-1.5,0.6c-1.8,0.6-3.7,1.6-5.5,2.2c-0.5,0.1-0.9,0.3-1.3,0.5
			c-0.8,0.3-1.4,0.8-2,1.4c-1.5,1.6-3.1,4.4-1.1,6.3c0.6,0.6,1.8,1.2,2.6,1.3c0.9,0.1,2.3,0,3.1-0.4c0.6-0.3,1.5-1.1,1.7-1.7
			c0.4-1-0.1-2.8-1.2-3.2c-0.6-0.2-1.5,0.1-1.9,0.6c0.3-0.4,1.3-0.2,1.6,0.1c0.5,0.4,0.8,1.2,0.6,1.9c-0.3,1.5-2.2,1.6-3.4,1.5
			c-1.3-0.1-2.6-1.1-2.7-2.4c-0.1-3.9,4.3-5.2,7.2-6.5C580.2,547.1,581.8,546.3,582.6,545.5z"/>
		<path class="st33" d="M435.8,585.1c-0.3,0.2,0.1-0.1-0.2,0.2c1.7-0.3,3.6-0.3,5.7-0.2c3.8,0.2,6.9,1.7,9.4,4
			c0.3-0.1-0.3,0.1,0.1,0c-2.6-2.4-5.2-4-9.2-4.2C439.5,584.7,437.5,584.9,435.8,585.1z"/>
		<path class="st33" d="M448.9,607.5c-0.2-0.3-0.2-0.9-0.3-1.3c-0.4-1.1-0.7-2.1-1.1-3.2c-0.7-1.7-2-3.6-3.5-4.6
			c-1.7-1.2-3.7-1.4-5.6-0.7c-2.1,0.8-4.4,1.9-5.3,4.1c-0.3,0.8,0,2.3,0.4,3c0.7,1.1,1.9,1.7,3,2.3c0.8,0.4,1.6,0.8,2.6,0.6
			c1.7-0.4,3.9-3.3,2.8-5c-0.3-0.5-1.3-1-1.9-1.1c-0.8-0.1-2,0.5-2.4,1.2c0.3-0.6,1.8-0.7,2.3-0.4c0.9,0.5,1.2,2.1,0.6,2.9
			c-0.9,1.3-2.8,0.8-3.9,0.1c-0.6-0.4-1.2-0.9-1.5-1.5c-0.3-0.6-0.3-1.7,0-2.4c0.4-0.8,1.6-1.6,2.4-2c1-0.5,2.1-0.6,3.1-0.5
			c2.4,0.4,4,2.1,5.3,4C447,604.5,448.1,606,448.9,607.5z"/>
	</g>
	<g id="ใส่สมอเท่เสมอ">
		<path class="st25" d="M205,650v10.5l-181.3,0c0,0-4.4-4.8-7.8-10.5L205,650L205,650z"/>
		<path class="st34" d="M570.8,627.7l-8.3,7.9l2.5,0.7c-3.6,5.9-10.1,8.5-17.5,9v-30h6.9c0.6,0.6,1.4,0.9,2.2,0.9
			c1.7,0,3.2-1.4,3.2-3.2c0-1.8-1.4-3.2-3.2-3.2c-0.9,0-1.7,0.4-2.2,0.9h-6.9v-3.6c3.3-1.3,5.7-4.5,5.7-8.3c0-4.9-4-9-9-9
			c-4.9,0-9,4-9,9c0,4.1,2.7,7.5,6.5,8.6v3.4h-7.6c-0.6-0.6-1.4-0.9-2.2-0.9c-1.7,0-3.2,1.4-3.2,3.2c0,1.8,1.4,3.2,3.2,3.2
			c0.9,0,1.7-0.4,2.2-0.9h7.6v30c-7.8-0.6-14.6-3.6-18.1-10l2.5-0.6l-7.7-8.4l-3.5,10.9l2.9-0.7c4.3,9.4,14,16.9,25,17.6l1.7,3.5
			l1.7-3.4c10.5-0.7,19.8-7.6,24.4-16.2l2.8,0.8L570.8,627.7z M539.7,599c0-2.5,2.1-4.6,4.6-4.6c2.5,0,4.6,2.1,4.6,4.6
			c0,2.5-2.1,4.6-4.6,4.6C541.8,603.6,539.7,601.5,539.7,599z"/>
		<path class="st35" d="M572.9,626.3l-8.3,7.9l2.5,0.7c-3.6,5.9-10.1,8.5-17.5,9v-30h6.9c0.6,0.6,1.4,0.9,2.2,0.9
			c1.7,0,3.2-1.4,3.2-3.2c0-1.8-1.4-3.2-3.2-3.2c-0.9,0-1.7,0.4-2.2,0.9h-6.9v-3.6c3.3-1.3,5.7-4.5,5.7-8.3c0-4.9-4-9-9-9
			c-4.9,0-9,4-9,9c0,4.1,2.7,7.5,6.5,8.6v3.4h-7.6c-0.6-0.6-1.4-0.9-2.2-0.9c-1.7,0-3.2,1.4-3.2,3.2c0,1.8,1.4,3.2,3.2,3.2
			c0.9,0,1.7-0.4,2.2-0.9h7.6v30c-7.8-0.6-14.6-3.6-18.1-10l2.5-0.6l-7.7-8.4l-3.4,10.9l2.9-0.7c4.3,9.4,14,16.9,25,17.6l1.7,3.5
			l1.7-3.4c10.5-0.7,19.8-7.6,24.4-16.2l2.8,0.8L572.9,626.3z M541.7,597.5c0-2.5,2.1-4.6,4.6-4.6c2.5,0,4.6,2.1,4.6,4.6
			c0,2.5-2.1,4.6-4.6,4.6C543.8,602.1,541.7,600.1,541.7,597.5z"/>
	</g>
	<g id="Layer_10">
		<path class="st36" d="M152.9,698.4c-5.6,0-10.6,2.2-14.4,5.7c-3.5,3.8-5.7,8.8-5.7,14.4c0,11.7,9.4,21.1,21.1,21.1
			c5.6,0,10.6-2.2,14.4-5.7c3.5-3.8,5.7-8.8,5.7-14.4C174,707.8,164.5,698.4,152.9,698.4z"/>
		<path class="st36" d="M290.1,698.9c-5.6,0-10.6,2.2-14.4,5.7c-3.5,3.8-5.7,8.8-5.7,14.4c0,11.7,9.4,21.1,21.1,21.1
			c5.6,0,10.6-2.2,14.4-5.7c3.5-3.8,5.7-8.8,5.7-14.4C311.2,708.3,301.8,698.9,290.1,698.9z"/>
		<path class="st36" d="M427.4,701.2c-5.6,0-10.6,2.2-14.4,5.7c-3.5,3.8-5.7,8.8-5.7,14.4c0,11.7,9.4,21.1,21.1,21.1
			c5.6,0,10.6-2.2,14.4-5.7c3.5-3.8,5.7-8.8,5.7-14.4C448.5,710.7,439,701.2,427.4,701.2z"/>
	</g>
	<g id="เชือก">
		<path class="st37" d="M545.6,597.5c1,0.1,1.9-0.3,2.7-0.9c0.6-0.5,1.2-1,1.6-1.7c0.6-0.9,1-1.9,1.3-2.9c0.5-1.4,0.6-2.8,0.8-4.3
			c0-0.2,0-0.4,0-0.6c0.3-7-1.9-14.8-6.2-20.3c-0.9-1.1-2-2.3-3.5-2.6c-3.8-1-6.3-1.6-6.3,2.2c0,1.1,2.4,2.7,3.1,3.4
			c2.7,2.8,3.3,6.8,4.1,10.5c0.8,3.4,1.4,6.9,1.6,10.4c0,0.6,0.2,2.4-0.5,2.8c-0.5,0.3-1.1,0.6-1.4,1.1c-0.5,0.7,0,1.6,0.6,2.1
			c0.3,0.3,0.7,0.5,1.1,0.7C544.9,597.4,545.2,597.4,545.6,597.5z"/>
		<g>
			<g>
				<path id="XMLID_2_" class="st38" d="M550,594.9c0.6-0.9,1-1.9,1.3-2.9c0.5-1.4,0.6-2.8,0.8-4.3c0-0.2,0-0.4,0-0.6
					c0.3-7-1.9-14.8-6.2-20.3c-0.9-1.1-2-2.3-3.5-2.6c-3-0.8-5.3-1.3-6,0.5c0.4,0.5,1.1,0.9,1.6,1.1c2.7,1.5,4.1,3.7,5,6.6
					c0.3,0.9,0.5,1.9,0.7,2.8c0.3,1.1,0.4,2.2,0.7,3.3c0.8,3.7,1.5,7.5,1.6,11.3c0,0.6,0.2,2.6-0.5,3c-0.5,0.3-1.1,0.6-1.5,1.1
					c-0.5,0.8,0,1.7,0.6,2.2c0.3,0.3,0.7,0.5,1.1,0.7c0.4,0.2,0.7,0.3,1.1,0.3c0.2,0,0.5,0,0.7,0c0.3-0.1,0.6-0.3,0.8-0.5
					C549,596.1,549.6,595.5,550,594.9z"/>
			</g>
			<g>
				<g>
					<g>
						<path id="SVGID_9_" class="st38" d="M550,594.9c0.6-0.9,1-1.9,1.3-2.9c0.5-1.4,0.6-2.8,0.8-4.3c0-0.2,0-0.4,0-0.6
							c0.3-7-1.9-14.8-6.2-20.3c-0.9-1.1-2-2.3-3.5-2.6c-3-0.8-5.3-1.3-6,0.5c0.4,0.5,1.1,0.9,1.6,1.1c2.7,1.5,4.1,3.7,5,6.6
							c0.3,0.9,0.5,1.9,0.7,2.8c0.3,1.1,0.4,2.2,0.7,3.3c0.8,3.7,1.5,7.5,1.6,11.3c0,0.6,0.2,2.6-0.5,3c-0.5,0.3-1.1,0.6-1.5,1.1
							c-0.5,0.8,0,1.7,0.6,2.2c0.3,0.3,0.7,0.5,1.1,0.7c0.4,0.2,0.7,0.3,1.1,0.3c0.2,0,0.5,0,0.7,0c0.3-0.1,0.6-0.3,0.8-0.5
							C549,596.1,549.6,595.5,550,594.9z"/>
					</g>
					<g>
						<defs>
							<path id="SVGID_20_" d="M550,594.9c0.6-0.9,1-1.9,1.3-2.9c0.5-1.4,0.6-2.8,0.8-4.3c0-0.2,0-0.4,0-0.6
								c0.3-7-1.9-14.8-6.2-20.3c-0.9-1.1-2-2.3-3.5-2.6c-3-0.8-5.3-1.3-6,0.5c0.4,0.5,1.1,0.9,1.6,1.1c2.7,1.5,4.1,3.7,5,6.6
								c0.3,0.9,0.5,1.9,0.7,2.8c0.3,1.1,0.4,2.2,0.7,3.3c0.8,3.7,1.5,7.5,1.6,11.3c0,0.6,0.2,2.6-0.5,3c-0.5,0.3-1.1,0.6-1.5,1.1
								c-0.5,0.8,0,1.7,0.6,2.2c0.3,0.3,0.7,0.5,1.1,0.7c0.4,0.2,0.7,0.3,1.1,0.3c0.2,0,0.5,0,0.7,0c0.3-0.1,0.6-0.3,0.8-0.5
								C549,596.1,549.6,595.5,550,594.9z"/>
						</defs>
						<clipPath id="SVGID_21_">
							<use xlink:href="#SVGID_20_"  style="overflow:visible;"/>
						</clipPath>
						<path class="st39" d="M542.1,592.9c0,0,3.9,4,10,3c3.5-0.6-0.5,0.6-0.5,0.6l-9.5-3.7L542.1,592.9z"/>
					</g>
				</g>
			</g>
			<g>
				<g>
					<g>
						<path id="SVGID_11_" class="st38" d="M550,594.9c0.6-0.9,1-1.9,1.3-2.9c0.5-1.4,0.6-2.8,0.8-4.3c0-0.2,0-0.4,0-0.6
							c0.3-7-1.9-14.8-6.2-20.3c-0.9-1.1-2-2.3-3.5-2.6c-3-0.8-5.3-1.3-6,0.5c0.4,0.5,1.1,0.9,1.6,1.1c2.7,1.5,4.1,3.7,5,6.6
							c0.3,0.9,0.5,1.9,0.7,2.8c0.3,1.1,0.4,2.2,0.7,3.3c0.8,3.7,1.5,7.5,1.6,11.3c0,0.6,0.2,2.6-0.5,3c-0.5,0.3-1.1,0.6-1.5,1.1
							c-0.5,0.8,0,1.7,0.6,2.2c0.3,0.3,0.7,0.5,1.1,0.7c0.4,0.2,0.7,0.3,1.1,0.3c0.2,0,0.5,0,0.7,0c0.3-0.1,0.6-0.3,0.8-0.5
							C549,596.1,549.6,595.5,550,594.9z"/>
					</g>
					<g>
						<defs>
							<path id="SVGID_22_" d="M550,594.9c0.6-0.9,1-1.9,1.3-2.9c0.5-1.4,0.6-2.8,0.8-4.3c0-0.2,0-0.4,0-0.6
								c0.3-7-1.9-14.8-6.2-20.3c-0.9-1.1-2-2.3-3.5-2.6c-3-0.8-5.3-1.3-6,0.5c0.4,0.5,1.1,0.9,1.6,1.1c2.7,1.5,4.1,3.7,5,6.6
								c0.3,0.9,0.5,1.9,0.7,2.8c0.3,1.1,0.4,2.2,0.7,3.3c0.8,3.7,1.5,7.5,1.6,11.3c0,0.6,0.2,2.6-0.5,3c-0.5,0.3-1.1,0.6-1.5,1.1
								c-0.5,0.8,0,1.7,0.6,2.2c0.3,0.3,0.7,0.5,1.1,0.7c0.4,0.2,0.7,0.3,1.1,0.3c0.2,0,0.5,0,0.7,0c0.3-0.1,0.6-0.3,0.8-0.5
								C549,596.1,549.6,595.5,550,594.9z"/>
						</defs>
						<clipPath id="SVGID_23_">
							<use xlink:href="#SVGID_22_"  style="overflow:visible;"/>
						</clipPath>
						<path class="st40" d="M543.5,588c0,0,8.6,2.7,10.9-1.5c1.7-3.1-0.7,1-0.7,1l-10.2,0.2L543.5,588z"/>
					</g>
				</g>
			</g>
			<g>
				<g>
					<g>
						<path id="SVGID_13_" class="st38" d="M550,594.9c0.6-0.9,1-1.9,1.3-2.9c0.5-1.4,0.6-2.8,0.8-4.3c0-0.2,0-0.4,0-0.6
							c0.3-7-1.9-14.8-6.2-20.3c-0.9-1.1-2-2.3-3.5-2.6c-3-0.8-5.3-1.3-6,0.5c0.4,0.5,1.1,0.9,1.6,1.1c2.7,1.5,4.1,3.7,5,6.6
							c0.3,0.9,0.5,1.9,0.7,2.8c0.3,1.1,0.4,2.2,0.7,3.3c0.8,3.7,1.5,7.5,1.6,11.3c0,0.6,0.2,2.6-0.5,3c-0.5,0.3-1.1,0.6-1.5,1.1
							c-0.5,0.8,0,1.7,0.6,2.2c0.3,0.3,0.7,0.5,1.1,0.7c0.4,0.2,0.7,0.3,1.1,0.3c0.2,0,0.5,0,0.7,0c0.3-0.1,0.6-0.3,0.8-0.5
							C549,596.1,549.6,595.5,550,594.9z"/>
					</g>
					<g>
						<defs>
							<path id="SVGID_24_" d="M550,594.9c0.6-0.9,1-1.9,1.3-2.9c0.5-1.4,0.6-2.8,0.8-4.3c0-0.2,0-0.4,0-0.6
								c0.3-7-1.9-14.8-6.2-20.3c-0.9-1.1-2-2.3-3.5-2.6c-3-0.8-5.3-1.3-6,0.5c0.4,0.5,1.1,0.9,1.6,1.1c2.7,1.5,4.1,3.7,5,6.6
								c0.3,0.9,0.5,1.9,0.7,2.8c0.3,1.1,0.4,2.2,0.7,3.3c0.8,3.7,1.5,7.5,1.6,11.3c0,0.6,0.2,2.6-0.5,3c-0.5,0.3-1.1,0.6-1.5,1.1
								c-0.5,0.8,0,1.7,0.6,2.2c0.3,0.3,0.7,0.5,1.1,0.7c0.4,0.2,0.7,0.3,1.1,0.3c0.2,0,0.5,0,0.7,0c0.3-0.1,0.6-0.3,0.8-0.5
								C549,596.1,549.6,595.5,550,594.9z"/>
						</defs>
						<clipPath id="SVGID_25_">
							<use xlink:href="#SVGID_24_"  style="overflow:visible;"/>
						</clipPath>
						<path class="st41" d="M539.9,571.6c0,0,6.3,1.2,10-3.4c2.2-2.7-0.2,0.6-0.2,0.6L539.9,571.6L539.9,571.6z"/>
					</g>
				</g>
			</g>
			<g>
				<g>
					<g>
						<path id="SVGID_15_" class="st38" d="M550,594.9c0.6-0.9,1-1.9,1.3-2.9c0.5-1.4,0.6-2.8,0.8-4.3c0-0.2,0-0.4,0-0.6
							c0.3-7-1.9-14.8-6.2-20.3c-0.9-1.1-2-2.3-3.5-2.6c-3-0.8-5.3-1.3-6,0.5c0.4,0.5,1.1,0.9,1.6,1.1c2.7,1.5,4.1,3.7,5,6.6
							c0.3,0.9,0.5,1.9,0.7,2.8c0.3,1.1,0.4,2.2,0.7,3.3c0.8,3.7,1.5,7.5,1.6,11.3c0,0.6,0.2,2.6-0.5,3c-0.5,0.3-1.1,0.6-1.5,1.1
							c-0.5,0.8,0,1.7,0.6,2.2c0.3,0.3,0.7,0.5,1.1,0.7c0.4,0.2,0.7,0.3,1.1,0.3c0.2,0,0.5,0,0.7,0c0.3-0.1,0.6-0.3,0.8-0.5
							C549,596.1,549.6,595.5,550,594.9z"/>
					</g>
					<g>
						<defs>
							<path id="SVGID_26_" d="M550,594.9c0.6-0.9,1-1.9,1.3-2.9c0.5-1.4,0.6-2.8,0.8-4.3c0-0.2,0-0.4,0-0.6
								c0.3-7-1.9-14.8-6.2-20.3c-0.9-1.1-2-2.3-3.5-2.6c-3-0.8-5.3-1.3-6,0.5c0.4,0.5,1.1,0.9,1.6,1.1c2.7,1.5,4.1,3.7,5,6.6
								c0.3,0.9,0.5,1.9,0.7,2.8c0.3,1.1,0.4,2.2,0.7,3.3c0.8,3.7,1.5,7.5,1.6,11.3c0,0.6,0.2,2.6-0.5,3c-0.5,0.3-1.1,0.6-1.5,1.1
								c-0.5,0.8,0,1.7,0.6,2.2c0.3,0.3,0.7,0.5,1.1,0.7c0.4,0.2,0.7,0.3,1.1,0.3c0.2,0,0.5,0,0.7,0c0.3-0.1,0.6-0.3,0.8-0.5
								C549,596.1,549.6,595.5,550,594.9z"/>
						</defs>
						<clipPath id="SVGID_27_">
							<use xlink:href="#SVGID_26_"  style="overflow:visible;"/>
						</clipPath>
						<path class="st42" d="M543,580.7c0,0,8.2,1.5,10.6-1.2c2.3-2.6-0.4,0-0.4,0l-10.2,0.3L543,580.7z"/>
					</g>
				</g>
			</g>
			<g>
				<g>
					<g>
						<path id="SVGID_17_" class="st38" d="M550,594.9c0.6-0.9,1-1.9,1.3-2.9c0.5-1.4,0.6-2.8,0.8-4.3c0-0.2,0-0.4,0-0.6
							c0.3-7-1.9-14.8-6.2-20.3c-0.9-1.1-2-2.3-3.5-2.6c-3-0.8-5.3-1.3-6,0.5c0.4,0.5,1.1,0.9,1.6,1.1c2.7,1.5,4.1,3.7,5,6.6
							c0.3,0.9,0.5,1.9,0.7,2.8c0.3,1.1,0.4,2.2,0.7,3.3c0.8,3.7,1.5,7.5,1.6,11.3c0,0.6,0.2,2.6-0.5,3c-0.5,0.3-1.1,0.6-1.5,1.1
							c-0.5,0.8,0,1.7,0.6,2.2c0.3,0.3,0.7,0.5,1.1,0.7c0.4,0.2,0.7,0.3,1.1,0.3c0.2,0,0.5,0,0.7,0c0.3-0.1,0.6-0.3,0.8-0.5
							C549,596.1,549.6,595.5,550,594.9z"/>
					</g>
					<g>
						<defs>
							<path id="SVGID_28_" d="M550,594.9c0.6-0.9,1-1.9,1.3-2.9c0.5-1.4,0.6-2.8,0.8-4.3c0-0.2,0-0.4,0-0.6
								c0.3-7-1.9-14.8-6.2-20.3c-0.9-1.1-2-2.3-3.5-2.6c-3-0.8-5.3-1.3-6,0.5c0.4,0.5,1.1,0.9,1.6,1.1c2.7,1.5,4.1,3.7,5,6.6
								c0.3,0.9,0.5,1.9,0.7,2.8c0.3,1.1,0.4,2.2,0.7,3.3c0.8,3.7,1.5,7.5,1.6,11.3c0,0.6,0.2,2.6-0.5,3c-0.5,0.3-1.1,0.6-1.5,1.1
								c-0.5,0.8,0,1.7,0.6,2.2c0.3,0.3,0.7,0.5,1.1,0.7c0.4,0.2,0.7,0.3,1.1,0.3c0.2,0,0.5,0,0.7,0c0.3-0.1,0.6-0.3,0.8-0.5
								C549,596.1,549.6,595.5,550,594.9z"/>
						</defs>
						<clipPath id="SVGID_29_">
							<use xlink:href="#SVGID_28_"  style="overflow:visible;"/>
						</clipPath>
						<path class="st43" d="M537,567.5c0,0,5.9,0.4,6.9-5.9c0.6-3.5-0.3,1.1-0.3,1.1l-6.5,4.5L537,567.5z"/>
					</g>
				</g>
			</g>
		</g>
		<path class="st44" d="M545.9,587.7c-0.2-2.2-0.5-4.5-1-6.7c1.9,0.2,4.8,0.3,6.8-0.3c-0.1-0.3-0.1-0.7-0.2-1l-6.9,0.2
			c-0.1-0.5-0.2-0.9-0.3-1.4c-0.2-1.1-0.4-2.2-0.7-3.3c-0.2-1-0.5-1.9-0.7-2.8c-0.1-0.2-0.1-0.4-0.2-0.6c1.5-0.1,3.5-0.5,5.2-1.7
			c-0.1-0.2-0.2-0.4-0.4-0.6l-5.2,1.5c-0.6-1.5-1.5-2.8-2.7-3.9c1.1-0.4,2.3-1.2,3.2-2.6c-0.1-0.1-0.3-0.1-0.5-0.2
			c-0.2-0.1-0.5-0.1-0.7-0.2l-3.1,2.2c0,0,0,0,0,0c-0.2-0.1-0.4-0.3-0.7-0.4c-0.4-0.2-1.2-0.6-1.6-1.1c0.4-0.9,1.1-1.2,2.1-1.2
			c-1.6,0-2.5,0.7-2.5,2.9c0,1.1,2.4,2.7,3.1,3.4c2.7,2.8,3.3,6.8,4.1,10.5c0.8,3.4,1.4,6.9,1.6,10.4c0,0.6,0.2,2.4-0.5,2.8
			c-0.5,0.3-1.1,0.6-1.4,1.1c-0.5,0.7,0,1.6,0.6,2.1c0.3,0.3,0.7,0.5,1.1,0.7c0.4,0.2,0.7,0.3,1.1,0.3c0.7,0.1,1.3-0.1,1.9-0.4
			c-0.2,0-0.4,0-0.6,0c-0.4,0-0.7-0.1-1.1-0.3c-0.4-0.2-0.8-0.4-1.1-0.7c-0.5-0.4-0.9-1.2-0.8-1.8c1.2,0.7,2.9,1.5,5.2,1.7
			c0.1-0.1,0.3-0.3,0.4-0.4l-5.1-2c0.3-0.4,0.8-0.6,1.2-0.9c0.7-0.4,0.5-2.4,0.5-3c0-0.4-0.1-0.7-0.1-1.1c1.8,0.3,4.2,0.5,6.1-0.2
			c0-0.2,0-0.5,0.1-0.7c0-0.1,0-0.1,0-0.2L545.9,587.7z"/>
	</g>
	<g id="circle-window">
		<g id="windows">
			<g id="circle">
				<path id="_x33_" class="st45" d="M156,737.4c6.5,0,12.3-2.8,16.4-7.3c1.9-3.2,2.9-7,2.9-11c0-12.2-9.9-22-22-22
					c-6.5,0-12.3,2.8-16.4,7.3c-1.9,3.2-2.9,7-2.9,11C133.9,727.5,143.8,737.4,156,737.4z"/>
				<path id="_x32_" class="st45" d="M293.2,737.9c6.5,0,12.3-2.8,16.4-7.3c1.9-3.2,2.9-7,2.9-11c0-12.2-9.9-22-22-22
					c-6.5,0-12.3,2.8-16.4,7.3c-1.9,3.2-2.9,7-2.9,11C271.2,728,281,737.9,293.2,737.9z"/>
				<path id="_x31_" class="st45" d="M430.5,740.2c6.5,0,12.3-2.8,16.4-7.3c1.9-3.2,2.9-7,2.9-11c0-12.2-9.9-22-22-22
					c-6.5,0-12.3,2.8-16.4,7.3c-1.9,3.2-2.9,7-2.9,11C408.4,730.4,418.3,740.2,430.5,740.2z"/>
			</g>
			<g id="shadow">
				<path id="_x33__1_" class="st46" d="M156,737.4c-12.2,0-22-9.9-22-22c0-4,1.1-7.7,2.9-11c-3.5,3.9-5.7,9.1-5.7,14.7
					c0,12.2,9.9,22,22,22c8.2,0,15.3-4.5,19.1-11.1C168.3,734.6,162.5,737.4,156,737.4z"/>
				<path id="_x32__1_" class="st46" d="M293.2,737.9c-12.2,0-22-9.9-22-22c0-4,1.1-7.7,2.9-11c-3.5,3.9-5.7,9-5.7,14.7
					c0,12.2,9.9,22,22,22c8.2,0,15.3-4.5,19.1-11.1C305.5,735,299.7,737.9,293.2,737.9z"/>
				<path id="_x31__1_" class="st46" d="M430.5,740.2c-12.2,0-22-9.9-22-22c0-4,1.1-7.7,2.9-11c-3.5,3.9-5.7,9-5.7,14.7
					c0,12.2,9.9,22,22,22c8.2,0,15.3-4.5,19.1-11.1C442.8,737.4,437,740.2,430.5,740.2z"/>
			</g>
		</g>
		<g id="รูเล็ก__x2B__ขอบ">
			<g id="รู3">
				<path class="st33" d="M121.7,718.5c0-8.6,3.4-16.5,8.9-22.2c-6.1,5.9-10,14.1-10,23.3c0,17.8,14.4,32.2,32.2,32.2
					c9.1,0,17.4-3.8,23.3-10c-5.8,5.5-13.6,8.9-22.2,8.9C136.1,750.7,121.7,736.2,121.7,718.5z"/>
				<path class="st33" d="M153.9,741.4c-0.7,0-1.2,0.5-1.4,1.1c0.1,0,0.3-0.1,0.4-0.1c0.8,0,1.5,0.7,1.5,1.5c0,0.1,0,0.3-0.1,0.4
					c0.6-0.2,1.1-0.7,1.1-1.4C155.4,742.1,154.7,741.4,153.9,741.4z"/>
				<path class="st33" d="M136.1,734.7c-0.7,0-1.2,0.5-1.4,1.1c0.1,0,0.3-0.1,0.4-0.1c0.8,0,1.5,0.7,1.5,1.5c0,0.1,0,0.3-0.1,0.4
					c0.6-0.2,1.1-0.7,1.1-1.4C137.6,735.4,137,734.7,136.1,734.7z"/>
				<path class="st33" d="M135.5,703.9c0,0.1,0,0.3-0.1,0.4c0.6-0.2,1.1-0.7,1.1-1.4c0-0.8-0.7-1.5-1.5-1.5c-0.7,0-1.2,0.5-1.4,1.1
					c0.1,0,0.3-0.1,0.4-0.1C134.8,702.4,135.5,703.1,135.5,703.9z"/>
				<path class="st33" d="M129.5,717c-0.7,0-1.2,0.5-1.4,1.1c0.1,0,0.3-0.1,0.4-0.1c0.8,0,1.5,0.7,1.5,1.5c0,0.1,0,0.3-0.1,0.4
					c0.6-0.2,1.1-0.7,1.1-1.4C131,717.6,130.3,717,129.5,717z"/>
				<path class="st33" d="M154.4,695.1c0,0.1,0,0.3-0.1,0.4c0.6-0.2,1.1-0.7,1.1-1.4c0-0.8-0.7-1.5-1.5-1.5c-0.7,0-1.2,0.5-1.4,1.1
					c0.1,0,0.3-0.1,0.4-0.1C153.7,693.6,154.4,694.2,154.4,695.1z"/>
				<path class="st33" d="M125.8,718.5c0-7.5,3-14.3,7.8-19.3c-5.4,5.1-8.8,12.3-8.8,20.4c0,1,0.1,1.9,0.1,2.8
					c1.7,13,12.1,23.4,25.1,25.1c0.9,0.1,1.9,0.1,2.8,0.1c8,0,15.2-3.4,20.4-8.8c-5,4.8-11.8,7.8-19.3,7.8
					C138.4,746.6,125.8,734,125.8,718.5z"/>
				<path class="st33" d="M172.2,702.8c0,0.1,0,0.3-0.1,0.4c0.6-0.2,1.1-0.7,1.1-1.4c0-0.8-0.7-1.5-1.5-1.5c-0.7,0-1.2,0.5-1.4,1.1
					c0.1,0,0.3-0.1,0.4-0.1C171.5,701.3,172.2,702,172.2,702.8z"/>
				<path class="st33" d="M179.8,718.5c0-0.8-0.7-1.5-1.5-1.5c-0.7,0-1.2,0.5-1.4,1.1c0.1,0,0.3-0.1,0.4-0.1c0.8,0,1.5,0.7,1.5,1.5
					c0,0.1,0,0.3-0.1,0.4C179.4,719.7,179.8,719.2,179.8,718.5z"/>
				<path class="st33" d="M153.9,697.4c-6.1,0-11.6,2.6-15.4,6.7c3.8-3.5,8.8-5.7,14.4-5.7c11.7,0,21.1,9.4,21.1,21.1
					c0,5.6-2.2,10.6-5.7,14.4c4.1-3.9,6.7-9.3,6.7-15.4C175,706.8,165.6,697.4,153.9,697.4z"/>
				<path class="st33" d="M170.6,734.7c-0.7,0-1.2,0.5-1.4,1.1c0.1,0,0.3-0.1,0.4-0.1c0.8,0,1.5,0.7,1.5,1.5c0,0.1,0,0.3-0.1,0.4
					c0.6-0.2,1.1-0.7,1.1-1.4C172.1,735.4,171.4,734.7,170.6,734.7z"/>
			</g>
			<g id="รู2">
				<path class="st33" d="M258.9,718.9c0-8.6,3.4-16.5,8.9-22.2c-6.1,5.9-10,14.1-10,23.3c0,17.8,14.4,32.2,32.2,32.2
					c9.1,0,17.4-3.8,23.3-10c-5.8,5.5-13.6,8.9-22.2,8.9C273.3,751.2,258.9,736.7,258.9,718.9z"/>
				<path class="st33" d="M291.1,741.9c-0.7,0-1.2,0.5-1.4,1.1c0.1,0,0.3-0.1,0.4-0.1c0.8,0,1.5,0.7,1.5,1.5c0,0.1,0,0.3-0.1,0.4
					c0.6-0.2,1.1-0.7,1.1-1.4C292.6,742.5,291.9,741.9,291.1,741.9z"/>
				<path class="st33" d="M273.3,735.2c-0.7,0-1.2,0.5-1.4,1.1c0.1,0,0.3-0.1,0.4-0.1c0.8,0,1.5,0.7,1.5,1.5c0,0.1,0,0.3-0.1,0.4
					c0.6-0.2,1.1-0.7,1.1-1.4C274.8,735.9,274.2,735.2,273.3,735.2z"/>
				<path class="st33" d="M272.7,704.4c0,0.1,0,0.3-0.1,0.4c0.6-0.2,1.1-0.7,1.1-1.4c0-0.8-0.7-1.5-1.5-1.5c-0.7,0-1.2,0.5-1.4,1.1
					c0.1,0,0.3-0.1,0.4-0.1C272,702.9,272.7,703.6,272.7,704.4z"/>
				<path class="st33" d="M266.7,717.4c-0.7,0-1.2,0.5-1.4,1.1c0.1,0,0.3-0.1,0.4-0.1c0.8,0,1.5,0.7,1.5,1.5c0,0.1,0,0.3-0.1,0.4
					c0.6-0.2,1.1-0.7,1.1-1.4C268.2,718.1,267.5,717.4,266.7,717.4z"/>
				<path class="st33" d="M291.6,695.5c0,0.1,0,0.3-0.1,0.4c0.6-0.2,1.1-0.7,1.1-1.4c0-0.8-0.7-1.5-1.5-1.5c-0.7,0-1.2,0.5-1.4,1.1
					c0.1,0,0.3-0.1,0.4-0.1C290.9,694,291.6,694.7,291.6,695.5z"/>
				<path class="st33" d="M263,718.9c0-7.5,3-14.3,7.8-19.3c-5.4,5.1-8.8,12.3-8.8,20.4c0,1,0.1,1.9,0.1,2.8
					c1.7,13,12.1,23.4,25.1,25.1c0.9,0.1,1.9,0.1,2.8,0.1c8,0,15.2-3.4,20.4-8.8c-5,4.8-11.8,7.8-19.3,7.8
					C275.6,747,263,734.4,263,718.9z"/>
				<path class="st33" d="M309.4,703.3c0,0.1,0,0.3-0.1,0.4c0.6-0.2,1.1-0.7,1.1-1.4c0-0.8-0.7-1.5-1.5-1.5c-0.7,0-1.2,0.5-1.4,1.1
					c0.1,0,0.3-0.1,0.4-0.1C308.7,701.8,309.4,702.5,309.4,703.3z"/>
				<path class="st33" d="M317.1,718.9c0-0.8-0.7-1.5-1.5-1.5c-0.7,0-1.2,0.5-1.4,1.1c0.1,0,0.3-0.1,0.4-0.1c0.8,0,1.5,0.7,1.5,1.5
					c0,0.1,0,0.3-0.1,0.4C316.6,720.2,317.1,719.6,317.1,718.9z"/>
				<path class="st33" d="M291.1,697.8c-6.1,0-11.6,2.6-15.4,6.7c3.8-3.5,8.8-5.7,14.4-5.7c11.7,0,21.1,9.4,21.1,21.1
					c0,5.6-2.2,10.6-5.7,14.4c4.1-3.9,6.7-9.3,6.7-15.4C312.2,707.3,302.8,697.8,291.1,697.8z"/>
				<path class="st33" d="M307.8,735.2c-0.7,0-1.2,0.5-1.4,1.1c0.1,0,0.3-0.1,0.4-0.1c0.8,0,1.5,0.7,1.5,1.5c0,0.1,0,0.3-0.1,0.4
					c0.6-0.2,1.1-0.7,1.1-1.4C309.3,735.9,308.6,735.2,307.8,735.2z"/>
			</g>
			<g id="รู1">
				<path class="st33" d="M396.2,721.3c0-8.6,3.4-16.5,8.9-22.2c-6.1,5.9-10,14.1-10,23.3c0,17.8,14.4,32.2,32.2,32.2
					c9.1,0,17.4-3.8,23.3-10c-5.8,5.5-13.6,8.9-22.2,8.9C410.6,753.5,396.2,739.1,396.2,721.3z"/>
				<path class="st33" d="M428.4,744.2c-0.7,0-1.2,0.5-1.4,1.1c0.1,0,0.3-0.1,0.4-0.1c0.8,0,1.5,0.7,1.5,1.5c0,0.1,0,0.3-0.1,0.4
					c0.6-0.2,1.1-0.7,1.1-1.4C429.9,744.9,429.2,744.2,428.4,744.2z"/>
				<path class="st33" d="M410.6,737.6c-0.7,0-1.2,0.5-1.4,1.1c0.1,0,0.3-0.1,0.4-0.1c0.8,0,1.5,0.7,1.5,1.5c0,0.1,0,0.3-0.1,0.4
					c0.6-0.2,1.1-0.7,1.1-1.4C412.1,738.2,411.5,737.6,410.6,737.6z"/>
				<path class="st33" d="M410,706.8c0,0.1,0,0.3-0.1,0.4c0.6-0.2,1.1-0.7,1.1-1.4c0-0.8-0.7-1.5-1.5-1.5c-0.7,0-1.2,0.5-1.4,1.1
					c0.1,0,0.3-0.1,0.4-0.1C409.3,705.3,410,705.9,410,706.8z"/>
				<path class="st33" d="M404,719.8c-0.7,0-1.2,0.5-1.4,1.1c0.1,0,0.3-0.1,0.4-0.1c0.8,0,1.5,0.7,1.5,1.5c0,0.1,0,0.3-0.1,0.4
					c0.6-0.2,1.1-0.7,1.1-1.4C405.5,720.5,404.8,719.8,404,719.8z"/>
				<path class="st33" d="M428.9,697.9c0,0.1,0,0.3-0.1,0.4c0.6-0.2,1.1-0.7,1.1-1.4c0-0.8-0.7-1.5-1.5-1.5c-0.7,0-1.2,0.5-1.4,1.1
					c0.1,0,0.3-0.1,0.4-0.1C428.2,696.4,428.9,697,428.9,697.9z"/>
				<path class="st33" d="M400.3,721.3c0-7.5,3-14.3,7.8-19.3c-5.4,5.1-8.8,12.3-8.8,20.4c0,1,0,1.9,0.1,2.8
					c1.7,13,12.1,23.4,25.1,25.1c0.9,0.1,1.9,0.1,2.8,0.1c8,0,15.2-3.4,20.4-8.8c-5,4.8-11.8,7.8-19.3,7.8
					C412.9,749.4,400.3,736.8,400.3,721.3z"/>
				<path class="st33" d="M446.6,705.7c0,0.1,0,0.3-0.1,0.4c0.6-0.2,1.1-0.7,1.1-1.4c0-0.8-0.7-1.5-1.5-1.5c-0.7,0-1.2,0.5-1.4,1.1
					c0.1,0,0.3-0.1,0.4-0.1C446,704.2,446.6,704.8,446.6,705.7z"/>
				<path class="st33" d="M428.4,700.2c-6.1,0-11.6,2.6-15.4,6.7c3.8-3.5,8.8-5.7,14.4-5.7c11.7,0,21.1,9.4,21.1,21.1
					c0,5.6-2.2,10.6-5.7,14.4c4.1-3.9,6.7-9.3,6.7-15.4C449.5,709.6,440.1,700.2,428.4,700.2z"/>
				<path class="st33" d="M445.1,737.6c-0.7,0-1.2,0.5-1.4,1.1c0.1,0,0.3-0.1,0.4-0.1c0.8,0,1.5,0.7,1.5,1.5c0,0.1,0,0.3-0.1,0.4
					c0.6-0.2,1.1-0.7,1.1-1.4C446.6,738.2,445.9,737.6,445.1,737.6z"/>
				<path class="st33" d="M454.4,721.3c0-0.8-0.7-1.5-1.5-1.5c-0.7,0-1.2,0.5-1.4,1.1c0.1,0,0.3-0.1,0.4-0.1c0.8,0,1.5,0.7,1.5,1.5
					c0,0.1,0,0.3-0.1,0.4C453.9,722.5,454.4,722,454.4,721.3z"/>
			</g>
		</g>
		<g id="ขอบ">
			<g id="ขอบ3">
				<path class="st25" d="M152.9,687.3c-8.6,0-16.5,3.4-22.2,8.9c-5.5,5.8-8.9,13.6-8.9,22.2c0,17.8,14.4,32.2,32.2,32.2
					c8.6,0,16.5-3.4,22.2-8.9c5.5-5.8,8.9-13.6,8.9-22.2C185.1,701.7,170.7,687.3,152.9,687.3z M152.9,748.8
					c-16.2,0-29.3-13.2-29.3-29.3c0-8.3,3.5-15.8,9.1-21.2c5.3-5.6,12.8-9.1,21.2-9.1c16.2,0,29.3,13.2,29.3,29.3
					c0,8.3-3.5,15.8-9.1,21.2C168.7,745.2,161.2,748.8,152.9,748.8z"/>
				<path class="st25" d="M152.9,691.4c-7.5,0-14.3,3-19.3,7.8c-4.8,5-7.8,11.8-7.8,19.3c0,15.5,12.6,28.1,28.1,28.1
					c7.5,0,14.3-3,19.3-7.8c4.8-5,7.8-11.8,7.8-19.3C181,704,168.4,691.4,152.9,691.4z M171.7,700.3c0.8,0,1.5,0.7,1.5,1.5
					c0,0.7-0.5,1.2-1.1,1.4c-0.1,0-0.3,0.1-0.4,0.1c-0.8,0-1.5-0.7-1.5-1.5c0-0.1,0-0.3,0.1-0.4C170.4,700.8,171,700.3,171.7,700.3z
					 M153.9,692.5c0.8,0,1.5,0.7,1.5,1.5c0,0.7-0.5,1.2-1.1,1.4c-0.1,0-0.3,0.1-0.4,0.1c-0.8,0-1.5-0.7-1.5-1.5c0-0.1,0-0.3,0.1-0.4
					C152.7,693,153.2,692.5,153.9,692.5z M135,701.4c0.8,0,1.5,0.7,1.5,1.5c0,0.7-0.5,1.2-1.1,1.4c-0.1,0-0.3,0.1-0.4,0.1
					c-0.8,0-1.5-0.7-1.5-1.5c0-0.1,0-0.3,0.1-0.4C133.8,701.9,134.3,701.4,135,701.4z M129.9,719.9c-0.1,0-0.3,0.1-0.4,0.1
					c-0.8,0-1.5-0.7-1.5-1.5c0-0.1,0-0.3,0.1-0.4c0.2-0.6,0.7-1.1,1.4-1.1c0.8,0,1.5,0.7,1.5,1.5C131,719.2,130.5,719.7,129.9,719.9
					z M136.5,737.7c-0.1,0-0.3,0.1-0.4,0.1c-0.8,0-1.5-0.7-1.5-1.5c0-0.1,0-0.3,0.1-0.4c0.2-0.6,0.7-1.1,1.4-1.1
					c0.8,0,1.5,0.7,1.5,1.5C137.6,736.9,137.2,737.5,136.5,737.7z M154.3,744.3c-0.1,0-0.3,0.1-0.4,0.1c-0.8,0-1.5-0.7-1.5-1.5
					c0-0.1,0-0.3,0.1-0.4c0.2-0.6,0.7-1.1,1.4-1.1c0.8,0,1.5,0.7,1.5,1.5C155.4,743.6,154.9,744.2,154.3,744.3z M171,737.7
					c-0.1,0-0.3,0.1-0.4,0.1c-0.8,0-1.5-0.7-1.5-1.5c0-0.1,0-0.3,0.1-0.4c0.2-0.6,0.7-1.1,1.4-1.1c0.8,0,1.5,0.7,1.5,1.5
					C172.1,736.9,171.6,737.5,171,737.7z M168.3,733.9c-3.9,4.1-9.3,6.7-15.4,6.7c-11.7,0-21.1-9.4-21.1-21.1
					c0-6.1,2.6-11.6,6.7-15.4c3.9-4.1,9.3-6.7,15.4-6.7c11.7,0,21.1,9.4,21.1,21.1C175,724.6,172.4,730,168.3,733.9z M178.7,719.9
					c-0.1,0-0.3,0.1-0.4,0.1c-0.8,0-1.5-0.7-1.5-1.5c0-0.1,0-0.3,0.1-0.4c0.2-0.6,0.7-1.1,1.4-1.1c0.8,0,1.5,0.7,1.5,1.5
					C179.8,719.2,179.4,719.7,178.7,719.9z"/>
				<path class="st25" d="M183.2,718.5c0-16.1-13.1-29.3-29.3-29.3c-8.3,0-15.8,3.5-21.2,9.1c5.3-5,12.3-8.1,20.2-8.1
					c1.3,0,2.6,0.1,3.9,0.3c13.2,1.3,23.8,11.9,25.1,25.1c0.2,1.3,0.3,2.5,0.3,3.9c0,7.8-3.1,14.9-8.1,20.1
					C179.7,734.3,183.2,726.8,183.2,718.5z"/>
			</g>
			<g id="ขอบ2">
				<path class="st25" d="M290.1,691.9c-7.5,0-14.3,3-19.3,7.8c-4.8,5-7.8,11.8-7.8,19.3c0,15.5,12.6,28.1,28.1,28.1
					c7.5,0,14.3-3,19.3-7.8c4.8-5,7.8-11.8,7.8-19.3C318.2,704.5,305.6,691.9,290.1,691.9z M308.9,700.8c0.8,0,1.5,0.7,1.5,1.5
					c0,0.7-0.5,1.2-1.1,1.4c-0.1,0-0.3,0.1-0.4,0.1c-0.8,0-1.5-0.7-1.5-1.5c0-0.1,0-0.3,0.1-0.4
					C307.6,701.2,308.2,700.8,308.9,700.8z M291.1,693c0.8,0,1.5,0.7,1.5,1.5c0,0.7-0.5,1.2-1.1,1.4c-0.1,0-0.3,0.1-0.4,0.1
					c-0.8,0-1.5-0.7-1.5-1.5c0-0.1,0-0.3,0.1-0.4C289.9,693.5,290.4,693,291.1,693z M272.2,701.9c0.8,0,1.5,0.7,1.5,1.5
					c0,0.7-0.5,1.2-1.1,1.4c-0.1,0-0.3,0.1-0.4,0.1c-0.8,0-1.5-0.7-1.5-1.5c0-0.1,0-0.3,0.1-0.4C271,702.4,271.5,701.9,272.2,701.9z
					 M267.1,720.4c-0.1,0-0.3,0.1-0.4,0.1c-0.8,0-1.5-0.7-1.5-1.5c0-0.1,0-0.3,0.1-0.4c0.2-0.6,0.7-1.1,1.4-1.1
					c0.8,0,1.5,0.7,1.5,1.5C268.2,719.6,267.7,720.2,267.1,720.4z M273.7,738.1c-0.1,0-0.3,0.1-0.4,0.1c-0.8,0-1.5-0.7-1.5-1.5
					c0-0.1,0-0.3,0.1-0.4c0.2-0.6,0.7-1.1,1.4-1.1c0.8,0,1.5,0.7,1.5,1.5C274.8,737.4,274.4,738,273.7,738.1z M291.5,744.8
					c-0.1,0-0.3,0.1-0.4,0.1c-0.8,0-1.5-0.7-1.5-1.5c0-0.1,0-0.3,0.1-0.4c0.2-0.6,0.7-1.1,1.4-1.1c0.8,0,1.5,0.7,1.5,1.5
					C292.6,744.1,292.1,744.6,291.5,744.8z M308.2,738.1c-0.1,0-0.3,0.1-0.4,0.1c-0.8,0-1.5-0.7-1.5-1.5c0-0.1,0-0.3,0.1-0.4
					c0.2-0.6,0.7-1.1,1.4-1.1c0.8,0,1.5,0.7,1.5,1.5C309.3,737.4,308.8,738,308.2,738.1z M305.5,734.4c-3.9,4.1-9.3,6.7-15.4,6.7
					c-11.7,0-21.1-9.4-21.1-21.1c0-6.1,2.6-11.6,6.7-15.4c3.9-4.1,9.3-6.7,15.4-6.7c11.7,0,21.1,9.4,21.1,21.1
					C312.2,725,309.6,730.5,305.5,734.4z M315.9,720.4c-0.1,0-0.3,0.1-0.4,0.1c-0.8,0-1.5-0.7-1.5-1.5c0-0.1,0-0.3,0.1-0.4
					c0.2-0.6,0.7-1.1,1.4-1.1c0.8,0,1.5,0.7,1.5,1.5C317.1,719.6,316.6,720.2,315.9,720.4z"/>
				<path class="st25" d="M290.1,687.7c-8.6,0-16.5,3.4-22.2,8.9c-5.5,5.8-8.9,13.6-8.9,22.2c0,17.8,14.4,32.2,32.2,32.2
					c8.6,0,16.5-3.4,22.2-8.9c5.5-5.8,8.9-13.6,8.9-22.2C322.3,702.2,307.9,687.7,290.1,687.7z M290.1,749.2
					c-16.2,0-29.3-13.2-29.3-29.3c0-8.3,3.5-15.8,9.1-21.2c5.3-5.6,12.8-9.1,21.2-9.1c16.2,0,29.3,13.2,29.3,29.3
					c0,8.3-3.5,15.8-9.1,21.2C305.9,745.7,298.4,749.2,290.1,749.2z"/>
				<path class="st25" d="M320.4,718.9c0-16.1-13.1-29.3-29.3-29.3c-8.3,0-15.8,3.5-21.2,9.1c5.3-5,12.3-8.1,20.2-8.1
					c1.3,0,2.6,0.1,3.9,0.3c13.2,1.3,23.8,11.9,25.1,25.1c0.2,1.3,0.3,2.5,0.3,3.9c0,7.8-3.1,14.9-8.1,20.1
					C316.9,734.8,320.4,727.3,320.4,718.9z"/>
			</g>
			<g id="ขอบ1">
				<path class="st25" d="M427.4,694.2c-7.5,0-14.3,3-19.3,7.8c-4.8,5-7.8,11.8-7.8,19.3c0,15.5,12.6,28.1,28.1,28.1
					c7.5,0,14.3-3,19.3-7.8c4.8-5,7.8-11.8,7.8-19.3C455.5,706.8,442.9,694.2,427.4,694.2z M446.2,703.1c0.8,0,1.5,0.7,1.5,1.5
					c0,0.7-0.5,1.2-1.1,1.4c-0.1,0-0.3,0.1-0.4,0.1c-0.8,0-1.5-0.7-1.5-1.5c0-0.1,0-0.3,0.1-0.4
					C444.9,703.6,445.5,703.1,446.2,703.1z M428.4,695.4c0.8,0,1.5,0.7,1.5,1.5c0,0.7-0.5,1.2-1.1,1.4c-0.1,0-0.3,0.1-0.4,0.1
					c-0.8,0-1.5-0.7-1.5-1.5c0-0.1,0-0.3,0.1-0.4C427.1,695.8,427.7,695.4,428.4,695.4z M409.5,704.2c0.8,0,1.5,0.7,1.5,1.5
					c0,0.7-0.5,1.2-1.1,1.4c-0.1,0-0.3,0.1-0.4,0.1c-0.8,0-1.5-0.7-1.5-1.5c0-0.1,0-0.3,0.1-0.4
					C408.3,704.7,408.8,704.2,409.5,704.2z M404.3,722.7c-0.1,0-0.3,0.1-0.4,0.1c-0.8,0-1.5-0.7-1.5-1.5c0-0.1,0-0.3,0.1-0.4
					c0.2-0.6,0.7-1.1,1.4-1.1c0.8,0,1.5,0.7,1.5,1.5C405.5,722,405,722.5,404.3,722.7z M411,740.5c-0.1,0-0.3,0.1-0.4,0.1
					c-0.8,0-1.5-0.7-1.5-1.5c0-0.1,0-0.3,0.1-0.4c0.2-0.6,0.7-1.1,1.4-1.1c0.8,0,1.5,0.7,1.5,1.5C412.1,739.8,411.6,740.3,411,740.5
					z M428.8,747.2c-0.1,0-0.3,0.1-0.4,0.1c-0.8,0-1.5-0.7-1.5-1.5c0-0.1,0-0.3,0.1-0.4c0.2-0.6,0.7-1.1,1.4-1.1
					c0.8,0,1.5,0.7,1.5,1.5C429.9,746.4,429.4,747,428.8,747.2z M445.5,740.5c-0.1,0-0.3,0.1-0.4,0.1c-0.8,0-1.5-0.7-1.5-1.5
					c0-0.1,0-0.3,0.1-0.4c0.2-0.6,0.7-1.1,1.4-1.1c0.8,0,1.5,0.7,1.5,1.5C446.6,739.8,446.1,740.3,445.5,740.5z M442.8,736.7
					c-3.9,4.1-9.3,6.7-15.4,6.7c-11.7,0-21.1-9.4-21.1-21.1c0-6.1,2.6-11.6,6.7-15.4c3.9-4.1,9.3-6.7,15.4-6.7
					c11.7,0,21.1,9.4,21.1,21.1C449.5,727.4,446.9,732.9,442.8,736.7z M453.2,722.7c-0.1,0-0.3,0.1-0.4,0.1c-0.8,0-1.5-0.7-1.5-1.5
					c0-0.1,0-0.3,0.1-0.4c0.2-0.6,0.7-1.1,1.4-1.1c0.8,0,1.5,0.7,1.5,1.5C454.3,722,453.9,722.5,453.2,722.7z"/>
				<path class="st25" d="M427.4,690.1c-8.6,0-16.5,3.4-22.2,8.9c-5.5,5.8-8.9,13.6-8.9,22.2c0,17.8,14.4,32.2,32.2,32.2
					c8.6,0,16.5-3.4,22.2-8.9c5.5-5.8,8.9-13.6,8.9-22.2C459.6,704.5,445.1,690.1,427.4,690.1z M427.4,751.6
					c-16.2,0-29.3-13.2-29.3-29.3c0-8.3,3.5-15.8,9.1-21.2c5.3-5.6,12.8-9.1,21.2-9.1c16.2,0,29.3,13.2,29.3,29.3
					c0,8.3-3.5,15.8-9.1,21.2C443.2,748.1,435.7,751.6,427.4,751.6z"/>
				<path class="st25" d="M457.7,721.3c0-16.1-13.1-29.3-29.3-29.3c-8.3,0-15.8,3.5-21.2,9.1c5.3-5,12.3-8.1,20.2-8.1
					c1.3,0,2.6,0.1,3.9,0.3c13.2,1.3,23.8,11.9,25.1,25.1c0.2,1.3,0.3,2.5,0.3,3.9c0,7.8-3.1,14.9-8.1,20.1
					C454.2,737.1,457.7,729.6,457.7,721.3z"/>
			</g>
		</g>
	</g>
</g>
<g id="night" class="st15">
	<g id="Layer_3_1_" class="st19">
		<path class="st47" d="M228.9,229.4l29.4,443.3l-19-0.4l-16.9-443C222.3,229.2,223.9,223.3,228.9,229.4z"/>
		<g>
			<path class="st3" d="M520,31.3c-0.8,0.1-1.6,0-2-0.9c-0.4-0.9-0.3-2.1-0.1-3c0,0,0-0.2,0.1-0.2c0.4,0.1,0.7,0.3,1.1,0.4
				c0-0.1,0-0.2,0-0.2c-3.5-3.1-4.9-7.7-5.3-12.3c0,0.3-0.2,0.7-0.2,0.8c-0.3,0.4-0.6,1.3-1.1,1.5c-0.1,0-0.3,0.1-0.4,0.1
				c-0.1,0.1-0.2,0.2-0.4,0.3c-0.1,0-0.1-0.1-0.1-0.1c0-0.1,0-0.1,0-0.2c-0.4,0-0.9,0-1.2,0c-0.2,0,0.2-1,0.3-1.1
				c0.4-0.6,0.8-1.2,1.2-1.8c0,0,0,0,0,0c-0.2-0.6-0.2-1.2-0.3-1.9c0-0.1,0.3-1.2,0.5-1.1c0.2,0.1,0.3,0.1,0.5,0.2
				c-0.1-0.3-0.2-0.6-0.3-1c-0.3-0.1-0.5-0.3-0.6-0.6c-0.2-1.6-0.7-3-1.2-4.4C485.1,20.1,444.5,18,444.5,18
				c-1.1-6.2-4.8-9.6-10.2-11c0,0,0,0.1,0,0.1c-0.1,0.2-0.4,0.3-0.5,0.3c0,0-0.1-0.1-0.1-0.3c-0.1,0-0.2,0.1-0.4,0.1
				c0.4,0.2,0.8,0.5,1.2,0.8c0.2,0.1,0.3,1.2,0.1,1.3c-0.6,0.2-1.2,0.3-1.8,0.3c0,0.1,0,0.2-0.1,0.1c-0.1,0-0.1-0.1-0.2-0.1
				c-2.8,0.2-5.6-0.7-8.3-1.1c0.1,0.2,0.2,0.5,0.3,0.7c0,0.1,0.2,1.2,0,1.1c-0.3-0.1-0.9-0.1-1.4-0.3c-0.3,0.3-0.9,0.3-1.8-0.1
				c-0.2-0.1-0.3-1.2-0.1-1.3c0.1-0.1,0.2-0.1,0.3-0.2c-0.2,0-0.4,0-0.6,0.1c0,0.1,0,0.2-0.1,0.1c-0.1,0-0.1-0.1-0.2-0.1
				c-0.2,0-0.4,0-0.6,0.1c0,0.1,0,0.2-0.1,0.2c-0.6,0-1.3-0.1-1.9-0.2c-0.1,0-0.1-0.1-0.2-0.3l-7,0.5c-26.2,7-58,25.8-58,25.8
				s5.9,4.6,8.6,6.7c2.7,2.1,12.1,56.5,3.8,68.8c-11.9,17.4-12.9,23-12.9,23c12.7-7.7,23.7-14.1,33.4-19.4c1.2-1.1,2.4-2.1,3.8-2.8
				c0.8-0.4,1.5-0.8,2.3-1.1c1.6-1,3.2-1.8,4.8-2.8c2-1.2,4-2.4,6.1-3.4c2.4-3.4,5.6-6.1,8.7-8.9c0.1-0.1,0.2,0.2,0.2,0.3
				c0.1,0.2,0.1,0.5,0.1,0.7c1.4-2.2,3-4.3,3.3-7c0-0.2,0.1-0.2,0.2,0c0.6,2.4,0.4,4.5-1.2,6.1c-0.8,1-1.6,1.9-2.5,2.7
				c-0.4,1.8-1.6,3.3-3.1,4.7c63.3-29.2,28.8,18.4,28.8,18.4c9.1,1.4,26.3-1.5,43.3-5.3c0.9-1.5,2-2.7,3.3-3.8
				c0.2-0.1,0.3-0.1,0.5-0.1c0.1-0.1,0.2-0.2,0.2-0.3c-0.1-0.2-0.1-0.5,0.1-0.6c0.2-0.2,0.6-0.3,0.9-0.4c1.3-1.4,2.8-2.6,4.6-3.5
				c-0.3-1.1-0.4-2.2-0.5-3.3c-0.1-0.9-0.9-2.3-0.5-3.1c0.1-0.3,0.3-0.6,0.5-0.8c-0.1-0.2-0.2-0.5-0.2-0.7c-1-1.1-1.4-3.3-0.6-4.4
				c0-0.3,0-0.7,0-1c0-0.7,0.3,0,0.3,0.3c0.1,1,0.2,2,0.7,2.9c0,0,0,0.1,0,0.2c0.1,0,0.2,0.1,0.3,0.2c0.2,0.4,0.4,0.7,0.5,1.1
				c0.5-0.7,0.9-1.4,1.2-2.3c0.5-1.6,0.9-3.1,1.1-4.8c0-0.2,0.1-0.3,0.2-0.4c0-0.2,0-0.4,0.1-0.5c0.1-0.1,0.2-0.2,0.3-0.3
				c0-0.1,0.1-0.1,0.1-0.1c0,0,0-0.1,0-0.1c0-0.3,0.1-0.7,0.2-0.2c0.1,0.4,0.1,0.8,0,1.3c0.2,0.1,0.3,0.3,0.3,0.6
				c-0.2,1.3-0.4,2.6-0.6,4c0.2,0.1,0.3,0.3,0.3,0.6c0,0.1,0,0.2,0,0.2c0,0,0,0,0.1,0.1c0.7,2.7,0.6,4.4-0.3,6.7
				c-0.2,1.5-0.5,3-0.8,4.4c0,0.1,0.1,0.2,0.1,0.3c0,1,0,1.4-0.7,1.9c-0.1,0.4-0.3,0.7-0.5,1.1c0,0,0,0,0,0c0.2,0.1,0.3,0.4,0.2,0.6
				c-0.2,0.7-0.6,1.3-1.2,1.9c15.8-3.8,29.8-7.9,34.8-9.4c0-0.7,0.3-1.5,0.7-2.3c0-0.1,0-0.2-0.1-0.3c0,0,0,0-0.1,0
				c-0.5-0.3-0.7-0.8-0.8-1.4c0-0.3,0.1-0.6,0.3-0.9c0-0.1,0.2-0.4,0.3-0.1c0,0.2,0.1,0.4,0.2,0.6c0-0.1,0-0.2,0-0.3
				c-0.2-0.6-0.2-1.2-0.1-1.7c-0.1-0.5-0.4-1-0.7-1.4c-0.2-0.2,0.4-1.3,0.5-1.2c0.2,0.3,0.4,0.7,0.6,1.1c0.1-0.1,0.1-0.1,0.2-0.1
				c0,0.1,0.1,0.1,0.1,0.2c0-0.1,0.1-0.2,0.1-0.2c0-0.2,0.1-0.6,0.2-0.7c0,0,0.2-0.5,0.3-0.4c0,0.1,0.1,0.2,0.1,0.3c0,0,0,0,0-0.1
				C526.7,70.5,523.3,47.9,520,31.3 M504.2,26.3c-0.1,0.4-0.1,0.7-0.2,1.1c0,0,0-0.1,0-0.1c0,0.1-0.1,0.2-0.1,0.3
				c-0.3,1.4-0.6,2.9-1,4.3c-0.1,0.7-0.2,1.3-0.3,1.9c0,0.2,0.1,0.4,0.1,0.4c0.1,2.9-0.5,5.6-1.5,8.2c-0.1,0.5-0.3,0.9-0.5,1.3
				c-0.5,1.2-1,2.4-1.6,3.6c0,0.1-0.1,0-0.1-0.1c-0.2,0.4-0.5,0.9-0.8,1.4c-0.2,0.6-0.4,1.2-0.7,1.8c0,0-0.1,0-0.1-0.1
				c0,0.2-0.1,0.4-0.1,0.5c0,0.3-0.2,0.6-0.3,0.9c-0.1,0.2-0.2,0.2-0.2-0.1c0-0.1,0-0.1,0-0.2c-0.2,0.6-0.5,1.2-0.7,1.8
				c-0.1,0.3-0.3-0.9-0.2-1.1c0,0,0,0,0,0c-0.1-0.3-0.1-0.8-0.1-0.9c0.4-1.3,0.9-2.6,1.5-3.8c0.4-1.9,1-3.7,1.6-5.6
				c0.2-0.6,0.4-1.2,0.6-1.8c0.2-0.5,0.3-0.9,0.5-1.4c0.3-1.7,0.7-3.4,1.7-4.9c0,0,0,0,0.1,0l-0.1-0.9c0-0.1,0-0.2,0-0.2
				c-0.2,0.4-0.4,0.8-0.3,0.2c0.2-1,0.7-2,1.1-2.9c0-0.3,0-0.6,0-0.9c0-0.2,0-0.6,0.1-0.7c0-0.1,0-0.3,0-0.5c0-0.9,0.3-0.1,0.3,0.3
				c0,0.3,0,0.6,0,0.9c0.3-0.6,0.5-1.2,0.6-1.9C503.7,26.9,504.3,25.8,504.2,26.3"/>
			<path class="st48" d="M444.7,19c0,0,0.4,1.3,1.1,3.5c0.7,2.2,1.5,5.4,2.4,9.3c0.4,2,0.9,4.1,1.3,6.3c0.4,2.3,0.8,4.6,1.1,7.1
				c0.3,2.5,0.7,5,0.9,7.7c0.3,2.6,0.4,5.3,0.6,7.9c0.1,2.7,0.1,5.3,0.2,8c0,2.6-0.1,5.2-0.2,7.7c-0.2,2.5-0.4,4.9-0.6,7.2
				c-0.3,2.3-0.6,4.4-1,6.4c-0.4,2-0.8,3.8-1.2,5.3c-0.3,1.6-0.9,2.9-1.2,4c-0.7,2.2-1.2,3.4-1.2,3.4s0.1-1.3,0.5-3.6
				c0.1-0.6,0.2-1.2,0.3-1.9c0.1-0.3,0.1-0.7,0.2-1.1c0-0.4,0.1-0.8,0.1-1.2c0.1-1.6,0.3-3.4,0.5-5.4c0.1-2,0.2-4.1,0.3-6.3
				c0.1-2.2,0-4.6,0.1-7.1c0-2.5-0.1-5-0.1-7.6c-0.1-2.6-0.2-5.2-0.3-7.8c-0.2-2.6-0.2-5.2-0.5-7.8c-0.2-2.6-0.3-5.1-0.6-7.6
				c-0.2-2.5-0.4-4.8-0.6-7.1c-0.2-2.3-0.4-4.4-0.6-6.4C445.2,24.3,444.7,19,444.7,19"/>
			<path class="st3" d="M437.3,121.1c0,0,1.5-16.2-2.5-27.9C434.8,93.2,461,86.5,437.3,121.1"/>
			<g>
				<g>
					<g>
						<g>
							<g>
								<defs>
									
										<rect id="SVGID_30_" x="435.5" y="92.3" transform="matrix(0.9921 -0.1258 0.1258 0.9921 -9.8695 56.4275)" width="12.7" height="28.1"/>
								</defs>
								<clipPath id="SVGID_31_">
									<use xlink:href="#SVGID_30_"  style="overflow:visible;"/>
								</clipPath>
								<path class="st49" d="M437.3,121.1c0,0,1.5-16.2-2.5-27.9C434.8,93.2,461,86.5,437.3,121.1"/>
							</g>
						</g>
					</g>
				</g>
			</g>
		</g>
		<path class="st50" d="M897.9,407L672.7,522.7l-7-28l229.8-97.4C895.5,397.3,899.2,398.7,897.9,407z"/>
		<path class="st51" d="M725.3,469.5l-47.2,20l-13.2,8.7l6.3,25.2l60.6-31.1C717,485.5,725.3,469.5,725.3,469.5z"/>
	</g>
	<g id="ลายไม้_1_" class="st19">
		<path class="st7" d="M122.2,655v-99.3c0,0-105.5,0-105.5,0c-1,0-2.9,3.5-3.3,4.1c-2.5,3.8-4.5,7.9-6.1,12
			c-2.6,6.5-4.4,13.3-5.2,20.2c-1.2,9.4-0.6,18.9,1.7,28.1c2.5,10.3,6.5,20.3,12,29.4c7.6,12.6,19.5,21.8,27.8,33.9
			c2.2,3.3,4.3,6.7,6,10.2c2.4,4.8,4.2,9.9,4.9,15.3c3.4,26.9,11.5,78.1,31.5,86.1h396.1l74-29.8l64.9-45.5l44.8-64.6l13.2-29.9
			l5.5-51.1v-50.1l3.4-25.8l-5.6-11.5l-25.8,8.2l-40.6,25.7l-45.5,27.7l-10.4,16.8l-69.2,12l-47,10.3l-2.7,12.2l7.9,5.1l2.4,13.6
			l-2.4,14.9l-16.7,17.9l-24.3,4.2L122.2,655L122.2,655z"/>
		<path class="st8" d="M80.3,791.4l412.2-0.5l63.7-25.6l5.9-4.2l-497.3,0.6C68.7,774.4,73.7,785.4,80.3,791.4z"/>
		<path class="st9" d="M621,720.6l5.1-7.3L55,714c1,7.7,2.4,16.9,4.3,26.3l534.6-0.6L621,720.6z"/>
		<path class="st10" d="M643,687.7l-596.3,0.7c1,1.7,1.9,3.4,2.8,5.2c2.4,4.8,4.2,9.9,4.9,15.3c0.2,1.8,0.5,3.8,0.8,5.8l569.6-0.6
			L643,687.7z"/>
		<path class="st9" d="M661.8,660.6l-637.3,0.7c6.4,7.3,13.5,14.1,19,22.1c0.9,1.4,1.8,2.8,2.7,4.2l597.4-0.7L661.8,660.6z"/>
		<path class="st11" d="M678.4,604.4l-223,1.6c6.4,7.3-9.1,25.1-8.2,26.5l222-1.1L678.4,604.4z"/>
		<path class="st12" d="M116.6,556c-21.8,0-99.9,0-99.9,0c-1,0-2.9,3.5-3.3,4.1c-2.5,3.8-4.5,7.9-6.1,12c-2.6,6.5-4.4,13.3-5.2,20.2
			c-1.2,9.4-0.6,18.9,1.7,28.1c2.5,10.3,6.5,20.3,12,29.4c1.1,1.9,2.4,3.7,3.7,5.5h97.3L116.6,556L116.6,556z"/>
		<polyline class="st13" points="111.1,660.5 111.1,554.6 122.1,554.6 122.1,650 		"/>
		<polygon class="st8" points="455.4,605.9 683,604.6 683,576.5 446.6,582.7 		"/>
		<polygon class="st14" points="576.5,545.5 684.9,545.5 684.9,520.8 600.7,520.8 		"/>
	</g>
	<g id="Layer_11_1_" class="st19">
		<circle class="st52" cx="1327.4" cy="118.8" r="82.2"/>
		<circle class="st8" cx="1539.3" cy="122.3" r="82.2"/>
		<circle class="st53" cx="1330.1" cy="308.2" r="82.2"/>
		<g>
			<g>
				<path class="st20" d="M1624.5,316.1c-38.9,20.9-63,19.9-66.2,20c-38.6,0.4-62.2-15.7-62.2-15.7c-16.7-9.8-21.9-28.8-21.9-28.8
					c-6.3-18.1,3.8-32.5,3.8-32.5c-4.8-8.7-23.2-9.1-23.2-9.1c-16.5-1.6-32.9-6.2-32.9-6.2c-19.1-4.6-25.1-16.3-25.1-16.3
					c-8.8-11.5-6.9-16.1-6.9-16.1c0.1-11,8.8-6.6,8.8-6.6c-1.7-15-24.5-24.6-24.5-24.6c-1.1-1.2-16.2-6-16.2-6l-18.5-6.3l-62.6-19.6
					c-8,20-30.8,9-30.8,9c5.2,11.3,0.5,31.5,0.5,31.5c-5,72.6,21.8,116.3,21.8,116.3c37,85.4,118.1,115.9,118.1,115.9
					c26.6,15.1,87.7,7.1,87.7,7.1c8.9-0.1,18.2-1.4,27.7-3.4c2.6-0.7,5.3-1.3,7.9-1.8c12.1-3.1,24.3-7.2,35.6-11.6
					c0.9-0.4,1.9-0.8,2.9-1.1c32.6-13.1,58.3-28.6,58.3-28.6c11.7-6.4,25.5-15.9,38.2-25.3c2.4-3.1,6.1-5.5,9.5-7.4
					c2-1.5,4-3,6.1-4.4c14.3-11.2,23-20,23-20c-0.2-1.5-0.3-3.8-0.1-5.8c0.6-8.6,1.6-14.3,3.9-22.6c0.2-0.6,0.4-1.2,0.6-1.9
					c0.1-0.5,0.4-1,0.5-1.5c0.1-0.5,0.3-0.9,0.5-1.4c0.2-0.8,0.6-1.8,1-2.7c0.2-0.5,0.4-1.2,0.7-1.7c0.2-0.3,0.2-0.6,0.4-0.9
					c0.1-0.3,0.2-0.6,0.3-0.9c0.2-0.3,0.3-0.7,0.5-1.1c0.2-0.4,0.3-0.7,0.5-1.1c0.1-0.4,0.3-0.6,0.4-0.9c0.1-0.2,0.1-0.4,0.2-0.6
					c0.6-1.5,1-2.6,1-2.6L1624.5,316.1z"/>
			</g>
		</g>
		<circle class="st14" cx="1539.3" cy="308.2" r="82.2"/>
		<circle class="st52" cx="1552" cy="513.8" r="82.2"/>
	</g>
	<g id="window_1_" class="st19">
		<g>
			<g>
				<path id="XMLID_4_" d="M46.6,622.8h42.6c0,0,8.1-49.2-21.3-49.2C38.5,573.6,46.6,622.8,46.6,622.8z"/>
			</g>
			<g>
				<g>
					<g>
						<defs>
							<path id="SVGID_32_" d="M46.6,622.8h42.6c0,0,8.1-49.2-21.3-49.2C38.5,573.6,46.6,622.8,46.6,622.8z"/>
						</defs>
						<clipPath id="SVGID_33_">
							<use xlink:href="#SVGID_32_"  style="overflow:visible;"/>
						</clipPath>
						<rect x="33.4" y="598.8" class="st54" width="71.4" height="1.8"/>
					</g>
				</g>
			</g>
			<g>
				<g>
					<g>
						<defs>
							<path id="SVGID_34_" d="M46.6,622.8h42.6c0,0,8.1-49.2-21.3-49.2C38.5,573.6,46.6,622.8,46.6,622.8z"/>
						</defs>
						<clipPath id="SVGID_35_">
							<use xlink:href="#SVGID_34_"  style="overflow:visible;"/>
						</clipPath>
						<rect x="67.1" y="567.1" class="st55" width="1.8" height="71.4"/>
					</g>
				</g>
			</g>
		</g>
	</g>
	<path class="st56" d="M122.2,564.1H10.7c0.2-0.5,5.3-9.4,7.4-10.8s104,0,104,0L122.2,564.1L122.2,564.1z"/>
	<path class="st57" d="M354.7,225.2c0,0,78.2,65.6,24.7,169.5c0,0-71-28-329.9,46.9c0,0,48.7-133.9-33.1-177.9
		C16.3,263.7,336.4,182.1,354.7,225.2"/>
	<path class="st58" d="M354.3,224.8c0,0-2.8-42.1-338.9,42.1c0,0-9.8,1.4-4.3-9.3c0,0,313-79.5,342-43.3
		C353.2,214.4,359.8,219.8,354.3,224.8"/>
	<path class="st57" d="M383.4,400.8c0,0,78.2,65.6,24.7,169.5c0,0-71-28-329.9,46.9c0,0,48.7-133.9-33.1-177.9
		C45,439.3,365.1,357.8,383.4,400.8"/>
	<path class="st58" d="M383,400.5c0,0-2.8-42.1-338.9,42.1c0,0-9.8,1.4-4.3-9.3c0,0,313-79.5,342-43.3
		C381.8,390.1,388.5,395.4,383,400.5"/>
	<path class="st58" d="M415.8,579.4c0,0-2.8-42.1-338.9,42.1c0,0-9.8,1.4-4.3-9.3c0,0,313-79.5,342-43.3
		C414.7,569,421.3,574.3,415.8,579.4"/>
	<g id="เงาผ้าใบ_1_" class="st19">
		<g>
			<defs>
				<rect id="SVGID_36_" x="64.3" y="216" width="396.4" height="392.6"/>
			</defs>
			<clipPath id="SVGID_37_">
				<use xlink:href="#SVGID_36_"  style="overflow:visible;"/>
			</clipPath>
			<path class="st59" d="M357.8,402c9.2-1,17.5-1.6,24.9-2.1c-0.6-1.4-3.3-5.5-16.5-8c-5.2,0.5-10.5,1.1-16,1.7
				c-1.1-1.2-2.2-2.4-3.3-3.6c-33.5-1.1-98.5,5.1-224.3,33.7c-2,5.3-4.4,10.5-7.5,15.8c-8.1,2-12.7,3.1-12.7,3.1
				c-5.6,10.6,4.3,9.3,4.3,9.3c3.1-0.8,6.1-1.5,9.1-2.3c13.7,17.7,56.7,81.3,27.5,145.8c89.1-19.9,234.4-48.4,266.8-30.1
				c4-7.2,12.3-25.1,14.1-52.1C425.9,487.5,396.1,445.2,357.8,402z"/>
		</g>
		<g>
			<defs>
				<rect id="SVGID_38_" x="64.3" y="216" width="396.4" height="392.6"/>
			</defs>
			<clipPath id="SVGID_39_">
				<use xlink:href="#SVGID_38_"  style="overflow:visible;"/>
			</clipPath>
			<path class="st60" d="M143.2,595.5c-0.3,0.6-0.5,1.2-0.8,1.8c-4.5,1-7,1.6-7,1.6c-4,6.3,1.5,6.3,2.9,6.2l0,0c0.2,0,0.3,0,0.3,0
				c267.4-61.2,269.1-32.9,269.1-32.9c2.3-1.8,2-3.6,1.2-5c0.3-0.5,0.6-1.1,1-1.8C377.7,547.1,232.3,575.6,143.2,595.5z"/>
		</g>
		<g>
			<defs>
				<rect id="SVGID_40_" x="64.3" y="216" width="396.4" height="392.6"/>
			</defs>
			<clipPath id="SVGID_41_">
				<use xlink:href="#SVGID_40_"  style="overflow:visible;"/>
			</clipPath>
			<path class="st61" d="M220.8,254.6c205.9-42.2,191-13.4,191-13.4c5.5-5.1-1.1-10.4-1.1-10.4c-29-36.2-342,43.3-342,43.3
				c-5.6,10.6,4.3,9.3,4.3,9.3c3.1-0.8,6.1-1.5,9.1-2.3c15.5,17.9,58.4,73.9,44,132c67.4-14.7,158.3-32.2,212.3-32.6
				C282.7,321.5,235.1,266.9,220.8,254.6z"/>
		</g>
		<g>
			<defs>
				<rect id="SVGID_42_" x="64.3" y="216" width="396.4" height="392.6"/>
			</defs>
			<clipPath id="SVGID_43_">
				<use xlink:href="#SVGID_42_"  style="overflow:visible;"/>
			</clipPath>
			<path class="st62" d="M347,390.1c-2.9-3.2-5.8-6.3-8.8-9.5c-54,0.4-144.9,17.8-212.3,32.6c-0.9,3.5-1.9,7-3.3,10.6
				C248.5,395.2,313.5,389,347,390.1z"/>
		</g>
	</g>
	<g id="ผ้าใบหน้า_1_" class="st19">
		<path class="st47" d="M355.3,35.5l38.3,622.2h-19L348.7,35.5C348.7,35.5,350.2,27,355.3,35.5z"/>
		<path class="st63" d="M517,178.2c0,0,77.2,69.8,18.7,173.7c0,0-71.3-31.2-338,35.2c0,0,54.7-134.6-27-182.5
			C170.7,204.6,500,133.7,517,178.2"/>
		<path class="st47" d="M516.6,177.9c0,0-1.3-43-346.9,30c0,0-10.1,1-4-9.6c0,0,322-69.1,350.2-31.1
			C515.9,167.2,522.5,172.9,516.6,177.9"/>
		<path class="st63" d="M534.6,358.3c0,0,77.2,69.8,18.7,173.7c0,0-71.3-31.2-338,35.2c0,0,54.7-134.6-27-182.5
			C188.3,384.7,517.6,313.7,534.6,358.3"/>
		<path class="st64" d="M329.4,355.6c10.8-7.1,13.2-43.4,12.7-47.6c-0.4-5.4-2.1-10.4-5.2-15.6c-3.1-5-6.4-9.4-10.1-13.3
			c-3.7-3.9-7.4-6.7-11.1-8.9c-3.6-2.1-6.3-3.2-7.7-2.7c-1,0.2-1.1-0.8-0.3-3c0.9-2.2,2.2-4.9,4.1-8c2-3.1,4.4-6.5,7-10.2
			c2.9-3.8,5.6-7,8-9.9c2.7-3,5.1-5.1,7.6-6.6c2.5-1.7,4.2-1.7,5.6-0.7c3.8,2.9,7.5,5.7,11.5,8.3c4,2.6,7.5,5.7,10.6,9.4
			c6.5,8.6,10.3,17.5,11.9,26.7c1.4,9.3,3.1,70.4-7.8,74.7C355.5,352.7,318.6,362.8,329.4,355.6z"/>
		<path class="st64" d="M510.6,340.8c22.3,17.6-20.9,101.3-33.4,110.4c-3.7,2.7-7.8,5.3-12,7.3c-3.9,1.8-24.6,8.1-26.8,7.9
			c-1.4-0.1-6,0-7.1-0.9l-20.9-17.5c-2.6,2-4.7,3.9-6.6,5.5c-1.8,1.6-15.2,8.7-20.8,10.7c-0.7,0.3-3.5-1.3-4.2-1.7
			c-1.5-0.7-2.9-1.4-4.3-2.2c-2.7-1.5-5.3-3.3-7.7-5.3c-9.9-7.9-17.6-18.2-24.1-29c-3.4-5.7-6.1-11.7-7.6-18.1
			c-1.4-6-2-12.3-1.8-18.4c0.2-6,1.3-11.9,1.9-17.8c0.4-3.4,0.5-6.9-0.1-10.3c-0.2-1.4-0.5-2.7-0.9-4.1c-0.2-0.8-0.7-3.8-1.4-4.2
			c-4.3-2.8,28.7-10.4,34.9-2.9c3.7,4.6,1.9,10.6-0.1,15.5c-2.2,5.4-4.1,11.1-4.6,16.9c-0.5,6,0.4,12,1.9,17.9
			c0.6,2.6,1.4,5.3,2.3,7.8c3.2,9.5,10.1,18.3,18.4,23.9c1.1,0.7,11.5,5.7,12,4.3c0.9-2.4,33.9-71,8.7-93
			c24.1-0.1,21.3-3.1,37.8-3.6c19.8,25.3-5,97-5,97.3c0.1-1.8,8.4-5.5,9.8-6.4c5.2-3.1,9.9-7.1,13.6-11.9c5.9-7.7,9.1-18.1,12-27.3
			c3.4-10.4,5-21.4,3.8-32.2c-0.9-7.7-4.3-15.6-9.5-21.4C494.4,339.2,478.9,337.5,510.6,340.8z"/>
		<path class="st64" d="M465.7,343.6c6.7-6,9.1-15.1,9.8-23.8c0.7-8.5-0.4-17.1-1.6-25.6c-2.4-16.9-4-37.3,4.1-52.9
			c2.1-4,4.7-8.1,7.6-11.5c2.7-3.2,5.7-6.2,8.7-9.2c0,0,40.4,93,13,118.9C470.4,343.5,491.2,341.5,465.7,343.6z"/>
		<path class="st64" d="M402.4,348c13.4-13.6-6.9-54.9-9.6-75.9c-0.4-3.9,0.4-7.7,3-11.5c2.6-3.7,5.4-7.5,9-11.4
			c3.6-3.6,7.2-7.2,10.8-10.6c3.6-3.4,6.3-6.4,8.2-9.3c0,0,34.4,114,15.8,111.6C420.8,338.5,430.6,341.3,402.4,348z"/>
		<path class="st47" d="M534.2,357.9c0,0-1.3-43-346.9,30c0,0-10.1,1-4-9.6c0,0,322-69.1,350.2-31.1
			C533.5,347.3,540,353,534.2,357.9"/>
		<path class="st47" d="M560.4,541.5c0,0-1.3-43-346.9,30c0,0-10.1,1-4-9.6c0,0,322-69.1,350.2-31.1
			C559.7,530.9,566.2,536.6,560.4,541.5"/>
		<path class="st47" d="M553.5,525.9C499.8,499.7,209.9,562,209.9,562c-6.1,10.6,4,9.6,4,9.6c227.1-48,305.5-45.9,332.6-38.8
			L553.5,525.9z"/>
	</g>
	<g id="ขอบไม้_1_" class="st19">
		<path class="st13" d="M680.6,502.4c4-0.7,6-5,1.4-7.6c-3.4-1.9-8.5,0.8-10.1,4c-2.1,4.1,2,8.6,5.3,11c3.9,2.7,9.8,2.2,12.3-0.8
			c2.4-3,3.4-8,2.7-11.7c-0.8-4.5-3.2-8.1-6.2-11.4c-7.9-8.8-25.1-3.5-33.4,1.8c-7.3,4.7-14.7,9.3-22,14
			c-19.9,12.7-39.7,25.4-59.6,38c-6.3,4-12.1,8.3-8,16.6c3.7,7.6,21.3,13.1,21.8,0.3c0.1-3.8-3.2-6.7-6.7-7.4
			c-3.3-0.6-11.3,3.6-5.4,6.2c-4.5-2,0.4-5.6,2.4-6.3c9.2-3.3,17.8-10.1,26-15.2c13.4-8.4,26.8-17,40.1-25.5
			c6.8-4.4,13.6-9.2,20.8-13c5.1-2.7,23.1-6.6,22.6,3.2"/>
		<path class="st13" d="M565.8,549.6c0,0-17.1,21.5-69.8,22.7c-52.7,1.1-64.1,12.1-64.8,22c-0.7,9.9,11.9,4.4,11.9,4.4
			s-10.6-13.5,52.9-15.7c63.6-2.2,73.8-17.7,78.6-28.6C579.3,543.4,565.8,549.6,565.8,549.6z"/>
		<path class="st13" d="M185.1,660.5l225.7-0.5c16.8,0,38.3-10.9,45.4-26.7c3.5-7.8,5.2-19,3.1-27.4c-2.3-9.3-7.3-20.2-18.1-20.8
			c-5.9-0.3-10.2,0.3-13.8,5.8c-3.6,5.7-2.8,14.8,1.3,20c4.8,6,17.4,5.5,18.9-3.5c0.4-2.2-1.7-5.5-3.2-7c-2.5-2.5-3.5-1.1-6.6-1
			c3.6-1.6,5.4-1.3,8,2.2c11.9,16-9.5,38.7-23.9,43.9c-4,1.4-8.2,2.5-12.4,3.3c-6.6,1.2-12.3,2.2-19,2.2c-4.1,0-8.2,0-12.4,0
			c-12.7-0.1-25.3-0.1-38-0.2c-31.5-0.1-63-0.3-94.5-0.4c-16.6-0.1-33.2-0.1-49.8-0.2C196.1,650,187.2,655.6,185.1,660.5z"/>
		<path class="st13" d="M76.9,787.8c2.7,0,75,0,77.7,0c7.4,0,14.7,0,22.1,0c11,0,21.9,0,32.9,0c13.5,0,27,0,40.5,0
			c15.1,0,30.1-0.1,45.2,0c15.4,0,30.9,0,46.3,0c14.7,0,29.4,0.1,44.1,0.1c13.1,0,26.2-0.1,39.3,0c10.7,0.1,21.3-0.4,32-0.2
			c7.4,0.1,14.5,0.4,21.9-0.4c6.8-0.8,14-3,20.6-4.9c7.3-2,14.5-4.5,21.5-7.5c8-3.4,15.8-7.4,23.4-11.7c8.9-5,17.5-10.5,25.9-16.2
			c9.6-6.5,18.9-13.3,27.9-20.5c9.7-7.8,19.1-16.1,27.7-25.2c9.1-9.5,17.3-19.9,24.1-31.1c7.3-12,13-25,17.2-38.5
			c4.6-15,7.3-30.5,9-46.1c1.8-17.1,2.4-34.3,2.8-51.5c0.1-4.1,0.7-8.6,0.3-12.7c0,0,5.1-17.9,21.6-8.9c0,0,8.3,11.2-4.1,18.5
			c0,0-14.4,0.5-5.5-11.8c0.3-0.4,1.8-0.4,2.3-0.3c1.6,0.3,1.9,2,1.8,3.4c0.4-1.1,0.1-2.8-1-3.4c-1.3-0.7-2.5,0-3.4,1
			c-0.8,0.9-1.3,2.3-1.8,3.3c-0.6,1.3-1.4,2.5-1.5,4c-0.1,1.3,0,2.6,0,3.9c0.9,4.1,1.4,8.2,1.9,12.3c1.2,10.3,1.5,20.6,1.2,31
			c-0.5,14.7-2.3,29.4-5.6,43.7c-4,17.5-10.2,34.6-18.5,50.6c-9.8,18.9-22.5,36.2-37.4,51.5c-18.2,18.6-39.6,34-62.5,46.4
			c-13.7,7.5-28,13.9-42.5,19.5c-16.2,6.2-33.7,13.6-51.2,13.6c-14,0-27.9,0-41.9,0c-21.3,0-42.6,0-63.9,0c-24.2,0-48.5,0-72.7,0
			c-22.8,0-45.5,0-68.3,0c-16.9,0-33.8,0-50.7,0c-6.6,0-82.7,0-89.3,0"/>
		<path class="st65" d="M687.7,526.2c1.2-2.5,1.5-8.6,5.5-8.1c2.1,0.2,3.4,2.9,2.5,4.7c-1.1,2.2-4,0.1-3.2-1.9
			c-0.3,0.8,0.2,1.5,1,1.7c0.6,0.2,1.5,0.3,1.6-0.5c0-0.5-0.1-1.2-0.3-1.6c-0.6-1.3-2.2-1.9-3.6-0.9
			C689.5,520.7,688.6,524.4,687.7,526.2z"/>
		<path class="st65" d="M680,492.3C680,492.3,680,492.3,680,492.3c1.1,0.1,2.2,0.4,3,1.2c0.6,0.6,0.9,1.3,1.3,2
			c0.4,0.8,0.6,1.7,0.6,2.6c0,0.8,0.1,1.6,0,2.4c-0.1,0.6-0.4,1.2-0.8,1.6c-0.4,0.4-1,0.6-1.5,0.7c-1.4,0.3-3,0.1-3.8-1.2
			c-0.2-0.4-0.4-0.8-0.5-1.3c-0.2-1.1,0.4-2.3,1.4-2.8c0.4-0.2,0.8-0.4,1.2-0.3c0.4,0.1,0.7,0.5,1,0.8c-0.7-0.5-1.8-0.2-2.3,0.4
			c-0.4,0.4-0.5,1.1-0.5,1.6c0,1,1.3,1.6,2.2,1.6c1.4,0,2.4-1.3,2.2-2.6c-0.1-1.2-0.6-2.4-1.1-3.4c-0.2-0.3-0.3-0.6-0.5-0.9
			c-0.5-0.6-1-1.3-1.7-1.7c-0.7-0.5-1.4-0.6-2.2-0.7c-0.1,0-0.2,0-0.3,0C678.4,492.3,679.2,492.2,680,492.3z"/>
		<path class="st65" d="M563.1,556.3c-0.5-1.1-0.9-2.1-1.1-3c-0.2,0.1,0.1,0-0.1,0.1c0.2,1,0.4,2.2,1,3.3c1.2,2.4,4,4.2,7,5.7
			c0.1-0.2-0.1,0.2,0,0C566.8,560.9,564.3,558.7,563.1,556.3z"/>
		<path class="st65" d="M582.6,545.5c-0.3,0.3-1,0.4-1.5,0.6c-1.8,0.6-3.7,1.6-5.5,2.2c-0.5,0.1-0.9,0.3-1.3,0.5
			c-0.8,0.3-1.4,0.8-2,1.4c-1.5,1.6-3.1,4.4-1.1,6.3c0.6,0.6,1.8,1.2,2.6,1.3c0.9,0.1,2.3,0,3.1-0.4c0.6-0.3,1.5-1.1,1.7-1.7
			c0.4-1-0.1-2.8-1.2-3.2c-0.6-0.2-1.5,0.1-1.9,0.6c0.3-0.4,1.3-0.2,1.6,0.1c0.5,0.4,0.8,1.2,0.6,1.9c-0.3,1.5-2.2,1.6-3.4,1.5
			c-1.3-0.1-2.6-1.1-2.7-2.4c-0.1-3.9,4.3-5.2,7.2-6.5C580.2,547.1,581.8,546.3,582.6,545.5z"/>
		<path class="st65" d="M435.8,585.1c-0.3,0.2,0.1-0.1-0.2,0.2c1.7-0.3,3.6-0.3,5.7-0.2c3.8,0.2,6.9,1.7,9.4,4
			c0.3-0.1-0.3,0.1,0.1,0c-2.6-2.4-5.2-4-9.2-4.2C439.5,584.7,437.5,584.9,435.8,585.1z"/>
		<path class="st65" d="M448.9,607.5c-0.2-0.3-0.2-0.9-0.3-1.3c-0.4-1.1-0.7-2.1-1.1-3.2c-0.7-1.7-2-3.6-3.5-4.6
			c-1.7-1.2-3.7-1.4-5.6-0.7c-2.1,0.8-4.4,1.9-5.3,4.1c-0.3,0.8,0,2.3,0.4,3c0.7,1.1,1.9,1.7,3,2.3c0.8,0.4,1.6,0.8,2.6,0.6
			c1.7-0.4,3.9-3.3,2.8-5c-0.3-0.5-1.3-1-1.9-1.1c-0.8-0.1-2,0.5-2.4,1.2c0.3-0.6,1.8-0.7,2.3-0.4c0.9,0.5,1.2,2.1,0.6,2.9
			c-0.9,1.3-2.8,0.8-3.9,0.1c-0.6-0.4-1.2-0.9-1.5-1.5c-0.3-0.6-0.3-1.7,0-2.4c0.4-0.8,1.6-1.6,2.4-2c1-0.5,2.1-0.6,3.1-0.5
			c2.4,0.4,4,2.1,5.3,4C447,604.5,448.1,606,448.9,607.5z"/>
	</g>
	<g id="ใส่สมอเท่เสมอ_1_" class="st19">
		<path class="st13" d="M205,650v10.5l-181.3,0c0,0-4.4-4.8-7.8-10.5L205,650L205,650z"/>
		<path class="st66" d="M570.8,627.7l-8.3,7.9l2.5,0.7c-3.6,5.9-10.1,8.5-17.5,9v-30h6.9c0.6,0.6,1.4,0.9,2.2,0.9
			c1.7,0,3.2-1.4,3.2-3.2c0-1.8-1.4-3.2-3.2-3.2c-0.9,0-1.7,0.4-2.2,0.9h-6.9v-3.6c3.3-1.3,5.7-4.5,5.7-8.3c0-4.9-4-9-9-9
			c-4.9,0-9,4-9,9c0,4.1,2.7,7.5,6.5,8.6v3.4h-7.6c-0.6-0.6-1.4-0.9-2.2-0.9c-1.7,0-3.2,1.4-3.2,3.2c0,1.8,1.4,3.2,3.2,3.2
			c0.9,0,1.7-0.4,2.2-0.9h7.6v30c-7.8-0.6-14.6-3.6-18.1-10l2.5-0.6l-7.7-8.4l-3.5,10.9l2.9-0.7c4.3,9.4,14,16.9,25,17.6l1.7,3.5
			l1.7-3.4c10.5-0.7,19.8-7.6,24.4-16.2l2.8,0.8L570.8,627.7z M539.7,599c0-2.5,2.1-4.6,4.6-4.6c2.5,0,4.6,2.1,4.6,4.6
			c0,2.5-2.1,4.6-4.6,4.6C541.8,603.6,539.7,601.5,539.7,599z"/>
		<path class="st67" d="M572.9,626.3l-8.3,7.9l2.5,0.7c-3.6,5.9-10.1,8.5-17.5,9v-30h6.9c0.6,0.6,1.4,0.9,2.2,0.9
			c1.7,0,3.2-1.4,3.2-3.2c0-1.8-1.4-3.2-3.2-3.2c-0.9,0-1.7,0.4-2.2,0.9h-6.9v-3.6c3.3-1.3,5.7-4.5,5.7-8.3c0-4.9-4-9-9-9
			c-4.9,0-9,4-9,9c0,4.1,2.7,7.5,6.5,8.6v3.4h-7.6c-0.6-0.6-1.4-0.9-2.2-0.9c-1.7,0-3.2,1.4-3.2,3.2c0,1.8,1.4,3.2,3.2,3.2
			c0.9,0,1.7-0.4,2.2-0.9h7.6v30c-7.8-0.6-14.6-3.6-18.1-10l2.5-0.6l-7.7-8.4l-3.4,10.9l2.9-0.7c4.3,9.4,14,16.9,25,17.6l1.7,3.5
			l1.7-3.4c10.5-0.7,19.8-7.6,24.4-16.2l2.8,0.8L572.9,626.3z M541.7,597.5c0-2.5,2.1-4.6,4.6-4.6c2.5,0,4.6,2.1,4.6,4.6
			c0,2.5-2.1,4.6-4.6,4.6C543.8,602.1,541.7,600.1,541.7,597.5z"/>
	</g>
	<g id="Layer_10_1_" class="st19">
		<path class="st36" d="M152.9,698.4c-5.6,0-10.6,2.2-14.4,5.7c-3.5,3.8-5.7,8.8-5.7,14.4c0,11.7,9.4,21.1,21.1,21.1
			c5.6,0,10.6-2.2,14.4-5.7c3.5-3.8,5.7-8.8,5.7-14.4C174,707.8,164.5,698.4,152.9,698.4z"/>
		<path class="st36" d="M290.1,698.9c-5.6,0-10.6,2.2-14.4,5.7c-3.5,3.8-5.7,8.8-5.7,14.4c0,11.7,9.4,21.1,21.1,21.1
			c5.6,0,10.6-2.2,14.4-5.7c3.5-3.8,5.7-8.8,5.7-14.4C311.2,708.3,301.8,698.9,290.1,698.9z"/>
		<path class="st36" d="M427.4,701.2c-5.6,0-10.6,2.2-14.4,5.7c-3.5,3.8-5.7,8.8-5.7,14.4c0,11.7,9.4,21.1,21.1,21.1
			c5.6,0,10.6-2.2,14.4-5.7c3.5-3.8,5.7-8.8,5.7-14.4C448.5,710.7,439,701.2,427.4,701.2z"/>
	</g>
	<path class="st68" d="M545.6,597.5c1,0.1,1.9-0.3,2.7-0.9c0.6-0.5,1.2-1,1.6-1.7c0.6-0.9,1-1.9,1.3-2.9c0.5-1.4,0.6-2.8,0.8-4.3
		c0-0.2,0-0.4,0-0.6c0.3-7-1.9-14.8-6.2-20.3c-0.9-1.1-2-2.3-3.5-2.6c-3.8-1-6.3-1.6-6.3,2.2c0,1.1,2.4,2.7,3.1,3.4
		c2.7,2.8,3.3,6.8,4.1,10.5c0.8,3.4,1.4,6.9,1.6,10.4c0,0.6,0.2,2.4-0.5,2.8c-0.5,0.3-1.1,0.6-1.4,1.1c-0.5,0.7,0,1.6,0.6,2.1
		c0.3,0.3,0.7,0.5,1.1,0.7C544.9,597.4,545.2,597.4,545.6,597.5z"/>
	<g class="st19">
		<g>
			<path id="XMLID_3_" class="st69" d="M550,594.9c0.6-0.9,1-1.9,1.3-2.9c0.5-1.4,0.6-2.8,0.8-4.3c0-0.2,0-0.4,0-0.6
				c0.3-7-1.9-14.8-6.2-20.3c-0.9-1.1-2-2.3-3.5-2.6c-3-0.8-5.3-1.3-6,0.5c0.4,0.5,1.1,0.9,1.6,1.1c2.7,1.5,4.1,3.7,5,6.6
				c0.3,0.9,0.5,1.9,0.7,2.8c0.3,1.1,0.4,2.2,0.7,3.3c0.8,3.7,1.5,7.5,1.6,11.3c0,0.6,0.2,2.6-0.5,3c-0.5,0.3-1.1,0.6-1.5,1.1
				c-0.5,0.8,0,1.7,0.6,2.2c0.3,0.3,0.7,0.5,1.1,0.7c0.4,0.2,0.7,0.3,1.1,0.3c0.2,0,0.5,0,0.7,0c0.3-0.1,0.6-0.3,0.8-0.5
				C549,596.1,549.6,595.5,550,594.9z"/>
		</g>
		<g>
			<g>
				<g>
					<defs>
						<path id="SVGID_44_" d="M550,594.9c0.6-0.9,1-1.9,1.3-2.9c0.5-1.4,0.6-2.8,0.8-4.3c0-0.2,0-0.4,0-0.6c0.3-7-1.9-14.8-6.2-20.3
							c-0.9-1.1-2-2.3-3.5-2.6c-3-0.8-5.3-1.3-6,0.5c0.4,0.5,1.1,0.9,1.6,1.1c2.7,1.5,4.1,3.7,5,6.6c0.3,0.9,0.5,1.9,0.7,2.8
							c0.3,1.1,0.4,2.2,0.7,3.3c0.8,3.7,1.5,7.5,1.6,11.3c0,0.6,0.2,2.6-0.5,3c-0.5,0.3-1.1,0.6-1.5,1.1c-0.5,0.8,0,1.7,0.6,2.2
							c0.3,0.3,0.7,0.5,1.1,0.7c0.4,0.2,0.7,0.3,1.1,0.3c0.2,0,0.5,0,0.7,0c0.3-0.1,0.6-0.3,0.8-0.5
							C549,596.1,549.6,595.5,550,594.9z"/>
					</defs>
					<clipPath id="SVGID_45_">
						<use xlink:href="#SVGID_44_"  style="overflow:visible;"/>
					</clipPath>
					<path class="st70" d="M542.1,592.9c0,0,3.9,4,10,3c3.5-0.6-0.5,0.6-0.5,0.6l-9.5-3.7L542.1,592.9z"/>
				</g>
			</g>
		</g>
		<g>
			<g>
				<g>
					<defs>
						<path id="SVGID_46_" d="M550,594.9c0.6-0.9,1-1.9,1.3-2.9c0.5-1.4,0.6-2.8,0.8-4.3c0-0.2,0-0.4,0-0.6c0.3-7-1.9-14.8-6.2-20.3
							c-0.9-1.1-2-2.3-3.5-2.6c-3-0.8-5.3-1.3-6,0.5c0.4,0.5,1.1,0.9,1.6,1.1c2.7,1.5,4.1,3.7,5,6.6c0.3,0.9,0.5,1.9,0.7,2.8
							c0.3,1.1,0.4,2.2,0.7,3.3c0.8,3.7,1.5,7.5,1.6,11.3c0,0.6,0.2,2.6-0.5,3c-0.5,0.3-1.1,0.6-1.5,1.1c-0.5,0.8,0,1.7,0.6,2.2
							c0.3,0.3,0.7,0.5,1.1,0.7c0.4,0.2,0.7,0.3,1.1,0.3c0.2,0,0.5,0,0.7,0c0.3-0.1,0.6-0.3,0.8-0.5
							C549,596.1,549.6,595.5,550,594.9z"/>
					</defs>
					<clipPath id="SVGID_47_">
						<use xlink:href="#SVGID_46_"  style="overflow:visible;"/>
					</clipPath>
					<path class="st71" d="M543.5,588c0,0,8.6,2.7,10.9-1.5c1.7-3.1-0.7,1-0.7,1l-10.2,0.2L543.5,588z"/>
				</g>
			</g>
		</g>
		<g>
			<g>
				<g>
					<defs>
						<path id="SVGID_48_" d="M550,594.9c0.6-0.9,1-1.9,1.3-2.9c0.5-1.4,0.6-2.8,0.8-4.3c0-0.2,0-0.4,0-0.6c0.3-7-1.9-14.8-6.2-20.3
							c-0.9-1.1-2-2.3-3.5-2.6c-3-0.8-5.3-1.3-6,0.5c0.4,0.5,1.1,0.9,1.6,1.1c2.7,1.5,4.1,3.7,5,6.6c0.3,0.9,0.5,1.9,0.7,2.8
							c0.3,1.1,0.4,2.2,0.7,3.3c0.8,3.7,1.5,7.5,1.6,11.3c0,0.6,0.2,2.6-0.5,3c-0.5,0.3-1.1,0.6-1.5,1.1c-0.5,0.8,0,1.7,0.6,2.2
							c0.3,0.3,0.7,0.5,1.1,0.7c0.4,0.2,0.7,0.3,1.1,0.3c0.2,0,0.5,0,0.7,0c0.3-0.1,0.6-0.3,0.8-0.5
							C549,596.1,549.6,595.5,550,594.9z"/>
					</defs>
					<clipPath id="SVGID_49_">
						<use xlink:href="#SVGID_48_"  style="overflow:visible;"/>
					</clipPath>
					<path class="st72" d="M539.9,571.6c0,0,6.3,1.2,10-3.4c2.2-2.7-0.2,0.6-0.2,0.6L539.9,571.6L539.9,571.6z"/>
				</g>
			</g>
		</g>
		<g>
			<g>
				<g>
					<defs>
						<path id="SVGID_50_" d="M550,594.9c0.6-0.9,1-1.9,1.3-2.9c0.5-1.4,0.6-2.8,0.8-4.3c0-0.2,0-0.4,0-0.6c0.3-7-1.9-14.8-6.2-20.3
							c-0.9-1.1-2-2.3-3.5-2.6c-3-0.8-5.3-1.3-6,0.5c0.4,0.5,1.1,0.9,1.6,1.1c2.7,1.5,4.1,3.7,5,6.6c0.3,0.9,0.5,1.9,0.7,2.8
							c0.3,1.1,0.4,2.2,0.7,3.3c0.8,3.7,1.5,7.5,1.6,11.3c0,0.6,0.2,2.6-0.5,3c-0.5,0.3-1.1,0.6-1.5,1.1c-0.5,0.8,0,1.7,0.6,2.2
							c0.3,0.3,0.7,0.5,1.1,0.7c0.4,0.2,0.7,0.3,1.1,0.3c0.2,0,0.5,0,0.7,0c0.3-0.1,0.6-0.3,0.8-0.5
							C549,596.1,549.6,595.5,550,594.9z"/>
					</defs>
					<clipPath id="SVGID_51_">
						<use xlink:href="#SVGID_50_"  style="overflow:visible;"/>
					</clipPath>
					<path class="st73" d="M543,580.7c0,0,8.2,1.5,10.6-1.2c2.3-2.6-0.4,0-0.4,0l-10.2,0.3L543,580.7z"/>
				</g>
			</g>
		</g>
		<g>
			<g>
				<g>
					<defs>
						<path id="SVGID_52_" d="M550,594.9c0.6-0.9,1-1.9,1.3-2.9c0.5-1.4,0.6-2.8,0.8-4.3c0-0.2,0-0.4,0-0.6c0.3-7-1.9-14.8-6.2-20.3
							c-0.9-1.1-2-2.3-3.5-2.6c-3-0.8-5.3-1.3-6,0.5c0.4,0.5,1.1,0.9,1.6,1.1c2.7,1.5,4.1,3.7,5,6.6c0.3,0.9,0.5,1.9,0.7,2.8
							c0.3,1.1,0.4,2.2,0.7,3.3c0.8,3.7,1.5,7.5,1.6,11.3c0,0.6,0.2,2.6-0.5,3c-0.5,0.3-1.1,0.6-1.5,1.1c-0.5,0.8,0,1.7,0.6,2.2
							c0.3,0.3,0.7,0.5,1.1,0.7c0.4,0.2,0.7,0.3,1.1,0.3c0.2,0,0.5,0,0.7,0c0.3-0.1,0.6-0.3,0.8-0.5
							C549,596.1,549.6,595.5,550,594.9z"/>
					</defs>
					<clipPath id="SVGID_53_">
						<use xlink:href="#SVGID_52_"  style="overflow:visible;"/>
					</clipPath>
					<path class="st74" d="M537,567.5c0,0,5.9,0.4,6.9-5.9c0.6-3.5-0.3,1.1-0.3,1.1l-6.5,4.5L537,567.5z"/>
				</g>
			</g>
		</g>
	</g>
	<path class="st75" d="M545.9,587.7c-0.2-2.2-0.5-4.5-1-6.7c1.9,0.2,4.8,0.3,6.8-0.3c-0.1-0.3-0.1-0.7-0.2-1l-6.9,0.2
		c-0.1-0.5-0.2-0.9-0.3-1.4c-0.2-1.1-0.4-2.2-0.7-3.3c-0.2-1-0.5-1.9-0.7-2.8c-0.1-0.2-0.1-0.4-0.2-0.6c1.5-0.1,3.5-0.5,5.2-1.7
		c-0.1-0.2-0.2-0.4-0.4-0.6l-5.2,1.5c-0.6-1.5-1.5-2.8-2.7-3.9c1.1-0.4,2.3-1.2,3.2-2.6c-0.1-0.1-0.3-0.1-0.5-0.2
		c-0.2-0.1-0.5-0.1-0.7-0.2l-3.1,2.2c0,0,0,0,0,0c-0.2-0.1-0.4-0.3-0.7-0.4c-0.4-0.2-1.2-0.6-1.6-1.1c0.4-0.9,1.1-1.2,2.1-1.2
		c-1.6,0-2.5,0.7-2.5,2.9c0,1.1,2.4,2.7,3.1,3.4c2.7,2.8,3.3,6.8,4.1,10.5c0.8,3.4,1.4,6.9,1.6,10.4c0,0.6,0.2,2.4-0.5,2.8
		c-0.5,0.3-1.1,0.6-1.4,1.1c-0.5,0.7,0,1.6,0.6,2.1c0.3,0.3,0.7,0.5,1.1,0.7c0.4,0.2,0.7,0.3,1.1,0.3c0.7,0.1,1.3-0.1,1.9-0.4
		c-0.2,0-0.4,0-0.6,0c-0.4,0-0.7-0.1-1.1-0.3c-0.4-0.2-0.8-0.4-1.1-0.7c-0.5-0.4-0.9-1.2-0.8-1.8c1.2,0.7,2.9,1.5,5.2,1.7
		c0.1-0.1,0.3-0.3,0.4-0.4l-5.1-2c0.3-0.4,0.8-0.6,1.2-0.9c0.7-0.4,0.5-2.4,0.5-3c0-0.4-0.1-0.7-0.1-1.1c1.8,0.3,4.2,0.5,6.1-0.2
		c0-0.2,0-0.5,0.1-0.7c0-0.1,0-0.1,0-0.2L545.9,587.7z"/>
	<path id="_x33__3_" class="st76" d="M156,737.4c6.5,0,12.3-2.8,16.4-7.3c1.9-3.2,2.9-7,2.9-11c0-12.2-9.9-22-22-22
		c-6.5,0-12.3,2.8-16.4,7.3c-1.9,3.2-2.9,7-2.9,11C133.9,727.5,143.8,737.4,156,737.4z"/>
	<path id="_x32__3_" class="st76" d="M293.2,737.9c6.5,0,12.3-2.8,16.4-7.3c1.9-3.2,2.9-7,2.9-11c0-12.2-9.9-22-22-22
		c-6.5,0-12.3,2.8-16.4,7.3c-1.9,3.2-2.9,7-2.9,11C271.2,728,281,737.9,293.2,737.9z"/>
	<path id="_x31__3_" class="st76" d="M430.5,740.2c6.5,0,12.3-2.8,16.4-7.3c1.9-3.2,2.9-7,2.9-11c0-12.2-9.9-22-22-22
		c-6.5,0-12.3,2.8-16.4,7.3c-1.9,3.2-2.9,7-2.9,11C408.4,730.4,418.3,740.2,430.5,740.2z"/>
	<path id="_x33__2_" class="st77" d="M156,737.4c-12.2,0-22-9.9-22-22c0-4,1.1-7.7,2.9-11c-3.5,3.9-5.7,9.1-5.7,14.7
		c0,12.2,9.9,22,22,22c8.2,0,15.3-4.5,19.1-11.1C168.3,734.6,162.5,737.4,156,737.4z"/>
	<path id="_x32__2_" class="st77" d="M293.2,737.9c-12.2,0-22-9.9-22-22c0-4,1.1-7.7,2.9-11c-3.5,3.9-5.7,9-5.7,14.7
		c0,12.2,9.9,22,22,22c8.2,0,15.3-4.5,19.1-11.1C305.5,735,299.7,737.9,293.2,737.9z"/>
	<path id="_x31__2_" class="st77" d="M430.5,740.2c-12.2,0-22-9.9-22-22c0-4,1.1-7.7,2.9-11c-3.5,3.9-5.7,9-5.7,14.7
		c0,12.2,9.9,22,22,22c8.2,0,15.3-4.5,19.1-11.1C442.8,737.4,437,740.2,430.5,740.2z"/>
	<path class="st56" d="M121.7,718.5c0-8.6,3.4-16.5,8.9-22.2c-6.1,5.9-10,14.1-10,23.3c0,17.8,14.4,32.2,32.2,32.2
		c9.1,0,17.4-3.8,23.3-10c-5.8,5.5-13.6,8.9-22.2,8.9C136.1,750.7,121.7,736.2,121.7,718.5z"/>
	<path class="st56" d="M153.9,741.4c-0.7,0-1.2,0.5-1.4,1.1c0.1,0,0.3-0.1,0.4-0.1c0.8,0,1.5,0.7,1.5,1.5c0,0.1,0,0.3-0.1,0.4
		c0.6-0.2,1.1-0.7,1.1-1.4C155.4,742.1,154.7,741.4,153.9,741.4z"/>
	<path class="st56" d="M136.1,734.7c-0.7,0-1.2,0.5-1.4,1.1c0.1,0,0.3-0.1,0.4-0.1c0.8,0,1.5,0.7,1.5,1.5c0,0.1,0,0.3-0.1,0.4
		c0.6-0.2,1.1-0.7,1.1-1.4C137.6,735.4,137,734.7,136.1,734.7z"/>
	<path class="st56" d="M135.5,703.9c0,0.1,0,0.3-0.1,0.4c0.6-0.2,1.1-0.7,1.1-1.4c0-0.8-0.7-1.5-1.5-1.5c-0.7,0-1.2,0.5-1.4,1.1
		c0.1,0,0.3-0.1,0.4-0.1C134.8,702.4,135.5,703.1,135.5,703.9z"/>
	<path class="st56" d="M129.5,717c-0.7,0-1.2,0.5-1.4,1.1c0.1,0,0.3-0.1,0.4-0.1c0.8,0,1.5,0.7,1.5,1.5c0,0.1,0,0.3-0.1,0.4
		c0.6-0.2,1.1-0.7,1.1-1.4C131,717.6,130.3,717,129.5,717z"/>
	<path class="st56" d="M154.4,695.1c0,0.1,0,0.3-0.1,0.4c0.6-0.2,1.1-0.7,1.1-1.4c0-0.8-0.7-1.5-1.5-1.5c-0.7,0-1.2,0.5-1.4,1.1
		c0.1,0,0.3-0.1,0.4-0.1C153.7,693.6,154.4,694.2,154.4,695.1z"/>
	<path class="st56" d="M125.8,718.5c0-7.5,3-14.3,7.8-19.3c-5.4,5.1-8.8,12.3-8.8,20.4c0,1,0.1,1.9,0.1,2.8
		c1.7,13,12.1,23.4,25.1,25.1c0.9,0.1,1.9,0.1,2.8,0.1c8,0,15.2-3.4,20.4-8.8c-5,4.8-11.8,7.8-19.3,7.8
		C138.4,746.6,125.8,734,125.8,718.5z"/>
	<path class="st56" d="M172.2,702.8c0,0.1,0,0.3-0.1,0.4c0.6-0.2,1.1-0.7,1.1-1.4c0-0.8-0.7-1.5-1.5-1.5c-0.7,0-1.2,0.5-1.4,1.1
		c0.1,0,0.3-0.1,0.4-0.1C171.5,701.3,172.2,702,172.2,702.8z"/>
	<path class="st56" d="M179.8,718.5c0-0.8-0.7-1.5-1.5-1.5c-0.7,0-1.2,0.5-1.4,1.1c0.1,0,0.3-0.1,0.4-0.1c0.8,0,1.5,0.7,1.5,1.5
		c0,0.1,0,0.3-0.1,0.4C179.4,719.7,179.8,719.2,179.8,718.5z"/>
	<path class="st56" d="M153.9,697.4c-6.1,0-11.6,2.6-15.4,6.7c3.8-3.5,8.8-5.7,14.4-5.7c11.7,0,21.1,9.4,21.1,21.1
		c0,5.6-2.2,10.6-5.7,14.4c4.1-3.9,6.7-9.3,6.7-15.4C175,706.8,165.6,697.4,153.9,697.4z"/>
	<path class="st56" d="M170.6,734.7c-0.7,0-1.2,0.5-1.4,1.1c0.1,0,0.3-0.1,0.4-0.1c0.8,0,1.5,0.7,1.5,1.5c0,0.1,0,0.3-0.1,0.4
		c0.6-0.2,1.1-0.7,1.1-1.4C172.1,735.4,171.4,734.7,170.6,734.7z"/>
	<path class="st56" d="M258.9,718.9c0-8.6,3.4-16.5,8.9-22.2c-6.1,5.9-10,14.1-10,23.3c0,17.8,14.4,32.2,32.2,32.2
		c9.1,0,17.4-3.8,23.3-10c-5.8,5.5-13.6,8.9-22.2,8.9C273.3,751.2,258.9,736.7,258.9,718.9z"/>
	<path class="st56" d="M291.1,741.9c-0.7,0-1.2,0.5-1.4,1.1c0.1,0,0.3-0.1,0.4-0.1c0.8,0,1.5,0.7,1.5,1.5c0,0.1,0,0.3-0.1,0.4
		c0.6-0.2,1.1-0.7,1.1-1.4C292.6,742.5,291.9,741.9,291.1,741.9z"/>
	<path class="st56" d="M273.3,735.2c-0.7,0-1.2,0.5-1.4,1.1c0.1,0,0.3-0.1,0.4-0.1c0.8,0,1.5,0.7,1.5,1.5c0,0.1,0,0.3-0.1,0.4
		c0.6-0.2,1.1-0.7,1.1-1.4C274.8,735.9,274.2,735.2,273.3,735.2z"/>
	<path class="st56" d="M272.7,704.4c0,0.1,0,0.3-0.1,0.4c0.6-0.2,1.1-0.7,1.1-1.4c0-0.8-0.7-1.5-1.5-1.5c-0.7,0-1.2,0.5-1.4,1.1
		c0.1,0,0.3-0.1,0.4-0.1C272,702.9,272.7,703.6,272.7,704.4z"/>
	<path class="st56" d="M266.7,717.4c-0.7,0-1.2,0.5-1.4,1.1c0.1,0,0.3-0.1,0.4-0.1c0.8,0,1.5,0.7,1.5,1.5c0,0.1,0,0.3-0.1,0.4
		c0.6-0.2,1.1-0.7,1.1-1.4C268.2,718.1,267.5,717.4,266.7,717.4z"/>
	<path class="st56" d="M291.6,695.5c0,0.1,0,0.3-0.1,0.4c0.6-0.2,1.1-0.7,1.1-1.4c0-0.8-0.7-1.5-1.5-1.5c-0.7,0-1.2,0.5-1.4,1.1
		c0.1,0,0.3-0.1,0.4-0.1C290.9,694,291.6,694.7,291.6,695.5z"/>
	<path class="st56" d="M263,718.9c0-7.5,3-14.3,7.8-19.3c-5.4,5.1-8.8,12.3-8.8,20.4c0,1,0.1,1.9,0.1,2.8
		c1.7,13,12.1,23.4,25.1,25.1c0.9,0.1,1.9,0.1,2.8,0.1c8,0,15.2-3.4,20.4-8.8c-5,4.8-11.8,7.8-19.3,7.8
		C275.6,747,263,734.4,263,718.9z"/>
	<path class="st56" d="M309.4,703.3c0,0.1,0,0.3-0.1,0.4c0.6-0.2,1.1-0.7,1.1-1.4c0-0.8-0.7-1.5-1.5-1.5c-0.7,0-1.2,0.5-1.4,1.1
		c0.1,0,0.3-0.1,0.4-0.1C308.7,701.8,309.4,702.5,309.4,703.3z"/>
	<path class="st56" d="M317.1,718.9c0-0.8-0.7-1.5-1.5-1.5c-0.7,0-1.2,0.5-1.4,1.1c0.1,0,0.3-0.1,0.4-0.1c0.8,0,1.5,0.7,1.5,1.5
		c0,0.1,0,0.3-0.1,0.4C316.6,720.2,317.1,719.6,317.1,718.9z"/>
	<path class="st56" d="M291.1,697.8c-6.1,0-11.6,2.6-15.4,6.7c3.8-3.5,8.8-5.7,14.4-5.7c11.7,0,21.1,9.4,21.1,21.1
		c0,5.6-2.2,10.6-5.7,14.4c4.1-3.9,6.7-9.3,6.7-15.4C312.2,707.3,302.8,697.8,291.1,697.8z"/>
	<path class="st56" d="M307.8,735.2c-0.7,0-1.2,0.5-1.4,1.1c0.1,0,0.3-0.1,0.4-0.1c0.8,0,1.5,0.7,1.5,1.5c0,0.1,0,0.3-0.1,0.4
		c0.6-0.2,1.1-0.7,1.1-1.4C309.3,735.9,308.6,735.2,307.8,735.2z"/>
	<path class="st56" d="M396.2,721.3c0-8.6,3.4-16.5,8.9-22.2c-6.1,5.9-10,14.1-10,23.3c0,17.8,14.4,32.2,32.2,32.2
		c9.1,0,17.4-3.8,23.3-10c-5.8,5.5-13.6,8.9-22.2,8.9C410.6,753.5,396.2,739.1,396.2,721.3z"/>
	<path class="st56" d="M428.4,744.2c-0.7,0-1.2,0.5-1.4,1.1c0.1,0,0.3-0.1,0.4-0.1c0.8,0,1.5,0.7,1.5,1.5c0,0.1,0,0.3-0.1,0.4
		c0.6-0.2,1.1-0.7,1.1-1.4C429.9,744.9,429.2,744.2,428.4,744.2z"/>
	<path class="st56" d="M410.6,737.6c-0.7,0-1.2,0.5-1.4,1.1c0.1,0,0.3-0.1,0.4-0.1c0.8,0,1.5,0.7,1.5,1.5c0,0.1,0,0.3-0.1,0.4
		c0.6-0.2,1.1-0.7,1.1-1.4C412.1,738.2,411.5,737.6,410.6,737.6z"/>
	<path class="st56" d="M410,706.8c0,0.1,0,0.3-0.1,0.4c0.6-0.2,1.1-0.7,1.1-1.4c0-0.8-0.7-1.5-1.5-1.5c-0.7,0-1.2,0.5-1.4,1.1
		c0.1,0,0.3-0.1,0.4-0.1C409.3,705.3,410,705.9,410,706.8z"/>
	<path class="st56" d="M404,719.8c-0.7,0-1.2,0.5-1.4,1.1c0.1,0,0.3-0.1,0.4-0.1c0.8,0,1.5,0.7,1.5,1.5c0,0.1,0,0.3-0.1,0.4
		c0.6-0.2,1.1-0.7,1.1-1.4C405.5,720.5,404.8,719.8,404,719.8z"/>
	<path class="st56" d="M428.9,697.9c0,0.1,0,0.3-0.1,0.4c0.6-0.2,1.1-0.7,1.1-1.4c0-0.8-0.7-1.5-1.5-1.5c-0.7,0-1.2,0.5-1.4,1.1
		c0.1,0,0.3-0.1,0.4-0.1C428.2,696.4,428.9,697,428.9,697.9z"/>
	<path class="st56" d="M400.3,721.3c0-7.5,3-14.3,7.8-19.3c-5.4,5.1-8.8,12.3-8.8,20.4c0,1,0,1.9,0.1,2.8
		c1.7,13,12.1,23.4,25.1,25.1c0.9,0.1,1.9,0.1,2.8,0.1c8,0,15.2-3.4,20.4-8.8c-5,4.8-11.8,7.8-19.3,7.8
		C412.9,749.4,400.3,736.8,400.3,721.3z"/>
	<path class="st56" d="M446.6,705.7c0,0.1,0,0.3-0.1,0.4c0.6-0.2,1.1-0.7,1.1-1.4c0-0.8-0.7-1.5-1.5-1.5c-0.7,0-1.2,0.5-1.4,1.1
		c0.1,0,0.3-0.1,0.4-0.1C446,704.2,446.6,704.8,446.6,705.7z"/>
	<path class="st56" d="M428.4,700.2c-6.1,0-11.6,2.6-15.4,6.7c3.8-3.5,8.8-5.7,14.4-5.7c11.7,0,21.1,9.4,21.1,21.1
		c0,5.6-2.2,10.6-5.7,14.4c4.1-3.9,6.7-9.3,6.7-15.4C449.5,709.6,440.1,700.2,428.4,700.2z"/>
	<path class="st56" d="M445.1,737.6c-0.7,0-1.2,0.5-1.4,1.1c0.1,0,0.3-0.1,0.4-0.1c0.8,0,1.5,0.7,1.5,1.5c0,0.1,0,0.3-0.1,0.4
		c0.6-0.2,1.1-0.7,1.1-1.4C446.6,738.2,445.9,737.6,445.1,737.6z"/>
	<path class="st56" d="M454.4,721.3c0-0.8-0.7-1.5-1.5-1.5c-0.7,0-1.2,0.5-1.4,1.1c0.1,0,0.3-0.1,0.4-0.1c0.8,0,1.5,0.7,1.5,1.5
		c0,0.1,0,0.3-0.1,0.4C453.9,722.5,454.4,722,454.4,721.3z"/>
	<path class="st78" d="M152.9,687.3c-8.6,0-16.5,3.4-22.2,8.9c-5.5,5.8-8.9,13.6-8.9,22.2c0,17.8,14.4,32.2,32.2,32.2
		c8.6,0,16.5-3.4,22.2-8.9c5.5-5.8,8.9-13.6,8.9-22.2C185.1,701.7,170.7,687.3,152.9,687.3z M152.9,748.8
		c-16.2,0-29.3-13.2-29.3-29.3c0-8.3,3.5-15.8,9.1-21.2c5.3-5.6,12.8-9.1,21.2-9.1c16.2,0,29.3,13.2,29.3,29.3
		c0,8.3-3.5,15.8-9.1,21.2C168.7,745.2,161.2,748.8,152.9,748.8z"/>
	<path class="st78" d="M152.9,691.4c-7.5,0-14.3,3-19.3,7.8c-4.8,5-7.8,11.8-7.8,19.3c0,15.5,12.6,28.1,28.1,28.1
		c7.5,0,14.3-3,19.3-7.8c4.8-5,7.8-11.8,7.8-19.3C181,704,168.4,691.4,152.9,691.4z M171.7,700.3c0.8,0,1.5,0.7,1.5,1.5
		c0,0.7-0.5,1.2-1.1,1.4c-0.1,0-0.3,0.1-0.4,0.1c-0.8,0-1.5-0.7-1.5-1.5c0-0.1,0-0.3,0.1-0.4C170.4,700.8,171,700.3,171.7,700.3z
		 M153.9,692.5c0.8,0,1.5,0.7,1.5,1.5c0,0.7-0.5,1.2-1.1,1.4c-0.1,0-0.3,0.1-0.4,0.1c-0.8,0-1.5-0.7-1.5-1.5c0-0.1,0-0.3,0.1-0.4
		C152.7,693,153.2,692.5,153.9,692.5z M135,701.4c0.8,0,1.5,0.7,1.5,1.5c0,0.7-0.5,1.2-1.1,1.4c-0.1,0-0.3,0.1-0.4,0.1
		c-0.8,0-1.5-0.7-1.5-1.5c0-0.1,0-0.3,0.1-0.4C133.8,701.9,134.3,701.4,135,701.4z M129.9,719.9c-0.1,0-0.3,0.1-0.4,0.1
		c-0.8,0-1.5-0.7-1.5-1.5c0-0.1,0-0.3,0.1-0.4c0.2-0.6,0.7-1.1,1.4-1.1c0.8,0,1.5,0.7,1.5,1.5C131,719.2,130.5,719.7,129.9,719.9z
		 M136.5,737.7c-0.1,0-0.3,0.1-0.4,0.1c-0.8,0-1.5-0.7-1.5-1.5c0-0.1,0-0.3,0.1-0.4c0.2-0.6,0.7-1.1,1.4-1.1c0.8,0,1.5,0.7,1.5,1.5
		C137.6,736.9,137.2,737.5,136.5,737.7z M154.3,744.3c-0.1,0-0.3,0.1-0.4,0.1c-0.8,0-1.5-0.7-1.5-1.5c0-0.1,0-0.3,0.1-0.4
		c0.2-0.6,0.7-1.1,1.4-1.1c0.8,0,1.5,0.7,1.5,1.5C155.4,743.6,154.9,744.2,154.3,744.3z M171,737.7c-0.1,0-0.3,0.1-0.4,0.1
		c-0.8,0-1.5-0.7-1.5-1.5c0-0.1,0-0.3,0.1-0.4c0.2-0.6,0.7-1.1,1.4-1.1c0.8,0,1.5,0.7,1.5,1.5C172.1,736.9,171.6,737.5,171,737.7z
		 M168.3,733.9c-3.9,4.1-9.3,6.7-15.4,6.7c-11.7,0-21.1-9.4-21.1-21.1c0-6.1,2.6-11.6,6.7-15.4c3.9-4.1,9.3-6.7,15.4-6.7
		c11.7,0,21.1,9.4,21.1,21.1C175,724.6,172.4,730,168.3,733.9z M178.7,719.9c-0.1,0-0.3,0.1-0.4,0.1c-0.8,0-1.5-0.7-1.5-1.5
		c0-0.1,0-0.3,0.1-0.4c0.2-0.6,0.7-1.1,1.4-1.1c0.8,0,1.5,0.7,1.5,1.5C179.8,719.2,179.4,719.7,178.7,719.9z"/>
	<path class="st78" d="M183.2,718.5c0-16.1-13.1-29.3-29.3-29.3c-8.3,0-15.8,3.5-21.2,9.1c5.3-5,12.3-8.1,20.2-8.1
		c1.3,0,2.6,0.1,3.9,0.3c13.2,1.3,23.8,11.9,25.1,25.1c0.2,1.3,0.3,2.5,0.3,3.9c0,7.8-3.1,14.9-8.1,20.1
		C179.7,734.3,183.2,726.8,183.2,718.5z"/>
	<path class="st78" d="M290.1,691.9c-7.5,0-14.3,3-19.3,7.8c-4.8,5-7.8,11.8-7.8,19.3c0,15.5,12.6,28.1,28.1,28.1
		c7.5,0,14.3-3,19.3-7.8c4.8-5,7.8-11.8,7.8-19.3C318.2,704.5,305.6,691.9,290.1,691.9z M308.9,700.8c0.8,0,1.5,0.7,1.5,1.5
		c0,0.7-0.5,1.2-1.1,1.4c-0.1,0-0.3,0.1-0.4,0.1c-0.8,0-1.5-0.7-1.5-1.5c0-0.1,0-0.3,0.1-0.4C307.6,701.2,308.2,700.8,308.9,700.8z
		 M291.1,693c0.8,0,1.5,0.7,1.5,1.5c0,0.7-0.5,1.2-1.1,1.4c-0.1,0-0.3,0.1-0.4,0.1c-0.8,0-1.5-0.7-1.5-1.5c0-0.1,0-0.3,0.1-0.4
		C289.9,693.5,290.4,693,291.1,693z M272.2,701.9c0.8,0,1.5,0.7,1.5,1.5c0,0.7-0.5,1.2-1.1,1.4c-0.1,0-0.3,0.1-0.4,0.1
		c-0.8,0-1.5-0.7-1.5-1.5c0-0.1,0-0.3,0.1-0.4C271,702.4,271.5,701.9,272.2,701.9z M267.1,720.4c-0.1,0-0.3,0.1-0.4,0.1
		c-0.8,0-1.5-0.7-1.5-1.5c0-0.1,0-0.3,0.1-0.4c0.2-0.6,0.7-1.1,1.4-1.1c0.8,0,1.5,0.7,1.5,1.5C268.2,719.6,267.7,720.2,267.1,720.4z
		 M273.7,738.1c-0.1,0-0.3,0.1-0.4,0.1c-0.8,0-1.5-0.7-1.5-1.5c0-0.1,0-0.3,0.1-0.4c0.2-0.6,0.7-1.1,1.4-1.1c0.8,0,1.5,0.7,1.5,1.5
		C274.8,737.4,274.4,738,273.7,738.1z M291.5,744.8c-0.1,0-0.3,0.1-0.4,0.1c-0.8,0-1.5-0.7-1.5-1.5c0-0.1,0-0.3,0.1-0.4
		c0.2-0.6,0.7-1.1,1.4-1.1c0.8,0,1.5,0.7,1.5,1.5C292.6,744.1,292.1,744.6,291.5,744.8z M308.2,738.1c-0.1,0-0.3,0.1-0.4,0.1
		c-0.8,0-1.5-0.7-1.5-1.5c0-0.1,0-0.3,0.1-0.4c0.2-0.6,0.7-1.1,1.4-1.1c0.8,0,1.5,0.7,1.5,1.5C309.3,737.4,308.8,738,308.2,738.1z
		 M305.5,734.4c-3.9,4.1-9.3,6.7-15.4,6.7c-11.7,0-21.1-9.4-21.1-21.1c0-6.1,2.6-11.6,6.7-15.4c3.9-4.1,9.3-6.7,15.4-6.7
		c11.7,0,21.1,9.4,21.1,21.1C312.2,725,309.6,730.5,305.5,734.4z M315.9,720.4c-0.1,0-0.3,0.1-0.4,0.1c-0.8,0-1.5-0.7-1.5-1.5
		c0-0.1,0-0.3,0.1-0.4c0.2-0.6,0.7-1.1,1.4-1.1c0.8,0,1.5,0.7,1.5,1.5C317.1,719.6,316.6,720.2,315.9,720.4z"/>
	<path class="st78" d="M290.1,687.7c-8.6,0-16.5,3.4-22.2,8.9c-5.5,5.8-8.9,13.6-8.9,22.2c0,17.8,14.4,32.2,32.2,32.2
		c8.6,0,16.5-3.4,22.2-8.9c5.5-5.8,8.9-13.6,8.9-22.2C322.3,702.2,307.9,687.7,290.1,687.7z M290.1,749.2
		c-16.2,0-29.3-13.2-29.3-29.3c0-8.3,3.5-15.8,9.1-21.2c5.3-5.6,12.8-9.1,21.2-9.1c16.2,0,29.3,13.2,29.3,29.3
		c0,8.3-3.5,15.8-9.1,21.2C305.9,745.7,298.4,749.2,290.1,749.2z"/>
	<path class="st78" d="M320.4,718.9c0-16.1-13.1-29.3-29.3-29.3c-8.3,0-15.8,3.5-21.2,9.1c5.3-5,12.3-8.1,20.2-8.1
		c1.3,0,2.6,0.1,3.9,0.3c13.2,1.3,23.8,11.9,25.1,25.1c0.2,1.3,0.3,2.5,0.3,3.9c0,7.8-3.1,14.9-8.1,20.1
		C316.9,734.8,320.4,727.3,320.4,718.9z"/>
	<path class="st78" d="M427.4,694.2c-7.5,0-14.3,3-19.3,7.8c-4.8,5-7.8,11.8-7.8,19.3c0,15.5,12.6,28.1,28.1,28.1
		c7.5,0,14.3-3,19.3-7.8c4.8-5,7.8-11.8,7.8-19.3C455.5,706.8,442.9,694.2,427.4,694.2z M446.2,703.1c0.8,0,1.5,0.7,1.5,1.5
		c0,0.7-0.5,1.2-1.1,1.4c-0.1,0-0.3,0.1-0.4,0.1c-0.8,0-1.5-0.7-1.5-1.5c0-0.1,0-0.3,0.1-0.4C444.9,703.6,445.5,703.1,446.2,703.1z
		 M428.4,695.4c0.8,0,1.5,0.7,1.5,1.5c0,0.7-0.5,1.2-1.1,1.4c-0.1,0-0.3,0.1-0.4,0.1c-0.8,0-1.5-0.7-1.5-1.5c0-0.1,0-0.3,0.1-0.4
		C427.1,695.8,427.7,695.4,428.4,695.4z M409.5,704.2c0.8,0,1.5,0.7,1.5,1.5c0,0.7-0.5,1.2-1.1,1.4c-0.1,0-0.3,0.1-0.4,0.1
		c-0.8,0-1.5-0.7-1.5-1.5c0-0.1,0-0.3,0.1-0.4C408.3,704.7,408.8,704.2,409.5,704.2z M404.3,722.7c-0.1,0-0.3,0.1-0.4,0.1
		c-0.8,0-1.5-0.7-1.5-1.5c0-0.1,0-0.3,0.1-0.4c0.2-0.6,0.7-1.1,1.4-1.1c0.8,0,1.5,0.7,1.5,1.5C405.5,722,405,722.5,404.3,722.7z
		 M411,740.5c-0.1,0-0.3,0.1-0.4,0.1c-0.8,0-1.5-0.7-1.5-1.5c0-0.1,0-0.3,0.1-0.4c0.2-0.6,0.7-1.1,1.4-1.1c0.8,0,1.5,0.7,1.5,1.5
		C412.1,739.8,411.6,740.3,411,740.5z M428.8,747.2c-0.1,0-0.3,0.1-0.4,0.1c-0.8,0-1.5-0.7-1.5-1.5c0-0.1,0-0.3,0.1-0.4
		c0.2-0.6,0.7-1.1,1.4-1.1c0.8,0,1.5,0.7,1.5,1.5C429.9,746.4,429.4,747,428.8,747.2z M445.5,740.5c-0.1,0-0.3,0.1-0.4,0.1
		c-0.8,0-1.5-0.7-1.5-1.5c0-0.1,0-0.3,0.1-0.4c0.2-0.6,0.7-1.1,1.4-1.1c0.8,0,1.5,0.7,1.5,1.5C446.6,739.8,446.1,740.3,445.5,740.5z
		 M442.8,736.7c-3.9,4.1-9.3,6.7-15.4,6.7c-11.7,0-21.1-9.4-21.1-21.1c0-6.1,2.6-11.6,6.7-15.4c3.9-4.1,9.3-6.7,15.4-6.7
		c11.7,0,21.1,9.4,21.1,21.1C449.5,727.4,446.9,732.9,442.8,736.7z M453.2,722.7c-0.1,0-0.3,0.1-0.4,0.1c-0.8,0-1.5-0.7-1.5-1.5
		c0-0.1,0-0.3,0.1-0.4c0.2-0.6,0.7-1.1,1.4-1.1c0.8,0,1.5,0.7,1.5,1.5C454.3,722,453.9,722.5,453.2,722.7z"/>
	<path class="st78" d="M427.4,690.1c-8.6,0-16.5,3.4-22.2,8.9c-5.5,5.8-8.9,13.6-8.9,22.2c0,17.8,14.4,32.2,32.2,32.2
		c8.6,0,16.5-3.4,22.2-8.9c5.5-5.8,8.9-13.6,8.9-22.2C459.6,704.5,445.1,690.1,427.4,690.1z M427.4,751.6
		c-16.2,0-29.3-13.2-29.3-29.3c0-8.3,3.5-15.8,9.1-21.2c5.3-5.6,12.8-9.1,21.2-9.1c16.2,0,29.3,13.2,29.3,29.3
		c0,8.3-3.5,15.8-9.1,21.2C443.2,748.1,435.7,751.6,427.4,751.6z"/>
	<path class="st78" d="M457.7,721.3c0-16.1-13.1-29.3-29.3-29.3c-8.3,0-15.8,3.5-21.2,9.1c5.3-5,12.3-8.1,20.2-8.1
		c1.3,0,2.6,0.1,3.9,0.3c13.2,1.3,23.8,11.9,25.1,25.1c0.2,1.3,0.3,2.5,0.3,3.9c0,7.8-3.1,14.9-8.1,20.1
		C454.2,737.1,457.7,729.6,457.7,721.3z"/>
</g>
</svg>
