<?xml version="1.0" encoding="utf-8"?>
<!-- Generator: Adobe Illustrator 21.0.0, SVG Export Plug-In . SVG Version: 6.00 Build 0)  -->
<svg version="1.1" id="Layer_1" xmlns="http://www.w3.org/2000/svg" xmlns:xlink="http://www.w3.org/1999/xlink" x="0px" y="0px"
	 viewBox="0 0 881.8 841.9" style="enable-background:new 0 0 881.8 841.9;" xml:space="preserve">
<style type="text/css">
	.st0{display:none;}
	.st1{display:inline;opacity:0.5;fill:none;stroke:#000000;stroke-miterlimit:10;enable-background:new    ;}
	.st2{display:inline;fill:none;stroke:#000000;stroke-miterlimit:10;}
	.st3{fill:#372712;}
	.st4{fill:#452B12;}
	.st5{fill:#5F3613;}
	.st6{fill:#503111;}
	.st7{fill:#8E5420;}
	.st8{clip-path:url(#SVGID_2_);fill:#8E5420;}
	.st9{display:none;fill:#8E5420;}
	.st10{clip-path:url(#SVGID_4_);fill:#8E5420;}
	.st11{clip-path:url(#SVGID_6_);fill:#8E5420;}
	.st12{display:none;opacity:0.8;}
	.st13{opacity:0.8;}
	.st14{display:inline;}
	.st15{display:inline;clip-path:url(#SVGID_8_);}
	.st16{clip-path:url(#SVGID_10_);fill:#8E5420;}
	.st17{display:none;opacity:0.5;fill:#8E5420;enable-background:new    ;}
	.st18{display:inline;fill:#8E5420;}
	.st19{clip-path:url(#SVGID_12_);fill:#8E5420;}
	.st20{clip-path:url(#SVGID_14_);fill:#8E5420;}
	.st21{clip-path:url(#SVGID_16_);fill:#8E5420;}
	.st22{clip-path:url(#SVGID_18_);fill:#8E5420;}
	.st23{clip-path:url(#SVGID_20_);fill:#8E5420;}
	.st24{fill:#F09FC0;}
	.st25{fill:#F8A05E;}
	.st26{fill:#FDD6B1;}
</style>
<g id="Layer_2" class="st0">
	
		<image style="display:inline;overflow:visible;opacity:0.6;enable-background:new    ;" width="353" height="318" xlink:href="98CC9666.png"  transform="matrix(-2.196 0 0 2.196 794.1721 25.5361)">
	</image>
</g>
<g id="Layer_1_1_" class="st0">
	<line class="st1" x1="242.5" y1="595.1" x2="663.4" y2="595.1"/>
	<line class="st1" x1="252.5" y1="585.6" x2="663.4" y2="585.6"/>
	<line class="st1" x1="242.9" y1="595.5" x2="242.9" y2="428.6"/>
	<path class="st1" d="M436.4,595.1c10.6,0,21.4-1.8,31.3-5.7c21-8.2,30.4-37.5,19.7-56.7c-5-9.1-18.7-10.4-25-1.5
		c-5.3,7.4-1.6,20.8,8.2,21.8c13,1.3,14.5-17.9,1-14.7"/>
	<path class="st1" d="M477.5,539.4c11.8,10.4,2.1,26-6.8,34.5c-13.8,13.2-31.1,11.9-48,12.5"/>
	<path class="st1" d="M467.7,525.7c12.5-11.9,31.8-11,47.7-11c26.9,0,46,0.8,68.7-16.4"/>
	<path class="st1" d="M485.2,529.7c11.9-6,26.9-5.4,39.7-5.4c26.9,0,46,0.8,68.7-16.4"/>
	<path class="st1" d="M593.9,498.3c2.5-8.8,13.8-2.1,12.4,5.4c-2.5,12.4-40.1-4-7.5-22.4c19.8-12.4,61.6-41.5,64.6-43.1
		c11.4-5.7,26.5-9.4,36.2-2.1c9.5,7.2,6.1,28.9-7.8,21.4c-5-2.7-6.9-9.3-1.7-12.7c6.1-4,12.2,4,5.6,6.6"/>
	<path class="st1" d="M593.1,500.3c1.3-2.3,3.6-4.8,7.1-7.3c1.4-1,3-2,4.7-3c1.2-0.7,2.4-1.5,3.8-2.4c20.9-13.4,58-39.2,60.8-40.7
		c7-3.5,15.3-6.3,23-6.2"/>
	<path class="st1" d="M699.6,458c1.6,4.3,0.8,11.2,1,15.9c0.3,5.3,0,10.7,0,16c0,26.6-0.1,53.5-7.7,79.2
		c-14.4,48.5-51.1,87.5-92.9,114.4c-11.6,7.5-24,14.6-36.7,20.1c-17.3,7.6-38.1,14-57.1,15.7c-19.8,1.7-279.8,4.5-285.6,1.5
		c-18.9-9.8-24.9-30.6-29.2-49.9c-4.8-21.7-10.1-43.9-24.7-61.4c-5.2-6.2-12.2-11-16.1-18.2"/>
	<path class="st1" d="M691.8,453.4c1.6,4.3,0.8,11.2,1,15.9c0.3,5.3,0,10.7,0,16c0,26.6-0.1,53.5-7.7,79.2
		c-14.4,48.5-51.1,87.5-92.9,114.4c-11.6,7.5-24,14.6-36.7,20.1c-17.3,7.6-38.1,14-57.1,15.7c-19.8,1.7-279.8,4.5-285.6,1.5
		c-18.9-9.8-24.9-30.6-29.2-49.9c-4.8-21.7-10.1-43.9-24.7-61.4c-5.2-6.2-12.2-11-16.1-18.2"/>
	<path class="st1" d="M659.2,614.1c-16.2,22.8-36.6,42.6-59.3,57.2c-11.6,7.5-24,14.6-36.7,20.1c-17.3,7.6-38.1,14-57.1,15.7
		c-19.8,1.7-279.8,4.5-285.6,1.5c-18.9-9.8-24.9-30.6-29.2-49.9c-4.8-21.7-10.1-43.9-24.7-61.4c-5.2-6.2-12.2-11-16.1-18.2"/>
	<line class="st1" x1="200.1" y1="710" x2="566.6" y2="710"/>
	<path class="st1" d="M692.9,468.3c1.6-10.8,20.2-16.5,21.7-2.7c0.6,5.6-1.5,12.1-8.4,11.7c-5.1-0.3-8-10.2-1.7-11.1
		c2.2-0.3,4.8,3.5,1.7,4.4"/>
	<path class="st1" d="M680.6,443c0,0,157-35.9,173-39.9c13-0.8,12.8,6.4,0,10.9c-23.1,5.9-173,44-173,44V443z"/>
	<polygon class="st1" points="680.6,443 748.8,427.3 750.1,440.3 680.6,458 	"/>
	<path class="st2" d="M252.5,595.1v-95.6H152.3c0,0-30.2,29,0,95.6"/>
</g>
<circle class="st3" cx="427.5" cy="421.4" r="401.5"/>
<g>
	<g id="วิปป_2_">
		<path class="st24" d="M132.1,575.9c0,0-65.4-92.9,55.3-146.6c0,0-55-115.1,82.8-115.1c0,0-20.2-118.7,94.5-93.7
			c0,0-53.3-71.1,54.1-124.4c0,0,53.3-25,94.5,18.6c0,0-64.6,10.5-39.6,48.5c0,0,9.7,17.8,20.2,21c0,0,32.3,17.8-8.1,39.6
			c0,0,63.8-21,82.4,21c0,0,19.4,43.6-4.8,67c0,0,147.8-25,81.6,115.5c0,0,155.4,7.8,54.3,149.8
			C699.2,577.1,580.6,607.7,132.1,575.9z"/>
		<g id="ชั้นในวิปชั้นรักเธอว์_2_">
			<path class="st24" d="M447,90.1c0,0-14.3-1.5-38.7,12.3c-34.4,19.5-76.8,55.7-44.5,117.4c0,0,86.7,122.8,199.2,92.9
				c0,0,22.3-23.2,7.3-61.4c0,0-8.9-47.1-81.6-28.5c0,0-41.7,8.3-66.8-44.1C422,178.6,398.6,132.5,447,90.1z"/>
			<path class="st24" d="M269.9,314.3c0,0-130.6-10-82.9,114.1c0,0,111.5,142.7,315,159.6c0,0,186.6-6.5,197.1-10.5
				c0,0,108.2-130-52.5-150.2C646.5,427.3,377.7,480,269.9,314.3z"/>
		</g>
	</g>
	<g id="ขอบถ้วยย_3_">
		<path class="st25" d="M141.7,561.2c0,0,258.4,28,564.3,2.2c0,0,21.5,6.5,20.5,42c0,0,4.3,25.8-20.5,42c0,0-322,25.8-565.3,2.2
			c0,0-14.5-7-14.5-44.7C126.1,604.8,126.1,560.6,141.7,561.2z"/>
		<g id="ลายในขอบ_3_">
			<path class="st26" d="M197.9,566.3c0,0-13.2,26.7,4.3,88.3l56.8,3c0,0-16.2-67.8-2.7-86.7L197.9,566.3z"/>
			<path class="st26" d="M327.4,573.5c0,0-10.2,39.8,2.2,85.5l59.2,0.6c0,0-5.4-66.8,2.2-85.6L327.4,573.5z"/>
			<path class="st26" d="M456.6,574.6c0,0,5.9,65.1,1.1,84.5L525,657c0,0,9.2-35-0.5-83.5L456.6,574.6z"/>
			<path class="st26" d="M594.5,570.8c0,0,7,70.5,1.6,82.9l57.6-2.7c0,0,3.8-38.2-3.2-83.5L594.5,570.8z"/>
		</g>
	</g>
</g>
</svg>
