<?xml version="1.0" encoding="utf-8"?>
<!-- Generator: Adobe Illustrator 16.0.0, SVG Export Plug-In . SVG Version: 6.00 Build 0)  -->
<!DOCTYPE svg PUBLIC "-//W3C//DTD SVG 1.1//EN" "http://www.w3.org/Graphics/SVG/1.1/DTD/svg11.dtd">
<svg version="1.1" xmlns="http://www.w3.org/2000/svg" xmlns:xlink="http://www.w3.org/1999/xlink" x="0px" y="0px"
	 width="306.413px" height="306.879px" viewBox="0 0 306.413 306.879" enable-background="new 0 0 306.413 306.879"
	 xml:space="preserve">
<g id="Layer_2" display="none">
	<linearGradient id="SVGID_1_" gradientUnits="userSpaceOnUse" x1="377.9961" y1="2265.2993" x2="377.996" y2="-728.7012">
		<stop  offset="0" style="stop-color:#1D3C5C"/>
		<stop  offset="1" style="stop-color:#141123"/>
	</linearGradient>
	<rect x="-216.171" y="-728.702" display="inline" fill="url(#SVGID_1_)" width="1188.334" height="2994.001"/>
</g>
<g id="Layer_3">
	<g>
		<defs>
			<rect id="SVGID_2_" x="-49.837" y="-45.976" width="400" height="400"/>
		</defs>
		<clipPath id="SVGID_3_">
			<use xlink:href="#SVGID_2_"  overflow="visible"/>
		</clipPath>
		<path clip-path="url(#SVGID_3_)" fill="#AAAAAA" d="M306.624,154.224c0,84.776-68.725,153.501-153.5,153.501
			S-0.376,239-0.376,154.224s68.725-153.5,153.5-153.5S306.624,69.448,306.624,154.224"/>
		<path clip-path="url(#SVGID_3_)" fill="#A0A0A0" d="M249.374,191.376c-1.271-1.525-3.158-2.406-5.143-2.406h-38.865v-8.703h10.064
			c0.541,0,1.078-0.064,1.602-0.189c14.031-3.455,24.217-19.781,24.217-38.824c0-19.04-10.186-35.366-24.217-38.821
			c-0.523-0.127-1.061-0.194-1.602-0.194h-10.064v-3.985h1.465c0.535,0,1.074-0.065,1.596-0.195
			c8.92-2.194,15.15-11.856,15.15-23.495c0-11.638-6.23-21.3-15.15-23.495c-0.521-0.129-1.061-0.193-1.596-0.193h-29.137
			c-3.389,0-6.24,2.524-6.648,5.885c-0.408,3.361,1.758,6.498,5.047,7.307c2.08,0.513,4.961,4.443,4.961,10.497
			c0,6.052-2.881,9.983-4.961,10.498c-3.285,0.809-5.455,3.94-5.047,7.302s3.26,5.891,6.648,5.891h14.285v3.985h-31.959
			c-3.385,0-6.236,2.528-6.645,5.886c-0.408,3.361,1.756,6.496,5.047,7.305c7.996,1.969,14.027,13.07,14.027,25.825
			c0,12.754-6.031,23.854-14.027,25.822c-3.291,0.809-5.455,3.945-5.047,7.307s3.26,5.885,6.645,5.885h31.959v8.703h-12.336
			c-3.697,0-6.693,2.998-6.693,6.691c0,2.318-2.814,4.354-6.021,4.354h-33.13c-3.207,0-6.025-2.035-6.025-4.354
			c0-3.693-2.997-6.691-6.69-6.691h-9.588v-8.703h11.453c0.541,0,1.078-0.064,1.601-0.189c14.03-3.455,24.216-19.781,24.216-38.824
			c0-19.04-10.186-35.366-24.216-38.821c-0.522-0.127-1.06-0.194-1.601-0.194h-11.453v-3.985h2.85c0.54,0,1.077-0.065,1.6-0.195
			c8.922-2.194,15.15-11.856,15.15-23.495c0-11.638-6.229-21.3-15.15-23.495c-0.522-0.129-1.06-0.193-1.6-0.193H85.208
			c-3.385,0-6.236,2.524-6.645,5.885c-0.408,3.361,1.758,6.498,5.043,7.307c2.083,0.513,4.965,4.443,4.965,10.497
			c0,6.052-2.882,9.983-4.961,10.498c-3.287,0.809-5.455,3.94-5.047,7.302s3.26,5.891,6.645,5.891H98.11v3.985H67.536
			c-3.381,0-6.235,2.528-6.644,5.886c-0.407,3.361,1.761,6.496,5.047,7.305c7.996,1.969,14.028,13.07,14.028,25.825
			c0,12.754-6.032,23.854-14.028,25.822c-3.286,0.809-5.454,3.945-5.047,7.307c0.408,3.361,3.263,5.885,6.644,5.885h30.578v8.703
			H62.018c-3.696,0-6.694,2.998-6.694,6.691v24.431c0,20.668,16.814,37.482,37.479,37.482h109.597
			c19.961,0,39.604-15.879,43.787-35.396c0.012-0.064,0.023-0.133,0.035-0.197l4.596-25.112
			C251.171,194.914,250.646,192.904,249.374,191.376 M192.673,64.258h13.08c2.01,0.976,4.439,4.744,4.439,10.304
			c0,5.556-2.43,9.325-4.436,10.303h-13.084c1.143-3.118,1.768-6.612,1.768-10.303S193.815,67.379,192.673,64.258 M178.755,115.624
			h35.77c7.648,2.42,13.338,13.245,13.338,25.63c0,12.383-5.689,23.209-13.338,25.629h-35.77c4.443-6.945,7.08-15.935,7.08-25.629
			C185.835,131.561,183.198,122.569,178.755,115.624 M100.189,64.258h13.08c2.009,0.976,4.438,4.744,4.438,10.304
			c0,5.556-2.43,9.325-4.438,10.303h-13.08c1.144-3.118,1.767-6.612,1.767-10.303S101.329,67.379,100.189,64.258 M86.271,115.624
			h35.77c7.654,2.42,13.339,13.245,13.339,25.63c0,12.383-5.685,23.209-13.339,25.629h-35.77c4.446-6.945,7.086-15.935,7.086-25.629
			C93.353,131.561,90.717,122.569,86.271,115.624 M233.075,219.467c-2.926,13.408-16.951,24.719-30.676,24.719H92.803
			c-13.285,0-24.095-10.807-24.095-24.094v-17.735h47.115c2.897,6.47,9.86,11.044,17.976,11.044h33.13
			c8.111,0,15.078-4.574,17.973-11.044h51.305L233.075,219.467z"/>
		<path clip-path="url(#SVGID_3_)" fill="#A0A0A0" d="M96.791,60.442c0,0,6.415,15.39,0,27.838h18.405c0,0,13.395-9.754,0-27.838
			H96.791z"/>
		<path clip-path="url(#SVGID_3_)" fill="#A0A0A0" d="M190.745,60.442c0,0,6.416,15.39,0,27.838h18.406c0,0,13.395-9.754,0-27.838
			H190.745z"/>
		<path clip-path="url(#SVGID_3_)" fill="#A0A0A0" d="M84.612,114.379c0,0,14.76,29.868,0,54.028h42.346c0,0,30.818-18.932,0-54.028
			H84.612z"/>
		<path clip-path="url(#SVGID_3_)" fill="#A0A0A0" d="M177.407,114.379c0,0,14.76,29.868,0,54.028h42.346
			c0,0,30.818-18.932,0-54.028H177.407z"/>
		<path clip-path="url(#SVGID_3_)" fill="#A0A0A0" d="M64.022,196.154h49.887c0,0,4.794,16.009,19.033,13.999l37.578,0.174
			c0,0,12.188-1.9,16.533-14.173h54.322c0,0,3.838,50.2-32.588,52.778H86.411c0,0-21.963,0-22.176-26.389L64.022,196.154z"/>
	</g>
</g>
<g id="Layer_1" display="none">
	<g display="inline">
		<defs>
			<rect id="SVGID_4_" x="-49.837" y="-45.976" width="400" height="400"/>
		</defs>
		<clipPath id="SVGID_5_">
			<use xlink:href="#SVGID_4_"  overflow="visible"/>
		</clipPath>
		<path clip-path="url(#SVGID_5_)" fill="#875717" d="M306.624,154.225c0,84.775-68.725,153.5-153.5,153.5
			c-84.776,0-153.5-68.725-153.5-153.5c0-84.776,68.724-153.5,153.5-153.5C237.899,0.725,306.624,69.449,306.624,154.225"/>
		<path clip-path="url(#SVGID_5_)" fill="#3F2304" stroke="#3F2304" stroke-miterlimit="10" d="M249.373,191.377
			c-1.271-1.526-3.157-2.406-5.143-2.406h-38.864v-8.703h10.064c0.54,0,1.077-0.064,1.602-0.189
			c14.031-3.456,24.216-19.782,24.216-38.825c0-19.04-10.185-35.366-24.216-38.821c-0.524-0.127-1.062-0.194-1.602-0.194h-10.064
			v-3.986h1.464c0.536,0,1.074-0.065,1.597-0.195c8.92-2.194,15.149-11.856,15.149-23.495c0-11.638-6.229-21.3-15.149-23.495
			c-0.522-0.129-1.061-0.194-1.597-0.194h-29.137c-3.388,0-6.239,2.525-6.647,5.886s1.757,6.497,5.047,7.306
			c2.08,0.513,4.96,4.444,4.96,10.497c0,6.052-2.88,9.984-4.96,10.498c-3.286,0.809-5.455,3.941-5.047,7.302s3.26,5.89,6.647,5.89
			h14.286v3.986h-31.96c-3.385,0-6.235,2.528-6.644,5.886c-0.408,3.361,1.756,6.496,5.046,7.305
			c7.996,1.968,14.028,13.07,14.028,25.824s-6.032,23.854-14.028,25.823c-3.29,0.809-5.454,3.944-5.046,7.307
			c0.408,3.36,3.259,5.885,6.644,5.885h31.96v8.703h-12.336c-3.697,0-6.694,2.997-6.694,6.691c0,2.317-2.813,4.353-6.021,4.353
			h-33.129c-3.207,0-6.025-2.035-6.025-4.353c0-3.694-2.997-6.691-6.691-6.691h-9.587v-8.703h11.452
			c0.541,0,1.078-0.064,1.601-0.189c14.031-3.456,24.216-19.782,24.216-38.825c0-19.04-10.185-35.366-24.216-38.821
			c-0.523-0.127-1.06-0.194-1.601-0.194h-11.452v-3.986h2.849c0.54,0,1.077-0.065,1.6-0.195c8.921-2.194,15.15-11.856,15.15-23.495
			c0-11.638-6.229-21.3-15.15-23.495c-0.523-0.129-1.06-0.194-1.6-0.194H85.207c-3.385,0-6.236,2.525-6.644,5.886
			c-0.408,3.361,1.757,6.497,5.043,7.306c2.083,0.513,4.965,4.444,4.965,10.497c0,6.052-2.882,9.984-4.961,10.498
			c-3.287,0.809-5.455,3.941-5.047,7.302c0.408,3.361,3.259,5.89,6.644,5.89H98.11v3.986H67.536c-3.382,0-6.236,2.528-6.644,5.886
			c-0.407,3.361,1.761,6.496,5.047,7.305c7.996,1.968,14.028,13.07,14.028,25.824s-6.032,23.854-14.028,25.823
			c-3.286,0.809-5.454,3.944-5.047,7.307c0.408,3.36,3.262,5.885,6.644,5.885h30.578v8.703H62.017c-3.697,0-6.694,2.997-6.694,6.691
			v24.43c0,20.668,16.814,37.483,37.479,37.483h109.596c19.962,0,39.604-15.879,43.787-35.396c0.013-0.064,0.023-0.133,0.036-0.198
			l4.596-25.112C251.17,194.915,250.645,192.904,249.373,191.377 M192.673,64.259h13.08c2.009,0.975,4.438,4.744,4.438,10.303
			c0,5.556-2.43,9.325-4.435,10.303h-13.084c1.142-3.119,1.768-6.612,1.768-10.303C194.44,70.873,193.814,67.379,192.673,64.259
			 M178.754,115.625h35.77c7.649,2.419,13.338,13.245,13.338,25.629c0,12.383-5.688,23.21-13.338,25.63h-35.77
			c4.444-6.946,7.081-15.936,7.081-25.63C185.835,131.561,183.198,122.569,178.754,115.625 M100.189,64.259h13.08
			c2.009,0.975,4.439,4.744,4.439,10.303c0,5.556-2.43,9.325-4.439,10.303h-13.08c1.143-3.119,1.767-6.612,1.767-10.303
			C101.956,70.873,101.328,67.379,100.189,64.259 M86.27,115.625h35.77c7.653,2.419,13.338,13.245,13.338,25.629
			c0,12.383-5.685,23.21-13.338,25.63H86.27c4.446-6.946,7.086-15.936,7.086-25.63C93.352,131.561,90.716,122.569,86.27,115.625
			 M233.074,219.467c-2.926,13.409-16.95,24.719-30.676,24.719H92.802c-13.285,0-24.094-10.807-24.094-24.094v-17.735h47.114
			c2.898,6.47,9.861,11.044,17.976,11.044h33.129c8.111,0,15.078-4.574,17.974-11.044h51.304L233.074,219.467z"/>
		<path clip-path="url(#SVGID_5_)" fill="#3F2304" d="M96.791,60.443c0,0,6.415,15.389,0,27.838h18.405c0,0,13.395-9.754,0-27.838
			H96.791z"/>
		<path clip-path="url(#SVGID_5_)" fill="#3F2304" d="M190.745,60.443c0,0,6.415,15.389,0,27.838h18.405c0,0,13.396-9.754,0-27.838
			H190.745z"/>
		<path clip-path="url(#SVGID_5_)" fill="#3F2304" d="M84.611,114.38c0,0,14.76,29.869,0,54.029h42.346c0,0,30.819-18.932,0-54.029
			H84.611z"/>
		<path clip-path="url(#SVGID_5_)" fill="#3F2304" d="M177.406,114.38c0,0,14.76,29.869,0,54.029h42.346c0,0,30.819-18.932,0-54.029
			H177.406z"/>
		<path clip-path="url(#SVGID_5_)" fill="#3F2304" d="M64.022,196.155h49.886c0,0,4.794,16.009,19.034,13.998l37.577,0.175
			c0,0,12.188-1.901,16.533-14.173h54.323c0,0,3.838,50.2-32.588,52.777H86.411c0,0-21.963,0-22.176-26.389L64.022,196.155z"/>
	</g>
</g>
<g id="Layer_4" display="none">
	<g display="inline">
		<defs>
			<rect id="SVGID_6_" x="-49.837" y="-45.976" width="400" height="400"/>
		</defs>
		<clipPath id="SVGID_7_">
			<use xlink:href="#SVGID_6_"  overflow="visible"/>
		</clipPath>
		<path clip-path="url(#SVGID_7_)" fill="#875717" d="M306.624,154.225c0,84.775-68.725,153.5-153.5,153.5
			c-84.776,0-153.5-68.725-153.5-153.5c0-84.776,68.724-153.501,153.5-153.501C237.899,0.724,306.624,69.449,306.624,154.225"/>
		<path clip-path="url(#SVGID_7_)" fill="#A0A0A0" d="M249.373,191.377c-1.271-1.526-3.157-2.406-5.143-2.406h-38.864v-8.703h10.064
			c0.54,0,1.077-0.064,1.602-0.189c14.031-3.456,24.216-19.782,24.216-38.825c0-19.04-10.185-35.366-24.216-38.821
			c-0.524-0.127-1.062-0.194-1.602-0.194h-10.064v-3.985h1.464c0.536,0,1.074-0.065,1.597-0.195
			c8.92-2.194,15.149-11.856,15.149-23.495c0-11.638-6.229-21.3-15.149-23.494c-0.522-0.129-1.061-0.194-1.597-0.194h-29.137
			c-3.388,0-6.239,2.524-6.647,5.886s1.757,6.497,5.047,7.307c2.08,0.512,4.96,4.443,4.96,10.496s-2.88,9.984-4.96,10.498
			c-3.286,0.809-5.455,3.941-5.047,7.303c0.408,3.36,3.26,5.89,6.647,5.89h14.286v3.985h-31.96c-3.385,0-6.235,2.528-6.644,5.887
			c-0.408,3.361,1.756,6.496,5.046,7.305c7.996,1.969,14.028,13.07,14.028,25.824s-6.032,23.854-14.028,25.823
			c-3.29,0.809-5.454,3.944-5.046,7.307c0.408,3.36,3.259,5.885,6.644,5.885h31.96v8.703h-12.336c-3.697,0-6.694,2.997-6.694,6.691
			c0,2.317-2.813,4.353-6.021,4.353h-33.129c-3.207,0-6.025-2.035-6.025-4.353c0-3.694-2.997-6.691-6.691-6.691h-9.587v-8.703
			h11.452c0.541,0,1.078-0.064,1.601-0.189c14.031-3.456,24.216-19.782,24.216-38.825c0-19.04-10.185-35.366-24.216-38.821
			c-0.523-0.127-1.06-0.194-1.601-0.194h-11.452v-3.985h2.849c0.54,0,1.077-0.065,1.6-0.195c8.921-2.194,15.15-11.856,15.15-23.495
			c0-11.638-6.229-21.3-15.15-23.494c-0.523-0.129-1.06-0.194-1.6-0.194H85.207c-3.385,0-6.236,2.524-6.644,5.886
			c-0.408,3.361,1.757,6.497,5.043,7.307c2.083,0.512,4.965,4.443,4.965,10.496s-2.882,9.984-4.961,10.498
			c-3.287,0.809-5.455,3.941-5.047,7.303c0.408,3.36,3.259,5.89,6.644,5.89H98.11v3.985H67.536c-3.382,0-6.236,2.528-6.644,5.887
			c-0.407,3.361,1.761,6.496,5.047,7.305c7.996,1.969,14.028,13.07,14.028,25.824s-6.032,23.854-14.028,25.823
			c-3.286,0.809-5.454,3.944-5.047,7.307c0.408,3.36,3.262,5.885,6.644,5.885h30.578v8.703H62.017c-3.697,0-6.694,2.997-6.694,6.691
			v24.43c0,20.668,16.814,37.483,37.479,37.483h109.596c19.962,0,39.604-15.879,43.787-35.396c0.013-0.064,0.023-0.133,0.036-0.198
			l4.596-25.112C251.17,194.915,250.645,192.904,249.373,191.377 M192.673,64.259h13.08c2.009,0.975,4.438,4.744,4.438,10.303
			c0,5.557-2.43,9.325-4.435,10.303h-13.084c1.142-3.118,1.768-6.611,1.768-10.303C194.44,70.873,193.814,67.379,192.673,64.259
			 M178.754,115.625h35.77c7.649,2.419,13.338,13.244,13.338,25.629c0,12.383-5.688,23.21-13.338,25.63h-35.77
			c4.444-6.946,7.081-15.935,7.081-25.63C185.835,131.562,183.198,122.57,178.754,115.625 M100.189,64.259h13.08
			c2.009,0.975,4.439,4.744,4.439,10.303c0,5.557-2.43,9.325-4.439,10.303h-13.08c1.143-3.118,1.767-6.611,1.767-10.303
			C101.956,70.873,101.328,67.379,100.189,64.259 M86.27,115.625h35.77c7.653,2.419,13.338,13.244,13.338,25.629
			c0,12.383-5.685,23.21-13.338,25.63H86.27c4.446-6.946,7.086-15.935,7.086-25.63C93.352,131.562,90.716,122.57,86.27,115.625
			 M233.074,219.467c-2.926,13.409-16.95,24.719-30.676,24.719H92.802c-13.285,0-24.094-10.807-24.094-24.094v-17.735h47.114
			c2.898,6.47,9.861,11.044,17.976,11.044h33.129c8.111,0,15.078-4.574,17.974-11.044h51.304L233.074,219.467z"/>
		<path clip-path="url(#SVGID_7_)" fill="#A0A0A0" d="M96.791,60.443c0,0,6.415,15.389,0,27.838h18.405c0,0,13.395-9.754,0-27.838
			H96.791z"/>
		<path clip-path="url(#SVGID_7_)" fill="#A0A0A0" d="M190.745,60.443c0,0,6.415,15.389,0,27.838h18.405c0,0,13.396-9.754,0-27.838
			H190.745z"/>
		<path clip-path="url(#SVGID_7_)" fill="#A0A0A0" d="M84.611,114.38c0,0,14.76,29.867,0,54.028h42.346c0,0,30.819-18.932,0-54.028
			H84.611z"/>
		<path clip-path="url(#SVGID_7_)" fill="#A0A0A0" d="M177.406,114.38c0,0,14.76,29.867,0,54.028h42.346c0,0,30.819-18.932,0-54.028
			H177.406z"/>
		<path clip-path="url(#SVGID_7_)" fill="#A0A0A0" d="M64.022,196.155h49.886c0,0,4.794,16.009,19.034,13.998l37.577,0.175
			c0,0,12.188-1.901,16.533-14.173h54.323c0,0,3.838,50.2-32.588,52.777H86.411c0,0-21.963,0-22.176-26.389L64.022,196.155z"/>
	</g>
</g>
</svg>
