<?xml version="1.0" encoding="utf-8"?>
<!-- Generator: Adobe Illustrator 19.2.0, SVG Export Plug-In . SVG Version: 6.00 Build 0)  -->
<svg version="1.1" id="Layer_1" xmlns="http://www.w3.org/2000/svg" xmlns:xlink="http://www.w3.org/1999/xlink" x="0px" y="0px"
	 viewBox="0 0 803 803" style="enable-background:new 0 0 803 803;" xml:space="preserve">
<style type="text/css">
	.st0{display:none;}
	.st1{display:inline;opacity:0.5;fill:none;stroke:#000000;stroke-miterlimit:10;enable-background:new    ;}
	.st2{display:inline;fill:none;stroke:#000000;stroke-miterlimit:10;}
	.st3{fill:#372712;}
	.st4{fill:#F09FC0;}
	.st5{fill:#F8A05E;}
	.st6{fill:#FDD6B1;}
</style>
<g id="Layer_2" class="st0">
</g>
<g id="Layer_1_1_" class="st0">
	<line class="st1" x1="216.5" y1="575.2" x2="637.4" y2="575.2"/>
	<line class="st1" x1="226.5" y1="565.7" x2="637.4" y2="565.7"/>
	<line class="st1" x1="216.9" y1="575.6" x2="216.9" y2="408.7"/>
	<path class="st1" d="M410.4,575.2c10.6,0,21.4-1.8,31.3-5.7c21-8.2,30.4-37.5,19.7-56.7c-5-9.1-18.7-10.4-25-1.5
		c-5.3,7.4-1.6,20.8,8.2,21.8c13,1.3,14.5-17.9,1-14.7"/>
	<path class="st1" d="M451.5,519.5c11.8,10.4,2.1,26-6.8,34.5c-13.8,13.2-31.1,11.9-48,12.5"/>
	<path class="st1" d="M441.7,505.8c12.5-11.9,31.8-11,47.7-11c26.9,0,46,0.8,68.7-16.4"/>
	<path class="st1" d="M459.2,509.8c11.9-6,26.9-5.4,39.7-5.4c26.9,0,46,0.8,68.7-16.4"/>
	<path class="st1" d="M567.9,478.4c2.5-8.8,13.8-2.1,12.4,5.4c-2.5,12.4-40.1-4-7.5-22.4c19.8-12.4,61.6-41.5,64.6-43.1
		c11.4-5.7,26.5-9.4,36.2-2.1c9.5,7.2,6.1,28.9-7.8,21.4c-5-2.7-6.9-9.3-1.7-12.7c6.1-4,12.2,4,5.6,6.6"/>
	<path class="st1" d="M567.1,480.4c1.3-2.3,3.6-4.8,7.1-7.3c1.4-1,3-2,4.7-3c1.2-0.7,2.4-1.5,3.8-2.4c20.9-13.4,58-39.2,60.8-40.7
		c7-3.5,15.3-6.3,23-6.2"/>
	<path class="st1" d="M673.6,438.1c1.6,4.3,0.8,11.2,1,15.9c0.3,5.3,0,10.7,0,16c0,26.6-0.1,53.5-7.7,79.2
		c-14.4,48.5-51.1,87.5-92.9,114.4c-11.6,7.5-24,14.6-36.7,20.1c-17.3,7.6-38.1,14-57.1,15.7c-19.8,1.7-279.8,4.5-285.6,1.5
		c-18.9-9.8-24.9-30.6-29.2-49.9c-4.8-21.7-10.1-43.9-24.7-61.4c-5.2-6.2-12.2-11-16.1-18.2"/>
	<path class="st1" d="M665.8,433.5c1.6,4.3,0.8,11.2,1,15.9c0.3,5.3,0,10.7,0,16c0,26.6-0.1,53.5-7.7,79.2
		c-14.4,48.5-51.1,87.5-92.9,114.4c-11.6,7.5-24,14.6-36.7,20.1c-17.3,7.6-38.1,14-57.1,15.7c-19.8,1.7-279.8,4.5-285.6,1.5
		c-18.9-9.8-24.9-30.6-29.2-49.9c-4.8-21.7-10.1-43.9-24.7-61.4c-5.2-6.2-12.2-11-16.1-18.2"/>
	<path class="st1" d="M633.2,594.2c-16.2,22.8-36.6,42.6-59.3,57.2c-11.6,7.5-24,14.6-36.7,20.1c-17.3,7.6-38.1,14-57.1,15.7
		c-19.8,1.7-279.8,4.5-285.6,1.5c-18.9-9.8-24.9-30.6-29.2-49.9c-4.8-21.7-10.1-43.9-24.7-61.4c-5.2-6.2-12.2-11-16.1-18.2"/>
	<line class="st1" x1="174.1" y1="690.1" x2="540.6" y2="690.1"/>
	<path class="st1" d="M666.9,448.4c1.6-10.8,20.2-16.5,21.7-2.7c0.6,5.6-1.5,12.1-8.4,11.7c-5.1-0.3-8-10.2-1.7-11.1
		c2.2-0.3,4.8,3.5,1.7,4.4"/>
	<path class="st1" d="M654.6,423.1c0,0,157-35.9,173-39.9c13-0.8,12.8,6.4,0,10.9c-23.1,5.9-173,44-173,44V423.1z"/>
	<polygon class="st1" points="654.6,423.1 722.8,407.4 724.1,420.4 654.6,438.1 	"/>
	<path class="st2" d="M226.5,575.2v-95.6H126.3c0,0-30.2,29,0,95.6"/>
</g>
<circle class="st3" cx="401.5" cy="401.5" r="401.5"/>
<g>
	<g id="วิปป_2_">
		<path class="st4" d="M106.1,556c0,0-65.4-92.9,55.3-146.6c0,0-55-115.1,82.8-115.1c0,0-20.2-118.7,94.5-93.7
			c0,0-53.3-71.1,54.1-124.4c0,0,53.3-25,94.5,18.6c0,0-64.6,10.5-39.6,48.5c0,0,9.7,17.8,20.2,21c0,0,32.3,17.8-8.1,39.6
			c0,0,63.8-21,82.4,21c0,0,19.4,43.6-4.8,67c0,0,147.8-25,81.6,115.5c0,0,155.4,7.8,54.3,149.8C673.2,557.2,554.6,587.8,106.1,556z
			"/>
		<g id="ชั้นในวิปชั้นรักเธอว์_2_">
			<path class="st4" d="M421,70.2c0,0-14.3-1.5-38.7,12.3c-34.4,19.5-76.8,55.7-44.5,117.4c0,0,86.7,122.8,199.2,92.9
				c0,0,22.3-23.2,7.3-61.4c0,0-8.9-47.1-81.6-28.5c0,0-41.7,8.3-66.8-44.1C396,158.7,372.6,112.6,421,70.2z"/>
			<path class="st4" d="M243.9,294.4c0,0-130.6-10-82.9,114.1c0,0,111.5,142.7,315,159.6c0,0,186.6-6.5,197.1-10.5
				c0,0,108.2-130-52.5-150.2C620.5,407.4,351.7,460.1,243.9,294.4z"/>
		</g>
	</g>
	<g id="ขอบถ้วยย_3_">
		<path class="st5" d="M115.7,541.3c0,0,258.4,28,564.3,2.2c0,0,21.5,6.5,20.5,42c0,0,4.3,25.8-20.5,42c0,0-322,25.8-565.3,2.2
			c0,0-14.5-7-14.5-44.7C100.1,584.9,100.1,540.7,115.7,541.3z"/>
		<g id="ลายในขอบ_3_">
			<path class="st6" d="M171.9,546.4c0,0-13.2,26.7,4.3,88.3l56.8,3c0,0-16.2-67.8-2.7-86.7L171.9,546.4z"/>
			<path class="st6" d="M301.4,553.6c0,0-10.2,39.8,2.2,85.5l59.2,0.6c0,0-5.4-66.8,2.2-85.6L301.4,553.6z"/>
			<path class="st6" d="M430.6,554.7c0,0,5.9,65.1,1.1,84.5l67.3-2.1c0,0,9.2-35-0.5-83.5L430.6,554.7z"/>
			<path class="st6" d="M568.5,550.9c0,0,7,70.5,1.6,82.9l57.6-2.7c0,0,3.8-38.2-3.2-83.5L568.5,550.9z"/>
		</g>
	</g>
</g>
</svg>
