<?xml version="1.0" encoding="utf-8"?>
<!-- Generator: Adobe Illustrator 16.0.0, SVG Export Plug-In . SVG Version: 6.00 Build 0)  -->
<!DOCTYPE svg PUBLIC "-//W3C//DTD SVG 1.1//EN" "http://www.w3.org/Graphics/SVG/1.1/DTD/svg11.dtd">
<svg version="1.1" id="Layer_1" xmlns="http://www.w3.org/2000/svg" xmlns:xlink="http://www.w3.org/1999/xlink" x="0px" y="0px"
	 width="906px" height="805.678px" viewBox="138.925 16.615 906 805.678" enable-background="new 138.925 16.615 906 805.678"
	 xml:space="preserve">
<g>
	<g id="Layer_1_1_" display="none">
		
			<line display="inline" opacity="0.5" fill="none" stroke="#000000" stroke-miterlimit="10" enable-background="new    " x1="419.917" y1="595.135" x2="840.851" y2="595.135"/>
		
			<line display="inline" opacity="0.5" fill="none" stroke="#000000" stroke-miterlimit="10" enable-background="new    " x1="429.929" y1="585.563" x2="840.851" y2="585.563"/>
		
			<line display="inline" opacity="0.5" fill="none" stroke="#000000" stroke-miterlimit="10" enable-background="new    " x1="420.359" y1="595.5" x2="420.359" y2="428.65"/>
		<path display="inline" opacity="0.5" fill="none" stroke="#000000" stroke-miterlimit="10" enable-background="new    " d="
			M613.865,595.135c10.566,0,21.438-1.815,31.294-5.661c21-8.193,30.429-37.51,19.744-56.675
			c-5.048-9.059-18.679-10.376-25.008-1.495c-5.276,7.401-1.573,20.777,8.193,21.784c13.01,1.336,14.453-17.869,0.998-14.7"/>
		<path display="inline" opacity="0.5" fill="none" stroke="#000000" stroke-miterlimit="10" enable-background="new    " d="
			M654.957,539.365c11.833,10.37,2.071,25.964-6.8,34.486c-13.763,13.222-31.067,11.916-47.987,12.476"/>
		<path display="inline" opacity="0.5" fill="none" stroke="#000000" stroke-miterlimit="10" enable-background="new    " d="
			M645.175,525.669c12.492-11.886,31.752-10.989,47.74-11.008c26.871-0.023,46.036,0.798,68.688-16.389"/>
		<path display="inline" opacity="0.5" fill="none" stroke="#000000" stroke-miterlimit="10" enable-background="new    " d="
			M662.623,529.75c11.872-5.97,26.858-5.393,39.729-5.404c26.871-0.025,46.036,0.798,68.686-16.391"/>
		<path display="inline" opacity="0.5" fill="none" stroke="#000000" stroke-miterlimit="10" enable-background="new    " d="
			M771.392,498.271c2.546-8.784,13.833-2.053,12.356,5.354c-2.473,12.411-40.063-3.98-7.51-22.388
			c19.809-12.411,61.563-41.53,64.608-43.063c11.375-5.72,26.452-9.425,36.164-2.104c9.481,7.152,6.057,28.897-7.829,21.37
			c-4.966-2.689-6.923-9.254-1.664-12.737c6.054-4.012,12.246,3.974,5.625,6.604"/>
		<path display="inline" opacity="0.5" fill="none" stroke="#000000" stroke-miterlimit="10" enable-background="new    " d="
			M770.552,500.329c1.29-2.326,3.556-4.798,7.087-7.337c1.38-0.992,2.953-1.995,4.736-3.004c1.181-0.739,2.438-1.538,3.762-2.387
			c20.883-13.396,57.979-39.234,60.848-40.676c6.979-3.507,15.35-6.258,23.021-6.17"/>
		<path display="inline" opacity="0.5" fill="none" stroke="#000000" stroke-miterlimit="10" enable-background="new    " d="
			M877.001,458c1.634,4.278,0.773,11.218,1,15.889c0.257,5.307,0,10.688,0,16.002c0,26.582-0.092,53.54-7.72,79.244
			c-14.381,48.458-51.146,87.509-92.881,114.423c-11.61,7.486-24.049,14.564-36.703,20.146
			c-17.315,7.635-38.145,14.041-57.073,15.688c-19.846,1.726-279.764,4.531-285.61,1.484c-18.909-9.849-24.898-30.563-29.174-49.919
			c-4.799-21.734-10.133-43.935-24.702-61.434c-5.172-6.21-12.167-11.021-16.139-18.186"/>
		<path display="inline" opacity="0.5" fill="none" stroke="#000000" stroke-miterlimit="10" enable-background="new    " d="
			M869.219,453.45c1.633,4.278,0.772,11.216,1,15.889c0.256,5.307,0,10.688,0,16.002c0,26.582-0.091,53.54-7.719,79.244
			c-14.383,48.456-51.146,87.509-92.883,114.423c-11.608,7.485-24.049,14.564-36.702,20.146
			c-17.316,7.633-38.146,14.041-57.072,15.688c-19.848,1.726-279.766,4.53-285.612,1.484c-18.909-9.849-24.898-30.563-29.172-49.919
			c-4.8-21.734-10.134-43.935-24.704-61.434c-5.17-6.21-12.167-11.021-16.138-18.188"/>
		<path display="inline" opacity="0.5" fill="none" stroke="#000000" stroke-miterlimit="10" enable-background="new    " d="
			M836.664,614.094c-16.197,22.81-36.587,42.61-59.264,57.234c-11.61,7.487-24.049,14.566-36.703,20.146
			c-17.315,7.633-38.145,14.041-57.073,15.686c-19.846,1.728-279.764,4.532-285.61,1.486c-18.909-9.849-24.898-30.565-29.174-49.919
			c-4.799-21.736-10.133-43.936-24.702-61.434c-5.172-6.212-12.167-11.021-16.139-18.188"/>
		
			<line display="inline" opacity="0.5" fill="none" stroke="#000000" stroke-miterlimit="10" enable-background="new    " x1="377.5" y1="710" x2="744.001" y2="710"/>
		<path display="inline" opacity="0.5" fill="none" stroke="#000000" stroke-miterlimit="10" enable-background="new    " d="
			M870.333,468.335c1.604-10.779,20.222-16.55,21.687-2.669c0.595,5.646-1.457,12.075-8.353,11.666
			c-5.121-0.305-8.021-10.179-1.747-11.079c2.233-0.321,4.75,3.457,1.747,4.415"/>
		<path display="inline" opacity="0.5" fill="none" stroke="#000000" stroke-miterlimit="10" enable-background="new    " d="
			M858.001,443c0,0,157-35.886,173-39.941c13-0.809,12.816,6.441,0,10.941c-23.093,5.873-173,44-173,44V443z"/>
		
			<polygon display="inline" opacity="0.5" fill="none" stroke="#000000" stroke-miterlimit="10" enable-background="new    " points="
			858.001,443 926.202,427.256 927.526,440.316 858.001,458 		"/>
		<path display="inline" fill="none" stroke="#000000" stroke-miterlimit="10" d="M429.928,595.135v-95.583H329.795
			c0,0-30.179,29.029,0,95.583"/>
	</g>
	<g id="Layer_3">
		<path fill="#685F4B" d="M369.541,251.721L398.895,695l-19.009-0.371l-16.934-443.037
			C362.954,251.592,364.546,245.679,369.541,251.721z"/>
		<g>
			<path fill="#B22028" d="M660.652,53.674c-0.817,0.099-1.622-0.017-1.998-0.9c-0.391-0.923-0.271-2.094-0.098-3.046
				c0-0.005,0.028-0.224,0.085-0.198c0.354,0.149,0.709,0.298,1.063,0.448c-0.009-0.077-0.02-0.152-0.027-0.229
				c-3.47-3.092-4.916-7.721-5.271-12.343c-0.047,0.278-0.171,0.716-0.236,0.815c-0.274,0.423-0.62,1.273-1.131,1.479
				c-0.124,0.049-0.258,0.077-0.392,0.104c-0.126,0.104-0.237,0.229-0.375,0.32c-0.071,0.048-0.073-0.063-0.077-0.101
				c-0.004-0.054-0.007-0.107-0.013-0.162c-0.424,0.029-0.86,0.015-1.247,0.042c-0.157,0.012,0.239-1.001,0.289-1.078
				c0.399-0.609,0.799-1.218,1.214-1.807c-0.003-0.013-0.012-0.021-0.017-0.032c-0.225-0.587-0.232-1.249-0.281-1.869
				c-0.012-0.148,0.267-1.199,0.48-1.111c0.17,0.068,0.322,0.145,0.483,0.216c-0.099-0.321-0.199-0.644-0.298-0.964
				c-0.271-0.063-0.52-0.303-0.56-0.594c-0.215-1.563-0.667-2.966-1.21-4.383c-25.314,14.177-65.881,12.063-65.881,12.063
				c-1.054-6.23-4.789-9.623-10.173-11.023c-0.008,0.026-0.012,0.071-0.021,0.085c-0.098,0.167-0.381,0.263-0.526,0.34
				c-0.015,0.008-0.062-0.107-0.104-0.27c-0.124,0.023-0.25,0.065-0.374,0.103c0.413,0.232,0.817,0.488,1.202,0.79
				c0.157,0.125,0.289,1.219,0.061,1.281c-0.612,0.165-1.229,0.259-1.849,0.307c-0.015,0.109-0.034,0.172-0.068,0.145
				c-0.056-0.044-0.107-0.085-0.159-0.13c-2.759,0.156-5.559-0.66-8.345-1.059c0.104,0.232,0.209,0.456,0.303,0.716
				c0.033,0.095,0.158,1.162-0.017,1.119c-0.34-0.083-0.946-0.139-1.41-0.336c-0.285,0.256-0.852,0.293-1.813-0.073
				c-0.239-0.091-0.312-1.169-0.1-1.302c0.101-0.063,0.187-0.135,0.28-0.202c-0.188,0.029-0.379,0.034-0.565,0.056
				c-0.021,0.104-0.048,0.167-0.072,0.149c-0.063-0.046-0.137-0.08-0.203-0.124c-0.203,0.02-0.409,0.047-0.613,0.06
				c-0.017,0.097-0.044,0.162-0.096,0.158c-0.646-0.025-1.288-0.102-1.93-0.182c-0.08-0.009-0.132-0.142-0.163-0.313l-7.021,0.532
				c-26.205,7.027-57.953,25.752-57.953,25.752s5.926,4.624,8.641,6.708c2.72,2.084,12.121,56.529,3.774,68.785
				c-11.875,17.438-12.92,22.971-12.92,22.971c12.682-7.742,23.733-14.146,33.357-19.4c1.188-1.072,2.409-2.098,3.787-2.833
				c0.758-0.404,1.53-0.765,2.306-1.116c1.578-0.979,3.222-1.832,4.829-2.79c2.014-1.193,4.02-2.371,6.091-3.413
				c2.421-3.406,5.644-6.112,8.682-8.918c0.111-0.104,0.168,0.234,0.183,0.286c0.061,0.244,0.079,0.482,0.105,0.72
				c1.388-2.21,2.983-4.298,3.345-7.006c0.031-0.226,0.137-0.242,0.199-0.016c0.643,2.359,0.447,4.487-1.188,6.08
				c-0.78,0.951-1.601,1.859-2.45,2.733c-0.384,1.756-1.583,3.318-3.103,4.686c63.296-29.196,28.769,18.417,28.769,18.417
				c9.073,1.36,26.316-1.498,43.326-5.289c0.857-1.454,2.01-2.671,3.33-3.803c0.163-0.142,0.338-0.14,0.501-0.083
				c0.079-0.098,0.165-0.186,0.245-0.279c-0.076-0.216-0.076-0.481,0.087-0.636c0.242-0.229,0.557-0.335,0.867-0.439
				c1.303-1.377,2.75-2.582,4.555-3.459c-0.273-1.095-0.377-2.176-0.49-3.324c-0.095-0.909-0.857-2.252-0.47-3.076
				c0.144-0.293,0.313-0.569,0.482-0.848c-0.076-0.229-0.161-0.458-0.245-0.685c-0.991-1.106-1.369-3.303-0.648-4.441
				c-0.006-0.326-0.015-0.651-0.006-0.979c0.023-0.692,0.265,0.021,0.284,0.31c0.082,1.022,0.22,1.952,0.685,2.874
				c0.02,0.039,0.031,0.115,0.04,0.204c0.103,0.044,0.194,0.108,0.261,0.226c0.197,0.361,0.37,0.722,0.543,1.08
				c0.477-0.709,0.931-1.437,1.216-2.276c0.536-1.574,0.867-3.112,1.091-4.755c0.025-0.188,0.115-0.314,0.228-0.396
				c-0.017-0.188-0.015-0.393,0.07-0.519c0.081-0.126,0.183-0.212,0.285-0.321c0.049-0.055,0.079-0.096,0.099-0.125
				c0-0.037,0.008-0.074,0.008-0.11c-0.009-0.331,0.148-0.726,0.245-0.175c0.07,0.425,0.103,0.834,0.026,1.256
				c0.193,0.127,0.329,0.347,0.29,0.644c-0.172,1.324-0.38,2.643-0.564,3.956c0.186,0.12,0.313,0.342,0.276,0.648
				c-0.009,0.077-0.017,0.158-0.026,0.236c0.016,0.024,0.042,0.039,0.051,0.067c0.714,2.665,0.644,4.392-0.277,6.684
				c-0.225,1.487-0.497,2.964-0.843,4.431c0.042,0.08,0.091,0.156,0.094,0.271c0.037,0.971-0.031,1.438-0.717,1.874
				c-0.124,0.376-0.277,0.735-0.456,1.083c0.013,0.01,0.024,0.019,0.039,0.027c0.167,0.124,0.269,0.417,0.212,0.621
				c-0.194,0.674-0.642,1.341-1.187,1.865c15.783-3.84,29.81-7.922,34.831-9.417c0.029-0.747,0.314-1.514,0.686-2.253
				c-0.025-0.116-0.035-0.23-0.058-0.345c-0.021,0.016-0.046,0.027-0.061,0.021c-0.546-0.271-0.705-0.779-0.769-1.362
				c-0.03-0.268,0.141-0.625,0.258-0.854c0.045-0.086,0.229-0.413,0.259-0.149c0.026,0.228,0.082,0.428,0.167,0.606
				c0.004-0.114-0.009-0.232-0.001-0.347c-0.166-0.599-0.241-1.191-0.094-1.7c-0.14-0.504-0.363-0.979-0.666-1.404
				c-0.173-0.238,0.419-1.267,0.502-1.149c0.244,0.346,0.431,0.716,0.564,1.104c0.059-0.08,0.116-0.137,0.15-0.068
				c0.032,0.065,0.078,0.114,0.114,0.174c0.049-0.075,0.091-0.153,0.141-0.229c-0.047-0.204,0.125-0.581,0.19-0.729
				c0.02-0.044,0.231-0.521,0.316-0.363c0.046,0.087,0.064,0.17,0.101,0.254c0.013-0.021,0.028-0.04,0.045-0.062
				C667.342,92.848,663.922,70.27,660.652,53.674 M644.851,48.699c-0.063,0.356-0.144,0.708-0.214,1.063
				c0.01-0.035,0.024-0.067,0.036-0.104c-0.022,0.1-0.054,0.208-0.076,0.311c-0.297,1.433-0.643,2.853-1.006,4.265
				c-0.071,0.651-0.157,1.301-0.271,1.94c0.038,0.185,0.067,0.361,0.066,0.392c0.096,2.867-0.532,5.596-1.477,8.231
				c-0.134,0.472-0.307,0.917-0.514,1.345c-0.484,1.214-1.021,2.41-1.578,3.591c-0.023,0.054-0.056,0.007-0.088-0.062
				c-0.245,0.445-0.513,0.896-0.765,1.353c-0.171,0.604-0.383,1.199-0.67,1.771c-0.023,0.045-0.051,0.012-0.078-0.056
				c-0.05,0.177-0.094,0.356-0.121,0.537c-0.046,0.298-0.153,0.609-0.315,0.863c-0.121,0.189-0.221,0.156-0.186-0.072
				c0.013-0.074,0.033-0.146,0.047-0.219c-0.229,0.589-0.455,1.181-0.695,1.768c-0.103,0.256-0.328-0.863-0.227-1.113
				c0.007-0.014,0.013-0.028,0.019-0.045c-0.08-0.287-0.146-0.771-0.092-0.932c0.444-1.282,0.945-2.563,1.465-3.841
				c0.357-1.916,0.98-3.742,1.633-5.563c0.154-0.622,0.378-1.214,0.637-1.79c0.166-0.465,0.322-0.936,0.479-1.407
				c0.347-1.716,0.73-3.397,1.672-4.935c0.021-0.032,0.041-0.012,0.063,0.027l-0.067-0.879c-0.007-0.076,0.024-0.16,0.041-0.242
				c-0.181,0.366-0.447,0.771-0.313,0.189c0.229-1,0.689-1.95,1.127-2.902c0.005-0.287,0.011-0.576-0.023-0.854
				c-0.031-0.25,0.014-0.595,0.074-0.721c-0.004-0.151,0.003-0.3-0.004-0.451c-0.042-0.908,0.271-0.135,0.294,0.325
				c0.016,0.301,0.013,0.599,0.013,0.896c0.267-0.621,0.495-1.246,0.614-1.889C644.387,49.282,644.95,48.141,644.851,48.699"/>
			<path fill="#682A2A" d="M585.309,41.396c0,0,0.444,1.254,1.096,3.489c0.66,2.23,1.513,5.446,2.367,9.346
				c0.4,1.953,0.888,4.063,1.252,6.321c0.396,2.252,0.832,4.628,1.133,7.104c0.349,2.474,0.679,5.036,0.906,7.65
				c0.284,2.608,0.396,5.276,0.604,7.938c0.114,2.666,0.135,5.34,0.197,7.967c-0.024,2.635-0.116,5.224-0.231,7.728
				c-0.182,2.502-0.357,4.919-0.64,7.2c-0.309,2.281-0.633,4.43-0.969,6.401c-0.419,1.965-0.845,3.752-1.22,5.331
				c-0.314,1.59-0.884,2.915-1.219,4.025c-0.745,2.206-1.203,3.44-1.203,3.44s0.149-1.334,0.463-3.626
				c0.081-0.567,0.17-1.2,0.267-1.89c0.054-0.342,0.104-0.699,0.157-1.07c0.031-0.374,0.064-0.762,0.097-1.16
				c0.132-1.604,0.277-3.403,0.482-5.354c0.093-1.97,0.159-4.101,0.304-6.344c0.083-2.248,0.029-4.627,0.118-7.077
				c0.019-2.456-0.121-4.994-0.096-7.571c-0.109-2.579-0.173-5.199-0.322-7.815c-0.161-2.62-0.225-5.245-0.462-7.819
				c-0.212-2.578-0.325-5.125-0.569-7.578c-0.213-2.46-0.419-4.839-0.61-7.093c-0.212-2.257-0.411-4.394-0.595-6.362
				C585.832,46.67,585.309,41.396,585.309,41.396"/>
			<path fill="#B71C24" d="M577.943,143.489c0,0,1.544-16.22-2.531-27.941C575.412,115.547,601.68,108.86,577.943,143.489"/>
			<g>
				<g>
					<g>
						<g>
							<defs>
								
									<rect id="SVGID_1_" x="576.182" y="114.657" transform="matrix(-0.9921 0.1257 -0.1257 -0.9921 1176.5955 183.1964)" width="12.668" height="28.145"/>
							</defs>
							<clipPath id="SVGID_2_">
								<use xlink:href="#SVGID_1_"  overflow="visible"/>
							</clipPath>
							<path clip-path="url(#SVGID_2_)" fill="#682A2A" d="M577.943,143.489c0,0,1.544-16.22-2.531-27.941
								C575.412,115.547,601.68,108.86,577.943,143.489"/>
						</g>
					</g>
				</g>
			</g>
		</g>
		<path fill="#996128" d="M1038.556,429.357L813.373,545.055l-6.987-27.967l229.75-97.421
			C1036.135,419.669,1039.888,421.035,1038.556,429.357z"/>
		<rect x="252.878" y="449.165" display="none" fill="#FFFFFF" width="52.75" height="1.335"/>
		<rect x="277.748" y="425.699" display="none" fill="#FFFFFF" width="1.335" height="52.75"/>
		<path fill="#825022" d="M865.914,491.91l-47.155,19.997l-13.212,8.704l6.288,25.162l60.611-31.143
			C857.688,507.875,865.914,491.91,865.914,491.91z"/>
	</g>
	<g id="Layer_7">
		<path fill="#2B1E10" d="M262.817,677.383v-99.342c0,0-105.526,0-105.527,0c-0.963,0-2.919,3.459-3.325,4.073
			c-2.48,3.764-4.478,7.862-6.146,12.041c-2.586,6.473-4.354,13.282-5.228,20.196c-1.185,9.392-0.592,18.913,1.652,28.104
			c2.514,10.3,6.499,20.315,11.983,29.4c7.615,12.62,19.529,21.802,27.839,33.902c2.232,3.254,4.265,6.651,6.015,10.19
			c2.374,4.8,4.214,9.923,4.882,15.265c3.369,26.904,11.514,78.059,31.456,86.09h396.126l74.041-29.811l64.887-45.521l44.805-64.594
			l13.165-29.909l5.482-51.135V546.22l3.413-25.822l-5.607-11.518l-25.776,8.227l-40.586,25.689l-45.479,27.674l-10.353,16.79
			l-69.215,11.952l-46.964,10.296l-2.664,12.206l7.863,5.083l2.411,13.633l-2.411,14.887l-16.73,17.909l-24.32,4.153H262.817
			V677.383z"/>
		
			<rect x="111.667" y="710.415" transform="matrix(-1 0.0011 -0.0011 -1 989.4621 1446.5696)" display="none" fill="#452B12" width="765.333" height="26.284"/>
		
			<rect x="102.521" y="683.304" transform="matrix(-1 0.0011 -0.0011 -1 971.1422 1392.3589)" display="none" fill="#5F3613" width="765.335" height="26.284"/>
		<path fill="#452B12" d="M220.955,813.8l412.193-0.469l63.678-25.636l5.925-4.157l-497.271,0.563
			C209.334,796.727,214.371,807.794,220.955,813.8z"/>
		<path fill="#4E2D15" d="M761.595,742.985l5.062-7.297l-571.041,0.646c1.02,7.709,2.398,16.886,4.266,26.279l534.599-0.604
			L761.595,742.985z"/>
		<path fill="#372313" d="M783.611,710.099l-596.307,0.676c0.999,1.689,1.938,3.414,2.809,5.174
			c2.374,4.802,4.214,9.923,4.882,15.265c0.23,1.839,0.483,3.795,0.761,5.838l569.608-0.646L783.611,710.099z"/>
		<path fill="#4E2D15" d="M802.448,682.972l-637.314,0.722c6.375,7.313,13.467,14.054,18.976,22.077
			c0.938,1.367,1.832,2.766,2.69,4.183l597.401-0.677L802.448,682.972z"/>
		<path fill="#432613" d="M819.055,626.713l-222.974,1.567c6.375,7.313-9.056,25.054-8.193,26.47l222.043-1.054L819.055,626.713z"/>
		<path fill="#432812" d="M257.214,578.332c-21.816,0-99.922,0-99.924,0c-0.963,0-2.919,3.458-3.325,4.073
			c-2.48,3.763-4.478,7.862-6.146,12.041c-2.586,6.472-4.354,13.282-5.228,20.196c-1.185,9.392-0.592,18.913,1.652,28.104
			c2.514,10.299,6.499,20.315,11.983,29.4c1.147,1.903,2.402,3.722,3.721,5.49h97.267V578.332L257.214,578.332z"/>
		<polyline fill="#C69720" points="251.723,682.887 251.723,577 262.705,577 262.705,672.39 		"/>
		<polygon fill="#452B12" points="596.083,628.28 823.603,626.969 823.603,598.828 587.287,605.04 		"/>
		<polygon fill="#503111" points="717.113,567.889 825.553,567.889 825.553,543.19 741.381,543.19 		"/>
	</g>
	<g id="Layer_11" display="none">
		<circle display="inline" fill="#372712" cx="1327.406" cy="118.832" r="82.2"/>
		<circle display="inline" fill="#452B12" cx="1539.311" cy="122.333" r="82.2"/>
		<circle display="inline" fill="#5F3613" cx="1330.091" cy="308.235" r="82.2"/>
		<g display="inline">
			<g>
				<path fill="#949292" d="M1624.486,316.119c-38.871,20.945-62.979,19.885-66.213,19.99c-38.627,0.418-62.17-15.686-62.17-15.686
					c-16.688-9.834-21.896-28.779-21.896-28.779c-6.286-18.146,3.814-32.473,3.814-32.473c-4.783-8.682-23.172-9.135-23.172-9.135
					c-16.547-1.639-32.886-6.182-32.886-6.182c-19.11-4.602-25.138-16.293-25.138-16.293c-8.816-11.455-6.948-16.072-6.948-16.072
					c0.063-10.961,8.81-6.6,8.81-6.6c-1.688-15.037-24.463-24.58-24.463-24.58c-1.078-1.244-16.23-6-16.23-6L1339.446,168
					l-62.617-19.592c-8.029,20.033-30.771,9.029-30.771,9.029c5.174,11.338,0.5,31.469,0.5,31.469
					c-5.035,72.59,21.842,116.348,21.842,116.348c37.02,85.43,118.146,115.863,118.146,115.863
					c26.629,15.072,87.721,7.08,87.721,7.08c8.871-0.139,18.221-1.383,27.678-3.381c2.611-0.697,5.256-1.273,7.904-1.834
					c12.121-3.053,24.252-7.18,35.623-11.646c0.934-0.433,1.891-0.802,2.858-1.138c32.589-13.104,58.252-28.563,58.252-28.563
					c11.726-6.406,25.515-15.908,38.233-25.338c2.418-3.102,6.064-5.475,9.509-7.443c1.972-1.533,3.991-3.002,6.056-4.42
					c14.258-11.154,23.002-20.02,23.002-20.02c-0.209-1.49-0.273-3.771-0.123-5.791c0.645-8.592,1.635-14.271,3.901-22.598
					c0.166-0.613,0.416-1.229,0.567-1.855c0.125-0.514,0.355-0.98,0.488-1.508c0.129-0.516,0.334-0.918,0.483-1.441
					c0.235-0.824,0.63-1.844,0.964-2.697c0.204-0.529,0.393-1.164,0.65-1.707c0.158-0.334,0.22-0.582,0.402-0.922
					c0.137-0.256,0.174-0.617,0.328-0.877c0.202-0.344,0.314-0.701,0.51-1.102c0.17-0.35,0.313-0.711,0.469-1.078
					c0.148-0.35,0.307-0.58,0.441-0.922c0.064-0.164,0.116-0.445,0.178-0.604c0.568-1.455,0.979-2.646,0.979-2.646L1624.486,316.119
					z"/>
			</g>
		</g>
		<circle display="inline" fill="#503111" cx="1539.312" cy="308.234" r="82.2"/>
		<circle display="inline" fill="#372712" cx="1551.978" cy="513.777" r="82.2"/>
	</g>
	<g id="Layer_9">
		<g>
			<g>
				<path id="XMLID_1_" fill="#2D2C2C" d="M187.245,645.155h42.638c0,0,8.122-49.177-21.317-49.177
					C179.123,595.979,187.245,645.155,187.245,645.155z"/>
			</g>
			<g>
				<g>
					<defs>
						<path id="SVGID_3_" d="M187.245,645.155h42.638c0,0,8.122-49.177-21.317-49.177
							C179.123,595.979,187.245,645.155,187.245,645.155z"/>
					</defs>
					<clipPath id="SVGID_4_">
						<use xlink:href="#SVGID_3_"  overflow="visible"/>
					</clipPath>
					<rect x="174.051" y="621.19" clip-path="url(#SVGID_4_)" fill="#443718" width="71.402" height="1.806"/>
				</g>
			</g>
			<g>
				<g>
					<defs>
						<path id="SVGID_5_" d="M187.245,645.155h42.638c0,0,8.122-49.177-21.317-49.177
							C179.123,595.979,187.245,645.155,187.245,645.155z"/>
					</defs>
					<clipPath id="SVGID_6_">
						<use xlink:href="#SVGID_5_"  overflow="visible"/>
					</clipPath>
					<rect x="207.714" y="589.428" clip-path="url(#SVGID_6_)" fill="#443718" width="1.809" height="71.399"/>
				</g>
			</g>
		</g>
	</g>
	<g>
		<path fill="#C69720" d="M262.817,586.479h-111.45c0.242-0.541,5.32-9.441,7.414-10.788s104.036,0,104.036,0V586.479z"/>
		<path fill="#F4E1B0" d="M495.326,247.53c0,0,78.154,65.593,24.687,169.508c0,0-70.999-27.959-329.93,46.896
			c0,0,48.669-133.859-33.149-177.854C156.932,286.078,477.011,204.501,495.326,247.53"/>
		<path fill="#706651" d="M494.902,247.187c0,0-2.8-42.055-338.864,42.12c0,0-9.814,1.357-4.258-9.267
			c0,0,313.008-79.479,342.023-43.254C493.803,236.788,500.448,242.117,494.902,247.187"/>
		<path fill="#F4E1B0" d="M524.017,423.156c0,0,78.159,65.594,24.688,169.516c0,0-71.001-27.961-329.93,46.889
			c0,0,48.669-133.859-33.149-177.854C185.625,461.707,505.701,380.13,524.017,423.156"/>
		<path fill="#706651" d="M523.597,422.813c0,0-2.802-42.053-338.867,42.121c0,0-9.817,1.361-4.258-9.262
			c0,0,313.008-79.481,342.018-43.259C522.489,412.415,529.14,417.745,523.597,422.813"/>
		<path fill="#706651" d="M556.403,601.738c0,0-2.802-42.053-338.864,42.121c0,0-9.816,1.354-4.259-9.266
			c0,0,313.009-79.48,342.021-43.252C555.302,591.344,561.948,596.672,556.403,601.738"/>
		<g id="Layer_1_2_">
			<g>
				<g>
					<g id="Layer_4">
						<defs>
							<rect id="SVGID_7_" x="204.944" y="238.314" width="396.447" height="392.567"/>
						</defs>
						<clipPath id="SVGID_8_">
							<use xlink:href="#SVGID_7_"  overflow="visible"/>
						</clipPath>
						<g display="none" opacity="0.8" clip-path="url(#SVGID_8_)" enable-background="new    ">
							<g display="inline">
								<g>
									<defs>
										
											<rect id="SVGID_9_" x="217.694" y="251.224" transform="matrix(0.9974 -0.0722 0.0722 0.9974 -30.3258 30.2429)" width="370.945" height="366.749"/>
									</defs>
									<clipPath id="SVGID_10_">
										<use xlink:href="#SVGID_9_"  overflow="visible"/>
									</clipPath>
									<path clip-path="url(#SVGID_10_)" fill="#878787" d="M209.331,296.555c0,0,313.011-79.479,342.023-43.256
										c0,0,6.648,5.328,1.104,10.398c0,0-2.026-30.271-207.938,11.973c15.424,13.2,88.634,76.632,146.534,140.323
										c47.283-5.562,85.051-5.713,94.255,5.776c0,0,6.644,5.331,1.101,10.399c0,0-1.131-16.933-87.835-7.803
										c38.31,43.199,68.075,85.51,66.399,111.271c-1.926,29.645-11.815,48.436-15.1,53.938c0.813,1.326,1.104,3.143-1.212,4.951
										c0,0-1.669-28.326-269.064,32.857c0,0-7.798,1.047-3.254-6.193c0,0,2.479-0.572,6.954-1.578
										c30.885-65.125-12.875-129.734-26.649-147.594c-3.01,0.746-6.039,1.498-9.104,2.268c0,0-9.815,1.359-4.258-9.262
										c0,0,4.592-1.164,12.696-3.146c38.736-66.678-15.448-137.758-33.317-158.323c-3,0.742-6.019,1.495-9.072,2.26
										C213.59,305.816,203.772,307.177,209.331,296.555"/>
								</g>
							</g>
						</g>
						<path clip-path="url(#SVGID_8_)" fill="#CEBD97" d="M498.432,424.353c9.234-0.973,17.488-1.646,24.884-2.08
							c-0.552-1.438-3.261-5.514-16.451-7.99c-5.174,0.488-10.497,1.056-15.953,1.696c-1.081-1.188-2.169-2.378-3.261-3.567
							c-33.547-1.104-98.521,5.123-224.334,33.664c-1.96,5.272-4.43,10.544-7.479,15.788c-8.104,1.984-12.694,3.148-12.694,3.148
							c-5.562,10.621,4.258,9.262,4.258,9.262c3.063-0.77,6.093-1.521,9.104-2.268c13.652,17.695,56.737,81.313,27.451,145.84
							c89.104-19.944,234.423-48.408,266.812-30.088c3.962-7.162,12.312-25.148,14.063-52.133
							C566.508,509.86,536.739,467.552,498.432,424.353z"/>
						<path clip-path="url(#SVGID_8_)" fill="#443E30" d="M283.892,617.9c-0.267,0.585-0.523,1.169-0.803,1.754
							c-4.474,1.006-6.953,1.578-6.953,1.578c-3.964,6.315,1.463,6.325,2.912,6.225l0.038-0.002
							c0.189-0.015,0.305-0.027,0.305-0.027c267.396-61.186,269.065-32.857,269.065-32.857c2.314-1.811,2.021-3.625,1.21-4.951
							c0.296-0.492,0.646-1.099,1.034-1.805C518.313,569.492,372.993,597.956,283.892,617.9z"/>
						<path clip-path="url(#SVGID_8_)" fill="#CEBD97" d="M361.411,277c205.911-42.245,190.98-13.356,190.98-13.356
							c5.545-5.07-1.104-10.398-1.104-10.398c-29.014-36.225-342.021,43.254-342.021,43.254c-5.56,10.622,4.26,9.264,4.26,9.264
							c3.054-0.767,6.072-1.519,9.073-2.262c15.523,17.868,58.443,73.862,44.045,131.975
							c67.37-14.721,158.331-32.179,212.288-32.563C423.355,343.815,375.782,289.298,361.411,277z"/>
						<path clip-path="url(#SVGID_8_)" fill="#443E30" d="M487.677,412.419c-2.9-3.159-5.836-6.315-8.795-9.464
							c-53.958,0.388-144.92,17.846-212.291,32.563c-0.869,3.516-1.939,7.039-3.251,10.563
							C389.154,417.54,454.13,411.312,487.677,412.419z"/>
					</g>
					<g id="Layer_5">
						<path fill="#685F4B" d="M495.941,57.896l38.316,622.2h-19.016l-25.89-622.2C489.353,57.896,490.829,49.346,495.941,57.896z"/>
						<path fill="#F4E1B0" d="M657.684,200.582c0,0,77.155,69.819,18.711,173.69c0,0-71.295-31.194-338.022,35.242
							c0,0,54.689-134.569-27.019-182.517C311.354,227,640.652,156.034,657.684,200.582"/>
						<path fill="#706651" d="M657.267,200.216c0,0-1.254-42.963-346.947,30.038c0,0-10.056,1.015-3.989-9.601
							c0,0,322.021-69.096,350.206-31.076C656.536,189.577,663.107,195.262,657.267,200.216"/>
						<path fill="#F4E1B0" d="M675.246,380.658c0,0,77.154,69.818,18.71,173.689c0,0-71.295-31.193-338.021,35.24
							c0,0,54.688-134.566-27.021-182.514C328.915,407.076,658.216,336.11,675.246,380.658"/>
						<path fill="#A89876" d="M470.002,378c10.783-7.114,13.177-43.413,12.704-47.59c-0.441-5.434-2.06-10.413-5.214-15.626
							c-3.119-4.969-6.394-9.412-10.069-13.282c-3.677-3.87-7.43-6.726-11.053-8.854c-3.628-2.124-6.313-3.163-7.727-2.667
							c-0.975,0.169-1.143-0.803-0.265-2.959c0.877-2.156,2.157-4.883,4.126-7.979c1.967-3.097,4.379-6.521,6.992-10.229
							c2.855-3.752,5.553-6.976,8.048-9.912c2.739-2.979,5.119-5.146,7.628-6.582c2.462-1.68,4.208-1.731,5.634-0.729
							c3.75,2.856,7.5,5.715,11.453,8.282c3.955,2.571,7.503,5.713,10.65,9.425c6.509,8.641,10.298,17.499,11.899,26.739
							c1.362,9.283,3.06,70.421-7.796,74.706C496.16,375.028,459.216,385.117,470.002,378z"/>
						<path fill="#A89876" d="M651.205,363.197c22.286,17.622-20.919,101.303-33.427,110.409c-3.729,2.715-7.845,5.344-12.021,7.324
							c-3.867,1.832-24.567,8.096-26.8,7.877c-1.425-0.139-6.034,0.027-7.057-0.916l-20.857-17.461
							c-2.619,2.037-4.73,3.867-6.576,5.471c-1.844,1.6-15.189,8.713-20.846,10.691c-0.748,0.262-3.467-1.332-4.197-1.66
							c-1.472-0.656-2.908-1.389-4.311-2.188c-2.708-1.533-5.257-3.34-7.68-5.291c-9.851-7.934-17.594-18.227-24.056-29.02
							c-3.385-5.651-6.055-11.661-7.56-18.089c-1.413-6.036-1.976-12.257-1.788-18.449c0.184-5.978,1.276-11.854,1.887-17.793
							c0.352-3.428,0.465-6.899-0.072-10.315c-0.216-1.375-0.517-2.732-0.901-4.069c-0.236-0.818-0.749-3.766-1.442-4.218
							c-4.268-2.784,28.738-10.381,34.885-2.887c3.739,4.562,1.926,10.59-0.095,15.473c-2.229,5.379-4.059,11.055-4.581,16.883
							c-0.542,6.021,0.436,12.022,1.868,17.859c0.649,2.645,1.44,5.256,2.302,7.838c3.153,9.477,10.142,18.295,18.358,23.906
							c1.09,0.744,11.469,5.744,12.016,4.309c0.916-2.41,33.916-70.958,8.746-92.963c24.066-0.128,21.271-3.123,37.802-3.612
							c19.806,25.292-5.023,96.958-5.034,97.296c0.063-1.756,8.448-5.547,9.78-6.357c5.167-3.146,9.948-7.051,13.629-11.883
							c5.89-7.736,9.065-18.141,12.028-27.308c3.352-10.368,5.014-21.361,3.815-32.238c-0.852-7.746-4.292-15.563-9.505-21.418
							C635.01,361.546,619.573,359.841,651.205,363.197z"/>
						<path fill="#A89876" d="M606.363,365.919c6.727-6.038,9.084-15.068,9.802-23.759c0.705-8.524-0.416-17.129-1.611-25.557
							c-2.396-16.854-4.039-37.292,4.104-52.938c2.077-3.99,4.702-8.063,7.632-11.484c2.746-3.207,5.697-6.219,8.657-9.225
							c0,0,40.423,92.982,13.009,118.95C611.069,365.844,631.879,363.896,606.363,365.919z"/>
						<path fill="#A89876" d="M542.996,370.358c13.392-13.609-6.922-54.872-9.646-75.926c-0.416-3.929,0.421-7.738,3.004-11.485
							c2.582-3.747,5.407-7.52,8.973-11.372c3.587-3.604,7.181-7.211,10.791-10.571c3.617-3.358,6.275-6.372,8.197-9.306
							c0,0,34.399,113.954,15.757,111.563C561.43,360.867,571.214,363.657,542.996,370.358z"/>
						<path fill="#706651" d="M674.828,380.294c0,0-1.254-42.967-346.947,30.037c0,0-10.06,1.014-3.986-9.601
							c0,0,322.017-69.098,350.204-31.077C674.097,369.653,680.671,375.339,674.828,380.294"/>
						<path fill="#706651" d="M701.035,563.887c0,0-1.254-42.965-346.947,30.039c0,0-10.06,1.012-3.986-9.604
							c0,0,322.017-69.098,350.204-31.076C700.304,553.248,706.876,558.932,701.035,563.887"/>
						<path fill="#706651" d="M694.18,548.23c-53.737-26.119-343.656,36.094-343.656,36.094c-6.071,10.611,3.984,9.604,3.984,9.604
							c227.096-47.961,305.549-45.871,332.648-38.795L694.18,548.23z"/>
					</g>
					<g id="Layer_12">
					</g>
					<g id="Layer_6">
						<path fill="#C69720" d="M821.266,524.787c4.045-0.662,5.952-5.021,1.391-7.597c-3.362-1.9-8.456,0.829-10.074,4.013
							c-2.075,4.079,2.035,8.65,5.313,10.979c3.857,2.74,9.84,2.238,12.332-0.818c2.407-2.952,3.43-7.961,2.729-11.687
							c-0.836-4.452-3.188-8.058-6.205-11.424c-7.86-8.771-25.077-3.53-33.422,1.772c-7.335,4.664-14.657,9.345-21.987,14.02
							c-19.863,12.659-39.672,25.413-59.595,37.984c-6.3,3.979-12.07,8.271-7.992,16.563c3.731,7.592,21.282,13.133,21.76,0.293
							c0.144-3.85-3.152-6.742-6.731-7.421c-3.271-0.621-11.321,3.599-5.427,6.189c-4.514-1.982,0.403-5.609,2.408-6.329
							c9.154-3.277,17.837-10.112,26.007-15.226c13.441-8.409,26.776-16.985,40.148-25.505c6.839-4.36,13.607-9.215,20.792-13.003
							c5.089-2.688,23.064-6.598,22.576,3.169"/>
						<path fill="#C69720" d="M706.457,571.954c0,0-17.065,21.535-69.775,22.651c-52.711,1.114-64.12,12.083-64.814,21.955
							c-0.691,9.872,11.896,4.424,11.896,4.424s-10.645-13.542,52.919-15.746c63.562-2.204,73.8-17.694,78.553-28.599
							C719.985,565.739,706.457,571.954,706.457,571.954z"/>
						<path fill="#C69720" d="M325.74,682.887l225.688-0.513c16.817-0.035,38.3-10.853,45.43-26.691
							c3.505-7.785,5.204-19.043,3.128-27.409c-2.299-9.262-7.306-20.248-18.063-20.785c-5.935-0.296-10.234,0.257-13.768,5.771
							c-3.631,5.668-2.791,14.78,1.317,19.997c4.759,6.046,17.437,5.474,18.893-3.524c0.354-2.175-1.683-5.54-3.209-7.047
							c-2.517-2.481-3.498-1.118-6.562-0.989c3.63-1.622,5.446-1.271,8.022,2.188c11.905,15.98-9.489,38.73-23.854,43.854
							c-4.043,1.441-8.2,2.502-12.441,3.293c-6.616,1.229-12.266,2.193-18.966,2.166c-4.12-0.018-8.24-0.033-12.359-0.05
							c-12.674-0.053-25.349-0.104-38.022-0.158c-31.492-0.131-62.983-0.262-94.478-0.392c-16.591-0.069-33.183-0.14-49.772-0.208
							C336.722,672.39,327.843,677.962,325.74,682.887z"/>
						<path fill="#C69720" d="M217.529,810.176c2.687,0.021,74.975-0.012,77.662-0.008c7.361,0.007,14.722,0.012,22.083,0
							c10.957-0.017,21.913,0.031,32.869,0.018c13.508-0.018,27.016-0.018,40.522,0.007c15.056,0.025,30.108-0.064,45.162-0.039
							c15.443,0.032,30.887,0.043,46.328-0.006c14.694-0.045,29.39,0.126,44.082,0.072c13.104-0.047,26.2-0.12,39.306,0.011
							c10.657,0.105,21.318-0.359,31.975-0.18c7.418,0.127,14.5,0.424,21.916-0.413c6.835-0.771,13.964-3.047,20.58-4.894
							c7.326-2.039,14.519-4.527,21.525-7.485c8.043-3.396,15.829-7.37,23.424-11.672c8.861-5.024,17.479-10.485,25.908-16.203
							c9.558-6.48,18.889-13.306,27.895-20.534c9.741-7.82,19.112-16.135,27.732-25.184c9.064-9.515,17.271-19.858,24.113-31.089
							c7.337-12.036,13.032-25.004,17.166-38.471c4.603-14.988,7.305-30.497,8.965-46.068c1.825-17.106,2.418-34.319,2.805-51.514
							c0.093-4.142,0.663-8.604,0.257-12.726c0,0,5.085-17.889,21.556-8.854c0,0,8.311,11.218-4.063,18.491
							c0,0-14.352,0.479-5.546-11.756c0.314-0.438,1.841-0.404,2.271-0.313c1.563,0.348,1.889,2.04,1.802,3.428
							c0.354-1.099,0.146-2.776-1.022-3.381c-1.284-0.664-2.539,0.03-3.406,0.986c-0.808,0.891-1.273,2.264-1.785,3.316
							c-0.644,1.328-1.403,2.509-1.481,4.021c-0.067,1.304,0,2.626,0.005,3.948c0.871,4.056,1.432,8.184,1.897,12.302
							c1.166,10.274,1.52,20.646,1.199,30.979c-0.453,14.71-2.306,29.383-5.588,43.729c-4.015,17.54-10.188,34.58-18.465,50.563
							c-9.8,18.92-22.521,36.249-37.428,51.465c-18.247,18.624-39.613,33.991-62.478,46.444
							c-13.707,7.467-27.962,13.907-42.535,19.487c-16.215,6.209-33.724,13.639-51.175,13.639c-13.964,0-27.927,0-41.892,0
							c-21.307,0-42.609,0-63.915,0c-24.241,0-48.481,0-72.723,0c-22.77,0-45.54,0-68.31,0c-16.895,0-33.785,0-50.68,0
							c-6.608,0-82.685,0-89.294,0"/>
						<path fill="#897229" d="M828.34,548.521c1.195-2.471,1.484-8.559,5.507-8.102c2.094,0.236,3.397,2.851,2.456,4.677
							c-1.12,2.17-3.973,0.092-3.193-1.94c-0.302,0.789,0.214,1.487,0.979,1.689c0.596,0.158,1.543,0.35,1.57-0.541
							c0.018-0.471-0.075-1.163-0.282-1.594c-0.643-1.336-2.199-1.916-3.649-0.857C830.12,543.023,829.195,546.754,828.34,548.521z"
							/>
						<path fill="#897229" d="M820.619,514.657c0.014,0.001,0.023,0.003,0.035,0.004c1.075,0.092,2.128,0.438,2.926,1.187
							c0.597,0.559,0.949,1.314,1.306,2.042c0.392,0.802,0.569,1.694,0.618,2.58c0.043,0.794,0.105,1.648-0.049,2.435
							c-0.114,0.598-0.356,1.21-0.826,1.614c-0.428,0.366-0.983,0.576-1.522,0.711c-1.391,0.348-2.992,0.098-3.754-1.234
							c-0.22-0.386-0.414-0.811-0.488-1.251c-0.186-1.104,0.443-2.255,1.401-2.807c0.366-0.211,0.81-0.392,1.236-0.283
							c0.437,0.112,0.721,0.497,0.997,0.823c-0.687-0.511-1.771-0.189-2.303,0.414c-0.352,0.399-0.518,1.063-0.499,1.584
							c0.037,1.046,1.305,1.605,2.205,1.585c1.371-0.034,2.366-1.298,2.243-2.621c-0.111-1.206-0.604-2.372-1.144-3.445
							c-0.154-0.306-0.326-0.602-0.526-0.88c-0.468-0.648-1.033-1.274-1.695-1.732c-0.67-0.464-1.431-0.634-2.229-0.718
							c-0.102-0.011-0.203-0.028-0.306-0.028C819.031,514.634,819.84,514.577,820.619,514.657z"/>
						<path fill="#897229" d="M703.729,578.62c-0.523-1.063-0.882-2.062-1.101-3.002c-0.169,0.141,0.053-0.037-0.128,0.107
							c0.217,0.963,0.416,2.166,0.952,3.26c1.192,2.425,4.013,4.243,7.018,5.718c0.148-0.177-0.145,0.178,0,0
							C707.49,583.229,704.913,581.029,703.729,578.62z"/>
						<path fill="#897229" d="M723.274,567.89c-0.338,0.315-1.032,0.447-1.462,0.59c-1.775,0.592-3.691,1.587-5.469,2.17
							c-0.455,0.149-0.906,0.312-1.345,0.506c-0.771,0.348-1.433,0.795-2.011,1.411c-1.535,1.637-3.103,4.363-1.071,6.262
							c0.604,0.565,1.765,1.243,2.6,1.34c0.854,0.097,2.313,0.049,3.076-0.407c0.566-0.34,1.492-1.116,1.742-1.742
							c0.419-1.042-0.059-2.757-1.155-3.229c-0.563-0.242-1.475,0.079-1.853,0.556c0.339-0.425,1.304-0.227,1.646,0.052
							c0.521,0.42,0.754,1.223,0.63,1.872c-0.285,1.493-2.215,1.611-3.415,1.543c-1.292-0.073-2.625-1.082-2.66-2.417
							c-0.102-3.871,4.345-5.22,7.194-6.477C720.8,569.44,722.405,568.706,723.274,567.89z"/>
						<path fill="#897229" d="M576.421,607.475c-0.267,0.229,0.067-0.068-0.174,0.165c1.729-0.289,3.618-0.297,5.717-0.192
							c3.808,0.19,6.892,1.693,9.394,3.961c0.299-0.114-0.262,0.114,0.062,0c-2.563-2.448-5.241-4.021-9.229-4.221
							C580.161,607.089,578.1,607.216,576.421,607.475z"/>
						<path fill="#897229" d="M589.534,629.885c-0.167-0.332-0.204-0.915-0.329-1.284c-0.354-1.058-0.667-2.132-1.084-3.165
							c-0.684-1.693-2.005-3.552-3.467-4.647c-1.664-1.245-3.66-1.396-5.587-0.7c-2.104,0.759-4.445,1.922-5.334,4.124
							c-0.331,0.819-0.022,2.267,0.423,2.984c0.688,1.106,1.857,1.746,3.009,2.271c0.832,0.379,1.617,0.777,2.562,0.575
							c1.693-0.366,3.91-3.343,2.793-5.024c-0.342-0.516-1.307-1.042-1.919-1.088c-0.773-0.058-2.023,0.531-2.407,1.237
							c0.33-0.605,1.836-0.704,2.347-0.409c0.931,0.539,1.179,2.068,0.62,2.918c-0.865,1.316-2.84,0.818-3.928,0.083
							c-0.563-0.382-1.164-0.854-1.459-1.484c-0.289-0.617-0.313-1.749,0.021-2.357c0.438-0.804,1.586-1.61,2.387-2.001
							c0.972-0.476,2.079-0.606,3.145-0.45c2.417,0.353,4.005,2.114,5.332,4.019C587.634,626.883,588.768,628.356,589.534,629.885z"
							/>
					</g>
					<g id="Layer_8">
						<path fill="#C69720" d="M345.667,672.39v10.479l-181.271,0.021c0,0-4.396-4.793-7.847-10.497L345.667,672.39L345.667,672.39z"
							/>
						<path fill="#3A2E1C" d="M711.488,650.095l-8.29,7.929l2.515,0.731c-3.604,5.921-10.113,8.526-17.53,9.039v-30.027h6.879
							c0.573,0.577,1.366,0.93,2.248,0.93c1.746,0,3.166-1.413,3.166-3.166c0-1.751-1.42-3.17-3.166-3.17
							c-0.872,0-1.666,0.356-2.248,0.937h-6.879v-3.619c3.342-1.308,5.729-4.541,5.729-8.348c0.001-4.933-4.02-8.961-8.97-8.961
							c-4.947,0-8.966,4.028-8.966,8.961c0,4.063,2.736,7.477,6.455,8.566v3.396h-7.606c-0.574-0.572-1.367-0.932-2.244-0.932
							c-1.749,0-3.171,1.419-3.171,3.17c0,1.753,1.422,3.166,3.171,3.166c0.875,0,1.67-0.353,2.244-0.93h7.606v30.01
							c-7.815-0.583-14.638-3.625-18.063-10.04l2.502-0.552l-7.745-8.448l-3.45,10.938l2.921-0.652
							c4.271,9.355,14.006,16.892,24.999,17.618l1.708,3.458l1.701-3.448c10.457-0.701,19.765-7.575,24.366-16.234l2.837,0.829
							L711.488,650.095z M680.346,621.33c0-2.535,2.063-4.596,4.601-4.596c2.537,0,4.603,2.061,4.603,4.596
							c0,2.538-2.068,4.604-4.605,4.604C682.404,625.933,680.346,623.869,680.346,621.33z"/>
						<path fill="#ADACAC" d="M713.525,648.651l-8.29,7.929l2.514,0.731c-3.603,5.921-10.112,8.528-17.529,9.039v-30.027h6.879
							c0.573,0.577,1.366,0.932,2.248,0.932c1.746,0,3.166-1.413,3.166-3.166c0-1.751-1.42-3.17-3.166-3.17
							c-0.872,0-1.666,0.354-2.248,0.935h-6.879v-3.619c3.342-1.306,5.729-4.541,5.729-8.346c0.001-4.935-4.02-8.961-8.97-8.961
							c-4.947,0-8.966,4.026-8.966,8.961c0,4.063,2.735,7.475,6.455,8.564v3.396h-7.606c-0.575-0.573-1.368-0.931-2.244-0.931
							c-1.749,0-3.171,1.419-3.171,3.17c0,1.753,1.422,3.166,3.171,3.166c0.875,0,1.669-0.354,2.244-0.932h7.606v30.011
							c-7.815-0.584-14.639-3.625-18.063-10.039l2.502-0.554l-7.746-8.446l-3.449,10.936l2.921-0.652
							c4.271,9.355,14.006,16.894,24.999,17.618l1.708,3.458l1.701-3.448c10.457-0.699,19.765-7.573,24.366-16.232l2.836,0.829
							L713.525,648.651z M682.385,619.887c0-2.537,2.063-4.597,4.601-4.597c2.537,0,4.603,2.06,4.603,4.597
							c0,2.538-2.068,4.602-4.605,4.602C684.441,624.489,682.385,622.427,682.385,619.887z"/>
						<g id="Layer_10">
							<path fill="#88BAB9" d="M296.613,759.764c-12.164,0-22.025-9.861-22.025-22.027c0-3.991,1.078-7.725,2.937-10.952
								c-3.516,3.901-5.67,9.052-5.67,14.714c0,12.167,9.859,22.027,22.023,22.027c8.173,0,15.29-4.461,19.094-11.071
								C308.938,756.932,303.113,759.764,296.613,759.764z"/>
							<path fill="#B0EAEA" d="M296.613,759.764c6.5,0,12.324-2.832,16.356-7.312c1.855-3.229,2.935-6.963,2.935-10.956
								c0-12.161-9.861-22.021-22.027-22.021c-6.5,0-12.321,2.832-16.354,7.31c-1.856,3.229-2.937,6.961-2.937,10.952
								C274.588,749.902,284.449,759.764,296.613,759.764z"/>
							<path fill="#897229" d="M323.822,740.829c0-16.106-13.108-29.271-29.273-29.271c-8.339,0-15.847,3.521-21.18,9.126
								c5.251-5.002,12.336-8.102,20.154-8.102c1.309,0,2.588,0.116,3.852,0.283c13.246,1.329,23.811,11.894,25.14,25.139
								c0.167,1.266,0.282,2.545,0.282,3.854c0,7.798-3.09,14.888-8.093,20.146C320.31,756.661,323.822,749.146,323.822,740.829z"/>
							<path fill="#897229" d="M262.333,740.829c0-8.628,3.409-16.463,8.942-22.25c-6.137,5.869-9.968,14.128-9.968,23.276
								c0,17.774,14.44,32.216,32.217,32.216c9.146,0,17.407-3.831,23.273-9.968c-5.785,5.534-13.62,8.941-22.249,8.941
								C276.775,773.047,262.333,758.604,262.333,740.829z"/>
							<path fill="#897229" d="M294.549,763.77c-0.691,0-1.244,0.471-1.42,1.104c0.128-0.034,0.254-0.078,0.396-0.078
								c0.833,0,1.5,0.667,1.5,1.499c0,0.141-0.043,0.267-0.079,0.396c0.634-0.175,1.104-0.729,1.104-1.422
								C296.049,764.437,295.383,763.77,294.549,763.77z"/>
							<path fill="#897229" d="M276.775,757.104c-0.693,0-1.247,0.471-1.421,1.104c0.129-0.034,0.255-0.078,0.396-0.078
								c0.833,0,1.5,0.666,1.5,1.5c0,0.141-0.043,0.266-0.079,0.394c0.636-0.175,1.105-0.728,1.105-1.42
								C278.274,757.771,277.608,757.104,276.775,757.104z"/>
							<path fill="#897229" d="M276.138,726.302c0,0.141-0.043,0.268-0.079,0.396c0.634-0.175,1.104-0.729,1.104-1.422
								c0-0.832-0.667-1.499-1.5-1.499c-0.691,0-1.247,0.471-1.421,1.105c0.129-0.036,0.254-0.079,0.396-0.079
								C275.471,724.802,276.138,725.469,276.138,726.302z"/>
							<path fill="#897229" d="M270.109,739.329c-0.693,0-1.246,0.472-1.421,1.104c0.128-0.034,0.254-0.079,0.395-0.079
								c0.834,0,1.5,0.667,1.5,1.501c0,0.14-0.043,0.266-0.079,0.394c0.637-0.175,1.105-0.728,1.105-1.42
								C271.609,739.995,270.943,739.329,270.109,739.329z"/>
							<path fill="#897229" d="M295.023,717.414c0,0.143-0.043,0.268-0.079,0.396c0.634-0.176,1.104-0.729,1.104-1.42
								c0-0.834-0.666-1.501-1.5-1.501c-0.69,0-1.244,0.471-1.42,1.104c0.129-0.033,0.254-0.079,0.396-0.079
								C294.357,715.914,295.023,716.58,295.023,717.414z"/>
							<path fill="#897229" d="M266.443,740.829c0-7.486,2.962-14.283,7.753-19.327c-5.396,5.123-8.779,12.345-8.779,20.354
								c0,0.953,0.05,1.896,0.145,2.825c1.729,13.037,12.063,23.407,25.137,25.137c0.93,0.094,1.872,0.146,2.826,0.146
								c8.009,0,15.229-3.388,20.353-8.779c-5.042,4.791-11.839,7.753-19.327,7.753
								C279.052,768.935,266.443,756.326,266.443,740.829z"/>
							<path fill="#897229" d="M312.798,725.19c0,0.141-0.043,0.266-0.077,0.396c0.634-0.177,1.104-0.729,1.104-1.423
								c0-0.834-0.667-1.501-1.5-1.501c-0.693,0-1.246,0.473-1.421,1.105c0.129-0.035,0.254-0.079,0.395-0.079
								C312.132,723.69,312.798,724.357,312.798,725.19z"/>
							<path fill="#897229" d="M320.489,740.829c0-0.834-0.666-1.5-1.5-1.5c-0.693,0-1.246,0.472-1.421,1.104
								c0.128-0.034,0.254-0.079,0.395-0.079c0.833,0,1.5,0.667,1.5,1.501c0,0.14-0.043,0.266-0.079,0.394
								C320.019,742.074,320.489,741.521,320.489,740.829z"/>
							<path fill="#897229" d="M294.549,719.722c-6.094,0-11.563,2.592-15.417,6.717c3.771-3.521,8.82-5.691,14.393-5.691
								c11.665,0,21.106,9.442,21.106,21.108c0,5.57-2.17,10.619-5.689,14.389c4.125-3.852,6.717-9.32,6.717-15.415
								C315.657,729.164,306.214,719.722,294.549,719.722z"/>
							<path fill="#897229" d="M311.213,757.104c-0.691,0-1.246,0.471-1.421,1.104c0.128-0.034,0.254-0.078,0.396-0.078
								c0.833,0,1.5,0.666,1.5,1.5c0,0.141-0.043,0.266-0.079,0.394c0.635-0.175,1.104-0.728,1.104-1.42
								C312.713,757.771,312.046,757.104,311.213,757.104z"/>
							<path fill="#C69720" d="M293.523,709.638c-8.627,0-16.462,3.408-22.249,8.939c-5.534,5.787-8.942,13.622-8.942,22.25
								c0,17.774,14.442,32.218,32.217,32.218c8.629,0,16.464-3.407,22.249-8.941c5.533-5.787,8.942-13.622,8.942-22.248
								C325.74,724.079,311.298,709.638,293.523,709.638z M293.523,771.129c-16.164,0-29.273-13.164-29.273-29.271
								c0-8.318,3.515-15.832,9.119-21.174c5.333-5.604,12.84-9.126,21.18-9.126c16.165,0,29.273,13.165,29.273,29.271
								c0,8.317-3.513,15.832-9.119,21.173C309.371,767.605,301.863,771.129,293.523,771.129z"/>
							<path fill="#C69720" d="M293.523,713.748c-7.488,0-14.285,2.964-19.327,7.755c-4.791,5.043-7.753,11.84-7.753,19.326
								c0,15.497,12.608,28.105,28.104,28.105c7.488,0,14.285-2.962,19.327-7.753c4.791-5.043,7.753-11.839,7.753-19.326
								C321.629,726.357,309.021,713.748,293.523,713.748z M312.324,722.664c0.833,0,1.5,0.667,1.5,1.501
								c0,0.693-0.47,1.246-1.104,1.423c-0.131,0.033-0.257,0.077-0.396,0.077c-0.833,0-1.5-0.667-1.5-1.5
								c0-0.141,0.043-0.268,0.079-0.396C311.078,723.135,311.631,722.664,312.324,722.664z M294.549,714.888
								c0.834,0,1.5,0.667,1.5,1.501c0,0.691-0.47,1.244-1.104,1.42c-0.128,0.036-0.254,0.078-0.396,0.078
								c-0.833,0-1.5-0.665-1.5-1.498c0-0.143,0.045-0.27,0.079-0.396C293.304,715.358,293.857,714.888,294.549,714.888z
								 M275.664,723.775c0.833,0,1.5,0.667,1.5,1.499c0,0.693-0.471,1.247-1.104,1.422c-0.128,0.035-0.254,0.079-0.396,0.079
								c-0.833,0-1.5-0.667-1.5-1.501c0-0.14,0.043-0.266,0.079-0.394C274.417,724.246,274.971,723.775,275.664,723.775z
								 M270.504,742.25c-0.128,0.034-0.254,0.078-0.395,0.078c-0.833,0-1.5-0.667-1.5-1.499c0-0.141,0.043-0.268,0.079-0.396
								c0.175-0.635,0.728-1.104,1.421-1.104c0.833,0,1.5,0.666,1.5,1.5C271.609,741.521,271.139,742.074,270.504,742.25z
								 M277.169,760.023c-0.128,0.035-0.254,0.079-0.395,0.079c-0.833,0-1.5-0.666-1.5-1.499c0-0.14,0.043-0.268,0.079-0.396
								c0.175-0.634,0.728-1.104,1.421-1.104c0.833,0,1.5,0.667,1.5,1.5C278.274,759.298,277.804,759.849,277.169,760.023z
								 M294.944,766.69c-0.129,0.034-0.254,0.079-0.396,0.079c-0.833,0-1.5-0.667-1.5-1.501c0-0.14,0.043-0.266,0.079-0.394
								c0.176-0.637,0.729-1.105,1.42-1.105c0.834,0,1.5,0.667,1.5,1.499C296.049,765.964,295.579,766.516,294.944,766.69z
								 M311.608,760.023c-0.128,0.035-0.254,0.079-0.396,0.079c-0.833,0-1.5-0.666-1.5-1.499c0-0.14,0.043-0.268,0.079-0.396
								c0.175-0.634,0.729-1.104,1.421-1.104c0.833,0,1.5,0.667,1.5,1.5C312.713,759.298,312.243,759.849,311.608,760.023z
								 M308.94,756.244c-3.854,4.126-9.323,6.72-15.417,6.72c-11.665,0-21.108-9.442-21.108-21.106
								c0-6.095,2.592-11.564,6.717-15.417c3.854-4.125,9.323-6.717,15.417-6.717c11.665,0,21.108,9.44,21.108,21.105
								C315.657,746.924,313.065,752.393,308.94,756.244z M319.385,742.25c-0.13,0.034-0.257,0.078-0.396,0.078
								c-0.833,0-1.5-0.667-1.5-1.499c0-0.141,0.043-0.268,0.079-0.396c0.175-0.635,0.728-1.104,1.421-1.104
								c0.833,0,1.5,0.666,1.5,1.5C320.489,741.521,320.019,742.074,319.385,742.25z"/>
							<path fill="#88BAB9" d="M433.821,760.237c-12.164,0-22.023-9.859-22.023-22.025c0-3.991,1.076-7.727,2.935-10.952
								c-3.514,3.899-5.67,9.05-5.67,14.714c0,12.167,9.861,22.025,22.025,22.025c8.173,0,15.29-4.461,19.092-11.069
								C446.145,757.405,440.321,760.237,433.821,760.237z"/>
							<path fill="#B0EAEA" d="M433.821,760.237c6.5,0,12.324-2.832,16.356-7.31c1.855-3.229,2.935-6.963,2.935-10.956
								c0-12.163-9.859-22.023-22.025-22.023c-6.5,0-12.323,2.832-16.355,7.312c-1.855,3.228-2.935,6.961-2.935,10.952
								C411.797,750.378,421.657,760.237,433.821,760.237z"/>
							<path fill="none" d="M447.395,758.604c-0.141,0-0.267,0.044-0.395,0.078c-0.035,0.129-0.079,0.256-0.079,0.396
								c0,0.833,0.667,1.499,1.5,1.499c0.14,0,0.267-0.044,0.395-0.079c0.036-0.128,0.079-0.253,0.079-0.394
								C448.895,759.27,448.228,758.604,447.395,758.604z"/>
							<path fill="none" d="M449.532,726.139c0.142,0,0.269-0.044,0.396-0.079c0.035-0.13,0.079-0.255,0.079-0.396
								c0-0.833-0.667-1.5-1.5-1.5c-0.142,0-0.268,0.045-0.396,0.079c-0.035,0.128-0.079,0.255-0.079,0.396
								C448.032,725.472,448.699,726.139,449.532,726.139z"/>
							<path fill="none" d="M455.173,740.828c-0.143,0-0.269,0.045-0.396,0.079c-0.035,0.128-0.079,0.255-0.079,0.396
								c0,0.832,0.667,1.499,1.5,1.499c0.142,0,0.269-0.044,0.396-0.079c0.035-0.128,0.079-0.254,0.079-0.396
								C456.673,741.495,456.007,740.828,455.173,740.828z"/>
							<path fill="none" d="M430.731,765.27c-0.14,0-0.267,0.044-0.395,0.079c-0.036,0.128-0.079,0.254-0.079,0.394
								c0,0.834,0.666,1.501,1.5,1.501c0.141,0,0.266-0.045,0.395-0.079c0.035-0.129,0.079-0.255,0.079-0.396
								C432.23,765.937,431.564,765.27,430.731,765.27z"/>
							<path fill="none" d="M430.731,721.221c-5.571,0-10.62,2.17-14.391,5.689c-3.521,3.771-5.691,8.819-5.691,14.393
								c0,11.664,9.443,21.104,21.108,21.104c5.569,0,10.62-2.17,14.391-5.689c3.521-3.771,5.691-8.818,5.691-14.391
								C451.841,730.663,442.396,721.221,430.731,721.221z"/>
							<path fill="none" d="M406.291,740.828c-0.14,0-0.267,0.045-0.395,0.079c-0.036,0.128-0.079,0.255-0.079,0.396
								c0,0.832,0.667,1.499,1.5,1.499c0.14,0,0.266-0.044,0.396-0.079c0.034-0.128,0.077-0.254,0.077-0.396
								C407.79,741.495,407.127,740.828,406.291,740.828z"/>
							<path fill="none" d="M412.957,758.604c-0.141,0-0.267,0.044-0.396,0.078c-0.036,0.129-0.079,0.256-0.079,0.396
								c0,0.833,0.667,1.499,1.5,1.499c0.14,0,0.267-0.044,0.396-0.079c0.034-0.128,0.077-0.253,0.077-0.394
								C414.456,759.27,413.789,758.604,412.957,758.604z"/>
							<path fill="none" d="M402.768,745.154c-0.093-0.93-0.143-1.872-0.143-2.825c0-8.011,3.385-15.229,8.777-20.354
								c5.125-5.396,12.344-8.778,20.354-8.778c0.954,0,1.896,0.049,2.825,0.145c-1.265-0.167-2.543-0.283-3.853-0.283
								c-7.817,0-14.902,3.098-20.154,8.1c-5.003,5.26-8.093,12.352-8.093,20.147C402.484,742.61,402.6,743.891,402.768,745.154z"/>
							<path fill="none" d="M431.759,718.36c0.141,0,0.267-0.042,0.395-0.078c0.035-0.129,0.079-0.254,0.079-0.395
								c0-0.834-0.666-1.5-1.5-1.5c-0.14,0-0.266,0.044-0.395,0.079c-0.036,0.128-0.079,0.255-0.079,0.396
								C430.259,717.695,430.925,718.36,431.759,718.36z"/>
							<path fill="#897229" d="M461.03,741.303c0-16.108-13.106-29.273-29.271-29.273c-8.339,0-15.849,3.522-21.182,9.126
								c5.251-5.002,12.336-8.1,20.154-8.1c1.309,0,2.588,0.116,3.852,0.283c13.246,1.328,23.811,11.892,25.14,25.137
								c0.167,1.266,0.284,2.545,0.284,3.854c0,7.8-3.092,14.89-8.095,20.146C457.517,757.135,461.03,749.62,461.03,741.303z"/>
							<path fill="#897229" d="M399.54,741.303c0-8.628,3.409-16.463,8.942-22.25c-6.137,5.869-9.968,14.128-9.968,23.274
								c0,17.774,14.44,32.218,32.217,32.218c9.148,0,17.407-3.831,23.275-9.97c-5.787,5.534-13.622,8.941-22.249,8.941
								C413.982,773.519,399.54,759.077,399.54,741.303z"/>
							<path fill="#897229" d="M431.759,764.243c-0.693,0-1.246,0.473-1.42,1.105c0.128-0.035,0.254-0.079,0.395-0.079
								c0.833,0,1.5,0.667,1.5,1.499c0,0.141-0.043,0.267-0.079,0.396c0.634-0.175,1.104-0.729,1.104-1.422
								C433.258,764.91,432.593,764.243,431.759,764.243z"/>
							<path fill="#897229" d="M413.982,757.577c-0.693,0-1.247,0.473-1.421,1.104c0.129-0.034,0.255-0.078,0.396-0.078
								c0.833,0,1.5,0.666,1.5,1.5c0,0.141-0.043,0.266-0.077,0.394c0.634-0.175,1.104-0.728,1.104-1.42
								C415.482,758.244,414.815,757.577,413.982,757.577z"/>
							<path fill="#897229" d="M413.345,726.774c0,0.141-0.043,0.269-0.079,0.396c0.634-0.177,1.104-0.729,1.104-1.424
								c0-0.831-0.667-1.499-1.5-1.499c-0.691,0-1.247,0.473-1.421,1.105c0.129-0.036,0.254-0.079,0.396-0.079
								C412.678,725.275,413.345,725.942,413.345,726.774z"/>
							<path fill="#897229" d="M407.317,739.803c-0.693,0-1.246,0.47-1.421,1.104c0.128-0.034,0.254-0.079,0.395-0.079
								c0.835,0,1.5,0.667,1.5,1.501c0,0.142-0.043,0.268-0.077,0.396c0.635-0.175,1.104-0.729,1.104-1.42
								C408.816,740.469,408.15,739.803,407.317,739.803z"/>
							<path fill="#897229" d="M432.23,717.888c0,0.141-0.043,0.266-0.079,0.395c0.634-0.176,1.104-0.727,1.104-1.42
								c0-0.834-0.666-1.501-1.5-1.501c-0.692,0-1.246,0.473-1.42,1.105c0.129-0.035,0.254-0.079,0.395-0.079
								C431.564,716.388,432.23,717.054,432.23,717.888z"/>
							<path fill="#897229" d="M403.651,741.303c0-7.488,2.962-14.285,7.753-19.328c-5.394,5.124-8.778,12.344-8.778,20.354
								c0,0.953,0.051,1.896,0.144,2.825c1.729,13.037,12.063,23.407,25.137,25.137c0.932,0.096,1.872,0.146,2.826,0.146
								c8.009,0,15.229-3.386,20.354-8.779c-5.043,4.791-11.841,7.753-19.327,7.753C416.26,769.408,403.651,756.802,403.651,741.303
								z"/>
							<path fill="#897229" d="M450.008,725.664c0,0.143-0.043,0.268-0.079,0.396c0.634-0.175,1.104-0.729,1.104-1.421
								c0-0.834-0.667-1.501-1.5-1.501c-0.691,0-1.246,0.471-1.421,1.104c0.129-0.033,0.254-0.079,0.396-0.079
								C449.341,724.164,450.008,724.831,450.008,725.664z"/>
							<path fill="#897229" d="M457.697,741.303c0-0.834-0.666-1.5-1.5-1.5c-0.691,0-1.246,0.47-1.421,1.104
								c0.128-0.034,0.254-0.079,0.396-0.079c0.833,0,1.5,0.667,1.5,1.501c0,0.142-0.043,0.268-0.079,0.396
								C457.227,742.55,457.697,741.995,457.697,741.303z"/>
							<path fill="#897229" d="M594.972,743.655c0-0.834-0.666-1.5-1.5-1.5c-0.692,0-1.246,0.47-1.421,1.104
								c0.128-0.034,0.254-0.079,0.396-0.079c0.833,0,1.5,0.667,1.5,1.501c0,0.141-0.043,0.267-0.079,0.395
								C594.503,744.9,594.972,744.346,594.972,743.655z"/>
							<path fill="#897229" d="M431.759,720.195c-6.096,0-11.565,2.592-15.417,6.717c3.771-3.521,8.818-5.689,14.391-5.689
								c11.665,0,21.108,9.44,21.108,21.106c0,5.57-2.17,10.619-5.691,14.391c4.125-3.854,6.717-9.322,6.717-15.415
								C452.865,729.638,443.424,720.195,431.759,720.195z"/>
							<path fill="#897229" d="M448.423,757.577c-0.693,0-1.246,0.473-1.421,1.104c0.128-0.034,0.254-0.078,0.395-0.078
								c0.833,0,1.5,0.666,1.5,1.5c0,0.141-0.043,0.266-0.079,0.394c0.635-0.175,1.105-0.728,1.105-1.42
								C449.922,758.244,449.256,757.577,448.423,757.577z"/>
							<path fill="#C69720" d="M430.731,710.111c-8.627,0-16.462,3.408-22.249,8.941c-5.534,5.787-8.942,13.622-8.942,22.25
								c0,17.772,14.442,32.216,32.219,32.216c8.627,0,16.462-3.407,22.249-8.941c5.531-5.786,8.94-13.622,8.94-22.248
								C462.948,724.553,448.507,710.111,430.731,710.111z M430.731,771.601c-16.164,0-29.273-13.164-29.273-29.271
								c0-8.316,3.515-15.832,9.119-21.174c5.333-5.604,12.84-9.126,21.182-9.126c16.165,0,29.271,13.165,29.271,29.273
								c0,8.315-3.513,15.832-9.119,21.172C446.579,768.079,439.071,771.601,430.731,771.601z"/>
							<path fill="#C69720" d="M430.731,714.222c-7.488,0-14.285,2.962-19.327,7.753c-4.791,5.043-7.753,11.84-7.753,19.328
								c0,15.497,12.608,28.104,28.106,28.104c7.486,0,14.283-2.962,19.327-7.753c4.789-5.043,7.753-11.839,7.753-19.326
								C458.839,726.831,446.229,714.222,430.731,714.222z M449.532,723.138c0.833,0,1.5,0.667,1.5,1.501
								c0,0.691-0.47,1.246-1.104,1.421c-0.129,0.035-0.255,0.079-0.396,0.079c-0.833,0-1.5-0.667-1.5-1.5
								c0-0.143,0.043-0.27,0.079-0.396C448.286,723.608,448.841,723.138,449.532,723.138z M431.759,715.361
								c0.834,0,1.5,0.667,1.5,1.501c0,0.693-0.472,1.244-1.104,1.42c-0.128,0.036-0.254,0.078-0.395,0.078
								c-0.833,0-1.5-0.665-1.5-1.498c0-0.141,0.043-0.268,0.079-0.396C430.511,715.832,431.064,715.361,431.759,715.361z
								 M412.872,724.25c0.833,0,1.5,0.666,1.5,1.498c0,0.693-0.471,1.247-1.104,1.424c-0.128,0.033-0.254,0.078-0.396,0.078
								c-0.833,0-1.5-0.668-1.5-1.502c0-0.14,0.043-0.266,0.079-0.394C411.627,724.72,412.178,724.25,412.872,724.25z
								 M407.713,742.723c-0.13,0.035-0.256,0.079-0.396,0.079c-0.833,0-1.5-0.667-1.5-1.499c0-0.143,0.043-0.27,0.079-0.396
								c0.175-0.635,0.728-1.104,1.421-1.104c0.833,0,1.5,0.666,1.5,1.5C408.816,741.995,408.346,742.55,407.713,742.723z
								 M414.379,760.497c-0.13,0.035-0.256,0.079-0.396,0.079c-0.833,0-1.5-0.666-1.5-1.499c0-0.14,0.043-0.267,0.079-0.396
								c0.175-0.634,0.728-1.104,1.421-1.104c0.833,0,1.5,0.667,1.5,1.5C415.482,759.77,415.011,760.322,414.379,760.497z
								 M432.152,767.164c-0.129,0.034-0.254,0.079-0.395,0.079c-0.833,0-1.5-0.667-1.5-1.501c0-0.14,0.043-0.266,0.079-0.394
								c0.174-0.635,0.727-1.105,1.42-1.105c0.834,0,1.5,0.667,1.5,1.499C433.258,766.436,432.786,766.989,432.152,767.164z
								 M448.815,760.497c-0.128,0.035-0.254,0.079-0.395,0.079c-0.833,0-1.5-0.666-1.5-1.499c0-0.14,0.043-0.267,0.077-0.396
								c0.177-0.634,0.729-1.104,1.423-1.104c0.833,0,1.5,0.667,1.5,1.5C449.922,759.77,449.45,760.322,448.815,760.497z
								 M446.148,756.719c-3.852,4.126-9.323,6.718-15.417,6.718c-11.665,0-21.108-9.442-21.108-21.106
								c0-6.095,2.594-11.563,6.719-15.417c3.852-4.125,9.321-6.717,15.417-6.717c11.665,0,21.106,9.442,21.106,21.107
								C452.865,747.396,450.272,752.866,446.148,756.719z M456.594,742.723c-0.128,0.035-0.255,0.079-0.396,0.079
								c-0.833,0-1.5-0.667-1.5-1.499c0-0.143,0.043-0.27,0.079-0.396c0.175-0.635,0.729-1.104,1.421-1.104
								c0.833,0,1.5,0.666,1.5,1.5C457.697,741.995,457.227,742.55,456.594,742.723z"/>
							<path fill="#88BAB9" d="M571.102,762.592c-12.164,0-22.025-9.861-22.025-22.027c0-3.991,1.078-7.725,2.937-10.952
								c-3.516,3.901-5.67,9.05-5.67,14.714c0,12.167,9.859,22.027,22.023,22.027c8.173,0,15.29-4.461,19.093-11.071
								C583.427,759.76,577.602,762.592,571.102,762.592z"/>
							<path fill="#B0EAEA" d="M571.102,762.592c6.5,0,12.324-2.832,16.354-7.312c1.857-3.229,2.937-6.963,2.937-10.956
								c0-12.163-9.861-22.021-22.027-22.021c-6.5,0-12.322,2.832-16.354,7.31c-1.856,3.229-2.937,6.961-2.937,10.952
								C549.077,752.729,558.938,762.592,571.102,762.592z"/>
							<path fill="none" d="M584.677,760.956c-0.143,0-0.269,0.044-0.396,0.078c-0.035,0.129-0.079,0.256-0.079,0.396
								c0,0.833,0.667,1.499,1.5,1.499c0.142,0,0.269-0.044,0.396-0.079c0.036-0.128,0.079-0.253,0.079-0.394
								C586.177,761.622,585.51,760.956,584.677,760.956z"/>
							<path fill="none" d="M586.813,728.491c0.14,0,0.267-0.044,0.396-0.079c0.033-0.13,0.077-0.255,0.077-0.396
								c0-0.833-0.667-1.5-1.5-1.5c-0.14,0-0.266,0.044-0.395,0.079c-0.035,0.128-0.079,0.255-0.079,0.396
								C585.313,727.824,585.98,728.491,586.813,728.491z"/>
							<path fill="none" d="M568.012,767.622c-0.142,0-0.269,0.044-0.396,0.079c-0.036,0.128-0.079,0.254-0.079,0.396
								c0,0.834,0.666,1.501,1.5,1.501c0.143,0,0.268-0.045,0.396-0.079c0.035-0.129,0.079-0.255,0.079-0.396
								C569.512,768.289,568.846,767.622,568.012,767.622z"/>
							<path fill="none" d="M568.012,723.573c-5.571,0-10.62,2.17-14.393,5.691c-3.521,3.771-5.689,8.819-5.689,14.391
								c0,11.664,9.442,21.106,21.106,21.106c5.571,0,10.62-2.17,14.393-5.691c3.521-3.77,5.689-8.816,5.689-14.389
								C589.12,733.016,579.677,723.573,568.012,723.573z"/>
							<path fill="none" d="M543.572,743.181c-0.14,0-0.267,0.045-0.395,0.079c-0.036,0.128-0.079,0.255-0.079,0.396
								c0,0.832,0.667,1.499,1.5,1.499c0.14,0,0.266-0.044,0.395-0.079c0.036-0.128,0.079-0.254,0.079-0.394
								C545.071,743.848,544.406,743.181,543.572,743.181z"/>
							<path fill="none" d="M550.238,760.956c-0.141,0-0.267,0.044-0.396,0.078c-0.036,0.129-0.079,0.256-0.079,0.396
								c0,0.833,0.667,1.499,1.5,1.499c0.14,0,0.267-0.044,0.395-0.079c0.036-0.128,0.079-0.253,0.079-0.394
								C551.737,761.622,551.07,760.956,550.238,760.956z"/>
							<path fill="none" d="M540.051,747.509c-0.095-0.932-0.145-1.872-0.145-2.825c0-8.011,3.386-15.23,8.779-20.354
								c5.125-5.394,12.344-8.776,20.353-8.776c0.954,0,1.896,0.049,2.826,0.143c-1.264-0.167-2.542-0.283-3.852-0.283
								c-7.817,0-14.902,3.1-20.154,8.102c-5.003,5.26-8.093,12.35-8.093,20.146C539.765,744.965,539.883,746.243,540.051,747.509z"
								/>
							<path fill="none" d="M569.038,720.715c0.143,0,0.269-0.042,0.396-0.078c0.035-0.129,0.079-0.254,0.079-0.396
								c0-0.834-0.666-1.5-1.5-1.5c-0.142,0-0.268,0.044-0.396,0.079c-0.036,0.128-0.079,0.255-0.079,0.396
								C567.539,720.05,568.205,720.715,569.038,720.715z"/>
							<path fill="none" d="M597.004,740.828c0.092,0.932,0.143,1.873,0.143,2.827c0,8.009-3.385,15.229-8.779,20.354
								c-5.125,5.394-12.344,8.777-20.353,8.777c-0.954,0-1.896-0.05-2.826-0.144c1.264,0.167,2.543,0.283,3.852,0.283
								c7.818,0,14.903-3.1,20.154-8.102c5.003-5.258,8.093-12.348,8.093-20.146C597.285,743.373,597.171,742.094,597.004,740.828z"
								/>
							<path fill="none" d="M550.153,729.602c0.142,0,0.269-0.044,0.396-0.079c0.036-0.128,0.079-0.255,0.079-0.396
								c0-0.832-0.667-1.499-1.5-1.499c-0.143,0-0.269,0.043-0.396,0.077c-0.036,0.13-0.079,0.256-0.079,0.396
								C548.652,728.935,549.319,729.602,550.153,729.602z"/>
							<path fill="#897229" d="M598.311,743.655c0-16.106-13.108-29.271-29.272-29.271c-8.339,0-15.847,3.521-21.18,9.126
								c5.251-5.002,12.336-8.102,20.154-8.102c1.309,0,2.588,0.116,3.852,0.283c13.246,1.329,23.811,11.894,25.14,25.137
								c0.167,1.268,0.281,2.545,0.281,3.854c0,7.798-3.09,14.888-8.093,20.146C594.8,759.487,598.311,751.973,598.311,743.655z"/>
							<path fill="#897229" d="M536.821,743.655c0-8.628,3.409-16.463,8.942-22.25c-6.138,5.869-9.968,14.128-9.968,23.276
								c0,17.772,14.44,32.216,32.217,32.216c9.146,0,17.406-3.831,23.273-9.968c-5.786,5.534-13.622,8.939-22.249,8.939
								C551.264,775.871,536.821,761.43,536.821,743.655z"/>
							<path fill="#897229" d="M569.038,766.596c-0.691,0-1.244,0.471-1.42,1.104c0.128-0.034,0.254-0.079,0.396-0.079
								c0.833,0,1.5,0.667,1.5,1.499c0,0.143-0.043,0.269-0.079,0.396c0.634-0.175,1.104-0.729,1.104-1.422
								C570.538,767.263,569.872,766.596,569.038,766.596z"/>
							<path fill="#897229" d="M551.264,759.93c-0.693,0-1.247,0.471-1.421,1.104c0.129-0.034,0.255-0.078,0.396-0.078
								c0.833,0,1.5,0.666,1.5,1.5c0,0.143-0.043,0.268-0.079,0.396c0.634-0.175,1.105-0.729,1.105-1.42
								C552.763,760.597,552.097,759.93,551.264,759.93z"/>
							<path fill="#897229" d="M550.626,729.129c0,0.141-0.043,0.268-0.077,0.396c0.634-0.175,1.104-0.729,1.104-1.422
								c0-0.832-0.667-1.499-1.5-1.499c-0.692,0-1.247,0.471-1.421,1.104c0.129-0.034,0.254-0.077,0.396-0.077
								C549.961,727.63,550.626,728.297,550.626,729.129z"/>
							<path fill="#897229" d="M544.598,742.155c-0.693,0-1.246,0.47-1.421,1.104c0.128-0.034,0.254-0.079,0.395-0.079
								c0.834,0,1.5,0.667,1.5,1.501c0,0.14-0.043,0.266-0.079,0.394c0.637-0.175,1.105-0.728,1.105-1.42
								C546.098,742.821,545.432,742.155,544.598,742.155z"/>
							<path fill="#897229" d="M569.512,720.24c0,0.143-0.043,0.268-0.079,0.396c0.634-0.178,1.104-0.729,1.104-1.42
								c0-0.834-0.666-1.501-1.5-1.501c-0.69,0-1.244,0.471-1.42,1.104c0.13-0.035,0.255-0.079,0.396-0.079
								C568.846,718.74,569.512,719.406,569.512,720.24z"/>
							<path fill="#897229" d="M540.932,743.655c0-7.486,2.962-14.285,7.753-19.328c-5.394,5.124-8.779,12.346-8.779,20.354
								c0,0.953,0.05,1.896,0.145,2.825c1.729,13.037,12.063,23.405,25.137,25.137c0.93,0.094,1.872,0.144,2.826,0.144
								c8.009,0,15.229-3.386,20.353-8.777c-5.042,4.791-11.839,7.753-19.327,7.753
								C553.542,771.761,540.932,759.152,540.932,743.655z"/>
							<path fill="#897229" d="M587.287,728.017c0,0.141-0.043,0.266-0.079,0.396c0.636-0.175,1.104-0.728,1.104-1.421
								c0-0.834-0.667-1.501-1.5-1.501c-0.693,0-1.246,0.473-1.421,1.105c0.129-0.035,0.254-0.079,0.395-0.079
								C586.621,726.517,587.287,727.184,587.287,728.017z"/>
							<path fill="#897229" d="M569.038,722.55c-6.094,0-11.563,2.592-15.417,6.717c3.771-3.521,8.82-5.691,14.393-5.691
								c11.665,0,21.106,9.442,21.106,21.108c0,5.568-2.17,10.619-5.689,14.389c4.125-3.852,6.717-9.322,6.717-15.415
								C590.146,731.99,580.703,722.55,569.038,722.55z"/>
							<path fill="#897229" d="M585.702,759.93c-0.691,0-1.246,0.471-1.421,1.104c0.128-0.034,0.254-0.078,0.396-0.078
								c0.833,0,1.5,0.666,1.5,1.5c0,0.143-0.043,0.268-0.079,0.396c0.635-0.175,1.104-0.729,1.104-1.42
								C587.202,760.597,586.535,759.93,585.702,759.93z"/>
							<path fill="#C69720" d="M568.012,712.466c-8.627,0-16.462,3.406-22.249,8.939c-5.534,5.787-8.942,13.622-8.942,22.25
								c0,17.774,14.442,32.216,32.217,32.216c8.627,0,16.462-3.405,22.249-8.939c5.533-5.787,8.941-13.622,8.941-22.248
								C600.229,726.905,585.787,712.466,568.012,712.466z M568.012,773.953c-16.164,0-29.273-13.164-29.273-29.271
								c0-8.318,3.515-15.832,9.119-21.174c5.333-5.604,12.84-9.126,21.18-9.126c16.165,0,29.272,13.165,29.272,29.271
								c0,8.317-3.512,15.832-9.118,21.172C583.86,770.432,576.352,773.953,568.012,773.953z"/>
							<path fill="#C69720" d="M568.012,716.574c-7.488,0-14.285,2.962-19.327,7.753c-4.791,5.043-7.753,11.841-7.753,19.328
								c0,15.497,12.606,28.105,28.104,28.105c7.488,0,14.285-2.962,19.327-7.753c4.791-5.043,7.753-11.841,7.753-19.326
								C596.118,729.184,583.51,716.574,568.012,716.574z M586.813,725.49c0.833,0,1.5,0.667,1.5,1.501
								c0,0.693-0.47,1.246-1.104,1.421c-0.131,0.035-0.257,0.079-0.396,0.079c-0.833,0-1.5-0.667-1.5-1.5
								c0-0.141,0.043-0.268,0.079-0.396C585.567,725.963,586.12,725.49,586.813,725.49z M569.038,717.716
								c0.834,0,1.5,0.667,1.5,1.501c0,0.691-0.47,1.242-1.104,1.42c-0.128,0.036-0.254,0.078-0.396,0.078
								c-0.833,0-1.5-0.665-1.5-1.498c0-0.143,0.045-0.27,0.079-0.396C567.792,718.185,568.346,717.716,569.038,717.716z
								 M550.153,726.602c0.833,0,1.5,0.667,1.5,1.499c0,0.693-0.471,1.247-1.104,1.422c-0.128,0.035-0.254,0.079-0.396,0.079
								c-0.833,0-1.5-0.667-1.5-1.501c0-0.14,0.043-0.266,0.079-0.396C548.906,727.072,549.461,726.602,550.153,726.602z
								 M544.993,745.075c-0.128,0.035-0.254,0.079-0.395,0.079c-0.833,0-1.5-0.667-1.5-1.499c0-0.141,0.043-0.268,0.079-0.396
								c0.175-0.637,0.728-1.104,1.421-1.104c0.833,0,1.5,0.666,1.5,1.5C546.098,744.348,545.629,744.9,544.993,745.075z
								 M551.658,762.85c-0.128,0.035-0.254,0.079-0.395,0.079c-0.833,0-1.5-0.666-1.5-1.499c0-0.142,0.043-0.269,0.079-0.396
								c0.175-0.634,0.728-1.104,1.421-1.104c0.833,0,1.5,0.667,1.5,1.5C552.763,762.122,552.292,762.677,551.658,762.85z
								 M569.433,769.517c-0.129,0.034-0.254,0.079-0.396,0.079c-0.833,0-1.5-0.667-1.5-1.501c0-0.142,0.043-0.268,0.079-0.396
								c0.174-0.635,0.729-1.104,1.42-1.104c0.834,0,1.5,0.667,1.5,1.499C570.538,768.788,570.067,769.344,569.433,769.517z
								 M586.097,762.85c-0.128,0.035-0.254,0.079-0.396,0.079c-0.833,0-1.5-0.666-1.5-1.499c0-0.142,0.043-0.269,0.079-0.396
								c0.175-0.634,0.729-1.104,1.421-1.104c0.833,0,1.5,0.667,1.5,1.5C587.202,762.122,586.731,762.677,586.097,762.85z
								 M583.429,759.07c-3.854,4.126-9.323,6.718-15.417,6.718c-11.665,0-21.108-9.44-21.108-21.104
								c0-6.095,2.592-11.565,6.717-15.417c3.854-4.125,9.323-6.717,15.417-6.717c11.665,0,21.108,9.44,21.108,21.105
								C590.146,749.748,587.554,755.219,583.429,759.07z M593.874,745.075c-0.128,0.035-0.255,0.079-0.395,0.079
								c-0.833,0-1.5-0.667-1.5-1.499c0-0.141,0.043-0.268,0.079-0.396c0.175-0.637,0.728-1.104,1.421-1.104
								c0.833,0,1.5,0.666,1.5,1.5C594.978,744.348,594.51,744.9,593.874,745.075z"/>
						</g>
						<path fill="#755421" d="M686.229,619.829c0.979,0.078,1.917-0.337,2.688-0.907c0.645-0.479,1.194-1.021,1.631-1.696
							c0.563-0.877,0.992-1.86,1.319-2.851c0.46-1.387,0.638-2.831,0.754-4.282c0.019-0.196,0.037-0.396,0.049-0.591
							c0.338-6.983-1.901-14.771-6.228-20.315c-0.896-1.149-2.015-2.251-3.47-2.632c-3.784-0.99-6.305-1.555-6.29,2.162
							c0.005,1.143,2.395,2.721,3.098,3.441c2.717,2.79,3.274,6.813,4.092,10.45c0.763,3.384,1.41,6.922,1.562,10.396
							c0.022,0.579,0.206,2.389-0.489,2.771c-0.515,0.282-1.056,0.567-1.409,1.057c-0.515,0.713-0.026,1.564,0.56,2.063
							c0.318,0.271,0.69,0.479,1.072,0.655C685.52,619.713,685.876,619.802,686.229,619.829z"/>
						<g>
							<g>
								<path id="XMLID_2_" fill="#C18B3D" d="M690.66,617.222c0.563-0.877,0.994-1.86,1.321-2.851
									c0.46-1.387,0.636-2.833,0.754-4.282c0.019-0.196,0.037-0.396,0.047-0.592c0.338-6.982-1.899-14.77-6.226-20.314
									c-0.896-1.149-2.017-2.251-3.47-2.632c-3.05-0.798-5.273-1.313-6.02,0.455c0.396,0.488,1.13,0.854,1.563,1.098
									c2.682,1.507,4.115,3.672,5.014,6.563c0.289,0.935,0.521,1.884,0.744,2.836c0.253,1.08,0.433,2.174,0.664,3.258
									c0.784,3.67,1.454,7.507,1.606,11.271c0.024,0.631,0.212,2.591-0.505,3.006c-0.53,0.308-1.089,0.615-1.453,1.146
									c-0.529,0.771-0.027,1.696,0.575,2.237c0.33,0.295,0.714,0.52,1.106,0.71c0.366,0.178,0.733,0.274,1.099,0.306
									c0.25,0.021,0.497,0.009,0.74-0.03c0.282-0.142,0.557-0.301,0.808-0.485C689.676,618.44,690.226,617.898,690.66,617.222z"/>
							</g>
							<g>
								<g>
									<defs>
										<path id="SVGID_11_" d="M690.66,617.222c0.563-0.877,0.994-1.86,1.321-2.851c0.46-1.387,0.636-2.833,0.754-4.282
											c0.019-0.196,0.037-0.396,0.047-0.592c0.338-6.982-1.899-14.77-6.226-20.314c-0.896-1.149-2.017-2.251-3.47-2.632
											c-3.05-0.798-5.273-1.313-6.02,0.455c0.396,0.488,1.13,0.854,1.563,1.098c2.682,1.507,4.115,3.672,5.014,6.563
											c0.289,0.935,0.521,1.884,0.744,2.836c0.253,1.08,0.433,2.174,0.664,3.258c0.784,3.67,1.454,7.507,1.606,11.271
											c0.024,0.631,0.212,2.591-0.505,3.006c-0.53,0.308-1.089,0.615-1.453,1.146c-0.529,0.771-0.027,1.696,0.575,2.237
											c0.33,0.295,0.714,0.52,1.106,0.71c0.366,0.178,0.733,0.274,1.099,0.306c0.25,0.021,0.497,0.009,0.74-0.03
											c0.282-0.142,0.557-0.301,0.808-0.485C689.676,618.44,690.226,617.898,690.66,617.222z"/>
									</defs>
									<clipPath id="SVGID_12_">
										<use xlink:href="#SVGID_11_"  overflow="visible"/>
									</clipPath>
									<path clip-path="url(#SVGID_12_)" fill="#755421" d="M682.792,615.291c0,0,3.859,3.954,10.023,2.959
										c3.47-0.562-0.511,0.566-0.511,0.566l-9.52-3.742L682.792,615.291z"/>
								</g>
							</g>
							<g>
								<g>
									<defs>
										<path id="SVGID_13_" d="M690.66,617.222c0.563-0.877,0.994-1.86,1.321-2.851c0.46-1.387,0.636-2.833,0.754-4.282
											c0.019-0.196,0.037-0.396,0.047-0.592c0.338-6.982-1.899-14.77-6.226-20.314c-0.896-1.149-2.017-2.251-3.47-2.632
											c-3.05-0.798-5.273-1.313-6.02,0.455c0.396,0.488,1.13,0.854,1.563,1.098c2.682,1.507,4.115,3.672,5.014,6.563
											c0.289,0.935,0.521,1.884,0.744,2.836c0.253,1.08,0.433,2.174,0.664,3.258c0.784,3.67,1.454,7.507,1.606,11.271
											c0.024,0.631,0.212,2.591-0.505,3.006c-0.53,0.308-1.089,0.615-1.453,1.146c-0.529,0.771-0.027,1.696,0.575,2.237
											c0.33,0.295,0.714,0.52,1.106,0.71c0.366,0.178,0.733,0.274,1.099,0.306c0.25,0.021,0.497,0.009,0.74-0.03
											c0.282-0.142,0.557-0.301,0.808-0.485C689.676,618.44,690.226,617.898,690.66,617.222z"/>
									</defs>
									<clipPath id="SVGID_14_">
										<use xlink:href="#SVGID_13_"  overflow="visible"/>
									</clipPath>
									<path clip-path="url(#SVGID_14_)" fill="#755421" d="M684.148,610.386c0,0,8.628,2.744,10.915-1.521
										c1.662-3.098-0.684,1.018-0.684,1.018l-10.227,0.188L684.148,610.386z"/>
								</g>
							</g>
							<g>
								<g>
									<defs>
										<path id="SVGID_15_" d="M690.66,617.222c0.563-0.877,0.994-1.86,1.321-2.851c0.46-1.387,0.636-2.833,0.754-4.282
											c0.019-0.196,0.037-0.396,0.047-0.592c0.338-6.982-1.899-14.77-6.226-20.314c-0.896-1.149-2.017-2.251-3.47-2.632
											c-3.05-0.798-5.273-1.313-6.02,0.455c0.396,0.488,1.13,0.854,1.563,1.098c2.682,1.507,4.115,3.672,5.014,6.563
											c0.289,0.935,0.521,1.884,0.744,2.836c0.253,1.08,0.433,2.174,0.664,3.258c0.784,3.67,1.454,7.507,1.606,11.271
											c0.024,0.631,0.212,2.591-0.505,3.006c-0.53,0.308-1.089,0.615-1.453,1.146c-0.529,0.771-0.027,1.696,0.575,2.237
											c0.33,0.295,0.714,0.52,1.106,0.71c0.366,0.178,0.733,0.274,1.099,0.306c0.25,0.021,0.497,0.009,0.74-0.03
											c0.282-0.142,0.557-0.301,0.808-0.485C689.676,618.44,690.226,617.898,690.66,617.222z"/>
									</defs>
									<clipPath id="SVGID_16_">
										<use xlink:href="#SVGID_15_"  overflow="visible"/>
									</clipPath>
									<path clip-path="url(#SVGID_16_)" fill="#755421" d="M680.574,593.931c0,0,6.324,1.24,10.021-3.386
										c2.192-2.746-0.19,0.563-0.19,0.563L680.574,593.931L680.574,593.931z"/>
								</g>
							</g>
							<g>
								<g>
									<defs>
										<path id="SVGID_17_" d="M690.66,617.222c0.563-0.877,0.994-1.86,1.321-2.851c0.46-1.387,0.636-2.833,0.754-4.282
											c0.019-0.196,0.037-0.396,0.047-0.592c0.338-6.982-1.899-14.77-6.226-20.314c-0.896-1.149-2.017-2.251-3.47-2.632
											c-3.05-0.798-5.273-1.313-6.02,0.455c0.396,0.488,1.13,0.854,1.563,1.098c2.682,1.507,4.115,3.672,5.014,6.563
											c0.289,0.935,0.521,1.884,0.744,2.836c0.253,1.08,0.433,2.174,0.664,3.258c0.784,3.67,1.454,7.507,1.606,11.271
											c0.024,0.631,0.212,2.591-0.505,3.006c-0.53,0.308-1.089,0.615-1.453,1.146c-0.529,0.771-0.027,1.696,0.575,2.237
											c0.33,0.295,0.714,0.52,1.106,0.71c0.366,0.178,0.733,0.274,1.099,0.306c0.25,0.021,0.497,0.009,0.74-0.03
											c0.282-0.142,0.557-0.301,0.808-0.485C689.676,618.44,690.226,617.898,690.66,617.222z"/>
									</defs>
									<clipPath id="SVGID_18_">
										<use xlink:href="#SVGID_17_"  overflow="visible"/>
									</clipPath>
									<path clip-path="url(#SVGID_18_)" fill="#755421" d="M683.64,603.053c0,0,8.249,1.456,10.59-1.168
										c2.341-2.622-0.356,0.034-0.356,0.034l-10.223,0.282L683.64,603.053z"/>
								</g>
							</g>
							<g>
								<g>
									<defs>
										<path id="SVGID_19_" d="M690.66,617.222c0.563-0.877,0.994-1.86,1.321-2.851c0.46-1.387,0.636-2.833,0.754-4.282
											c0.019-0.196,0.037-0.396,0.047-0.592c0.338-6.982-1.899-14.77-6.226-20.314c-0.896-1.149-2.017-2.251-3.47-2.632
											c-3.05-0.798-5.273-1.313-6.02,0.455c0.396,0.488,1.13,0.854,1.563,1.098c2.682,1.507,4.115,3.672,5.014,6.563
											c0.289,0.935,0.521,1.884,0.744,2.836c0.253,1.08,0.433,2.174,0.664,3.258c0.784,3.67,1.454,7.507,1.606,11.271
											c0.024,0.631,0.212,2.591-0.505,3.006c-0.53,0.308-1.089,0.615-1.453,1.146c-0.529,0.771-0.027,1.696,0.575,2.237
											c0.33,0.295,0.714,0.52,1.106,0.71c0.366,0.178,0.733,0.274,1.099,0.306c0.25,0.021,0.497,0.009,0.74-0.03
											c0.282-0.142,0.557-0.301,0.808-0.485C689.676,618.44,690.226,617.898,690.66,617.222z"/>
									</defs>
									<clipPath id="SVGID_20_">
										<use xlink:href="#SVGID_19_"  overflow="visible"/>
									</clipPath>
									<path clip-path="url(#SVGID_20_)" fill="#755421" d="M677.604,589.831c0,0,5.895,0.359,6.895-5.882
										c0.559-3.472-0.272,1.148-0.272,1.148l-6.536,4.546L677.604,589.831z"/>
								</g>
							</g>
						</g>
						<path fill="#91692D" d="M686.515,610.018c-0.193-2.248-0.527-4.504-0.95-6.723c1.886,0.188,4.759,0.313,6.807-0.34
							c-0.056-0.334-0.118-0.668-0.186-1.001l-6.854,0.19c-0.095-0.463-0.184-0.931-0.279-1.389
							c-0.231-1.084-0.411-2.18-0.664-3.259c-0.225-0.951-0.455-1.9-0.744-2.837c-0.066-0.215-0.145-0.419-0.216-0.626
							c1.54-0.107,3.472-0.532,5.213-1.72c-0.118-0.207-0.241-0.41-0.364-0.612l-5.177,1.486c-0.642-1.52-1.498-2.808-2.718-3.865
							c1.105-0.421,2.308-1.196,3.15-2.634c-0.148-0.058-0.302-0.109-0.46-0.15c-0.239-0.063-0.466-0.119-0.694-0.18l-3.094,2.15
							c0.001,0,0.001,0.001,0.002,0.002c-0.214-0.141-0.426-0.283-0.656-0.414c-0.434-0.242-1.166-0.606-1.563-1.098
							c0.362-0.862,1.082-1.178,2.073-1.186c-1.554-0.023-2.47,0.654-2.461,2.895c0.005,1.143,2.395,2.721,3.098,3.441
							c2.717,2.79,3.274,6.813,4.092,10.45c0.763,3.384,1.41,6.922,1.562,10.396c0.022,0.581,0.206,2.389-0.489,2.771
							c-0.515,0.282-1.056,0.567-1.409,1.058c-0.515,0.713-0.027,1.563,0.56,2.063c0.318,0.271,0.69,0.479,1.071,0.655
							c0.356,0.164,0.714,0.255,1.065,0.282c0.656,0.053,1.29-0.131,1.872-0.42c-0.203,0.024-0.408,0.043-0.617,0.024
							c-0.363-0.029-0.73-0.128-1.099-0.306c-0.395-0.19-0.776-0.415-1.106-0.71c-0.499-0.446-0.918-1.152-0.755-1.819
							c1.188,0.729,2.938,1.527,5.15,1.743c0.139-0.13,0.271-0.269,0.396-0.408l-5.141-2.021c0.349-0.368,0.793-0.627,1.225-0.876
							c0.717-0.414,0.529-2.375,0.505-3.007c-0.015-0.357-0.055-0.722-0.079-1.082c1.78,0.315,4.188,0.513,6.074-0.161
							c0.023-0.234,0.048-0.472,0.067-0.707c0.005-0.061,0.009-0.117,0.014-0.179L686.515,610.018z"/>
					</g>
				</g>
			</g>
		</g>
		<g id="Layer_2_1_">
		</g>
	</g>
</g>
</svg>
