<?xml version="1.0" encoding="utf-8"?>
<!-- Generator: Adobe Illustrator 19.2.1, SVG Export Plug-In . SVG Version: 6.00 Build 0)  -->
<svg version="1.1" id="Layer_1" xmlns="http://www.w3.org/2000/svg" xmlns:xlink="http://www.w3.org/1999/xlink" x="0px" y="0px"
	 viewBox="0 0 896.8 794" style="enable-background:new 0 0 896.8 794;" xml:space="preserve">
<style type="text/css">
	.st0{fill:#554E3C;}
	.st1{fill:#861719;}
	.st2{fill:#2C1010;}
	.st3{clip-path:url(#SVGID_2_);fill:#333333;}
	.st4{fill:#764E1F;}
	.st5{display:none;fill:#FFFFFF;}
	.st6{fill:#593A17;}
	.st7{fill:#2B1E10;}
	.st8{display:none;fill:#452B12;}
	.st9{display:none;fill:#5F3613;}
	.st10{fill:#452B12;}
	.st11{fill:#4E2D15;}
	.st12{fill:#372313;}
	.st13{fill:#432613;}
	.st14{fill:#432812;}
	.st15{fill:#6B5924;}
	.st16{fill:#503111;}
	.st17{fill:#372712;}
	.st18{fill:#5F3613;}
	.st19{fill:#949292;}
	.st20{clip-path:url(#SVGID_4_);fill:#443718;}
	.st21{clip-path:url(#SVGID_6_);fill:#443718;}
	.st22{fill:#DCCB99;}
	.st23{display:none;opacity:0.8;clip-path:url(#SVGID_8_);enable-background:new    ;}
	.st24{display:inline;}
	.st25{clip-path:url(#SVGID_10_);fill:#878787;}
	.st26{clip-path:url(#SVGID_8_);fill:#A89876;}
	.st27{clip-path:url(#SVGID_8_);fill:#3F3A2C;}
	.st28{fill:#A89876;}
	.st29{fill:#AE9431;}
	.st30{display:none;opacity:0.5;fill:#919190;enable-background:new    ;}
	.st31{fill:#241D11;}
	.st32{fill:#636161;}
	.st33{display:none;}
	.st34{display:inline;fill:#FEDA46;}
	.st35{fill:#79A597;}
	.st36{fill:#A0D7C5;}
	.st37{fill:none;}
	.st38{fill:#A0822E;}
	.st39{fill:#755421;}
	.st40{fill:#98722B;}
	.st41{clip-path:url(#SVGID_12_);fill:#755421;}
	.st42{clip-path:url(#SVGID_14_);fill:#755421;}
	.st43{clip-path:url(#SVGID_16_);fill:#755421;}
	.st44{clip-path:url(#SVGID_18_);fill:#755421;}
	.st45{clip-path:url(#SVGID_20_);fill:#755421;}
	.st46{fill:#755522;}
</style>
<g id="Layer_3">
	<path class="st0" d="M227.5,223.4l29.4,443.3l-19-0.4l-16.9-443C221,223.3,222.6,217.4,227.5,223.4z"/>
	<g>
		<path class="st1" d="M518.7,25.4c-0.8,0.1-1.6,0-2-0.9c-0.4-0.9-0.3-2.1-0.1-3c0,0,0-0.2,0.1-0.2c0.4,0.1,0.7,0.3,1.1,0.4
			c0-0.1,0-0.2,0-0.2c-3.5-3.1-4.9-7.7-5.3-12.3c0,0.3-0.2,0.7-0.2,0.8c-0.3,0.4-0.6,1.3-1.1,1.5c-0.1,0-0.3,0.1-0.4,0.1
			c-0.1,0.1-0.2,0.2-0.4,0.3c-0.1,0-0.1-0.1-0.1-0.1c0-0.1,0-0.1,0-0.2c-0.4,0-0.9,0-1.2,0c-0.2,0,0.2-1,0.3-1.1
			c0.4-0.6,0.8-1.2,1.2-1.8c0,0,0,0,0,0c-0.2-0.6-0.2-1.2-0.3-1.9c0-0.1,0.3-1.2,0.5-1.1c0.2,0.1,0.3,0.1,0.5,0.2
			c-0.1-0.3-0.2-0.6-0.3-1c-0.3-0.1-0.5-0.3-0.6-0.6c-0.2-1.6-0.7-3-1.2-4.4c-25.3,14.2-65.9,12.1-65.9,12.1
			c-1.1-6.2-4.8-9.6-10.2-11c0,0,0,0.1,0,0.1c-0.1,0.2-0.4,0.3-0.5,0.3c0,0-0.1-0.1-0.1-0.3c-0.1,0-0.2,0.1-0.4,0.1
			c0.4,0.2,0.8,0.5,1.2,0.8c0.2,0.1,0.3,1.2,0.1,1.3c-0.6,0.2-1.2,0.3-1.8,0.3c0,0.1,0,0.2-0.1,0.1c-0.1,0-0.1-0.1-0.2-0.1
			c-2.8,0.2-5.6-0.7-8.3-1.1c0.1,0.2,0.2,0.5,0.3,0.7c0,0.1,0.2,1.2,0,1.1c-0.3-0.1-0.9-0.1-1.4-0.3c-0.3,0.3-0.9,0.3-1.8-0.1
			c-0.2-0.1-0.3-1.2-0.1-1.3c0.1-0.1,0.2-0.1,0.3-0.2c-0.2,0-0.4,0-0.6,0.1c0,0.1,0,0.2-0.1,0.1c-0.1,0-0.1-0.1-0.2-0.1
			c-0.2,0-0.4,0-0.6,0.1c0,0.1,0,0.2-0.1,0.2c-0.6,0-1.3-0.1-1.9-0.2c-0.1,0-0.1-0.1-0.2-0.3l-7,0.5c-26.2,7-58,25.8-58,25.8
			s5.9,4.6,8.6,6.7c2.7,2.1,12.1,56.5,3.8,68.8c-11.9,17.4-12.9,23-12.9,23c12.7-7.7,23.7-14.1,33.4-19.4c1.2-1.1,2.4-2.1,3.8-2.8
			c0.8-0.4,1.5-0.8,2.3-1.1c1.6-1,3.2-1.8,4.8-2.8c2-1.2,4-2.4,6.1-3.4c2.4-3.4,5.6-6.1,8.7-8.9c0.1-0.1,0.2,0.2,0.2,0.3
			c0.1,0.2,0.1,0.5,0.1,0.7c1.4-2.2,3-4.3,3.3-7c0-0.2,0.1-0.2,0.2,0c0.6,2.4,0.4,4.5-1.2,6.1c-0.8,1-1.6,1.9-2.5,2.7
			c-0.4,1.8-1.6,3.3-3.1,4.7c63.3-29.2,28.8,18.4,28.8,18.4c9.1,1.4,26.3-1.5,43.3-5.3c0.9-1.5,2-2.7,3.3-3.8
			c0.2-0.1,0.3-0.1,0.5-0.1c0.1-0.1,0.2-0.2,0.2-0.3c-0.1-0.2-0.1-0.5,0.1-0.6c0.2-0.2,0.6-0.3,0.9-0.4c1.3-1.4,2.8-2.6,4.6-3.5
			c-0.3-1.1-0.4-2.2-0.5-3.3c-0.1-0.9-0.9-2.3-0.5-3.1c0.1-0.3,0.3-0.6,0.5-0.8c-0.1-0.2-0.2-0.5-0.2-0.7c-1-1.1-1.4-3.3-0.6-4.4
			c0-0.3,0-0.7,0-1c0-0.7,0.3,0,0.3,0.3c0.1,1,0.2,2,0.7,2.9c0,0,0,0.1,0,0.2c0.1,0,0.2,0.1,0.3,0.2c0.2,0.4,0.4,0.7,0.5,1.1
			c0.5-0.7,0.9-1.4,1.2-2.3c0.5-1.6,0.9-3.1,1.1-4.8c0-0.2,0.1-0.3,0.2-0.4c0-0.2,0-0.4,0.1-0.5c0.1-0.1,0.2-0.2,0.3-0.3
			c0-0.1,0.1-0.1,0.1-0.1c0,0,0-0.1,0-0.1c0-0.3,0.1-0.7,0.2-0.2c0.1,0.4,0.1,0.8,0,1.3c0.2,0.1,0.3,0.3,0.3,0.6
			c-0.2,1.3-0.4,2.6-0.6,4c0.2,0.1,0.3,0.3,0.3,0.6c0,0.1,0,0.2,0,0.2c0,0,0,0,0,0.1c0.7,2.7,0.6,4.4-0.3,6.7
			c-0.2,1.5-0.5,3-0.8,4.4c0,0.1,0.1,0.2,0.1,0.3c0,1,0,1.4-0.7,1.9c-0.1,0.4-0.3,0.7-0.5,1.1c0,0,0,0,0,0c0.2,0.1,0.3,0.4,0.2,0.6
			c-0.2,0.7-0.6,1.3-1.2,1.9c15.8-3.8,29.8-7.9,34.8-9.4c0-0.7,0.3-1.5,0.7-2.3c0-0.1,0-0.2-0.1-0.3c0,0,0,0-0.1,0
			c-0.5-0.3-0.7-0.8-0.8-1.4c0-0.3,0.1-0.6,0.3-0.9c0-0.1,0.2-0.4,0.3-0.1c0,0.2,0.1,0.4,0.2,0.6c0-0.1,0-0.2,0-0.3
			c-0.2-0.6-0.2-1.2-0.1-1.7c-0.1-0.5-0.4-1-0.7-1.4c-0.2-0.2,0.4-1.3,0.5-1.1c0.2,0.3,0.4,0.7,0.6,1.1c0.1-0.1,0.1-0.1,0.2-0.1
			c0,0.1,0.1,0.1,0.1,0.2c0-0.1,0.1-0.2,0.1-0.2c0-0.2,0.1-0.6,0.2-0.7c0,0,0.2-0.5,0.3-0.4c0,0.1,0.1,0.2,0.1,0.3c0,0,0,0,0-0.1
			C525.3,64.6,521.9,42,518.7,25.4 M502.9,20.4c-0.1,0.4-0.1,0.7-0.2,1.1c0,0,0-0.1,0-0.1c0,0.1-0.1,0.2-0.1,0.3
			c-0.3,1.4-0.6,2.9-1,4.3c-0.1,0.7-0.2,1.3-0.3,1.9c0,0.2,0.1,0.4,0.1,0.4c0.1,2.9-0.5,5.6-1.5,8.2c-0.1,0.5-0.3,0.9-0.5,1.3
			c-0.5,1.2-1,2.4-1.6,3.6c0,0.1-0.1,0-0.1-0.1c-0.2,0.4-0.5,0.9-0.8,1.4c-0.2,0.6-0.4,1.2-0.7,1.8c0,0,0,0-0.1-0.1
			c0,0.2-0.1,0.4-0.1,0.5c0,0.3-0.2,0.6-0.3,0.9c-0.1,0.2-0.2,0.2-0.2-0.1c0-0.1,0-0.1,0-0.2c-0.2,0.6-0.5,1.2-0.7,1.8
			c-0.1,0.3-0.3-0.9-0.2-1.1c0,0,0,0,0,0c-0.1-0.3-0.1-0.8-0.1-0.9c0.4-1.3,0.9-2.6,1.5-3.8c0.4-1.9,1-3.7,1.6-5.6
			c0.2-0.6,0.4-1.2,0.6-1.8c0.2-0.5,0.3-0.9,0.5-1.4c0.3-1.7,0.7-3.4,1.7-4.9c0,0,0,0,0.1,0l-0.1-0.9c0-0.1,0-0.2,0-0.2
			c-0.2,0.4-0.4,0.8-0.3,0.2c0.2-1,0.7-2,1.1-2.9c0-0.3,0-0.6,0-0.9c0-0.2,0-0.6,0.1-0.7c0-0.2,0-0.3,0-0.5c0-0.9,0.3-0.1,0.3,0.3
			c0,0.3,0,0.6,0,0.9c0.3-0.6,0.5-1.2,0.6-1.9C502.4,21,503,19.9,502.9,20.4"/>
		<path class="st2" d="M443.3,13.1c0,0,0.4,1.3,1.1,3.5c0.7,2.2,1.5,5.4,2.4,9.3c0.4,2,0.9,4.1,1.3,6.3c0.4,2.3,0.8,4.6,1.1,7.1
			c0.3,2.5,0.7,5,0.9,7.7c0.3,2.6,0.4,5.3,0.6,7.9c0.1,2.7,0.1,5.3,0.2,8c0,2.6-0.1,5.2-0.2,7.7c-0.2,2.5-0.4,4.9-0.6,7.2
			c-0.3,2.3-0.6,4.4-1,6.4c-0.4,2-0.8,3.8-1.2,5.3c-0.3,1.6-0.9,2.9-1.2,4c-0.7,2.2-1.2,3.4-1.2,3.4s0.2-1.3,0.5-3.6
			c0.1-0.6,0.2-1.2,0.3-1.9c0.1-0.3,0.1-0.7,0.2-1.1c0-0.4,0.1-0.8,0.1-1.2c0.1-1.6,0.3-3.4,0.5-5.4c0.1-2,0.2-4.1,0.3-6.3
			c0.1-2.2,0-4.6,0.1-7.1c0-2.5-0.1-5-0.1-7.6c-0.1-2.6-0.2-5.2-0.3-7.8c-0.2-2.6-0.2-5.2-0.5-7.8c-0.2-2.6-0.3-5.1-0.6-7.6
			c-0.2-2.5-0.4-4.8-0.6-7.1c-0.2-2.3-0.4-4.4-0.6-6.4C443.8,18.4,443.3,13.1,443.3,13.1"/>
		<path class="st1" d="M435.9,115.2c0,0,1.5-16.2-2.5-27.9C433.4,87.3,459.7,80.6,435.9,115.2"/>
		<g>
			<g>
				<g>
					<g>
						<defs>
							
								<rect id="SVGID_1_" x="434.2" y="86.4" transform="matrix(0.9921 -0.1258 0.1258 0.9921 -9.1365 56.2132)" width="12.7" height="28.1"/>
						</defs>
						<clipPath id="SVGID_2_">
							<use xlink:href="#SVGID_1_"  style="overflow:visible;"/>
						</clipPath>
						<path class="st3" d="M435.9,115.2c0,0,1.5-16.2-2.5-27.9C433.4,87.3,459.7,80.6,435.9,115.2"/>
					</g>
				</g>
			</g>
		</g>
	</g>
	<path class="st4" d="M896.6,401.1L671.4,516.8l-7-28l229.8-97.4C894.1,391.4,897.9,392.8,896.6,401.1z"/>
	<rect x="110.9" y="420.9" class="st5" width="52.7" height="1.3"/>
	<rect x="135.8" y="397.4" class="st5" width="1.3" height="52.8"/>
	<path class="st6" d="M723.9,463.6l-47.2,20l-13.2,8.7l6.3,25.2l60.6-31.1C715.7,479.6,723.9,463.6,723.9,463.6z"/>
</g>
<g id="Layer_7">
	<path class="st7" d="M120.8,649.1v-99.3c0,0-105.5,0-105.5,0c-1,0-2.9,3.5-3.3,4.1c-2.5,3.8-4.5,7.9-6.1,12
		c-2.6,6.5-4.4,13.3-5.2,20.2c-1.2,9.4-0.6,18.9,1.7,28.1c2.5,10.3,6.5,20.3,12,29.4c7.6,12.6,19.5,21.8,27.8,33.9
		c2.2,3.3,4.3,6.7,6,10.2c2.4,4.8,4.2,9.9,4.9,15.3c3.4,26.9,11.5,78.1,31.5,86.1h396.1l74-29.8l64.9-45.5l44.8-64.6l13.2-29.9
		l5.5-51.1v-50.1l3.4-25.8l-5.6-11.5l-25.8,8.2l-40.6,25.7l-45.5,27.7L558.5,559l-69.2,12l-47,10.3l-2.7,12.2l7.9,5.1l2.4,13.6
		l-2.4,14.9l-16.7,17.9l-24.3,4.2L120.8,649.1L120.8,649.1z"/>
	
		<rect x="-30.3" y="682.1" transform="matrix(1 -1.099999e-03 1.099999e-03 1 -0.7646 0.388)" class="st8" width="765.3" height="26.3"/>
	
		<rect x="-39.5" y="655" transform="matrix(1 -1.099999e-03 1.099999e-03 1 -0.7348 0.3779)" class="st9" width="765.3" height="26.3"/>
	<path class="st10" d="M79,785.5l412.2-0.5l63.7-25.6l5.9-4.2l-497.3,0.6C67.3,768.4,72.4,779.5,79,785.5z"/>
	<path class="st11" d="M619.6,714.7l5.1-7.3l-571,0.6c1,7.7,2.4,16.9,4.3,26.3l534.6-0.6L619.6,714.7z"/>
	<path class="st12" d="M641.6,681.8l-596.3,0.7c1,1.7,1.9,3.4,2.8,5.2c2.4,4.8,4.2,9.9,4.9,15.3c0.2,1.8,0.5,3.8,0.8,5.8l569.6-0.6
		L641.6,681.8z"/>
	<path class="st11" d="M660.5,654.7l-637.3,0.7c6.4,7.3,13.5,14.1,19,22.1c0.9,1.4,1.8,2.8,2.7,4.2l597.4-0.7L660.5,654.7z"/>
	<path class="st13" d="M677.1,598.4l-223,1.6c6.4,7.3-9.1,25.1-8.2,26.5l222-1.1L677.1,598.4z"/>
	<path class="st14" d="M115.2,550.1c-21.8,0-99.9,0-99.9,0c-1,0-2.9,3.5-3.3,4.1c-2.5,3.8-4.5,7.9-6.1,12
		c-2.6,6.5-4.4,13.3-5.2,20.2c-1.2,9.4-0.6,18.9,1.7,28.1c2.5,10.3,6.5,20.3,12,29.4c1.1,1.9,2.4,3.7,3.7,5.5h97.3L115.2,550.1
		L115.2,550.1z"/>
	<polyline class="st15" points="109.7,654.6 109.7,548.7 120.7,548.7 120.7,644.1 	"/>
	<polygon class="st10" points="454.1,600 681.6,598.7 681.6,570.5 445.3,576.8 	"/>
	<polygon class="st16" points="575.1,539.6 683.6,539.6 683.6,514.9 599.4,514.9 	"/>
</g>
<g id="Layer_11">
	<circle class="st17" cx="1185.4" cy="90.6" r="82.2"/>
	<circle class="st10" cx="1397.3" cy="94.1" r="82.2"/>
	<circle class="st18" cx="1188.1" cy="280" r="82.2"/>
	<g>
		<g>
			<path class="st19" d="M1482.5,287.8c-38.9,20.9-63,19.9-66.2,20c-38.6,0.4-62.2-15.7-62.2-15.7c-16.7-9.8-21.9-28.8-21.9-28.8
				c-6.3-18.1,3.8-32.5,3.8-32.5c-4.8-8.7-23.2-9.1-23.2-9.1c-16.5-1.6-32.9-6.2-32.9-6.2c-19.1-4.6-25.1-16.3-25.1-16.3
				c-8.8-11.5-6.9-16.1-6.9-16.1c0.1-11,8.8-6.6,8.8-6.6c-1.7-15-24.5-24.6-24.5-24.6c-1.1-1.2-16.2-6-16.2-6l-18.5-6.3l-62.6-19.6
				c-8,20-30.8,9-30.8,9c5.2,11.3,0.5,31.5,0.5,31.5c-5,72.6,21.8,116.3,21.8,116.3c37,85.4,118.1,115.9,118.1,115.9
				c26.6,15.1,87.7,7.1,87.7,7.1c8.9-0.1,18.2-1.4,27.7-3.4c2.6-0.7,5.3-1.3,7.9-1.8c12.1-3.1,24.3-7.2,35.6-11.6
				c0.9-0.4,1.9-0.8,2.9-1.1c32.6-13.1,58.3-28.6,58.3-28.6c11.7-6.4,25.5-15.9,38.2-25.3c2.4-3.1,6.1-5.5,9.5-7.4
				c2-1.5,4-3,6.1-4.4c14.3-11.2,23-20,23-20c-0.2-1.5-0.3-3.8-0.1-5.8c0.6-8.6,1.6-14.3,3.9-22.6c0.2-0.6,0.4-1.2,0.6-1.9
				c0.1-0.5,0.4-1,0.5-1.5c0.1-0.5,0.3-0.9,0.5-1.4c0.2-0.8,0.6-1.8,1-2.7c0.2-0.5,0.4-1.2,0.7-1.7c0.2-0.3,0.2-0.6,0.4-0.9
				c0.1-0.3,0.2-0.6,0.3-0.9c0.2-0.3,0.3-0.7,0.5-1.1c0.2-0.4,0.3-0.7,0.5-1.1c0.1-0.4,0.3-0.6,0.4-0.9c0.1-0.2,0.1-0.4,0.2-0.6
				c0.6-1.5,1-2.6,1-2.6L1482.5,287.8z"/>
		</g>
	</g>
	<circle class="st16" cx="1397.3" cy="280" r="82.2"/>
	<circle class="st17" cx="1410" cy="485.5" r="82.2"/>
</g>
<g id="Layer_9">
	<g>
		<g>
			<path id="XMLID_1_" d="M45.3,616.9h42.6c0,0,8.1-49.2-21.3-49.2C37.1,567.7,45.3,616.9,45.3,616.9z"/>
		</g>
		<g>
			<g>
				<defs>
					<path id="SVGID_3_" d="M45.3,616.9h42.6c0,0,8.1-49.2-21.3-49.2C37.1,567.7,45.3,616.9,45.3,616.9z"/>
				</defs>
				<clipPath id="SVGID_4_">
					<use xlink:href="#SVGID_3_"  style="overflow:visible;"/>
				</clipPath>
				<rect x="32.1" y="592.9" class="st20" width="71.4" height="1.8"/>
			</g>
		</g>
		<g>
			<g>
				<defs>
					<path id="SVGID_5_" d="M45.3,616.9h42.6c0,0,8.1-49.2-21.3-49.2C37.1,567.7,45.3,616.9,45.3,616.9z"/>
				</defs>
				<clipPath id="SVGID_6_">
					<use xlink:href="#SVGID_5_"  style="overflow:visible;"/>
				</clipPath>
				<rect x="65.7" y="561.1" class="st21" width="1.8" height="71.4"/>
			</g>
		</g>
	</g>
</g>
<g>
	<path class="st15" d="M120.8,558.2H9.4c0.2-0.5,5.3-9.4,7.4-10.8s104,0,104,0V558.2z"/>
	<path class="st22" d="M353.3,219.2c0,0,78.2,65.6,24.7,169.5c0,0-71-28-329.9,46.9c0,0,48.7-133.9-33.1-177.9
		C14.9,257.8,335,176.2,353.3,219.2"/>
	<path class="st0" d="M352.9,218.9c0,0-2.8-42.1-338.9,42.1c0,0-9.8,1.4-4.3-9.3c0,0,313-79.5,342-43.3
		C351.8,208.5,358.5,213.8,352.9,218.9"/>
	<path class="st22" d="M382,394.9c0,0,78.2,65.6,24.7,169.5c0,0-71-28-329.9,46.9c0,0,48.7-133.9-33.1-177.9
		C43.6,433.4,363.7,351.8,382,394.9"/>
	<path class="st0" d="M381.6,394.5c0,0-2.8-42.1-338.9,42.1c0,0-9.8,1.4-4.3-9.3c0,0,313-79.5,342-43.3
		C380.5,384.1,387.1,389.5,381.6,394.5"/>
	<path class="st0" d="M414.4,573.5c0,0-2.8-42.1-338.9,42.1c0,0-9.8,1.4-4.3-9.3c0,0,313-79.5,342-43.3
		C413.3,563.1,420,568.4,414.4,573.5"/>
	<g>
		<g>
			<g>
				<g id="Layer_4">
					<defs>
						<rect id="SVGID_7_" x="63" y="210" width="396.4" height="392.6"/>
					</defs>
					<clipPath id="SVGID_8_">
						<use xlink:href="#SVGID_7_"  style="overflow:visible;"/>
					</clipPath>
					<g class="st23">
						<g class="st24">
							<g>
								<defs>
									
										<rect id="SVGID_9_" x="75.7" y="222.9" transform="matrix(0.9974 -7.219929e-02 7.219929e-02 0.9974 -28.6542 19.9168)" width="370.9" height="366.7"/>
								</defs>
								<clipPath id="SVGID_10_">
									<use xlink:href="#SVGID_9_"  style="overflow:visible;"/>
								</clipPath>
								<path class="st25" d="M67.3,268.3c0,0,313-79.5,342-43.3c0,0,6.6,5.3,1.1,10.4c0,0-2-30.3-207.9,12
									c15.4,13.2,88.6,76.6,146.5,140.3c47.3-5.6,85.1-5.7,94.3,5.8c0,0,6.6,5.3,1.1,10.4c0,0-1.1-16.9-87.8-7.8
									c38.3,43.2,68.1,85.5,66.4,111.3c-1.9,29.6-11.8,48.4-15.1,53.9c0.8,1.3,1.1,3.1-1.2,5c0,0-1.7-28.3-269.1,32.9
									c0,0-7.8,1-3.3-6.2c0,0,2.5-0.6,7-1.6c30.9-65.1-12.9-129.7-26.6-147.6c-3,0.7-6,1.5-9.1,2.3c0,0-9.8,1.4-4.3-9.3
									c0,0,4.6-1.2,12.7-3.1c38.7-66.7-15.4-137.8-33.3-158.3c-3,0.7-6,1.5-9.1,2.3C71.6,277.5,61.8,278.9,67.3,268.3"/>
							</g>
						</g>
					</g>
					<path class="st26" d="M356.4,396.1c9.2-1,17.5-1.6,24.9-2.1c-0.6-1.4-3.3-5.5-16.5-8c-5.2,0.5-10.5,1.1-16,1.7
						c-1.1-1.2-2.2-2.4-3.3-3.6c-33.5-1.1-98.5,5.1-224.3,33.7c-2,5.3-4.4,10.5-7.5,15.8c-8.1,2-12.7,3.1-12.7,3.1
						c-5.6,10.6,4.3,9.3,4.3,9.3c3.1-0.8,6.1-1.5,9.1-2.3c13.7,17.7,56.7,81.3,27.5,145.8c89.1-19.9,234.4-48.4,266.8-30.1
						c4-7.2,12.3-25.1,14.1-52.1C424.5,481.6,394.7,439.3,356.4,396.1z"/>
					<path class="st27" d="M141.9,589.6c-0.3,0.6-0.5,1.2-0.8,1.8c-4.5,1-7,1.6-7,1.6c-4,6.3,1.5,6.3,2.9,6.2l0,0c0.2,0,0.3,0,0.3,0
						c267.4-61.2,269.1-32.9,269.1-32.9c2.3-1.8,2-3.6,1.2-5c0.3-0.5,0.6-1.1,1-1.8C376.3,541.2,231,569.7,141.9,589.6z"/>
					<path class="st26" d="M219.4,248.7c205.9-42.2,191-13.4,191-13.4c5.5-5.1-1.1-10.4-1.1-10.4c-29-36.2-342,43.3-342,43.3
						c-5.6,10.6,4.3,9.3,4.3,9.3c3.1-0.8,6.1-1.5,9.1-2.3c15.5,17.9,58.4,73.9,44,132C192,392.5,283,375,336.9,374.6
						C281.4,315.5,233.8,261,219.4,248.7z"/>
					<path class="st27" d="M345.7,384.1c-2.9-3.2-5.8-6.3-8.8-9.5c-54,0.4-144.9,17.8-212.3,32.6c-0.9,3.5-1.9,7-3.3,10.6
						C247.2,389.3,312.1,383,345.7,384.1z"/>
				</g>
				<g id="Layer_5">
					<path class="st0" d="M353.9,29.6l38.3,622.2h-19L347.4,29.6C347.4,29.6,348.8,21.1,353.9,29.6z"/>
					<path class="st22" d="M515.7,172.3c0,0,77.2,69.8,18.7,173.7c0,0-71.3-31.2-338,35.2c0,0,54.7-134.6-27-182.5
						C169.4,198.7,498.7,127.8,515.7,172.3"/>
					<path class="st0" d="M515.3,171.9c0,0-1.3-43-346.9,30c0,0-10.1,1-4-9.6c0,0,322-69.1,350.2-31.1
						C514.5,161.3,521.1,167,515.3,171.9"/>
					<path class="st22" d="M533.3,352.4c0,0,77.2,69.8,18.7,173.7c0,0-71.3-31.2-338,35.2c0,0,54.7-134.6-27-182.5
						C186.9,378.8,516.2,307.8,533.3,352.4"/>
					<path class="st28" d="M328,349.7c10.8-7.1,13.2-43.4,12.7-47.6c-0.4-5.4-2.1-10.4-5.2-15.6c-3.1-5-6.4-9.4-10.1-13.3
						s-7.4-6.7-11.1-8.9c-3.6-2.1-6.3-3.2-7.7-2.7c-1,0.2-1.1-0.8-0.3-3c0.9-2.2,2.2-4.9,4.1-8c2-3.1,4.4-6.5,7-10.2
						c2.9-3.8,5.6-7,8-9.9c2.7-3,5.1-5.1,7.6-6.6c2.5-1.7,4.2-1.7,5.6-0.7c3.8,2.9,7.5,5.7,11.5,8.3c4,2.6,7.5,5.7,10.7,9.4
						c6.5,8.6,10.3,17.5,11.9,26.7c1.4,9.3,3.1,70.4-7.8,74.7C354.2,346.7,317.2,356.8,328,349.7z"/>
					<path class="st28" d="M509.2,334.9c22.3,17.6-20.9,101.3-33.4,110.4c-3.7,2.7-7.8,5.3-12,7.3c-3.9,1.8-24.6,8.1-26.8,7.9
						c-1.4-0.1-6,0-7.1-0.9L409,442.1c-2.6,2-4.7,3.9-6.6,5.5c-1.8,1.6-15.2,8.7-20.8,10.7c-0.7,0.3-3.5-1.3-4.2-1.7
						c-1.5-0.7-2.9-1.4-4.3-2.2c-2.7-1.5-5.3-3.3-7.7-5.3c-9.9-7.9-17.6-18.2-24.1-29c-3.4-5.7-6.1-11.7-7.6-18.1
						c-1.4-6-2-12.3-1.8-18.4c0.2-6,1.3-11.9,1.9-17.8c0.4-3.4,0.5-6.9-0.1-10.3c-0.2-1.4-0.5-2.7-0.9-4.1c-0.2-0.8-0.7-3.8-1.4-4.2
						c-4.3-2.8,28.7-10.4,34.9-2.9c3.7,4.6,1.9,10.6-0.1,15.5c-2.2,5.4-4.1,11.1-4.6,16.9c-0.5,6,0.4,12,1.9,17.9
						c0.6,2.6,1.4,5.3,2.3,7.8c3.2,9.5,10.1,18.3,18.4,23.9c1.1,0.7,11.5,5.7,12,4.3c0.9-2.4,33.9-71,8.7-93
						c24.1-0.1,21.3-3.1,37.8-3.6c19.8,25.3-5,97-5,97.3c0.1-1.8,8.4-5.5,9.8-6.4c5.2-3.1,9.9-7.1,13.6-11.9
						c5.9-7.7,9.1-18.1,12-27.3c3.4-10.4,5-21.4,3.8-32.2c-0.9-7.7-4.3-15.6-9.5-21.4C493,333.3,477.6,331.6,509.2,334.9z"/>
					<path class="st28" d="M464.4,337.6c6.7-6,9.1-15.1,9.8-23.8c0.7-8.5-0.4-17.1-1.6-25.6c-2.4-16.9-4-37.3,4.1-52.9
						c2.1-4,4.7-8.1,7.6-11.5c2.7-3.2,5.7-6.2,8.7-9.2c0,0,40.4,93,13,118.9C469.1,337.6,489.9,335.6,464.4,337.6z"/>
					<path class="st28" d="M401,342.1c13.4-13.6-6.9-54.9-9.6-75.9c-0.4-3.9,0.4-7.7,3-11.5c2.6-3.7,5.4-7.5,9-11.4
						c3.6-3.6,7.2-7.2,10.8-10.6c3.6-3.4,6.3-6.4,8.2-9.3c0,0,34.4,114,15.8,111.6C419.4,332.6,429.2,335.4,401,342.1z"/>
					<path class="st0" d="M532.8,352c0,0-1.3-43-346.9,30c0,0-10.1,1-4-9.6c0,0,322-69.1,350.2-31.1
						C532.1,341.4,538.7,347.1,532.8,352"/>
					<path class="st0" d="M559,535.6c0,0-1.3-43-346.9,30c0,0-10.1,1-4-9.6c0,0,322-69.1,350.2-31.1
						C558.3,525,564.9,530.7,559,535.6"/>
					<path class="st0" d="M552.2,519.9C498.4,493.8,208.5,556,208.5,556c-6.1,10.6,4,9.6,4,9.6c227.1-48,305.5-45.9,332.6-38.8
						L552.2,519.9z"/>
				</g>
				<g id="Layer_12">
				</g>
				<g id="Layer_6">
					<path class="st15" d="M679.3,496.5c4-0.7,6-5,1.4-7.6c-3.4-1.9-8.5,0.8-10.1,4c-2.1,4.1,2,8.7,5.3,11c3.9,2.7,9.8,2.2,12.3-0.8
						c2.4-3,3.4-8,2.7-11.7c-0.8-4.5-3.2-8.1-6.2-11.4c-7.9-8.8-25.1-3.5-33.4,1.8c-7.3,4.7-14.7,9.3-22,14
						c-19.9,12.7-39.7,25.4-59.6,38c-6.3,4-12.1,8.3-8,16.6c3.7,7.6,21.3,13.1,21.8,0.3c0.1-3.8-3.2-6.7-6.7-7.4
						c-3.3-0.6-11.3,3.6-5.4,6.2c-4.5-2,0.4-5.6,2.4-6.3c9.2-3.3,17.8-10.1,26-15.2c13.4-8.4,26.8-17,40.1-25.5
						c6.8-4.4,13.6-9.2,20.8-13c5.1-2.7,23.1-6.6,22.6,3.2"/>
					<path class="st15" d="M564.5,543.7c0,0-17.1,21.5-69.8,22.7c-52.7,1.1-64.1,12.1-64.8,22c-0.7,9.9,11.9,4.4,11.9,4.4
						s-10.6-13.5,52.9-15.7c63.6-2.2,73.8-17.7,78.6-28.6C578,537.5,564.5,543.7,564.5,543.7z"/>
					<path class="st15" d="M183.7,654.6l225.7-0.5c16.8,0,38.3-10.9,45.4-26.7c3.5-7.8,5.2-19,3.1-27.4c-2.3-9.3-7.3-20.2-18.1-20.8
						c-5.9-0.3-10.2,0.3-13.8,5.8c-3.6,5.7-2.8,14.8,1.3,20c4.8,6,17.4,5.5,18.9-3.5c0.4-2.2-1.7-5.5-3.2-7c-2.5-2.5-3.5-1.1-6.6-1
						c3.6-1.6,5.4-1.3,8,2.2c11.9,16-9.5,38.7-23.9,43.9c-4,1.4-8.2,2.5-12.4,3.3c-6.6,1.2-12.3,2.2-19,2.2c-4.1,0-8.2,0-12.4,0
						c-12.7-0.1-25.3-0.1-38-0.2c-31.5-0.1-63-0.3-94.5-0.4c-16.6-0.1-33.2-0.1-49.8-0.2C194.7,644.1,185.8,649.7,183.7,654.6z"/>
					<path class="st15" d="M75.5,781.9c2.7,0,75,0,77.7,0c7.4,0,14.7,0,22.1,0c11,0,21.9,0,32.9,0c13.5,0,27,0,40.5,0
						c15.1,0,30.1-0.1,45.2,0c15.4,0,30.9,0,46.3,0c14.7,0,29.4,0.1,44.1,0.1c13.1,0,26.2-0.1,39.3,0c10.7,0.1,21.3-0.4,32-0.2
						c7.4,0.1,14.5,0.4,21.9-0.4c6.8-0.8,14-3,20.6-4.9c7.3-2,14.5-4.5,21.5-7.5c8-3.4,15.8-7.4,23.4-11.7
						c8.9-5,17.5-10.5,25.9-16.2c9.6-6.5,18.9-13.3,27.9-20.5c9.7-7.8,19.1-16.1,27.7-25.2c9.1-9.5,17.3-19.9,24.1-31.1
						c7.3-12,13-25,17.2-38.5c4.6-15,7.3-30.5,9-46.1c1.8-17.1,2.4-34.3,2.8-51.5c0.1-4.1,0.7-8.6,0.3-12.7c0,0,5.1-17.9,21.6-8.9
						c0,0,8.3,11.2-4.1,18.5c0,0-14.4,0.5-5.5-11.8c0.3-0.4,1.8-0.4,2.3-0.3c1.6,0.3,1.9,2,1.8,3.4c0.4-1.1,0.1-2.8-1-3.4
						c-1.3-0.7-2.5,0-3.4,1c-0.8,0.9-1.3,2.3-1.8,3.3c-0.6,1.3-1.4,2.5-1.5,4c-0.1,1.3,0,2.6,0,3.9c0.9,4.1,1.4,8.2,1.9,12.3
						c1.2,10.3,1.5,20.6,1.2,31c-0.5,14.7-2.3,29.4-5.6,43.7c-4,17.5-10.2,34.6-18.5,50.6c-9.8,18.9-22.5,36.2-37.4,51.5
						c-18.2,18.6-39.6,34-62.5,46.4c-13.7,7.5-28,13.9-42.5,19.5c-16.2,6.2-33.7,13.6-51.2,13.6c-14,0-27.9,0-41.9,0
						c-21.3,0-42.6,0-63.9,0c-24.2,0-48.5,0-72.7,0c-22.8,0-45.5,0-68.3,0c-16.9,0-33.8,0-50.7,0c-6.6,0-82.7,0-89.3,0"/>
					<path class="st29" d="M686.3,520.2c1.2-2.5,1.5-8.6,5.5-8.1c2.1,0.2,3.4,2.9,2.5,4.7c-1.1,2.2-4,0.1-3.2-1.9
						c-0.3,0.8,0.2,1.5,1,1.7c0.6,0.2,1.5,0.3,1.6-0.5c0-0.5-0.1-1.2-0.3-1.6c-0.6-1.3-2.2-1.9-3.6-0.9
						C688.1,514.7,687.2,518.5,686.3,520.2z"/>
					<path class="st29" d="M678.6,486.4C678.6,486.4,678.6,486.4,678.6,486.4c1.1,0.1,2.2,0.4,3,1.2c0.6,0.6,0.9,1.3,1.3,2
						c0.4,0.8,0.6,1.7,0.6,2.6c0,0.8,0.1,1.6,0,2.4c-0.1,0.6-0.4,1.2-0.8,1.6c-0.4,0.4-1,0.6-1.5,0.7c-1.4,0.3-3,0.1-3.8-1.2
						c-0.2-0.4-0.4-0.8-0.5-1.3c-0.2-1.1,0.4-2.3,1.4-2.8c0.4-0.2,0.8-0.4,1.2-0.3c0.4,0.1,0.7,0.5,1,0.8c-0.7-0.5-1.8-0.2-2.3,0.4
						c-0.4,0.4-0.5,1.1-0.5,1.6c0,1,1.3,1.6,2.2,1.6c1.4,0,2.4-1.3,2.2-2.6c-0.1-1.2-0.6-2.4-1.1-3.4c-0.2-0.3-0.3-0.6-0.5-0.9
						c-0.5-0.6-1-1.3-1.7-1.7c-0.7-0.5-1.4-0.6-2.2-0.7c-0.1,0-0.2,0-0.3,0C677,486.4,677.8,486.3,678.6,486.4z"/>
					<path class="st29" d="M561.7,550.3c-0.5-1.1-0.9-2.1-1.1-3c-0.2,0.1,0.1,0-0.1,0.1c0.2,1,0.4,2.2,1,3.3c1.2,2.4,4,4.2,7,5.7
						c0.1-0.2-0.1,0.2,0,0C565.5,554.9,562.9,552.7,561.7,550.3z"/>
					<path class="st29" d="M581.3,539.6c-0.3,0.3-1,0.4-1.5,0.6c-1.8,0.6-3.7,1.6-5.5,2.2c-0.5,0.1-0.9,0.3-1.3,0.5
						c-0.8,0.3-1.4,0.8-2,1.4c-1.5,1.6-3.1,4.4-1.1,6.3c0.6,0.6,1.8,1.2,2.6,1.3c0.9,0.1,2.3,0,3.1-0.4c0.6-0.3,1.5-1.1,1.7-1.7
						c0.4-1-0.1-2.8-1.2-3.2c-0.6-0.2-1.5,0.1-1.9,0.6c0.3-0.4,1.3-0.2,1.6,0.1c0.5,0.4,0.8,1.2,0.6,1.9c-0.3,1.5-2.2,1.6-3.4,1.5
						c-1.3-0.1-2.6-1.1-2.7-2.4c-0.1-3.9,4.3-5.2,7.2-6.5C578.8,541.2,580.4,540.4,581.3,539.6z"/>
					<path class="st29" d="M434.4,579.2c-0.3,0.2,0.1-0.1-0.2,0.2c1.7-0.3,3.6-0.3,5.7-0.2c3.8,0.2,6.9,1.7,9.4,4
						c0.3-0.1-0.3,0.1,0.1,0c-2.6-2.4-5.2-4-9.2-4.2C438.2,578.8,436.1,578.9,434.4,579.2z"/>
					<path class="st29" d="M447.5,601.6c-0.2-0.3-0.2-0.9-0.3-1.3c-0.4-1.1-0.7-2.1-1.1-3.2c-0.7-1.7-2-3.6-3.5-4.6
						c-1.7-1.2-3.7-1.4-5.6-0.7c-2.1,0.8-4.4,1.9-5.3,4.1c-0.3,0.8,0,2.3,0.4,3c0.7,1.1,1.9,1.7,3,2.3c0.8,0.4,1.6,0.8,2.6,0.6
						c1.7-0.4,3.9-3.3,2.8-5c-0.3-0.5-1.3-1-1.9-1.1c-0.8-0.1-2,0.5-2.4,1.2c0.3-0.6,1.8-0.7,2.3-0.4c0.9,0.5,1.2,2.1,0.6,2.9
						c-0.9,1.3-2.8,0.8-3.9,0.1c-0.6-0.4-1.2-0.9-1.5-1.5c-0.3-0.6-0.3-1.7,0-2.4c0.4-0.8,1.6-1.6,2.4-2c1-0.5,2.1-0.6,3.1-0.5
						c2.4,0.4,4,2.1,5.3,4C445.6,598.6,446.8,600.1,447.5,601.6z"/>
				</g>
				<g id="Layer_8">
					<path class="st15" d="M203.7,644.1v10.5l-181.3,0c0,0-4.4-4.8-7.8-10.5L203.7,644.1L203.7,644.1z"/>
					<circle class="st30" cx="157.9" cy="632.6" r="20.5"/>
					<circle class="st30" cx="157.9" cy="632.6" r="17.1"/>
					<path class="st31" d="M569.5,621.8l-8.3,7.9l2.5,0.7c-3.6,5.9-10.1,8.5-17.5,9v-30h6.9c0.6,0.6,1.4,0.9,2.2,0.9
						c1.7,0,3.2-1.4,3.2-3.2c0-1.8-1.4-3.2-3.2-3.2c-0.9,0-1.7,0.4-2.2,0.9h-6.9v-3.6c3.3-1.3,5.7-4.5,5.7-8.3c0-4.9-4-9-9-9
						c-4.9,0-9,4-9,9c0,4.1,2.7,7.5,6.5,8.6v3.4h-7.6c-0.6-0.6-1.4-0.9-2.2-0.9c-1.7,0-3.2,1.4-3.2,3.2c0,1.8,1.4,3.2,3.2,3.2
						c0.9,0,1.7-0.4,2.2-0.9h7.6v30c-7.8-0.6-14.6-3.6-18.1-10l2.5-0.6l-7.7-8.4l-3.5,10.9l2.9-0.7c4.3,9.4,14,16.9,25,17.6l1.7,3.5
						l1.7-3.4c10.5-0.7,19.8-7.6,24.4-16.2l2.8,0.8L569.5,621.8z M538.4,593c0-2.5,2.1-4.6,4.6-4.6c2.5,0,4.6,2.1,4.6,4.6
						c0,2.5-2.1,4.6-4.6,4.6C540.4,597.7,538.4,595.6,538.4,593z"/>
					<path class="st32" d="M571.5,620.4l-8.3,7.9l2.5,0.7c-3.6,5.9-10.1,8.5-17.5,9v-30h6.9c0.6,0.6,1.4,0.9,2.2,0.9
						c1.7,0,3.2-1.4,3.2-3.2c0-1.8-1.4-3.2-3.2-3.2c-0.9,0-1.7,0.4-2.2,0.9h-6.9V600c3.3-1.3,5.7-4.5,5.7-8.3c0-4.9-4-9-9-9
						c-4.9,0-9,4-9,9c0,4.1,2.7,7.5,6.5,8.6v3.4h-7.6c-0.6-0.6-1.4-0.9-2.2-0.9c-1.7,0-3.2,1.4-3.2,3.2c0,1.8,1.4,3.2,3.2,3.2
						c0.9,0,1.7-0.4,2.2-0.9h7.6v30c-7.8-0.6-14.6-3.6-18.1-10l2.5-0.6l-7.7-8.4l-3.5,10.9l2.9-0.7c4.3,9.4,14,16.9,25,17.6l1.7,3.5
						l1.7-3.4c10.5-0.7,19.8-7.6,24.4-16.2l2.8,0.8L571.5,620.4z M540.4,591.6c0-2.5,2.1-4.6,4.6-4.6c2.5,0,4.6,2.1,4.6,4.6
						c0,2.5-2.1,4.6-4.6,4.6C542.4,596.2,540.4,594.1,540.4,591.6z"/>
					<g class="st33">
						<path class="st34" d="M183.7,714.6c0-13-10.6-23.6-23.5-23.6c-6.7,0-12.7,2.8-17,7.3c4.2-4,10-6.5,16.3-6.5
							c13,0,23.5,10.6,23.5,23.6c0,6.3-2.5,12-6.5,16.3C180.9,727.4,183.7,721.3,183.7,714.6z"/>
						<path class="st34" d="M157.4,735.8c-9.7-1-17.4-8.7-18.4-18.4c-0.1-0.9-0.2-1.9-0.2-2.8c0-5.7,2.3-10.9,5.9-14.7
							c-4.1,3.9-6.7,9.4-6.7,15.5c0,11.8,9.6,21.4,21.4,21.4c6.1,0,11.6-2.6,15.5-6.7c-3.8,3.7-9,5.9-14.7,5.9
							C159.2,736,158.3,735.9,157.4,735.8z"/>
						<path class="st34" d="M139,717.4c1,9.7,8.7,17.4,18.4,18.4C147.8,734.6,140.3,727,139,717.4z"/>
						<path class="st34" d="M144.8,714.6c0-4.1,1.6-7.8,4.2-10.5c-3,2.8-4.9,6.8-4.9,11.3c0,8.5,6.9,15.4,15.4,15.4
							c4.5,0,8.5-1.9,11.3-4.9c-2.8,2.6-6.4,4.2-10.5,4.2C151.7,730.1,144.8,723.2,144.8,714.6z"/>
						<path class="st34" d="M145.3,700.5c3.7-3.5,8.7-5.7,14.1-5.7c11.3,0,20.5,9.2,20.5,20.5c0,5.5-2.2,10.4-5.7,14.1
							c3.9-3.7,6.4-9,6.4-14.9c0-0.7,0-1.4-0.1-2.1c-1.3-9.5-8.8-17.1-18.4-18.4c-0.7-0.1-1.4-0.1-2.1-0.1
							C154.3,694.1,149.1,696.6,145.3,700.5z"/>
					</g>
					<g id="Layer_10">
						<path class="st35" d="M154.6,731.5c-12.2,0-22-9.9-22-22c0-4,1.1-7.7,2.9-11c-3.5,3.9-5.7,9.1-5.7,14.7c0,12.2,9.9,22,22,22
							c8.2,0,15.3-4.5,19.1-11.1C166.9,728.7,161.1,731.5,154.6,731.5z"/>
						<path class="st36" d="M154.6,731.5c6.5,0,12.3-2.8,16.4-7.3c1.9-3.2,2.9-7,2.9-11c0-12.2-9.9-22-22-22
							c-6.5,0-12.3,2.8-16.4,7.3c-1.9,3.2-2.9,7-2.9,11C132.6,721.6,142.5,731.5,154.6,731.5z"/>
						<path class="st37" d="M168.2,729.8c-0.1,0-0.3,0-0.4,0.1c0,0.1-0.1,0.3-0.1,0.4c0,0.8,0.7,1.5,1.5,1.5c0.1,0,0.3,0,0.4-0.1
							c0-0.1,0.1-0.3,0.1-0.4C169.7,730.5,169,729.8,168.2,729.8z"/>
						<path class="st37" d="M170.3,697.4c0.1,0,0.3,0,0.4-0.1c0-0.1,0.1-0.3,0.1-0.4c0-0.8-0.7-1.5-1.5-1.5c-0.1,0-0.3,0-0.4,0.1
							c0,0.1-0.1,0.3-0.1,0.4C168.8,696.7,169.5,697.4,170.3,697.4z"/>
						<path class="st37" d="M176,712.1c-0.1,0-0.3,0-0.4,0.1c0,0.1-0.1,0.3-0.1,0.4c0,0.8,0.7,1.5,1.5,1.5c0.1,0,0.3,0,0.4-0.1
							c0-0.1,0.1-0.3,0.1-0.4C177.5,712.7,176.8,712.1,176,712.1z"/>
						<path class="st37" d="M151.5,736.5c-0.1,0-0.3,0-0.4,0.1c0,0.1-0.1,0.3-0.1,0.4c0,0.8,0.7,1.5,1.5,1.5c0.1,0,0.3,0,0.4-0.1
							c0-0.1,0.1-0.3,0.1-0.4C153,737.2,152.4,736.5,151.5,736.5z"/>
						<path class="st37" d="M151.5,692.5c-5.6,0-10.6,2.2-14.4,5.7c-3.5,3.8-5.7,8.8-5.7,14.4c0,11.7,9.4,21.1,21.1,21.1
							c5.6,0,10.6-2.2,14.4-5.7c3.5-3.8,5.7-8.8,5.7-14.4C172.6,701.9,163.2,692.5,151.5,692.5z"/>
						<path class="st37" d="M127.1,712.1c-0.1,0-0.3,0-0.4,0.1c0,0.1-0.1,0.3-0.1,0.4c0,0.8,0.7,1.5,1.5,1.5c0.1,0,0.3,0,0.4-0.1
							c0-0.1,0.1-0.3,0.1-0.4C128.6,712.7,127.9,712.1,127.1,712.1z"/>
						<path class="st37" d="M133.8,729.8c-0.1,0-0.3,0-0.4,0.1c0,0.1-0.1,0.3-0.1,0.4c0,0.8,0.7,1.5,1.5,1.5c0.1,0,0.3,0,0.4-0.1
							c0-0.1,0.1-0.3,0.1-0.4C135.3,730.5,134.6,729.8,133.8,729.8z"/>
						<path class="st37" d="M123.6,716.4c-0.1-0.9-0.1-1.9-0.1-2.8c0-8,3.4-15.2,8.8-20.4c5.1-5.4,12.3-8.8,20.4-8.8
							c1,0,1.9,0,2.8,0.1c-1.3-0.2-2.5-0.3-3.9-0.3c-7.8,0-14.9,3.1-20.2,8.1c-5,5.3-8.1,12.3-8.1,20.1
							C123.3,713.9,123.4,715.1,123.6,716.4z"/>
						<path class="st37" d="M152.6,689.6c0.1,0,0.3,0,0.4-0.1c0-0.1,0.1-0.3,0.1-0.4c0-0.8-0.7-1.5-1.5-1.5c-0.1,0-0.3,0-0.4,0.1
							c0,0.1-0.1,0.3-0.1,0.4C151.1,688.9,151.7,689.6,152.6,689.6z"/>
						<path class="st37" d="M180.5,709.7c0.1,0.9,0.1,1.9,0.1,2.8c0,8-3.4,15.2-8.8,20.4c-5.1,5.4-12.3,8.8-20.4,8.8
							c-1,0-1.9-0.1-2.8-0.1c1.3,0.2,2.5,0.3,3.9,0.3c7.8,0,14.9-3.1,20.2-8.1c5-5.3,8.1-12.3,8.1-20.1
							C180.8,712.3,180.7,711,180.5,709.7z"/>
						<path class="st37" d="M133.7,698.5c0.1,0,0.3,0,0.4-0.1c0-0.1,0.1-0.3,0.1-0.4c0-0.8-0.7-1.5-1.5-1.5c-0.1,0-0.3,0-0.4,0.1
							c0,0.1-0.1,0.3-0.1,0.4C132.2,697.8,132.8,698.5,133.7,698.5z"/>
						<path class="st38" d="M181.8,712.5c0-16.1-13.1-29.3-29.3-29.3c-8.3,0-15.8,3.5-21.2,9.1c5.3-5,12.3-8.1,20.2-8.1
							c1.3,0,2.6,0.1,3.9,0.3c13.2,1.3,23.8,11.9,25.1,25.1c0.2,1.3,0.3,2.5,0.3,3.9c0,7.8-3.1,14.9-8.1,20.1
							C178.3,728.4,181.8,720.9,181.8,712.5z"/>
						<path class="st15" d="M120.3,712.5c0-8.6,3.4-16.5,8.9-22.2c-6.1,5.9-10,14.1-10,23.3c0,17.8,14.4,32.2,32.2,32.2
							c9.1,0,17.4-3.8,23.3-10c-5.8,5.5-13.6,8.9-22.2,8.9C134.8,744.8,120.3,730.3,120.3,712.5z"/>
						<path class="st15" d="M152.6,735.5c-0.7,0-1.2,0.5-1.4,1.1c0.1,0,0.3-0.1,0.4-0.1c0.8,0,1.5,0.7,1.5,1.5c0,0.1,0,0.3-0.1,0.4
							c0.6-0.2,1.1-0.7,1.1-1.4C154.1,736.2,153.4,735.5,152.6,735.5z"/>
						<path class="st15" d="M134.8,728.8c-0.7,0-1.2,0.5-1.4,1.1c0.1,0,0.3-0.1,0.4-0.1c0.8,0,1.5,0.7,1.5,1.5c0,0.1,0,0.3-0.1,0.4
							c0.6-0.2,1.1-0.7,1.1-1.4C136.3,729.5,135.6,728.8,134.8,728.8z"/>
						<path class="st15" d="M134.1,698c0,0.1,0,0.3-0.1,0.4c0.6-0.2,1.1-0.7,1.1-1.4c0-0.8-0.7-1.5-1.5-1.5c-0.7,0-1.2,0.5-1.4,1.1
							c0.1,0,0.3-0.1,0.4-0.1C133.5,696.5,134.1,697.2,134.1,698z"/>
						<path class="st15" d="M128.1,711c-0.7,0-1.2,0.5-1.4,1.1c0.1,0,0.3-0.1,0.4-0.1c0.8,0,1.5,0.7,1.5,1.5c0,0.1,0,0.3-0.1,0.4
							c0.6-0.2,1.1-0.7,1.1-1.4C129.6,711.7,128.9,711,128.1,711z"/>
						<path class="st15" d="M153,689.1c0,0.1,0,0.3-0.1,0.4c0.6-0.2,1.1-0.7,1.1-1.4c0-0.8-0.7-1.5-1.5-1.5c-0.7,0-1.2,0.5-1.4,1.1
							c0.1,0,0.3-0.1,0.4-0.1C152.4,687.6,153,688.3,153,689.1z"/>
						<path class="st15" d="M124.4,712.5c0-7.5,3-14.3,7.8-19.3c-5.4,5.1-8.8,12.3-8.8,20.4c0,1,0,1.9,0.1,2.8
							c1.7,13,12.1,23.4,25.1,25.1c0.9,0.1,1.9,0.1,2.8,0.1c8,0,15.2-3.4,20.4-8.8c-5,4.8-11.8,7.8-19.3,7.8
							C137.1,740.7,124.4,728,124.4,712.5z"/>
						<path class="st15" d="M170.8,696.9c0,0.1,0,0.3-0.1,0.4c0.6-0.2,1.1-0.7,1.1-1.4c0-0.8-0.7-1.5-1.5-1.5
							c-0.7,0-1.2,0.5-1.4,1.1c0.1,0,0.3-0.1,0.4-0.1C170.1,695.4,170.8,696.1,170.8,696.9z"/>
						<path class="st15" d="M178.5,712.5c0-0.8-0.7-1.5-1.5-1.5c-0.7,0-1.2,0.5-1.4,1.1c0.1,0,0.3-0.1,0.4-0.1
							c0.8,0,1.5,0.7,1.5,1.5c0,0.1,0,0.3-0.1,0.4C178,713.8,178.5,713.2,178.5,712.5z"/>
						<path class="st15" d="M152.6,691.4c-6.1,0-11.6,2.6-15.4,6.7c3.8-3.5,8.8-5.7,14.4-5.7c11.7,0,21.1,9.4,21.1,21.1
							c0,5.6-2.2,10.6-5.7,14.4c4.1-3.9,6.7-9.3,6.7-15.4C173.7,700.9,164.2,691.4,152.6,691.4z"/>
						<path class="st15" d="M169.2,728.8c-0.7,0-1.2,0.5-1.4,1.1c0.1,0,0.3-0.1,0.4-0.1c0.8,0,1.5,0.7,1.5,1.5c0,0.1,0,0.3-0.1,0.4
							c0.6-0.2,1.1-0.7,1.1-1.4C170.7,729.5,170.1,728.8,169.2,728.8z"/>
						<path class="st38" d="M151.5,681.4c-8.6,0-16.5,3.4-22.2,8.9c-5.5,5.8-8.9,13.6-8.9,22.2c0,17.8,14.4,32.2,32.2,32.2
							c8.6,0,16.5-3.4,22.2-8.9c5.5-5.8,8.9-13.6,8.9-22.2C183.7,695.8,169.3,681.4,151.5,681.4z M151.5,742.8
							c-16.2,0-29.3-13.2-29.3-29.3c0-8.3,3.5-15.8,9.1-21.2c5.3-5.6,12.8-9.1,21.2-9.1c16.2,0,29.3,13.2,29.3,29.3
							c0,8.3-3.5,15.8-9.1,21.2C167.4,739.3,159.9,742.8,151.5,742.8z"/>
						<path class="st38" d="M151.5,685.5c-7.5,0-14.3,3-19.3,7.8c-4.8,5-7.8,11.8-7.8,19.3c0,15.5,12.6,28.1,28.1,28.1
							c7.5,0,14.3-3,19.3-7.8c4.8-5,7.8-11.8,7.8-19.3C179.6,698.1,167,685.5,151.5,685.5z M170.3,694.4c0.8,0,1.5,0.7,1.5,1.5
							c0,0.7-0.5,1.2-1.1,1.4c-0.1,0-0.3,0.1-0.4,0.1c-0.8,0-1.5-0.7-1.5-1.5c0-0.1,0-0.3,0.1-0.4
							C169.1,694.9,169.6,694.4,170.3,694.4z M152.6,686.6c0.8,0,1.5,0.7,1.5,1.5c0,0.7-0.5,1.2-1.1,1.4c-0.1,0-0.3,0.1-0.4,0.1
							c-0.8,0-1.5-0.7-1.5-1.5c0-0.1,0-0.3,0.1-0.4C151.3,687.1,151.9,686.6,152.6,686.6z M133.7,695.5c0.8,0,1.5,0.7,1.5,1.5
							c0,0.7-0.5,1.2-1.1,1.4c-0.1,0-0.3,0.1-0.4,0.1c-0.8,0-1.5-0.7-1.5-1.5c0-0.1,0-0.3,0.1-0.4C132.4,696,133,695.5,133.7,695.5z
							 M128.5,714c-0.1,0-0.3,0.1-0.4,0.1c-0.8,0-1.5-0.7-1.5-1.5c0-0.1,0-0.3,0.1-0.4c0.2-0.6,0.7-1.1,1.4-1.1
							c0.8,0,1.5,0.7,1.5,1.5C129.6,713.2,129.1,713.8,128.5,714z M135.2,731.7c-0.1,0-0.3,0.1-0.4,0.1c-0.8,0-1.5-0.7-1.5-1.5
							c0-0.1,0-0.3,0.1-0.4c0.2-0.6,0.7-1.1,1.4-1.1c0.8,0,1.5,0.7,1.5,1.5C136.3,731,135.8,731.6,135.2,731.7z M153,738.4
							c-0.1,0-0.3,0.1-0.4,0.1c-0.8,0-1.5-0.7-1.5-1.5c0-0.1,0-0.3,0.1-0.4c0.2-0.6,0.7-1.1,1.4-1.1c0.8,0,1.5,0.7,1.5,1.5
							C154.1,737.7,153.6,738.2,153,738.4z M169.6,731.7c-0.1,0-0.3,0.1-0.4,0.1c-0.8,0-1.5-0.7-1.5-1.5c0-0.1,0-0.3,0.1-0.4
							c0.2-0.6,0.7-1.1,1.4-1.1c0.8,0,1.5,0.7,1.5,1.5C170.7,731,170.2,731.6,169.6,731.7z M166.9,728c-3.9,4.1-9.3,6.7-15.4,6.7
							c-11.7,0-21.1-9.4-21.1-21.1c0-6.1,2.6-11.6,6.7-15.4c3.9-4.1,9.3-6.7,15.4-6.7c11.7,0,21.1,9.4,21.1,21.1
							C173.7,718.6,171.1,724.1,166.9,728z M177.4,714c-0.1,0-0.3,0.1-0.4,0.1c-0.8,0-1.5-0.7-1.5-1.5c0-0.1,0-0.3,0.1-0.4
							c0.2-0.6,0.7-1.1,1.4-1.1c0.8,0,1.5,0.7,1.5,1.5C178.5,713.2,178,713.8,177.4,714z"/>
						<path class="st35" d="M291.8,732c-12.2,0-22-9.9-22-22c0-4,1.1-7.7,2.9-11c-3.5,3.9-5.7,9-5.7,14.7c0,12.2,9.9,22,22,22
							c8.2,0,15.3-4.5,19.1-11.1C304.2,729.1,298.3,732,291.8,732z"/>
						<path class="st36" d="M291.8,732c6.5,0,12.3-2.8,16.4-7.3c1.9-3.2,2.9-7,2.9-11c0-12.2-9.9-22-22-22c-6.5,0-12.3,2.8-16.4,7.3
							c-1.9,3.2-2.9,7-2.9,11C269.8,722.1,279.7,732,291.8,732z"/>
						<path class="st37" d="M305.4,730.3c-0.1,0-0.3,0-0.4,0.1c0,0.1-0.1,0.3-0.1,0.4c0,0.8,0.7,1.5,1.5,1.5c0.1,0,0.3,0,0.4-0.1
							c0-0.1,0.1-0.3,0.1-0.4C306.9,731,306.2,730.3,305.4,730.3z"/>
						<path class="st37" d="M307.5,697.9c0.1,0,0.3,0,0.4-0.1c0-0.1,0.1-0.3,0.1-0.4c0-0.8-0.7-1.5-1.5-1.5c-0.1,0-0.3,0-0.4,0.1
							c0,0.1-0.1,0.3-0.1,0.4C306,697.2,306.7,697.9,307.5,697.9z"/>
						<path class="st37" d="M313.2,712.5c-0.1,0-0.3,0-0.4,0.1c0,0.1-0.1,0.3-0.1,0.4c0,0.8,0.7,1.5,1.5,1.5c0.1,0,0.3,0,0.4-0.1
							c0-0.1,0.1-0.3,0.1-0.4C314.7,713.2,314,712.5,313.2,712.5z"/>
						<path class="st37" d="M288.7,737c-0.1,0-0.3,0-0.4,0.1c0,0.1-0.1,0.3-0.1,0.4c0,0.8,0.7,1.5,1.5,1.5c0.1,0,0.3,0,0.4-0.1
							c0-0.1,0.1-0.3,0.1-0.4C290.2,737.7,289.6,737,288.7,737z"/>
						<path class="st37" d="M288.7,692.9c-5.6,0-10.6,2.2-14.4,5.7c-3.5,3.8-5.7,8.8-5.7,14.4c0,11.7,9.4,21.1,21.1,21.1
							c5.6,0,10.6-2.2,14.4-5.7c3.5-3.8,5.7-8.8,5.7-14.4C309.8,702.4,300.4,692.9,288.7,692.9z"/>
						<path class="st37" d="M264.3,712.5c-0.1,0-0.3,0-0.4,0.1c0,0.1-0.1,0.3-0.1,0.4c0,0.8,0.7,1.5,1.5,1.5c0.1,0,0.3,0,0.4-0.1
							c0-0.1,0.1-0.3,0.1-0.4C265.8,713.2,265.1,712.5,264.3,712.5z"/>
						<path class="st37" d="M271,730.3c-0.1,0-0.3,0-0.4,0.1c0,0.1-0.1,0.3-0.1,0.4c0,0.8,0.7,1.5,1.5,1.5c0.1,0,0.3,0,0.4-0.1
							c0-0.1,0.1-0.3,0.1-0.4C272.5,731,271.8,730.3,271,730.3z"/>
						<path class="st37" d="M260.8,716.9c-0.1-0.9-0.1-1.9-0.1-2.8c0-8,3.4-15.2,8.8-20.4c5.1-5.4,12.3-8.8,20.4-8.8
							c1,0,1.9,0,2.8,0.1c-1.3-0.2-2.5-0.3-3.9-0.3c-7.8,0-14.9,3.1-20.2,8.1c-5,5.3-8.1,12.4-8.1,20.1
							C260.5,714.3,260.6,715.6,260.8,716.9z"/>
						<path class="st37" d="M289.8,690.1c0.1,0,0.3,0,0.4-0.1c0-0.1,0.1-0.3,0.1-0.4c0-0.8-0.7-1.5-1.5-1.5c-0.1,0-0.3,0-0.4,0.1
							c0,0.1-0.1,0.3-0.1,0.4C288.3,689.4,288.9,690.1,289.8,690.1z"/>
						<path class="st37" d="M317.7,710.2c0.1,0.9,0.1,1.9,0.1,2.8c0,8-3.4,15.2-8.8,20.4c-5.1,5.4-12.3,8.8-20.4,8.8
							c-1,0-1.9,0-2.8-0.1c1.3,0.2,2.5,0.3,3.9,0.3c7.8,0,14.9-3.1,20.2-8.1c5-5.3,8.1-12.3,8.1-20.1
							C318,712.7,317.9,711.5,317.7,710.2z"/>
						<path class="st37" d="M270.9,699c0.1,0,0.3,0,0.4-0.1c0-0.1,0.1-0.3,0.1-0.4c0-0.8-0.7-1.5-1.5-1.5c-0.1,0-0.3,0-0.4,0.1
							c0,0.1-0.1,0.3-0.1,0.4C269.4,698.3,270,699,270.9,699z"/>
						<path class="st38" d="M319,713c0-16.1-13.1-29.3-29.3-29.3c-8.3,0-15.8,3.5-21.2,9.1c5.3-5,12.3-8.1,20.2-8.1
							c1.3,0,2.6,0.1,3.9,0.3c13.2,1.3,23.8,11.9,25.1,25.1c0.2,1.3,0.3,2.5,0.3,3.9c0,7.8-3.1,14.9-8.1,20.1
							C315.5,728.9,319,721.3,319,713z"/>
						<path class="st15" d="M257.5,713c0-8.6,3.4-16.5,8.9-22.2c-6.1,5.9-10,14.1-10,23.3c0,17.8,14.4,32.2,32.2,32.2
							c9.1,0,17.4-3.8,23.3-10c-5.8,5.5-13.6,8.9-22.2,8.9C272,745.2,257.5,730.8,257.5,713z"/>
						<path class="st15" d="M289.8,736c-0.7,0-1.2,0.5-1.4,1.1c0.1,0,0.3-0.1,0.4-0.1c0.8,0,1.5,0.7,1.5,1.5c0,0.1,0,0.3-0.1,0.4
							c0.6-0.2,1.1-0.7,1.1-1.4C291.3,736.6,290.6,736,289.8,736z"/>
						<path class="st15" d="M272,729.3c-0.7,0-1.2,0.5-1.4,1.1c0.1,0,0.3-0.1,0.4-0.1c0.8,0,1.5,0.7,1.5,1.5c0,0.1,0,0.3-0.1,0.4
							c0.6-0.2,1.1-0.7,1.1-1.4C273.5,730,272.8,729.3,272,729.3z"/>
						<path class="st15" d="M271.4,698.5c0,0.1,0,0.3-0.1,0.4c0.6-0.2,1.1-0.7,1.1-1.4c0-0.8-0.7-1.5-1.5-1.5
							c-0.7,0-1.2,0.5-1.4,1.1c0.1,0,0.3-0.1,0.4-0.1C270.7,697,271.4,697.7,271.4,698.5z"/>
						<path class="st15" d="M265.3,711.5c-0.7,0-1.2,0.5-1.4,1.1c0.1,0,0.3-0.1,0.4-0.1c0.8,0,1.5,0.7,1.5,1.5c0,0.1,0,0.3-0.1,0.4
							c0.6-0.2,1.1-0.7,1.1-1.4C266.8,712.2,266.2,711.5,265.3,711.5z"/>
						<path class="st15" d="M290.2,689.6c0,0.1,0,0.3-0.1,0.4c0.6-0.2,1.1-0.7,1.1-1.4c0-0.8-0.7-1.5-1.5-1.5
							c-0.7,0-1.2,0.5-1.4,1.1c0.1,0,0.3-0.1,0.4-0.1C289.6,688.1,290.2,688.8,290.2,689.6z"/>
						<path class="st15" d="M261.7,713c0-7.5,3-14.3,7.8-19.3c-5.4,5.1-8.8,12.3-8.8,20.4c0,1,0,1.9,0.1,2.8
							c1.7,13,12.1,23.4,25.1,25.1c0.9,0.1,1.9,0.1,2.8,0.1c8,0,15.2-3.4,20.4-8.8c-5,4.8-11.8,7.8-19.3,7.8
							C274.3,741.1,261.7,728.5,261.7,713z"/>
						<path class="st15" d="M308,697.4c0,0.1,0,0.3-0.1,0.4c0.6-0.2,1.1-0.7,1.1-1.4c0-0.8-0.7-1.5-1.5-1.5c-0.7,0-1.2,0.5-1.4,1.1
							c0.1,0,0.3-0.1,0.4-0.1C307.3,695.9,308,696.5,308,697.4z"/>
						<path class="st15" d="M315.7,713c0-0.8-0.7-1.5-1.5-1.5c-0.7,0-1.2,0.5-1.4,1.1c0.1,0,0.3-0.1,0.4-0.1c0.8,0,1.5,0.7,1.5,1.5
							c0,0.1,0,0.3-0.1,0.4C315.2,714.3,315.7,713.7,315.7,713z"/>
						<path class="st15" d="M289.8,691.9c-6.1,0-11.6,2.6-15.4,6.7c3.8-3.5,8.8-5.7,14.4-5.7c11.7,0,21.1,9.4,21.1,21.1
							c0,5.6-2.2,10.6-5.7,14.4c4.1-3.9,6.7-9.3,6.7-15.4C310.9,701.4,301.4,691.9,289.8,691.9z"/>
						<path class="st15" d="M306.4,729.3c-0.7,0-1.2,0.5-1.4,1.1c0.1,0,0.3-0.1,0.4-0.1c0.8,0,1.5,0.7,1.5,1.5c0,0.1,0,0.3-0.1,0.4
							c0.6-0.2,1.1-0.7,1.1-1.4C307.9,730,307.3,729.3,306.4,729.3z"/>
						<path class="st38" d="M288.7,681.8c-8.6,0-16.5,3.4-22.2,8.9c-5.5,5.8-8.9,13.6-8.9,22.2c0,17.8,14.4,32.2,32.2,32.2
							c8.6,0,16.5-3.4,22.2-8.9c5.5-5.8,8.9-13.6,8.9-22.2C321,696.3,306.5,681.8,288.7,681.8z M288.7,743.3
							c-16.2,0-29.3-13.2-29.3-29.3c0-8.3,3.5-15.8,9.1-21.2c5.3-5.6,12.8-9.1,21.2-9.1c16.2,0,29.3,13.2,29.3,29.3
							c0,8.3-3.5,15.8-9.1,21.2C304.6,739.8,297.1,743.3,288.7,743.3z"/>
						<path class="st38" d="M288.7,685.9c-7.5,0-14.3,3-19.3,7.8c-4.8,5-7.8,11.8-7.8,19.3c0,15.5,12.6,28.1,28.1,28.1
							c7.5,0,14.3-3,19.3-7.8c4.8-5,7.8-11.8,7.8-19.3C316.8,698.5,304.2,685.9,288.7,685.9z M307.5,694.9c0.8,0,1.5,0.7,1.5,1.5
							c0,0.7-0.5,1.2-1.1,1.4c-0.1,0-0.3,0.1-0.4,0.1c-0.8,0-1.5-0.7-1.5-1.5c0-0.1,0-0.3,0.1-0.4
							C306.3,695.3,306.8,694.9,307.5,694.9z M289.8,687.1c0.8,0,1.5,0.7,1.5,1.5c0,0.7-0.5,1.2-1.1,1.4c-0.1,0-0.3,0.1-0.4,0.1
							c-0.8,0-1.5-0.7-1.5-1.5c0-0.1,0-0.3,0.1-0.4C288.5,687.6,289.1,687.1,289.8,687.1z M270.9,696c0.8,0,1.5,0.7,1.5,1.5
							c0,0.7-0.5,1.2-1.1,1.4c-0.1,0-0.3,0.1-0.4,0.1c-0.8,0-1.5-0.7-1.5-1.5c0-0.1,0-0.3,0.1-0.4C269.6,696.4,270.2,696,270.9,696z
							 M265.7,714.4c-0.1,0-0.3,0.1-0.4,0.1c-0.8,0-1.5-0.7-1.5-1.5c0-0.1,0-0.3,0.1-0.4c0.2-0.6,0.7-1.1,1.4-1.1
							c0.8,0,1.5,0.7,1.5,1.5C266.8,713.7,266.4,714.3,265.7,714.4z M272.4,732.2c-0.1,0-0.3,0.1-0.4,0.1c-0.8,0-1.5-0.7-1.5-1.5
							c0-0.1,0-0.3,0.1-0.4c0.2-0.6,0.7-1.1,1.4-1.1c0.8,0,1.5,0.7,1.5,1.5C273.5,731.5,273,732,272.4,732.2z M290.2,738.9
							c-0.1,0-0.3,0.1-0.4,0.1c-0.8,0-1.5-0.7-1.5-1.5c0-0.1,0-0.3,0.1-0.4c0.2-0.6,0.7-1.1,1.4-1.1c0.8,0,1.5,0.7,1.5,1.5
							C291.3,738.2,290.8,738.7,290.2,738.9z M306.8,732.2c-0.1,0-0.3,0.1-0.4,0.1c-0.8,0-1.5-0.7-1.5-1.5c0-0.1,0-0.3,0.1-0.4
							c0.2-0.6,0.7-1.1,1.4-1.1c0.8,0,1.5,0.7,1.5,1.5C307.9,731.5,307.5,732,306.8,732.2z M304.2,728.4c-3.9,4.1-9.3,6.7-15.4,6.7
							c-11.7,0-21.1-9.4-21.1-21.1c0-6.1,2.6-11.6,6.7-15.4c3.9-4.1,9.3-6.7,15.4-6.7c11.7,0,21.1,9.4,21.1,21.1
							C310.9,719.1,308.3,724.6,304.2,728.4z M314.6,714.4c-0.1,0-0.3,0.1-0.4,0.1c-0.8,0-1.5-0.7-1.5-1.5c0-0.1,0-0.3,0.1-0.4
							c0.2-0.6,0.7-1.1,1.4-1.1c0.8,0,1.5,0.7,1.5,1.5C315.7,713.7,315.2,714.3,314.6,714.4z"/>
						<path class="st35" d="M429.1,734.3c-12.2,0-22-9.9-22-22c0-4,1.1-7.7,2.9-11c-3.5,3.9-5.7,9-5.7,14.7c0,12.2,9.9,22,22,22
							c8.2,0,15.3-4.5,19.1-11.1C441.4,731.5,435.6,734.3,429.1,734.3z"/>
						<path class="st36" d="M429.1,734.3c6.5,0,12.3-2.8,16.4-7.3c1.9-3.2,2.9-7,2.9-11c0-12.2-9.9-22-22-22
							c-6.5,0-12.3,2.8-16.4,7.3c-1.9,3.2-2.9,7-2.9,11C407.1,724.4,416.9,734.3,429.1,734.3z"/>
						<path class="st37" d="M442.7,732.7c-0.1,0-0.3,0-0.4,0.1c0,0.1-0.1,0.3-0.1,0.4c0,0.8,0.7,1.5,1.5,1.5c0.1,0,0.3,0,0.4-0.1
							c0-0.1,0.1-0.3,0.1-0.4C444.2,733.3,443.5,732.7,442.7,732.7z"/>
						<path class="st37" d="M444.8,700.2c0.1,0,0.3,0,0.4-0.1c0-0.1,0.1-0.3,0.1-0.4c0-0.8-0.7-1.5-1.5-1.5c-0.1,0-0.3,0-0.4,0.1
							c0,0.1-0.1,0.3-0.1,0.4C443.3,699.5,444,700.2,444.8,700.2z"/>
						<path class="st37" d="M426,739.3c-0.1,0-0.3,0-0.4,0.1c0,0.1-0.1,0.3-0.1,0.4c0,0.8,0.7,1.5,1.5,1.5c0.1,0,0.3,0,0.4-0.1
							c0-0.1,0.1-0.3,0.1-0.4C427.5,740,426.9,739.3,426,739.3z"/>
						<path class="st37" d="M426,695.3c-5.6,0-10.6,2.2-14.4,5.7c-3.5,3.8-5.7,8.8-5.7,14.4c0,11.7,9.4,21.1,21.1,21.1
							c5.6,0,10.6-2.2,14.4-5.7c3.5-3.8,5.7-8.8,5.7-14.4C447.1,704.7,437.7,695.3,426,695.3z"/>
						<path class="st37" d="M401.6,714.9c-0.1,0-0.3,0-0.4,0.1c0,0.1-0.1,0.3-0.1,0.4c0,0.8,0.7,1.5,1.5,1.5c0.1,0,0.3,0,0.4-0.1
							c0-0.1,0.1-0.3,0.1-0.4C403.1,715.6,402.4,714.9,401.6,714.9z"/>
						<path class="st37" d="M408.2,732.7c-0.1,0-0.3,0-0.4,0.1c0,0.1-0.1,0.3-0.1,0.4c0,0.8,0.7,1.5,1.5,1.5c0.1,0,0.3,0,0.4-0.1
							c0-0.1,0.1-0.3,0.1-0.4C409.7,733.3,409.1,732.7,408.2,732.7z"/>
						<path class="st37" d="M398.1,719.2c-0.1-0.9-0.1-1.9-0.1-2.8c0-8,3.4-15.2,8.8-20.4c5.1-5.4,12.3-8.8,20.4-8.8
							c1,0,1.9,0,2.8,0.1c-1.3-0.2-2.5-0.3-3.9-0.3c-7.8,0-14.9,3.1-20.2,8.1c-5,5.3-8.1,12.3-8.1,20.1
							C397.8,716.7,397.9,718,398.1,719.2z"/>
						<path class="st37" d="M427,692.4c0.1,0,0.3,0,0.4-0.1c0-0.1,0.1-0.3,0.1-0.4c0-0.8-0.7-1.5-1.5-1.5c-0.1,0-0.3,0-0.4,0.1
							c0,0.1-0.1,0.3-0.1,0.4C425.5,691.8,426.2,692.4,427,692.4z"/>
						<path class="st37" d="M455,712.5c0.1,0.9,0.1,1.9,0.1,2.8c0,8-3.4,15.2-8.8,20.4c-5.1,5.4-12.3,8.8-20.4,8.8
							c-1,0-1.9,0-2.8-0.1c1.3,0.2,2.5,0.3,3.9,0.3c7.8,0,14.9-3.1,20.2-8.1c5-5.3,8.1-12.3,8.1-20.1
							C455.3,715.1,455.2,713.8,455,712.5z"/>
						<path class="st37" d="M408.2,701.3c0.1,0,0.3,0,0.4-0.1c0-0.1,0.1-0.3,0.1-0.4c0-0.8-0.7-1.5-1.5-1.5c-0.1,0-0.3,0-0.4,0.1
							c0,0.1-0.1,0.3-0.1,0.4C406.7,700.7,407.3,701.3,408.2,701.3z"/>
						<path class="st38" d="M456.3,715.4c0-16.1-13.1-29.3-29.3-29.3c-8.3,0-15.8,3.5-21.2,9.1c5.3-5,12.3-8.1,20.2-8.1
							c1.3,0,2.6,0.1,3.9,0.3c13.2,1.3,23.8,11.9,25.1,25.1c0.2,1.3,0.3,2.5,0.3,3.9c0,7.8-3.1,14.9-8.1,20.1
							C452.8,731.2,456.3,723.7,456.3,715.4z"/>
						<path class="st15" d="M394.8,715.4c0-8.6,3.4-16.5,8.9-22.2c-6.1,5.9-10,14.1-10,23.3c0,17.8,14.4,32.2,32.2,32.2
							c9.1,0,17.4-3.8,23.3-10c-5.8,5.5-13.6,8.9-22.2,8.9C409.3,747.6,394.8,733.1,394.8,715.4z"/>
						<path class="st15" d="M427,738.3c-0.7,0-1.2,0.5-1.4,1.1c0.1,0,0.3-0.1,0.4-0.1c0.8,0,1.5,0.7,1.5,1.5c0,0.1,0,0.3-0.1,0.4
							c0.6-0.2,1.1-0.7,1.1-1.4C428.5,739,427.9,738.3,427,738.3z"/>
						<path class="st15" d="M409.3,731.6c-0.7,0-1.2,0.5-1.4,1.1c0.1,0,0.3-0.1,0.4-0.1c0.8,0,1.5,0.7,1.5,1.5c0,0.1,0,0.3-0.1,0.4
							c0.6-0.2,1.1-0.7,1.1-1.4C410.8,732.3,410.1,731.6,409.3,731.6z"/>
						<path class="st15" d="M408.6,700.8c0,0.1,0,0.3-0.1,0.4c0.6-0.2,1.1-0.7,1.1-1.4c0-0.8-0.7-1.5-1.5-1.5
							c-0.7,0-1.2,0.5-1.4,1.1c0.1,0,0.3-0.1,0.4-0.1C408,699.3,408.6,700,408.6,700.8z"/>
						<path class="st15" d="M402.6,713.9c-0.7,0-1.2,0.5-1.4,1.1c0.1,0,0.3-0.1,0.4-0.1c0.8,0,1.5,0.7,1.5,1.5c0,0.1,0,0.3-0.1,0.4
							c0.6-0.2,1.1-0.7,1.1-1.4C404.1,714.5,403.4,713.9,402.6,713.9z"/>
						<path class="st15" d="M427.5,692c0,0.1,0,0.3-0.1,0.4c0.6-0.2,1.1-0.7,1.1-1.4c0-0.8-0.7-1.5-1.5-1.5c-0.7,0-1.2,0.5-1.4,1.1
							c0.1,0,0.3-0.1,0.4-0.1C426.9,690.5,427.5,691.1,427.5,692z"/>
						<path class="st15" d="M398.9,715.4c0-7.5,3-14.3,7.8-19.3c-5.4,5.1-8.8,12.3-8.8,20.4c0,1,0,1.9,0.1,2.8
							c1.7,13,12.1,23.4,25.1,25.1c0.9,0.1,1.9,0.1,2.8,0.1c8,0,15.2-3.4,20.4-8.8c-5,4.8-11.8,7.8-19.3,7.8
							C411.5,743.5,398.9,730.9,398.9,715.4z"/>
						<path class="st15" d="M445.3,699.7c0,0.1,0,0.3-0.1,0.4c0.6-0.2,1.1-0.7,1.1-1.4c0-0.8-0.7-1.5-1.5-1.5
							c-0.7,0-1.2,0.5-1.4,1.1c0.1,0,0.3-0.1,0.4-0.1C444.6,698.2,445.3,698.9,445.3,699.7z"/>
						<path class="st15" d="M427,694.3c-6.1,0-11.6,2.6-15.4,6.7c3.8-3.5,8.8-5.7,14.4-5.7c11.7,0,21.1,9.4,21.1,21.1
							c0,5.6-2.2,10.6-5.7,14.4c4.1-3.9,6.7-9.3,6.7-15.4C448.2,703.7,438.7,694.3,427,694.3z"/>
						<path class="st15" d="M443.7,731.6c-0.7,0-1.2,0.5-1.4,1.1c0.1,0,0.3-0.1,0.4-0.1c0.8,0,1.5,0.7,1.5,1.5c0,0.1,0,0.3-0.1,0.4
							c0.6-0.2,1.1-0.7,1.1-1.4C445.2,732.3,444.5,731.6,443.7,731.6z"/>
						<path class="st38" d="M426,684.2c-8.6,0-16.5,3.4-22.2,8.9c-5.5,5.8-8.9,13.6-8.9,22.2c0,17.8,14.4,32.2,32.2,32.2
							c8.6,0,16.5-3.4,22.2-8.9c5.5-5.8,8.9-13.6,8.9-22.2C458.2,698.6,443.8,684.2,426,684.2z M426,745.7
							c-16.2,0-29.3-13.2-29.3-29.3c0-8.3,3.5-15.8,9.1-21.2c5.3-5.6,12.8-9.1,21.2-9.1c16.2,0,29.3,13.2,29.3,29.3
							c0,8.3-3.5,15.8-9.1,21.2C441.9,742.2,434.4,745.7,426,745.7z"/>
						<path class="st38" d="M426,688.3c-7.5,0-14.3,3-19.3,7.8c-4.8,5-7.8,11.8-7.8,19.3c0,15.5,12.6,28.1,28.1,28.1
							c7.5,0,14.3-3,19.3-7.8c4.8-5,7.8-11.8,7.8-19.3C454.1,700.9,441.5,688.3,426,688.3z M444.8,697.2c0.8,0,1.5,0.7,1.5,1.5
							c0,0.7-0.5,1.2-1.1,1.4c-0.1,0-0.3,0.1-0.4,0.1c-0.8,0-1.5-0.7-1.5-1.5c0-0.1,0-0.3,0.1-0.4
							C443.6,697.7,444.1,697.2,444.8,697.2z M427,689.4c0.8,0,1.5,0.7,1.5,1.5c0,0.7-0.5,1.2-1.1,1.4c-0.1,0-0.3,0.1-0.4,0.1
							c-0.8,0-1.5-0.7-1.5-1.5c0-0.1,0-0.3,0.1-0.4C425.8,689.9,426.4,689.4,427,689.4z M408.2,698.3c0.8,0,1.5,0.7,1.5,1.5
							c0,0.7-0.5,1.2-1.1,1.4c-0.1,0-0.3,0.1-0.4,0.1c-0.8,0-1.5-0.7-1.5-1.5c0-0.1,0-0.3,0.1-0.4
							C406.9,698.8,407.5,698.3,408.2,698.3z M403,716.8c-0.1,0-0.3,0.1-0.4,0.1c-0.8,0-1.5-0.7-1.5-1.5c0-0.1,0-0.3,0.1-0.4
							c0.2-0.6,0.7-1.1,1.4-1.1c0.8,0,1.5,0.7,1.5,1.5C404.1,716.1,403.6,716.6,403,716.8z M409.7,734.6c-0.1,0-0.3,0.1-0.4,0.1
							c-0.8,0-1.5-0.7-1.5-1.5c0-0.1,0-0.3,0.1-0.4c0.2-0.6,0.7-1.1,1.4-1.1c0.8,0,1.5,0.7,1.5,1.5
							C410.8,733.8,410.3,734.4,409.7,734.6z M427.4,741.2c-0.1,0-0.3,0.1-0.4,0.1c-0.8,0-1.5-0.7-1.5-1.5c0-0.1,0-0.3,0.1-0.4
							c0.2-0.6,0.7-1.1,1.4-1.1c0.8,0,1.5,0.7,1.5,1.5C428.5,740.5,428.1,741.1,427.4,741.2z M444.1,734.6c-0.1,0-0.3,0.1-0.4,0.1
							c-0.8,0-1.5-0.7-1.5-1.5c0-0.1,0-0.3,0.1-0.4c0.2-0.6,0.7-1.1,1.4-1.1c0.8,0,1.5,0.7,1.5,1.5
							C445.2,733.8,444.7,734.4,444.1,734.6z M441.4,730.8c-3.9,4.1-9.3,6.7-15.4,6.7c-11.7,0-21.1-9.4-21.1-21.1
							c0-6.1,2.6-11.6,6.7-15.4c3.9-4.1,9.3-6.7,15.4-6.7c11.7,0,21.1,9.4,21.1,21.1C448.2,721.5,445.6,726.9,441.4,730.8z
							 M451.9,716.8c-0.1,0-0.3,0.1-0.4,0.1c-0.8,0-1.5-0.7-1.5-1.5c0-0.1,0-0.3,0.1-0.4c0.2-0.6,0.7-1.1,1.4-1.1
							c0.8,0,1.5,0.7,1.5,1.5C453,716.1,452.5,716.6,451.9,716.8z"/>
					</g>
					<path class="st39" d="M544.2,591.5c1,0.1,1.9-0.3,2.7-0.9c0.6-0.5,1.2-1,1.6-1.7c0.6-0.9,1-1.9,1.3-2.8
						c0.5-1.4,0.6-2.8,0.8-4.3c0-0.2,0-0.4,0-0.6c0.3-7-1.9-14.8-6.2-20.3c-0.9-1.1-2-2.3-3.5-2.6c-3.8-1-6.3-1.6-6.3,2.2
						c0,1.1,2.4,2.7,3.1,3.4c2.7,2.8,3.3,6.8,4.1,10.5c0.8,3.4,1.4,6.9,1.6,10.4c0,0.6,0.2,2.4-0.5,2.8c-0.5,0.3-1.1,0.6-1.4,1.1
						c-0.5,0.7,0,1.6,0.6,2.1c0.3,0.3,0.7,0.5,1.1,0.7C543.5,591.4,543.9,591.5,544.2,591.5z"/>
					<g>
						<g>
							<path id="XMLID_2_" class="st40" d="M548.7,588.9c0.6-0.9,1-1.9,1.3-2.8c0.5-1.4,0.6-2.8,0.8-4.3c0-0.2,0-0.4,0-0.6
								c0.3-7-1.9-14.8-6.2-20.3c-0.9-1.1-2-2.3-3.5-2.6c-3-0.8-5.3-1.3-6,0.5c0.4,0.5,1.1,0.9,1.6,1.1c2.7,1.5,4.1,3.7,5,6.6
								c0.3,0.9,0.5,1.9,0.7,2.8c0.3,1.1,0.4,2.2,0.7,3.3c0.8,3.7,1.5,7.5,1.6,11.3c0,0.6,0.2,2.6-0.5,3c-0.5,0.3-1.1,0.6-1.5,1.1
								c-0.5,0.8,0,1.7,0.6,2.2c0.3,0.3,0.7,0.5,1.1,0.7c0.4,0.2,0.7,0.3,1.1,0.3c0.2,0,0.5,0,0.7,0c0.3-0.1,0.6-0.3,0.8-0.5
								C547.7,590.2,548.2,589.6,548.7,588.9z"/>
						</g>
						<g>
							<g>
								<defs>
									<path id="SVGID_11_" d="M548.7,588.9c0.6-0.9,1-1.9,1.3-2.8c0.5-1.4,0.6-2.8,0.8-4.3c0-0.2,0-0.4,0-0.6
										c0.3-7-1.9-14.8-6.2-20.3c-0.9-1.1-2-2.3-3.5-2.6c-3-0.8-5.3-1.3-6,0.5c0.4,0.5,1.1,0.9,1.6,1.1c2.7,1.5,4.1,3.7,5,6.6
										c0.3,0.9,0.5,1.9,0.7,2.8c0.3,1.1,0.4,2.2,0.7,3.3c0.8,3.7,1.5,7.5,1.6,11.3c0,0.6,0.2,2.6-0.5,3c-0.5,0.3-1.1,0.6-1.5,1.1
										c-0.5,0.8,0,1.7,0.6,2.2c0.3,0.3,0.7,0.5,1.1,0.7c0.4,0.2,0.7,0.3,1.1,0.3c0.2,0,0.5,0,0.7,0c0.3-0.1,0.6-0.3,0.8-0.5
										C547.7,590.2,548.2,589.6,548.7,588.9z"/>
								</defs>
								<clipPath id="SVGID_12_">
									<use xlink:href="#SVGID_11_"  style="overflow:visible;"/>
								</clipPath>
								<path class="st41" d="M540.8,587c0,0,3.9,4,10,3c3.5-0.6-0.5,0.6-0.5,0.6l-9.5-3.7L540.8,587z"/>
							</g>
						</g>
						<g>
							<g>
								<defs>
									<path id="SVGID_13_" d="M548.7,588.9c0.6-0.9,1-1.9,1.3-2.8c0.5-1.4,0.6-2.8,0.8-4.3c0-0.2,0-0.4,0-0.6
										c0.3-7-1.9-14.8-6.2-20.3c-0.9-1.1-2-2.3-3.5-2.6c-3-0.8-5.3-1.3-6,0.5c0.4,0.5,1.1,0.9,1.6,1.1c2.7,1.5,4.1,3.7,5,6.6
										c0.3,0.9,0.5,1.9,0.7,2.8c0.3,1.1,0.4,2.2,0.7,3.3c0.8,3.7,1.5,7.5,1.6,11.3c0,0.6,0.2,2.6-0.5,3c-0.5,0.3-1.1,0.6-1.5,1.1
										c-0.5,0.8,0,1.7,0.6,2.2c0.3,0.3,0.7,0.5,1.1,0.7c0.4,0.2,0.7,0.3,1.1,0.3c0.2,0,0.5,0,0.7,0c0.3-0.1,0.6-0.3,0.8-0.5
										C547.7,590.2,548.2,589.6,548.7,588.9z"/>
								</defs>
								<clipPath id="SVGID_14_">
									<use xlink:href="#SVGID_13_"  style="overflow:visible;"/>
								</clipPath>
								<path class="st42" d="M542.2,582.1c0,0,8.6,2.7,10.9-1.5c1.7-3.1-0.7,1-0.7,1l-10.2,0.2L542.2,582.1z"/>
							</g>
						</g>
						<g>
							<g>
								<defs>
									<path id="SVGID_15_" d="M548.7,588.9c0.6-0.9,1-1.9,1.3-2.8c0.5-1.4,0.6-2.8,0.8-4.3c0-0.2,0-0.4,0-0.6
										c0.3-7-1.9-14.8-6.2-20.3c-0.9-1.1-2-2.3-3.5-2.6c-3-0.8-5.3-1.3-6,0.5c0.4,0.5,1.1,0.9,1.6,1.1c2.7,1.5,4.1,3.7,5,6.6
										c0.3,0.9,0.5,1.9,0.7,2.8c0.3,1.1,0.4,2.2,0.7,3.3c0.8,3.7,1.5,7.5,1.6,11.3c0,0.6,0.2,2.6-0.5,3c-0.5,0.3-1.1,0.6-1.5,1.1
										c-0.5,0.8,0,1.7,0.6,2.2c0.3,0.3,0.7,0.5,1.1,0.7c0.4,0.2,0.7,0.3,1.1,0.3c0.2,0,0.5,0,0.7,0c0.3-0.1,0.6-0.3,0.8-0.5
										C547.7,590.2,548.2,589.6,548.7,588.9z"/>
								</defs>
								<clipPath id="SVGID_16_">
									<use xlink:href="#SVGID_15_"  style="overflow:visible;"/>
								</clipPath>
								<path class="st43" d="M538.6,565.7c0,0,6.3,1.2,10-3.4c2.2-2.7-0.2,0.6-0.2,0.6L538.6,565.7L538.6,565.7z"/>
							</g>
						</g>
						<g>
							<g>
								<defs>
									<path id="SVGID_17_" d="M548.7,588.9c0.6-0.9,1-1.9,1.3-2.8c0.5-1.4,0.6-2.8,0.8-4.3c0-0.2,0-0.4,0-0.6
										c0.3-7-1.9-14.8-6.2-20.3c-0.9-1.1-2-2.3-3.5-2.6c-3-0.8-5.3-1.3-6,0.5c0.4,0.5,1.1,0.9,1.6,1.1c2.7,1.5,4.1,3.7,5,6.6
										c0.3,0.9,0.5,1.9,0.7,2.8c0.3,1.1,0.4,2.2,0.7,3.3c0.8,3.7,1.5,7.5,1.6,11.3c0,0.6,0.2,2.6-0.5,3c-0.5,0.3-1.1,0.6-1.5,1.1
										c-0.5,0.8,0,1.7,0.6,2.2c0.3,0.3,0.7,0.5,1.1,0.7c0.4,0.2,0.7,0.3,1.1,0.3c0.2,0,0.5,0,0.7,0c0.3-0.1,0.6-0.3,0.8-0.5
										C547.7,590.2,548.2,589.6,548.7,588.9z"/>
								</defs>
								<clipPath id="SVGID_18_">
									<use xlink:href="#SVGID_17_"  style="overflow:visible;"/>
								</clipPath>
								<path class="st44" d="M541.6,574.8c0,0,8.2,1.5,10.6-1.2c2.3-2.6-0.4,0-0.4,0l-10.2,0.3L541.6,574.8z"/>
							</g>
						</g>
						<g>
							<g>
								<defs>
									<path id="SVGID_19_" d="M548.7,588.9c0.6-0.9,1-1.9,1.3-2.8c0.5-1.4,0.6-2.8,0.8-4.3c0-0.2,0-0.4,0-0.6
										c0.3-7-1.9-14.8-6.2-20.3c-0.9-1.1-2-2.3-3.5-2.6c-3-0.8-5.3-1.3-6,0.5c0.4,0.5,1.1,0.9,1.6,1.1c2.7,1.5,4.1,3.7,5,6.6
										c0.3,0.9,0.5,1.9,0.7,2.8c0.3,1.1,0.4,2.2,0.7,3.3c0.8,3.7,1.5,7.5,1.6,11.3c0,0.6,0.2,2.6-0.5,3c-0.5,0.3-1.1,0.6-1.5,1.1
										c-0.5,0.8,0,1.7,0.6,2.2c0.3,0.3,0.7,0.5,1.1,0.7c0.4,0.2,0.7,0.3,1.1,0.3c0.2,0,0.5,0,0.7,0c0.3-0.1,0.6-0.3,0.8-0.5
										C547.7,590.2,548.2,589.6,548.7,588.9z"/>
								</defs>
								<clipPath id="SVGID_20_">
									<use xlink:href="#SVGID_19_"  style="overflow:visible;"/>
								</clipPath>
								<path class="st45" d="M535.6,561.5c0,0,5.9,0.4,6.9-5.9c0.6-3.5-0.3,1.1-0.3,1.1l-6.5,4.5L535.6,561.5z"/>
							</g>
						</g>
					</g>
					<path class="st46" d="M544.5,581.7c-0.2-2.2-0.5-4.5-1-6.7c1.9,0.2,4.8,0.3,6.8-0.3c-0.1-0.3-0.1-0.7-0.2-1l-6.9,0.2
						c-0.1-0.5-0.2-0.9-0.3-1.4c-0.2-1.1-0.4-2.2-0.7-3.3c-0.2-1-0.5-1.9-0.7-2.8c-0.1-0.2-0.1-0.4-0.2-0.6c1.5-0.1,3.5-0.5,5.2-1.7
						c-0.1-0.2-0.2-0.4-0.4-0.6l-5.2,1.5c-0.6-1.5-1.5-2.8-2.7-3.9c1.1-0.4,2.3-1.2,3.2-2.6c-0.1-0.1-0.3-0.1-0.5-0.2
						c-0.2-0.1-0.5-0.1-0.7-0.2l-3.1,2.2c0,0,0,0,0,0c-0.2-0.1-0.4-0.3-0.7-0.4c-0.4-0.2-1.2-0.6-1.6-1.1c0.4-0.9,1.1-1.2,2.1-1.2
						c-1.6,0-2.5,0.7-2.5,2.9c0,1.1,2.4,2.7,3.1,3.4c2.7,2.8,3.3,6.8,4.1,10.5c0.8,3.4,1.4,6.9,1.6,10.4c0,0.6,0.2,2.4-0.5,2.8
						c-0.5,0.3-1.1,0.6-1.4,1.1c-0.5,0.7,0,1.6,0.6,2.1c0.3,0.3,0.7,0.5,1.1,0.7c0.4,0.2,0.7,0.3,1.1,0.3c0.7,0.1,1.3-0.1,1.9-0.4
						c-0.2,0-0.4,0-0.6,0c-0.4,0-0.7-0.1-1.1-0.3c-0.4-0.2-0.8-0.4-1.1-0.7c-0.5-0.4-0.9-1.2-0.8-1.8c1.2,0.7,2.9,1.5,5.2,1.7
						c0.1-0.1,0.3-0.3,0.4-0.4l-5.1-2c0.3-0.4,0.8-0.6,1.2-0.9c0.7-0.4,0.5-2.4,0.5-3c0-0.4-0.1-0.7-0.1-1.1
						c1.8,0.3,4.2,0.5,6.1-0.2c0-0.2,0-0.5,0.1-0.7c0-0.1,0-0.1,0-0.2L544.5,581.7z"/>
				</g>
			</g>
		</g>
	</g>
</g>
</svg>
