<?xml version="1.0" encoding="utf-8"?>
<!-- Generator: Adobe Illustrator 19.2.1, SVG Export Plug-In . SVG Version: 6.00 Build 0)  -->
<svg version="1.1" id="Layer_1" xmlns="http://www.w3.org/2000/svg" xmlns:xlink="http://www.w3.org/1999/xlink" x="0px" y="0px"
	 viewBox="0 0 944.3 255.7" style="enable-background:new 0 0 944.3 255.7;" xml:space="preserve">
<style type="text/css">
	.st0{opacity:0.62;fill:#FFFFFF;enable-background:new    ;}
	.st1{fill:url(#SVGID_1_);}
	.st2{fill:url(#SVGID_2_);}
	.st3{fill:url(#SVGID_3_);}
	.st4{fill:url(#SVGID_4_);}
	.st5{fill:url(#SVGID_5_);}
</style>
<g id="star">
	<circle class="st0" cx="303" cy="198.6" r="1.6"/>
	<circle class="st0" cx="296.9" cy="37.5" r="1.2"/>
	<circle class="st0" cx="148.1" cy="125.3" r="1.2"/>
	<circle class="st0" cx="68.6" cy="27.2" r="1.2"/>
	<circle class="st0" cx="66.5" cy="295.7" r="1.2"/>
	<circle class="st0" cx="146" cy="198.6" r="1.2"/>
	<ellipse class="st0" cx="84.1" cy="131.5" rx="1.2" ry="1.2"/>
	<ellipse class="st0" cx="155.3" cy="43.7" rx="1.2" ry="1.2"/>
	<path class="st0" d="M412.5,113.5c0.9,0,1.6-0.7,1.6-1.6c0-0.9-0.7-1.6-1.6-1.6s-1.6,0.7-1.6,1.6S411.6,113.5,412.5,113.5z"/>
	<ellipse class="st0" cx="318.5" cy="24.1" rx="1.6" ry="1.6"/>
	<circle class="st0" cx="83" cy="54" r="1.6"/>
	<path class="st0" d="M427.3,209c1.3,0,2.4-1.1,2.4-2.4c0-1.3-1.1-2.4-2.4-2.4s-2.4,1.1-2.4,2.4C424.9,208,425.9,209,427.3,209z"/>
	
		<radialGradient id="SVGID_1_" cx="-113.3638" cy="1004.382" r="6.9814" gradientTransform="matrix(0 1 -1 0 1460.9509 161.0879)" gradientUnits="userSpaceOnUse">
		<stop  offset="0" style="stop-color:#FFFFFF"/>
		<stop  offset="4.542279e-02" style="stop-color:#D3D3D3"/>
		<stop  offset="9.881288e-02" style="stop-color:#A7A7A7"/>
		<stop  offset="0.1579" style="stop-color:#7F7F7F"/>
		<stop  offset="0.2213" style="stop-color:#5D5D5D"/>
		<stop  offset="0.2903" style="stop-color:#404040"/>
		<stop  offset="0.3667" style="stop-color:#282828"/>
		<stop  offset="0.4536" style="stop-color:#161616"/>
		<stop  offset="0.5574" style="stop-color:#090909"/>
		<stop  offset="0.6948" style="stop-color:#020202"/>
		<stop  offset="1" style="stop-color:#000000"/>
	</radialGradient>
	<path class="st1" d="M456.6,54.7c3.9,0,7-3.1,7-7s-3.1-7-7-7s-7,3.1-7,7S452.7,54.7,456.6,54.7z"/>
	<ellipse transform="matrix(0.718 -0.696 0.696 0.718 6.4397 415.9904)" class="st0" cx="516.6" cy="200" rx="1.6" ry="1.6"/>
	<path class="st0" d="M495.1,111.2c0.5,0.5,0.5,1.3,0,1.8s-1.3,0.5-1.7,0c-0.5-0.5-0.5-1.3,0-1.7
		C493.8,110.7,494.6,110.7,495.1,111.2z"/>
	<path class="st0" d="M590.4-5.6c0.5,0.5,0.5,1.3,0,1.7c-0.5,0.5-1.3,0.5-1.7,0c-0.5-0.5-0.5-1.3,0-1.7C589.2-6.1,590-6.1,590.4-5.6
		z"/>
	<path class="st0" d="M680.2,45.5c0.5,0.5,0.5,1.3,0,1.7c-0.5,0.5-1.3,0.5-1.7,0c-0.5-0.5-0.5-1.3,0-1.7C679,45,679.7,45,680.2,45.5
		z"/>
	
		<ellipse transform="matrix(0.7184 -0.6956 0.6956 0.7184 139.6895 596.5287)" class="st0" cx="806.7" cy="125.7" rx="1.2" ry="1.2"/>
	
		<ellipse transform="matrix(0.7186 -0.6954 0.6954 0.7186 179.9208 518.4387)" class="st0" cx="730.6" cy="36.9" rx="1.2" ry="1.2"/>
	<path class="st0" d="M659.9,131.3c0.5,0.5,0.5,1.3,0,1.7c-0.5,0.5-1.3,0.5-1.7,0c-0.5-0.5-0.5-1.3,0-1.7
		C658.6,130.8,659.4,130.9,659.9,131.3z"/>
	
		<ellipse transform="matrix(0.7179 -0.6962 0.6962 0.7179 89.8236 622.4373)" class="st0" cx="812.9" cy="200.4" rx="1.2" ry="1.2"/>
	<ellipse transform="matrix(0.7172 -0.6968 0.6968 0.7172 127.3617 411.8633)" class="st0" cx="571.2" cy="49" rx="1.6" ry="1.6"/>
	<path class="st0" d="M844.4,139c-0.4-0.2-1-0.1-1.2,0.3c-0.2,0.4-0.1,1,0.3,1.2c0.4,0.3,1,0.1,1.2-0.3
		C845,139.7,844.8,139.2,844.4,139z"/>
	<path class="st0" d="M920.8,418.6c-0.4-0.2-1-0.1-1.2,0.3s-0.1,1,0.3,1.2c0.4,0.2,1,0.1,1.2-0.3
		C921.4,419.4,921.3,418.9,920.8,418.6z"/>
	<path class="st0" d="M829.3,275.6c-0.4-0.2-1-0.1-1.2,0.3s-0.1,1,0.3,1.2c0.4,0.2,1,0.1,1.2-0.3
		C829.9,276.4,829.7,275.8,829.3,275.6z"/>
	<path class="st0" d="M841.5,132.4c-0.4-0.2-1-0.1-1.2,0.3c-0.2,0.4-0.1,1,0.3,1.2c0.4,0.2,1,0.1,1.2-0.3
		C842.1,133.2,841.9,132.7,841.5,132.4z"/>
	
		<ellipse transform="matrix(0.4898 -0.8719 0.8719 0.4898 338.0517 693.2879)" class="st0" cx="761.4" cy="57.8" rx="0.9" ry="0.9"/>
	
		<ellipse transform="matrix(0.4904 -0.8715 0.8715 0.4904 264.4087 751.2831)" class="st0" cx="774.6" cy="149.6" rx="0.9" ry="0.9"/>
	<path class="st0" d="M838.7,94.4c-0.4-0.2-1-0.1-1.2,0.3s-0.1,1,0.3,1.2c0.4,0.2,1,0.1,1.2-0.3S839.1,94.7,838.7,94.4z"/>
	<path class="st0" d="M875.8,108.4c-0.4-0.2-1-0.1-1.2,0.3c-0.2,0.4-0.1,1,0.3,1.2c0.4,0.2,1,0.1,1.2-0.3
		C876.4,109.2,876.3,108.7,875.8,108.4z"/>
	
		<ellipse transform="matrix(0.4897 -0.8719 0.8719 0.4897 257.5714 767.0344)" class="st0" cx="784.1" cy="163.5" rx="0.9" ry="0.9"/>
	<ellipse transform="matrix(0.4924 -0.8704 0.8704 0.4924 300.3264 649.749)" class="st0" cx="707.2" cy="67.4" rx="0.9" ry="0.9"/>
	
		<ellipse transform="matrix(0.4925 -0.8703 0.8703 0.4925 215.6981 692.1066)" class="st0" cx="701.3" cy="161.1" rx="0.9" ry="0.9"/>
	<ellipse transform="matrix(0.492 -0.8706 0.8706 0.492 64.0991 1020.546)" class="st0" cx="906.5" cy="455.3" rx="1.2" ry="1.2"/>
	
		<radialGradient id="SVGID_2_" cx="1054.1456" cy="-1496.7679" r="17.5304" gradientTransform="matrix(0.4913 -0.871 0.871 0.4913 1052.7831 1732.2229)" gradientUnits="userSpaceOnUse">
		<stop  offset="6.060610e-03" style="stop-color:#D6D6D6"/>
		<stop  offset="9.792230e-02" style="stop-color:#BBBBBB"/>
		<stop  offset="0.3407" style="stop-color:#797979"/>
		<stop  offset="0.5611" style="stop-color:#454545"/>
		<stop  offset="0.7513" style="stop-color:#1F1F1F"/>
		<stop  offset="0.904" style="stop-color:#080808"/>
		<stop  offset="1" style="stop-color:#000000"/>
	</radialGradient>
	<circle class="st2" cx="267" cy="78.7" r="17.5"/>
	
		<radialGradient id="SVGID_3_" cx="1274.1355" cy="-1023.0601" r="17.5166" gradientTransform="matrix(0.4913 -0.871 0.871 0.4913 1052.7831 1732.2229)" gradientUnits="userSpaceOnUse">
		<stop  offset="0" style="stop-color:#949494"/>
		<stop  offset="0.1379" style="stop-color:#797979"/>
		<stop  offset="0.4242" style="stop-color:#454545"/>
		<stop  offset="0.6737" style="stop-color:#1F1F1F"/>
		<stop  offset="0.8739" style="stop-color:#080808"/>
		<stop  offset="1" style="stop-color:#000000"/>
	</radialGradient>
	<path class="st3" d="M796.3,104.6c-8.4-4.8-19.1-1.8-23.9,6.7c-4.8,8.4-1.8,19.1,6.7,23.9c8.4,4.8,19.1,1.8,23.9-6.7
		C807.7,120,804.7,109.3,796.3,104.6z"/>
	
		<radialGradient id="SVGID_4_" cx="808.3755" cy="-1617.093" r="22.068" gradientTransform="matrix(0.4913 -0.871 0.871 0.4913 1052.7831 1732.2229)" gradientUnits="userSpaceOnUse">
		<stop  offset="0" style="stop-color:#FFFFFF"/>
		<stop  offset="4.542279e-02" style="stop-color:#D3D3D3"/>
		<stop  offset="9.881288e-02" style="stop-color:#A7A7A7"/>
		<stop  offset="0.1579" style="stop-color:#7F7F7F"/>
		<stop  offset="0.2213" style="stop-color:#5D5D5D"/>
		<stop  offset="0.2903" style="stop-color:#404040"/>
		<stop  offset="0.3667" style="stop-color:#282828"/>
		<stop  offset="0.4536" style="stop-color:#161616"/>
		<stop  offset="0.5574" style="stop-color:#090909"/>
		<stop  offset="0.6948" style="stop-color:#020202"/>
		<stop  offset="1" style="stop-color:#000000"/>
	</radialGradient>
	<path class="st4" d="M52.3,214.4c-10.6-6-24.1-2.2-30.1,8.4s-2.2,24.1,8.4,30.1s24.1,2.2,30.1-8.4S62.9,220.4,52.3,214.4z"/>
	
		<radialGradient id="SVGID_5_" cx="-1456.4161" cy="1294.239" r="55.4505" gradientTransform="matrix(0 0.2995 -0.3073 0 1325.0673 452.7966)" gradientUnits="userSpaceOnUse">
		<stop  offset="0" style="stop-color:#FFFFFF"/>
		<stop  offset="3.248420e-02" style="stop-color:#D3D3D3"/>
		<stop  offset="7.066623e-02" style="stop-color:#A7A7A7"/>
		<stop  offset="0.1129" style="stop-color:#7F7F7F"/>
		<stop  offset="0.1583" style="stop-color:#5D5D5D"/>
		<stop  offset="0.2076" style="stop-color:#404040"/>
		<stop  offset="0.2622" style="stop-color:#282828"/>
		<stop  offset="0.3244" style="stop-color:#161616"/>
		<stop  offset="0.3986" style="stop-color:#090909"/>
		<stop  offset="0.4969" style="stop-color:#020202"/>
		<stop  offset="0.7152" style="stop-color:#000000"/>
	</radialGradient>
	<ellipse class="st5" cx="927.3" cy="16.6" rx="17" ry="16.6"/>
</g>
</svg>
