<?xml version="1.0" encoding="utf-8"?>
<!-- Generator: Adobe Illustrator 17.1.0, SVG Export Plug-In . SVG Version: 6.00 Build 0)  -->
<!DOCTYPE svg PUBLIC "-//W3C//DTD SVG 1.1//EN" "http://www.w3.org/Graphics/SVG/1.1/DTD/svg11.dtd">
<svg version="1.1" id="Layer_1" xmlns="http://www.w3.org/2000/svg" xmlns:xlink="http://www.w3.org/1999/xlink" x="0px" y="0px"
	 viewBox="13 6 431 234" enable-background="new 13 6 431 234" xml:space="preserve">
<g id="star">
	<circle opacity="0.62" fill="#FFFFFF" enable-background="new    " cx="138.3" cy="111.3" r="0.8"/>
	<circle opacity="0.62" fill="#FFFFFF" enable-background="new    " cx="135.4" cy="32.7" r="0.6"/>
	<circle opacity="0.62" fill="#FFFFFF" enable-background="new    " cx="62.8" cy="75.5" r="0.6"/>
	<circle opacity="0.62" fill="#FFFFFF" enable-background="new    " cx="24" cy="27.7" r="0.6"/>
	<circle opacity="0.62" fill="#FFFFFF" enable-background="new    " cx="22.9" cy="158.7" r="0.6"/>
	<circle opacity="0.62" fill="#FFFFFF" enable-background="new    " cx="61.7" cy="111.3" r="0.6"/>
	<ellipse opacity="0.62" fill="#FFFFFF" enable-background="new    " cx="31.5" cy="78.6" rx="0.6" ry="0.6"/>
	<ellipse opacity="0.62" fill="#FFFFFF" enable-background="new    " cx="66.3" cy="35.7" rx="0.6" ry="0.6"/>
	<path opacity="0.62" fill="#FFFFFF" enable-background="new    " d="M191.8,69.8c0.4,0,0.8-0.3,0.8-0.8c0-0.4-0.3-0.8-0.8-0.8
		c-0.4,0-0.8,0.3-0.8,0.8S191.3,69.8,191.8,69.8z"/>
	<ellipse opacity="0.62" fill="#FFFFFF" enable-background="new    " cx="145.9" cy="26.2" rx="0.8" ry="0.8"/>
	<circle opacity="0.62" fill="#FFFFFF" enable-background="new    " cx="31" cy="40.7" r="0.8"/>
	<path opacity="0.62" fill="#FFFFFF" enable-background="new    " d="M199,116.4c0.6,0,1.2-0.5,1.2-1.2c0-0.6-0.5-1.2-1.2-1.2
		c-0.6,0-1.2,0.5-1.2,1.2C197.8,115.9,198.3,116.4,199,116.4z"/>
	<ellipse opacity="0.62" fill="#FFFFFF" enable-background="new    " cx="242.6" cy="112" rx="0.8" ry="0.8"/>
	<path opacity="0.62" fill="#FFFFFF" enable-background="new    " d="M232.1,68.7c0.2,0.2,0.2,0.6,0,0.9s-0.6,0.2-0.8,0
		c-0.2-0.2-0.2-0.6,0-0.8C231.5,68.4,231.8,68.4,232.1,68.7z"/>
	<path opacity="0.62" fill="#FFFFFF" enable-background="new    " d="M278.6,11.7c0.2,0.2,0.2,0.6,0,0.8c-0.2,0.2-0.6,0.2-0.8,0
		c-0.2-0.2-0.2-0.6,0-0.8C278,11.4,278.4,11.4,278.6,11.7z"/>
	<path opacity="0.62" fill="#FFFFFF" enable-background="new    " d="M322.4,36.6c0.2,0.2,0.2,0.6,0,0.8c-0.2,0.2-0.6,0.2-0.8,0
		c-0.2-0.2-0.2-0.6,0-0.8C321.8,36.4,322.2,36.4,322.4,36.6z"/>
	<ellipse opacity="0.62" fill="#FFFFFF" enable-background="new    " cx="384.1" cy="75.7" rx="0.6" ry="0.6"/>
	<ellipse opacity="0.62" fill="#FFFFFF" enable-background="new    " cx="347" cy="32.4" rx="0.6" ry="0.6"/>
	<path opacity="0.62" fill="#FFFFFF" enable-background="new    " d="M312.5,78.5c0.2,0.2,0.2,0.6,0,0.8c-0.2,0.2-0.6,0.2-0.8,0
		c-0.2-0.2-0.2-0.6,0-0.8C311.9,78.2,312.3,78.3,312.5,78.5z"/>
	<ellipse opacity="0.62" fill="#FFFFFF" enable-background="new    " cx="387.2" cy="112.2" rx="0.6" ry="0.6"/>
	<ellipse opacity="0.62" fill="#FFFFFF" enable-background="new    " cx="269.2" cy="38.3" rx="0.8" ry="0.8"/>
	<path opacity="0.62" fill="#FFFFFF" enable-background="new    " d="M402.6,82.2c-0.2-0.1-0.5,0-0.6,0.1s0,0.5,0.1,0.6
		c0.2,0.1,0.5,0,0.6-0.1C402.8,82.6,402.7,82.3,402.6,82.2z"/>
	<path opacity="0.62" fill="#FFFFFF" enable-background="new    " d="M439.8,218.7c-0.2-0.1-0.5,0-0.6,0.1c-0.1,0.2,0,0.5,0.1,0.6
		c0.2,0.1,0.5,0,0.6-0.1C440.1,219.1,440.1,218.8,439.8,218.7z"/>
	<path opacity="0.62" fill="#FFFFFF" enable-background="new    " d="M395.2,148.9c-0.2-0.1-0.5,0-0.6,0.1s0,0.5,0.1,0.6
		c0.2,0.1,0.5,0,0.6-0.1C395.5,149.3,395.4,149,395.2,148.9z"/>
	<path opacity="0.62" fill="#FFFFFF" enable-background="new    " d="M401.1,79c-0.2-0.1-0.5,0-0.6,0.1c-0.1,0.2,0,0.5,0.1,0.6
		c0.2,0.1,0.5,0,0.6-0.1C401.4,79.4,401.3,79.2,401.1,79z"/>
	<ellipse opacity="0.62" fill="#FFFFFF" enable-background="new    " cx="362" cy="42.6" rx="0.4" ry="0.4"/>
	<ellipse opacity="0.62" fill="#FFFFFF" enable-background="new    " cx="368.5" cy="87.4" rx="0.4" ry="0.4"/>
	<path opacity="0.62" fill="#FFFFFF" enable-background="new    " d="M399.8,60.5c-0.2-0.1-0.5,0-0.6,0.1c-0.1,0.2,0,0.5,0.1,0.6
		c0.2,0.1,0.5,0,0.6-0.1C400,60.9,400,60.6,399.8,60.5z"/>
	<path opacity="0.62" fill="#FFFFFF" enable-background="new    " d="M417.9,67.3c-0.2-0.1-0.5,0-0.6,0.1c-0.1,0.2,0,0.5,0.1,0.6
		c0.2,0.1,0.5,0,0.6-0.1C418.2,67.7,418.1,67.4,417.9,67.3z"/>
	<ellipse opacity="0.62" fill="#FFFFFF" enable-background="new    " cx="373.1" cy="94.2" rx="0.4" ry="0.4"/>
	<ellipse opacity="0.62" fill="#FFFFFF" enable-background="new    " cx="335.6" cy="47.3" rx="0.4" ry="0.4"/>
	<ellipse opacity="0.62" fill="#FFFFFF" enable-background="new    " cx="332.7" cy="93" rx="0.4" ry="0.4"/>
	<ellipse opacity="0.62" fill="#FFFFFF" enable-background="new    " cx="432.9" cy="236.6" rx="0.6" ry="0.6"/>
</g>
</svg>
