<?xml version="1.0" encoding="utf-8"?>
<!-- Generator: Adobe Illustrator 19.2.0, SVG Export Plug-In . SVG Version: 6.00 Build 0)  -->
<svg version="1.1" id="Layer_1" xmlns="http://www.w3.org/2000/svg" xmlns:xlink="http://www.w3.org/1999/xlink" x="0px" y="0px"
	 viewBox="0 0 677.9 656.3" style="enable-background:new 0 0 677.9 656.3;" xml:space="preserve">
<style type="text/css">
	.st0{display:none;}
	.st1{display:inline;fill:#475D7F;}
	.st2{display:inline;fill:#8F9193;}
	.st3{display:inline;fill:#808285;}
	.st4{display:inline;fill:#3D506B;}
	.st5{display:inline;fill:#FFFFFF;}
	.st6{fill:#352106;}
	.st7{fill:#442C08;}
	.st8{fill:#0C3A1D;}
	.st9{fill:#0F4926;}
	.st10{fill:#177742;}
	.st11{display:inline;fill:#212B38;}
	.st12{fill:#AA0909;}
	.st13{fill:#700505;}
	.st14{fill:#324256;}
	.st15{fill:#314056;}
	.st16{fill:#475D7F;}
	.st17{fill:#666666;}
	.st18{fill:#565656;}
	.st19{fill:#919191;}
	.st20{fill:#212B38;}
	.st21{fill:#3D506B;}
	.st22{fill:#5F7EA3;}
</style>
<g id="Layer_1_1_" class="st0">
	<polygon class="st1" points="590.7,293.7 589,297.8 587.6,301 495.7,503.4 142.3,503.4 50.3,301 49,297.8 153.9,297.8 153.9,341 
		249.9,341 249.9,293.7 380.5,293.7 380.5,341 478.3,341 478.3,293.7 	"/>
</g>
<g id="Layer_2" class="st0">
	<path id="XMLID_5_" class="st2" d="M274.4,301.4L88.5,258.8l-7.6,26.7l-7.6,26.7l180.3,62.2c8,2.3,19.1-12.4,25-32.8
		C284.2,321.6,282.2,303.6,274.4,301.4z"/>
	<path id="XMLID_4_" class="st3" d="M66.6,281.8c-4.2,14.6-1.3,28.5,6.8,30.8c8,2.3,17.9-8,22-22.6s1.3-28.5-6.8-30.8
		C80.8,256.6,70.9,267.1,66.6,281.8z"/>
	<rect x="249.9" y="293.7" class="st1" width="79.1" height="156.7"/>
	<rect x="130.3" y="341.7" class="st1" width="130" height="97.3"/>
	<path id="XMLID_2_" class="st2" d="M357,301.4l185.9-42.6l7.6,26.7l7.6,26.7l-180.3,62.2c-8,2.3-19.1-12.4-25-32.8
		C347.2,321.7,349.2,303.7,357,301.4z"/>
	<path id="XMLID_1_" class="st3" d="M564.7,281.9c4.2,14.6,1.3,28.5-6.8,30.8s-17.9-8-22-22.6s-1.3-28.5,6.8-30.8
		C550.6,256.6,560.5,267.1,564.7,281.9z"/>
	<rect x="302.4" y="293.7" class="st1" width="79.1" height="156.7"/>
	<rect x="371.1" y="341.7" class="st1" width="130" height="97.3"/>
	<polygon class="st4" points="357.7,141 672.7,141 672.7,22 357.7,-69 	"/>
</g>
<g id="_xE49_รกำ" class="st0">
	<polygon class="st1" points="189.7,24.9 189.7,-20.5 157.7,-11.2 157.7,33.8 	"/>
	<polygon class="st1" points="261.7,4.9 261.7,-41.3 222.3,-29.9 222.3,15.9 	"/>
	<polygon class="st1" points="125,42.8 125,-1.8 93.7,7.3 93.7,51.5 	"/>
	<polygon class="st1" points="61,16.7 42.7,22 42.7,65.7 61,60.6 	"/>
	<polygon class="st1" points="294.3,-50.7 294.3,-4.1 357.7,-21.7 357.7,-69 	"/>
	<polygon class="st5" points="93.7,51.5 93.7,7.3 61,16.7 61,60.6 	"/>
	<polygon class="st5" points="157.7,33.8 157.7,-11.2 125,-1.8 125,42.8 	"/>
	<polygon class="st5" points="222.3,15.9 222.3,-29.9 189.7,-20.5 189.7,24.9 	"/>
	<polygon class="st5" points="294.3,-4.1 294.3,-50.7 261.7,-41.3 261.7,4.9 	"/>
	<polygon class="st1" points="294.3,36 261.7,36 261.7,4.9 222.3,15.9 222.3,55.7 189.7,55.7 189.7,24.9 157.7,33.8 157.7,67 
		125,67 125,42.8 93.7,51.5 93.7,73.7 61,73.7 61,60.6 42.7,65.7 42.7,141 357.7,141 357.7,-21.7 294.3,-4.1 	"/>
	<polygon class="st1" points="61,73.7 93.7,73.7 93.7,51.5 61,60.6 	"/>
	<polygon class="st1" points="125,67 157.7,67 157.7,33.8 125,42.8 	"/>
	<polygon class="st1" points="189.7,55.7 222.3,55.7 222.3,15.9 189.7,24.9 	"/>
	<polygon class="st1" points="261.7,36 294.3,36 294.3,-4.1 261.7,4.9 	"/>
</g>
<g id="Layer_9">
	<g id="Layer_2_1_">
		<g>
			<path class="st6" d="M10.4,593c0,0-24.4,41.9,5.3,50.7s341.4,23.5,638.2,0c13-1.1,38.5-17.5,12.3-50.7
				c-5.9-7.5-104.3-9.3-223.1-8.5c-7.9,0-16,0.1-24,0.1c-8.1,1.1-16.2-0.5-24.4,0.3c-8.2,0.3-16.4-1.2-24.7,0.3
				c-8.3-0.1-16.5,0.3-24.8,0.3C178.7,587.9,10.4,593,10.4,593z"/>
			<path class="st7" d="M676.5,626.7c0,0,9.4-36.7-21-45.5c-30.4-8.7-310.7-33.2-622.1-5.2c-13.2,1.2-31.8,10.2-33.3,49
				c-0.3,6.6,181.9,11.9,357.3,10.6C519.7,634.3,676.5,626.7,676.5,626.7z"/>
			<path class="st8" d="M676.5,600.6c0,0,4.2-22.9-26.2-31.7c-30.4-8.7-283.6-11.7-594.4-5.2C42.5,564,13.7,561.3,7,593.7
				c-0.8,3.7,3.4,13.4,28.7,15.3c4.2,0.3,19.1-11.2,23.9-6c4.8-2.5,9.8-9.4,15.2,0.8c5.3-14.2,10.9-6.1,16.7,0.7
				c5.9,13.4,11.9-11.5,18.2,0.5c6.3-8.2,12.7,5.9,19.4,0.5c6.7,9.3,13.5,0.3,20.5,0.4c12.3,0.1,25.1,7.2,38.4,7.4
				c6.6,0,13.4-6.8,20.1-6.8c6.8-0.8,13.7-5.1,20.6,0.1c7-5.1,14.1,3.7,21.2,0c7.1-3.4,14.2-2.9,21.4,0c7.2-3.5,14.5-4.8,21.7,0
				c7.2-1.6,14.6-2.6,22-0.1c7.4,0,14.7-0.1,22-0.1c4.6,0,9.1-0.1,13.8-0.1c4.6-2.7,9.1-2,13.8-0.1c4.6,0.3,9.1,4.1,13.8-0.1
				c4.6,2.5,9.1-2.2,13.7-0.1c4.5-0.7,9.1,1.1,13.7-0.1c4.5,3.8,9,8.3,13.5,6.7c4.5,0,9-7.1,13.4-7.1c7.8-0.1,15.6-0.3,23.1-0.3
				c7.6,1.9,15.2,3.3,22.5-0.4c7.4-4.2,14.7,16,22-0.4c7.2,9.8,14.2,11.5,21.2-0.4c7-7.2,13.7-6.8,20.3-0.4
				c6.6,2.6,13.1-4.5,19.4-0.4c6.3-1.6,12.3,2.3,18.3-0.4c3-2.2,5.9-2,8.7-1.5c2.9,0.5,5.6,1.5,8.3,1.1c2.7,1.2,5.5,2.7,8.1-0.1
				c2.6-3.3,5.2-5.3,7.6-0.1c8.1-2,15.4,4.8,22.1,4.6c6.7-0.3,12.7-9.4,18-5.6c5.3-0.7,9.7-5.2,13.4-0.3c3.7-0.1,6.4-0.1,8.3-0.3
				C675.4,600.8,676.5,600.6,676.5,600.6z"/>
			<path class="st9" d="M25.7,568c0,0,4.1,12.4,22,13.5c28.4,1.8,294.8,7.4,584.9,1.1c12.4-0.3,22.9-2.6,24.3-11.3
				c0.3-1.5-171.5-2.3-334.8-2C170.5,569.6,25.7,568,25.7,568z"/>
			<path class="st10" d="M176.9,505.3c-81.4,0-101.8,37.8-151.3,62.7l372.2,2.3C358.8,551.7,258.3,505.3,176.9,505.3z"/>
			<path class="st10" d="M451.5,485.9c-108.7,0-149.8,50.4-215.7,83.7l421.2,1.8C608.4,549.7,560.2,485.9,451.5,485.9z"/>
		</g>
	</g>
</g>
<g id="Layer_5" class="st0">
</g>
<g id="Layer_6" class="st0">
	<polygon class="st11" points="1000,59.4 1032.7,59.4 1032.7,-27.5 1000,8 	"/>
	<polygon class="st11" points="936,27.4 968.7,27.4 968.7,-59.4 936,-23.9 	"/>
	<polygon class="st11" points="871.3,-4.8 904,-4.8 904,-91.7 871.3,-56.2 	"/>
	<polygon class="st11" points="799.3,-40.7 832,-40.7 832,-127.6 799.3,-92.1 	"/>
	<polygon class="st4" points="1032.7,-27.5 1032.7,48.3 1000,32.6 1000,-43.8 968.7,-59.4 968.7,17.6 936,2 936,-75.7 904,-91.7 
		904,-13.3 871.3,-29 871.3,-108 832,-127.6 832,-47.8 799.3,-63.4 799.3,-143.9 736,-175.5 736,-93.8 736,187.2 1051,187.2 
		1051,57.1 1051,-18.4 	"/>
</g>
<g id="Layer_11">
	<path class="st12" d="M520.8,157.2c10.1-4.4,10.4-39.7-19.3-77.4C473.3,42.8,415,3.3,341.8,4.8c-73.3-1.4-131.5,38-159.8,75.1
		c-29.7,37.7-29.4,73-19.3,77.4c11.8,6.3,33-12.3,63.6-28.5c30.5-16.8,70.3-31,115.4-30.8c45.1-0.2,85,14,115.4,30.8
		C487.8,144.9,509,163.5,520.8,157.2z"/>
	<ellipse class="st12" cx="341.8" cy="147" rx="181.6" ry="61.2"/>
	<ellipse class="st13" cx="339.3" cy="147" rx="162.9" ry="54.9"/>
	<polygon class="st14" points="441.7,147 338.8,147 235.8,147 214.7,464.1 338.8,464.1 462.9,464.1 	"/>
	<ellipse class="st14" cx="338.8" cy="148" rx="103" ry="34.7"/>
</g>
<g id="Layer_12">
</g>
<g id="Layer_4">
	<polygon class="st15" points="113.6,485.5 85.7,485.5 85.7,442.6 113.6,460.2 	"/>
	<polygon class="st16" points="85.7,442.6 70.1,447.1 70.1,484.4 85.7,480 	"/>
	<polygon class="st17" points="150.8,480.8 63.2,457.7 72.3,424.4 159.9,447.8 	"/>
	<polygon class="st18" points="150.8,480.8 63.2,457.7 67.5,441.7 154.1,472.8 	"/>
	<polygon class="st15" points="168.2,469.8 140.3,469.8 140.3,426.9 168.2,444.4 	"/>
	<polygon class="st16" points="140.3,464.9 140.3,426.9 113.6,434.6 113.6,472.3 	"/>
	<polygon class="st17" points="200.4,464.1 112.7,440.9 121.8,407.7 209.4,431.1 	"/>
	<polygon class="st18" points="200.4,464.1 112.7,440.9 117.1,425 203.7,456 	"/>
	<polygon class="st15" points="223.3,453.8 195.5,453.8 195.5,410.9 223.3,428.5 	"/>
	<polygon class="st16" points="195.5,449.6 195.5,410.9 168.2,418.8 168.2,457.2 	"/>
	<polygon class="st17" points="256.8,449.6 169.2,426.4 178.3,393.2 265.9,416.6 	"/>
	<polygon class="st18" points="256.8,449.6 169.2,426.4 173.5,410.5 260.1,441.5 	"/>
	<polygon class="st15" points="284.7,436.1 256.9,436.1 256.9,393.2 284.7,410.7 	"/>
	<polygon class="st16" points="256.9,432.6 256.9,393.2 223.3,402.9 223.3,441.9 	"/>
	<polygon class="st17" points="318.1,433.3 227.5,408.9 236.9,373.9 327.5,398.6 	"/>
	<polygon class="st18" points="318.1,433.3 227.5,408.9 232,392.2 321.6,424.9 	"/>
	<polygon class="st16" points="284.7,385.1 284.7,424.9 338.8,409.9 338.8,369.5 	"/>
	<polygon class="st16" points="284.7,459.1 256.9,459.1 256.9,432.6 223.3,441.9 223.3,475.9 195.5,475.9 195.5,449.6 168.2,457.2 
		168.2,485.5 140.3,485.5 140.3,464.9 113.6,472.3 113.6,491.2 85.7,491.2 85.7,480 70.1,484.4 70.1,548.6 338.8,548.6 338.8,409.9 
		284.7,424.9 	"/>
	<polygon class="st16" points="85.7,491.2 113.6,491.2 113.6,472.3 85.7,480 	"/>
	<polygon class="st16" points="140.3,485.5 168.2,485.5 168.2,457.2 140.3,464.9 	"/>
	<polygon class="st16" points="195.5,475.9 223.3,475.9 223.3,441.9 195.5,449.6 	"/>
	<polygon class="st16" points="256.9,459.1 284.7,459.1 284.7,424.9 256.9,432.6 	"/>
	<g id="Layer_7">
	</g>
	
		<ellipse transform="matrix(0.124 -0.9923 0.9923 0.124 -185.5082 572.6412)" class="st19" cx="231.6" cy="391.4" rx="18.5" ry="13.6"/>
	<ellipse transform="matrix(0.124 -0.9923 0.9923 0.124 -185.4191 572.771)" cx="231.7" cy="391.4" rx="14.5" ry="10.7"/>
	<path class="st19" d="M186.2,411.4c-1.2,9.6-8.1,16.7-15.3,15.8c-7.2-0.9-12.1-9.4-10.9-19c1.2-9.6,8.1-16.7,15.3-15.8
		C182.6,393.2,187.5,401.8,186.2,411.4z"/>
	<path d="M183.5,411c-1,7.6-6.3,13.1-12,12.4s-9.5-7.4-8.5-15s6.3-13.1,12-12.4C180.7,396.8,184.5,403.5,183.5,411z"/>
	<path class="st19" d="M129.8,425.9c-1.2,9.6-8.1,16.7-15.3,15.8c-7.2-0.9-12.1-9.4-10.9-19c1.2-9.6,8.1-16.7,15.3-15.8
		C126.1,407.7,131,416.2,129.8,425.9z"/>
	<path d="M127.1,425.5c-1,7.6-6.3,13.1-12,12.4s-9.5-7.4-8.5-15s6.3-13.1,12-12.4C124.2,411.3,128,418,127.1,425.5z"/>
	<path class="st19" d="M80.2,442.6c-1.2,9.6-8.1,16.7-15.3,15.8c-7.2-0.9-12.1-9.4-10.9-19s8.1-16.7,15.3-15.8
		C76.6,424.5,81.4,433,80.2,442.6z"/>
	<path d="M77.5,442.3c-1,7.6-6.3,13.1-12,12.4s-9.5-7.4-8.5-15s6.3-13.1,12-12.4C74.7,428,78.5,434.7,77.5,442.3z"/>
</g>
<g id="Layer_8">
	<polygon class="st20" points="563.9,485.5 591.8,485.5 591.8,442.6 563.9,460.2 	"/>
	<polygon class="st21" points="591.8,442.6 607.4,447.1 607.4,484.4 591.8,480 	"/>
	<polygon class="st17" points="526.7,480.8 614.4,457.7 605.3,424.4 517.7,447.8 	"/>
	<polygon class="st18" points="526.7,480.8 614.4,457.7 610,441.7 523.4,472.8 	"/>
	<polygon class="st20" points="509.3,469.8 537.2,469.8 537.2,426.9 509.3,444.4 	"/>
	<polygon class="st21" points="537.2,464.9 537.2,426.9 563.9,434.6 563.9,472.3 	"/>
	<polygon class="st17" points="477.2,464.1 564.8,440.9 555.7,407.7 468.1,431.1 	"/>
	<polygon class="st18" points="477.2,464.1 564.8,440.9 560.5,425 473.9,456 	"/>
	<polygon class="st20" points="454.2,453.8 482.1,453.8 482.1,410.9 454.2,428.5 	"/>
	<polygon class="st21" points="482.1,449.6 482.1,410.9 509.3,418.8 509.3,457.2 	"/>
	<polygon class="st17" points="420.7,449.6 508.3,426.4 499.2,393.2 411.6,416.6 	"/>
	<polygon class="st18" points="420.7,449.6 508.3,426.4 504,410.5 417.4,441.5 	"/>
	<polygon class="st20" points="392.8,436.1 420.6,436.1 420.6,393.2 392.8,410.7 	"/>
	<polygon class="st21" points="420.6,432.6 420.6,393.2 454.2,402.9 454.2,441.9 	"/>
	<polygon class="st17" points="359.4,433.3 450,408.9 440.6,373.9 350,398.6 	"/>
	<polygon class="st18" points="359.4,433.3 450,408.9 445.5,392.2 356,424.9 	"/>
	<polygon class="st21" points="392.8,385.1 392.8,424.9 338.8,409.9 338.8,369.5 	"/>
	<polygon class="st21" points="392.8,459.1 420.6,459.1 420.6,432.6 454.2,441.9 454.2,475.9 482.1,475.9 482.1,449.6 509.3,457.2 
		509.3,485.5 537.2,485.5 537.2,464.9 563.9,472.3 563.9,491.2 591.8,491.2 591.8,480 607.4,484.4 607.4,548.6 338.8,548.6 
		338.8,409.9 392.8,424.9 	"/>
	<polygon class="st21" points="591.8,491.2 563.9,491.2 563.9,472.3 591.8,480 	"/>
	<polygon class="st21" points="537.2,485.5 509.3,485.5 509.3,457.2 537.2,464.9 	"/>
	<polygon class="st21" points="482.1,475.9 454.2,475.9 454.2,441.9 482.1,449.6 	"/>
	<polygon class="st21" points="420.6,459.1 392.8,459.1 392.8,424.9 420.6,432.6 	"/>
	
		<ellipse transform="matrix(0.9923 -0.124 0.124 0.9923 -45.0976 58.3172)" class="st19" cx="445.9" cy="391.5" rx="13.6" ry="18.5"/>
	<ellipse transform="matrix(0.9923 -0.124 0.124 0.9923 -45.1004 58.3027)" cx="445.8" cy="391.5" rx="10.7" ry="14.5"/>
	<path class="st19" d="M491.3,411.4c1.2,9.6,8.1,16.7,15.3,15.8s12.1-9.4,10.9-19s-8.1-16.7-15.3-15.8
		C494.9,393.2,490.1,401.8,491.3,411.4z"/>
	<path d="M494,411c1,7.6,6.3,13.1,12,12.4s9.5-7.4,8.5-15s-6.3-13.1-12-12.4S493,403.5,494,411z"/>
	<path class="st19" d="M547.8,425.9c1.2,9.6,8.1,16.7,15.3,15.8s12.1-9.4,10.9-19s-8.1-16.7-15.3-15.8
		C551.4,407.7,546.6,416.2,547.8,425.9z"/>
	<path d="M550.5,425.5c1,7.6,6.3,13.1,12,12.4s9.5-7.4,8.5-15s-6.3-13.1-12-12.4C553.3,411.3,549.5,418,550.5,425.5z"/>
	<path class="st19" d="M597.3,442.6c1.2,9.6,8.1,16.7,15.3,15.8s12.1-9.4,10.9-19s-8.1-16.7-15.3-15.8
		C601,424.5,596.1,433,597.3,442.6z"/>
	<path d="M600,442.3c1,7.6,6.3,13.1,12,12.4s9.5-7.4,8.5-15s-6.3-13.1-12-12.4C602.9,428,599,434.7,600,442.3z"/>
</g>
<g id="Layer_10">
	<polygon class="st22" points="276.6,491.1 296.9,486.3 296.9,470.5 276.6,476.2 	"/>
	<polygon class="st22" points="262.7,515.6 283,510.7 283,495 262.7,500.6 	"/>
	<polygon class="st22" points="163.4,495.8 183.7,490.9 183.7,475.2 163.4,480.8 	"/>
	<polygon class="st22" points="149.5,520.3 169.8,515.4 169.8,499.7 149.5,505.3 	"/>
	<polygon class="st14" points="553.7,491.1 533.5,486.3 533.5,470.5 553.7,476.2 	"/>
	<polygon class="st22" points="567.7,515.6 547.4,510.7 547.4,495 567.7,500.6 	"/>
	<polygon class="st14" points="288.4,509.2 308.6,504.3 308.6,488.6 288.4,494.2 	"/>
	<polygon class="st22" points="384.4,456 364.1,451.2 364.1,435.4 384.4,441 	"/>
	<polygon class="st14" points="398.3,480.5 378.1,475.6 378.1,459.9 398.3,465.5 	"/>
	<polygon class="st14" points="412.8,463.8 392.5,458.9 392.5,443.2 412.8,448.8 	"/>
</g>
</svg>
