<?xml version="1.0" encoding="utf-8"?>
<!-- Generator: Adobe Illustrator 19.2.0, SVG Export Plug-In . SVG Version: 6.00 Build 0)  -->
<svg version="1.1" id="Layer_1" xmlns="http://www.w3.org/2000/svg" xmlns:xlink="http://www.w3.org/1999/xlink" x="0px" y="0px"
	 viewBox="0 0 741.1 515.5" style="enable-background:new 0 0 741.1 515.5;" xml:space="preserve">
<style type="text/css">
	.st0{fill:#886A41;}
	.st1{fill:#443219;}
	.st2{fill:#31614C;}
	.st3{display:none;fill:#1E3A2D;}
	.st4{fill:#1E3A2D;}
	.st5{fill:#303B59;}
	.st6{fill:#3B393D;}
	.st7{fill:#3B4B6B;}
	.st8{fill:#636566;stroke:#414042;stroke-miterlimit:10;}
	.st9{fill:#58595B;}
	.st10{fill:#7C7E7F;}
	.st11{fill:#6D6E71;}
	.st12{fill:#475D7F;}
	.st13{fill:#8F9193;}
	.st14{fill:#808285;}
	.st15{fill:#861719;}
	.st16{fill:#2C1010;}
	.st17{fill:#333333;}
</style>
<g id="Layer_2">
	<path class="st0" d="M17.1,454.2l707.4-3c0,0,19.1,10.2,16.3,42.9l-740.4,5C0.4,499.1-2.8,472.9,17.1,454.2z"/>
	<path class="st1" d="M0.7,487.3l740.4,4.5c0,0-1.6,16.2-10.4,23.7H11C11,515.6-3.3,507.8,0.7,487.3z"/>
	<path class="st2" d="M15.8,452.8l707.7-3.2l9.7,9.9c0,0-17.6,30.4-56.6,0c0,0,9.5,11.7,3.9,17.5c0,0-16.2,11.1-14-17.5
		c0,0-1.2,25.3-16.4,22.4c0,0-13.4-7.8,9.2-23.6c0,0-26.7,27.5-69.7,15.4c-43-12.1-93.5,5.8-93.5,5.8s-88.6,26.3-181.3-11.9
		c0,0,7.3,25.5-5.5,21.1c0,0-7.8-1.6-8.6-22.2c0,0-8.2,32.7-23.8,22.6s5.8-25.3,5.8-25.3s-39.5-7.9-78.5,6.6
		c-14.3,5.3-53,20.7-102.7-2.5c0,0-26.9-10.7-56.3,3.5c-26.2,12.7-40.5,0.3-40.5,0.3C7.5,466,9.8,459.3,15.8,452.8z"/>
	<g>
		<path class="st2" d="M9,462.9c0,0,28.3-83.6,363.2-78.2v74.7"/>
		<path class="st2" d="M733.2,459.5c0,0-29.3-80.1-364.1-74.7v74.7"/>
	</g>
	<path class="st3" d="M226.9,388.6c0,0-86.3,4.8-152.2,28.6c176.6,30.5,381,29.6,606.7,4.7c0,0-87.6-28.2-164-33.3
		c-76.5-5.1,0,0,0,0L226.9,388.6"/>
	<path class="st4" d="M246.5,387.3c0,0-274.2,51.8,272.8,36.3c0,0,121-1.6-13.8-35.6L246.5,387.3z"/>
</g>
<g id="Layer_1_1_">
	<rect x="373.7" y="2.8" width="5.6" height="161.2"/>
	<polygon id="XMLID_10_" class="st5" points="406.2,109.1 406.2,134.8 345.8,134.8 345.8,109.1 246.5,109.1 271.9,226.3 
		479.6,226.3 505.5,109.1 	"/>
	<polygon class="st6" points="539.8,182.1 494.6,343.3 262.4,343.3 217.1,182.1 275.9,182.1 275.9,219.7 338.3,219.7 338.3,182.1 
		426.8,182.1 426.8,219.7 489.1,219.7 489.1,182.1 	"/>
	<polygon class="st7" points="541.5,176.2 539.8,182.1 494.6,343.3 262.4,343.3 217.1,182.1 269.5,182.1 269.5,213.8 331.9,213.8 
		331.9,176.2 420.3,176.2 420.3,213.8 482.7,213.8 482.7,176.2 	"/>
	<polygon class="st6" points="553.7,272 491.7,408.6 253.2,408.6 191.1,272 267.4,272 267.4,303.8 332.2,303.8 332.2,272 420.3,272 
		420.3,303.8 486.4,303.8 486.4,272 	"/>
	<g id="ปืนอันที่">
		<path id="XMLID_11_" class="st8" d="M460.5,135.9l63.9,3.8V150v10.3l-63.9,3.8c-2.8,0-5-6.3-5-14.1
			C455.4,142.2,457.7,135.9,460.5,135.9z"/>
		<path id="XMLID_8_" class="st9" d="M529.4,150c0,5.6-2.3,10.3-5,10.3s-5-4.7-5-10.3s2.3-10.3,5-10.3S529.4,144.4,529.4,150z"/>
		<path id="XMLID_25_" class="st8" d="M291.3,135.9l-63.9,3.8V150v10.3l63.9,3.8c2.8,0,5-6.3,5-14.1S294,135.9,291.3,135.9z"/>
		<path id="XMLID_24_" class="st9" d="M222.3,150c0,5.6,2.3,10.3,5,10.3c2.8,0,5-4.7,5-10.3s-2.3-10.3-5-10.3
			C224.6,139.7,222.3,144.4,222.3,150z"/>
	</g>
	<g id="ปืนอันที่_2_">
		<path id="XMLID_17_" class="st10" d="M273.7,221l-71.1,5.2v14v14l71.1,5.2c3.1,0,5.6-8.6,5.6-19.2S276.8,221,273.7,221z"/>
		<path id="XMLID_1_" class="st11" d="M197,240.2c0,7.6,2.5,14,5.6,14s5.6-6.4,5.6-14s-2.5-14-5.6-14S197,232.6,197,240.2z"/>
		<path id="XMLID_27_" class="st10" d="M478.2,221l71.1,5.2v14v14l-71.1,5.2c-3.1,0-5.6-8.6-5.6-19.2S475.1,221,478.2,221z"/>
		<path id="XMLID_21_" class="st11" d="M555,240.2c0,7.6-2.5,14-5.6,14s-5.6-6.4-5.6-14s2.5-14,5.6-14S555,232.6,555,240.2z"/>
	</g>
	<polygon class="st12" points="555.9,267.1 554.7,269.8 553.7,272 491.7,408.6 253.2,408.6 191.1,272 190.2,269.8 261,269.8 
		261,299 325.8,299 325.8,267.1 413.9,267.1 413.9,299 480,299 480,267.1 	"/>
	<g id="ปืนอันที่_1_">
		<path id="XMLID_23_" class="st13" d="M260,323.1l-83.4,6.5v17.6v17.6l83.4,6.5c3.6,0,6.6-10.8,6.6-24.2S263.6,323.1,260,323.1z"/>
		<path id="XMLID_20_" class="st14" d="M170.1,347.3c0,9.6,2.9,17.6,6.6,17.6c3.6,0,6.6-8,6.6-17.6s-2.9-17.6-6.6-17.6
			C173,329.6,170.1,337.7,170.1,347.3z"/>
		<path id="XMLID_31_" class="st13" d="M492.6,323.1l83.4,6.5v17.6v17.6l-83.4,6.5c-3.6,0-6.6-10.8-6.6-24.2S489,323.1,492.6,323.1z
			"/>
		<path id="XMLID_28_" class="st14" d="M582.5,347.3c0,9.6-2.9,17.6-6.6,17.6s-6.6-8-6.6-17.6s2.9-17.6,6.6-17.6
			S582.5,337.7,582.5,347.3z"/>
	</g>
	<g>
		<path class="st15" d="M475.6,20.9c-0.5,0-0.9-0.1-1.1-0.7c-0.2-0.6,0-1.2,0.2-1.7c0,0,0-0.1,0.1-0.1c0.2,0.1,0.4,0.2,0.6,0.3v-0.1
			c-1.7-2-2.2-4.7-2.1-7.4c0,0.2-0.1,0.4-0.2,0.4c-0.2,0.2-0.4,0.7-0.7,0.8c-0.1,0-0.2,0-0.2,0c-0.1,0.1-0.2,0.1-0.2,0.2
			c0,0,0,0,0-0.1v-0.1c-0.2,0-0.5-0.1-0.7-0.1c-0.1,0,0.2-0.6,0.2-0.6c0.3-0.3,0.5-0.6,0.8-0.9l0,0c-0.1-0.3,0-0.7,0-1.1
			c0-0.1,0.2-0.7,0.4-0.6c0.1,0.1,0.2,0.1,0.3,0.2c0-0.2-0.1-0.4-0.1-0.6c-0.1-0.1-0.3-0.2-0.3-0.4c0-0.9-0.2-1.7-0.4-2.6
			c-15.4,6.2-38.3,2.1-38.3,2.1c-0.2-3.6-2-5.8-5-7l0,0c-0.1,0.1-0.2,0.1-0.3,0.2c0,0,0-0.1,0-0.2c-0.1,0-0.1,0-0.2,0
			c0.2,0.2,0.4,0.3,0.6,0.5c0.1,0.1,0.1,0.7-0.1,0.7c-0.4,0.1-0.7,0.1-1.1,0c0,0.1,0,0.1-0.1,0.1L427.6,2c-1.6-0.1-3.1-0.8-4.7-1.2
			c0,0.1,0.1,0.3,0.1,0.4c0,0.1,0,0.7-0.1,0.6c-0.2-0.1-0.5-0.1-0.8-0.3c-0.2,0.1-0.5,0.1-1-0.2c-0.1-0.1-0.1-0.7,0-0.7
			s0.1-0.1,0.2-0.1c-0.1,0-0.2,0-0.3,0c0,0.1,0,0.1-0.1,0.1l-0.1-0.1c-0.1,0-0.2,0-0.4,0c0,0.1,0,0.1-0.1,0.1
			c-0.4-0.1-0.7-0.2-1.1-0.2c0,0-0.1-0.1-0.1-0.2l-4-0.2c-15.4,2.1-42.2,10.2-42.2,10.2s10.4,3.4,11.8,4.7c1.4,1.4,2.8,33-2.8,39.4
			c-8,9.1-9,12.1-9,12.1c7.8-3.5,14.5-6.3,20.4-8.6c0.8-0.5,1.5-1,2.4-1.3c0.5-0.2,0.9-0.3,1.4-0.5c1-0.4,2-0.8,2.9-1.2
			c1.2-0.5,2.5-1.1,3.7-1.5c1.6-1.8,3.6-3.1,5.6-4.4c0.1-0.1,0.1,0.1,0.1,0.2s0,0.3,0,0.4c0.9-1.2,2-2.2,2.4-3.7
			c0-0.1,0.1-0.1,0.1,0c0.2,1.4-0.1,2.6-1.1,3.4c-0.5,0.5-1,0.9-1.6,1.4c-0.3,1-1.1,1.8-2.1,2.4c38.1-12,15,12.5,15,12.5
			c5.1,1.4,15.1,1,25,0.1c0.6-0.8,1.3-1.4,2.2-1.9c0.1-0.1,0.2-0.1,0.3,0c0.1,0,0.1-0.1,0.2-0.1c0-0.1,0-0.3,0.1-0.4
			c0.2-0.1,0.3-0.2,0.5-0.2c0.8-0.7,1.7-1.3,2.8-1.6c-0.1-0.6-0.1-1.3,0-1.9c0-0.5-0.3-1.3,0-1.8c0.1-0.2,0.2-0.3,0.3-0.4
			c0-0.1-0.1-0.3-0.1-0.4c-0.5-0.7-0.5-2,0-2.6c0-0.2,0-0.4,0.1-0.6c0.1-0.4,0.1,0,0.1,0.2c0,0.6,0,1.1,0.2,1.7v0.1
			c0.1,0,0.1,0.1,0.1,0.1c0.1,0.2,0.2,0.4,0.2,0.7c0.3-0.4,0.6-0.7,0.9-1.2c0.4-0.9,0.7-1.7,1-2.6c0-0.1,0.1-0.2,0.2-0.2
			c0-0.1,0-0.2,0.1-0.3c0.1-0.1,0.1-0.1,0.2-0.2c0,0,0.1,0,0.1-0.1c0,0,0,0,0-0.1c0-0.2,0.1-0.4,0.2-0.1c0,0.2,0,0.5-0.1,0.7
			c0.1,0.1,0.2,0.2,0.1,0.4c-0.2,0.7-0.4,1.5-0.6,2.2c0.1,0.1,0.2,0.2,0.1,0.4v0.1l0,0c0.2,1.6,0,2.5-0.6,3.8
			c-0.2,0.8-0.5,1.6-0.8,2.5c0,0,0,0.1,0,0.2c0,0.6-0.1,0.8-0.5,1c-0.1,0.2-0.2,0.4-0.3,0.6l0,0c0.1,0.1,0.1,0.3,0.1,0.4
			c-0.2,0.4-0.5,0.7-0.8,1c9.2-1,17.5-2.4,20.5-2.8c0.1-0.4,0.3-0.8,0.6-1.2c0-0.1,0-0.1,0-0.2l0,0c-0.3-0.2-0.3-0.5-0.3-0.8
			c0-0.2,0.1-0.3,0.2-0.5c0,0,0.2-0.2,0.2-0.1s0,0.2,0.1,0.4c0-0.1,0-0.1,0-0.2c-0.1-0.4-0.1-0.7,0.1-1c0-0.3-0.1-0.6-0.3-0.8
			c-0.1-0.1,0.3-0.7,0.4-0.6c0.1,0.2,0.2,0.4,0.2,0.7c0,0,0.1-0.1,0.1,0c0,0,0,0.1,0.1,0.1l0.1-0.1c0-0.1,0.1-0.3,0.2-0.4
			c0,0,0.2-0.3,0.2-0.2c0,0.1,0,0.1,0,0.2l0,0C476.6,43.6,476.3,30.6,475.6,20.9z M467,16.9c-0.1,0.2-0.1,0.4-0.2,0.6c0,0,0,0,0-0.1
			c0,0.1,0,0.1-0.1,0.2c-0.3,0.8-0.6,1.6-0.9,2.3c-0.1,0.4-0.2,0.7-0.3,1.1c0,0.1,0,0.2,0,0.2c-0.2,1.6-0.7,3.1-1.4,4.6
			c-0.1,0.3-0.2,0.5-0.4,0.7c-0.4,0.7-0.8,1.3-1.2,1.9l0,0c-0.2,0.2-0.4,0.5-0.5,0.7c-0.1,0.3-0.3,0.7-0.5,1l0,0
			c0,0.1-0.1,0.2-0.1,0.3c0,0.2-0.1,0.3-0.2,0.5c-0.1,0.1-0.1,0.1-0.1-0.1v-0.1c-0.2,0.3-0.3,0.6-0.5,1c-0.1,0.1-0.1-0.5,0-0.6l0,0
			c0-0.2,0-0.4,0-0.5c0.3-0.7,0.7-1.4,1.1-2.1c0.3-1.1,0.8-2.1,1.3-3c0.1-0.3,0.3-0.7,0.5-1c0.1-0.3,0.3-0.5,0.4-0.8
			c0.3-1,0.7-1.9,1.3-2.7l0,0v-0.5v-0.1c-0.1,0.2-0.3,0.4-0.2,0.1c0.2-0.6,0.5-1.1,0.8-1.6c0-0.2,0-0.3,0-0.5c0-0.1,0-0.3,0.1-0.4
			c0-0.1,0-0.2,0-0.3c0-0.5,0.2-0.1,0.1,0.2c0,0.2,0,0.3-0.1,0.5c0.2-0.3,0.4-0.7,0.5-1C466.7,17.2,467.1,16.6,467,16.9z"/>
		<path class="st16" d="M433.7,8.5c0,0,0.2,0.7,0.4,2.1c0.2,1.3,0.5,3.2,0.7,5.5c0.1,1.1,0.2,2.4,0.3,3.7c0.1,1.3,0.1,2.7,0.1,4.1
			s0,2.9,0,4.4s-0.2,3-0.2,4.6c-0.1,1.5-0.3,3-0.5,4.5s-0.4,3-0.7,4.4c-0.3,1.4-0.6,2.8-0.9,4c-0.3,1.3-0.7,2.5-1,3.6
			c-0.4,1.1-0.8,2.1-1.1,2.9c-0.3,0.9-0.7,1.6-1,2.2c-0.6,1.2-0.9,1.9-0.9,1.9s0.2-0.7,0.5-2c0.1-0.3,0.2-0.7,0.3-1.1
			c0.1-0.2,0.1-0.4,0.2-0.6c0-0.2,0.1-0.4,0.1-0.7c0.2-0.9,0.4-1.9,0.7-3c0.2-1.1,0.4-2.3,0.6-3.6c0.2-1.3,0.4-2.6,0.6-4
			s0.3-2.8,0.5-4.3c0.1-1.5,0.3-3,0.4-4.5s0.3-3,0.3-4.5c0.1-1.5,0.2-2.9,0.2-4.3c0.1-1.4,0.1-2.8,0.2-4.1c0-1.3,0.1-2.5,0.1-3.7
			C433.6,11.5,433.7,8.5,433.7,8.5"/>
		<path class="st15" d="M422.1,66c0,0,2-9.1,0.6-16.1C422.7,49.9,438.1,48,422.1,66"/>
		<path class="st17" d="M422.1,66c0,0,2.1-9.3,0.6-16.2C422.7,49.7,438.1,48,422.1,66"/>
	</g>
</g>
</svg>
