<?xml version="1.0" encoding="utf-8"?>
<!-- Generator: Adobe Illustrator 19.2.0, SVG Export Plug-In . SVG Version: 6.00 Build 0)  -->
<svg version="1.1" id="Layer_1" xmlns="http://www.w3.org/2000/svg" xmlns:xlink="http://www.w3.org/1999/xlink" x="0px" y="0px"
	 viewBox="0 0 768.5 760.6" style="enable-background:new 0 0 768.5 760.6;" xml:space="preserve">
<style type="text/css">
	.st0{fill:#303B59;}
	.st1{display:none;fill:#FFFFFF;stroke:#000000;stroke-miterlimit:10;}
	.st2{fill:#3B393D;}
	.st3{fill:#3B4B6B;}
	.st4{fill:#636566;stroke:#414042;stroke-miterlimit:10;}
	.st5{fill:#58595B;}
	.st6{fill:#7C7E7F;}
	.st7{fill:#6D6E71;}
	.st8{fill:#475D7F;}
	.st9{fill:#8F9193;}
	.st10{fill:#808285;}
	.st11{display:none;fill:#861719;}
	.st12{fill:#861719;}
	.st13{fill:#2C1010;}
	.st14{fill:#333333;}
</style>
<rect x="379.4" y="4.6" width="10.5" height="300.4"/>
<polygon id="XMLID_10_" class="st0" points="440,202.6 440,250.6 327.4,250.6 327.4,202.6 142.4,202.6 189.7,421.1 576.7,421.1 
	625,202.6 "/>
<polygon id="XMLID_4_" class="st1" points="547.2,177.6 547.2,226.6 438.7,226.6 438.7,177.6 383.9,177.6 383.8,177.6 329,177.6 
	329,226.6 220.5,226.6 220.5,177.6 151.3,177.6 184,408.4 383.8,408.4 383.9,408.4 583.7,408.4 616.4,177.6 "/>
<polygon class="st2" points="688.9,338.6 604.6,639 172,639 87.7,338.6 197.2,338.6 197.2,408.7 313.4,408.7 313.4,338.6 
	478.3,338.6 478.3,408.7 594.4,408.7 594.4,338.6 "/>
<polygon class="st3" points="692,327.6 688.9,338.6 604.6,639 172,639 87.7,338.6 185.2,338.6 185.2,397.7 301.4,397.7 301.4,327.6 
	466.3,327.6 466.3,397.7 582.4,397.7 582.4,327.6 "/>
<polygon class="st2" points="714.8,506.1 599.2,760.6 154.9,760.6 39.2,506.1 181.4,506.1 181.4,565.4 302.1,565.4 302.1,506.1 
	466.2,506.1 466.2,565.4 589.4,565.4 589.4,506.1 "/>
<polygon id="XMLID_2_" class="st1" points="507.9,124 388.9,113.6 388.9,85.6 507.9,85.6 "/>
<polygon id="XMLID_9_" class="st1" points="660.9,450.6 287.9,450.6 242.3,227.6 707.4,227.6 "/>
<polygon id="XMLID_5_" class="st1" points="622.6,128.7 622.6,147.8 622.6,166.9 503.6,174 503.6,147.8 503.6,121.6 "/>
<g id="ปืนอันที่">
	<path id="XMLID_11_" class="st4" d="M541.1,252.6l119,7.1v19.1v19.1l-119,7.1c-5.2,0-9.4-11.7-9.4-26.2S535.9,252.6,541.1,252.6z"
		/>
	<path id="XMLID_8_" class="st5" d="M669.5,278.8c0,10.4-4.2,19.1-9.4,19.1s-9.4-8.7-9.4-19.1c0-10.4,4.2-19.1,9.4-19.1
		S669.5,268.4,669.5,278.8z"/>
	<path id="XMLID_25_" class="st4" d="M225.8,252.6l-119,7.1v19.1v19.1l119,7.1c5.2,0,9.4-11.7,9.4-26.2S231,252.6,225.8,252.6z"/>
	<path id="XMLID_24_" class="st5" d="M97.4,278.8c0,10.4,4.2,19.1,9.4,19.1s9.4-8.7,9.4-19.1c0-10.4-4.2-19.1-9.4-19.1
		S97.4,268.4,97.4,278.8z"/>
</g>
<g id="ปืนอันที่_2_">
	<path id="XMLID_17_" class="st6" d="M193.1,411.2l-132.5,9.7v26v26l132.5,9.7c5.8,0,10.5-16,10.5-35.7
		C203.6,427.1,198.9,411.2,193.1,411.2z"/>
	<path id="XMLID_1_" class="st7" d="M50.1,446.9c0,14.1,4.7,26,10.5,26s10.5-11.9,10.5-26c0-14.1-4.7-26-10.5-26
		C54.8,420.8,50.1,432.7,50.1,446.9z"/>
	<path id="XMLID_27_" class="st6" d="M574.2,411.2l132.5,9.7v26v26l-132.5,9.7c-5.8,0-10.5-16-10.5-35.7
		C563.7,427.1,568.4,411.2,574.2,411.2z"/>
	<path id="XMLID_21_" class="st7" d="M717.2,446.9c0,14.1-4.7,26-10.5,26s-10.5-11.9-10.5-26c0-14.1,4.7-26,10.5-26
		S717.2,432.7,717.2,446.9z"/>
</g>
<polygon class="st8" points="718.9,497.1 716.7,502.1 714.8,506.1 599.2,760.6 154.9,760.6 39.2,506.1 37.4,502.1 169.4,502.1 
	169.4,556.4 290.1,556.4 290.1,497.1 454.2,497.1 454.2,556.4 577.4,556.4 577.4,497.1 "/>
<g id="ปืนอันที่_1_">
	<path id="XMLID_23_" class="st9" d="M167.6,601.3L12.2,613.5v32.8v32.8l155.3,12.2c6.8,0,12.3-20.2,12.3-45.1
		S174.3,601.3,167.6,601.3z"/>
	<path id="XMLID_20_" class="st10" d="M0,646.4c0,17.9,5.5,32.8,12.3,32.8s12.3-15,12.3-32.8c0-17.9-5.5-32.8-12.3-32.8
		S0,628.5,0,646.4z"/>
	<path id="XMLID_31_" class="st9" d="M600.9,601.3l155.3,12.2v32.8v32.8l-155.3,12.3c-6.8,0-12.3-20.2-12.3-45.1
		S594.2,601.3,600.9,601.3z"/>
	<path id="XMLID_28_" class="st10" d="M768.5,646.4c0,17.9-5.5,32.8-12.3,32.8s-12.3-15-12.3-32.8c0-17.9,5.5-32.8,12.3-32.8
		S768.5,628.5,768.5,646.4z"/>
</g>
<path class="st11" d="M391.8,68.1c0,0,70.3-33.8,72.8-7.3c0,0,34.4,4.3,54.9-6.7c0,0,8,36.9,5,76.3c0,0-54.9,12-71.8,8.3
	c0,0,44.2-50.8-67.2,4.7c0,0,1.1-4.2,11.5-16.8c7.3-8.9,3.1-51,1.1-52.8C396.1,72,391.8,68.1,391.8,68.1z"/>
<g>
	<path class="st12" d="M569.2,38.3c-0.9,0-1.7-0.2-2-1.2s0-2.3,0.3-3.2l0.1-0.2c0.4,0.2,0.7,0.4,1.1,0.6c0-0.1,0-0.2,0-0.2
		c-3.3-3.7-4.2-8.8-3.9-13.8c-0.1,0.3-0.3,0.7-0.4,0.8c-0.3,0.4-0.8,1.3-1.4,1.4c-0.1,0-0.3,0-0.4,0.1c-0.1,0.1-0.3,0.2-0.4,0.3
		c-0.1,0-0.1-0.1-0.1-0.1c0-0.1,0-0.1,0-0.2c-0.5,0-0.9-0.1-1.3-0.1c-0.2,0,0.4-1,0.4-1.1c0.5-0.6,1-1.2,1.5-1.8l0,0
		c-0.2-0.7-0.1-1.4,0-2c0-0.2,0.4-1.2,0.7-1.1c0.2,0.1,0.3,0.2,0.5,0.3c-0.1-0.4-0.1-0.7-0.2-1.1c-0.3-0.1-0.5-0.4-0.5-0.7
		c0-1.7-0.3-3.2-0.7-4.8c-28.7,11.6-71.4,3.9-71.4,3.9c-0.3-6.7-3.8-10.8-9.3-13v0.1c-0.1,0.2-0.4,0.2-0.6,0.3c0,0,0-0.1-0.1-0.3
		c-0.1,0-0.3,0-0.4,0.1c0.4,0.3,0.8,0.6,1.2,1c0.2,0.2,0.1,1.3-0.1,1.4c-0.7,0.1-1.3,0.1-2,0.1c0,0.1-0.1,0.2-0.1,0.1
		c-0.1-0.1-0.1-0.1-0.2-0.2c-2.9-0.2-5.8-1.4-8.7-2.2c0.1,0.3,0.2,0.5,0.2,0.8c0,0.1,0,1.3-0.2,1.2c-0.3-0.1-1-0.3-1.4-0.5
		c-0.3,0.2-0.9,0.2-1.9-0.3c-0.2-0.1-0.2-1.3,0.1-1.4c0.1-0.1,0.2-0.1,0.3-0.2c-0.2,0-0.4,0-0.6,0c0,0.1-0.1,0.2-0.1,0.2
		c-0.1-0.1-0.1-0.1-0.2-0.2c-0.2,0-0.4,0-0.7,0c0,0.1-0.1,0.2-0.1,0.2c-0.7-0.1-1.4-0.3-2-0.5c-0.1,0-0.1-0.2-0.1-0.4L456.6,0
		C427.9,3.9,378,18.9,378,18.9s19.4,6.2,22,8.8s5.2,61.5-5.2,73.3c-14.9,16.9-16.8,22.6-16.8,22.6c14.5-6.5,27-11.8,37.9-16.1
		c1.4-1,2.8-1.9,4.4-2.5c0.9-0.3,1.7-0.6,2.6-0.9c1.8-0.8,3.7-1.5,5.5-2.3c2.3-1,4.6-2,6.9-2.8c3-3.3,6.8-5.7,10.4-8.3
		c0.1-0.1,0.1,0.3,0.2,0.3c0,0.3,0,0.5,0,0.8c1.8-2.2,3.7-4.1,4.5-7c0.1-0.2,0.2-0.2,0.2,0c0.4,2.6-0.1,4.8-2.1,6.3
		c-1,0.9-1.9,1.8-3,2.6c-0.6,1.8-2.1,3.3-3.9,4.5c70.9-22.4,28,23.4,28,23.4c9.4,2.7,28.1,1.9,46.6,0.2c1.1-1.4,2.5-2.6,4-3.6
		c0.2-0.1,0.4-0.1,0.5,0c0.1-0.1,0.2-0.2,0.3-0.3c-0.1-0.2,0-0.5,0.2-0.7c0.3-0.2,0.6-0.3,1-0.3c1.6-1.3,3.3-2.4,5.3-3.1
		c-0.1-1.2-0.1-2.4-0.1-3.6c0-1-0.6-2.5-0.1-3.3c0.2-0.3,0.4-0.6,0.6-0.8c0-0.3-0.1-0.5-0.2-0.8c-0.9-1.3-1-3.7-0.1-4.8
		c0-0.3,0.1-0.7,0.1-1c0.1-0.7,0.3,0.1,0.3,0.4c-0.1,1.1,0,2.1,0.3,3.1c0,0,0,0.1,0,0.2c0.1,0.1,0.2,0.1,0.2,0.3
		c0.2,0.4,0.3,0.8,0.4,1.2c0.6-0.7,1.2-1.4,1.6-2.2c0.8-1.6,1.3-3.2,1.8-4.9c0.1-0.2,0.2-0.3,0.3-0.4c0-0.2,0-0.4,0.1-0.5
		c0.1-0.1,0.2-0.2,0.3-0.3c0.1-0.1,0.1-0.1,0.1-0.1v-0.1c0-0.4,0.3-0.7,0.3-0.2s0,0.9-0.1,1.3c0.2,0.2,0.3,0.4,0.2,0.7
		c-0.4,1.4-0.8,2.7-1.1,4.1c0.2,0.2,0.3,0.4,0.2,0.7c0,0.1,0,0.2-0.1,0.2c0,0,0,0,0,0.1c0.4,2.9,0.1,4.7-1.2,7
		c-0.4,1.5-0.9,3.1-1.5,4.6c0,0.1,0.1,0.2,0.1,0.3c-0.1,1-0.2,1.5-1,1.9c-0.2,0.4-0.4,0.7-0.6,1.1l0,0c0.2,0.2,0.2,0.5,0.1,0.7
		c-0.3,0.7-0.9,1.3-1.5,1.8c17.2-1.9,32.6-4.4,38.1-5.3c0.1-0.8,0.5-1.6,1-2.3c0-0.1,0-0.2,0-0.4h-0.1c-0.5-0.4-0.6-0.9-0.6-1.5
		c0-0.3,0.2-0.6,0.4-0.9c0.1-0.1,0.3-0.4,0.3-0.1c0,0.2,0,0.5,0.1,0.7c0-0.1,0-0.2,0-0.4c-0.1-0.7-0.1-1.3,0.1-1.8
		c-0.1-0.6-0.3-1.1-0.5-1.6c-0.2-0.3,0.6-1.3,0.7-1.2c0.2,0.4,0.4,0.8,0.5,1.2c0.1-0.1,0.1-0.1,0.2-0.1c0,0.1,0.1,0.1,0.1,0.2
		c0.1-0.1,0.1-0.2,0.2-0.2c0-0.2,0.2-0.6,0.3-0.7c0,0,0.3-0.5,0.4-0.3c0,0.1,0,0.2,0.1,0.3c0,0,0,0,0.1-0.1
		C571.1,80.7,570.5,56.3,569.2,38.3z M553.2,30.9c-0.1,0.4-0.2,0.7-0.4,1.1c0,0,0-0.1,0.1-0.1c0,0.1-0.1,0.2-0.1,0.3
		c-0.5,1.5-1.1,2.9-1.6,4.4c-0.2,0.7-0.3,1.4-0.5,2c0,0.2,0,0.4,0,0.4c-0.3,3-1.3,5.9-2.7,8.5c-0.2,0.5-0.4,0.9-0.7,1.4
		c-0.7,1.2-1.4,2.4-2.2,3.6c0,0.1-0.1,0-0.1-0.1c-0.3,0.4-0.7,0.9-1,1.3c-0.3,0.6-0.6,1.2-0.9,1.8c0,0-0.1,0-0.1-0.1
		c-0.1,0.2-0.1,0.4-0.2,0.6c-0.1,0.3-0.2,0.6-0.5,0.9c-0.2,0.2-0.3,0.1-0.2-0.1c0-0.1,0.1-0.1,0.1-0.2c-0.3,0.6-0.6,1.2-1,1.8
		c-0.1,0.3-0.2-1-0.1-1.2l0,0c0-0.3-0.1-0.8,0-1c0.6-1.3,1.3-2.6,2.1-3.9c0.6-2,1.5-3.8,2.5-5.7c0.2-0.6,0.6-1.2,0.9-1.8
		c0.2-0.5,0.5-0.9,0.7-1.4c0.6-1.8,1.2-3.5,2.4-5c0,0,0,0,0.1,0v-0.9c0-0.1,0-0.2,0.1-0.3c-0.2,0.4-0.6,0.8-0.4,0.2
		c0.4-1,1-2,1.6-2.9c0-0.3,0.1-0.6,0.1-0.9s0.1-0.6,0.2-0.8c0-0.2,0-0.3,0.1-0.5c0.1-1,0.3-0.1,0.3,0.4c0,0.3-0.1,0.6-0.1,1
		c0.4-0.6,0.7-1.3,0.9-1.9C552.6,31.5,553.4,30.3,553.2,30.9z"/>
	<path class="st13" d="M491.1,15.2c0,0,0.3,1.4,0.7,3.8c0.4,2.5,0.9,6,1.3,10.2c0.2,2.1,0.4,4.4,0.5,6.9c0.1,2.4,0.3,5,0.2,7.7
		c0,2.7,0,5.4-0.1,8.2c0,2.8-0.3,5.6-0.4,8.5c-0.2,2.8-0.6,5.7-0.9,8.5c-0.4,2.8-0.8,5.5-1.3,8.1s-1,5.2-1.6,7.5
		c-0.6,2.4-1.3,4.6-1.9,6.6c-0.7,2-1.4,3.9-2,5.5c-0.5,1.6-1.3,3-1.8,4.1c-1.1,2.2-1.7,3.5-1.7,3.5s0.3-1.4,1-3.8
		c0.2-0.6,0.3-1.2,0.5-2c0.1-0.4,0.2-0.7,0.3-1.1c0.1-0.4,0.2-0.8,0.3-1.2c0.4-1.7,0.8-3.6,1.2-5.6c0.4-2.1,0.7-4.3,1.2-6.7
		c0.4-2.4,0.7-4.9,1.1-7.5c0.3-2.6,0.5-5.3,0.9-8c0.2-2.7,0.5-5.5,0.7-8.3s0.5-5.6,0.6-8.3c0.1-2.8,0.3-5.5,0.4-8.1
		c0.1-2.6,0.2-5.2,0.3-7.6s0.2-4.7,0.2-6.8C491,20.8,491.1,15.2,491.1,15.2"/>
	<path class="st12" d="M469.6,122.3c0,0,3.8-17,1.1-29.9C470.7,92.4,499.4,88.8,469.6,122.3"/>
	<path class="st14" d="M469.6,122.3c0,0,3.8-17.3,1.1-30.3C470.7,92,499.4,88.8,469.6,122.3"/>
</g>
</svg>
