<?xml version="1.0" encoding="utf-8"?>
<!-- Generator: Adobe Illustrator 19.2.0, SVG Export Plug-In . SVG Version: 6.00 Build 0)  -->
<svg version="1.1" id="Layer_1" xmlns="http://www.w3.org/2000/svg" xmlns:xlink="http://www.w3.org/1999/xlink" x="0px" y="0px"
	 viewBox="0 0 677.9 708.9" style="enable-background:new 0 0 677.9 708.9;" xml:space="preserve">
<style type="text/css">
	.st0{display:none;}
	.st1{display:inline;fill:#475D7F;}
	.st2{display:inline;fill:#8F9193;}
	.st3{display:inline;fill:#808285;}
	.st4{display:inline;fill:#3D506B;}
	.st5{display:inline;fill:#FFFFFF;}
	.st6{fill:#352106;}
	.st7{fill:#442C08;}
	.st8{fill:#0C3A1D;}
	.st9{fill:#0F4926;}
	.st10{fill:#177742;}
	.st11{display:inline;fill:#212B38;}
	.st12{fill:#FFFFFF;}
	.st13{fill:none;stroke:#A8A08A;stroke-miterlimit:10;}
	.st14{fill:#190C00;}
	.st15{fill:#682F00;}
	.st16{fill:#86CC60;}
	.st17{fill:#64B73E;}
	.st18{fill:#F7D092;}
	.st19{opacity:0.36;fill:#B7B7B7;enable-background:new    ;}
	.st20{fill:#F8A05E;}
	.st21{fill:#FDD6B1;}
	.st22{opacity:0.36;}
	.st23{fill:#B7B7B7;}
	.st24{fill:#60960C;}
	.st25{fill:#2B3F01;}
	.st26{fill:#161E01;}
	.st27{fill:#565656;}
	.st28{fill:#ED0000;}
	.st29{opacity:0.4;fill:#B7B7B7;enable-background:new    ;}
	.st30{fill:#295110;}
	.st31{fill:#F9F9F9;}
	.st32{fill:#EACC18;}
	.st33{opacity:0.5;fill:#929292;enable-background:new    ;}
	.st34{fill:#514603;}
	.st35{fill:#77E032;}
	.st36{display:none;fill:#AA0909;}
	.st37{display:none;fill:#700505;}
	.st38{display:none;fill:#324256;}
	.st39{fill:#324256;}
	.st40{fill:#273442;}
	.st41{fill:#23303A;}
	.st42{fill:#5F7EA3;}
	.st43{fill:#48617A;}
	.st44{display:inline;fill:#324256;}
	.st45{fill:#314056;}
	.st46{fill:#475D7F;}
	.st47{fill:#666666;}
	.st48{fill:#919191;}
	.st49{fill:#212B38;}
	.st50{fill:#3D506B;}
</style>
<g id="Layer_1_1_" class="st0">
	<polygon class="st1" points="590.7,346.3 589,350.4 587.6,353.6 495.7,556 142.3,556 50.3,353.6 49,350.4 153.9,350.4 153.9,393.6 
		249.9,393.6 249.9,346.3 380.5,346.3 380.5,393.6 478.3,393.6 478.3,346.3 	"/>
</g>
<g id="Layer_2" class="st0">
	<path id="XMLID_5_" class="st2" d="M274.4,354L88.5,311.5l-7.6,26.7l-7.6,26.7L253.5,427c8,2.3,19.1-12.4,25-32.8
		C284.2,374.3,282.2,356.3,274.4,354z"/>
	<path id="XMLID_4_" class="st3" d="M66.6,334.5c-4.2,14.6-1.3,28.5,6.8,30.8s17.9-8,22-22.6s1.3-28.5-6.8-30.8
		C80.8,309.2,70.9,319.7,66.6,334.5z"/>
	<rect x="249.9" y="346.3" class="st1" width="79.1" height="156.7"/>
	<rect x="130.3" y="394.3" class="st1" width="130" height="97.3"/>
	<path id="XMLID_2_" class="st2" d="M357,354.1l185.9-42.6l7.6,26.7l7.6,26.7l-180.3,62.2c-8,2.3-19.1-12.4-25-32.8
		C347.2,374.3,349.2,356.3,357,354.1z"/>
	<path id="XMLID_1_" class="st3" d="M564.7,334.5c4.2,14.6,1.3,28.5-6.8,30.8s-17.9-8-22-22.6s-1.3-28.5,6.8-30.8
		C550.6,309.3,560.5,319.7,564.7,334.5z"/>
	<rect x="302.4" y="346.4" class="st1" width="79.1" height="156.7"/>
	<rect x="371.1" y="394.4" class="st1" width="130" height="97.3"/>
	<polygon class="st4" points="357.7,193.6 672.7,193.6 672.7,74.6 357.7,-16.4 	"/>
</g>
<g id="_xE49_รกำ" class="st0">
	<polygon class="st1" points="189.7,77.6 189.7,32.2 157.7,41.4 157.7,86.4 	"/>
	<polygon class="st1" points="261.7,57.6 261.7,11.4 222.3,22.7 222.3,68.5 	"/>
	<polygon class="st1" points="125,95.5 125,50.9 93.7,59.9 93.7,104.2 	"/>
	<polygon class="st1" points="61,69.3 42.7,74.6 42.7,118.3 61,113.2 	"/>
	<polygon class="st1" points="294.3,1.9 294.3,48.5 357.7,31 357.7,-16.4 	"/>
	<polygon class="st5" points="93.7,104.2 93.7,59.9 61,69.3 61,113.2 	"/>
	<polygon class="st5" points="157.7,86.4 157.7,41.4 125,50.9 125,95.5 	"/>
	<polygon class="st5" points="222.3,68.5 222.3,22.7 189.7,32.2 189.7,77.6 	"/>
	<polygon class="st5" points="294.3,48.5 294.3,1.9 261.7,11.4 261.7,57.6 	"/>
	<polygon class="st1" points="294.3,88.6 261.7,88.6 261.7,57.6 222.3,68.5 222.3,108.3 189.7,108.3 189.7,77.6 157.7,86.4 
		157.7,119.6 125,119.6 125,95.5 93.7,104.2 93.7,126.3 61,126.3 61,113.2 42.7,118.3 42.7,193.6 357.7,193.6 357.7,31 294.3,48.5 	
		"/>
	<polygon class="st1" points="61,126.3 93.7,126.3 93.7,104.2 61,113.2 	"/>
	<polygon class="st1" points="125,119.6 157.7,119.6 157.7,86.4 125,95.5 	"/>
	<polygon class="st1" points="189.7,108.3 222.3,108.3 222.3,68.5 189.7,77.6 	"/>
	<polygon class="st1" points="261.7,88.6 294.3,88.6 294.3,48.5 261.7,57.6 	"/>
</g>
<g id="Layer_9">
	<g id="Layer_2_1_">
		<g>
			<path class="st6" d="M10.4,645.6c0,0-24.4,41.9,5.3,50.7s341.4,23.5,638.3,0c13-1.1,38.5-17.5,12.3-50.7
				c-5.9-7.5-104.3-9.3-223.1-8.5c-7.9,0-16,0.1-24,0.1c-8.1,1.1-16.2-0.5-24.4,0.3c-8.2,0.3-16.4-1.2-24.7,0.3
				c-8.3-0.1-16.5,0.3-24.8,0.3C178.7,640.6,10.4,645.6,10.4,645.6z"/>
			<path class="st7" d="M676.5,679.3c0,0,9.4-36.7-21-45.5c-30.4-8.7-310.7-33.2-622.1-5.2c-13.2,1.2-31.8,10.2-33.3,49
				c-0.3,6.6,181.9,11.9,357.3,10.6C519.7,687,676.5,679.3,676.5,679.3z"/>
			<path class="st8" d="M676.5,653.3c0,0,4.2-22.9-26.2-31.7c-30.4-8.7-283.6-11.7-594.4-5.2c-13.4,0.3-42.2-2.5-48.9,29.9
				c-0.8,3.7,3.4,13.4,28.7,15.3c4.2,0.3,19.1-11.2,23.9-6c4.8-2.5,9.8-9.4,15.2,0.8c5.3-14.2,10.9-6.1,16.7,0.7
				c5.9,13.4,11.9-11.5,18.2,0.5c6.3-8.2,12.7,5.9,19.4,0.5c6.7,9.3,13.5,0.3,20.5,0.4c12.3,0.1,25.1,7.2,38.4,7.4
				c6.6,0,13.4-6.8,20.1-6.8c6.8-0.8,13.7-5.1,20.6,0.1c7-5.1,14.1,3.7,21.2,0c7.1-3.4,14.2-2.9,21.4,0c7.2-3.5,14.5-4.8,21.7,0
				c7.2-1.6,14.6-2.6,22-0.1c7.4,0,14.7-0.1,22-0.1c4.6,0,9.1-0.1,13.8-0.1c4.6-2.7,9.1-2,13.8-0.1c4.6,0.3,9.1,4.1,13.8-0.1
				c4.6,2.5,9.1-2.2,13.7-0.1c4.5-0.7,9.1,1.1,13.7-0.1c4.5,3.8,9,8.3,13.5,6.7c4.5,0,9-7.1,13.4-7.1c7.8-0.1,15.6-0.3,23.1-0.3
				c7.6,1.9,15.2,3.3,22.5-0.4c7.4-4.2,14.7,16,22-0.4c7.2,9.8,14.2,11.5,21.2-0.4c7-7.2,13.7-6.8,20.3-0.4
				c6.6,2.6,13.1-4.5,19.4-0.4c6.3-1.6,12.3,2.3,18.3-0.4c3-2.2,5.9-2,8.7-1.5c2.9,0.5,5.6,1.5,8.3,1.1c2.7,1.2,5.5,2.7,8.1-0.1
				c2.6-3.3,5.2-5.3,7.6-0.1c8.1-2,15.4,4.8,22.1,4.6c6.7-0.3,12.7-9.4,18-5.6c5.3-0.7,9.7-5.2,13.4-0.3c3.7-0.1,6.4-0.1,8.3-0.3
				C675.4,653.4,676.5,653.3,676.5,653.3z"/>
			<path class="st9" d="M25.7,620.6c0,0,4.1,12.4,22,13.5c28.4,1.8,294.8,7.4,584.9,1.1c12.4-0.3,22.9-2.6,24.3-11.3
				c0.3-1.5-171.5-2.3-334.8-2C170.5,622.3,25.7,620.6,25.7,620.6z"/>
			<path class="st10" d="M176.9,558c-81.4,0-101.8,37.8-151.3,62.7l372.2,2.3C358.8,604.4,258.3,558,176.9,558z"/>
			<path class="st10" d="M451.5,538.6c-108.7,0-149.8,50.4-215.7,83.7L657,624C608.4,602.3,560.2,538.6,451.5,538.6z"/>
		</g>
	</g>
</g>
<g id="Layer_5" class="st0">
</g>
<g id="Layer_6" class="st0">
	<polygon class="st11" points="1000,112 1032.7,112 1032.7,25.1 1000,60.7 	"/>
	<polygon class="st11" points="936,80.1 968.7,80.1 968.7,-6.8 936,28.7 	"/>
	<polygon class="st11" points="871.3,47.8 904,47.8 904,-39 871.3,-3.5 	"/>
	<polygon class="st11" points="799.3,11.9 832,11.9 832,-75 799.3,-39.4 	"/>
	<polygon class="st4" points="1032.7,25.1 1032.7,100.9 1000,85.3 1000,8.8 968.7,-6.8 968.7,70.3 936,54.6 936,-23.1 904,-39 
		904,39.3 871.3,23.7 871.3,-55.3 832,-75 832,4.8 799.3,-10.8 799.3,-91.3 736,-122.9 736,-41.1 736,239.8 1051,239.8 1051,109.7 
		1051,34.3 	"/>
</g>
<g id="Layer_13">
	<path class="st12" d="M348,146.6l22.9-6.5c0,0,1.8,12.2-10,14.9C360.9,155,352.1,157.3,348,146.6z"/>
	<line class="st13" x1="354.5" y1="144.8" x2="356.8" y2="155.1"/>
	<line class="st13" x1="362.6" y1="142.5" x2="365.1" y2="153.3"/>
	<g id="ใหญ่_1_">
		<path class="st14" d="M306.1,180.9c0,0,14.9-58.3,85.9-73.4c0,0,27.6,30.1,29.3,38.1c0,0-9.6,39-48.1,54.9c0,0-33,11.9-43.9,12.1
			C329.3,212.7,306.3,183.6,306.1,180.9z"/>
		<path class="st15" d="M384.3,109.4c0,0,34.2,43,34.4,43.8c0,0,2.6-6.5,2.7-7.7c0,0-4.9-13.1-29.3-38L384.3,109.4z"/>
		<path class="st14" d="M395.3,110.8c0,0,16.2-14,25.8,0.1c0,0,10.2,17-3.8,27.1L395.3,110.8z"/>
		<g>
			<path class="st14" d="M417.1,115.3c-0.3-2,0.2-3.8,0.9-5.5c0.4-0.9,0.9-1.7,1.6-2.5c0.7-0.8,1.6-1.5,2.7-2
				c0.6-0.2,1.2-0.4,1.9-0.5c0.7,0,1.4,0,2,0.2c0.6,0.2,1.3,0.5,1.6,0.7c-0.1,0,0.1,0.1,0.1,0.1l0.2,0.1c0.1,0.1,0.3,0.2,0.4,0.2
				c0.5,0.3,1,0.5,1.6,0.6c0.3,0.1,0.6,0,1-0.1c0.4-0.1,0.7-0.4,1.1-0.7c0.3,0.9,0,2.2-1,3c-1,0.8-2.3,1.1-3.4,1.1
				c-0.3,0-0.6,0-0.8-0.1c-0.1,0-0.3,0-0.4-0.1c-0.2,0-0.2,0-0.5-0.1c-0.4-0.1-0.6-0.1-0.7-0.1c-0.3,0-0.6,0.1-1,0.3
				c-0.8,0.3-2,1.2-3.1,2.2C420,113,418.7,114.2,417.1,115.3z"/>
		</g>
	</g>
	<path class="st15" d="M308.6,173.2l29.7,38c0,0-7.1,1.6-9,1.4s-22.9-29.8-23.2-31.7L308.6,173.2z"/>
	<g id="วิปป_2_">
		<path class="st16" d="M310.8,81.9c0,0-12.5-12.7,8.7-22.2c0,0-9.6-20.2,14.5-20.2c0,0-7.8-19.8,15.6-17.5c0,0-8.4-11.5,10.4-20.8
			c0,0,9.3-4.4,16.6,3.3c0,0-11.1,1-6.7,7.6c0,0,2.2,2.6,4.1,3.9c0,0,8.9,6,1.7,10c0,0,6.6-2.5,10.5,2.4c0,0,3.4,6.6-0.8,10.7
			c0,0,25.9-4.4,14.3,20.3c0,0,21.6,0.4,9.4,22.8C409,82.2,374.8,100.3,310.8,81.9z"/>
		<g id="ชั้นในวิปชั้นรักเธอว์_2_">
			<path class="st17" d="M365.6,0c0,0-3.1,0.4-7.6,2.2c-6.7,2.7-14.1,14.2-8.8,21.2c0,0,12.3,19.6,36.2,15.9c0,0,4.2-3.2,1.3-10.8
				c0,0-1.5-5.5-14.3-5c0,0-7.3,1.5-11.7-7.8C360.6,15.7,357.1,7.5,365.6,0z"/>
			<path class="st17" d="M333.7,39.5c0,0-22.9-1.8-14.5,20.1c0,0,19.5,25.1,55.2,28.1c0,0,32.9-1.2,34.8-1.9c0,0,13.9-22.2-9.5-26.3
				C399.6,59.4,360.7,73.5,333.7,39.5z"/>
		</g>
	</g>
	<polygon id="ตัว_2_" class="st18" points="311.7,99.4 333.2,196.2 384.1,196.2 407,99.1 	"/>
	<path class="st19" d="M320.5,101.3c0,0,33.5,12.2,76.9,0.5L320.5,101.3z"/>
	<g id="ขอบถ้วยย_2_">
		<path class="st20" d="M309.7,80.6c0,0,45.4,12.1,99.9,0.5c0,0,3.3,1.3,3.1,9.1c0,0,0.8,5.7-3.6,9.2c0,0-37.1,11.5-98.9,0.4
			c0,0-2.8-1.4-2.8-9.7C307.5,90,307,80.5,309.7,80.6z"/>
		<g id="ลายในขอบ_1_">
			<path class="st21" d="M320.1,82.6c0,0-2,5.4,1,18.9l10.2,1.3c0,0-3.7-14.7-1.3-18.8L320.1,82.6z"/>
			<path class="st21" d="M342.3,85.4c0,0-1.8,8.4,0.4,18.5l10.4,0.6c0,0-1.1-14.4,0.2-18.5L342.3,85.4z"/>
			<path class="st21" d="M365.3,85.9c0,0,1,14.3,0.2,18.7l11.9-0.4c0,0,1.5-8.2-0.2-18.9L365.3,85.9z"/>
			<path class="st21" d="M389.6,84.4c0,0,2.7,14.5,0.3,18.8l10.1-1.5c0,0,1.6-5.8-0.6-18.7L389.6,84.4z"/>
		</g>
	</g>
	<g>
		<path class="st18" d="M362.8,198.1l5.8,31.1l22.9-0.2c0,0,5.9-13.9-10.5-11.6l0.1-19.7L362.8,198.1z"/>
		<path class="st18" d="M353.5,198.1l-5.8,31.1l-22.9-0.2c0,0-5.9-13.9,10.5-11.6l-0.1-19.7L353.5,198.1z"/>
	</g>
	<g class="st22">
		<polygon class="st23" points="335.2,197.6 353.5,197.6 353.2,200.6 335.2,199.1 		"/>
		<polygon class="st23" points="381.2,197.6 362.9,197.6 363.2,200.6 381.2,199.1 		"/>
	</g>
	<path id="ขวา_4_" class="st18" d="M393.1,159.6l8.8,22.2c0,0,4.4,12.6,2.5,14.6c0,0-6.2,5.1-6.4-1.1c0,0-0.4-7.5-2-2.8
		c0,0-0.1,2.4-1.2,2c0,0-1.4,0.5,0.1-10l-9.2-10L393.1,159.6z"/>
	<path id="ขวา_3_" class="st18" d="M328.8,174.6l-18.8-5.5c0,0-17.4-4.3-18.3-10.3c0,0-0.1-8.1,4.8-4.3c0,0,6.1,4.3,3.4,0.2
		c0,0-1.8-1.6-0.8-2.2c0,0,1.9,0,9.2,7.7l17.1,0.2L328.8,174.6z"/>
	<g id="เงาแขน">
		<path class="st19" d="M392.4,157.5l-3.8,19.9l1.9,3l3.8-18C394.2,162.4,392.7,158.3,392.4,157.5z"/>
		<polygon class="st19" points="325,160 327.5,174.7 325.7,174.4 323.2,160.3 		"/>
	</g>
	<path class="st24" d="M325,159.4c0,0,16.7-9.4,68.2-0.2l-8.4,39.2l-53.7-0.4L325,159.4z"/>
	<path class="st12" d="M341.4,155.7l3.7,42.4l24.2,0.2l5.6-41.8C374.9,156.5,358.1,153.7,341.4,155.7"/>
	<g id="รองเท้า_1_">
		<g id="ซ้าย_2_">
			<path class="st25" d="M334.8,208.2l8-6.1l8.8,7.7l-3.1,19.6l-27.4-0.6c0,0-3.2-14.1,14.2-11.6L334.8,208.2z"/>
			<polygon class="st26" points="320.9,226.9 349.1,225.5 348.5,229.5 321.1,228.9 			"/>
			<g>
				<path class="st26" d="M342.8,202c0.5,2.3,0.8,4.6,0.9,6.8c0.1,2.3,0.1,4.5,0,6.8c-0.1,2.3-0.3,4.5-0.6,6.8
					c-0.3,2.3-0.7,4.5-1.5,6.7c-0.5-2.3-0.8-4.6-0.9-6.8c-0.1-2.3-0.1-4.5,0-6.8c0.1-2.3,0.3-4.5,0.6-6.8
					C341.7,206.5,342.1,204.3,342.8,202z"/>
			</g>
		</g>
		<g id="ขวา_2_">
			<path class="st25" d="M381.6,208.2l-8-6.1l-8.8,7.7l3.1,19.6l27.4-0.6c0,0,3.2-14.1-14.2-11.6L381.6,208.2z"/>
			<g>
				<path class="st26" d="M373.6,202c0.7,2.2,1.1,4.5,1.4,6.7c0.3,2.3,0.5,4.5,0.6,6.8s0.1,4.5,0,6.8c-0.1,2.3-0.4,4.5-0.9,6.8
					c-0.7-2.2-1.1-4.5-1.5-6.7c-0.3-2.3-0.5-4.5-0.6-6.8s-0.1-4.5,0-6.8C372.8,206.6,373.1,204.3,373.6,202z"/>
			</g>
			<polygon class="st26" points="395.5,226.9 367.3,225.5 367.9,229.5 395.3,228.9 			"/>
		</g>
	</g>
	<g id="เล็ก_1_">
		<ellipse cx="295" cy="141.9" rx="7.7" ry="7.6"/>
		<polygon points="293.2,136.6 294.1,131.7 298.3,132 297.8,136.9 		"/>
		<path class="st27" d="M295.6,132.9c0,0-1.3-1.8,0.6-3.6c0,0,1.8-1.7,1.1-2.8s2.5,0.4,2.4,1.2c0,0-0.6,2-2.4,2.5
			c0,0-1.3,0.7-0.7,2.2C297.2,133.8,295.6,132.9,295.6,132.9z"/>
		<path class="st28" d="M297.5,123.6c0,0,0.1,1.9-1.8,2.4c0,0,2.5,0.2,1.9,1.5c0,0,2.1-0.6,1.7,1.2c0,0,1.5-0.8,1.9,1
			c0,0-0.7-2.2,0.6-2.6c0,0-2.7-0.2-1.3-1.8C300.6,125.2,297.7,126,297.5,123.6z"/>
	</g>
	<path class="st29" d="M307.4,181.3c0,0,91.4-18.9,114.2-36.7c0,0-1.3,1.3-2,6.3c0,0-51.4,22.3-111.2,33.7c0,0,0.2-1.5-2.9-1.6
		C305.5,182.9,305.4,181.9,307.4,181.3z"/>
	<path d="M306.3,180.4c0,0,91.4-18.9,114.2-36.7c0,0,5.7-0.3-0.3,5.6c0,0-53.8,23.1-113.6,34.5c0,0-2,0.3-2.2-1.7
		C304.4,182,304.2,180.9,306.3,180.4z"/>
	<ellipse id="ตานอกซ้าย_2_" class="st12" cx="340.7" cy="126.6" rx="12.5" ry="15.1"/>
	<ellipse id="ตาในซ้าย_5_" class="st30" cx="337.3" cy="126.6" rx="9.2" ry="12.8"/>
	<ellipse id="ตาในซ้าย_4_" class="st31" cx="332.3" cy="125" rx="4" ry="3.9"/>
	<ellipse id="ตานอกซ้าย_1_" class="st12" cx="379.5" cy="126.6" rx="12.5" ry="15.1"/>
	<ellipse id="ตาในซ้าย_2_" class="st30" cx="376.2" cy="126.6" rx="9.2" ry="12.8"/>
	<ellipse id="ตาในซ้าย_1_" class="st31" cx="371.1" cy="125.8" rx="4" ry="3.9"/>
	<path class="st12" d="M345.3,145.3l22.9-6.5c0,0,1.8,12.2-10,14.9C358.2,153.7,349.4,156,345.3,145.3z"/>
	<line class="st13" x1="351.8" y1="143.4" x2="354.1" y2="153.7"/>
	<line class="st13" x1="359.8" y1="141.1" x2="362.3" y2="152"/>
	<path class="st32" d="M298.2,124.9c0,0,0,1-0.9,1.3c0,0,1.3,0.1,1,0.8c0,0,1.1-0.3,0.9,0.6c0,0,0.8-0.4,1,0.5c0,0-0.3-1.2,0.3-1.3
		c0,0-1.4-0.1-0.7-0.9C299.7,125.8,298.3,126.2,298.2,124.9z"/>
	<g>
		<path class="st33" d="M396.1,38.4c0,0-10.1,15.2-15-1.1"/>
		<path class="st34" d="M383.6,26.7c0,0-5.8,5-1.9,12.5c0,0,6.2,9.1,14,0.3L383.6,26.7z"/>
		<path class="st35" d="M389,26.1c0,0-9.1-3-6.7,8.3c0,0,5.1,10.3,13.1,5.3C395.5,39.7,401.1,33.6,389,26.1z"/>
		<g>
			<ellipse transform="matrix(0.9689 -0.2475 0.2475 0.9689 4.2896 96.5204)" cx="386.1" cy="31.2" rx="0.5" ry="0.5"/>
			<ellipse transform="matrix(0.9689 -0.2475 0.2475 0.9689 3.7928 96.6749)" cx="386.4" cy="33.3" rx="0.4" ry="0.5"/>
			<ellipse transform="matrix(0.9689 -0.2475 0.2475 0.9689 3.4638 97.2322)" cx="388.5" cy="34.8" rx="0.5" ry="0.5"/>
			<ellipse transform="matrix(0.9689 -0.2474 0.2474 0.9689 4.7893 97.0451)" cx="388.6" cy="29.5" rx="0.4" ry="0.4"/>
			<ellipse transform="matrix(0.9689 -0.2474 0.2474 0.9689 4.4923 97.6938)" cx="391" cy="31" rx="0.4" ry="0.4"/>
			<ellipse transform="matrix(0.9689 -0.2475 0.2475 0.9689 3.9414 98.0907)" cx="392.1" cy="33.4" rx="0.5" ry="0.5"/>
			<ellipse transform="matrix(0.9689 -0.2474 0.2474 0.9689 3.1793 97.7828)" cx="390.7" cy="36.2" rx="0.5" ry="0.5"/>
		</g>
	</g>
</g>
<g id="Layer_11">
	<path class="st36" d="M521.7,189.3c10.1-4.4-5.1-85.7-5.1-85.7S415.9,35.4,342.7,36.8C269.4,35.4,161,100,161,100
		s-7.5,84.8,2.6,89.2c11.8,6.3,33-12.3,63.6-28.5c30.5-16.8,70.3-31,115.4-30.8c45.1-0.2,85,14,115.4,30.8
		C488.7,176.9,509.9,195.6,521.7,189.3z"/>
	<ellipse class="st36" cx="341.8" cy="199.6" rx="181.6" ry="61.2"/>
	<ellipse class="st37" cx="339.3" cy="199.6" rx="162.9" ry="54.9"/>
	<ellipse class="st38" cx="338.8" cy="200.6" rx="103" ry="34.7"/>
	<path class="st39" d="M261.3,221.5c-0.9,0.3-1.7,0.7-2.5,1c0.8,0.3,1.7,0.7,2.5,1V221.5z"/>
	<path class="st39" d="M416.5,223.4c0.8-0.3,1.5-0.6,2.2-0.9c-0.7-0.3-1.5-0.6-2.2-0.9V223.4z"/>
	<path class="st39" d="M261.3,229.5h20.2c-7.5-1.7-14.3-3.7-20.2-6V229.5z"/>
	<path class="st40" d="M278.2,200.6v36.2c-4.9,3-10.6,5.3-16.8,6.7v-65.9C268.5,184.8,274,193.1,278.2,200.6z"/>
	<path class="st40" d="M399.7,200.8V237c4.9,3,10.6,5.3,16.8,6.7v-65.9C409.4,185,403.9,193.3,399.7,200.8z"/>
	<path class="st39" d="M441.7,199.6L441.7,199.6c-0.7-8.3-10.1-15.9-25.2-21.8v21.8v21.9c0.8,0.3,0,0,0,0
		c-14.5-5.6-34.2-9.6-56.6-11.2v-10.7v-33c-6.8-0.5-13.9-0.7-21.1-0.7c-7.1,0-14.1,0.2-20.9,0.7v33v10.7
		c-22.4,1.6-42.1,5.5-56.6,11.1c0,0-0.9,0.3,0,0v-21.8v-21.9c-15.3,5.9-24.8,13.5-25.5,21.9h0l-21.1,317.1h124.1h124.1L441.7,199.6z
		"/>
</g>
<g id="Layer_14">
	<path class="st41" d="M339.7,271.1c3.1,0,6.2,0.1,9.2,0.3v-7.6c-3.4-0.3-7-0.4-10.6-0.4c-2.6,0-5.2,0.1-7.7,0.2v7.8
		C333.5,271.2,336.5,271.1,339.7,271.1z"/>
	<path class="st42" d="M349.1,283.7c3.1,0,6.3,0.8,9.2,1l0.1-7.6c-3.4-0.3-7-1.1-10.7-1.2c-2.6,0-5.2,0-7.7,0.1l-0.1,7.8
		C342.9,283.7,345.9,283.7,349.1,283.7z"/>
	<path class="st43" d="M351.8,263.4v8.7c6.9,0.7,13.2,2,18.3,3.8v-8.4C365.1,265.6,358.8,264.2,351.8,263.4z"/>
	<path class="st41" d="M310.8,368.2v8.7c-6.1,0.7-11.6,2-16.2,3.8v-8.4C299.2,370.4,304.7,369,310.8,368.2z"/>
	<path class="st42" d="M302.7,382.5v8.7c-6.1,0.7-11.6,2-16.2,3.8v-8.4C291.1,384.8,296.6,383.3,302.7,382.5z"/>
	<path class="st43" d="M324.2,375.2c-3.1,0-6.2,0.1-9.2,0.3v-7.6c3.4-0.3,7-0.4,10.6-0.4c2.6,0,5.2,0.1,7.7,0.2v7.8
		C330.4,375.3,327.3,375.2,324.2,375.2z"/>
	<path class="st41" d="M314.8,389.3c-3.1,0-6.3,0.9-9.2,1.2l-0.1-9.2c3.4-0.4,7-1.3,10.7-1.4c2.6,0,5.2,0,7.7,0.1l0.2,9.4
		C321,389.3,318,389.3,314.8,389.3z"/>
	<path class="st42" d="M251.7,287.8v-9.1c-6.9,1.7-12.5,4.4-15.9,7.7l-0.6,9.6C238.2,292.4,244.4,289.8,251.7,287.8z"/>
</g>
<g id="Layer_12" class="st0">
	<polygon class="st44" points="438.9,167.1 335.9,167.1 232.9,167.1 211.8,484.2 335.9,484.2 460,484.2 	"/>
	<ellipse class="st44" cx="335.9" cy="168.1" rx="103" ry="34.7"/>
	<rect x="357" y="133.4" class="st5" width="56.6" height="69.4"/>
	<rect x="258.4" y="133.4" class="st5" width="56.6" height="63.6"/>
	<ellipse class="st44" cx="335.9" cy="211.8" rx="103" ry="34.7"/>
</g>
<g id="Layer_4">
	<polygon class="st45" points="113.6,538.2 85.7,538.2 85.7,495.3 113.6,512.8 	"/>
	<polygon class="st46" points="85.7,495.3 70.1,499.8 70.1,537 85.7,532.7 	"/>
	<polygon class="st47" points="150.8,533.5 63.2,510.3 72.3,477.1 159.9,500.5 	"/>
	<polygon class="st27" points="150.8,533.5 63.2,510.3 67.5,494.4 154.1,525.4 	"/>
	<polygon class="st45" points="168.2,522.4 140.3,522.4 140.3,479.5 168.2,497 	"/>
	<polygon class="st46" points="140.3,517.6 140.3,479.5 113.6,487.2 113.6,525 	"/>
	<polygon class="st47" points="200.4,516.7 112.7,493.5 121.8,460.3 209.4,483.7 	"/>
	<polygon class="st27" points="200.4,516.7 112.7,493.5 117.1,477.6 203.7,508.7 	"/>
	<polygon class="st45" points="223.3,506.5 195.5,506.5 195.5,463.6 223.3,481.1 	"/>
	<polygon class="st46" points="195.5,502.3 195.5,463.6 168.2,471.4 168.2,509.8 	"/>
	<polygon class="st47" points="256.8,502.2 169.2,479 178.3,445.8 265.9,469.2 	"/>
	<polygon class="st27" points="256.8,502.2 169.2,479 173.5,463.1 260.1,494.2 	"/>
	<polygon class="st45" points="284.7,488.7 256.9,488.7 256.9,445.8 284.7,463.4 	"/>
	<polygon class="st46" points="256.9,485.2 256.9,445.8 223.3,455.5 223.3,494.5 	"/>
	<polygon class="st47" points="318.1,486 227.5,461.6 236.9,426.6 327.5,451.2 	"/>
	<polygon class="st27" points="318.1,486 227.5,461.6 232,444.8 321.6,477.5 	"/>
	<polygon class="st46" points="284.7,437.8 284.7,477.5 338.8,462.5 338.8,422.2 	"/>
	<polygon class="st46" points="284.7,511.7 256.9,511.7 256.9,485.2 223.3,494.5 223.3,528.5 195.5,528.5 195.5,502.3 168.2,509.8 
		168.2,538.2 140.3,538.2 140.3,517.6 113.6,525 113.6,543.9 85.7,543.9 85.7,532.7 70.1,537 70.1,601.3 338.8,601.3 338.8,462.5 
		284.7,477.5 	"/>
	<polygon class="st46" points="85.7,543.9 113.6,543.9 113.6,525 85.7,532.7 	"/>
	<polygon class="st46" points="140.3,538.2 168.2,538.2 168.2,509.8 140.3,517.6 	"/>
	<polygon class="st46" points="195.5,528.5 223.3,528.5 223.3,494.5 195.5,502.3 	"/>
	<polygon class="st46" points="256.9,511.7 284.7,511.7 284.7,477.5 256.9,485.2 	"/>
	<g id="Layer_7">
	</g>
	
		<ellipse transform="matrix(0.124 -0.9923 0.9923 0.124 -237.747 618.7712)" class="st48" cx="231.6" cy="444" rx="18.5" ry="13.6"/>
	<ellipse transform="matrix(0.124 -0.9923 0.9923 0.124 -237.6588 618.9)" cx="231.7" cy="444.1" rx="14.5" ry="10.7"/>
	<path class="st48" d="M186.2,464c-1.2,9.6-8.1,16.7-15.3,15.8c-7.2-0.9-12.1-9.4-10.9-19s8.1-16.7,15.3-15.8
		C182.6,445.9,187.5,454.4,186.2,464z"/>
	<path d="M183.5,463.7c-1,7.6-6.3,13.1-12,12.4s-9.5-7.4-8.5-15s6.3-13.1,12-12.4C180.7,449.4,184.5,456.1,183.5,463.7z"/>
	<path class="st48" d="M129.8,478.5c-1.2,9.6-8.1,16.7-15.3,15.8c-7.2-0.9-12.1-9.4-10.9-19s8.1-16.7,15.3-15.8
		C126.1,460.4,131,468.9,129.8,478.5z"/>
	<path d="M127.1,478.2c-1,7.6-6.3,13.1-12,12.4c-5.7-0.7-9.5-7.4-8.5-15c1-7.6,6.3-13.1,12-12.4C124.2,463.9,128,470.6,127.1,478.2z
		"/>
	<path class="st48" d="M80.2,495.3c-1.2,9.6-8.1,16.7-15.3,15.8c-7.2-0.9-12.1-9.4-10.9-19s8.1-16.7,15.3-15.8
		C76.6,477.1,81.4,485.6,80.2,495.3z"/>
	<path d="M77.5,494.9c-1,7.6-6.3,13.1-12,12.4c-5.7-0.7-9.5-7.4-8.5-15s6.3-13.1,12-12.4C74.7,480.7,78.5,487.4,77.5,494.9z"/>
</g>
<g id="Layer_8">
	<polygon class="st49" points="563.9,538.2 591.8,538.2 591.8,495.3 563.9,512.8 	"/>
	<polygon class="st50" points="591.8,495.3 607.4,499.8 607.4,537 591.8,532.7 	"/>
	<polygon class="st47" points="526.7,533.5 614.4,510.3 605.3,477.1 517.7,500.5 	"/>
	<polygon class="st27" points="526.7,533.5 614.4,510.3 610,494.4 523.4,525.4 	"/>
	<polygon class="st49" points="509.3,522.4 537.2,522.4 537.2,479.5 509.3,497 	"/>
	<polygon class="st50" points="537.2,517.6 537.2,479.5 563.9,487.2 563.9,525 	"/>
	<polygon class="st47" points="477.2,516.7 564.8,493.5 555.7,460.3 468.1,483.7 	"/>
	<polygon class="st27" points="477.2,516.7 564.8,493.5 560.5,477.6 473.9,508.7 	"/>
	<polygon class="st49" points="454.2,506.5 482.1,506.5 482.1,463.6 454.2,481.1 	"/>
	<polygon class="st50" points="482.1,502.3 482.1,463.6 509.3,471.4 509.3,509.8 	"/>
	<polygon class="st47" points="420.7,502.2 508.3,479 499.2,445.8 411.6,469.2 	"/>
	<polygon class="st27" points="420.7,502.2 508.3,479 504,463.1 417.4,494.2 	"/>
	<polygon class="st49" points="392.8,488.7 420.6,488.7 420.6,445.8 392.8,463.4 	"/>
	<polygon class="st50" points="420.6,485.2 420.6,445.8 454.2,455.5 454.2,494.5 	"/>
	<polygon class="st47" points="359.4,486 450,461.6 440.6,426.6 350,451.2 	"/>
	<polygon class="st27" points="359.4,486 450,461.6 445.5,444.8 356,477.5 	"/>
	<polygon class="st50" points="392.8,437.8 392.8,477.5 338.8,462.5 338.8,422.2 	"/>
	<polygon class="st50" points="392.8,511.7 420.6,511.7 420.6,485.2 454.2,494.5 454.2,528.5 482.1,528.5 482.1,502.3 509.3,509.8 
		509.3,538.2 537.2,538.2 537.2,517.6 563.9,525 563.9,543.9 591.8,543.9 591.8,532.7 607.4,537 607.4,601.3 338.8,601.3 
		338.8,462.5 392.8,477.5 	"/>
	<polygon class="st50" points="591.8,543.9 563.9,543.9 563.9,525 591.8,532.7 	"/>
	<polygon class="st50" points="537.2,538.2 509.3,538.2 509.3,509.8 537.2,517.6 	"/>
	<polygon class="st50" points="482.1,528.5 454.2,528.5 454.2,494.5 482.1,502.3 	"/>
	<polygon class="st50" points="420.6,511.7 392.8,511.7 392.8,477.5 420.6,485.2 	"/>
	
		<ellipse transform="matrix(0.9923 -0.124 0.124 0.9923 -51.6239 58.723)" class="st48" cx="445.9" cy="444.1" rx="13.6" ry="18.5"/>
	<ellipse transform="matrix(0.9923 -0.124 0.124 0.9923 -51.6266 58.7086)" cx="445.8" cy="444.1" rx="10.7" ry="14.5"/>
	<path class="st48" d="M491.3,464c1.2,9.6,8.1,16.7,15.3,15.8c7.2-0.9,12.1-9.4,10.9-19s-8.1-16.7-15.3-15.8
		C494.9,445.9,490.1,454.4,491.3,464z"/>
	<path d="M494,463.7c1,7.6,6.3,13.1,12,12.4c5.7-0.7,9.5-7.4,8.5-15s-6.3-13.1-12-12.4S493,456.1,494,463.7z"/>
	<path class="st48" d="M547.8,478.5c1.2,9.6,8.1,16.7,15.3,15.8s12.1-9.4,10.9-19s-8.1-16.7-15.3-15.8
		C551.4,460.4,546.6,468.9,547.8,478.5z"/>
	<path d="M550.5,478.2c1,7.6,6.3,13.1,12,12.4s9.5-7.4,8.5-15s-6.3-13.1-12-12.4S549.5,470.6,550.5,478.2z"/>
	<path class="st48" d="M597.3,495.3c1.2,9.6,8.1,16.7,15.3,15.8s12.1-9.4,10.9-19s-8.1-16.7-15.3-15.8
		C601,477.1,596.1,485.6,597.3,495.3z"/>
	<path d="M600,494.9c1,7.6,6.3,13.1,12,12.4c5.7-0.7,9.5-7.4,8.5-15s-6.3-13.1-12-12.4C602.9,480.7,599,487.4,600,494.9z"/>
</g>
<g id="Layer_10">
	<polygon class="st42" points="276.6,543.8 296.9,538.9 296.9,523.2 276.6,528.8 	"/>
	<polygon class="st42" points="262.7,568.3 283,563.4 283,547.7 262.7,553.3 	"/>
	<polygon class="st42" points="163.4,548.4 183.7,543.5 183.7,527.8 163.4,533.4 	"/>
	<polygon class="st42" points="149.5,572.9 169.8,568 169.8,552.3 149.5,557.9 	"/>
	<polygon class="st39" points="553.7,543.8 533.5,538.9 533.5,523.2 553.7,528.8 	"/>
	<polygon class="st42" points="567.7,568.3 547.4,563.4 547.4,547.7 567.7,553.3 	"/>
	<polygon class="st39" points="288.4,561.9 308.6,557 308.6,541.3 288.4,546.9 	"/>
	<polygon class="st42" points="384.4,508.7 364.1,503.8 364.1,488.1 384.4,493.7 	"/>
	<polygon class="st39" points="398.3,533.2 378.1,528.3 378.1,512.6 398.3,518.2 	"/>
	<polygon class="st39" points="412.8,516.5 392.5,511.6 392.5,495.9 412.8,501.5 	"/>
</g>
</svg>
