<?xml version="1.0" encoding="utf-8"?>
<!-- Generator: Adobe Illustrator 19.0.0, SVG Export Plug-In . SVG Version: 6.00 Build 0)  -->
<svg version="1.1" id="Layer_1" xmlns="http://www.w3.org/2000/svg" xmlns:xlink="http://www.w3.org/1999/xlink" x="0px" y="0px"
	 viewBox="157 137.1 909.1 567.8" style="enable-background:new 157 137.1 909.1 567.8;" xml:space="preserve">
<style type="text/css">
	.st0{fill:#46BEA7;}
	.st1{fill:#178771;}
	.st2{fill:#20967F;}
	.st3{fill:#146959;}
	.st4{fill:#848484;}
	.st5{fill:#C6C6C5;}
	.st6{fill:#E5E5E5;}
	.st7{fill:#FFFFFF;}
	.st8{fill:#717173;stroke:#717173;stroke-miterlimit:10;}
	.st9{fill:#57525A;}
	.st10{fill:#1F2633;}
	.st11{fill:#717173;}
	.st12{fill:#B7B7B7;}
	.st13{fill:#939393;}
	.st14{fill:#5858A6;}
	.st15{fill:#E0E0E0;}
	.st16{fill:#848585;}
	.st17{display:none;fill:#57525A;}
	.st18{clip-path:url(#SVGID_2_);fill:#57525A;}
	.st19{fill:#0E6958;}
	.st20{clip-path:url(#SVGID_4_);fill:#57525A;}
	.st21{clip-path:url(#SVGID_6_);fill:#57525A;}
	.st22{fill:#137763;}
	.st23{fill:none;}
	.st24{clip-path:url(#SVGID_8_);fill:#57525A;}
</style>
<g id="fire">
	<g>
		<path class="st0" d="M620.1,230.2c-4.9,0.5-10.3,1.5-14.7,3.7c-1.1,0.5-2.9,1.1-3.8,1.3c-4.6,1.2-1.1-9.6-0.9-11.1
			c0.9-5.2,1.1-10.5,1.6-15.7c0.5-4-1-8.5-0.5-12.5c1-6.5,4.5-6.5,7.5-11.5c2-3.5,1-6.5,2.5-11c1-3.1,5.2-3.2,4-7.4
			c-0.5-1.7-1.6-2.5-1.9-4.4c-0.4-2.2,0-4.8,0.3-7c0.1-0.8,1.4-5.8,2.7-5.8c0.7,0,1.4,0,2-0.2c-1.1-2.1-0.4-5.7,1.2-7.4
			c0.9-1,2.1-0.8,3-1.5c0.7-0.6,1.2-2,1.8-2.7c2.1,1.2,3.2,3.7,4.5,5.5c4.3,5.7,5.5,12.3,4.5,19.2c-0.4,2.7-0.2,5.5,1,8
			c1.3,2.8,3.5,3.9,4.3,7c1,3.7,2.8,8.5,2.5,12.4c-0.3,3.3-2,6.2-1.6,9.7c0.5,3.5,2.7,6.4,3.6,9.6c1,3.3,1.9,6.8,2.8,10.1
			c0.9,3.2,1.5,6.4,1.5,9.6c0,3.9,1,9.3-2.2,8.4c-2.1-0.5-6.1-4.7-8.3-4.3C631.7,233.4,625.7,229.6,620.1,230.2z"/>
	</g>
	<g>
		<path class="st1" d="M637.5,232.4c-4.4-1.6-8.6-1.5-13.3-1c-3.6,0.4-7,1.9-10.7,1.8c-5.4-0.1-3.9-5.8-3-9.9c0.7-3.1,3-5.4,3.8-8.5
			c1-3.7,1.3-7.5,1.3-11.4c0-2.1,0-4.1,0.5-6c0.5-1.8,1.6-3.3,2.2-5c1.3-3.6,1-7.9,2.3-11.5c1.9-5.3,4.6,2,5.5,4.7
			c1.2,3.6,1.6,7.9,2.2,11.8c0.7,4.1,1.1,8.1,3.1,11.8c1.9,3.5,3.3,6.5,4,10.4c0.4,2.4-0.1,4.9,0.3,7.3c0.3,1.9,2.3,4.2,2,5.8"/>
	</g>
</g>
<g id="floor4">
	<g id="water_back">
		<path class="st2" d="M597.7,235.5c0,0-34.3,10.2-34.8,81.8c0,0,7.4-5.3,10.2-6.9c2.8-1.6,3.5-69.4,24.6-72.4l1.8-2.5
			C599.5,235.5,598.6,235.1,597.7,235.5z"/>
		<path class="st2" d="M648.5,234.2c0,0,33.9,9.2,34.4,80.8c0,0-7.4-5.3-10.2-6.9c-2.9-1.6-3.5-69.4-24.6-72.4l-1.4-1.5
			C646.6,234.2,647.5,233.9,648.5,234.2z"/>
		<path class="st3" d="M611.3,264.4c0,0-3.4,29.7-2.3,34.2s-6.5,1.2-6.5,1.2s2.3-34.4,5.5-38.1L611.3,264.4z"/>
		<path class="st3" d="M636.2,264.4c0,0,3.4,29.7,2.3,34.2s6.5,1.2,6.5,1.2s-2.3-34.4-5.5-38.1L636.2,264.4z"/>
	</g>
	<path id="oval" class="st4" d="M586.8,243.9c0,0,31.8-32.3,72.8-2c0,0-6.5,15.8-13.5,19.5c-7,3.8-30.3,5.8-41.5,2.3
		c0,0-3.8-2-7-5.3C594.4,255.1,588.3,249.6,586.8,243.9z"/>
	<path class="st5" d="M619.4,262.6c-0.3,11.5,2.8,15.4-11.9,38.3c-8.2,5,33.9,0,33.9,0s-12.7-14-10.6-38.3
		C630.8,262.6,625,255.7,619.4,262.6z"/>
	<path id="shadow" class="st4" d="M617,283.4c0,0,10-15.9,13.6-14c0,0,0.5-6,0.6-7.2c0,0-6.5-6.5-12.4,0.6
		C618.8,262.8,620.8,274.2,617,283.4z"/>
	<path class="st5" d="M586.8,243.9c0,0,1.6,6.6,11.9,15.6c0,0-1.1-11.9,24.5-12.3c25.6-0.4,26.2,11.7,25.5,12.3
		c-0.7,0.6,6.6-6.4,10.9-17.6C659.5,241.9,624,210.9,586.8,243.9z"/>
	<g id="water_front">
		<path class="st2" d="M602.6,233.3c0,0-18.1,39.3-16.1,70.1l10.3-3.7c0,0,6.7-64.4,13.2-69.2C610,230.5,607.2,230,602.6,233.3z"/>
		<path class="st2" d="M645.9,233.6c0,0,18,38.1,16,68.8l-10.3-2.9c0,0-6.6-63.9-13.2-68.7C638.4,230.9,641.2,230.9,645.9,233.6z"/>
		<path class="st6" d="M587.1,286.7c0.1-0.5,0.4-1.2,0.9-1.4c0.5-0.3,0.7-0.2,1,0.2c0.2,0.2,0.3,0.3,0.6,0.4
			c0.2,0.1,0.3,0.1,0.4,0.2s-0.1,0.3,0.1,0.4c0.3,0.3,0.5-0.2,0.8-0.3c0.4-0.1,0.8,0,1.3-0.2c0.2-0.1,0.5-0.2,0.8-0.3
			c0.3-0.2,0.5-0.5,0.8-0.5c0.7-0.1,0.9,0.3,1.5-0.2c0.6-0.5,1.2,0.2,1.8,0.3c0.7,0.2,0.9-0.5,1.5-0.3c-0.2,1.8-0.5,3.8-0.7,5.7
			c-0.3-0.1-0.6-0.2-0.8-0.4c-0.2-0.1-0.2-0.3-0.4-0.5c-0.4-0.3-0.8-0.3-1.2-0.2c-0.5,0.1-0.9,0.4-1.3,0.6c-0.8,0.4-1.3,0.2-1.9-0.3
			c-0.6-0.4-1.2-0.9-1.9-0.4c-0.5,0.3-0.9,0.7-1.5,0.2c-0.5-0.4-0.5-0.8-1.3-0.5c-0.4,0.1-0.5,0.2-0.5-0.2
			C586.8,288.4,587,287.5,587.1,286.7z"/>
		<path class="st6" d="M573.2,296.6c-0.5,0.6-1.5,0.8-2.2,1.2c-0.1,0.1-0.3,0.3-0.4,0.3c-0.2,0.1-0.2-0.1-0.4-0.1
			c-0.3,0-0.5,0.2-0.6,0.4c-0.1,0.1-0.1,0.3-0.2,0.5c-0.1,0.1-0.3,0.2-0.4,0.4c-0.2,0.4-0.1,0.9-0.6,0.8c-0.3,0-0.3-0.2-0.5,0
			c-0.1,0.1-0.1,0.3-0.2,0.5c-0.1,0.1-0.2,0.2-0.3,0.3c-0.3,0.3-0.5,0.7-0.5,1.1c0,0.3,0,0.3-0.2,0.4c-0.2,0.1-0.4,0.2-0.6,0.2
			c-0.3,0-0.4-0.1-0.6,0.2c-0.1,0.2-0.2,0.5-0.2,0.7c0,0.2,0.1,0.3,0.1,0.5c0,0.2-0.2,0.4-0.4,0.5c-0.1,0-0.6-0.1-0.5-0.1
			c-0.2,0.2,0,0.6-0.1,0.9c-0.1,0.3-0.5,0.7-0.7,0.9c-0.1,0.1-0.5,0.4-0.5,0.6c0,0,0.5-10.8,1.1-11.9c0-0.1,0.6,0.1,0.7,0.1
			c0.2,0.1,0.3,0.3,0.5,0.4c0.2,0.1,0.3-0.1,0.5-0.1c0.2,0.1,0.2,0.4,0.3,0.5c0.4,0.6,1-0.1,1.6,0c0.3,0,0.4,0.3,0.7,0.4
			c0.5,0.2,0.6-0.4,1.1,0c0.3,0.2,0.5,0.5,0.9,0.4c0.2-0.1,0.3-0.1,0.5-0.1s0.2,0.1,0.4,0.1c0.2,0.1,0.4,0.1,0.6,0
			C572.3,296.5,572.9,296.1,573.2,296.6"/>
		<path class="st6" d="M568.4,274.4c0.3,0,0.6,0,0.9,0.1s0.6,0.3,0.9,0.3c0.2,0,0.5-0.1,0.7-0.1c0.2,0,0.3,0,0.5,0
			c0.2,0.1,0.3,0.3,0.5,0.3c0.5,0.2,1.3-0.1,1.9-0.1c0.2,0,0.4,0.1,0.6,0.1c0.3,0.1,0.5,0,0.8,0.1c0.4,0.1,0.9-0.2,1.2,0
			c0.4,0.3-0.2,0.7-0.5,0.8c-0.2,0.1-0.3,0.1-0.5,0.4c-0.1,0.2-0.2,0.6-0.4,0.7c-0.4,0.1-0.1-0.3-0.3-0.5c0,0.2-0.1,0.4-0.2,0.5
			l-0.1-0.5c-0.3,0.1-0.4,0.7-0.4,1c0,0.2-0.1,0.5-0.3,0.6c-0.3,0.3-0.2,0-0.5,0s-0.4,0.6-0.4,0.8c-0.1,0.3-0.1,0.8-0.5,0.9
			c-0.3,0.1-0.2-0.2-0.4-0.3c-0.2-0.1-0.5-0.1-0.7-0.1c-0.5,0-0.8,0-1,0.5c-0.1,0.4-0.2,0.7-0.5,1c-0.3,0.2-0.7,0.1-1,0.3
			c-0.3,0.2-0.3,0.5-0.5,0.8c-0.2,0.3-0.3,0.1-0.7,0.2c-0.3,0-0.5,0.4-0.7,0.6c-0.2,0.2-0.6,0.4-0.7,0.6
			C566.2,283.5,568.2,274.4,568.4,274.4z"/>
		<path class="st6" d="M574.8,258.5c0.2,0,0.4,0,0.6,0.1c0.1,0,0.2,0.1,0.3,0.2c0.1,0,0.2,0.1,0.4,0.1c0.1,0,0.2-0.1,0.3-0.1
			c0.3-0.1,0.7,0.1,1,0.1c0.2,0,0.2,0,0.4,0.2c0.1,0.1,0.2,0.2,0.3,0.2s0.2,0,0.3,0c0.2-0.1,0.2-0.3,0.5-0.3c0.2,0,0.3,0.2,0.4,0.4
			c0.1,0.1,0.4,0,0.5,0s0.1-0.1,0.2-0.2c0.1,0,0.3,0,0.4,0c0.1,0.1,0.1,0.2,0.3,0.2c0.2,0,0.4-0.2,0.6-0.2c0.1,0,0.2,0.1,0.2,0.1
			c0.1,0,0.3,0,0.3,0.1c0.1,0.1,0,0.2,0,0.3c-0.1,0.2-0.3,0.5-0.5,0.7c-0.1,0.1-0.1,0.3-0.3,0.3c0-0.2-0.1-0.1-0.2,0
			s-0.1,0.2-0.1,0.4c0,0.1-0.1,0.2-0.2,0.1c-0.1-0.1,0-0.2-0.1-0.3c-0.2,0-0.3,0.4-0.3,0.6c0,0.2,0,0.2-0.1,0.4
			c-0.1,0.2-0.2,0.3-0.3,0.5c-0.2,0.3-0.3,0.7-0.5,1c-0.1,0.1-0.2,0.4-0.3,0.4s-0.1-0.2-0.1-0.2c-0.2-0.2-0.3,0.2-0.3,0.3
			s0,0.2-0.1,0.3c-0.1,0.1-0.2,0.2-0.3,0.3c-0.2,0.2-0.3,0.5-0.3,0.7c0,0.1-0.1,0.3-0.1,0.4c-0.1,0.1-0.1,0-0.1,0
			c-0.1,0.1-0.1,0.4-0.2,0.5c-0.1,0.2-0.4,0.3-0.6,0.2c0,0-0.2-0.5-0.2-0.6c-0.1-0.2,0-0.3,0-0.5c0-0.2-0.1-0.2-0.2-0.2
			c-0.5-0.2-0.7-1.2-0.5-1.6c0.1-0.1,0.4-0.4,0.2-0.5c-0.2,0.2-0.3,0-0.2-0.2c0-0.1,0.1-0.1,0.2-0.2c0-0.1,0-0.4-0.1-0.4
			c-0.1,0-0.1,0.2-0.1,0.2c-0.1,0.1-0.2-0.1-0.3-0.2c-0.3-0.3-0.7-0.3-0.7-0.7c0-0.3,0.2-0.7,0.2-1.1
			C575,260.1,575,258.5,574.8,258.5z"/>
		<path class="st6" d="M591.3,265.4c0-0.1,1.9-0.2,1.8,0.2c0.2,0,0.9,0.5,0.8,0c0.3-0.1,0.6,0,0.8,0c0.2,0,0.2-0.1,0.4-0.2
			c0.2-0.1,0.5-0.1,0.7-0.1c0.4,0,0.7,0,1.1,0.1c0.3,0.2,0.6,0.3,1,0.1c0.3-0.2,0.2-0.3,0.5-0.2c0.2,0.1,0.3,0.1,0.5,0.1
			s0.3-0.1,0.5-0.1c0.1,0,1.3-0.1,1.4,0c0,0.2-0.1,0.1-0.1,0.2c0,0.1,0,0.1-0.1,0.3c0,0.2,0,0.5-0.2,0.6c-0.2,0.2-0.3,0.1-0.6,0.1
			c-0.3,0-0.5,0.3-0.7,0.6c-0.1,0.2,0,0.1-0.1,0.3c0,0.2-0.4,1.2-0.7,0.9c-0.1-0.1,0.2-0.3,0-0.3c-0.2-0.1-0.4,0.3-0.5,0.4
			c-0.4,0.5-0.3,1-0.5,1.5c0,0.1-0.1,0.3-0.2,0.3c-0.2,0-0.1-0.2-0.2-0.2c-0.3-0.1-0.3,0.3-0.5,0.4c-0.2,0.1-0.3-0.3-0.5-0.1
			c-0.3,0.3-0.2,0.7-0.4,1c-0.1,0.2-0.3,0.3-0.5,0.4s-0.2,0-0.3,0.3c-0.1,0.1-0.1,0.2-0.2,0.3s-0.1,0.1-0.1,0.3c0,0.1,0.1,0.3,0,0.4
			c-0.2,0.4-0.5,0-0.7,0.1c0,0.4-0.4,0.8-0.8,0.6c-0.3-0.1-0.2-0.5-0.2-0.8c0-0.3,0-0.1-0.2-0.3c-0.3-0.3-0.3-0.8-0.4-1.1
			c-0.1-0.2-0.3-0.2-0.4-0.4c-0.2-0.5,0.1-1.1-0.1-1.5c-0.7,0.3-0.8-0.7-1-1.2L591.3,265.4z"/>
		<path class="st6" d="M648.7,275.6c0.3,0.2,0.9,0.2,1.2,0.3c0.5,0.1,0.5,0.5,0.6,1c0,0.1,0,0.2,0,0.3c0.1,0.1,0.2,0,0.3,0.1
			c0.2,0.2,0.2,0.4,0.5,0.3c0.1,0,0.2-0.2,0.3-0.2c0.2-0.1,0.2,0,0.4,0c0.3,0,0.7-0.2,1.1-0.2c0.5,0.1,0.5,1.2,1.2,1.1
			c0.5-0.1,0.3-0.5,0.6-0.6c0.4-0.1,0.6,0.5,1,0.3c0.3-0.1,0.1-0.4,0.3-0.6c0.2-0.4,0.3,0,0.6-0.1c0.4-0.1,0.4-0.8,0.8-0.6
			c0.2,0.1,0.3,0.5,0.7,0.4c0.5-0.1,0.3-0.7,0.4-1.1c0.3,0.1,1.1-0.5,1-0.9c0,0,1.1,5.9,1.2,6.9c0,0.2,0,1-0.2,1.1
			c-0.2,0.2-0.1,0-0.3,0c0,0-0.3-0.3-0.3-0.2c0.1,0.2,0.2,0.5,0.1,0.7l-0.3,0.2c-0.1,0-0.5-0.4-0.5-0.2c0,0.4,0.3,0.8,0.1,1.2
			c-0.1,0.4-0.5,0.6-0.9,0.7c-0.4,0.2-0.3,0.3-0.5,0.8c-0.1,0.3-0.5,0.8-0.8,0.9c-0.3,0.1-0.7-0.1-0.8-0.4c-0.1-0.1,0-0.3-0.1-0.5
			c-0.2-0.4-0.6-0.1-1-0.3c-0.3-0.1-0.4-0.5-0.5-0.8c0-0.2,0-1-0.2-1.1c-0.5-0.2-0.3,1.5-1.2,1.1c-0.4-0.1-0.5-0.5-0.7-0.8
			c-0.3-0.3-0.6-0.4-0.8-0.8c-0.2-0.5,0-0.5-0.6-0.5c-0.7,0-1.3-0.5-1.8-1C649.6,282.3,649.3,276,648.7,275.6z"/>
		<path class="st6" d="M645.8,256.7c0-0.1,1.1,0,1.2,0.1c0.4,0.2,0.5,1.1,1,1.2c0.4,0.1,0.2-0.3,0.4-0.4c0.2-0.2,0.4-0.3,0.6-0.4
			s0.1-0.3,0.4-0.5c0.6-0.3,0.7,0.2,1.1,0.5c0.4,0.3,0.5,0.3,0.8,0c0.2-0.2,0.2-0.8,0.4-1c0.4-0.3,0.3,0.2,0.6,0.1
			c0.2,0,2-0.8,2-0.9c0.4,1.2,0.8,2.4,1.1,3.6c0.2,0.6,0.4,1.9-0.5,2.1c-0.4,0.1-0.5-0.3-0.8,0.1c-0.1,0.1-0.1,0.5-0.1,0.6
			c-0.1,0.1-0.2,0.1-0.3,0.3c0,0.1,0.1,0.4,0.1,0.5c0,0.4,0.2,0.8-0.3,0.8c-0.1,0-0.2-0.4-0.4-0.4c-0.1,0-0.3,0.5-0.5,0.6
			c-0.7,0.5-0.8-0.3-1.4-0.6c-0.4-0.2-0.8,0-1.2-0.2c-0.4-0.2-0.5-0.5-0.6-0.9c-0.1-0.3-0.3-0.9-0.7-0.9c-0.1,0.3,0,0.9-0.4,0.9
			c-0.4,0-0.3-0.4-0.6-0.6c-0.3-0.2-0.5-0.2-0.7-0.3c-0.5-0.3-0.6-0.8-0.7-1.3C646.2,258.8,646,257.8,645.8,256.7z"/>
		<path class="st6" d="M669.7,284.6c0.1,0.1,0.1,0.2,0.2,0.2c0.3,0.3,0.6,0.8,1.1,0.9c0.6,0.1,0.7-0.3,1.2-0.3c0.8,0,1,1.9,2.1,1.9
			c0.9,0,0.4-0.7,1-0.9c0.7-0.3,0.4,1.5,1.4,1.6c0.2-0.4,0.2-0.7,0.4-1c0.5,0.4,0,2,1.1,1.7c0-0.2,0.1-0.5,0-0.6
			c0,0,0.4,0.6,0.5,0.7c0.2,0.3,0.2,0.7,0.4,1c0.5,0.7,1.4,0.8,1.7,1.6c0,0.1,0.5,0.3,0.6,0.4c0-1.8-0.6-3.9-0.9-5.8
			c-0.4-2.5-0.8-4.9-1.4-7.4c-0.1-0.4-0.6-0.9-1-0.9c-0.3,0-0.5,0.4-0.7,0.5c-0.2,0-0.5-0.1-0.6-0.1c-0.3,0.1-0.5,0.2-0.9,0.4
			c-0.5,0.2-0.7,0.1-1.2-0.3c-0.9-0.7-1.5-1.9-2.5-0.5c-0.5,0.7-0.6,0.9-1.4,0.4c-0.5-0.3-0.9-0.9-1.5-1.1c-0.1,0-1.2,0.1-1.3,0.1
			c0.3,1.7,0.4,3.5,0.8,5.2C668.9,283.1,669.3,283.9,669.7,284.6z"/>
		<path class="st6" d="M663,255l0.6-0.3c0.2,0,0.2,0,0.4,0.1c0.2,0.2,0.3,0.8,0.7,0.6c0.1,0,0.1-0.2,0.2-0.3c0.1,0,0.2,0,0.3-0.1
			c0.5-0.3,0.2-0.5,0-0.9c0.2-0.2,0.5-0.2,0.8-0.3c0.1,0,0.3,0,0.4,0c0.2,0,0.1-0.2,0.3-0.1c0.3,0,0.3,0.4,0.7,0.1
			c0.1-0.1,0-0.3,0.2-0.4c0.2-0.1,0.4,0.2,0.6,0.1c0.3,0,0.2-0.2,0.3-0.4c0.1-0.4,0-0.4,0.5-0.6c0.5,1,1.1,1.9,1.7,2.9
			c0.4,0.7,1,1.4,1.2,2.2c0.1,0.2,0.3,0.6,0.3,0.9c-0.1,0.3-0.5,0.3-0.8,0.2c-0.4-0.1-0.7-0.5-1-0.6c-0.1,0.5-0.5,0.4-0.9,0.3
			c-0.2-0.1-0.4-0.1-0.6-0.2c-0.3-0.1-0.3-0.2-0.5-0.2c-0.2,0-0.3,0.3-0.6,0.2s-0.1-0.5-0.4-0.7c-0.1,0.5-1.1,0.3-1.4,0.2
			c-0.1-0.1-0.2-0.3-0.4-0.4c-0.1-0.1-0.3,0-0.5,0c0.1,0.4-0.1,0.4-0.4,0.4c-0.4,0-0.5-0.2-0.7-0.6C663.5,256.6,663.3,255.8,663,255
			z"/>
	</g>
</g>
<g id="floor3">
	<g id="water_back_1_">
		<path class="st3" d="M602.4,357.8c0,0-4,38.3-1.8,43.9c2.2,5.6-11.4,2.1-11.4,2.1s1.7-44.1,7.1-49.2L602.4,357.8z"/>
		<path class="st3" d="M646.3,357.1c0,0,3.2,36.8,0.7,42.1c-2.5,5.3,12.1,2.5,12.1,2.5s-0.5-42.3-6.2-47.5L646.3,357.1z"/>
	</g>
	<path class="st4" d="M559.8,319.4c0,0,49.5-48.5,130.5-4.5c0,0-0.7,20.5-16.5,34.3c-13.1,5.4-24,18.8-81.4,8.6
		c0,0-11.8-3.3-17.6-9.1C569,342.8,562.4,329.6,559.8,319.4z"/>
	<path class="st5" d="M614.2,359.9c-0.6,16.1,3.8,20.5-16.2,38.3c-13,5,53.6,0,53.6,0s-19.5-10-15.9-39.3
		C635.6,358.9,622.6,349.3,614.2,359.9z"/>
	<path class="st5" d="M673.8,349.1c0,0-3.8-18.3-49.9-18.6c-46.1-0.3-49.1,18.1-49.1,18.1s-10.3-10-15-29.3c0,0,29.5-26,65.2-22.9
		c30.8,0.1,49.1,7.7,65.2,18.4C690.2,314.9,690.4,333.9,673.8,349.1z"/>
	<path class="st4" d="M599.6,396.6l13.1-1c0,0,11.3-31.6,22.8-24.3c0,0-0.5-6.5,0.3-12.5c0,0-12.9-10-21.7,1
		C613.6,377.2,616.3,380.6,599.6,396.6z"/>
	<g id="water_floor">
		<path class="st1" d="M589.5,302c0,0-30.4,55.9-31.1,106.9l23.7-7c0,0-1.6-64.6,21-104C603.1,297.9,590.7,299.8,589.5,302z"/>
		<path class="st1" d="M660.4,300.8c0,0,30.7,57,31.4,108l-23.7-7c0,0,1.6-64.6-21-104C647.1,297.9,654.5,297.3,660.4,300.8z"/>
		<path class="st1" d="M576.5,309.9c0,0-42.8,60.5-34.8,103.5l-19,5.5c0,0,4.5-80,50.2-109H576.5L576.5,309.9z"/>
		<path class="st1" d="M674.7,306.1c0,0,42.1,58.3,41,107.5l23.4,8.8c0,0-11.2-83.5-57-112.5L674.7,306.1z"/>
		<path class="st7" d="M682.6,318.2c0.9,0,1.8-0.2,2.7-0.2c1,0,2.2,0.5,3.1,0.8c0.6,0.2,1.4,1,2.1,1.1c1.7,0.2,0.3-1.3,0.7-1.9
			c1-1.6,2.2,3.1,2.4,3.8c0.2,0.7,0.5,1.5-0.3,1.9c-0.5,0.3-1.9-0.5-1.9-0.5c-0.6,0.4-1.6,1.3-2,0.1c-1.3,0.9-1.9-0.8-2.7-1.5
			c-0.8-0.7-1.6-0.4-2.4-0.9C683.9,320.7,683.1,318.2,682.6,318.2z"/>
		<path class="st7" d="M691.3,333.2c0.5,0,0.9,0.1,1.4,0.1c0.8,0.1,1.6-0.2,2.2-0.2c1.6,0.1,2,1.6,3.3,2.2c1.3,0.5,1.6,0.5,2.7-0.2
			c0.4-0.3,0.8-0.2,1.1-0.6c0.3-0.3,0.1-0.8,0.4-1.2c0.3-0.4,0.8-0.6,1.1-1s0.1-0.9,0.8-1.3c0.5,0.7,3.8,4.4,3.6,5
			c-0.3,0.8-1.3,1.9-1.4,2.7c-0.1,0.8,0.6,1.1,0.1,1.9c-0.6,0.8-1.1,0.2-1.6,0.6c-0.5,0.4-0.4,1.3-0.8,1.7c-0.7-0.6-1.6,0-2.3-0.5
			c-0.4-0.3-0.2-0.9-0.5-1.1c-0.6-0.5-1.7,0-2.5-0.6c-0.7-0.4-0.9-1.3-1.5-1.8c-1.1-0.9-1.6-0.8-1.9,0.5
			C693.1,339.7,693.3,333.4,691.3,333.2z"/>
		<path class="st7" d="M701.2,353.4c0.2,0.4,4.2-0.1,4.9,0.3c0.5,0.3,0.6,0.9,1.1,1.2c1.1,0.7,2.2-0.2,3.3-0.5
			c0.6,1.6,3.2,0.3,3.6-0.9c0.2-0.7-0.1-1.6,0.2-2.3c0.5-0.8,1.1-1.2,1.3-2.2c0.9,1.3,1.5,2.9,2.2,4.3c0.4,0.8,0.9,1.6,1.2,2.4
			c0.2,0.4,0.4,1.1,0.5,1.5c0,0,0.5,1.8,0.1,1.5c-2-1.2-1.5,2.2-2.1,3.1c-0.2,0.3-0.7,0.4-0.8,1c-0.1,0.4,0,0.9,0,1.3
			c-0.1,1-0.1,1.8-1.3,2c-1.2,0.2-1.1-0.6-1.6-1.3c-0.2-0.2-0.7-0.9-0.9-1c-0.9-0.3-0.3,0.2-1.1,0.4c-1.3,0.3-2-0.3-2.8-1.2
			c-0.7-0.9-1.1-2.6-2.2-3.2c-0.5-0.3-3-0.3-3.2-0.8C703.6,358.9,701.6,354.2,701.2,353.4z"/>
		<path class="st7" d="M711.1,381c1.1,0.2,2.1,0.3,3.1,0.7c1.4,0.5,2.6,1.6,4.1,1.9c0.3,0.1,0.6-0.2,1-0.1c0.3,0.1,0.5,0.7,0.8,0.9
			c0.6,0.4,1.8,0.9,2.6,0.9c2,0,1.8-1.7,2.4-3c0.4-0.9,0.9-1.9,1.7-2.6c0.6-0.5,1.4-0.6,1.9-1.3c-0.2,1.8,0.8,3.4,1.3,5
			c0.2,0.5,0.8,2,0.3,2.4s-1.1-0.5-1.6,0c-0.4,0.4,0.4,1.6,0.5,2c0.2,0.5,0.4,2.2,0.4,2.8c0,0.9-0.6,1.2-0.7,2
			c-0.1,0.8,0.4,1.7,0.2,2.6c-0.4,2.6-3.1,1.4-3.5-0.6c-1.4,0.5-3.2,0.2-3.6-1.6c-0.4-0.1-0.9,0.1-1.3,0.1c-0.3,0-0.8-0.4-0.9-0.5
			c-0.9-0.1-1.8,0.4-2.5-0.2s-0.8-2.1-1.2-2.9c-0.7-1.3-1.4-2.1-2.6-2.8c-1.1-0.6-0.8-0.2-1.2-1.3C712.1,385,711.5,381.1,711.1,381z
			"/>
	</g>
	<path class="st7" d="M566.5,359.7c-0.1,0.2,0.4,0.8,0.5,1c0.5,0.7,1.2,1.1,1.4,2c0.1,0.3-0.1,0.9,0.2,1.1c0.5,0.5,0.9-0.4,1.4-0.3
		c0.3,0,0.3,0.3,0.4,0.5c0.2,0.4,0.6,0.5,1,0.2c0.3-0.2,0.3-0.7,0.7-0.8s0.7,0.4,1,0.5c0.4,0.2,0.8,0.1,1.1,0c0.5-0.3,0.6-0.5,0.8-1
		c0.3-0.7,1.6-1,1.9-0.1c0.1,0.3-0.2,0.8,0.4,0.5c0.6-0.3,0.4-1,0.9-1.4c0.8-0.6,0.3,0.7,0.9,0.5c0.2-0.1,0.2-0.4,0.2-0.6
		c0-0.6-0.2-1.1,0.5-1.4c0.3-0.1,0.5-0.2,0.8-0.2s0.5,0.1,0.8,0.1c0.6,0,0.7-0.5,1-0.9c0.3-0.5,0.7-0.6,1.2-0.8
		c0.2-0.1,1.5-0.7,1.5-1c-0.2,1.3-0.3,2.6-0.5,4c-0.1,1.2-0.3,2.3-0.4,3.5c-0.1,0.9,0,2.5-0.6,3.2c-0.2,0.2-0.3,0.2-0.5,0.4
		c-0.4,0.3-0.7,1.2-1.3,1c-0.3-0.1-0.3-0.5-0.5-0.6s-0.6,0.1-0.7,0.3c-0.4,0.4-0.4,1-0.8,1.4c-0.5,0.6-1.3,1-2,0.8
		c-1-0.2-1.2-1-2-1.5c-0.3-0.2-0.5-0.3-0.6,0.1c-0.1,0.5,0.2,1.1-0.3,1.5c-0.4,0.4-1.3,0.2-1.8,0.1c-0.3-0.1-0.4-0.1-0.6-0.3
		c-0.1-0.1-0.3-0.7-0.4-0.7c-0.3,0.2-0.4,0.2-0.4,0.5c0,0.3,0.1,0.4,0,0.7c-0.1,0.1-0.3,0.3-0.4,0.4c-0.3,0.5-0.6,0.7-0.9,1.1
		c-0.5,0.6-1.1,0.7-1.8,0.4c-0.6-0.2-0.3-0.5-0.6-1c-0.2-0.3-0.5-0.2-0.6-0.4c-0.1-0.1-0.1-0.4-0.1-0.6c0-0.3,0.1-0.8-0.1-1
		c-0.3,0.7-0.8-0.6-0.7-0.9c0-0.2,0.2-0.3,0.2-0.5c0-0.3-0.1-0.2-0.3-0.3c-0.9-0.4-0.9-0.8-1.2-1.6c-0.1-0.3-0.6-1.2-0.5-1.6
		C564.7,366.1,566.4,359.7,566.5,359.7z"/>
	<path class="st7" d="M574.9,334.7c0,0,1.1,0.2,1.2,0.2c0.8,0.2,1.6,0.1,1.6,1.1c0,0.3-0.1,0.5,0.1,0.7c0.2,0.3,0.7,0.3,1,0.3
		c0.2-0.1,0.6-0.2,0.8-0.4c0.1-0.2,0-0.4,0.1-0.5c0.3-0.5,0.8,0.4,1.2,0.6c0.3,0.2,1,0.3,1.4,0.2c0.4-0.1,0.5-0.7,0.8-0.8
		c0,0,0.3,0.1,0.4,0.1s0.3-0.1,0.3-0.1c0.3-0.1,0.6-0.2,1-0.2c-0.1,0,0.3,0.3,0.3,0.3c0.2,0.1,0.5,0,0.7-0.1c0.5-0.1,1-0.1,1.5-0.2
		c0.7-0.1,1.9-0.3,2.1-1.2c0-0.1,0.1-0.3,0.1-0.4c0,0.6-0.2,1.2-0.3,1.7c-0.4,2.1-0.9,4.2-1.3,6.3c-0.2,0.9-0.3,2.1-0.8,3
		c-0.3,0.5-2,2.3-2.4,1.1c-0.2-0.4,0.2-0.7,0.2-1.1c-0.5,0-1-0.2-1.1,0.4c-0.1,0.6,0.1,1.3-0.6,1.5c-0.8,0.2-0.4-0.4-0.7-0.7
		c-0.3-0.5-1.1-0.5-1.7-0.3c0,0-0.1,0.6-0.2,0.6c-0.1,0.2-0.2,0.4-0.4,0.5c-0.4,0.2-0.5,0-0.9,0c-0.9-0.1-0.9,1.3-1.8,1.3
		c-0.7,0-0.4-0.4-0.3-0.8c0-1-1.3-0.3-1.1-1.4c0.1-0.4,0.3-0.6,0.3-1s-0.3-1.2-0.6-0.7c-0.1,0.2-0.1,0.5-0.3,0.7
		c-0.3,0.2-0.3,0-0.5-0.3c-0.3-0.3-0.3-0.1-0.7-0.1c-0.5,0.1-0.6-0.1-0.9-0.4c-0.2-0.2-1.4-1.1-1.4-1.3
		C571.8,342.9,574.9,334.7,574.9,334.7z"/>
	<path class="st7" d="M539.7,350.9c0.2-0.2,1.8,0,2,0.2c0.4,0.4,0.1,1.4,1,1.4c0.4,0,0.9-0.5,1-0.7c0.1-0.2,0.1-0.6,0.3-0.8
		c0.5-0.3,1.4,0.7,1.9,0.8c0.6,0.1,1.2-0.4,1.7-0.8c0.4,0.6,1.3,0,1.7-0.2c0.2,0.2,0.4,0.3,0.6,0.6c0.2,0.3,3.5-0.7,3.7-0.4
		c0.1,0.1-2,2.6-2.6,2.4c-0.5-0.2-0.7,0.8-1,1.2c-0.1,0.2-0.2,0.6-0.5,0.7c-0.2,0.1-0.2-0.1-0.4-0.1c-0.4,0-0.6,0.8-0.8,1.1
		c-0.3,0.6-0.9-0.1-1.2,0.4c-0.2,0.3-0.2,0.6-0.4,0.9c-0.3,0.4-0.5,0.8-0.8,1.1c-0.5,0.5-0.6,0.2-1.2,0.4c-0.3,0.1-0.3,0.2-0.6,0.1
		c-0.2-0.1-0.3-0.4-0.6-0.3c-0.4,0.1-0.7,0.9-0.8,1.2c-0.2,0.5-0.7,1.4-1.3,1.4c-0.6-0.1-0.2-0.6-0.3-1c-0.2-0.6-1.8-0.9-2-0.5
		c-0.2,0.4,0.4,1.1,0.2,1.6c-0.2,0.4-0.5,0.4-0.8,0.4c-0.3,0.1-0.6,0.5-0.9,0.5c-0.1,0-0.2-0.3-0.3-0.3c-0.2,0.2-0.5,0.1-0.7,0.3
		c-0.3,0.2-0.3,0.6-0.6,0.8c-0.2,0.1-1.3-0.1-1.3,0.1C534.7,363.2,538,353.4,539.7,350.9z"/>
	<path class="st7" d="M526.7,391.5c2.2-0.1,3.4,1.9,5.3,1.9c1.4,0,1.9-1.3,3-1.8c1.5-0.6,3.4-0.5,5-0.4c1.5,0.1,0.1,3.9-0.4,4.4
		c-1.2,1.2-3.3,0.7-4.4,2.1s0.1,3.4-1.9,4.4c-2.2,1.1-2.3-2.8-4.5-2.4c-1.1,0.2-3.2,2.9-4.2,3.7
		C524.6,403.4,525.8,391.5,526.7,391.5z"/>
	<path class="st7" d="M552.2,329.6c0.3,0,1-0.2,1.2,0.1c0.2,0.3-0.2,0.7,0,0.9c0.3,0.6,1-0.3,1-0.7c0.4,0,0.8,0.2,1.1,0.3
		c0.6,0.1,0.7-0.3,1.3-0.4c-0.1-0.4,0.4-0.4,0.6-0.3c0.5,0.2,0.1,0.5,0.6,0.3c0.6-0.2,0.8-0.7,1.5-0.7c0.2,0,0.3,0.1,0.5,0
		c0.1,0,0.3-0.2,0.5-0.2c0.3,0,0.6,0.1,1,0.1c0.3,0,0.6,0,0.9-0.1c0.8-0.3,1.5-0.3,2.4-0.4c-0.6,0.8-0.9,2-1.5,2.9
		c-0.4,0.6-1.2,0.8-1.6,1.4c-0.1,0.2-0.3,0.4-0.4,0.6c-0.1,0.1-0.5,0.5-0.5,0.4c0-0.2,0-0.4-0.2-0.5c-0.5,0.2-0.5,0.8-1,1
		c-0.2,0.1-0.6,0.2-0.8,0.2c-0.4,0-0.2-0.2-0.4-0.3c-0.3-0.1-0.9-0.1-1.2,0.2c-0.2,0.2-0.2,0.4-0.4,0.6c-0.2,0.2-0.4,0.3-0.7,0.2
		c0-0.3-0.2-0.3-0.4-0.5c-0.3-0.3-0.3-0.7-0.8-0.5c-0.5,0.2-0.6,0.8-0.9,1.2c-0.1,0.2-0.9,1-0.9,0.6c-0.3,0.1-0.5,0.2-0.8,0.2
		s-0.3-0.2-0.5-0.3c-0.3-0.1-0.9-0.3-1.2-0.2c-0.3,0.2-0.2,0.6-0.4,0.8c-0.2,0.3-0.6,0.6-0.9,0.8c-0.5,0.4-1.1,0.4-1.7,0.5
		c-0.2,0-1,0.2-1.2,0.3C546.5,338.1,551.5,329.7,552.2,329.6z"/>
	<path class="st7" d="M583.3,314.6c0.4,0.4,1.1,0.3,1.1,1.1c0,0.4-0.1,0.7,0,1.2c0.2,0.5,0.5,1.1,1.1,0.6c0.4-0.3,0.3-0.8,0.6-1.1
		c0,0,0.3,1.1,0.3,1.2c0.5,0.9,1.1-1,1.6-0.6c0.2,0.2-0.1,0.7-0.2,0.9c-0.2,0.6,0,1,0.8,0.8c0.8-0.1,0.7-0.8,0.9-1.4
		c0.2-0.5,0.8-0.6,1-1c0-0.1,0.5,0.5,0.5,0.5c0.2,0.2,0.3,0.3,0.6,0.2c0.5-0.1,1.1-0.6,1.4-1c0.3-0.3,0.5-0.7,0.5-1.1
		c0.5,0,1.2-0.5,1.6-0.7c0.2-0.1,0.3-0.1,0.5-0.2l2.3-5.6c0,0-1-0.1-1.1-0.1c-0.5,0-1.1,0.1-1.6,0.2c-0.3,0.1-1.3,0.4-1.3-0.1
		c-0.5,0-0.7,0.8-1.2,0.5c-0.3-0.2-0.3-0.5-0.7-0.5c-0.5-0.1-0.3,0.1-0.4,0.5c-0.1,0.3-0.9,1-1.2,0.9c-0.2-0.1-0.3-0.8-0.4-1
		c-0.2-0.3-0.5-0.5-0.5-0.8c-0.4,0.1-1,0.7-1.4,0.1c-0.2-0.3-0.1-0.7-0.3-0.9c-0.2-0.2-0.4-0.2-0.7-0.3c-0.1,0-1.3,2.7-1.4,2.9
		c-0.7,1.4-1.4,2.9-2.1,4.3C583.5,314.2,583.4,314.4,583.3,314.6z"/>
	<path class="st7" d="M559.3,321.2c0.3,0.2,0.6,0.4,0.7,0.7c0,0.2-0.1,0.3-0.1,0.5c0.1,0.5,0.4,0.2,0.8,0.2v0.1
		c0.2,0,0.3-0.1,0.5-0.1c0.2,0,0.3,0.1,0.5,0c0,0.9,0.6,0.8,1.2,0.3c0.2-0.2,0.5-0.5,0.8-0.6c0.1,0,0.3,0.1,0.5,0.1
		c0.2,0,0.2-0.1,0.4-0.1c0.5-0.2,1.1-0.1,1.7-0.2c0.4,0,0.5-0.1,0.8-0.3c0.2-0.1,0.6-0.4,0.8-0.4c0,0.3,0.3,0.1,0.5,0.2
		s0.1,0.4,0.5,0.3c0.4-0.8,0.9-1.5,1.3-2.3c0,0.1-1-0.1-1.2-0.1c-0.4,0-0.7,0.2-1.1,0.2c-0.6,0.1-0.6-0.3-1-0.5
		c-0.3-0.2-1,0.1-1.3,0.3c-0.1,0.1-0.3,0.4-0.5,0.3c-0.3,0-0.3-0.5-0.5-0.5c-0.3,0-0.7,0.8-1.1,0.5c-0.2-0.2,0.1-0.4,0-0.5
		c-0.1-0.2-1.2-0.6-1.4-0.4C561,319.6,560.1,320.4,559.3,321.2z"/>
	<path class="st7" d="M654.7,315c0.2,0.3,2.1,0,2.4,0c0.9,0.1,2.5,0.1,3.2,0.6c0.6,0.4,0.3,0.9,1.2,1.1c0.7,0.1,1.2-0.6,1.8-0.5
		c0.8,0.1,0.7,1.7,1.8,1c0.8-0.5,0.3-2,1.2-2.3c1-0.3,1.2,0.8,1.5,1.4c0.5,1,1.2,2.2,1.5,3.3c0.1,0.5,0.6,0.8,0,1
		c-0.1,0-0.9-0.2-0.9-0.2c0.3,0.8,0,1.7-0.8,2.1c-0.3,0.2-2.6,0.2-2.4-0.5c-0.3,0.9-0.8,0.8-1.4,0.4c-0.3-0.2-0.4-0.8-0.7-1
		c-0.4-0.3-0.8-0.1-1.3-0.2c-1.3-0.5-0.9-2-2.7-1.7c-0.5,0.1-0.6,0.5-1.2,0.5c-0.1,0-1.4-0.5-1.4-0.6
		C656.5,319.4,656.1,316.7,654.7,315z"/>
	<path class="st7" d="M661.3,336.4c-0.1-0.4,2.7,0,2.9,0.1c0.5,0.1,1.3,0.7,1.6,0.7c0.8,0.1,0.7-0.3,1.4-0.5c0.5-0.1,0.8,0,1.4-0.1
		c0.7-0.2,1.2-1.2,1.8-1.3c0.9-0.1,1.2,1.2,2.1,0.9c0.7-0.2,0.5-1.2,0.9-1.5c0.2-0.2,1.9-0.5,2-0.5l2.7,7.2c0.3,0.8-1,1.3-1.5,1.1
		c-0.1,0-1.2-1.4-1.2-1.4c-0.1,1.3-0.3,1.9-1.1,2.8c-0.2,0.2-1.6,3-1.4,3c-0.7,0-1-0.7-1.5-1.1c-0.1,0.3-0.3,0.4-0.3,0.8
		c-0.8-0.1-0.9-0.9-1.6-1.1c-0.3-0.1-0.9,0.2-1.3,0c-0.5-0.2-0.3-0.6-0.5-0.9c-0.5-0.5-0.8-1.1-1.5-0.8c-0.6,0.2-0.8,0.8-1.4,1
		c-0.2,0-1.7-0.3-1.7-0.4C663,344.5,661.3,336.5,661.3,336.4z"/>
	<path class="st7" d="M666.3,366.8c0,0.3,2.8,0,3.1,0.1c1.2,0.5,1.5,3.5,3.2,2.5c0.4-0.2,0.4-1.2,0.9-1.3c0.9-0.3,1,0.9,1.3,1.3
		c0.6,0.7,0.5,0.8,1.6,0.7c2-0.2,0.7-1.2,1.7-2.2c0.6-0.6,0.6,0.2,1.2,0.1c0.8-0.2,2.1-1.4,2.9-1.9c0.9-0.5,1.8-1,2.8-1.3
		c-0.3,0.1,2.7,8.6,1.7,9.7c-1.1,1.3-1.3-0.2-2.1-0.4c-1.1-0.4-2.3,1.1-2.6,2c-0.4,1.1-0.1,2.4-1.4,2.9c-0.5,0.2-1.1,0.1-1.5,0.5
		c-0.3,0.3-0.2,1-0.6,1.3c-1.4,1.2-1.5-0.9-1.7-1.6c-0.3-1-1.2-1-1.9-1.4c-0.7-0.5-1-1.3-1.7-1.7c-1-0.6-6,0.8-6.2-1.2
		C667,374.5,666.3,366.9,666.3,366.8z"/>
</g>
<g id="floor2">
	<path class="st5" d="M505.1,428.5c0,0,101.3-72.7,244-3.3c0,0,5.7,6.2,1.2,14.7c0,0-126.2-63.7-248.5,4.9
		C501.8,444.8,499,432.4,505.1,428.5z"/>
	<path class="st4" d="M504.7,443.3c0,0,106.3-72.1,243.9-4.1c0,0,3.5,18.6,0,26.3c0,0-140.6-32.8-244,4.2
		C504.5,469.6,501,445.6,504.7,443.3z"/>
	<path class="st5" d="M504.8,447c0,0,106.5-63.5,244-4c0,0,3.5,16.3,0,23c0,0-140.6-28.7-244,3.6C504.8,469.6,501.1,449,504.8,447z"
		/>
	<path class="st4" d="M599.6,415.4c0,0-70.5,15.3-47.3,44.7c0,0-22.8,0.6-48.8,9.6c-0.9-5.5-3.1-25.3,6.2-29
		C520.3,436.3,593.4,413.3,599.6,415.4z"/>
	<g id="door1">
		<path class="st8" d="M608.6,452.8c0,0,0.9-19.6,18.1-20.3s17.9,20.6,17.9,20.6L608.6,452.8z"/>
		<path class="st9" d="M613.5,451.8c0,0,0.6-14.7,13.6-15.2s13.4,15.5,13.4,15.5L613.5,451.8z"/>
		<path class="st10" d="M620.4,452c0,0,0.3-7.3,6.8-7.6c6.4-0.2,6.7,7.7,6.7,7.7L620.4,452z"/>
	</g>
	<g id="door2">
		<path class="st11" d="M539.2,460.7c0,0,1-23.4,15.9-24.6c14.8-1.2,12.2,20.2,12.5,20.2"/>
		<path class="st9" d="M543.6,458.8c0,0,0.7-15.2,10.3-16s7.9,13.1,8.1,13.1"/>
		<path class="st10" d="M550.4,457.5c-0.9-1.7,0.6-4.5,1.5-5.8c0.4-0.5,0.8-1,1.2-1.5c1-1,2.9-1.9,4.3-1.9c1.1,0,2.2,0.5,3,1.3
			c1.2,1.3,1.5,3.2,1.5,4.9v1.3"/>
	</g>
	<g id="door3">
		<path class="st11" d="M710.4,459.7c0,0-1-23.4-15.9-24.6c-14.8-1.2-12.2,20.2-12.5,20.2"/>
		<path class="st9" d="M706,457.9c0,0-0.7-15.2-10.3-16s-7.9,13.1-8.1,13.1"/>
		<path class="st10" d="M699.2,456.5c0.9-1.7-0.6-4.5-1.5-5.8c-0.4-0.5-0.8-1-1.2-1.5c-1-1-2.9-1.9-4.3-1.9c-1.1,0-2.2,0.5-3,1.3
			c-1.2,1.3-1.5,3.2-1.5,4.9v1.3"/>
		<path class="st8" d="M741.1,464.4c0,0,2.2-17.1,9.5-15.4s1.3,18,1.3,18L741.1,464.4z"/>
		<path class="st9" d="M743.9,465.1c0,0,1.4-10.5,5.8-9.5c4.5,1,0.8,11,0.8,11L743.9,465.1z"/>
		<path class="st8" d="M514.3,466.7c0,0-0.6-16.1-8-15.3c-7.4,0.8-2.2,18.5-2.2,18.5L514.3,466.7z"/>
		<path class="st9" d="M512.7,466.7c0,0-2.4-10-6.9-8.8c-4.4,1.2-0.3,11.1-0.3,11.1L512.7,466.7z"/>
	</g>
</g>
<g id="Layer_12">
	<path class="st6" d="M503.5,468.6c-7.3,5.5-106.9,81.6-118.9,86.3c-12,4.7-200,77.3-206.7,96s387.3-131.3,448.7-87.3l374,46
		c0,0-178.1-79-247.7-143.4C636.2,432.7,510.7,463.1,503.5,468.6z"/>
</g>
<g id="Layer_8">
	<path class="st7" d="M598.5,552.9c0,0,15.9-115.5,31-104.8s29.4,104.8,29.4,104.8H598.5z"/>
	<path class="st1" d="M605.4,554.6c0,0,12.2-117.3,23.9-106.4S652,554.6,652,554.6H605.4z"/>
	<path class="st7" d="M491.8,574.5c0,0,60.8-108.7,68-117c0,0,3.1-13.4-17.3,6.5c-16.4,16-85.9,112.8-85.9,112.8L491.8,574.5z"/>
	<path class="st1" d="M489.3,570.6c0,0,65.8-117.5,72.6-114.2c0,0,2.5-14-13.5,4c-13.7,16.2-83,110.2-83,110.2H489.3z"/>
	<path class="st7" d="M738.2,571.6c0,0-43.6-107.8-50.6-116c0,0-2.9-12.4,17,5.5c16.7,15,68.2,112.6,68.2,112.6L738.2,571.6z"/>
	<path class="st1" d="M741.1,566.5c0,0-47-116.3-53.7-113c0,0-0.2-11.7,13.7,4.3c13.1,15.1,63.4,108.7,63.4,108.7H741.1L741.1,566.5
		z"/>
	<path class="st7" d="M632.7,527.3c-0.1-0.2-0.3-0.4-0.5-0.5c-5.9-4.5-1.2,11-1.3,11.7c0.3-1.6,3.7-11.8-0.4-11.3
		c-1.8,0.2-1.2,5-1.2,6.5c-0.1,2,2,7.5,3.8,3.7c0.6-1.2-0.4-2-0.4-3.1c0-1,0.3-1.7,0.4-2.7C633.2,530.3,633.5,528.5,632.7,527.3z"/>
	<path class="st7" d="M635.3,529c0-0.1,0.1-0.2,0.1-0.3c1.8-3.1,3.9,5.6,2.7,7.2C635.6,539.3,634.5,531.2,635.3,529z"/>
	<path class="st7" d="M638.9,525.9c0.1-0.1,0.1-0.1,0.2-0.1c1-0.1,2.2,5.1,2.5,6.5c0.4,1.7,1.5,5.5,0.6,6.5
		c-0.7,0.9-2.5-4.9-2.8-5.8C639.2,531.7,638.2,526.8,638.9,525.9z"/>
	<path class="st7" d="M504.4,540.1c1.8-1.2,2.9-3.3,2.7-5.5c-1.9,1.2-3.8,4.8-3.5,7.2c1.3-0.4,2-1.8,2.2-3"/>
	<path class="st7" d="M501.8,540.1c1.7-1.3,2.6-3.5,2.2-5.7c-1.8,1.4-3.3,5.1-2.9,7.5c1.2-0.5,1.9-2,1.9-3.2"/>
	<path class="st7" d="M498.2,540.1c1.7-1.3,2.6-3.5,2.2-5.7c-1.8,1.4-3.3,5.1-2.9,7.5c1.2-0.5,1.9-2,1.9-3.2"/>
	<path class="st7" d="M519.3,501.1c-1.1,1.1-1.5,3-2.5,4.3s-2.7,2.3-2.9,3.9c2.4,1.4,6.5-6,6.2-8.2c-0.5-0.2-0.5,0.1-0.7,0.2"/>
	<path class="st7" d="M521.8,502.4c0.2,2.4-2.2,3.8-2.2,6.2c2.7,0.3,2.7-4.4,2.7-6.2"/>
	<path class="st7" d="M543.8,473.9c-1.1,0.6-2.5,4.2-2.7,5.7c1.9-0.4,3.6-4.5,3-6"/>
	<path class="st7" d="M540.5,473.6c-0.6,1.7-1.7,3.4-1.7,5.2c1.9,0,2.4-3.3,2-4.7"/>
	<path class="st7" d="M617.3,487.4c-2,2.3-2.1,8.1-2,11.2c3.8,1,4.1-9.1,3.9-11.4c0.9,1.4-0.2,10.2,3,9.2c0.7-2.2,1.6-16.3-2.7-10.6
		c-0.3-0.4-0.7-0.4-1-0.9c-1.4,0.5-1.2,2.4-1.7,3.5"/>
	<path class="st7" d="M627.3,485.6c-3.6-0.9-3.4,6.9-1.7,8.5c2.6,2.4,1.6-4.1,3.4-5c0.5,0.7,0.8,1.5,0.8,2.4c1.4-0.1,1.2-3.2,1-4.5
		c-0.5-2.5-2.4-2.7-2.3,0c-0.3-0.4-0.7-0.6-1-1.2c-0.2-0.1-0.6,0-0.7,0"/>
	<path class="st7" d="M636.8,486.9c-3,0.3-3,5.4-1.7,7.2c0.7-0.5,1.2-1.3,1.5-2.2c2.6,0.1,1.7,4.4,4.4,4.7
		c0.1-2.4-0.1-10.6-2.7-10.9c-0.1,1.3,0,2.6-0.1,3.9c0-1-0.3-2.4-1.7-2.5"/>
	<path class="st7" d="M613,526.6c-2.1,1.4-1.9,14.6,0.3,14c1.3-0.4,0.6-3.5,1.2-4.5c1.1-1.8,1-0.6,3-0.5c0-0.4,0.2-1,0.1-1.4
		c0.3,0.3,1.1,0.5,1.4,0.7c0.2-2-0.3-3.4-1-5.2c-0.3,0-0.6,0-0.9,0c-0.8,1-0.9,2.3-1.5,3.2c-0.6-2.3,0.2-5.1-2.3-6.3"/>
	<path class="st7" d="M624.3,455.6c-1.1,2-1.6,3.9-1.5,6.5c1.3-0.4,2.1-1.9,2.5-3.2c0.9-0.2,1.7,0,2.2,0.7c0.8-0.9,1.5-2.6,1-3.7
		c-1.5-0.3-1.7,1.4-3.2,1.2c0.1-0.5-0.2-1.2-0.1-1.7c-0.6,0-1.1,0.2-1.5,0.5"/>
	<path class="st7" d="M632.5,456.6c-0.2-1.1-0.9-1.8-2-2c-0.2,2.1,1.2,4,1.7,6c0.4,1.7,0.1,4.4,1.4,5.7c0.5-2,0.8-9.5-1.3-10.2"/>
	<path class="st7" d="M698,459.1c-1.3-1.9-2.1-0.2-1.7,1.3c0.2,0.8,1.7,2.5,2.2,3c1.2-1.2,0.4-3.7-0.7-4.8"/>
	<path class="st7" d="M701.3,461.9c0-1.4,0.5-4-1.5-3.7c-0.3,1.4,0.4,5.1,1.7,5.2c0-0.7,0.2-1.5,0-2.2"/>
	<path class="st7" d="M713.3,490.1c-0.2-2.2-3.7-7.8-6-8.2c-0.4,1.9,2.1,4.6,3,6.2c0.9,1.8,1.4,5.7,4.4,5c0.1-1,0-2,0.1-2.9
		c2.5,1.3,0.8-5.6-1-6.2c-0.1,1.9,1.2,4.7,0.4,6.2c-0.2-0.2-0.7-0.5-0.9-0.7"/>
	<path class="st7" d="M719.8,492.4c0-1.6-0.7-3.2-1.8-4.3c-1.3,1.4,1.5,7.2,2,4.5"/>
	<path class="st7" d="M736.3,533.9c-0.6-2.5-2.2-7.8-5.5-7.5c-0.2,3,2.3,4.9,3.3,7.5c0.7,1.8,1.4,6.4,4.1,4.2c0.1-1,0-2.1,0.1-3.2
		c4.2,3.1,0.7-5.2,0.4-6.5c-1.2,1.1-0.4,3.2-1,4.7c-0.6,0.2-1,0.2-1.5,0"/>
	<path class="st7" d="M732.5,536.4c-1.5-1.9-3.4-4.8-4.2-7.2c-0.1,2.1,1.8,9.9,4.4,9.6c0.5-1.1,0.1-2.1-0.2-3.2"/>
</g>
<g id="water_big">
</g>
<g id="floor1">
	<path class="st12" d="M157,651.9c0,0,215.1-108.3,468.4-98.7c0,0,280.1-3.2,440.7,73.8v67.4L157,694.2"/>
	<path class="st13" d="M157,654.7c0,0,214.3-99.9,468.5-91c0,0,279.5-3,440.6,68.3v62.4L157,693.9"/>
	<path class="st12" d="M157,658.9c0,0,210.7-90.9,464.9-82.8c0,0,283.1-3.8,444.2,60.7v56.4L157,694.4"/>
	<path class="st13" d="M157,658.9c0,0,209.6-91.6,463.8-83.5c0,0-269.2,24.4-108.1,88.9h-58.5L157,694.4"/>
	<path class="st14" d="M157,663.7c0,0,210.7-37.7,464.9-34.3c0,0,283.1-1.1,444.2,25.6v23.4L157,681.7"/>
	<path class="st15" d="M157,679.7c0,0,210.7-37.7,464.9-34.3c0,0,283.1-1.1,444.2,25.6v23.4H157"/>
	<path class="st16" d="M559.8,566.5"/>
</g>
<g id="big_door">
	<path class="st17" d="M534.8,634.2l-0.6-37.5c0,0,3.8-9.1,16.8-9.8s15.5,5.6,15.5,5.6l-10.6,34.4L534.8,634.2z"/>
	<path class="st16" d="M469,634.2l-0.7-71.5c0,0,7-14.9,31-16.2c24-1.2,28.5,9.2,28.5,9.2l1.8,75L469,634.2z"/>
	<path class="st5" d="M464.1,617.4l-1.1-56.2c0,0,7-13.6,31-14.7c24-1.1,28.5,8.4,28.5,8.4l1.8,68.3L464.1,617.4z"/>
	<g>
		<g>
			<path id="XMLID_1_" class="st4" d="M449.4,607.5l21.3,7.5l-0.8-50.2c0,0,5.2-12.2,23.2-13.2s21.3,7.5,21.3,7.5l1.3,61l-61.9,18
				L449.4,607.5z"/>
		</g>
		<g>
			<g>
				<defs>
					<path id="SVGID_1_" d="M449.4,607.5l21.3,7.5l-0.8-50.2c0,0,5.2-12.2,23.2-13.2s21.3,7.5,21.3,7.5l1.3,61l-61.9,18L449.4,607.5
						z"/>
				</defs>
				<clipPath id="SVGID_2_">
					<use xlink:href="#SVGID_1_"  style="overflow:visible;"/>
				</clipPath>
				<path class="st18" d="M500.2,626.9l-0.6-37.5c0,0,3.8-9.1,16.8-9.8c13-0.7,15.5,5.6,15.5,5.6l-10.6,34.4L500.2,626.9z"/>
			</g>
		</g>
	</g>
	<path class="st5" d="M446.4,645.2c0,0-3.3-38.7,3-37.7s4.3,25.7,4.3,35L446.4,645.2z"/>
	<path class="st19" d="M513.8,623.9l-3.3-3.3c-4.3-4.2-9.6-9.9-15.6-13c-3.9-2-8.1-3-12.6-1.8c-3.8,1-11.1,5.1-13.3,8
		c-1.7,2.2-1.5,5.2-3,7.5s-4.1,3.1-5.7,5.2c-3.8,4.8-4.2,8.5-9.7,12.3c-5.6,3.9-12.5,5.6-18.2,9.7c-9.9,7.1-20.1,14.2-26.8,24.8
		c-1.3,2-2.6,4-3.6,6.1c-1.1,2.2-1.7,4.6-1.5,7.2c4.8-3.8,15.8-2.4,21.8-3.3c6.9-1.1,13.7,0.7,21,0.7c6.9,0,16.8,3.6,23.2,2
		c5.7-1.4,4.7-5.3,8.2-10c2.8-3.9,7.3-6.8,9.7-10.9c2.8-4.8,2.3-9.1,5.5-13.8c4.9-7.2,11.2-14.2,17.8-19.5
		C510.5,629.4,514.2,628.3,513.8,623.9z"/>
	<path class="st1" d="M436.5,679.5c3.5,0,10,2.8,13,1.4c2.8-1.2,2.6-6.8,6.5-6.4c2.7,0.3,1.7,2.8,3.6,3.6c3.2,1.3,6.1-4.1,7.8-6.2
		c3.3-4,7.2-8.4,9.6-13.1c1.8-3.6,6.9-9.4,7.3-13.2c0.4-3.5-3.3-4.7,0.7-7.6c5.3-3.8,10.7-6.7,15.8-10.8c2.9-2.3,6.6-3.5,6.2-7.8
		l-3.3-3.3c-2.6-2.6-5.6-5.7-8.8-8.4c-3.9-2-8.1-3-12.6-1.8c-3.8,1-11.1,5.1-13.3,8c-1.7,2.2-1.5,5.2-3,7.5s-4.1,3.1-5.7,5.2
		c-3.8,4.8-4.2,8.5-9.7,12.3c-5.6,3.9-12.5,5.6-18.2,9.7c-9.9,7.1-20.1,14.2-26.8,24.8c-1.3,2-2.6,4-3.6,6.1
		c4.7-0.5,10-0.2,13.5-0.7C422.5,677.7,429.3,679.5,436.5,679.5z"/>
	<path class="st4" d="M498.9,607.5l25.7,12.2V631c0,0-22.1,10.8-23.6,16.9S498.9,607.5,498.9,607.5z"/>
	<path class="st5" d="M496,648.1c0,0-3.4-41.5,2.9-40.5s5,31,5,40.3L496,648.1z"/>
	<path class="st7" d="M415.1,663.5c0.3,0.5-0.9,3.8,0.3,5.4c1.9-1.6,3.3-4.2,5.4-5.7c2.7,3.6,4.4-3.1,4.6-4.9
		c-4.2-0.7-7,3.7-10.6,4.6"/>
	<path class="st7" d="M430.9,663.7c1.2,1,3.5-0.7,5-0.1c2,0.8,1.7,2.2,4.2,2.5c2,0.2,3.9-1.2,5.9-1.3c2.6-0.1,1.6,1.1,3.4,1.7
		c1.7,0.5,3.9-0.4,5.6-0.3c3.8,0,6.3,0.6,9.7-0.9c2.3-1,6.8-2,6-5.4c-6-0.3-12.3,2.2-17.9,1c-2.2-0.5-4.5-2-6.7-2.3
		c-2.8-0.5-5.4,1.1-8.3,1c-0.9-0.1,0.1-4.6-4-3C431.9,657.2,428.7,661.9,430.9,663.7z"/>
	<path class="st7" d="M478.8,660.9c-1.1-0.4-3.5,6.7,0.3,4.7c2-1,2.6-5.7,2.9-7.6c-1.8,0-2.1,1.5-3.6,2.3"/>
	<path class="st7" d="M483.1,639.2c-1.2,1.3-1.2,3.3-2,4.7c-1.7,3-2.2,1.7-4.7,1.9c-1.3,0.1-2.6,1-3.9,1c-2.5,0.1-3.4-1.6-5.5-2
		c-3.8-0.8-8.9,6.4-12.3,3.8c-2.6-2,1.2-4.6-0.2-6.5c-1.6-2.3-4.8,0.9-6.4,1.8c-0.2,0.1-2.4-2.5-3.7-2.1c-1.8,0.6-2.1,3.3-0.6,4.3
		c2.1,1.4,7.7-3.2,9.8-4c2.7-1.1,6.7-2.1,9.6-1.7c4.7,0.6,5.7,3.6,10.9,0.9c1.1-0.6,2.4-1.6,3.7-1.7c0.9-0.1,0.7,1.5,2,1.4
		c1.5-0.1,2.9-3,3.7-1"/>
	<path class="st7" d="M491.1,640.9c-0.9-1.4-1.3-3.5-3.3-3.3c-1.6,2-0.6,7.2-0.1,9.6c2.2-1.3,3.7-4.6,3.4-7.3"/>
	<path class="st7" d="M494.4,624.2c-0.1-3-1.7-5.8-5-4.2c-3.1,1.4-2.7,4-7,3c-1.2-0.3-1.2-1.1-2.7-1.2c-1.4-0.1-2.5,0.6-3.9,0.7
		c-3.1,0.3-5.4-0.6-7.7,1.7c1.7,0.4,4.9,0.4,6.7,1.6c2.6,1.7,1.6,2.8,5,2.8c3.5,0,9.5-1.6,12.3,0.5c-0.2-1.9,0.9-3.4,1.7-5"/>
	<path class="st7" d="M395.8,681.9c-0.1,0.7-0.3,2-0.3,2.1c-0.4-2.1,2.4-5.1,4.3-5.8c2.5-0.8,4.2,1.8,6.6,0.1c1.8-1.2,0.8-4,3.8-2.8
		c1.4,0.6,1.5,3.3,3.4,3.5c2.3,0.2,2.7-3.1,4.6-3.9c1.9-0.8,5.6,0.2,7.5,0.6c1.3,0.3,1.5,0.2,2.8,0.7c1.2,0.5,1.4,1.7,2.9,1.8
		c2.5,0.2,3.7-1.5,3.7-4c1.5,0,2.5,0.5,3.9,0.7c0.1,1.1,0,2.3-0.2,3.3c2.1,0.8,4-0.8,6-0.4c2.2,0.4,2.8,2.7,4.7,3.4
		c3.8,1.3,6.7-2.5,7.6-5.6c4.5-1.2,4.2,4.5,4.3,7.2c1.2,0.7,3.8,1.9,5.3,1.3c1.6-0.6,1.7-3.4,3.7-3.6c0.6,0,5.1,2.4,5.6,2.9
		c1.4,1.6,1.5,5.4,1.4,7.4c-0.4,6-3.6,3-7.7,4c-2.1,0.5-3.2,2.3-5.2,3.3c-1.8,0.8-4,0.9-5.7,1c-1.6,0.1-0.9,0-2.5,0.7
		c-3,1.2-12.3,5-15.3,2.7c-1.5-1.1-0.6-2.6-1.6-4c-1.9-2.9-3.5-1.3-5.3,0.5c-2.3,2.2-2.5,3.3-6.1,2.3c-3.1-0.9-5.2-2.4-8.7-1.2
		c-2.9,1-4.8,2.7-8.3,1.9c-1.5-0.3-2.5-1.4-3.7-1.7c-0.7-0.2-2.8,0.4-3.7,0.3c-4.4-0.1-2.8-2-5.3-4.3c-3.2-3-2.1,2.8-5.9,2.3
		c-3.5-0.4-5.3-4.8-3.9-7.8c1.2-2.6,4.6-3.7,6.5-5.6c1.2-1.2,0.4-2.9,2.4-3.2"/>
</g>
<g id="Layer_17">
	<path class="st17" d="M740.9,637.2l0.6-37.5c0,0-3.8-9.1-16.8-9.8s-15.5,5.6-15.5,5.6l10.6,34.4L740.9,637.2z"/>
	<path class="st16" d="M956.6,634.3l0.9-46.2c0,0-1-16.7-25-17.9s-28.5,9.2-28.5,9.2l-0.9,51.8L956.6,634.3z"/>
	<path class="st5" d="M957.6,632.8l0.6-38.6c0,0,1.4-20.8-21.1-23.9c-23.3-3.2-27.9,8.4-27.9,8.4l-1.2,50.8L957.6,632.8z"/>
	<g>
		<g>
			<path id="XMLID_3_" class="st4" d="M952,634c0,0,0.4-36.5,0.4-36.6c0.1-6.4-1-13.8-6.1-18.4c-5-4.6-12.8-4.8-18.9-3.1
				c-3.5,0.9-6.9,2.4-9.2,5.2c-0.3,0.3-0.9,1-0.9,1.4l-0.9,47.4L952,634z"/>
		</g>
		<g>
			<g>
				<defs>
					<path id="SVGID_3_" d="M952,634c0,0,0.4-36.5,0.4-36.6c0.1-6.4-1-13.8-6.1-18.4c-5-4.6-12.8-4.8-18.9-3.1
						c-3.5,0.9-6.9,2.4-9.2,5.2c-0.3,0.3-0.9,1-0.9,1.4l-0.9,47.4L952,634z"/>
				</defs>
				<clipPath id="SVGID_4_">
					<use xlink:href="#SVGID_3_"  style="overflow:visible;"/>
				</clipPath>
				<path class="st20" d="M931,631.2l1.1-18.5c0,0-3.8-9.1-16.8-9.8s-15.5,5.6-15.5,5.6l12.7,19.8L931,631.2z"/>
			</g>
		</g>
	</g>
	<path class="st16" d="M908,626.6"/>
	<polygon class="st5" points="908.1,624.2 957.5,629.3 957.3,635.9 908.1,630.8 	"/>
	<path class="st16" d="M167.8,670.5l-0.3-26c0,0,0.4-9.4,9.4-10.1c9.1-0.7,10.8,5.2,10.8,5.2l0.3,29.2L167.8,670.5z"/>
	<path class="st5" d="M167,669.8l-0.2-21c0,0-0.5-12.3,7.3-14.4c9.9-1.9,11.2,4,11.2,4l0.5,29.4L167,669.8z"/>
	<g>
		<g>
			<path id="XMLID_5_" class="st4" d="M169.4,668.7c-0.4-17.5-0.4-21-0.4-17.9c0,0.2,0,0.4,0,0.7c0.2-3.6,0.4-8.1,2.1-11
				c1.3-2.4,4.3-4.4,6.5-3.6c1.5,0.5,2.9,1.4,3.9,3c0.1,0.2,0.4,0.6,0.4,0.8l0.5,26.4L169.4,668.7z"/>
		</g>
		<g>
			<g>
				<defs>
					<path id="SVGID_5_" d="M169.4,668.7c-0.4-17.5-0.4-21-0.4-17.9c0,0.2,0,0.4,0,0.7c0.2-3.6,0.4-8.1,2.1-11
						c1.3-2.4,4.3-4.4,6.5-3.6c1.5,0.5,2.9,1.4,3.9,3c0.1,0.2,0.4,0.6,0.4,0.8l0.5,26.4L169.4,668.7z"/>
				</defs>
				<clipPath id="SVGID_6_">
					<use xlink:href="#SVGID_5_"  style="overflow:visible;"/>
				</clipPath>
				<path class="st21" d="M176,668.9l-0.4-10.8c0,0,1.6-5.3,7.1-5.7s6.6,3.3,6.6,3.3l-5.4,11.5L176,668.9z"/>
			</g>
		</g>
	</g>
	<path class="st16" d="M261.2,671.1"/>
	<polygon class="st5" points="185.9,664.3 167,667.3 167.1,671.1 185.9,668.1 	"/>
	<path class="st22" d="M1007.7,688.8c-1.6,0.1-3.1,0.2-4.7,0.2C1004.5,689,1006.1,689,1007.7,688.8c-1.6-6.6-8.9-11.1-12-17
		c-2.4-4.5-2.9-5-7.5-8.1c-4.5-3-7.8-7.1-11.6-10.8c-3.4-3.3-7.7-5-11.4-7.8c-3.8-3-5.8-7.3-9-10.4c-1.6-1.6-4-2.1-5.2-3.8
		c-1.1-1.6-0.7-3.6-1.7-5.2c-2.5-4-6.3-4.5-10.1-5.9c-5.2-1.9-19-7.7-22.4-0.9c-0.1,0.2-0.2,0.3-0.2,0.5c0,0.1,0,0.1,0,0.2
		c-3.1,8.4,11.4,21.3,15.1,27.2c3,4.9,7.2,7.9,10.5,12.5c3.1,4.3,4.5,9.4,7.3,13.9c2.9,4.6,4.9,7.6,6.4,13.2
		c1.1,4.1,1.5,7.6,5.5,9.1c7.6,2.8,19.5-1.3,27.5-1.6c6.3-0.3,12.8,0.5,19-0.1C1008.1,691.9,1008.1,690.3,1007.7,688.8z M989,688.9
		c-6,0.3-14.2,2.6-21.2,2.6C974.8,691.5,982.9,689.2,989,688.9c0.7,0,1.5-0.1,2.3-0.1C990.5,688.9,989.8,688.9,989,688.9z"/>
	<path class="st23" d="M937.6,600.2c-0.1,0-0.2,0-0.3,0"/>
	<path class="st1" d="M988.2,663.7c-4.5-3-7.8-7.1-11.6-10.8c-3.4-3.3-7.7-5-11.4-7.8c-3.8-3-5.8-7.3-9-10.4c-1.6-1.6-4-2.1-5.2-3.8
		c-1.1-1.6-0.7-3.6-1.7-5.2c-2.5-4-6.3-4.5-10.1-5.9c-5.2-1.9-19-7.7-22.4-0.9c-0.1,0.2-0.2,0.3-0.2,0.5c-0.6,1.6,2.5,5.9,3.3,7.1
		c1.1,1.8,2.3,3.1,4.6,2.1c1.8,0.4,2.2,2.8,2.2,4.5c0,4.1,3.2,5.7,5.2,8.9c1.2,2,2.5,4.2,4.9,4.7c1.6,0.3,4.5-0.2,5.1,1.9
		c0.3,1.2-0.1,2.6,0.2,3.8c0.6,2.5,2.2,5,3.3,7.4c1.1,2.2,2,4.5,3.2,6.7c1.1,1.9,2.6,3.1,3.9,4.8c1.4,1.8,3.3,3.2,4,5.5
		c0.4,1.2-0.1,3.2,0.7,4c0.4,0.5,1.5,0.4,2,0.9c0.5,0.4,0.5,1,0.8,1.5c0.5,0.7,1.3,2.5,2,3s1.8,0.3,2.3,1c0.4,0.6-0.2,2,0.5,2.9
		c1.2,1.7,3.7,2.1,5.5,1.3c0.8-0.4,1.7-0.9,2.5-1.3c0.9-0.4,1.6-0.6,1.7-1.8c1.4-0.8,1.5,1.2,2.6,1.6c1.8,0.8,3.4,0.5,5.2-0.1
		c1-0.3,2.1-0.5,2.9-1.1c0.8-0.5,1.2-1.5,2.3-1.7c1.4-0.2,2.5,0.9,3.7,1.3c1.3,0.5,2.7,0.5,4.1,0.5c4.1,0.1,8.2,0.3,12.3-0.1
		c-1.5-6.6-8.8-11.1-12-17C993.3,667.4,992.8,666.8,988.2,663.7z"/>
	<path class="st7" d="M952.6,669c1.2-2.1,3.1-3.1,5.2-3c0.5,0,0.8,0.6,1.2,0.7c0.6,0.1,1-0.4,1.4-0.4c0.6,0.1,1.1,0.7,1.8,0.7
		c1,0,1.9-0.9,2.9-0.7c0.9,0.2,1.8,1.8,2.7,1.3c0.7-0.4,0.3-1.5,0.9-1.9c0.6-0.4,2.3,0.7,2.9,1.2c1.2,1,1.8,1.8,3.5,1.7
		c2.6-0.3,6.5-4.1,8.7-0.9c1.3,1.8,3,7.2-0.8,5c-0.9-0.5-1.1-1.4-2.2-1.5c0.4,2.2-1.8,1.7-2.9,2.1c-1.7,0.7-1.8,3-3.1,3.8
		c-1.5,0.9-3.8,0.1-5.4,0c-2.2-0.1-3.8-0.1-5.6-1.6s-2.6-0.9-4.6-1.1c-1.1-0.1-1.5-0.8-2.5-1.3s-2.3-0.2-3.1-1.3
		c-0.6-0.8-0.5-1.6-1.3-2.4"/>
	<path class="st7" d="M987.8,665c0,1.7,5.1,4.1,4.5,6.3c-0.4,1.8-3.4-1.8-4.5-1.6c0,0.2-0.1,0.4-0.1,0.6c-1.5,0.6-2.4-1.4-2.1-2.8
		c0.5,0.1,0.9,0.1,1.3,0.6c0.8-0.8-0.2-1.7,0.1-2.8c0.6-0.2,0.8-0.1,0.8,0"/>
	<path class="st7" d="M952.8,674.5c-1.5-0.7-1.8-2.7-2-4c-0.2-0.8-1-4-1.7-1.7c-0.3,0.9,0.9,2.8,1.2,3.8c0.5,1.5,0.6,2.9,2.4,3
		c0.1-0.5,0-1-0.3-1.5"/>
	<path class="st7" d="M943.4,654.2c-0.5-0.2-1.8-1.3-2.3-1c-1,0.6,0.7,3.2,1,3.8c1,1.6,2.1,3,3.3,4.2c0.6-0.9,0.7-3.3-0.4-3.8
		c0.3,0,0.9-0.1,1.3,0.1c-0.2-1.9-0.7-2.4-1.8-4c-0.2,0.1-0.6,0.2-0.8,0.3"/>
	<path class="st7" d="M946.4,652.7c0.3,1.2,1.4,3.7,2.8,3.8c0.5-1.9,0.9-0.8,1.9-0.7c1.2,0.2,2.9-0.2,4,0.2c1,0.4,1.3,1.6,2.3,1.6
		c1.3,0.1,1.5-0.9,1.4-2c1.9-0.8,3.9,0.4,3.1-2.2c0.1,0.2-0.6-0.8-0.6-0.8c-0.1-0.3,0.1-1.1-0.2-1.5c-0.3-0.5-1.6-1.2-2.2-1.1
		c-0.2,1.1,0.4,1.8,0.4,2.8c-2.3,0-4.7-0.5-7-0.5c-2,0-4.7,0.9-6.3,0.7"/>
	<path class="st7" d="M962.3,649.5c1.3,1.1,1.6,3,3.3,3.4c-0.1-0.6-0.4-1.3-0.3-1.9c1.5-0.8,2.9,0.5,4.3-0.2c-0.3-1-3.5-4.8-4-2
		c-1.3-0.4-1.6-0.4-2.8,0.2c-0.1,0.1,0,0.3,0,0.5C962.6,649.5,962.4,649.5,962.3,649.5c-0.1,0.6,0.1,0.9,0.5,1.2"/>
	<path class="st7" d="M925.9,629.9c0.8,1.6,3.7,7.4,4.2,2.9c1.7-0.2,3.4,2.2,3.6-0.2c0.2-1.9-2.3-2.9-3.3-1.6
		c-0.6-0.6-1.4-1.6-2.3-1.5c-1.1,0-1.1,1.3-2.3,1v0.4c0.4,0.3,0.5,0.6,0.8,0.9"/>
	<path class="st7" d="M934.3,629c0-0.1-0.3-0.3,0-0.2c1,0.8,1.4,2.1,2.5,2.7c0.6-0.8,0.3-1.3,1.3-1.5c1.1-0.2,2.3,1.2,3.5,0.9
		c1.3-0.3,0.2-1.4,2.1-0.5c1.3,0.6,1,1.4,2,0.7c0.7-0.5-0.5-1.2,1.1-1.3c0.5,0,1.4,1.4,2,0.3c0.7-1.1-2.2-3.5-3-4
		c-0.1,0.1-0.1,0.3-0.2,0.3c-1.6,0-1.5,0.6-2.7,1c-1.2,0.4-2.5-0.2-3.8,0.1c-1.4,0.3-1.9,0.3-3.3,0.3c-1.4-0.1-2.2,0.4-1.3,1.7"/>
	<path class="st7" d="M950.4,696.5c-2.3-6.3,4.1-8.8,9.7-8c3.3,0.5,3.1,1.4,5.7-2.1c2-2.6,2.5-2.9,6-2.3c2.5,0.5,4.9,0.9,7.5,1.4
		c1.1,0.2,1.4,1,2.8,0.9c1.6-0.1,1.9-1.1,3.4-1.6c4.3-1.3,8.9,1.7,12.9-0.5c0.1-1.2,0.2-2.4,0.4-3.6c2.2,0.2,4.2,3.3,6.7,3.5
		c2.3,0.2,3.9-2.1,5.9-1.2c1.7,0.8,3.3,5.9,2.6,7.5c-1.4,3.1-5.1,1.1-6.6,3.7c-1.9,3.3,1,5.3-4,6.7c-3.1,0.8-6.6,0-9.7-0.7
		c-3.5-0.8-5.3-2-9-0.7c-3.1,1.1-6.3,3.6-9.7,3.4c-1.5-0.1-2.1-1.3-3.9-1c-2,0.3-3.3,1.9-5.4,2.1c-1.3,0.1-2.5-0.5-3.7-0.3
		c-1.3,0.1-2.2,1.1-3.6,1c-5.4-0.2-5.1-7.1-8.7-8.7"/>
</g>
<g id="bigdoor_2">
	<path class="st16" d="M806.7,637.5l0.7-71.5c0,0-7-14.9-30.9-16.2c-24-1.2-28.5,9.2-28.5,9.2l-1.8,75L806.7,637.5z"/>
	<path class="st5" d="M811.6,620.8l1.1-56.2c0,0-7-13.6-30.9-14.7c-24-1.1-28.5,8.4-28.5,8.4l-1.8,68.3L811.6,620.8z"/>
	<g>
		<g>
			<path id="XMLID_2_" class="st4" d="M826.3,610.5L805,618l0.8-50.2c0,0-5.2-12.2-23.2-13.2s-21.3,7.5-21.3,7.5l-1.3,61l61.9,18
				L826.3,610.5z"/>
		</g>
		<g>
			<g>
				<defs>
					<path id="SVGID_7_" d="M826.3,610.5L805,618l0.8-50.2c0,0-5.2-12.2-23.2-13.2s-21.3,7.5-21.3,7.5l-1.3,61l61.9,18L826.3,610.5z
						"/>
				</defs>
				<clipPath id="SVGID_8_">
					<use xlink:href="#SVGID_7_"  style="overflow:visible;"/>
				</clipPath>
				<path class="st24" d="M775.6,629.9l0.6-37.5c0,0-3.8-9.1-16.8-9.8c-13-0.7-15.5,5.6-15.5,5.6l10.6,34.4L775.6,629.9z"/>
			</g>
		</g>
	</g>
	<path class="st5" d="M829.3,648.2c0,0,3.3-38.7-3-37.7s-4.3,25.7-4.3,35L829.3,648.2z"/>
	<path class="st22" d="M868.8,686.9c-0.6-0.6-2.6-0.8-3.4-1.6l0,0c-0.8-0.8-1.4-2.1-1.9-3c-4.5-8.6-9.2-17.2-14.7-25.4
		c-3-4.5-6.3-11.4-10.7-14.7c-3.2-2.4-7.5-3.3-11.3-4c-2.6-0.5-4.6-1.7-6.9-2.3c-5-1.4-16.2,1-16.4-7.3c-0.1-3,2.2-5.7,2.3-8.7
		c0.2-3.1-1.9-7.1-4.1-9.1c-3.4-3.1-9.5-3.7-14.3-3c-1.1,0.2-2.1,0.4-3,0.7c-4.4,1.4-16.1,4.9-17.3,9l0.3-0.1
		c0.4-0.5,0.9-0.9,1.4-1.3c0.5,0.1,0.4,0.4,0.7,0.7l-2.1,0.6c-2.2,2.6-3.2,6.6-4,9.7c-1,4-0.4,8.7-0.2,13c5.7-0.6,7.6,4.2,9.5,8.4
		c1.1,2.5,2.8,4.8,3.8,7.3c1,2.4,0.1,5.1,0.9,7.4c0.8,2.3,3.2,4.3,4.3,6.6c1.2,2.5,1.5,4.7,3,7c2.8,4.4,6.3,8.4,10.1,12
		c3.1,2.9,5.8,1.9,10,2.1c7,0.3,13.2,0.2,20.3-0.3c3.3-0.2,6-1.3,9.3-1.7c5.1-0.7,10.6-0.2,15.7-0.2c4.5,0,9.2-0.8,13.6-0.3
		C865.4,688.4,871.8,690.1,868.8,686.9z M778.9,613.1c0.5,0.1,0.4,0.4,0.7,0.7l-2.1,0.6C777.9,613.9,778.4,613.5,778.9,613.1z"/>
	<path class="st1" d="M848.7,657.3c-3-4.5-6.3-11.4-10.7-14.7c-3.2-2.4-7.5-3.3-11.3-4c-2.6-0.5-4.6-1.7-6.9-2.3
		c-5-1.4-16.2,1-16.4-7.3c-0.1-3,2.2-5.7,2.3-8.7c0.2-3.1-1.9-7.1-4.1-9.1c-3.4-3.1-9.5-3.7-14.3-3c-4.6,1.7-9.5,4.1-10.2,6.6
		l0.3-0.1c0.4-0.5,0.9-0.9,1.4-1.3c0.5,0.1,0.4,0.4,0.7,0.7l-2.1,0.6c-3.9,1.1-5.7,12.8-1.9,14.5c3.2,1.5,15.8-1.1,16,4.8
		c0.1,4-12.3,0.8-15.5,2.7c0.1,0.6,0.5,1.1,0.9,1.6c0.6,0.8,2.2,1.2,2.9,2c1.3,1.4,2.1,3.6,2.9,5.4c1.1,2.5,2.8,4.8,3.8,7.3
		c1,2.4,0.1,5.1,0.9,7.4c0.8,2.3,3.2,4.3,4.3,6.6c1.2,2.5,1.5,4.7,3,7c2.8,4.4,6.3,8.4,10.1,12c3.1,2.9,5.8,1.9,10,2.1
		c7,0.3,13.2,0.2,20.3-0.3c3.3-0.2,6-1.3,9.3-1.7c5.1-0.7,10.6-0.2,15.7-0.2c1.7,0,3.4-0.1,5.1-0.2c-0.8-0.8-1.4-2.1-1.9-3
		C858.8,674.1,854.2,665.5,848.7,657.3z"/>
	<path class="st4" d="M776.8,610.5l-25.7,12.2V634c0,0,22.1,10.8,23.6,16.9C776.3,657,776.8,610.5,776.8,610.5z"/>
	<path class="st5" d="M779.7,651.1c0,0,3.4-41.5-2.9-40.5c-6.3,1-5,31-5,40.3L779.7,651.1z"/>
	<path class="st7" d="M795.1,665.2c1.1,1.4,1.5,4.7,3,5.4c2.4,1.1,3.7-1.4,4.1-3.3c3.7-0.8,7.9,2.5,11.3,2.3
		c2.7-0.2,5.9-5.7,8.7-3.3c0.8-0.5,1.6-1.5,2-2.4c-1.4-2.4-5-9.1-8.4-9c-1.1,0-3.4,2.1-4.7,2.7c-1.6,0.8-3.8,1.9-5.7,2.6
		c-2,0.7-4,0.6-5.7-0.5c-1.4-0.9-2.1-3.9-4.3-2.5c-3.5,2.1,1,8.6,1.8,10.4"/>
	<path class="st7" d="M825.8,656.9c-1.4,2.7,2.8,8.7,6.1,8.8c0.1-1.2,1.2-2.2,0.9-3.7c2.3,0.5,3.4,2.8,6,3.5
		c2.2,0.7,4.1,0.1,6.3-0.2c0.7-3-1.2-5-1.5-7.8c-2.7,0.1-5.2,0.1-6.9-2.1c-0.2,0.7-1.7,1.9-2,2.6c-3.1-0.4-6-3.8-8.9-1.5
		c-0.4,0.8,0.2,0.8,0.4,1.4"/>
	<path class="st7" d="M789.8,665.4c-0.6-2.4-1.9-12.2-5.4-7.5c-1.8,2.4,2.1,11.3,3,14.4c0.5,0.2,0.9,0.4,1.4,0.6
		c2.1-2.1,0.5-5.7,0.5-8.5"/>
	<path class="st7" d="M781.3,623.4c-0.1,0.1-0.2,0.2-0.3,0.3c1.4-0.3,2.2-0.7,3.5,0.2c0.8,0.5,1.2,1.5,2,2c0.9,0.6,2,0.4,2.7,1
		c0.8,0.7,0.7,1.9-0.2,2.2c-0.7,0.2-2-0.8-2.8-1c-1.3-0.3-1.3-0.1-2.3-0.9c-0.8-0.7-3.3-1.8-2.7-3.1"/>
	<path class="st7" d="M788.1,623.5c2.3,0.3,2.8,3,4.8,3.6c0.1-0.6-0.2-1.2-0.4-1.6c1.2-0.1,1.8,0,2.7,0.4c0.6,0.3,1.9,2,2.5,0.7
		c0.6-1.2-3.6-4-4.5-3.5c-0.3-0.7-2.3-2.2-3.1-2.3c-2.3-0.3-0.8,1.1-0.8,2.3c-0.5,0.1-0.6,0.4-1,0.5c0.1,0.2,0.2,0.2,0.4,0.3"/>
	<path class="st7" d="M786.8,689.9c-0.3-0.1-0.6,0-0.9-0.1c-0.3-3.6,6-7.9,8.9-8.6c3.5-0.9,6.7,3.3,9.1,0.2c1.4-1.9-0.1-5.9,3.9-4.5
		c1.7,0.6,2.2,2.5,3.3,3.7c1.5,1.6,2.4,1.7,4.3,2.6c3.8,1.7,8.2,3.5,8.8-2.5c0.1-0.6,4.7,0.4,5.4-0.1c1.5-1,0.8-3.8,2.3-4.6
		c3.4-1.7,3.4,6.9,6.3,8c4.5,1.6,4.5-4.1,7-5.6c1.9-1.1,8-0.8,10,0.2c3.9,1.8,2.7,4,6.4,1.4c1.3-0.9,0.6-2.3,3.3-1.7
		c1.4,0.3,3.3,2.5,4.3,3.7c1.5,1.7,3.4,5,2.3,7.6c-0.2,0.6-2,1.8-2.6,2.7c-1.1,1.7-0.8,2.7-2.7,3.9c-4.7,3-12,0.4-17-0.3
		c-2-0.3-6.1-1.8-8-1c-2.4,1-1.9,3.5-5.4,4c-5.8,0.9-11.9,0.9-17.7,1.3c-4.8,0.3-9.1,5.2-13.8,3.3c-1.9-0.8-3-2.1-5.2-2.6
		c-1.3-0.3-2.5,0.2-3.7-0.6c-0.7-0.5-0.5-1.7-1.3-2.1c-1.8-0.9-4.1,0.3-5.7-1.2c-1.7-1.6-0.6-2.7-1-4.7c0,0.2-0.6-4.5-1.5-3
		c0.4-0.6,1-1.3,1.7-1.6"/>
</g>
</svg>
