<?xml version="1.0" encoding="utf-8"?>
<!-- Generator: Adobe Illustrator 19.2.0, SVG Export Plug-In . SVG Version: 6.00 Build 0)  -->
<svg version="1.1" id="Layer_1" xmlns="http://www.w3.org/2000/svg" xmlns:xlink="http://www.w3.org/1999/xlink" x="0px" y="0px"
	 viewBox="0 0 909.1 567.8" style="enable-background:new 0 0 909.1 567.8;" xml:space="preserve">
<style type="text/css">
	.st0{display:none;}
	.st1{fill:#46BEA7;}
	.st2{fill:#178771;}
	.st3{fill:#20967F;}
	.st4{fill:#146959;}
	.st5{fill:#848484;}
	.st6{fill:#C6C6C5;}
	.st7{fill:#E5E5E5;}
	.st8{fill:#FFFFFF;}
	.st9{fill:#717173;stroke:#717173;stroke-miterlimit:10;}
	.st10{fill:#57525A;}
	.st11{fill:#1F2633;}
	.st12{fill:#717173;}
	.st13{fill:#B7B7B7;}
	.st14{fill:#939393;}
	.st15{fill:#5858A6;}
	.st16{fill:#E0E0E0;}
	.st17{fill:#848585;}
	.st18{display:none;fill:#57525A;}
	.st19{clip-path:url(#SVGID_2_);fill:#57525A;}
	.st20{fill:#0E6958;}
	.st21{clip-path:url(#SVGID_4_);fill:#57525A;}
	.st22{clip-path:url(#SVGID_6_);fill:#57525A;}
	.st23{fill:#137763;}
	.st24{fill:none;}
	.st25{clip-path:url(#SVGID_8_);fill:#57525A;}
</style>
<g id="pic" class="st0">
	
		<image style="display:inline;overflow:visible;enable-background:new    ;" width="1280" height="720" xlink:href="A88030AD.jpeg"  transform="matrix(0.8571 0 0 0.8571 -78.4407 -0.8383)">
	</image>
</g>
<g id="fire">
	<g>
		<path class="st1" d="M463.1,93.1c-4.9,0.5-10.3,1.5-14.7,3.7c-1.1,0.5-2.9,1.1-3.8,1.3c-4.6,1.2-1.1-9.6-0.9-11.1
			c0.9-5.2,1.1-10.5,1.6-15.7c0.5-4-1-8.5-0.5-12.5c1-6.5,4.5-6.5,7.5-11.5c2-3.5,1-6.5,2.5-11c1-3.1,5.2-3.2,4-7.4
			c-0.5-1.7-1.6-2.5-1.9-4.4c-0.4-2.2,0-4.8,0.3-7c0.1-0.8,1.4-5.8,2.7-5.8c0.7,0,1.4,0,2-0.2c-1.1-2.1-0.4-5.7,1.2-7.4
			c0.9-1,2.1-0.8,3-1.5c0.7-0.6,1.2-2,1.8-2.7c2.1,1.2,3.2,3.7,4.5,5.5c4.3,5.7,5.5,12.3,4.5,19.2c-0.4,2.7-0.2,5.5,1,8
			c1.3,2.8,3.5,3.9,4.3,7c1,3.7,2.8,8.5,2.5,12.4c-0.3,3.3-2,6.2-1.6,9.7c0.5,3.5,2.7,6.4,3.6,9.6c1,3.3,1.9,6.8,2.8,10.1
			c0.9,3.2,1.5,6.4,1.5,9.6c0,3.9,1,9.3-2.2,8.4c-2.1-0.5-6.1-4.7-8.3-4.3C474.7,96.3,468.7,92.5,463.1,93.1z"/>
	</g>
	<g>
		<path class="st2" d="M480.5,95.3c-4.4-1.6-8.6-1.5-13.3-1c-3.6,0.4-7,1.9-10.7,1.8c-5.4-0.1-3.9-5.8-3-9.9c0.7-3.1,3-5.4,3.8-8.5
			c1-3.7,1.3-7.5,1.3-11.4c0-2.1,0-4.1,0.5-6c0.5-1.8,1.6-3.3,2.2-5c1.3-3.6,1-7.9,2.3-11.5c1.9-5.3,4.6,2,5.5,4.7
			c1.2,3.6,1.6,7.9,2.2,11.8c0.7,4.1,1.1,8.1,3.1,11.8c1.9,3.5,3.3,6.5,4,10.4c0.4,2.4-0.1,4.9,0.3,7.3c0.3,1.9,2.3,4.2,2,5.8"/>
	</g>
</g>
<g id="floor4">
	<g id="water_back">
		<path class="st3" d="M440.7,98.4c0,0-34.3,10.2-34.8,81.8c0,0,7.4-5.3,10.2-6.9s3.5-69.4,24.6-72.4l1.8-2.5
			C442.5,98.4,441.6,98,440.7,98.4z"/>
		<path class="st3" d="M491.5,97.1c0,0,33.9,9.2,34.4,80.8c0,0-7.4-5.3-10.2-6.9c-2.9-1.6-3.5-69.4-24.6-72.4l-1.4-1.5
			C489.6,97.1,490.5,96.8,491.5,97.1z"/>
		<path class="st4" d="M454.3,127.3c0,0-3.4,29.7-2.3,34.2s-6.5,1.2-6.5,1.2s2.3-34.4,5.5-38.1L454.3,127.3z"/>
		<path class="st4" d="M479.2,127.3c0,0,3.4,29.7,2.3,34.2c-1.1,4.5,6.5,1.2,6.5,1.2s-2.3-34.4-5.5-38.1L479.2,127.3z"/>
	</g>
	<path id="oval" class="st5" d="M429.8,106.8c0,0,31.8-32.3,72.8-2c0,0-6.5,15.8-13.5,19.5c-7,3.8-30.3,5.8-41.5,2.3
		c0,0-3.8-2-7-5.3S431.3,112.5,429.8,106.8z"/>
	<path class="st6" d="M462.4,125.5c-0.3,11.5,2.8,15.4-11.9,38.3c-8.2,5,33.9,0,33.9,0s-12.7-14-10.6-38.3
		C473.8,125.5,468,118.6,462.4,125.5z"/>
	<path id="shadow" class="st5" d="M460,146.3c0,0,10-15.9,13.6-14c0,0,0.5-6,0.6-7.2c0,0-6.5-6.5-12.4,0.6
		C461.8,125.7,463.8,137.1,460,146.3z"/>
	<path class="st6" d="M429.8,106.8c0,0,1.6,6.6,11.9,15.6c0,0-1.1-11.9,24.5-12.3s26.2,11.7,25.5,12.3s6.6-6.4,10.9-17.6
		C502.5,104.8,467,73.8,429.8,106.8z"/>
	<g id="water_front">
		<path class="st3" d="M445.6,96.2c0,0-18.1,39.3-16.1,70.1l10.3-3.7c0,0,6.7-64.4,13.2-69.2C453,93.4,450.2,92.9,445.6,96.2z"/>
		<path class="st3" d="M488.9,96.5c0,0,18,38.1,16,68.8l-10.3-2.9c0,0-6.6-63.9-13.2-68.7C481.4,93.8,484.2,93.8,488.9,96.5z"/>
		<path class="st7" d="M430.1,149.6c0.1-0.5,0.4-1.2,0.9-1.4c0.5-0.3,0.7-0.2,1,0.2c0.2,0.2,0.3,0.3,0.6,0.4
			c0.2,0.1,0.3,0.1,0.4,0.2c0.1,0.1-0.1,0.3,0.1,0.4c0.3,0.3,0.5-0.2,0.8-0.3c0.4-0.1,0.8,0,1.3-0.2c0.2-0.1,0.5-0.2,0.8-0.3
			c0.3-0.2,0.5-0.5,0.8-0.5c0.7-0.1,0.9,0.3,1.5-0.2c0.6-0.5,1.2,0.2,1.8,0.3c0.7,0.2,0.9-0.5,1.5-0.3c-0.2,1.8-0.5,3.8-0.7,5.7
			c-0.3-0.1-0.6-0.2-0.8-0.4c-0.2-0.1-0.2-0.3-0.4-0.5c-0.4-0.3-0.8-0.3-1.2-0.2c-0.5,0.1-0.9,0.4-1.3,0.6c-0.8,0.4-1.3,0.2-1.9-0.3
			c-0.6-0.4-1.2-0.9-1.9-0.4c-0.5,0.3-0.9,0.7-1.5,0.2c-0.5-0.4-0.5-0.8-1.3-0.5c-0.4,0.1-0.5,0.2-0.5-0.2
			C429.8,151.3,430,150.4,430.1,149.6z"/>
		<path class="st7" d="M416.2,159.5c-0.5,0.6-1.5,0.8-2.2,1.2c-0.1,0.1-0.3,0.3-0.4,0.3c-0.2,0.1-0.2-0.1-0.4-0.1
			c-0.3,0-0.5,0.2-0.6,0.4c-0.1,0.1-0.1,0.3-0.2,0.5c-0.1,0.1-0.3,0.2-0.4,0.4c-0.2,0.4-0.1,0.9-0.6,0.8c-0.3,0-0.3-0.2-0.5,0
			c-0.1,0.1-0.1,0.3-0.2,0.5c-0.1,0.1-0.2,0.2-0.3,0.3c-0.3,0.3-0.5,0.7-0.5,1.1c0,0.3,0,0.3-0.2,0.4c-0.2,0.1-0.4,0.2-0.6,0.2
			c-0.3,0-0.4-0.1-0.6,0.2c-0.1,0.2-0.2,0.5-0.2,0.7c0,0.2,0.1,0.3,0.1,0.5c0,0.2-0.2,0.4-0.4,0.5c-0.1,0-0.6-0.1-0.5-0.1
			c-0.2,0.2,0,0.6-0.1,0.9c-0.1,0.3-0.5,0.7-0.7,0.9c-0.1,0.1-0.5,0.4-0.5,0.6c0,0,0.5-10.8,1.1-11.9c0-0.1,0.6,0.1,0.7,0.1
			c0.2,0.1,0.3,0.3,0.5,0.4c0.2,0.1,0.3-0.1,0.5-0.1c0.2,0.1,0.2,0.4,0.3,0.5c0.4,0.6,1-0.1,1.6,0c0.3,0,0.4,0.3,0.7,0.4
			c0.5,0.2,0.6-0.4,1.1,0c0.3,0.2,0.5,0.5,0.9,0.4c0.2-0.1,0.3-0.1,0.5-0.1c0.2,0,0.2,0.1,0.4,0.1c0.2,0.1,0.4,0.1,0.6,0
			C415.3,159.4,415.9,159,416.2,159.5"/>
		<path class="st7" d="M411.4,137.3c0.3,0,0.6,0,0.9,0.1c0.3,0.1,0.6,0.3,0.9,0.3c0.2,0,0.5-0.1,0.7-0.1c0.2,0,0.3,0,0.5,0
			c0.2,0.1,0.3,0.3,0.5,0.3c0.5,0.2,1.3-0.1,1.9-0.1c0.2,0,0.4,0.1,0.6,0.1c0.3,0.1,0.5,0,0.8,0.1c0.4,0.1,0.9-0.2,1.2,0
			c0.4,0.3-0.2,0.7-0.5,0.8c-0.2,0.1-0.3,0.1-0.5,0.4c-0.1,0.2-0.2,0.6-0.4,0.7c-0.4,0.1-0.1-0.3-0.3-0.5c0,0.2-0.1,0.4-0.2,0.5
			c0,0-0.1-0.5-0.1-0.5c-0.3,0.1-0.4,0.7-0.4,1c0,0.2-0.1,0.5-0.3,0.6c-0.3,0.3-0.2,0-0.5,0c-0.3,0-0.4,0.6-0.4,0.8
			c-0.1,0.3-0.1,0.8-0.5,0.9c-0.3,0.1-0.2-0.2-0.4-0.3c-0.2-0.1-0.5-0.1-0.7-0.1c-0.5,0-0.8,0-1,0.5c-0.1,0.4-0.2,0.7-0.5,1
			c-0.3,0.2-0.7,0.1-1,0.3c-0.3,0.2-0.3,0.5-0.5,0.8c-0.2,0.3-0.3,0.1-0.7,0.2c-0.3,0-0.5,0.4-0.7,0.6c-0.2,0.2-0.6,0.4-0.7,0.6
			C409.2,146.4,411.2,137.3,411.4,137.3z"/>
		<path class="st7" d="M417.8,121.4c0.2,0,0.4,0,0.6,0.1c0.1,0,0.2,0.1,0.3,0.2c0.1,0,0.2,0.1,0.4,0.1c0.1,0,0.2-0.1,0.3-0.1
			c0.3-0.1,0.7,0.1,1,0.1c0.2,0,0.2,0,0.4,0.2c0.1,0.1,0.2,0.2,0.3,0.2c0.1,0,0.2,0,0.3,0c0.2-0.1,0.2-0.3,0.5-0.3
			c0.2,0,0.3,0.2,0.4,0.4c0.1,0.1,0.4,0,0.5,0c0.1,0,0.1-0.1,0.2-0.2c0.1,0,0.3,0,0.4,0c0.1,0.1,0.1,0.2,0.3,0.2
			c0.2,0,0.4-0.2,0.6-0.2c0.1,0,0.2,0.1,0.2,0.1c0.1,0,0.3,0,0.3,0.1c0.1,0.1,0,0.2,0,0.3c-0.1,0.2-0.3,0.5-0.5,0.7
			c-0.1,0.1-0.1,0.3-0.3,0.3c0-0.2-0.1-0.1-0.2,0c-0.1,0.1-0.1,0.2-0.1,0.4c0,0.1-0.1,0.2-0.2,0.1c-0.1-0.1,0-0.2-0.1-0.3
			c-0.2,0-0.3,0.4-0.3,0.6c0,0.2,0,0.2-0.1,0.4c-0.1,0.2-0.2,0.3-0.3,0.5c-0.2,0.3-0.3,0.7-0.5,1c-0.1,0.1-0.2,0.4-0.3,0.4
			c-0.1,0-0.1-0.2-0.1-0.2c-0.2-0.2-0.3,0.2-0.3,0.3c0,0.1,0,0.2-0.1,0.3c-0.1,0.1-0.2,0.2-0.3,0.3c-0.2,0.2-0.3,0.5-0.3,0.7
			c0,0.1-0.1,0.3-0.1,0.4c-0.1,0.1-0.1,0-0.1,0c-0.1,0.1-0.1,0.4-0.2,0.5c-0.1,0.2-0.4,0.3-0.6,0.2c0,0-0.2-0.5-0.2-0.6
			c-0.1-0.2,0-0.3,0-0.5c0-0.2-0.1-0.2-0.2-0.2c-0.5-0.2-0.7-1.2-0.5-1.6c0.1-0.1,0.4-0.4,0.2-0.5c-0.2,0.2-0.3,0-0.2-0.2
			c0-0.1,0.1-0.1,0.2-0.2c0-0.1,0-0.4-0.1-0.4c-0.1,0-0.1,0.2-0.1,0.2c-0.1,0.1-0.2-0.1-0.3-0.2c-0.3-0.3-0.7-0.3-0.7-0.7
			c0-0.3,0.2-0.7,0.2-1.1C418,123,418,121.4,417.8,121.4z"/>
		<path class="st7" d="M434.3,128.3c0-0.1,1.9-0.2,1.8,0.2c0.2,0,0.9,0.5,0.8,0c0.3-0.1,0.6,0,0.8,0c0.2,0,0.2-0.1,0.4-0.2
			c0.2-0.1,0.5-0.1,0.7-0.1c0.4,0,0.7,0,1.1,0.1c0.3,0.2,0.6,0.3,1,0.1c0.3-0.2,0.2-0.3,0.5-0.2c0.2,0.1,0.3,0.1,0.5,0.1
			c0.2,0,0.3-0.1,0.5-0.1c0.1,0,1.3-0.1,1.4,0c0,0.2-0.1,0.1-0.1,0.2c0,0.1,0,0.1-0.1,0.3c0,0.2,0,0.5-0.2,0.6
			c-0.2,0.2-0.3,0.1-0.6,0.1c-0.3,0-0.5,0.3-0.7,0.6c-0.1,0.2,0,0.1-0.1,0.3c0,0.2-0.4,1.2-0.7,0.9c-0.1-0.1,0.2-0.3,0-0.3
			c-0.2-0.1-0.4,0.3-0.5,0.4c-0.4,0.5-0.3,1-0.5,1.5c0,0.1-0.1,0.3-0.2,0.3c-0.2,0-0.1-0.2-0.2-0.2c-0.3-0.1-0.3,0.3-0.5,0.4
			c-0.2,0.1-0.3-0.3-0.5-0.1c-0.3,0.3-0.2,0.7-0.4,1c-0.1,0.2-0.3,0.3-0.5,0.4c-0.2,0.1-0.2,0-0.3,0.3c-0.1,0.1-0.1,0.2-0.2,0.3
			c-0.1,0.1-0.1,0.1-0.1,0.3c0,0.1,0.1,0.3,0,0.4c-0.2,0.4-0.5,0-0.7,0.1c0,0.4-0.4,0.8-0.8,0.6c-0.3-0.1-0.2-0.5-0.2-0.8
			c0-0.3,0-0.1-0.2-0.3c-0.3-0.3-0.3-0.8-0.4-1.1c-0.1-0.2-0.3-0.2-0.4-0.4c-0.2-0.5,0.1-1.1-0.1-1.5c-0.7,0.3-0.8-0.7-1-1.2
			L434.3,128.3z"/>
		<path class="st7" d="M491.7,138.5c0.3,0.2,0.9,0.2,1.2,0.3c0.5,0.1,0.5,0.5,0.6,1c0,0.1,0,0.2,0,0.3c0.1,0.1,0.2,0,0.3,0.1
			c0.2,0.2,0.2,0.4,0.5,0.3c0.1,0,0.2-0.2,0.3-0.2c0.2-0.1,0.2,0,0.4,0c0.3,0,0.7-0.2,1.1-0.2c0.5,0.1,0.5,1.2,1.2,1.1
			c0.5-0.1,0.3-0.5,0.6-0.6c0.4-0.1,0.6,0.5,1,0.3c0.3-0.1,0.1-0.4,0.3-0.6c0.2-0.4,0.3,0,0.6-0.1c0.4-0.1,0.4-0.8,0.8-0.6
			c0.2,0.1,0.3,0.5,0.7,0.4c0.5-0.1,0.3-0.7,0.4-1.1c0.3,0.1,1.1-0.5,1-0.9c0,0,1.1,5.9,1.2,6.9c0,0.2,0,1-0.2,1.1
			c-0.2,0.2-0.1,0-0.3,0c0,0-0.3-0.3-0.3-0.2c0.1,0.2,0.2,0.5,0.1,0.7c0,0-0.3,0.2-0.3,0.2c-0.1,0-0.5-0.4-0.5-0.2
			c0,0.4,0.3,0.8,0.1,1.2c-0.1,0.4-0.5,0.6-0.9,0.7c-0.4,0.2-0.3,0.3-0.5,0.8c-0.1,0.3-0.5,0.8-0.8,0.9c-0.3,0.1-0.7-0.1-0.8-0.4
			c-0.1-0.1,0-0.3-0.1-0.5c-0.2-0.4-0.6-0.1-1-0.3c-0.3-0.1-0.4-0.5-0.5-0.8c0-0.2,0-1-0.2-1.1c-0.5-0.2-0.3,1.5-1.2,1.1
			c-0.4-0.1-0.5-0.5-0.7-0.8c-0.3-0.3-0.6-0.4-0.8-0.8c-0.2-0.5,0-0.5-0.6-0.5c-0.7,0-1.3-0.5-1.8-1
			C492.6,145.2,492.3,138.9,491.7,138.5z"/>
		<path class="st7" d="M488.8,119.6c0-0.1,1.1,0,1.2,0.1c0.4,0.2,0.5,1.1,1,1.2c0.4,0.1,0.2-0.3,0.4-0.4c0.2-0.2,0.4-0.3,0.6-0.4
			c0.2-0.1,0.1-0.3,0.4-0.5c0.6-0.3,0.7,0.2,1.1,0.5c0.4,0.3,0.5,0.3,0.8,0c0.2-0.2,0.2-0.8,0.4-1c0.4-0.3,0.3,0.2,0.6,0.1
			c0.2,0,2-0.8,2-0.9c0.4,1.2,0.8,2.4,1.1,3.6c0.2,0.6,0.4,1.9-0.5,2.1c-0.4,0.1-0.5-0.3-0.8,0.1c-0.1,0.1-0.1,0.5-0.1,0.6
			c-0.1,0.1-0.2,0.1-0.3,0.3c0,0.1,0.1,0.4,0.1,0.5c0,0.4,0.2,0.8-0.3,0.8c-0.1,0-0.2-0.4-0.4-0.4c-0.1,0-0.3,0.5-0.5,0.6
			c-0.7,0.5-0.8-0.3-1.4-0.6c-0.4-0.2-0.8,0-1.2-0.2c-0.4-0.2-0.5-0.5-0.6-0.9c-0.1-0.3-0.3-0.9-0.7-0.9c-0.1,0.3,0,0.9-0.4,0.9
			c-0.4,0-0.3-0.4-0.6-0.6c-0.3-0.2-0.5-0.2-0.7-0.3c-0.5-0.3-0.6-0.8-0.7-1.3C489.2,121.7,489,120.7,488.8,119.6z"/>
		<path class="st7" d="M512.7,147.5c0.1,0.1,0.1,0.2,0.2,0.2c0.3,0.3,0.6,0.8,1.1,0.9c0.6,0.1,0.7-0.3,1.2-0.3c0.8,0,1,1.9,2.1,1.9
			c0.9,0,0.4-0.7,1-0.9c0.7-0.3,0.4,1.5,1.4,1.6c0.2-0.4,0.2-0.7,0.4-1c0.5,0.4,0,2,1.1,1.7c0-0.2,0.1-0.5,0-0.6
			c0,0,0.4,0.6,0.5,0.7c0.2,0.3,0.2,0.7,0.4,1c0.5,0.7,1.4,0.8,1.7,1.6c0,0.1,0.5,0.3,0.6,0.4c0-1.8-0.6-3.9-0.9-5.8
			c-0.4-2.5-0.8-4.9-1.4-7.4c-0.1-0.4-0.6-0.9-1-0.9c-0.3,0-0.5,0.4-0.7,0.5c-0.2,0-0.5-0.1-0.6-0.1c-0.3,0.1-0.5,0.2-0.9,0.4
			c-0.5,0.2-0.7,0.1-1.2-0.3c-0.9-0.7-1.5-1.9-2.5-0.5c-0.5,0.7-0.6,0.9-1.4,0.4c-0.5-0.3-0.9-0.9-1.5-1.1c-0.1,0-1.2,0.1-1.3,0.1
			c0.3,1.7,0.4,3.5,0.8,5.2C511.9,146,512.3,146.8,512.7,147.5z"/>
		<path class="st7" d="M506,117.9c0,0,0.6-0.3,0.6-0.3c0.2,0,0.2,0,0.4,0.1c0.2,0.2,0.3,0.8,0.7,0.6c0.1,0,0.1-0.2,0.2-0.3
			c0.1,0,0.2,0,0.3-0.1c0.5-0.3,0.2-0.5,0-0.9c0.2-0.2,0.5-0.2,0.8-0.3c0.1,0,0.3,0,0.4,0c0.2,0,0.1-0.2,0.3-0.1
			c0.3,0,0.3,0.4,0.7,0.1c0.1-0.1,0-0.3,0.2-0.4c0.2-0.1,0.4,0.2,0.6,0.1c0.3,0,0.2-0.2,0.3-0.4c0.1-0.4,0-0.4,0.5-0.6
			c0.5,1,1.1,1.9,1.7,2.9c0.4,0.7,1,1.4,1.2,2.2c0.1,0.2,0.3,0.6,0.3,0.9c-0.1,0.3-0.5,0.3-0.8,0.2c-0.4-0.1-0.7-0.5-1-0.6
			c-0.1,0.5-0.5,0.4-0.9,0.3c-0.2-0.1-0.4-0.1-0.6-0.2c-0.3-0.1-0.3-0.2-0.5-0.2c-0.2,0-0.3,0.3-0.6,0.2s-0.1-0.5-0.4-0.7
			c-0.1,0.5-1.1,0.3-1.4,0.2c-0.1-0.1-0.2-0.3-0.4-0.4c-0.1-0.1-0.3,0-0.5,0c0.1,0.4-0.1,0.4-0.4,0.4c-0.4,0-0.5-0.2-0.7-0.6
			C506.5,119.5,506.3,118.7,506,117.9z"/>
	</g>
</g>
<g id="floor3">
	<g id="water_back_1_">
		<path class="st4" d="M445.4,220.7c0,0-4,38.3-1.8,43.9c2.2,5.6-11.4,2.1-11.4,2.1s1.7-44.1,7.1-49.2L445.4,220.7z"/>
		<path class="st4" d="M489.3,220c0,0,3.2,36.8,0.7,42.1c-2.5,5.3,12.1,2.5,12.1,2.5s-0.5-42.3-6.2-47.5L489.3,220z"/>
	</g>
	<path class="st5" d="M402.8,182.3c0,0,49.5-48.5,130.5-4.5c0,0-0.7,20.5-16.5,34.3c-13.1,5.4-24,18.8-81.4,8.6
		c0,0-11.8-3.3-17.6-9.1C412,205.7,405.4,192.5,402.8,182.3z"/>
	<path class="st6" d="M457.2,222.8c-0.6,16.1,3.8,20.5-16.2,38.3c-13,5,53.6,0,53.6,0s-19.5-10-15.9-39.3
		C478.6,221.8,465.6,212.2,457.2,222.8z"/>
	<path class="st6" d="M516.8,212c0,0-3.8-18.3-49.9-18.6s-49.1,18.1-49.1,18.1s-10.3-10-15-29.3c0,0,29.5-26,65.2-22.9
		c30.8,0.1,49.1,7.7,65.2,18.4C533.2,177.8,533.4,196.8,516.8,212z"/>
	<path class="st5" d="M442.6,259.5l13.1-1c0,0,11.3-31.6,22.8-24.3c0,0-0.5-6.5,0.3-12.5c0,0-12.9-10-21.7,1
		C456.6,240.1,459.3,243.5,442.6,259.5z"/>
	<g id="water_floor">
		<path class="st2" d="M432.5,164.9c0,0-30.4,55.9-31.1,106.9l23.7-7c0,0-1.6-64.6,21-104C446.1,160.8,433.7,162.7,432.5,164.9z"/>
		<path class="st2" d="M503.4,163.7c0,0,30.7,57,31.4,108l-23.7-7c0,0,1.6-64.6-21-104C490.1,160.8,497.5,160.2,503.4,163.7z"/>
		<path class="st2" d="M419.5,172.8c0,0-42.8,60.5-34.8,103.5l-19,5.5c0,0,4.5-80,50.2-109H419.5z"/>
		<path class="st2" d="M517.7,169c0,0,42.1,58.3,41,107.5l23.4,8.8c0,0-11.2-83.5-57-112.5L517.7,169z"/>
		<path class="st8" d="M525.6,181.1c0.9,0,1.8-0.2,2.7-0.2c1,0,2.2,0.5,3.1,0.8c0.6,0.2,1.4,1,2.1,1.1c1.7,0.2,0.3-1.3,0.7-1.9
			c1-1.6,2.2,3.1,2.4,3.8c0.2,0.7,0.5,1.5-0.3,1.9c-0.5,0.3-1.9-0.5-1.9-0.5c-0.6,0.4-1.6,1.3-2,0.1c-1.3,0.9-1.9-0.8-2.7-1.5
			c-0.8-0.7-1.6-0.4-2.4-0.9C526.9,183.6,526.1,181.1,525.6,181.1z"/>
		<path class="st8" d="M534.3,196.1c0.5,0,0.9,0.1,1.4,0.1c0.8,0.1,1.6-0.2,2.2-0.2c1.6,0.1,2,1.6,3.3,2.2c1.3,0.5,1.6,0.5,2.7-0.2
			c0.4-0.3,0.8-0.2,1.1-0.6c0.3-0.3,0.1-0.8,0.4-1.2c0.3-0.4,0.8-0.6,1.1-1c0.3-0.4,0.1-0.9,0.8-1.3c0.5,0.7,3.8,4.4,3.6,5
			c-0.3,0.8-1.3,1.9-1.4,2.7c-0.1,0.8,0.6,1.1,0.1,1.9c-0.6,0.8-1.1,0.2-1.6,0.6c-0.5,0.4-0.4,1.3-0.8,1.7c-0.7-0.6-1.6,0-2.3-0.5
			c-0.4-0.3-0.2-0.9-0.5-1.1c-0.6-0.5-1.7,0-2.5-0.6c-0.7-0.4-0.9-1.3-1.5-1.8c-1.1-0.9-1.6-0.8-1.9,0.5
			C536.1,202.6,536.3,196.3,534.3,196.1z"/>
		<path class="st8" d="M544.2,216.3c0.2,0.4,4.2-0.1,4.9,0.3c0.5,0.3,0.6,0.9,1.1,1.2c1.1,0.7,2.2-0.2,3.3-0.5
			c0.6,1.6,3.2,0.3,3.6-0.9c0.2-0.7-0.1-1.6,0.2-2.3c0.5-0.8,1.1-1.2,1.3-2.2c0.9,1.3,1.5,2.9,2.2,4.3c0.4,0.8,0.9,1.6,1.2,2.4
			c0.2,0.4,0.4,1.1,0.5,1.5c0,0,0.5,1.8,0.1,1.5c-2-1.2-1.5,2.2-2.1,3.1c-0.2,0.3-0.7,0.4-0.8,1c-0.1,0.4,0,0.9,0,1.3
			c-0.1,1-0.1,1.8-1.3,2c-1.2,0.2-1.1-0.6-1.6-1.3c-0.2-0.2-0.7-0.9-0.9-1c-0.9-0.3-0.3,0.2-1.1,0.4c-1.3,0.3-2-0.3-2.8-1.2
			c-0.7-0.9-1.1-2.6-2.2-3.2c-0.5-0.3-3-0.3-3.2-0.8C546.6,221.8,544.6,217.1,544.2,216.3z"/>
		<path class="st8" d="M554.1,243.9c1.1,0.2,2.1,0.3,3.1,0.7c1.4,0.5,2.6,1.6,4.1,1.9c0.3,0.1,0.6-0.2,1-0.1
			c0.3,0.1,0.5,0.7,0.8,0.9c0.6,0.4,1.8,0.9,2.6,0.9c2,0,1.8-1.7,2.4-3c0.4-0.9,0.9-1.9,1.7-2.6c0.6-0.5,1.4-0.6,1.9-1.3
			c-0.2,1.8,0.8,3.4,1.3,5c0.2,0.5,0.8,2,0.3,2.4c-0.5,0.4-1.1-0.5-1.6,0c-0.4,0.4,0.4,1.6,0.5,2c0.2,0.5,0.4,2.2,0.4,2.8
			c0,0.9-0.6,1.2-0.7,2c-0.1,0.8,0.4,1.7,0.2,2.6c-0.4,2.6-3.1,1.4-3.5-0.6c-1.4,0.5-3.2,0.2-3.6-1.6c-0.4-0.1-0.9,0.1-1.3,0.1
			c-0.3,0-0.8-0.4-0.9-0.5c-0.9-0.1-1.8,0.4-2.5-0.2c-0.7-0.6-0.8-2.1-1.2-2.9c-0.7-1.3-1.4-2.1-2.6-2.8c-1.1-0.6-0.8-0.2-1.2-1.3
			C555.1,247.9,554.5,244,554.1,243.9z"/>
	</g>
	<path class="st8" d="M409.5,222.6c-0.1,0.2,0.4,0.8,0.5,1c0.5,0.7,1.2,1.1,1.4,2c0.1,0.3-0.1,0.9,0.2,1.1c0.5,0.5,0.9-0.4,1.4-0.3
		c0.3,0,0.3,0.3,0.4,0.5c0.2,0.4,0.6,0.5,1,0.2c0.3-0.2,0.3-0.7,0.7-0.8c0.4-0.1,0.7,0.4,1,0.5c0.4,0.2,0.8,0.1,1.1,0
		c0.5-0.3,0.6-0.5,0.8-1c0.3-0.7,1.6-1,1.9-0.1c0.1,0.3-0.2,0.8,0.4,0.5c0.6-0.3,0.4-1,0.9-1.4c0.8-0.6,0.3,0.7,0.9,0.5
		c0.2-0.1,0.2-0.4,0.2-0.6c0-0.6-0.2-1.1,0.5-1.4c0.3-0.1,0.5-0.2,0.8-0.2c0.3,0,0.5,0.1,0.8,0.1c0.6,0,0.7-0.5,1-0.9
		c0.3-0.5,0.7-0.6,1.2-0.8c0.2-0.1,1.5-0.7,1.5-1c-0.2,1.3-0.3,2.6-0.5,4c-0.1,1.2-0.3,2.3-0.4,3.5c-0.1,0.9,0,2.5-0.6,3.2
		c-0.2,0.2-0.3,0.2-0.5,0.4c-0.4,0.3-0.7,1.2-1.3,1c-0.3-0.1-0.3-0.5-0.5-0.6c-0.2-0.1-0.6,0.1-0.7,0.3c-0.4,0.4-0.4,1-0.8,1.4
		c-0.5,0.6-1.3,1-2,0.8c-1-0.2-1.2-1-2-1.5c-0.3-0.2-0.5-0.3-0.6,0.1c-0.1,0.5,0.2,1.1-0.3,1.5c-0.4,0.4-1.3,0.2-1.8,0.1
		c-0.3-0.1-0.4-0.1-0.6-0.3c-0.1-0.1-0.3-0.7-0.4-0.7c-0.3,0.2-0.4,0.2-0.4,0.5c0,0.3,0.1,0.4,0,0.7c-0.1,0.1-0.3,0.3-0.4,0.4
		c-0.3,0.5-0.6,0.7-0.9,1.1c-0.5,0.6-1.1,0.7-1.8,0.4c-0.6-0.2-0.3-0.5-0.6-1c-0.2-0.3-0.5-0.2-0.6-0.4c-0.1-0.1-0.1-0.4-0.1-0.6
		c0-0.3,0.1-0.8-0.1-1c-0.3,0.7-0.8-0.6-0.7-0.9c0-0.2,0.2-0.3,0.2-0.5c0-0.3-0.1-0.2-0.3-0.3c-0.9-0.4-0.9-0.8-1.2-1.6
		c-0.1-0.3-0.6-1.2-0.5-1.6C407.7,229,409.4,222.6,409.5,222.6z"/>
	<path class="st8" d="M417.9,197.6c0,0,1.1,0.2,1.2,0.2c0.8,0.2,1.6,0.1,1.6,1.1c0,0.3-0.1,0.5,0.1,0.7c0.2,0.3,0.7,0.3,1,0.3
		c0.2-0.1,0.6-0.2,0.8-0.4c0.1-0.2,0-0.4,0.1-0.5c0.3-0.5,0.8,0.4,1.2,0.6c0.3,0.2,1,0.3,1.4,0.2c0.4-0.1,0.5-0.7,0.8-0.8
		c0,0,0.3,0.1,0.4,0.1c0.1,0,0.3-0.1,0.3-0.1c0.3-0.1,0.6-0.2,1-0.2c-0.1,0,0.3,0.3,0.3,0.3c0.2,0.1,0.5,0,0.7-0.1
		c0.5-0.1,1-0.1,1.5-0.2c0.7-0.1,1.9-0.3,2.1-1.2c0-0.1,0.1-0.3,0.1-0.4c0,0.6-0.2,1.2-0.3,1.7c-0.4,2.1-0.9,4.2-1.3,6.3
		c-0.2,0.9-0.3,2.1-0.8,3c-0.3,0.5-2,2.3-2.4,1.1c-0.2-0.4,0.2-0.7,0.2-1.1c-0.5,0-1-0.2-1.1,0.4c-0.1,0.6,0.1,1.3-0.6,1.5
		c-0.8,0.2-0.4-0.4-0.7-0.7c-0.3-0.5-1.1-0.5-1.7-0.3c0,0-0.1,0.6-0.2,0.6c-0.1,0.2-0.2,0.4-0.4,0.5c-0.4,0.2-0.5,0-0.9,0
		c-0.9-0.1-0.9,1.3-1.8,1.3c-0.7,0-0.4-0.4-0.3-0.8c0-1-1.3-0.3-1.1-1.4c0.1-0.4,0.3-0.6,0.3-1c0-0.4-0.3-1.2-0.6-0.7
		c-0.1,0.2-0.1,0.5-0.3,0.7c-0.3,0.2-0.3,0-0.5-0.3c-0.3-0.3-0.3-0.1-0.7-0.1c-0.5,0.1-0.6-0.1-0.9-0.4c-0.2-0.2-1.4-1.1-1.4-1.3
		C414.8,205.8,417.9,197.6,417.9,197.6z"/>
	<path class="st8" d="M382.7,213.8c0.2-0.2,1.8,0,2,0.2c0.4,0.4,0.1,1.4,1,1.4c0.4,0,0.9-0.5,1-0.7c0.1-0.2,0.1-0.6,0.3-0.8
		c0.5-0.3,1.4,0.7,1.9,0.8c0.6,0.1,1.2-0.4,1.7-0.8c0.4,0.6,1.3,0,1.7-0.2c0.2,0.2,0.4,0.3,0.6,0.6c0.2,0.3,3.5-0.7,3.7-0.4
		c0.1,0.1-2,2.6-2.6,2.4c-0.5-0.2-0.7,0.8-1,1.2c-0.1,0.2-0.2,0.6-0.5,0.7c-0.2,0.1-0.2-0.1-0.4-0.1c-0.4,0-0.6,0.8-0.8,1.1
		c-0.3,0.6-0.9-0.1-1.2,0.4c-0.2,0.3-0.2,0.6-0.4,0.9c-0.3,0.4-0.5,0.8-0.8,1.1c-0.5,0.5-0.6,0.2-1.2,0.4c-0.3,0.1-0.3,0.2-0.6,0.1
		c-0.2-0.1-0.3-0.4-0.6-0.3c-0.4,0.1-0.7,0.9-0.8,1.2c-0.2,0.5-0.7,1.4-1.3,1.4c-0.6-0.1-0.2-0.6-0.3-1c-0.2-0.6-1.8-0.9-2-0.5
		c-0.2,0.4,0.4,1.1,0.2,1.6c-0.2,0.4-0.5,0.4-0.8,0.4c-0.3,0.1-0.6,0.5-0.9,0.5c-0.1,0-0.2-0.3-0.3-0.3c-0.2,0.2-0.5,0.1-0.7,0.3
		c-0.3,0.2-0.3,0.6-0.6,0.8c-0.2,0.1-1.3-0.1-1.3,0.1C377.7,226.1,381,216.3,382.7,213.8z"/>
	<path class="st8" d="M369.7,254.4c2.2-0.1,3.4,1.9,5.3,1.9c1.4,0,1.9-1.3,3-1.8c1.5-0.6,3.4-0.5,5-0.4c1.5,0.1,0.1,3.9-0.4,4.4
		c-1.2,1.2-3.3,0.7-4.4,2.1c-1.1,1.4,0.1,3.4-1.9,4.4c-2.2,1.1-2.3-2.8-4.5-2.4c-1.1,0.2-3.2,2.9-4.2,3.7
		C367.6,266.3,368.8,254.4,369.7,254.4z"/>
	<path class="st8" d="M395.2,192.5c0.3,0,1-0.2,1.2,0.1c0.2,0.3-0.2,0.7,0,0.9c0.3,0.6,1-0.3,1-0.7c0.4,0,0.8,0.2,1.1,0.3
		c0.6,0.1,0.7-0.3,1.3-0.4c-0.1-0.4,0.4-0.4,0.6-0.3c0.5,0.2,0.1,0.5,0.6,0.3c0.6-0.2,0.8-0.7,1.5-0.7c0.2,0,0.3,0.1,0.5,0
		c0.1,0,0.3-0.2,0.5-0.2c0.3,0,0.6,0.1,1,0.1c0.3,0,0.6,0,0.9-0.1c0.8-0.3,1.5-0.3,2.4-0.4c-0.6,0.8-0.9,2-1.5,2.9
		c-0.4,0.6-1.2,0.8-1.6,1.4c-0.1,0.2-0.3,0.4-0.4,0.6c-0.1,0.1-0.5,0.5-0.5,0.4c0-0.2,0-0.4-0.2-0.5c-0.5,0.2-0.5,0.8-1,1
		c-0.2,0.1-0.6,0.2-0.8,0.2c-0.4,0-0.2-0.2-0.4-0.3c-0.3-0.1-0.9-0.1-1.2,0.2c-0.2,0.2-0.2,0.4-0.4,0.6c-0.2,0.2-0.4,0.3-0.7,0.2
		c0-0.3-0.2-0.3-0.4-0.5c-0.3-0.3-0.3-0.7-0.8-0.5c-0.5,0.2-0.6,0.8-0.9,1.2c-0.1,0.2-0.9,1-0.9,0.6c-0.3,0.1-0.5,0.2-0.8,0.2
		c-0.3,0-0.3-0.2-0.5-0.3c-0.3-0.1-0.9-0.3-1.2-0.2c-0.3,0.2-0.2,0.6-0.4,0.8c-0.2,0.3-0.6,0.6-0.9,0.8c-0.5,0.4-1.1,0.4-1.7,0.5
		c-0.2,0-1,0.2-1.2,0.3C389.5,201,394.5,192.6,395.2,192.5z"/>
	<path class="st8" d="M426.3,177.5c0.4,0.4,1.1,0.3,1.1,1.1c0,0.4-0.1,0.7,0,1.2c0.2,0.5,0.5,1.1,1.1,0.6c0.4-0.3,0.3-0.8,0.6-1.1
		c0,0,0.3,1.1,0.3,1.2c0.5,0.9,1.1-1,1.6-0.6c0.2,0.2-0.1,0.7-0.2,0.9c-0.2,0.6,0,1,0.8,0.8c0.8-0.1,0.7-0.8,0.9-1.4
		c0.2-0.5,0.8-0.6,1-1c0-0.1,0.5,0.5,0.5,0.5c0.2,0.2,0.3,0.3,0.6,0.2c0.5-0.1,1.1-0.6,1.4-1c0.3-0.3,0.5-0.7,0.5-1.1
		c0.5,0,1.2-0.5,1.6-0.7c0.2-0.1,0.3-0.1,0.5-0.2l2.3-5.6c0,0-1-0.1-1.1-0.1c-0.5,0-1.1,0.1-1.6,0.2c-0.3,0.1-1.3,0.4-1.3-0.1
		c-0.5,0-0.7,0.8-1.2,0.5c-0.3-0.2-0.3-0.5-0.7-0.5c-0.5-0.1-0.3,0.1-0.4,0.5c-0.1,0.3-0.9,1-1.2,0.9c-0.2-0.1-0.3-0.8-0.4-1
		c-0.2-0.3-0.5-0.5-0.5-0.8c-0.4,0.1-1,0.7-1.4,0.1c-0.2-0.3-0.1-0.7-0.3-0.9c-0.2-0.2-0.4-0.2-0.7-0.3c-0.1,0-1.3,2.7-1.4,2.9
		c-0.7,1.4-1.4,2.9-2.1,4.3C426.5,177.1,426.4,177.3,426.3,177.5z"/>
	<path class="st8" d="M402.3,184.1c0.3,0.2,0.6,0.4,0.7,0.7c0,0.2-0.1,0.3-0.1,0.5c0.1,0.5,0.4,0.2,0.8,0.2c0,0,0,0.1,0,0.1
		c0.2,0,0.3-0.1,0.5-0.1c0.2,0,0.3,0.1,0.5,0c0,0.9,0.6,0.8,1.2,0.3c0.2-0.2,0.5-0.5,0.8-0.6c0.1,0,0.3,0.1,0.5,0.1
		c0.2,0,0.2-0.1,0.4-0.1c0.5-0.2,1.1-0.1,1.7-0.2c0.4,0,0.5-0.1,0.8-0.3c0.2-0.1,0.6-0.4,0.8-0.4c0,0.3,0.3,0.1,0.5,0.2
		c0.2,0.1,0.1,0.4,0.5,0.3c0.4-0.8,0.9-1.5,1.3-2.3c0,0.1-1-0.1-1.2-0.1c-0.4,0-0.7,0.2-1.1,0.2c-0.6,0.1-0.6-0.3-1-0.5
		c-0.3-0.2-1,0.1-1.3,0.3c-0.1,0.1-0.3,0.4-0.5,0.3c-0.3,0-0.3-0.5-0.5-0.5c-0.3,0-0.7,0.8-1.1,0.5c-0.2-0.2,0.1-0.4,0-0.5
		c-0.1-0.2-1.2-0.6-1.4-0.4C404,182.5,403.1,183.3,402.3,184.1z"/>
	<path class="st8" d="M497.7,177.9c0.2,0.3,2.1,0,2.4,0c0.9,0.1,2.5,0.1,3.2,0.6c0.6,0.4,0.3,0.9,1.2,1.1c0.7,0.1,1.2-0.6,1.8-0.5
		c0.8,0.1,0.7,1.7,1.8,1c0.8-0.5,0.3-2,1.2-2.3c1-0.3,1.2,0.8,1.5,1.4c0.5,1,1.2,2.2,1.5,3.3c0.1,0.5,0.6,0.8,0,1
		c-0.1,0-0.9-0.2-0.9-0.2c0.3,0.8,0,1.7-0.8,2.1c-0.3,0.2-2.6,0.2-2.4-0.5c-0.3,0.9-0.8,0.8-1.4,0.4c-0.3-0.2-0.4-0.8-0.7-1
		c-0.4-0.3-0.8-0.1-1.3-0.2c-1.3-0.5-0.9-2-2.7-1.7c-0.5,0.1-0.6,0.5-1.2,0.5c-0.1,0-1.4-0.5-1.4-0.6
		C499.5,182.3,499.1,179.6,497.7,177.9z"/>
	<path class="st8" d="M504.3,199.3c-0.1-0.4,2.7,0,2.9,0.1c0.5,0.1,1.3,0.7,1.6,0.7c0.8,0.1,0.7-0.3,1.4-0.5c0.5-0.1,0.8,0,1.4-0.1
		c0.7-0.2,1.2-1.2,1.8-1.3c0.9-0.1,1.2,1.2,2.1,0.9c0.7-0.2,0.5-1.2,0.9-1.5c0.2-0.2,1.9-0.5,2-0.5c0,0,2.7,7.2,2.7,7.2
		c0.3,0.8-1,1.3-1.5,1.1c-0.1,0-1.2-1.4-1.2-1.4c-0.1,1.3-0.3,1.9-1.1,2.8c-0.2,0.2-1.6,3-1.4,3c-0.7,0-1-0.7-1.5-1.1
		c-0.1,0.3-0.3,0.4-0.3,0.8c-0.8-0.1-0.9-0.9-1.6-1.1c-0.3-0.1-0.9,0.2-1.3,0c-0.5-0.2-0.3-0.6-0.5-0.9c-0.5-0.5-0.8-1.1-1.5-0.8
		c-0.6,0.2-0.8,0.8-1.4,1c-0.2,0-1.7-0.3-1.7-0.4C506,207.4,504.3,199.4,504.3,199.3z"/>
	<path class="st8" d="M509.3,229.7c0,0.3,2.8,0,3.1,0.1c1.2,0.5,1.5,3.5,3.2,2.5c0.4-0.2,0.4-1.2,0.9-1.3c0.9-0.3,1,0.9,1.3,1.3
		c0.6,0.7,0.5,0.8,1.6,0.7c2-0.2,0.7-1.2,1.7-2.2c0.6-0.6,0.6,0.2,1.2,0.1c0.8-0.2,2.1-1.4,2.9-1.9c0.9-0.5,1.8-1,2.8-1.3
		c-0.3,0.1,2.7,8.6,1.7,9.7c-1.1,1.3-1.3-0.2-2.1-0.4c-1.1-0.4-2.3,1.1-2.6,2c-0.4,1.1-0.1,2.4-1.4,2.9c-0.5,0.2-1.1,0.1-1.5,0.5
		c-0.3,0.3-0.2,1-0.6,1.3c-1.4,1.2-1.5-0.9-1.7-1.6c-0.3-1-1.2-1-1.9-1.4c-0.7-0.5-1-1.3-1.7-1.7c-1-0.6-6,0.8-6.2-1.2
		C510,237.4,509.3,229.8,509.3,229.7z"/>
</g>
<g id="floor2">
	<path class="st6" d="M348.1,291.4c0,0,101.3-72.7,244-3.3c0,0,5.7,6.2,1.2,14.7c0,0-126.2-63.7-248.5,4.9
		C344.8,307.7,342,295.3,348.1,291.4z"/>
	<path class="st5" d="M347.7,306.2c0,0,106.3-72.1,243.9-4.1c0,0,3.5,18.6,0,26.3c0,0-140.6-32.8-244,4.2
		C347.5,332.5,344,308.5,347.7,306.2z"/>
	<path class="st6" d="M347.8,309.9c0,0,106.5-63.5,244-4c0,0,3.5,16.3,0,23c0,0-140.6-28.7-244,3.6
		C347.8,332.5,344.1,311.9,347.8,309.9z"/>
	<path class="st5" d="M442.6,278.3c0,0-70.5,15.3-47.3,44.7c0,0-22.8,0.6-48.8,9.6c-0.9-5.5-3.1-25.3,6.2-29
		C363.3,299.2,436.4,276.2,442.6,278.3z"/>
	<g id="door1">
		<path class="st9" d="M451.6,315.7c0,0,0.9-19.6,18.1-20.3s17.9,20.6,17.9,20.6L451.6,315.7z"/>
		<path class="st10" d="M456.5,314.7c0,0,0.6-14.7,13.6-15.2s13.4,15.5,13.4,15.5L456.5,314.7z"/>
		<path class="st11" d="M463.4,314.9c0,0,0.3-7.3,6.8-7.6c6.4-0.2,6.7,7.7,6.7,7.7L463.4,314.9z"/>
	</g>
	<g id="door2">
		<path class="st12" d="M382.2,323.6c0,0,1-23.4,15.9-24.6c14.8-1.2,12.2,20.2,12.5,20.2"/>
		<path class="st10" d="M386.6,321.7c0,0,0.7-15.2,10.3-16s7.9,13.1,8.1,13.1"/>
		<path class="st11" d="M393.4,320.4c-0.9-1.7,0.6-4.5,1.5-5.8c0.4-0.5,0.8-1,1.2-1.5c1-1,2.9-1.9,4.3-1.9c1.1,0,2.2,0.5,3,1.3
			c1.2,1.3,1.5,3.2,1.5,4.9c0,0,0,1.3,0,1.3"/>
	</g>
	<g id="door3">
		<path class="st12" d="M553.4,322.6c0,0-1-23.4-15.9-24.6c-14.8-1.2-12.2,20.2-12.5,20.2"/>
		<path class="st10" d="M549,320.8c0,0-0.7-15.2-10.3-16s-7.9,13.1-8.1,13.1"/>
		<path class="st11" d="M542.2,319.4c0.9-1.7-0.6-4.5-1.5-5.8c-0.4-0.5-0.8-1-1.2-1.5c-1-1-2.9-1.9-4.3-1.9c-1.1,0-2.2,0.5-3,1.3
			c-1.2,1.3-1.5,3.2-1.5,4.9c0,0,0,1.3,0,1.3"/>
		<path class="st9" d="M584.1,327.3c0,0,2.2-17.1,9.5-15.4c7.3,1.7,1.3,18,1.3,18L584.1,327.3z"/>
		<path class="st10" d="M586.9,328c0,0,1.4-10.5,5.8-9.5c4.5,1,0.8,11,0.8,11L586.9,328z"/>
		<path class="st9" d="M357.3,329.6c0,0-0.6-16.1-8-15.3s-2.2,18.5-2.2,18.5L357.3,329.6z"/>
		<path class="st10" d="M355.7,329.6c0,0-2.4-10-6.9-8.8c-4.4,1.2-0.3,11.1-0.3,11.1L355.7,329.6z"/>
	</g>
</g>
<g id="Layer_12">
	<path class="st7" d="M346.5,331.5c-7.3,5.5-106.9,81.6-118.9,86.3s-200,77.3-206.7,96c-6.7,18.7,387.3-131.3,448.7-87.3l374,46
		c0,0-178.1-79-247.7-143.4C479.2,295.6,353.7,326,346.5,331.5z"/>
</g>
<g id="Layer_8">
	<path class="st8" d="M441.5,415.8c0,0,15.9-115.5,31-104.8c15.1,10.7,29.4,104.8,29.4,104.8H441.5z"/>
	<path class="st2" d="M448.4,417.5c0,0,12.2-117.3,23.9-106.4S495,417.5,495,417.5H448.4z"/>
	<path class="st8" d="M334.8,437.4c0,0,60.8-108.7,68-117c0,0,3.1-13.4-17.3,6.5c-16.4,16-85.9,112.8-85.9,112.8L334.8,437.4z"/>
	<path class="st2" d="M332.3,433.5c0,0,65.8-117.5,72.6-114.2c0,0,2.5-14-13.5,4c-13.7,16.2-83,110.2-83,110.2H332.3z"/>
	<path class="st8" d="M581.2,434.5c0,0-43.6-107.8-50.6-116c0,0-2.9-12.4,17,5.5c16.7,15,68.2,112.6,68.2,112.6L581.2,434.5z"/>
	<path class="st2" d="M584.1,429.4c0,0-47-116.3-53.7-113c0,0-0.2-11.7,13.7,4.3c13.1,15.1,63.4,108.7,63.4,108.7H584.1z"/>
	<path class="st8" d="M475.7,390.2c-0.1-0.2-0.3-0.4-0.5-0.5c-5.9-4.5-1.2,11-1.3,11.7c0.3-1.6,3.7-11.8-0.4-11.3
		c-1.8,0.2-1.2,5-1.2,6.5c-0.1,2,2,7.5,3.8,3.7c0.6-1.2-0.4-2-0.4-3.1c0-1,0.3-1.7,0.4-2.7C476.2,393.2,476.5,391.4,475.7,390.2z"/>
	<path class="st8" d="M478.3,391.9c0-0.1,0.1-0.2,0.1-0.3c1.8-3.1,3.9,5.6,2.7,7.2C478.6,402.2,477.5,394.1,478.3,391.9z"/>
	<path class="st8" d="M481.9,388.8c0.1-0.1,0.1-0.1,0.2-0.1c1-0.1,2.2,5.1,2.5,6.5c0.4,1.7,1.5,5.5,0.6,6.5
		c-0.7,0.9-2.5-4.9-2.8-5.8C482.2,394.6,481.2,389.7,481.9,388.8z"/>
	<path class="st8" d="M347.4,403c1.8-1.2,2.9-3.3,2.7-5.5c-1.9,1.2-3.8,4.8-3.5,7.2c1.3-0.4,2-1.8,2.2-3"/>
	<path class="st8" d="M344.8,403c1.7-1.3,2.6-3.5,2.2-5.7c-1.8,1.4-3.3,5.1-2.9,7.5c1.2-0.5,1.9-2,1.9-3.2"/>
	<path class="st8" d="M341.2,403c1.7-1.3,2.6-3.5,2.2-5.7c-1.8,1.4-3.3,5.1-2.9,7.5c1.2-0.5,1.9-2,1.9-3.2"/>
	<path class="st8" d="M362.3,364c-1.1,1.1-1.5,3-2.5,4.3c-1,1.3-2.7,2.3-2.9,3.9c2.4,1.4,6.5-6,6.2-8.2c-0.5-0.2-0.5,0.1-0.7,0.2"/>
	<path class="st8" d="M364.8,365.3c0.2,2.4-2.2,3.8-2.2,6.2c2.7,0.3,2.7-4.4,2.7-6.2"/>
	<path class="st8" d="M386.8,336.8c-1.1,0.6-2.5,4.2-2.7,5.7c1.9-0.4,3.6-4.5,3-6"/>
	<path class="st8" d="M383.5,336.5c-0.6,1.7-1.7,3.4-1.7,5.2c1.9,0,2.4-3.3,2-4.7"/>
	<path class="st8" d="M460.3,350.3c-2,2.3-2.1,8.1-2,11.2c3.8,1,4.1-9.1,3.9-11.4c0.9,1.4-0.2,10.2,3,9.2c0.7-2.2,1.6-16.3-2.7-10.6
		c-0.3-0.4-0.7-0.4-1-0.9c-1.4,0.5-1.2,2.4-1.7,3.5"/>
	<path class="st8" d="M470.3,348.5c-3.6-0.9-3.4,6.9-1.7,8.5c2.6,2.4,1.6-4.1,3.4-5c0.5,0.7,0.8,1.5,0.8,2.4c1.4-0.1,1.2-3.2,1-4.5
		c-0.5-2.5-2.4-2.7-2.3,0c-0.3-0.4-0.7-0.6-1-1.2c-0.2-0.1-0.6,0-0.7,0"/>
	<path class="st8" d="M479.8,349.8c-3,0.3-3,5.4-1.7,7.2c0.7-0.5,1.2-1.3,1.5-2.2c2.6,0.1,1.7,4.4,4.4,4.7
		c0.1-2.4-0.1-10.6-2.7-10.9c-0.1,1.3,0,2.6-0.1,3.9c0-1-0.3-2.4-1.7-2.5"/>
	<path class="st8" d="M456,389.5c-2.1,1.4-1.9,14.6,0.3,14c1.3-0.4,0.6-3.5,1.2-4.5c1.1-1.8,1-0.6,3-0.5c0-0.4,0.2-1,0.1-1.4
		c0.3,0.3,1.1,0.5,1.4,0.7c0.2-2-0.3-3.4-1-5.2c-0.3,0-0.6,0-0.9,0c-0.8,1-0.9,2.3-1.5,3.2c-0.6-2.3,0.2-5.1-2.3-6.3"/>
	<path class="st8" d="M467.3,318.5c-1.1,2-1.6,3.9-1.5,6.5c1.3-0.4,2.1-1.9,2.5-3.2c0.9-0.2,1.7,0,2.2,0.7c0.8-0.9,1.5-2.6,1-3.7
		c-1.5-0.3-1.7,1.4-3.2,1.2c0.1-0.5-0.2-1.2-0.1-1.7c-0.6,0-1.1,0.2-1.5,0.5"/>
	<path class="st8" d="M475.5,319.5c-0.2-1.1-0.9-1.8-2-2c-0.2,2.1,1.2,4,1.7,6c0.4,1.7,0.1,4.4,1.4,5.7c0.5-2,0.8-9.5-1.3-10.2"/>
	<path class="st8" d="M541,322c-1.3-1.9-2.1-0.2-1.7,1.3c0.2,0.8,1.7,2.5,2.2,3c1.2-1.2,0.4-3.7-0.7-4.8"/>
	<path class="st8" d="M544.3,324.8c0-1.4,0.5-4-1.5-3.7c-0.3,1.4,0.4,5.1,1.7,5.2c0-0.7,0.2-1.5,0-2.2"/>
	<path class="st8" d="M556.3,353c-0.2-2.2-3.7-7.8-6-8.2c-0.4,1.9,2.1,4.6,3,6.2c0.9,1.8,1.4,5.7,4.4,5c0.1-1,0-2,0.1-2.9
		c2.5,1.3,0.8-5.6-1-6.2c-0.1,1.9,1.2,4.7,0.4,6.2c-0.2-0.2-0.7-0.5-0.9-0.7"/>
	<path class="st8" d="M562.8,355.3c0-1.6-0.7-3.2-1.8-4.3c-1.3,1.4,1.5,7.2,2,4.5"/>
	<path class="st8" d="M579.3,396.8c-0.6-2.5-2.2-7.8-5.5-7.5c-0.2,3,2.3,4.9,3.3,7.5c0.7,1.8,1.4,6.4,4.1,4.2c0.1-1,0-2.1,0.1-3.2
		c4.2,3.1,0.7-5.2,0.4-6.5c-1.2,1.1-0.4,3.2-1,4.7c-0.6,0.2-1,0.2-1.5,0"/>
	<path class="st8" d="M575.5,399.3c-1.5-1.9-3.4-4.8-4.2-7.2c-0.1,2.1,1.8,9.9,4.4,9.6c0.5-1.1,0.1-2.1-0.2-3.2"/>
</g>
<g id="water_big">
</g>
<g id="floor1">
	<path class="st13" d="M0,514.8c0,0,215.1-108.3,468.4-98.7c0,0,280.1-3.2,440.7,73.8v67.4L0,557.1"/>
	<path class="st14" d="M0,517.6c0,0,214.3-99.9,468.5-91c0,0,279.5-3,440.6,68.3v62.4L0,556.8"/>
	<path class="st13" d="M0,521.8c0,0,210.7-90.9,464.9-82.8c0,0,283.1-3.8,444.2,60.7v56.4L0,557.3"/>
	<path class="st14" d="M0,521.8c0,0,209.6-91.6,463.8-83.5c0,0-269.2,24.4-108.1,88.9h-58.5L0,557.3"/>
	<path class="st15" d="M0,526.6c0,0,210.7-37.7,464.9-34.3c0,0,283.1-1.1,444.2,25.6v23.4L0,544.6"/>
	<path class="st16" d="M0,542.6c0,0,210.7-37.7,464.9-34.3c0,0,283.1-1.1,444.2,25.6v23.4H0"/>
	<path class="st17" d="M402.8,429.4"/>
</g>
<g id="big_door">
	<path class="st18" d="M377.8,497.1l-0.6-37.5c0,0,3.8-9.1,16.8-9.8c13-0.7,15.5,5.6,15.5,5.6l-10.6,34.4L377.8,497.1z"/>
	<path class="st17" d="M312,497.1l-0.7-71.5c0,0,7-14.9,31-16.2c24-1.2,28.5,9.2,28.5,9.2l1.8,75L312,497.1z"/>
	<path class="st6" d="M307.1,480.3l-1.1-56.2c0,0,7-13.6,31-14.7c24-1.1,28.5,8.4,28.5,8.4l1.8,68.3L307.1,480.3z"/>
	<g>
		<g>
			<path id="XMLID_1_" class="st5" d="M292.4,470.4l21.3,7.5l-0.8-50.2c0,0,5.2-12.2,23.2-13.2s21.3,7.5,21.3,7.5l1.3,61l-61.9,18
				L292.4,470.4z"/>
		</g>
		<g>
			<defs>
				<path id="SVGID_1_" d="M292.4,470.4l21.3,7.5l-0.8-50.2c0,0,5.2-12.2,23.2-13.2s21.3,7.5,21.3,7.5l1.3,61l-61.9,18L292.4,470.4z
					"/>
			</defs>
			<clipPath id="SVGID_2_">
				<use xlink:href="#SVGID_1_"  style="overflow:visible;"/>
			</clipPath>
			<path class="st19" d="M343.2,489.8l-0.6-37.5c0,0,3.8-9.1,16.8-9.8c13-0.7,15.5,5.6,15.5,5.6l-10.6,34.4L343.2,489.8z"/>
		</g>
	</g>
	<path class="st6" d="M289.4,508.1c0,0-3.3-38.7,3-37.7s4.3,25.7,4.3,35L289.4,508.1z"/>
	<path class="st20" d="M356.8,486.8l-3.3-3.3c-4.3-4.2-9.6-9.9-15.6-13c-3.9-2-8.1-3-12.6-1.8c-3.8,1-11.1,5.1-13.3,8
		c-1.7,2.2-1.5,5.2-3,7.5c-1.5,2.3-4.1,3.1-5.7,5.2c-3.8,4.8-4.2,8.5-9.7,12.3c-5.6,3.9-12.5,5.6-18.2,9.7
		c-9.9,7.1-20.1,14.2-26.8,24.8c-1.3,2-2.6,4-3.6,6.1c-1.1,2.2-1.7,4.6-1.5,7.2c4.8-3.8,15.8-2.4,21.8-3.3c6.9-1.1,13.7,0.7,21,0.7
		c6.9,0,16.8,3.6,23.2,2c5.7-1.4,4.7-5.3,8.2-10c2.8-3.9,7.3-6.8,9.7-10.9c2.8-4.8,2.3-9.1,5.5-13.8c4.9-7.2,11.2-14.2,17.8-19.5
		C353.5,492.3,357.2,491.2,356.8,486.8z"/>
	<path class="st2" d="M279.5,542.4c3.5,0,10,2.8,13,1.4c2.8-1.2,2.6-6.8,6.5-6.4c2.7,0.3,1.7,2.8,3.6,3.6c3.2,1.3,6.1-4.1,7.8-6.2
		c3.3-4,7.2-8.4,9.6-13.1c1.8-3.6,6.9-9.4,7.3-13.2c0.4-3.5-3.3-4.7,0.7-7.6c5.3-3.8,10.7-6.7,15.8-10.8c2.9-2.3,6.6-3.5,6.2-7.8
		l-3.3-3.3c-2.6-2.6-5.6-5.7-8.8-8.4c-3.9-2-8.1-3-12.6-1.8c-3.8,1-11.1,5.1-13.3,8c-1.7,2.2-1.5,5.2-3,7.5
		c-1.5,2.3-4.1,3.1-5.7,5.2c-3.8,4.8-4.2,8.5-9.7,12.3c-5.6,3.9-12.5,5.6-18.2,9.7c-9.9,7.1-20.1,14.2-26.8,24.8
		c-1.3,2-2.6,4-3.6,6.1c4.7-0.5,10-0.2,13.5-0.7C265.5,540.6,272.3,542.4,279.5,542.4z"/>
	<path class="st5" d="M341.9,470.4l25.7,12.2v11.3c0,0-22.1,10.8-23.6,16.9C342.5,516.9,341.9,470.4,341.9,470.4z"/>
	<path class="st6" d="M339,511c0,0-3.4-41.5,2.9-40.5s5,31,5,40.3L339,511z"/>
	<path class="st8" d="M258.1,526.4c0.3,0.5-0.9,3.8,0.3,5.4c1.9-1.6,3.3-4.2,5.4-5.7c2.7,3.6,4.4-3.1,4.6-4.9
		c-4.2-0.7-7,3.7-10.6,4.6"/>
	<path class="st8" d="M273.9,526.6c1.2,1,3.5-0.7,5-0.1c2,0.8,1.7,2.2,4.2,2.5c2,0.2,3.9-1.2,5.9-1.3c2.6-0.1,1.6,1.1,3.4,1.7
		c1.7,0.5,3.9-0.4,5.6-0.3c3.8,0,6.3,0.6,9.7-0.9c2.3-1,6.8-2,6-5.4c-6-0.3-12.3,2.2-17.9,1c-2.2-0.5-4.5-2-6.7-2.3
		c-2.8-0.5-5.4,1.1-8.3,1c-0.9-0.1,0.1-4.6-4-3C274.9,520.1,271.7,524.8,273.9,526.6z"/>
	<path class="st8" d="M321.8,523.8c-1.1-0.4-3.5,6.7,0.3,4.7c2-1,2.6-5.7,2.9-7.6c-1.8,0-2.1,1.5-3.6,2.3"/>
	<path class="st8" d="M326.1,502.1c-1.2,1.3-1.2,3.3-2,4.7c-1.7,3-2.2,1.7-4.7,1.9c-1.3,0.1-2.6,1-3.9,1c-2.5,0.1-3.4-1.6-5.5-2
		c-3.8-0.8-8.9,6.4-12.3,3.8c-2.6-2,1.2-4.6-0.2-6.5c-1.6-2.3-4.8,0.9-6.4,1.8c-0.2,0.1-2.4-2.5-3.7-2.1c-1.8,0.6-2.1,3.3-0.6,4.3
		c2.1,1.4,7.7-3.2,9.8-4c2.7-1.1,6.7-2.1,9.6-1.7c4.7,0.6,5.7,3.6,10.9,0.9c1.1-0.6,2.4-1.6,3.7-1.7c0.9-0.1,0.7,1.5,2,1.4
		c1.5-0.1,2.9-3,3.7-1"/>
	<path class="st8" d="M334.1,503.8c-0.9-1.4-1.3-3.5-3.3-3.3c-1.6,2-0.6,7.2-0.1,9.6c2.2-1.3,3.7-4.6,3.4-7.3"/>
	<path class="st8" d="M337.4,487.1c-0.1-3-1.7-5.8-5-4.2c-3.1,1.4-2.7,4-7,3c-1.2-0.3-1.2-1.1-2.7-1.2c-1.4-0.1-2.5,0.6-3.9,0.7
		c-3.1,0.3-5.4-0.6-7.7,1.7c1.7,0.4,4.9,0.4,6.7,1.6c2.6,1.7,1.6,2.8,5,2.8c3.5,0,9.5-1.6,12.3,0.5c-0.2-1.9,0.9-3.4,1.7-5"/>
	<path class="st8" d="M238.8,544.8c-0.1,0.7-0.3,2-0.3,2.1c-0.4-2.1,2.4-5.1,4.3-5.8c2.5-0.8,4.2,1.8,6.6,0.1c1.8-1.2,0.8-4,3.8-2.8
		c1.4,0.6,1.5,3.3,3.4,3.5c2.3,0.2,2.7-3.1,4.6-3.9c1.9-0.8,5.6,0.2,7.5,0.6c1.3,0.3,1.5,0.2,2.8,0.7c1.2,0.5,1.4,1.7,2.9,1.8
		c2.5,0.2,3.7-1.5,3.7-4c1.5,0,2.5,0.5,3.9,0.7c0.1,1.1,0,2.3-0.2,3.3c2.1,0.8,4-0.8,6-0.4c2.2,0.4,2.8,2.7,4.7,3.4
		c3.8,1.3,6.7-2.5,7.6-5.6c4.5-1.2,4.2,4.5,4.3,7.2c1.2,0.7,3.8,1.9,5.3,1.3c1.6-0.6,1.7-3.4,3.7-3.6c0.6,0,5.1,2.4,5.6,2.9
		c1.4,1.6,1.5,5.4,1.4,7.4c-0.4,6-3.6,3-7.7,4c-2.1,0.5-3.2,2.3-5.2,3.3c-1.8,0.8-4,0.9-5.7,1c-1.6,0.1-0.9,0-2.5,0.7
		c-3,1.2-12.3,5-15.3,2.7c-1.5-1.1-0.6-2.6-1.6-4c-1.9-2.9-3.5-1.3-5.3,0.5c-2.3,2.2-2.5,3.3-6.1,2.3c-3.1-0.9-5.2-2.4-8.7-1.2
		c-2.9,1-4.8,2.7-8.3,1.9c-1.5-0.3-2.5-1.4-3.7-1.7c-0.7-0.2-2.8,0.4-3.7,0.3c-4.4-0.1-2.8-2-5.3-4.3c-3.2-3-2.1,2.8-5.9,2.3
		c-3.5-0.4-5.3-4.8-3.9-7.8c1.2-2.6,4.6-3.7,6.5-5.6c1.2-1.2,0.4-2.9,2.4-3.2"/>
</g>
<g id="Layer_17">
	<path class="st18" d="M583.9,500.1l0.6-37.5c0,0-3.8-9.1-16.8-9.8c-13-0.7-15.5,5.6-15.5,5.6l10.6,34.4L583.9,500.1z"/>
	<path class="st17" d="M799.6,497.2l0.9-46.2c0,0-1-16.7-25-17.9c-24-1.2-28.5,9.2-28.5,9.2l-0.9,51.8L799.6,497.2z"/>
	<path class="st6" d="M800.6,495.7l0.6-38.6c0,0,1.4-20.8-21.1-23.9c-23.3-3.2-27.9,8.4-27.9,8.4l-1.2,50.8L800.6,495.7z"/>
	<g>
		<g>
			<path id="XMLID_3_" class="st5" d="M795,496.9c0,0,0.4-36.5,0.4-36.6c0.1-6.4-1-13.8-6.1-18.4c-5-4.6-12.8-4.8-18.9-3.1
				c-3.5,0.9-6.9,2.4-9.2,5.2c-0.3,0.3-0.9,1-0.9,1.4c0,0-0.9,47.4-0.9,47.4L795,496.9z"/>
		</g>
		<g>
			<defs>
				<path id="SVGID_3_" d="M795,496.9c0,0,0.4-36.5,0.4-36.6c0.1-6.4-1-13.8-6.1-18.4c-5-4.6-12.8-4.8-18.9-3.1
					c-3.5,0.9-6.9,2.4-9.2,5.2c-0.3,0.3-0.9,1-0.9,1.4c0,0-0.9,47.4-0.9,47.4L795,496.9z"/>
			</defs>
			<clipPath id="SVGID_4_">
				<use xlink:href="#SVGID_3_"  style="overflow:visible;"/>
			</clipPath>
			<path class="st21" d="M774,494.1l1.1-18.5c0,0-3.8-9.1-16.8-9.8c-13-0.7-15.5,5.6-15.5,5.6l12.7,19.8L774,494.1z"/>
		</g>
	</g>
	<path class="st17" d="M751,489.5"/>
	<polygon class="st6" points="751.1,487.1 800.5,492.2 800.3,498.8 751.1,493.7 	"/>
	<path class="st17" d="M10.8,533.4l-0.3-26c0,0,0.4-9.4,9.4-10.1c9.1-0.7,10.8,5.2,10.8,5.2l0.3,29.2L10.8,533.4z"/>
	<path class="st6" d="M10,532.7l-0.2-21c0,0-0.5-12.3,7.3-14.4c9.9-1.9,11.2,4,11.2,4l0.5,29.4L10,532.7z"/>
	<g>
		<g>
			<path id="XMLID_5_" class="st5" d="M12.4,531.6C12,514.1,12,510.6,12,513.7c0,0.2,0,0.4,0,0.7c0.2-3.6,0.4-8.1,2.1-11
				c1.3-2.4,4.3-4.4,6.5-3.6c1.5,0.5,2.9,1.4,3.9,3c0.1,0.2,0.4,0.6,0.4,0.8c0,0,0.5,26.4,0.5,26.4L12.4,531.6z"/>
		</g>
		<g>
			<defs>
				<path id="SVGID_5_" d="M12.4,531.6C12,514.1,12,510.6,12,513.7c0,0.2,0,0.4,0,0.7c0.2-3.6,0.4-8.1,2.1-11
					c1.3-2.4,4.3-4.4,6.5-3.6c1.5,0.5,2.9,1.4,3.9,3c0.1,0.2,0.4,0.6,0.4,0.8c0,0,0.5,26.4,0.5,26.4L12.4,531.6z"/>
			</defs>
			<clipPath id="SVGID_6_">
				<use xlink:href="#SVGID_5_"  style="overflow:visible;"/>
			</clipPath>
			<path class="st22" d="M19,531.8L18.6,521c0,0,1.6-5.3,7.1-5.7s6.6,3.3,6.6,3.3l-5.4,11.5L19,531.8z"/>
		</g>
	</g>
	<path class="st17" d="M104.2,534"/>
	<polygon class="st6" points="28.9,527.2 10,530.2 10.1,534 28.9,531 	"/>
	<path class="st23" d="M850.7,551.7c-1.6,0.1-3.1,0.2-4.7,0.2C847.5,551.9,849.1,551.9,850.7,551.7c-1.6-6.6-8.9-11.1-12-17
		c-2.4-4.5-2.9-5-7.5-8.1c-4.5-3-7.8-7.1-11.6-10.8c-3.4-3.3-7.7-5-11.4-7.8c-3.8-3-5.8-7.3-9-10.4c-1.6-1.6-4-2.1-5.2-3.8
		c-1.1-1.6-0.7-3.6-1.7-5.2c-2.5-4-6.3-4.5-10.1-5.9c-5.2-1.9-19-7.7-22.4-0.9c-0.1,0.2-0.2,0.3-0.2,0.5c0,0.1,0,0.1,0,0.2
		c-3.1,8.4,11.4,21.3,15.1,27.2c3,4.9,7.2,7.9,10.5,12.5c3.1,4.3,4.5,9.4,7.3,13.9c2.9,4.6,4.9,7.6,6.4,13.2
		c1.1,4.1,1.5,7.6,5.5,9.1c7.6,2.8,19.5-1.3,27.5-1.6c6.3-0.3,12.8,0.5,19-0.1C851.1,554.8,851.1,553.2,850.7,551.7z M832,551.8
		c-6,0.3-14.2,2.6-21.2,2.6C817.8,554.4,825.9,552.1,832,551.8c0.7,0,1.5-0.1,2.3-0.1C833.5,551.8,832.8,551.8,832,551.8z"/>
	<path class="st24" d="M780.6,463.1c-0.1,0-0.2,0-0.3,0"/>
	<path class="st2" d="M831.2,526.6c-4.5-3-7.8-7.1-11.6-10.8c-3.4-3.3-7.7-5-11.4-7.8c-3.8-3-5.8-7.3-9-10.4c-1.6-1.6-4-2.1-5.2-3.8
		c-1.1-1.6-0.7-3.6-1.7-5.2c-2.5-4-6.3-4.5-10.1-5.9c-5.2-1.9-19-7.7-22.4-0.9c-0.1,0.2-0.2,0.3-0.2,0.5c-0.6,1.6,2.5,5.9,3.3,7.1
		c1.1,1.8,2.3,3.1,4.6,2.1c1.8,0.4,2.2,2.8,2.2,4.5c0,4.1,3.2,5.7,5.2,8.9c1.2,2,2.5,4.2,4.9,4.7c1.6,0.3,4.5-0.2,5.1,1.9
		c0.3,1.2-0.1,2.6,0.2,3.8c0.6,2.5,2.2,5,3.3,7.4c1.1,2.2,2,4.5,3.2,6.7c1.1,1.9,2.6,3.1,3.9,4.8c1.4,1.8,3.3,3.2,4,5.5
		c0.4,1.2-0.1,3.2,0.7,4c0.4,0.5,1.5,0.4,2,0.9c0.5,0.4,0.5,1,0.8,1.5c0.5,0.7,1.3,2.5,2,3c0.7,0.5,1.8,0.3,2.3,1
		c0.4,0.6-0.2,2,0.5,2.9c1.2,1.7,3.7,2.1,5.5,1.3c0.8-0.4,1.7-0.9,2.5-1.3c0.9-0.4,1.6-0.6,1.7-1.8c1.4-0.8,1.5,1.2,2.6,1.6
		c1.8,0.8,3.4,0.5,5.2-0.1c1-0.3,2.1-0.5,2.9-1.1c0.8-0.5,1.2-1.5,2.3-1.7c1.4-0.2,2.5,0.9,3.7,1.3c1.3,0.5,2.7,0.5,4.1,0.5
		c4.1,0.1,8.2,0.3,12.3-0.1c-1.5-6.6-8.8-11.1-12-17C836.3,530.3,835.8,529.7,831.2,526.6z"/>
	<path class="st8" d="M795.6,531.9c1.2-2.1,3.1-3.1,5.2-3c0.5,0,0.8,0.6,1.2,0.7c0.6,0.1,1-0.4,1.4-0.4c0.6,0.1,1.1,0.7,1.8,0.7
		c1,0,1.9-0.9,2.9-0.7c0.9,0.2,1.8,1.8,2.7,1.3c0.7-0.4,0.3-1.5,0.9-1.9c0.6-0.4,2.3,0.7,2.9,1.2c1.2,1,1.8,1.8,3.5,1.7
		c2.6-0.3,6.5-4.1,8.7-0.9c1.3,1.8,3,7.2-0.8,5c-0.9-0.5-1.1-1.4-2.2-1.5c0.4,2.2-1.8,1.7-2.9,2.1c-1.7,0.7-1.8,3-3.1,3.8
		c-1.5,0.9-3.8,0.1-5.4,0c-2.2-0.1-3.8-0.1-5.6-1.6c-1.8-1.5-2.6-0.9-4.6-1.1c-1.1-0.1-1.5-0.8-2.5-1.3c-1-0.5-2.3-0.2-3.1-1.3
		c-0.6-0.8-0.5-1.6-1.3-2.4"/>
	<path class="st8" d="M830.8,527.9c0,1.7,5.1,4.1,4.5,6.3c-0.4,1.8-3.4-1.8-4.5-1.6c0,0.2-0.1,0.4-0.1,0.6c-1.5,0.6-2.4-1.4-2.1-2.8
		c0.5,0.1,0.9,0.1,1.3,0.6c0.8-0.8-0.2-1.7,0.1-2.8c0.6-0.2,0.8-0.1,0.8,0"/>
	<path class="st8" d="M795.8,537.4c-1.5-0.7-1.8-2.7-2-4c-0.2-0.8-1-4-1.7-1.7c-0.3,0.9,0.9,2.8,1.2,3.8c0.5,1.5,0.6,2.9,2.4,3
		c0.1-0.5,0-1-0.3-1.5"/>
	<path class="st8" d="M786.4,517.1c-0.5-0.2-1.8-1.3-2.3-1c-1,0.6,0.7,3.2,1,3.8c1,1.6,2.1,3,3.3,4.2c0.6-0.9,0.7-3.3-0.4-3.8
		c0.3,0,0.9-0.1,1.3,0.1c-0.2-1.9-0.7-2.4-1.8-4c-0.2,0.1-0.6,0.2-0.8,0.3"/>
	<path class="st8" d="M789.4,515.6c0.3,1.2,1.4,3.7,2.8,3.8c0.5-1.9,0.9-0.8,1.9-0.7c1.2,0.2,2.9-0.2,4,0.2c1,0.4,1.3,1.6,2.3,1.6
		c1.3,0.1,1.5-0.9,1.4-2c1.9-0.8,3.9,0.4,3.1-2.2c0.1,0.2-0.6-0.8-0.6-0.8c-0.1-0.3,0.1-1.1-0.2-1.5c-0.3-0.5-1.6-1.2-2.2-1.1
		c-0.2,1.1,0.4,1.8,0.4,2.8c-2.3,0-4.7-0.5-7-0.5c-2,0-4.7,0.9-6.3,0.7"/>
	<path class="st8" d="M805.3,512.4c1.3,1.1,1.6,3,3.3,3.4c-0.1-0.6-0.4-1.3-0.3-1.9c1.5-0.8,2.9,0.5,4.3-0.2c-0.3-1-3.5-4.8-4-2
		c-1.3-0.4-1.6-0.4-2.8,0.2c-0.1,0.1,0,0.3,0,0.5C805.6,512.4,805.4,512.4,805.3,512.4c-0.1,0.6,0.1,0.9,0.5,1.2"/>
	<path class="st8" d="M768.9,492.8c0.8,1.6,3.7,7.4,4.2,2.9c1.7-0.2,3.4,2.2,3.6-0.2c0.2-1.9-2.3-2.9-3.3-1.6
		c-0.6-0.6-1.4-1.6-2.3-1.5c-1.1,0-1.1,1.3-2.3,1c0,0,0,0.4,0,0.4c0.4,0.3,0.5,0.6,0.8,0.9"/>
	<path class="st8" d="M777.3,491.9c0-0.1-0.3-0.3,0-0.2c1,0.8,1.4,2.1,2.5,2.7c0.6-0.8,0.3-1.3,1.3-1.5c1.1-0.2,2.3,1.2,3.5,0.9
		c1.3-0.3,0.2-1.4,2.1-0.5c1.3,0.6,1,1.4,2,0.7c0.7-0.5-0.5-1.2,1.1-1.3c0.5,0,1.4,1.4,2,0.3c0.7-1.1-2.2-3.5-3-4
		c-0.1,0.1-0.1,0.3-0.2,0.3c-1.6,0-1.5,0.6-2.7,1c-1.2,0.4-2.5-0.2-3.8,0.1c-1.4,0.3-1.9,0.3-3.3,0.3c-1.4-0.1-2.2,0.4-1.3,1.7"/>
	<path class="st8" d="M793.4,559.4c-2.3-6.3,4.1-8.8,9.7-8c3.3,0.5,3.1,1.4,5.7-2.1c2-2.6,2.5-2.9,6-2.3c2.5,0.5,4.9,0.9,7.5,1.4
		c1.1,0.2,1.4,1,2.8,0.9c1.6-0.1,1.9-1.1,3.4-1.6c4.3-1.3,8.9,1.7,12.9-0.5c0.1-1.2,0.2-2.4,0.4-3.6c2.2,0.2,4.2,3.3,6.7,3.5
		c2.3,0.2,3.9-2.1,5.9-1.2c1.7,0.8,3.3,5.9,2.6,7.5c-1.4,3.1-5.1,1.1-6.6,3.7c-1.9,3.3,1,5.3-4,6.7c-3.1,0.8-6.6,0-9.7-0.7
		c-3.5-0.8-5.3-2-9-0.7c-3.1,1.1-6.3,3.6-9.7,3.4c-1.5-0.1-2.1-1.3-3.9-1c-2,0.3-3.3,1.9-5.4,2.1c-1.3,0.1-2.5-0.5-3.7-0.3
		c-1.3,0.1-2.2,1.1-3.6,1c-5.4-0.2-5.1-7.1-8.7-8.7"/>
</g>
<g id="bigdoor_2">
	<path class="st17" d="M649.7,500.4l0.7-71.5c0,0-7-14.9-30.9-16.2c-24-1.2-28.5,9.2-28.5,9.2l-1.8,75L649.7,500.4z"/>
	<path class="st6" d="M654.6,483.7l1.1-56.2c0,0-7-13.6-30.9-14.7c-24-1.1-28.5,8.4-28.5,8.4l-1.8,68.3L654.6,483.7z"/>
	<g>
		<g>
			<path id="XMLID_2_" class="st5" d="M669.3,473.4l-21.3,7.5l0.8-50.2c0,0-5.2-12.2-23.2-13.2s-21.3,7.5-21.3,7.5l-1.3,61l61.9,18
				L669.3,473.4z"/>
		</g>
		<g>
			<defs>
				<path id="SVGID_7_" d="M669.3,473.4l-21.3,7.5l0.8-50.2c0,0-5.2-12.2-23.2-13.2s-21.3,7.5-21.3,7.5l-1.3,61l61.9,18L669.3,473.4
					z"/>
			</defs>
			<clipPath id="SVGID_8_">
				<use xlink:href="#SVGID_7_"  style="overflow:visible;"/>
			</clipPath>
			<path class="st25" d="M618.6,492.8l0.6-37.5c0,0-3.8-9.1-16.8-9.8c-13-0.7-15.5,5.6-15.5,5.6l10.6,34.4L618.6,492.8z"/>
		</g>
	</g>
	<path class="st6" d="M672.3,511.1c0,0,3.3-38.7-3-37.7s-4.3,25.7-4.3,35L672.3,511.1z"/>
	<path class="st23" d="M711.8,549.8c-0.6-0.6-2.6-0.8-3.4-1.6c0,0,0,0,0,0c-0.8-0.8-1.4-2.1-1.9-3c-4.5-8.6-9.2-17.2-14.7-25.4
		c-3-4.5-6.3-11.4-10.7-14.7c-3.2-2.4-7.5-3.3-11.3-4c-2.6-0.5-4.6-1.7-6.9-2.3c-5-1.4-16.2,1-16.4-7.3c-0.1-3,2.2-5.7,2.3-8.7
		c0.2-3.1-1.9-7.1-4.1-9.1c-3.4-3.1-9.5-3.7-14.3-3c-1.1,0.2-2.1,0.4-3,0.7c-4.4,1.4-16.1,4.9-17.3,9l0.3-0.1
		c0.4-0.5,0.9-0.9,1.4-1.3c0.5,0.1,0.4,0.4,0.7,0.7l-2.1,0.6c-2.2,2.6-3.2,6.6-4,9.7c-1,4-0.4,8.7-0.2,13c5.7-0.6,7.6,4.2,9.5,8.4
		c1.1,2.5,2.8,4.8,3.8,7.3c1,2.4,0.1,5.1,0.9,7.4c0.8,2.3,3.2,4.3,4.3,6.6c1.2,2.5,1.5,4.7,3,7c2.8,4.4,6.3,8.4,10.1,12
		c3.1,2.9,5.8,1.9,10,2.1c7,0.3,13.2,0.2,20.3-0.3c3.3-0.2,6-1.3,9.3-1.7c5.1-0.7,10.6-0.2,15.7-0.2c4.5,0,9.2-0.8,13.6-0.3
		C708.4,551.3,714.8,553,711.8,549.8z M621.9,476c0.5,0.1,0.4,0.4,0.7,0.7l-2.1,0.6C620.9,476.8,621.4,476.4,621.9,476z"/>
	<path class="st2" d="M691.7,520.2c-3-4.5-6.3-11.4-10.7-14.7c-3.2-2.4-7.5-3.3-11.3-4c-2.6-0.5-4.6-1.7-6.9-2.3
		c-5-1.4-16.2,1-16.4-7.3c-0.1-3,2.2-5.7,2.3-8.7c0.2-3.1-1.9-7.1-4.1-9.1c-3.4-3.1-9.5-3.7-14.3-3c-4.6,1.7-9.5,4.1-10.2,6.6
		l0.3-0.1c0.4-0.5,0.9-0.9,1.4-1.3c0.5,0.1,0.4,0.4,0.7,0.7c0,0-2.1,0.6-2.1,0.6c-3.9,1.1-5.7,12.8-1.9,14.5
		c3.2,1.5,15.8-1.1,16,4.8c0.1,4-12.3,0.8-15.5,2.7c0.1,0.6,0.5,1.1,0.9,1.6c0.6,0.8,2.2,1.2,2.9,2c1.3,1.4,2.1,3.6,2.9,5.4
		c1.1,2.5,2.8,4.8,3.8,7.3c1,2.4,0.1,5.1,0.9,7.4c0.8,2.3,3.2,4.3,4.3,6.6c1.2,2.5,1.5,4.7,3,7c2.8,4.4,6.3,8.4,10.1,12
		c3.1,2.9,5.8,1.9,10,2.1c7,0.3,13.2,0.2,20.3-0.3c3.3-0.2,6-1.3,9.3-1.7c5.1-0.7,10.6-0.2,15.7-0.2c1.7,0,3.4-0.1,5.1-0.2
		c-0.8-0.8-1.4-2.1-1.9-3C701.8,537,697.2,528.4,691.7,520.2z"/>
	<path class="st5" d="M619.8,473.4l-25.7,12.2v11.3c0,0,22.1,10.8,23.6,16.9C619.3,519.9,619.8,473.4,619.8,473.4z"/>
	<path class="st6" d="M622.7,514c0,0,3.4-41.5-2.9-40.5c-6.3,1-5,31-5,40.3L622.7,514z"/>
	<path class="st8" d="M638.1,528.1c1.1,1.4,1.5,4.7,3,5.4c2.4,1.1,3.7-1.4,4.1-3.3c3.7-0.8,7.9,2.5,11.3,2.3
		c2.7-0.2,5.9-5.7,8.7-3.3c0.8-0.5,1.6-1.5,2-2.4c-1.4-2.4-5-9.1-8.4-9c-1.1,0-3.4,2.1-4.7,2.7c-1.6,0.8-3.8,1.9-5.7,2.6
		c-2,0.7-4,0.6-5.7-0.5c-1.4-0.9-2.1-3.9-4.3-2.5c-3.5,2.1,1,8.6,1.8,10.4"/>
	<path class="st8" d="M668.8,519.8c-1.4,2.7,2.8,8.7,6.1,8.8c0.1-1.2,1.2-2.2,0.9-3.7c2.3,0.5,3.4,2.8,6,3.5
		c2.2,0.7,4.1,0.1,6.3-0.2c0.7-3-1.2-5-1.5-7.8c-2.7,0.1-5.2,0.1-6.9-2.1c-0.2,0.7-1.7,1.9-2,2.6c-3.1-0.4-6-3.8-8.9-1.5
		c-0.4,0.8,0.2,0.8,0.4,1.4"/>
	<path class="st8" d="M632.8,528.3c-0.6-2.4-1.9-12.2-5.4-7.5c-1.8,2.4,2.1,11.3,3,14.4c0.5,0.2,0.9,0.4,1.4,0.6
		c2.1-2.1,0.5-5.7,0.5-8.5"/>
	<path class="st8" d="M624.3,486.3c-0.1,0.1-0.2,0.2-0.3,0.3c1.4-0.3,2.2-0.7,3.5,0.2c0.8,0.5,1.2,1.5,2,2c0.9,0.6,2,0.4,2.7,1
		c0.8,0.7,0.7,1.9-0.2,2.2c-0.7,0.2-2-0.8-2.8-1c-1.3-0.3-1.3-0.1-2.3-0.9c-0.8-0.7-3.3-1.8-2.7-3.1"/>
	<path class="st8" d="M631.1,486.4c2.3,0.3,2.8,3,4.8,3.6c0.1-0.6-0.2-1.2-0.4-1.6c1.2-0.1,1.8,0,2.7,0.4c0.6,0.3,1.9,2,2.5,0.7
		c0.6-1.2-3.6-4-4.5-3.5c-0.3-0.7-2.3-2.2-3.1-2.3c-2.3-0.3-0.8,1.1-0.8,2.3c-0.5,0.1-0.6,0.4-1,0.5c0.1,0.2,0.2,0.2,0.4,0.3"/>
	<path class="st8" d="M629.8,552.8c-0.3-0.1-0.6,0-0.9-0.1c-0.3-3.6,6-7.9,8.9-8.6c3.5-0.9,6.7,3.3,9.1,0.2c1.4-1.9-0.1-5.9,3.9-4.5
		c1.7,0.6,2.2,2.5,3.3,3.7c1.5,1.6,2.4,1.7,4.3,2.6c3.8,1.7,8.2,3.5,8.8-2.5c0.1-0.6,4.7,0.4,5.4-0.1c1.5-1,0.8-3.8,2.3-4.6
		c3.4-1.7,3.4,6.9,6.3,8c4.5,1.6,4.5-4.1,7-5.6c1.9-1.1,8-0.8,10,0.2c3.9,1.8,2.7,4,6.4,1.4c1.3-0.9,0.6-2.3,3.3-1.7
		c1.4,0.3,3.3,2.5,4.3,3.7c1.5,1.7,3.4,5,2.3,7.6c-0.2,0.6-2,1.8-2.6,2.7c-1.1,1.7-0.8,2.7-2.7,3.9c-4.7,3-12,0.4-17-0.3
		c-2-0.3-6.1-1.8-8-1c-2.4,1-1.9,3.5-5.4,4c-5.8,0.9-11.9,0.9-17.7,1.3c-4.8,0.3-9.1,5.2-13.8,3.3c-1.9-0.8-3-2.1-5.2-2.6
		c-1.3-0.3-2.5,0.2-3.7-0.6c-0.7-0.5-0.5-1.7-1.3-2.1c-1.8-0.9-4.1,0.3-5.7-1.2c-1.7-1.6-0.6-2.7-1-4.7c0,0.2-0.6-4.5-1.5-3
		c0.4-0.6,1-1.3,1.7-1.6"/>
</g>
</svg>
