<?xml version="1.0" encoding="utf-8"?>
<!-- Generator: Adobe Illustrator 19.2.1, SVG Export Plug-In . SVG Version: 6.00 Build 0)  -->
<svg version="1.1" id="Layer_1" xmlns="http://www.w3.org/2000/svg" xmlns:xlink="http://www.w3.org/1999/xlink" x="0px" y="0px"
	 viewBox="0 0 840.7 469.2" style="enable-background:new 0 0 840.7 469.2;" xml:space="preserve">
<style type="text/css">
	.st0{fill:#265B82;}
	.st1{display:none;fill:#09706B;}
	.st2{display:none;fill:#0B4F99;}
	.st3{display:none;fill:#247FD1;}
	.st4{display:none;fill:#188C83;}
	.st5{display:none;fill:#29A599;}
	.st6{display:none;fill:#23BBEA;}
	.st7{fill:#3185AF;}
	.st8{fill:#3BA6D1;}
</style>
<g id="Layer_1_1_">
	<path class="st0" d="M-1.4,165c164.9,0,257.1-165,422-165s257.1,165,422.1,165c0,225,0,304.2,0,304.2H-1.4
		C-1.4,469.2-1.4,462.8-1.4,165z"/>
	<circle class="st1" cx="-272.9" cy="-190" r="30.5"/>
	<circle class="st2" cx="-101.9" cy="-124.1" r="30.5"/>
	<circle class="st3" cx="-132.4" cy="-124.1" r="30.5"/>
	<circle class="st4" cx="-253.4" cy="-190" r="30.5"/>
	<circle class="st5" cx="-231.4" cy="-196.5" r="30.5"/>
	<circle class="st6" cx="-162.9" cy="-121.9" r="30.5"/>
</g>
<g id="Layer_2">
	<path class="st0" d="M-469.3-132.6c45.6,0,71-45.6,116.6-45.6s71,45.6,116.6,45.6c0,62.1,0,84,0,84h-233.2
		C-469.3-48.6-469.3-50.4-469.3-132.6z"/>
	<path class="st7" d="M-399.2-124.6c45.6,0,71-45.6,116.6-45.6s71,45.6,116.6,45.6c0,62.1,0,84,0,84h-233.1
		C-399.2-40.6-399.2-42.4-399.2-124.6z"/>
	<path class="st8" d="M-314.8-132.6c45.6,0,71-45.6,116.6-45.6s71,45.6,116.6,45.6c0,62.1,0,84,0,84h-233.1
		C-314.8-48.6-314.8-50.4-314.8-132.6z"/>
</g>
</svg>
