<?xml version="1.0" encoding="utf-8"?>
<!-- Generator: Adobe Illustrator 19.2.1, SVG Export Plug-In . SVG Version: 6.00 Build 0)  -->
<svg version="1.1" id="Layer_1" xmlns="http://www.w3.org/2000/svg" xmlns:xlink="http://www.w3.org/1999/xlink" x="0px" y="0px"
	 viewBox="0 0 588.2 588.2" style="enable-background:new 0 0 588.2 588.2;" xml:space="preserve">
<style type="text/css">
	.st0{display:none;}
	.st1{fill:#703318;}
	.st2{display:inline;opacity:0.5;fill:none;stroke:#000000;stroke-miterlimit:10;enable-background:new    ;}
	.st3{display:inline;fill:none;stroke:#000000;stroke-miterlimit:10;}
	.st4{fill:#5B2814;}
	.st5{fill:#CCAA19;}
	.st6{fill:#F7F7F7;}
</style>
<g id="Layer_2_1_" class="st0">
</g>
<g id="Layer_1_2_">
	<circle class="st1" cx="294.1" cy="294.1" r="294.1"/>
	<g id="Layer_2" class="st0">
	</g>
	<g id="Layer_1_1_" class="st0">
		<line class="st2" x1="95.7" y1="468.2" x2="516.6" y2="468.2"/>
		<line class="st2" x1="105.7" y1="458.7" x2="516.6" y2="458.7"/>
		<line class="st2" x1="96.1" y1="468.6" x2="96.1" y2="301.7"/>
		<path class="st2" d="M289.6,468.2c10.6,0,21.4-1.8,31.3-5.7c21-8.2,30.4-37.5,19.7-56.7c-5-9.1-18.7-10.4-25-1.5
			c-5.3,7.4-1.6,20.8,8.2,21.8c13,1.3,14.5-17.9,1-14.7"/>
		<path class="st2" d="M330.7,412.5c11.8,10.4,2.1,26-6.8,34.5c-13.8,13.2-31.1,11.9-48,12.5"/>
		<path class="st2" d="M320.9,398.8c12.5-11.9,31.8-11,47.7-11c26.9,0,46,0.8,68.7-16.4"/>
		<path class="st2" d="M338.4,402.8c11.9-6,26.9-5.4,39.7-5.4c26.9,0,46,0.8,68.7-16.4"/>
		<path class="st2" d="M447.1,371.4c2.5-8.8,13.8-2.1,12.4,5.4c-2.5,12.4-40.1-4-7.5-22.4c19.8-12.4,61.6-41.5,64.6-43.1
			c11.4-5.7,26.5-9.4,36.2-2.1c9.5,7.2,6.1,28.9-7.8,21.4c-5-2.7-6.9-9.3-1.7-12.7c6.1-4,12.2,4,5.6,6.6"/>
		<path class="st2" d="M446.3,373.4c1.3-2.3,3.6-4.8,7.1-7.3c1.4-1,3-2,4.7-3c1.2-0.7,2.4-1.5,3.8-2.4c20.9-13.4,58-39.2,60.8-40.7
			c7-3.5,15.3-6.3,23-6.2"/>
		<path class="st2" d="M552.8,331.1c1.6,4.3,0.8,11.2,1,15.9c0.3,5.3,0,10.7,0,16c0,26.6-0.1,53.5-7.7,79.2
			c-14.4,48.5-51.1,87.5-92.9,114.4c-11.6,7.5-24,14.6-36.7,20.1c-17.3,7.6-38.1,14-57.1,15.7c-19.8,1.7-279.8,4.5-285.6,1.5
			c-18.9-9.8-24.9-30.6-29.2-49.9c-4.8-21.7-10.1-43.9-24.7-61.4c-5.2-6.2-12.2-11-16.1-18.2"/>
		<path class="st2" d="M545,326.5c1.6,4.3,0.8,11.2,1,15.9c0.3,5.3,0,10.7,0,16c0,26.6-0.1,53.5-7.7,79.2
			c-14.4,48.5-51.1,87.5-92.9,114.4c-11.6,7.5-24,14.6-36.7,20.1c-17.3,7.6-38.1,14-57.1,15.7c-19.8,1.7-279.8,4.5-285.6,1.5
			c-18.9-9.8-24.9-30.6-29.2-49.9C32,517.7,26.7,495.5,12.1,478C6.9,471.8-0.1,467-4,459.8"/>
		<path class="st2" d="M512.4,487.2c-16.2,22.8-36.6,42.6-59.3,57.2c-11.6,7.5-24,14.6-36.7,20.1c-17.3,7.6-38.1,14-57.1,15.7
			c-19.8,1.7-279.8,4.5-285.6,1.5c-18.9-9.8-24.9-30.6-29.2-49.9c-4.8-21.7-10.1-43.9-24.7-61.4c-5.2-6.2-12.2-11-16.1-18.2"/>
		<line class="st2" x1="53.3" y1="583.1" x2="419.8" y2="583.1"/>
		<path class="st2" d="M546.1,341.4c1.6-10.8,20.2-16.5,21.7-2.7c0.6,5.6-1.5,12.1-8.4,11.7c-5.1-0.3-8-10.2-1.7-11.1
			c2.2-0.3,4.8,3.5,1.7,4.4"/>
		<path class="st2" d="M533.8,316.1c0,0,157-35.9,173-39.9c13-0.8,12.8,6.4,0,10.9c-23.1,5.9-173,44-173,44V316.1z"/>
		<polygon class="st2" points="533.8,316.1 602,300.4 603.3,313.4 533.8,331.1 		"/>
		<path class="st3" d="M105.7,468.2v-95.6H5.5c0,0-30.2,29,0,95.6"/>
	</g>
	<g>
		<path class="st4" d="M294.1,126.3c-92.6,0-167.7,75.1-167.7,167.7s75.1,167.7,167.7,167.7s167.7-75,167.7-167.6
			S386.7,126.3,294.1,126.3z M294.1,444.1c-82.9,0-150.1-67.2-150.1-150S211.2,144,294.1,144s150.1,67.2,150.1,150.1
			S377,444.1,294.1,444.1z"/>
		<g>
			<path class="st4" d="M169.1,386.6l-38.2,22.1c-4.2,2.4-9.6,1-12.1-3.2l-34.4,19.9c-4.2,2.4-9.6,1-12.1-3.2
				c-2.4-4.2-1-9.6,3.2-12.1l34.4-19.9c-2.4-4.2-1-9.6,3.2-12.1l38.2-22.1c4.2-2.4,9.6-1,12.1,3.2l57.3-33.1
				c-2.4-4.2-1-9.6,3.2-12.1l22.9-13.2l17.7,30.6l-22.9,13.2c-4.2,2.4-9.6,1-12.1-3.2l-57.3,33.1
				C174.8,378.7,173.4,384.1,169.1,386.6z"/>
			<path class="st4" d="M419.1,201.5l38.2-22.1c4.2-2.4,9.6-1,12.1,3.2l34.4-19.9c4.2-2.4,9.6-1,12.1,3.2c2.4,4.2,1,9.6-3.2,12.1
				l-34.5,20c2.4,4.2,1,9.6-3.2,12.1l-38.3,22c-4.2,2.4-9.6,1-12.1-3.2L367.3,262c2.4,4.2,1,9.6-3.2,12.1l-22.9,13.2l-17.7-30.6
				l22.9-13.2c4.2-2.4,9.6-1,12.1,3.2l57.3-33.1C413.4,209.4,414.8,204,419.1,201.5z"/>
			<path class="st4" d="M311.8,139.6V95.5c0-4.9-4-8.8-8.8-8.8V47c0-4.9-3.9-8.8-8.8-8.8s-8.8,3.9-8.8,8.8v39.7
				c-4.9,0-8.8,4-8.8,8.8v44.1c0,4.9,4,8.8,8.8,8.8v66.2c-4.9,0-8.8,4-8.8,8.8v26.5h35.3v-26.5c0-4.9-4-8.8-8.8-8.8v-66.2
				C307.8,148.4,311.8,144.4,311.8,139.6z"/>
			<path class="st4" d="M276.4,448.5v44.1c0,4.9,4,8.8,8.8,8.8v39.7c0,4.9,3.9,8.8,8.8,8.8s8.8-3.9,8.8-8.8v-39.7
				c4.9,0,8.8-4,8.8-8.8v-44.1c0-4.9-4-8.8-8.8-8.8v-66.2c4.9,0,8.8-4,8.8-8.8v-26.5h-35.3v26.5c0,4.9,4,8.8,8.8,8.8v66.2
				C280.4,439.7,276.4,443.7,276.4,448.5z"/>
			<path class="st4" d="M419.1,386.6l38.2,22.1c4.2,2.4,9.6,1,12.1-3.2l34.4,19.9c4.2,2.4,9.6,1,12.1-3.2c2.4-4.2,1-9.6-3.2-12.1
				l-34.5-20c2.4-4.2,1-9.6-3.2-12.1l-38.2-22.1c-4.2-2.4-9.6-1-12.1,3.2l-57.4-33c2.4-4.2,1-9.6-3.2-12.1l-22.9-13.2l-17.7,30.6
				l22.9,13.2c4.2,2.4,9.6,1,12.1-3.2l57.3,33.1C413.4,378.7,414.8,384.1,419.1,386.6z"/>
			<path class="st4" d="M169.1,201.5l-38.2-22.1c-4.2-2.4-9.6-1-12.1,3.2l-34.4-19.9c-4.2-2.4-9.6-1-12.1,3.2
				c-2.4,4.2-1,9.6,3.2,12.1l34.4,19.9c-2.4,4.2-1,9.6,3.2,12.1l38.2,22.1c4.2,2.4,9.6,1,12.1-3.2l57.3,33.1
				c-2.4,4.2-1,9.6,3.2,12.1l22.9,13.2l17.7-30.6l-22.9-13.2c-4.2-2.4-9.6-1-12.1,3.2l-57.3-33.1C174.8,209.4,173.4,204,169.1,201.5
				z"/>
		</g>
		<path class="st4" d="M294.1,488.3c-107.1,0-194.2-87.1-194.2-194.2S187,99.9,294.1,99.9S488.3,187,488.3,294.1
			S401.2,488.3,294.1,488.3z M294.1,126.3c-92.5,0-167.7,75.2-167.7,167.7s75.2,167.7,167.7,167.7s167.7-75.2,167.7-167.6
			S386.6,126.3,294.1,126.3z"/>
		<path class="st4" d="M294.1,347c-29.2,0-53-23.8-53-53s23.8-53,53-53s53,23.8,53,53S323.3,347,294.1,347z M294.1,276.4
			c-9.7,0-17.7,7.9-17.7,17.7s7.9,17.7,17.7,17.7s17.7-7.9,17.7-17.7S303.8,276.4,294.1,276.4z"/>
		<path class="st4" d="M294.1,258.7c-19.5,0-35.3,15.8-35.3,35.3s15.8,35.3,35.3,35.3s35.3-15.8,35.3-35.3S313.6,258.7,294.1,258.7z
			 M294.1,311.7c-9.7,0-17.7-7.9-17.7-17.7s7.9-17.7,17.7-17.7s17.7,7.9,17.7,17.7S303.8,311.7,294.1,311.7z"/>
	</g>
	<circle class="st1" cx="294.1" cy="294.1" r="294.1"/>
	<g>
		<path class="st5" d="M294.1,126.3c-92.6,0-167.7,75.1-167.7,167.7s75.1,167.7,167.7,167.7s167.7-75,167.7-167.6
			S386.7,126.3,294.1,126.3z M294.1,444.1c-82.9,0-150.1-67.2-150.1-150S211.2,144,294.1,144s150.1,67.2,150.1,150.1
			S377,444.1,294.1,444.1z"/>
		<g>
			<path class="st5" d="M169.1,386.6l-38.2,22.1c-4.2,2.4-9.6,1-12.1-3.2l-34.4,19.9c-4.2,2.4-9.6,1-12.1-3.2
				c-2.4-4.2-1-9.6,3.2-12.1l34.4-19.9c-2.4-4.2-1-9.6,3.2-12.1l38.2-22.1c4.2-2.4,9.6-1,12.1,3.2l57.3-33.1
				c-2.4-4.2-1-9.6,3.2-12.1l22.9-13.2l17.7,30.6l-22.9,13.2c-4.2,2.4-9.6,1-12.1-3.2l-57.3,33.1
				C174.8,378.7,173.4,384.1,169.1,386.6z"/>
			<path class="st5" d="M419.1,201.5l38.2-22.1c4.2-2.4,9.6-1,12.1,3.2l34.4-19.9c4.2-2.4,9.6-1,12.1,3.2c2.4,4.2,1,9.6-3.2,12.1
				l-34.5,20c2.4,4.2,1,9.6-3.2,12.1l-38.3,22c-4.2,2.4-9.6,1-12.1-3.2L367.3,262c2.4,4.2,1,9.6-3.2,12.1l-22.9,13.2l-17.7-30.6
				l22.9-13.2c4.2-2.4,9.6-1,12.1,3.2l57.3-33.1C413.4,209.4,414.8,204,419.1,201.5z"/>
			<path class="st5" d="M311.8,139.6V95.5c0-4.9-4-8.8-8.8-8.8V47c0-4.9-3.9-8.8-8.8-8.8s-8.8,3.9-8.8,8.8v39.7
				c-4.9,0-8.8,4-8.8,8.8v44.1c0,4.9,4,8.8,8.8,8.8v66.2c-4.9,0-8.8,4-8.8,8.8v26.5h35.3v-26.5c0-4.9-4-8.8-8.8-8.8v-66.2
				C307.8,148.4,311.8,144.4,311.8,139.6z"/>
			<path class="st5" d="M276.4,448.5v44.1c0,4.9,4,8.8,8.8,8.8v39.7c0,4.9,3.9,8.8,8.8,8.8s8.8-3.9,8.8-8.8v-39.7
				c4.9,0,8.8-4,8.8-8.8v-44.1c0-4.9-4-8.8-8.8-8.8v-66.2c4.9,0,8.8-4,8.8-8.8v-26.5h-35.3v26.5c0,4.9,4,8.8,8.8,8.8v66.2
				C280.4,439.7,276.4,443.7,276.4,448.5z"/>
			<path class="st5" d="M419.1,386.6l38.2,22.1c4.2,2.4,9.6,1,12.1-3.2l34.4,19.9c4.2,2.4,9.6,1,12.1-3.2c2.4-4.2,1-9.6-3.2-12.1
				l-34.5-20c2.4-4.2,1-9.6-3.2-12.1l-38.2-22.1c-4.2-2.4-9.6-1-12.1,3.2l-57.4-33c2.4-4.2,1-9.6-3.2-12.1l-22.9-13.2l-17.7,30.6
				l22.9,13.2c4.2,2.4,9.6,1,12.1-3.2l57.3,33.1C413.4,378.7,414.8,384.1,419.1,386.6z"/>
			<path class="st5" d="M169.1,201.5l-38.2-22.1c-4.2-2.4-9.6-1-12.1,3.2l-34.4-19.9c-4.2-2.4-9.6-1-12.1,3.2
				c-2.4,4.2-1,9.6,3.2,12.1l34.4,19.9c-2.4,4.2-1,9.6,3.2,12.1l38.2,22.1c4.2,2.4,9.6,1,12.1-3.2l57.3,33.1
				c-2.4,4.2-1,9.6,3.2,12.1l22.9,13.2l17.7-30.6l-22.9-13.2c-4.2-2.4-9.6-1-12.1,3.2l-57.3-33.1C174.8,209.4,173.4,204,169.1,201.5
				z"/>
		</g>
		<path class="st5" d="M294.1,488.3c-107.1,0-194.2-87.1-194.2-194.2S187,99.9,294.1,99.9S488.3,187,488.3,294.1
			S401.2,488.3,294.1,488.3z M294.1,126.3c-92.5,0-167.7,75.2-167.7,167.7s75.2,167.7,167.7,167.7s167.7-75.2,167.7-167.6
			S386.6,126.3,294.1,126.3z"/>
		<path class="st5" d="M294.1,347c-29.2,0-53-23.8-53-53s23.8-53,53-53s53,23.8,53,53S323.3,347,294.1,347z M294.1,276.4
			c-9.7,0-17.7,7.9-17.7,17.7s7.9,17.7,17.7,17.7s17.7-7.9,17.7-17.7S303.8,276.4,294.1,276.4z"/>
		<path class="st5" d="M294.1,258.7c-19.5,0-35.3,15.8-35.3,35.3s15.8,35.3,35.3,35.3s35.3-15.8,35.3-35.3S313.6,258.7,294.1,258.7z
			 M294.1,311.7c-9.7,0-17.7-7.9-17.7-17.7s7.9-17.7,17.7-17.7s17.7,7.9,17.7,17.7S303.8,311.7,294.1,311.7z"/>
	</g>
	<circle class="st1" cx="294.1" cy="294.1" r="294.1"/>
	<g>
		<path class="st6" d="M294.1,126.3c-92.6,0-167.7,75.1-167.7,167.7s75.1,167.7,167.7,167.7s167.7-75,167.7-167.6
			S386.7,126.3,294.1,126.3z M294.1,444.1c-82.9,0-150.1-67.2-150.1-150S211.2,144,294.1,144s150.1,67.2,150.1,150.1
			S377,444.1,294.1,444.1z"/>
		<g>
			<path class="st6" d="M169.1,386.6l-38.2,22.1c-4.2,2.4-9.6,1-12.1-3.2l-34.4,19.9c-4.2,2.4-9.6,1-12.1-3.2
				c-2.4-4.2-1-9.6,3.2-12.1l34.4-19.9c-2.4-4.2-1-9.6,3.2-12.1l38.2-22.1c4.2-2.4,9.6-1,12.1,3.2l57.3-33.1
				c-2.4-4.2-1-9.6,3.2-12.1l22.9-13.2l17.7,30.6l-22.9,13.2c-4.2,2.4-9.6,1-12.1-3.2l-57.3,33.1
				C174.8,378.7,173.4,384.1,169.1,386.6z"/>
			<path class="st6" d="M419.1,201.5l38.2-22.1c4.2-2.4,9.6-1,12.1,3.2l34.4-19.9c4.2-2.4,9.6-1,12.1,3.2c2.4,4.2,1,9.6-3.2,12.1
				l-34.5,20c2.4,4.2,1,9.6-3.2,12.1l-38.3,22c-4.2,2.4-9.6,1-12.1-3.2L367.3,262c2.4,4.2,1,9.6-3.2,12.1l-22.9,13.2l-17.7-30.6
				l22.9-13.2c4.2-2.4,9.6-1,12.1,3.2l57.3-33.1C413.4,209.4,414.8,204,419.1,201.5z"/>
			<path class="st6" d="M311.8,139.6V95.5c0-4.9-4-8.8-8.8-8.8V47c0-4.9-3.9-8.8-8.8-8.8s-8.8,3.9-8.8,8.8v39.7
				c-4.9,0-8.8,4-8.8,8.8v44.1c0,4.9,4,8.8,8.8,8.8v66.2c-4.9,0-8.8,4-8.8,8.8v26.5h35.3v-26.5c0-4.9-4-8.8-8.8-8.8v-66.2
				C307.8,148.4,311.8,144.4,311.8,139.6z"/>
			<path class="st6" d="M276.4,448.5v44.1c0,4.9,4,8.8,8.8,8.8v39.7c0,4.9,3.9,8.8,8.8,8.8s8.8-3.9,8.8-8.8v-39.7
				c4.9,0,8.8-4,8.8-8.8v-44.1c0-4.9-4-8.8-8.8-8.8v-66.2c4.9,0,8.8-4,8.8-8.8v-26.5h-35.3v26.5c0,4.9,4,8.8,8.8,8.8v66.2
				C280.4,439.7,276.4,443.7,276.4,448.5z"/>
			<path class="st6" d="M419.1,386.6l38.2,22.1c4.2,2.4,9.6,1,12.1-3.2l34.4,19.9c4.2,2.4,9.6,1,12.1-3.2c2.4-4.2,1-9.6-3.2-12.1
				l-34.5-20c2.4-4.2,1-9.6-3.2-12.1l-38.2-22.1c-4.2-2.4-9.6-1-12.1,3.2l-57.4-33c2.4-4.2,1-9.6-3.2-12.1l-22.9-13.2l-17.7,30.6
				l22.9,13.2c4.2,2.4,9.6,1,12.1-3.2l57.3,33.1C413.4,378.7,414.8,384.1,419.1,386.6z"/>
			<path class="st6" d="M169.1,201.5l-38.2-22.1c-4.2-2.4-9.6-1-12.1,3.2l-34.4-19.9c-4.2-2.4-9.6-1-12.1,3.2
				c-2.4,4.2-1,9.6,3.2,12.1l34.4,19.9c-2.4,4.2-1,9.6,3.2,12.1l38.2,22.1c4.2,2.4,9.6,1,12.1-3.2l57.3,33.1
				c-2.4,4.2-1,9.6,3.2,12.1l22.9,13.2l17.7-30.6l-22.9-13.2c-4.2-2.4-9.6-1-12.1,3.2l-57.3-33.1C174.8,209.4,173.4,204,169.1,201.5
				z"/>
		</g>
		<path class="st6" d="M294.1,488.3c-107.1,0-194.2-87.1-194.2-194.2S187,99.9,294.1,99.9S488.3,187,488.3,294.1
			S401.2,488.3,294.1,488.3z M294.1,126.3c-92.5,0-167.7,75.2-167.7,167.7s75.2,167.7,167.7,167.7s167.7-75.2,167.7-167.6
			S386.6,126.3,294.1,126.3z"/>
		<path class="st6" d="M294.1,347c-29.2,0-53-23.8-53-53s23.8-53,53-53s53,23.8,53,53S323.3,347,294.1,347z M294.1,276.4
			c-9.7,0-17.7,7.9-17.7,17.7s7.9,17.7,17.7,17.7s17.7-7.9,17.7-17.7S303.8,276.4,294.1,276.4z"/>
		<path class="st6" d="M294.1,258.7c-19.5,0-35.3,15.8-35.3,35.3s15.8,35.3,35.3,35.3s35.3-15.8,35.3-35.3S313.6,258.7,294.1,258.7z
			 M294.1,311.7c-9.7,0-17.7-7.9-17.7-17.7s7.9-17.7,17.7-17.7s17.7,7.9,17.7,17.7S303.8,311.7,294.1,311.7z"/>
	</g>
</g>
</svg>
