<?xml version="1.0" encoding="utf-8"?>
<!-- Generator: Adobe Illustrator 19.2.0, SVG Export Plug-In . SVG Version: 6.00 Build 0)  -->
<svg version="1.1" id="Layer_1" xmlns="http://www.w3.org/2000/svg" xmlns:xlink="http://www.w3.org/1999/xlink" x="0px" y="0px"
	 viewBox="0 0 633.9 534.2" style="enable-background:new 0 0 633.9 534.2;" xml:space="preserve">
<style type="text/css">
	.st0{display:none;}
	.st1{display:inline;}
	.st2{clip-path:url(#SVGID_2_);fill:url(#SVGID_3_);}
	.st3{display:inline;fill:#AA6118;}
	.st4{display:inline;fill:#2D1102;}
	.st5{fill:#E0962B;}
	.st6{fill:#2D1102;}
	.st7{display:inline;fill:#49200E;}
	.st8{fill:#49200E;}
	.st9{display:inline;fill:#591E05;}
	.st10{display:inline;fill:#D1D0CF;}
	.st11{fill:#704C0D;}
	.st12{fill:#493009;}
	.st13{fill:#506D18;}
	.st14{fill:#3E5114;}
	.st15{display:inline;opacity:0.5;fill:#D1D0CF;enable-background:new    ;}
	.st16{fill:#194438;}
	.st17{fill:#183F32;}
	.st18{fill:#BAB7B6;}
	.st19{fill:#C69018;}
	.st20{fill:#BC8519;}
	.st21{fill:#C16D4C;}
	.st22{fill:#B76349;}
	.st23{fill:#AAA9A9;}
	.st24{fill:#77177A;}
	.st25{fill:#69166D;}
	.st26{opacity:0.46;fill:#EDEDED;enable-background:new    ;}
	.st27{fill:#E8782D;}
	.st28{fill:#BF165B;}
	.st29{fill:#F2F2F2;}
	.st30{fill:#EA6A13;}
	.st31{opacity:0.33;fill:#FCAD77;enable-background:new    ;}
	.st32{fill:#AF8D71;}
	.st33{fill:#A85EAA;}
	.st34{fill:#23AF94;}
	.st35{display:inline;opacity:0.26;}
	.st36{fill:#D1D1D1;}
	.st37{fill:#EFCB1B;}
	.st38{fill:#EDC314;}
	.st39{fill:#FF812C;}
	.st40{fill:#595953;}
	.st41{opacity:0.5;fill:#D1D0CF;enable-background:new    ;}
	.st42{fill:#EFD8D0;}
	.st43{display:inline;fill:#825527;}
</style>
<g id="Layer_1_1_" class="st0">
</g>
<g id="Layer_11" class="st0">
	<g class="st1">
		<g>
			<defs>
				<rect id="SVGID_1_" x="-177.7" y="-16.8" width="960" height="560"/>
			</defs>
			<clipPath id="SVGID_2_">
				<use xlink:href="#SVGID_1_"  style="overflow:visible;"/>
			</clipPath>
			
				<linearGradient id="SVGID_3_" gradientUnits="userSpaceOnUse" x1="-93.1904" y1="-203.6391" x2="-92.6052" y2="-203.6391" gradientTransform="matrix(0 559.4516 559.4516 0 114228.5156 52341.5547)">
				<stop  offset="0" style="stop-color:#141123"/>
				<stop  offset="0.4839" style="stop-color:#2D214D"/>
				<stop  offset="1" style="stop-color:#463B6B"/>
			</linearGradient>
			<rect x="-177.7" y="-16.8" class="st2" width="960" height="560"/>
		</g>
	</g>
</g>
<g id="Layer_9" class="st0">
	<path class="st3" d="M531.4,720.5h-514v-177c0-38.1,30.9-69,69-69h375.5c38.4,0,69.5,31.1,69.5,69.5V720.5z"/>
	<path class="st3" d="M1648.8,324.3H1256v-119c0-38.1,30.9-69,69-69h254.3c38.4,0,69.5,31.1,69.5,69.5L1648.8,324.3L1648.8,324.3z"
		/>
	<path class="st3" d="M1596.8,171.5h-288.9v-69.3c0-38.1,30.9-69,69-69h150.4c38.4,0,69.5,31.1,69.5,69.5V171.5z"/>
</g>
<g id="Layer_10" class="st0">
	<path class="st4" d="M1783.9,568.9h-663c-6.6,0-12-5.4-12-12v-27.5c0-6.6,5.4-12,12-12h663c6.6,0,12,5.4,12,12v27.5
		C1795.9,563.5,1790.5,568.9,1783.9,568.9z"/>
	<path class="st4" d="M774.8-581.5c-0.2,8.5-7.7,6.4-7.7,6.4c-7.4-1.4-1.1-29.3-1.1-29.3c-4.9,10.3-10.6,0-10.6,0
		c-10.6-6.1-4,30.9-4,30.9c5.1,21.6-8,23.7-8,23.7c-12.6,1.6-6.3-56.4-6.3-56.4c-3.1-12.5-11.7-8.4-11.7-8.4
		c4.6,12.1-3.1,24.1-3.1,24.1c-27.7,23.9-14.6-29.8-14.6-29.8c-1.1-9.6-10.3-3.8-10.3-3.8c1.4,16.4-22.3,11.6-22.3,11.6
		c5.4,16.4-15.7,11.6-15.7,11.6c4.8,0.1,7,16,7.3,18.7c1,9.2,1.5,18.5,2,27.8c0.3,6.8-0.1,15-8.5,18.8c-18.7,8.4-22-49.7-22.2-55.1
		c-0.2-4.1,2.5-17.3-5.3-18.2c-4.7-0.5-6,11.4-8.7,14.6c-2.9,3.5-11.9,9.6-16.7,5.3c-4.7-4.1-2.2-11.4-1.4-16.2
		c0.7-4.7-2-11.4-10-11.5c-4.6-0.1-7.3,4.2-5,7.5c5.5,7.8,6.7,18.3,1.7,26.8c-2.6,4.3-9,6.2-14.6,4.6c-6.2-1.7-9.2-7-10.5-11.8
		c-0.8-3.1,0.7-11.5-5-11.8c-14.5-0.7-5,17.4-12.5,21.4c-9.4,5-18.8,3.2-19.2-6.5c-0.1-2.6,0.7-6.7-3.8-7.7
		c-10.2-2.4-5.8,23.6-5.3,26.9c2,14.2,8.8,30.2-1.7,43.4c-26,10.3-17.9-71.4-29.6-74.6c-8.7-2.4-7.2,11.5-7.2,14.6
		c0.1,7.6-13.3,11-16.6,3.2c-2.1-4.9,0.6-10-0.5-14.8c-12.6-10.8-13.9,12.1-14.2,17.6c-0.3,6.9,0,13.8,0.6,20.7
		c0.5,6.4,6.8,19.3-4.4,22.4c-13.9,3.9-14-14.2-15.1-20.4c-1.5-8.7-3.1-17.3-3-26.1c0-2.8,3.7-26.3,1.3-27.6
		c-7.9-4.4-9.1,6.3-9.5,10.1c-0.5,4.2-0.3,12.3-6,14.5c-13.5,5.2-16.5-9-17.3-16.5c-0.4-3.8,1.7-10.9-5.2-11
		c-3.6-0.1-6.4,2.4-5.7,5.4c2.6,11.1-4.9,16.2-4.9,16.2c-21.1,15.7-22.6-7.5-22.6-7.5c-15.1-5.7-8.3,23.6-8.3,23.7
		c2.5,10.9,3.4,25.2-1.1,35.8c-1.9,4.5-7.2,10.8-14.5,8.9c-5.8-1.5-6.8-8.4-7.5-12.3c-2.3-14.4-0.4-30.8,3.3-45.1
		c1.3-3.8,6.2-15.7-0.6-18.2c-8.2-3.1-4.8,11-5.1,14c-0.4,4.1-1.6,10.8-7.1,12.7c-20.3,6.8-17.2-34-17.2-34
		c-16.1-6.3-4.2,32.5-4.2,32.5c3.3,5,6.4,11.9,2,17.1c-6,7-16.9,4.4-21.2-2.1c-3.7-5.6-4.3-12.6-4.7-18.8c-0.5-9.7,0.7-19.4,2.2-29
		c-6.7,3.2-25.1,12-26,0.3c-0.2-3.1,1.8-5.8,2.3-8.8c1.6-8.1-7.8-14.9-6.3-23.2c2.4-13,20.8-18.5,34.6-21.5
		c46.8-10.1,96.4-14.3,144.6-16.9c56.3-3,112.8-2.7,169.1,0.4c52.4,2.9,108.7,4,159.6,15.6c16.4,3.7,30.2,8.1,27.8,21.3
		C778.2-625,775.4-602.5,774.8-581.5z"/>
</g>
<g id="เนื้อเค้ก3" class="st0">
	<g class="st1">
		<path class="st5" d="M-643.4-476.7v162.1v27.9c0,0,246.5,53.4,498.5,0v-27.9v-162.1H-643.4z"/>
		<path class="st6" d="M-142.9-393.5c-0.2,10-7.5,7.4-7.5,7.4c-7.2-1.6-1.1-34.2-1.1-34.2c-4.7,12-10.2,0-10.2,0
			c-10.2-7.1-3.9,36.1-3.9,36.1c5,25.2-7.7,27.6-7.7,27.6c-12.2,1.9-6.1-65.9-6.1-65.9c-3-14.6-11.3-9.8-11.3-9.8
			c4.4,14.1-3,28.2-3,28.2c-26.8,27.9-14.1-34.8-14.1-34.8c-1.1-11.2-10-4.5-10-4.5c1.4,19.1-21.6,13.5-21.6,13.5
			c5.3,19.1-15.2,13.6-15.2,13.6c4.6,0.2,6.8,18.7,7.1,21.9c0.9,10.8,1.5,21.6,1.9,32.4c0.3,8-0.1,17.5-8.2,22
			c-18.1,9.8-21.3-58-21.5-64.4c-0.2-4.8,2.4-20.3-5.2-21.3c-4.5-0.6-5.8,13.3-8.4,17.1c-2.8,4.1-11.5,11.2-16.2,6.2
			c-4.5-4.8-2.1-13.3-1.4-19c0.7-5.5-2-13.4-9.7-13.5c-4.5-0.1-7.1,4.9-4.9,8.8c5.3,9.1,6.5,21.4,1.7,31.2
			c-2.5,5.1-8.7,7.3-14.1,5.4c-6-2-8.9-8.2-10.1-13.8c-0.8-3.6,0.7-13.4-4.8-13.8c-14-0.8-4.8,20.3-12.1,25
			c-9.1,5.8-18.2,3.7-18.6-7.6c-0.1-3.1,0.6-7.8-3.7-9c-9.8-2.8-5.6,27.6-5.2,31.4c1.9,16.5,8.5,35.3-1.6,50.6
			c-25.2,12.1-17.3-83.4-28.7-87.1c-8.4-2.8-7,13.5-7,17c0.1,8.9-12.9,12.8-16.1,3.7c-2-5.8,0.5-11.7-0.5-17.3
			c-12.2-12.7-13.5,14.2-13.7,20.6c-0.3,8.1,0,16.1,0.6,24.2c0.5,7.5,6.6,22.6-4.3,26.2c-13.5,4.5-13.6-16.5-14.6-23.8
			c-1.5-10.2-3-20.2-2.9-30.5c0-3.3,3.6-30.7,1.2-32.3c-7.6-5.1-8.8,7.4-9.2,11.8c-0.4,4.9-0.2,14.4-5.8,17
			c-13.1,6-16-10.5-16.7-19.3c-0.4-4.5,1.7-12.7-5-12.9c-3.5-0.1-6.2,2.9-5.5,6.4c2.5,13-4.7,18.9-4.7,18.9
			c-20.5,18.3-21.9-8.8-21.9-8.8c-14.6-6.7-8,27.6-8,27.7c2.5,12.7,3.2,29.5-1.1,41.8c-1.8,5.3-6.9,12.6-14,10.3
			c-5.6-1.8-6.6-9.8-7.2-14.4c-2.2-16.9-0.4-36,3.2-52.6c1.2-4.4,6-18.3-0.6-21.3c-7.9-3.6-4.7,12.9-5,16.3
			c-0.4,4.8-1.6,12.6-6.9,14.8c-19.6,8-16.7-39.8-16.7-39.8c-15.6-7.3-4.1,37.9-4.1,37.9c3.2,5.8,6.2,13.9,1.9,20
			c-5.8,8.2-16.4,5.2-20.6-2.5c-3.6-6.6-4.2-14.7-4.5-21.9c-0.5-11.4,0.7-22.6,2.1-33.9c-6.4,3.8-24.3,14-25.2,0.3
			c-0.2-3.7,1.7-6.8,2.3-10.3c1.5-9.5-7.6-17.4-6.1-27.1c2.3-15.2,20.2-21.6,33.6-25.1c45.3-11.8,93.3-16.7,140.1-19.7
			c54.5-3.5,109.3-3.2,163.8,0.5c50.8,3.4,105.3,4.7,154.6,18.2c15.9,4.4,29.3,9.4,26.9,24.9C-139.6-444.4-142.4-418.2-142.9-393.5z
			"/>
	</g>
	<ellipse class="st7" cx="-395.3" cy="-474.2" rx="227.5" ry="32"/>
</g>
<g id="เนื้อเค้ก2" class="st0">
	<g class="st1">
		<g>
			<path class="st5" d="M-578.4-615.6V-496v20.6c0,0,181.9,39.4,367.8,0V-496v-119.6H-578.4z"/>
			<path class="st6" d="M-209.1-554.3c-0.1,7.3-5.5,5.5-5.5,5.5c-5.3-1.2-0.8-25.3-0.8-25.3c-3.5,8.9-7.6,0-7.6,0
				c-7.6-5.3-2.9,26.6-2.9,26.6c3.7,18.6-5.7,20.4-5.7,20.4c-9,1.4-4.5-48.6-4.5-48.6c-2.2-10.8-8.4-7.3-8.4-7.3
				c3.3,10.4-2.2,20.8-2.2,20.8c-19.8,20.6-10.4-25.7-10.4-25.7c-0.8-8.2-7.3-3.3-7.3-3.3c1,14.1-15.9,10-15.9,10
				c3.9,14.1-11.2,10-11.2,10c3.4,0.1,5,13.8,5.2,16.2c0.7,7.9,1.1,16,1.4,23.9c0.2,5.9-0.1,12.9-6.1,16.2
				c-13.4,7.2-15.7-42.8-15.9-47.5c-0.1-3.5,1.8-14.9-3.8-15.7c-3.3-0.4-4.3,9.8-6.2,12.6c-2.1,3.1-8.5,8.2-11.9,4.6
				c-3.3-3.5-1.6-9.8-1-14c0.5-4.1-1.5-9.9-7.1-10c-3.3-0.1-5.3,3.6-3.6,6.5c3.9,6.7,4.8,15.8,1.2,23.1c-1.8,3.7-6.4,5.4-10.4,4
				c-4.4-1.5-6.6-6.1-7.5-10.2c-0.6-2.6,0.5-9.9-3.5-10.2c-10.3-0.6-3.6,15-8.9,18.5c-6.7,4.3-13.4,2.8-13.7-5.6
				c-0.1-2.3,0.5-5.8-2.7-6.7c-7.3-2-4.1,20.3-3.8,23.2c1.4,12.2,6.3,26-1.2,37.3c-18.6,8.9-12.8-61.5-21.2-64.3
				c-6.2-2.1-5.2,9.9-5.1,12.6c0.1,6.6-9.5,9.5-11.9,2.7c-1.5-4.3,0.4-8.6-0.4-12.7c-9-9.3-10,10.4-10.1,15.2
				c-0.2,5.9,0,11.9,0.4,17.8c0.4,5.5,4.9,16.6-3.2,19.3c-10,3.3-10-12.2-10.8-17.6c-1.1-7.5-2.2-14.9-2.2-22.5
				c0-2.4,2.6-22.7,0.9-23.8c-5.6-3.8-6.5,5.4-6.8,8.7c-0.3,3.6-0.2,10.6-4.3,12.5c-9.6,4.4-11.8-7.8-12.4-14.2
				c-0.3-3.3,1.2-9.4-3.7-9.5c-2.6-0.1-4.6,2.1-4.1,4.7c1.8,9.6-3.5,13.9-3.5,13.9c-15.1,13.5-16.1-6.5-16.1-6.5
				c-10.8-4.9-5.9,20.4-5.9,20.4c1.8,9.4,2.4,21.7-0.8,30.9c-1.4,3.9-5.1,9.3-10.3,7.6c-4.1-1.3-4.9-7.2-5.3-10.6
				c-1.6-12.4-0.3-26.6,2.4-38.8c0.9-3.2,4.4-13.5-0.4-15.7c-5.9-2.7-3.5,9.5-3.7,12c-0.3,3.6-1.2,9.3-5.1,10.9
				c-14.5,5.9-12.3-29.3-12.3-29.3c-11.5-5.4-3,28-3,28c2.4,4.3,4.6,10.2,1.4,14.7c-4.3,6.1-12.1,3.8-15.2-1.8
				c-2.6-4.8-3.1-10.8-3.3-16.2c-0.4-8.4,0.5-16.7,1.5-25c-4.8,2.8-18,10.4-18.6,0.2c-0.2-2.7,1.3-5,1.7-7.6c1.1-7-5.6-12.8-4.5-20
				c1.7-11.2,14.9-16,24.8-18.5c33.4-8.7,68.9-12.3,103.4-14.5c40.2-2.6,80.6-2.3,120.9,0.4c37.5,2.5,77.7,3.5,114,13.4
				c11.8,3.2,21.6,6.9,19.9,18.4C-206.7-591.8-208.7-572.4-209.1-554.3z"/>
		</g>
		<ellipse class="st8" cx="-391.2" cy="-613.8" rx="167.9" ry="23.6"/>
	</g>
</g>
<g id="เนื้อเค้ก1" class="st0">
	<ellipse class="st9" cx="-557.6" cy="64.2" rx="146.6" ry="21"/>
	<g class="st1">
		<path class="st5" d="M-540.2-732v94.7v16.3c0,0,144,31.2,291.2,0v-16.3V-732H-540.2z"/>
		<path class="st6" d="M-247.9-683.4c-0.1,5.8-4.4,4.3-4.4,4.3c-4.2-0.9-0.6-20-0.6-20c-2.7,7-6,0-6,0c-6-4.2-2.3,21.1-2.3,21.1
			c2.9,14.7-4.5,16.1-4.5,16.1c-7.1,1.1-3.6-38.5-3.6-38.5c-1.8-8.5-6.6-5.7-6.6-5.7c2.6,8.2-1.8,16.4-1.8,16.4
			c-15.7,16.3-8.2-20.3-8.2-20.3c-0.6-6.5-5.8-2.6-5.8-2.6c0.8,11.2-12.6,7.9-12.6,7.9c3.1,11.2-8.9,7.9-8.9,7.9
			c2.7,0.1,4,10.9,4.1,12.8c0.5,6.3,0.9,12.6,1.1,18.9c0.2,4.6,0,10.2-4.8,12.8c-10.6,5.7-12.4-33.9-12.6-37.6
			c-0.1-2.8,1.4-11.8-3-12.4c-2.6-0.4-3.4,7.8-4.9,10c-1.7,2.4-6.7,6.5-9.5,3.6c-2.6-2.8-1.2-7.8-0.8-11.1c0.4-3.2-1.2-7.8-5.6-7.9
			c-2.6,0-4.2,2.9-2.8,5.1c3.1,5.3,3.8,12.5,1,18.3c-1.4,3-5.1,4.2-8.3,3.2c-3.5-1.2-5.2-4.8-5.9-8c-0.5-2.1,0.4-7.8-2.8-8
			c-8.2-0.5-2.8,11.9-7.1,14.6c-5.3,3.4-10.6,2.2-10.9-4.5c-0.1-1.8,0.4-4.6-2.1-5.3c-5.8-1.6-3.3,16.1-3,18.3
			c1.1,9.7,5,20.6-0.9,29.6c-14.7,7.1-10.1-48.7-16.8-50.9c-4.9-1.6-4.1,7.9-4.1,9.9c0.1,5.2-7.6,7.5-9.4,2.2
			c-1.2-3.4,0.3-6.8-0.3-10.1c-7.2-7.4-7.9,8.3-8,12c-0.2,4.7,0,9.4,0.3,14.1c0.3,4.4,3.9,13.2-2.5,15.3c-7.9,2.6-7.9-9.7-8.5-13.9
			c-0.8-5.9-1.7-11.8-1.7-17.8c0-1.9,2.1-17.9,0.7-18.9c-4.4-3-5.1,4.3-5.4,6.9c-0.3,2.9-0.1,8.4-3.4,9.9c-7.6,3.5-9.3-6.2-9.8-11.3
			c-0.2-2.6,1-7.4-2.9-7.5c-2.1,0-3.6,1.7-3.2,3.7c1.5,7.6-2.7,11-2.7,11c-12,10.7-12.8-5.1-12.8-5.1c-8.6-3.9-4.7,16.1-4.7,16.2
			c1.4,7.4,1.9,17.2-0.6,24.4c-1.1,3.1-4.1,7.3-8.2,6c-3.3-1-3.9-5.7-4.2-8.4c-1.3-9.8-0.2-21,1.9-30.7c0.7-2.6,3.5-10.7-0.3-12.4
			c-4.6-2.1-2.7,7.5-2.9,9.5c-0.2,2.8-0.9,7.4-4,8.6c-11.5,4.7-9.7-23.2-9.7-23.2c-9.1-4.3-2.4,22.1-2.4,22.1
			c1.9,3.4,3.6,8.1,1.1,11.7c-3.4,4.8-9.6,3-12-1.4c-2.1-3.8-2.4-8.6-2.6-12.8c-0.3-6.6,0.4-13.2,1.2-19.8
			c-3.8,2.2-14.2,8.2-14.7,0.2c-0.1-2.1,1-4,1.3-6c0.9-5.6-4.4-10.1-3.6-15.8c1.3-8.9,11.8-12.6,19.6-14.7
			c26.5-6.9,54.5-9.8,81.8-11.5c31.9-2.1,63.8-1.9,95.7,0.3c29.7,2,61.5,2.7,90.3,10.6c9.3,2.5,17.1,5.5,15.7,14.6
			C-246-713.1-247.6-697.8-247.9-683.4z"/>
	</g>
	<ellipse class="st7" cx="-392.1" cy="-730.5" rx="132.9" ry="18.7"/>
</g>
<g id="Layer_8" class="st0">
	<path class="st10" d="M-643.4-442.2v155.4c0,0,246.5,55.2,498.5,0C-144.9-286.7-666.8-237.4-643.4-442.2z"/>
	<path class="st10" d="M-577.6-589.8v114.4c0,0,181.5,40.6,367,0C-210.6-475.4-594.8-439-577.6-589.8z"/>
	<path class="st10" d="M-539.8-713.5v92.3c0,0,146.5,32.8,296.1,0C-243.7-621.2-553.7-591.9-539.8-713.5z"/>
</g>
<g id="เกาะ">
	<g>
		<path class="st11" d="M14.4,481.7l605.3-2.5c0,0,16.3,8.7,14,36.7L0.2,520.1C0.1,520.1-2.6,497.7,14.4,481.7z"/>
		<path class="st12" d="M0.4,510l633.6,3.9c0,0-1.3,13.9-8.9,20.3H9.2C9.2,534.2-3.1,527.6,0.4,510z"/>
		<path class="st13" d="M13.3,480.6l605.5-2.8l8.3,8.5c0,0-15.1,26-48.4,0c0,0,8.2,10,3.3,15c0,0-13.8,9.5-12-15c0,0-1,21.7-14,19.2
			c0,0-11.5-6.7,7.8-20.2c0,0-22.8,23.5-59.7,13.2c-36.8-10.3-80,5-80,5S348.3,526,269,493.3c0,0,6.3,21.8-4.7,18
			c0,0-6.7-1.3-7.3-19c0,0-7,28-20.3,19.3s5-21.7,5-21.7s-44-7.7-54,0.7c-10,8.3-58.5,22.7-101,2.8c0,0-23-9.2-48.2,3
			c-22.4,10.8-34.6,0.3-34.6,0.3C6.2,491.8,8.2,486.1,13.3,480.6z"/>
		<g>
			<path class="st13" d="M7.5,489.1c0,0,24.2-71.6,310.7-66.9v63.9"/>
			<path class="st13" d="M627.2,486.3c0,0-25-68.5-311.6-63.9v63.9"/>
		</g>
		<path class="st14" d="M193.9,425.6c0,0-79.5,6.9-135.8,27.2c151.1,26.1,331.6,22.5,524.7,1.2c0,0-74.8-28.5-140.4-28.5
			c-74.2,0,0,0,0,0L193.9,425.6"/>
	</g>
</g>
<g id="Layer_13" class="st0">
	<path class="st15" d="M601.2,468.6c-0.4,20.9-116.3,20.8-264.2,17.7s-271.8-8-271.3-29c0.4-20.9,120.7-35.3,268.5-32.2
		S601.6,447.7,601.2,468.6z"/>
</g>
<g id="เค้ก">
	<g>
		<path class="st16" d="M136.9,269.2l-7.8,136.2l-1.3,23.4c0,0,204.5,56.7,418.7,24l1.3-23.4l7.8-136.2L136.9,269.2z"/>
		<path class="st17" d="M135.3,298.2l-7.5,130.5c0,0,204.4,58.2,418.7,24C546.5,452.7,116.8,463.5,135.3,298.2z"/>
		<path class="st18" d="M159.5,425.7c6.1,3,12.6,6,19.8,6.1c12.8,0.2,22.6-8.9,35.4-8.5c14.3,0.4,24.1,12.1,38.3,13.9
			c13.5,1.7,25.5-6.1,39.1-5.7c15.8,0.5,27.4,11.6,42.8,14.8c25.1,5.2,50-12.3,75.3-7.3c8.2,1.6,15.3,5.5,23.5,7.1
			c17.7,3.5,34.9-4,52.3-7.3c19.3-3.8,40.8-2.3,59.3,4c5.5,1.9,11.4,4.9,11.7,9.2c0.3,4-4.5,7-9,9.2c-36.1,17.3-83.7,18.5-128,14.4
			s-88-13-132.5-13.9c-26.6-0.6-53,1.8-79.7,1.3c-26.6-0.5-54.3-4.1-76.5-15.1c-9.5-4.7-19.6-14.3-11-21.9
			C130.8,416.7,147.4,419.8,159.5,425.7z"/>
		<path class="st18" d="M554.4,363.2c-0.6,8.4-6.6,5.9-6.6,5.9c-6-1.7,0.7-28.8,0.7-28.8c-4.5,9.9-8.6-0.5-8.6-0.5
			c-8.3-6.5-5,30.1-5,30.1c3,21.4-7.8,22.8-7.8,22.8c-10.3,1-1.9-55.6-1.9-55.6c-1.9-12.4-9.1-8.8-9.1-8.8c3,12-3.9,23.5-3.9,23.5
			c-23.9,22.1-10.2-29.9-10.2-29.9c-0.4-9.4-8.1-4.3-8.1-4.3c0.2,16.1-18.8,10.3-18.8,10.3c3.5,16.3-13.4,10.7-13.4,10.7
			c3.9,0.4,4.8,16,4.9,18.7c0.3,9.1,0.2,18.2,0,27.3c-0.1,6.7-0.9,14.7-8,18c-15.7,7.4-15.1-49.8-15-55.1c0.1-4,3-16.9-3.3-18.1
			c-3.8-0.7-5.5,10.9-7.9,13.9c-2.6,3.3-10.2,8.8-13.9,4.4c-3.6-4.2-1.1-11.3-0.3-16c0.9-4.6-1-11.3-7.5-11.8
			c-3.7-0.3-6.2,3.8-4.5,7.2c4.1,7.9,4.4,18.3-0.1,26.3c-2.3,4.1-7.7,5.7-12.1,3.9c-4.9-2-7.1-7.3-7.9-12.1
			c-0.5-3.1,1.2-11.3-3.4-11.8c-11.7-1.4-5,16.9-11.4,20.4c-7.9,4.4-15.5,2.3-15.3-7.3c0.1-2.6,0.9-6.5-2.6-7.8
			c-8.1-2.8-6,22.9-5.9,26.1c0.8,14,5.5,30.1-3.8,42.4c-21.7,8.9-10.5-70.9-19.9-74.6c-6.9-2.7-6.5,11-6.7,14
			c-0.3,7.5-11.5,10.2-13.7,2.3c-1.4-4.9,1-9.8,0.4-14.5c-9.7-11.2-12,11.2-12.5,16.6c-0.6,6.8-0.7,13.6-0.7,20.3
			c0.1,6.3,4.5,19.3-4.9,21.8c-11.6,3.1-10.6-14.5-11.1-20.7c-0.7-8.6-1.5-17.1-1-25.8c0.2-2.8,4.5-25.6,2.6-27.1
			c-6.1-4.7-7.7,5.8-8.3,9.4c-0.6,4.1-0.9,12.1-5.7,14c-11.3,4.4-12.9-9.6-13.1-17c-0.1-3.8,2-10.6-3.6-11.1c-3-0.2-5.3,2.1-4.9,5.1
			c1.5,11.1-4.9,15.6-4.9,15.6c-18.1,14.4-17.9-8.4-17.9-8.4c-12-6.3-8.1,22.8-8.1,22.8c1.5,10.8,1.3,24.9-2.9,35.1
			c-1.8,4.4-6.4,10.2-12.3,8c-4.6-1.7-5.1-8.5-5.4-12.5c-1.1-14.3,1.4-30.3,5.2-44.1c1.3-3.6,5.9-15.1,0.5-17.9
			c-6.5-3.4-4.6,10.6-4.9,13.5c-0.6,4-1.9,10.5-6.5,12.1c-16.9,5.7-12.1-34.2-12.1-34.2c-12.7-6.9-5.2,31.6-5.2,31.6
			c2.4,5.1,4.6,11.9,0.7,16.9c-5.2,6.6-14,3.6-17.1-3.1c-2.7-5.7-2.8-12.5-2.7-18.6c0.1-9.6,1.7-19,3.4-28.3
			c-5.6,2.9-21.1,10.6-21.2-0.9c0-3.1,1.8-5.6,2.4-8.5c1.8-7.9-5.5-14.9-3.8-23c2.7-12.6,18-17.2,29.4-19.5
			c38.6-7.7,79.2-9.5,118.6-9.8c46-0.3,92,2.6,137.6,8.3c42.5,5.3,88.2,9,129,22.7c13.2,4.4,24.2,9.3,21.4,22.2
			C559.6,320.7,556,342.6,554.4,363.2z"/>
	</g>
	<g>
		<path class="st19" d="M174.5,183.5l5.9,103.7l1,17.8c0,0,159.7,25.2,318.9-18.2l-1-17.8l-4.1-72.6c-1-17.2-15.7-30.3-32.9-29.3
			L174.5,183.5z"/>
		<path class="st20" d="M175.6,203.4l5.8,101.6c0,0,159.7,26.3,318.9-18.2C500.3,286.9,172.8,324.9,175.6,203.4z"/>
		<path class="st18" d="M204.4,300c4.8,1.7,10.1,3.5,15.5,2.9c9.7-1,16.3-8.7,26-9.5c10.9-1,19.3,7.1,30.2,7.2
			c10.3,0.1,18.8-6.9,29.1-7.7c12-1,21.8,6.4,33.6,7.5c19.5,1.8,36.8-13.6,56.3-12.1c6.3,0.5,12.1,2.8,18.4,3.3
			c13.7,1.1,26.1-6,38.9-10.1c14.3-4.5,30.7-5.3,45.2-2.1c4.3,0.9,9.1,2.7,9.7,5.9c0.6,3-2.8,5.7-6,7.7
			c-25.8,16.2-61.7,21.3-95.6,22s-67.7-2.2-101.4,1c-20.2,1.9-40,5.9-60.2,7.9c-20.2,1.9-41.4,1.6-59.2-4.8
			c-7.6-2.7-16.1-9.1-10.3-15.6C181.8,295.7,194.7,296.6,204.4,300z"/>
		<path class="st18" d="M497.7,218.5c0.2,6.4-4.5,5-4.5,5c-4.7-0.8-2-21.9-2-21.9c-2.6,7.8-6.5,0.4-6.5,0.4
			c-6.8-4.2-1.2,23.2-1.2,23.2c4.1,16-3.9,18-3.9,18c-7.7,1.6-6.3-41.9-6.3-41.9c-2.5-9.2-7.6-5.9-7.6-5.9
			c3.3,8.8-0.9,18.1-0.9,18.1c-16.1,18.8-10.3-21.8-10.3-21.8c-1.1-7.1-6.5-2.5-6.5-2.5c1.6,12.2-13.3,9.5-13.3,9.5
			c4.1,12-9.2,9.2-9.2,9.2c3-0.1,5,11.7,5.3,13.7c1,6.8,1.7,13.8,2.4,20.7c0.5,5.1,0.6,11.2-4.5,14.3c-11.2,6.9-15.7-36.3-16.1-40.4
			c-0.3-3.1,0.8-13-4.1-13.4c-2.9-0.2-3.2,8.7-4.7,11.2c-1.7,2.7-6.9,7.6-10.1,4.6c-3.1-2.9-1.8-8.5-1.6-12.1
			c0.2-3.5-1.7-8.5-6.7-8.3c-2.9,0.1-4.4,3.4-2.8,5.8c3.8,5.6,4.9,13.5,2.2,19.9c-1.4,3.3-5.3,5-8.9,4c-3.9-1.1-6-4.9-7-8.4
			c-0.6-2.3-0.1-8.6-3.6-8.6c-9,0-2.3,13.2-6.8,16.4c-5.6,4-11.5,3.1-12.2-4.2c-0.2-2,0.1-5-2.7-5.6c-6.4-1.4-2.6,17.8-2.2,20.3
			c1.8,10.5,6.8,22.3,0.8,32.4c-15.7,8.6-14.1-52.7-21.5-54.7c-5.5-1.5-4,8.9-3.8,11.1c0.4,5.7-7.8,8.7-10.2,3
			c-1.5-3.6-0.1-7.5-0.9-11c-8.3-7.7-8.1,9.5-8,13.7c0.1,5.2,0.6,10.3,1.3,15.4c0.6,4.8,5,14.2-1.8,16.9
			c-8.5,3.4-9.3-10.1-10.2-14.7c-1.3-6.5-2.6-12.8-3-19.4c-0.1-2.1,1.2-19.8-0.4-20.7c-5.1-3-5.4,5-5.4,7.9
			c-0.1,3.2,0.4,9.2-3.1,11.1c-8.1,4.3-10.6-6.2-11.4-11.7c-0.4-2.9,0.6-8.2-3.7-8.1c-2.3,0.1-3.8,2.1-3.3,4.3
			c2.1,8.2-2.3,12.2-2.3,12.2c-12.4,12.5-14.3-4.8-14.3-4.8c-9.6-3.7-4.1,18-4.1,18c2,8,3.2,18.7,0.9,26.8c-1,3.5-4,8.3-8.6,7.1
			c-3.6-0.9-4.6-6-5.2-9c-2-10.7-1.6-23,0.1-33.8c0.6-2.8,3.2-11.9-1.2-13.6c-5.2-2-2.5,8.4-2.6,10.6c-0.1,3.1-0.5,8.1-3.9,9.7
			c-12.3,5.8-12.1-24.8-12.1-24.8c-10.2-4.1-1.2,24.4-1.2,24.4c2.3,3.6,4.5,8.6,2,12.7c-3.4,5.5-10.3,3.9-13.2-0.8
			c-2.5-4.1-3.2-9.2-3.7-13.8c-0.7-7.3-0.4-14.5,0.1-21.7c-4,2.6-15.1,9.9-16.1,1.1c-0.3-2.3,0.8-4.4,1.1-6.7
			c0.6-6.1-5.5-10.8-4.9-17.1c0.9-9.8,12.1-14.6,20.5-17.3c28.6-9.2,59.1-14.1,88.9-17.7c34.8-4.2,69.8-6,104.8-5.7
			c32.6,0.3,67.5-0.8,99.5,6c10.3,2.2,19.1,5,18.1,15C497.9,185.8,497.1,202.7,497.7,218.5z"/>
	</g>
	<g>
		<path class="st21" d="M234.5,81.4c-4-0.3-7.6,2.7-7.9,6.7l-5.2,66.4l-0.5,6.7c-0.3,3.5,2,6.7,5.4,7.7
			c23.8,6.4,116.4,28.5,214.8,17c3.5-0.4,6.2-3.2,6.5-6.7l0.5-6.7l5.2-66.4c0.3-4-2.7-7.6-6.7-7.9L234.5,81.4z"/>
		<path class="st22" d="M225.9,96.5l-5.1,64.6c-0.3,3.5,2,6.8,5.4,7.7c11.5,3.2,39.1,10.1,75.7,15c9.1,1.2,11.8-12,3-14.4
			C260.2,157.2,223,135.3,225.9,96.5z"/>
		<path class="st23" d="M237.1,165.8c3.2,1.7,6.8,3.4,10.7,3.6c6.9,0.3,12.3-4.5,19.3-4.2c7.8,0.4,12.9,6.9,20.6,8
			c7.3,1.1,13.9-3,21.3-2.6c8.6,0.4,14.7,6.6,23,8.5c13.6,3.1,27.3-6.1,40.9-3.1c4.4,1,8.2,3.1,12.7,4.1c9.6,2.1,19-1.7,28.4-3.4
			c10.5-1.8,22.2-0.8,32.1,2.9c3,1.1,6.1,2.8,6.2,5.1c0.1,2.1-2.5,3.7-5,4.9c-19.8,8.9-45.6,9.1-69.5,6.3
			c-23.9-2.7-47.6-8.1-71.6-9.1c-14.4-0.6-28.8,0.3-43.2-0.2c-14.4-0.6-29.4-2.8-41.3-9.1c-5.1-2.7-10.5-8-5.7-12
			C221.6,160.6,230.6,162.5,237.1,165.8z"/>
		<path class="st18" d="M451.8,136.6c-0.4,4.5-3.7,3.1-3.7,3.1c-3.2-1,0.7-15.6,0.7-15.6c-2.6,5.3-4.7-0.4-4.7-0.4
			c-4.4-3.6-3.1,16.3-3.1,16.3c1.4,11.7-4.5,12.3-4.5,12.3c-5.6,0.4-0.4-30.2-0.4-30.2c-0.9-6.8-4.8-4.9-4.8-4.9
			c1.5,6.6-2.4,12.7-2.4,12.7c-13.2,11.7-5.2-16.3-5.2-16.3c-0.1-5.1-4.4-2.4-4.4-2.4c-0.1,8.7-10.3,5.4-10.3,5.4
			c1.7,8.9-7.4,5.6-7.4,5.6c2.1,0.2,2.4,8.7,2.4,10.2c0,4.9-0.1,9.9-0.3,14.8c-0.1,3.6-0.7,8-4.5,9.7c-8.6,3.8-7.6-27.1-7.5-30
			c0.1-2.2,1.8-9.1-1.6-9.9c-2-0.4-3.1,5.9-4.4,7.5c-1.4,1.8-5.6,4.7-7.6,2.2c-1.9-2.3-0.5-6.1,0-8.7c0.5-2.5-0.4-6.1-3.9-6.5
			c-2-0.2-3.4,2-2.5,3.8c2.1,4.3,2.2,10-0.4,14.3c-1.3,2.2-4.2,3-6.6,2c-2.6-1.1-3.8-4.1-4.1-6.6c-0.2-1.7,0.8-6.1-1.7-6.4
			c-6.3-0.9-2.9,9.1-6.4,10.9c-4.3,2.3-8.4,1-8.2-4.1c0.1-1.4,0.6-3.5-1.3-4.2c-4.4-1.6-3.5,12.3-3.5,14.1c0.3,7.6,2.6,16.4-2.5,23
			c-11.9,4.6-4.9-38.5-9.9-40.6c-3.7-1.6-3.7,5.9-3.8,7.5c-0.3,4.1-6.3,5.4-7.5,1.1c-0.7-2.7,0.7-5.3,0.4-7.9c-5.1-6.2-6.6,6-7,8.9
			c-0.4,3.7-0.6,7.3-0.6,11c0,3.4,2.2,10.5-2.9,11.8c-6.3,1.6-5.6-8-5.8-11.4c-0.3-4.7-0.6-9.3-0.2-14c0.1-1.5,2.7-13.8,1.7-14.6
			c-3.3-2.6-4.3,3-4.6,5c-0.4,2.2-0.6,6.5-3.3,7.5c-6.2,2.3-6.9-5.4-6.9-9.4c0-2.1,1.2-5.7-1.8-6c-1.6-0.2-2.9,1.1-2.7,2.7
			c0.7,6-2.8,8.4-2.8,8.4c-10,7.6-9.6-4.8-9.6-4.8c-6.4-3.6-4.6,12.3-4.6,12.3c0.7,5.9,0.4,13.5-2,19c-1,2.3-3.6,5.5-6.7,4.2
			c-2.5-1-2.7-4.7-2.8-6.8c-0.4-7.7,1.1-16.4,3.4-23.8c0.7-1.9,3.4-8.1,0.5-9.7c-3.5-1.9-2.6,5.7-2.8,7.2c-0.3,2.2-1.2,5.7-3.7,6.5
			c-9.2,2.9-6.2-18.7-6.2-18.7c-6.8-3.9-3.2,17.1-3.2,17.1c1.3,2.8,2.3,6.5,0.2,9.1c-2.9,3.5-7.6,1.8-9.3-1.9
			c-1.4-3.1-1.4-6.8-1.3-10.1c0.2-5.2,1.1-10.2,2.2-15.3c-3.1,1.5-11.6,5.5-11.5-0.7c0-1.7,1-3,1.4-4.6c1-4.3-2.8-8.2-1.8-12.5
			c1.6-6.8,9.9-9.1,16.2-10.2c21-3.7,43-4.3,64.4-4c24.9,0.4,49.8,2.5,74.5,6.1c23,3.4,47.7,5.9,69.6,13.8c7.1,2.6,13,5.3,11.4,12.3
			C455.1,113.5,452.9,125.4,451.8,136.6z"/>
	</g>
	<g>
		<path class="st24" d="M278.8,14.6c-3.1-0.5-6,1.7-6.5,4.8l-6.7,45.2l-1.3,8.7c0,0,71.9,27.2,151.6,23.6c2.7-0.1,5-2.2,5.4-4.9
			l0.6-4.1l6.7-45.2c0.5-3.1-1.7-6-4.8-6.5L278.8,14.6z"/>
		<path class="st25" d="M271.5,24.6l-7.3,48.7c0,0,74.7,28.9,156.3,23.3C420.5,96.7,254.5,87.7,271.5,24.6z"/>
		<path class="st23" d="M275.8,73.2c2.2,1.3,4.5,2.7,7.2,3c4.8,0.5,8.8-2.6,13.6-2c5.4,0.6,8.6,5.4,13.9,6.5c5,1.1,9.8-1.4,14.9-0.8
			c5.9,0.7,9.9,5.3,15.5,7c9.3,2.8,19.2-2.9,28.5-0.2c3,0.9,5.6,2.6,8.6,3.5c6.5,1.9,13.2-0.3,19.9-1c7.4-0.7,15.4,0.5,22.1,3.5
			c2,0.9,4.1,2.2,4.1,3.8c0,1.5-1.9,2.5-3.7,3.1c-14.1,5.2-32,4.1-48.5,1s-32.6-7.9-49.2-9.8c-10-1.1-20-1.2-29.9-2.2
			c-10-1.1-20.2-3.4-28.2-8.3c-3.4-2.1-6.9-6-3.4-8.6C265.3,68.8,271.5,70.6,275.8,73.2z"/>
		<path class="st18" d="M426.2,63.3c-0.5,3.1-2.7,2-2.7,2c-2.2-0.8,1.3-10.8,1.3-10.8c-2,3.5-3.2-0.5-3.2-0.5
			c-2.9-2.7-2.9,11.1-2.9,11.1c0.4,8.1-3.7,8.3-3.7,8.3c-3.9,0,1.2-20.9,1.2-20.9c-0.3-4.7-3.1-3.6-3.1-3.6c0.7,4.6-2.3,8.7-2.3,8.7
			C401.1,65.1,408,46,408,46c0.2-3.6-2.9-1.9-2.9-1.9c-0.5,6.1-7.4,3.2-7.4,3.2c0.8,6.2-5.4,3.5-5.4,3.5c1.4,0.3,1.3,6.2,1.2,7.2
			c-0.2,3.4-0.5,6.9-0.9,10.3c-0.3,2.5-0.8,5.5-3.6,6.5c-6.1,2.2-4-19.2-3.7-21.2c0.2-1.5,1.7-6.2-0.6-6.9c-1.4-0.4-2.5,3.9-3.4,5
			c-1.1,1.2-4.1,3-5.4,1.2c-1.2-1.7,0-4.3,0.4-6c0.5-1.7,0-4.3-2.4-4.7c-1.4-0.2-2.5,1.2-1.9,2.5c1.2,3.1,1,7-0.9,9.9
			c-1,1.5-3.1,1.9-4.7,1c-1.8-0.9-2.4-3-2.5-4.8c-0.1-1.2,0.8-4.2-0.9-4.5c-4.4-0.9-2.5,6.2-5,7.3c-3.1,1.4-5.9,0.3-5.5-3.3
			c0.1-1,0.6-2.4-0.7-3c-3-1.3-3.1,8.4-3.1,9.6c-0.2,5.3,1,11.5-2.9,15.8c-8.5,2.6-1.5-27-4.9-28.7c-2.5-1.3-2.8,3.9-3,5
			c-0.4,2.8-4.7,3.4-5.2,0.4c-0.4-1.9,0.7-3.6,0.7-5.4c-3.2-4.5-4.9,3.8-5.3,5.8c-0.5,2.5-0.7,5.1-0.9,7.6c-0.2,2.4,1,7.4-2.6,8
			c-4.4,0.8-3.5-5.8-3.5-8.2c0-3.3,0-6.5,0.5-9.7c0.2-1,2.6-9.5,1.9-10.1c-2.1-2-3.1,1.9-3.4,3.3c-0.4,1.5-0.8,4.5-2.6,5.1
			c-4.4,1.3-4.5-4.1-4.3-6.8c0.1-1.4,1.1-3.9-1-4.3c-1.1-0.2-2.1,0.6-2,1.7c0.2,4.2-2.4,5.7-2.4,5.7c-7.3,4.8-6.4-3.8-6.4-3.8
			c-4.3-2.8-3.8,8.3-3.8,8.3c0.2,4.1-0.4,9.4-2.3,13.1c-0.8,1.6-2.8,3.6-4.9,2.6c-1.7-0.8-1.6-3.4-1.6-4.9
			c0.1-5.4,1.6-11.3,3.5-16.4c0.6-1.3,2.7-5.5,0.8-6.7c-2.3-1.5-2.1,3.8-2.3,4.9c-0.3,1.5-1.1,3.9-2.9,4.3
			c-6.5,1.6-3.4-13.3-3.4-13.3c-4.5-3-3,11.7-3,11.7c0.7,2,1.3,4.6-0.3,6.4c-2.2,2.3-5.4,0.9-6.3-1.7c-0.8-2.2-0.6-4.8-0.4-7.1
			c0.4-3.6,1.3-7.1,2.2-10.5c-2.2,0.9-8.3,3.3-7.9-1.1c0.1-1.2,0.9-2.1,1.2-3.1c0.9-2.9-1.6-5.8-0.7-8.8c1.4-4.6,7.3-5.8,11.7-6.3
			c14.8-1.6,30.1-0.9,44.9,0.4c17.3,1.4,34.4,4.1,51.4,7.8c15.8,3.4,32.8,6.4,47.6,12.9c4.8,2.1,8.7,4.3,7.3,9.1
			C429.6,47.5,427.5,55.6,426.2,63.3z"/>
	</g>
	<ellipse transform="matrix(0.1516 -0.9884 0.9884 0.1516 270.1923 369.497)" class="st26" cx="350.3" cy="27.4" rx="7.9" ry="66"/>
</g>
<g id="เทียน">
	<path class="st27" d="M235.1,74.8"/>
	<path class="st27" d="M236.1,69.7"/>
	<g>
		<path class="st28" d="M247.9,56.5c1.3-0.4,2.6,0.3,2.9,1.5l4.5,16c0.3,1.2-0.4,2.4-1.7,2.8c-1.3,0.4-2.6-0.3-2.9-1.5l-4.5-16
			C245.9,58.1,246.7,56.9,247.9,56.5z"/>
		<path class="st29" d="M248,55.8c0.2,0.7,0.4,1.4,0.6,2.1c0.1,0.3,0.2,0.8-0.1,0.9c-0.3,0.1-0.5-0.5-0.5-0.7
			c-0.2-0.7-0.4-1.4-0.6-2.1c0-0.2-0.1-0.4,0-0.6C247.6,54.8,247.9,55.5,248,55.8z"/>
		<path class="st30" d="M247.5,50.7c-0.6,0.1-1.1,0.8-1.4,1.2c-0.6,0.9-0.9,2.3-0.5,3.4c0.4,1,1.5,1.7,2.5,1.4c0.9-0.2,1.5-1,1.4-2
			c-0.1-0.8-0.7-1.5-1.3-2C247.6,52.2,247.2,51.4,247.5,50.7z"/>
		<path class="st31" d="M247.6,50.4c-0.6,0.1-1.1,0.8-1.4,1.2c-0.6,0.9-0.9,2.3-0.5,3.4c0.4,1,1.5,1.7,2.5,1.4c0.9-0.2,1.5-1,1.4-2
			c-0.1-0.8-0.7-1.5-1.3-2C247.7,51.9,247.3,51.2,247.6,50.4z"/>
	</g>
	<g>
		<path class="st32" d="M392.3,16.2c1.3,0.3,2.1,1.6,1.7,2.8l-4.4,16.1c-0.3,1.2-1.6,1.9-2.9,1.5c-1.3-0.3-2.1-1.6-1.7-2.8l4.4-16.1
			C389.7,16.5,391,15.8,392.3,16.2z"/>
		<path class="st29" d="M392.8,15.5c-0.1,0.7-0.4,1.4-0.6,2.1c-0.1,0.3-0.2,0.8-0.5,0.7c-0.3-0.1-0.2-0.6-0.1-0.9
			c0.2-0.7,0.4-1.4,0.6-2.1c0.1-0.2,0.1-0.4,0.3-0.5C392.9,14.5,392.9,15.3,392.8,15.5z"/>
		<path class="st30" d="M394.9,10.9c-0.5-0.2-1.3,0.1-1.8,0.3c-1,0.5-2,1.5-2.2,2.7c-0.2,1,0.4,2.2,1.4,2.5c0.9,0.3,1.9-0.1,2.2-1
			c0.3-0.8,0.1-1.7-0.1-2.4C394.3,12.3,394.3,11.4,394.9,10.9z"/>
		<path class="st31" d="M395.1,10.7c-0.5-0.2-1.3,0.1-1.8,0.3c-1,0.5-2,1.5-2.2,2.7c-0.2,1,0.4,2.2,1.4,2.5c0.9,0.3,1.9-0.1,2.2-1
			c0.3-0.8,0.1-1.7-0.1-2.4C394.5,12.1,394.5,11.2,395.1,10.7z"/>
	</g>
	<g>
		<path class="st28" d="M474.7,156.3c1.3,0.4,2,1.6,1.7,2.8l-4.5,16c-0.3,1.2-1.6,1.9-2.9,1.5s-2-1.6-1.7-2.8l4.5-16
			C472.1,156.6,473.4,155.9,474.7,156.3z"/>
		<path class="st29" d="M475.2,155.7c-0.1,0.7-0.4,1.4-0.6,2.1c-0.1,0.3-0.2,0.8-0.5,0.7s-0.1-0.6-0.1-0.9c0.2-0.7,0.4-1.4,0.6-2.1
			c0.1-0.2,0.1-0.4,0.3-0.5C475.3,154.6,475.3,155.4,475.2,155.7z"/>
		<path class="st30" d="M477.4,151.1c-0.5-0.2-1.3,0.1-1.8,0.3c-1,0.5-2,1.5-2.2,2.6c-0.2,1,0.4,2.2,1.4,2.5
			c0.9,0.3,1.9-0.1,2.2-0.9c0.3-0.8,0.2-1.7,0-2.4C476.7,152.5,476.7,151.6,477.4,151.1z"/>
		<path class="st31" d="M477.6,150.9c-0.5-0.2-1.3,0.1-1.8,0.3c-1,0.5-2,1.5-2.2,2.6c-0.2,1,0.4,2.2,1.4,2.5
			c0.9,0.3,1.9-0.1,2.2-0.9c0.3-0.8,0.2-1.7,0-2.4C476.9,152.3,477,151.4,477.6,150.9z"/>
	</g>
	<g>
		<path class="st33" d="M346.4,163.6c1.3,0,2.4,0.9,2.5,2.2l0.5,16.6c0,1.2-1,2.3-2.3,2.3s-2.4-0.9-2.5-2.2l-0.5-16.6
			C344,164.7,345.1,163.6,346.4,163.6z"/>
		<path class="st29" d="M346.7,162.9c0.1,0.7,0,1.5,0.1,2.2c0,0.3,0,0.8-0.3,0.8s-0.3-0.6-0.3-0.8c0-0.7-0.1-1.4-0.1-2.2
			c0-0.2,0-0.4,0.1-0.5C346.4,161.8,346.6,162.6,346.7,162.9z"/>
		<path class="st30" d="M347.3,157.8c-0.6,0-1.2,0.5-1.6,0.8c-0.8,0.7-1.5,2-1.3,3.2c0.1,1.1,1,2,2.1,2c0.9,0,1.7-0.6,1.8-1.6
			c0.1-0.8-0.4-1.6-0.8-2.3C347.1,159.3,346.9,158.5,347.3,157.8z"/>
		<path class="st31" d="M347.5,157.6c-0.6,0-1.2,0.5-1.6,0.8c-0.8,0.7-1.5,2-1.3,3.2c0.1,1.1,1,2,2.1,2c0.9,0,1.7-0.6,1.8-1.6
			c0.1-0.8-0.4-1.6-0.8-2.3C347.3,159.1,347,158.2,347.5,157.6z"/>
	</g>
	<g>
		<path class="st34" d="M321.8,6.1c1.3-0.2,2.5,0.6,2.7,1.8l2.7,16.4c0.2,1.2-0.7,2.4-2,2.6c-1.3,0.2-2.5-0.6-2.7-1.8l-2.7-16.4
			C319.5,7.5,320.4,6.3,321.8,6.1z"/>
		<path class="st29" d="M321.9,5.3c0.2,0.7,0.2,1.4,0.3,2.1c0,0.3,0.1,0.8-0.1,0.9c-0.3,0.1-0.4-0.5-0.4-0.8
			c-0.1-0.7-0.3-1.4-0.3-2.1c0-0.2,0-0.4,0-0.6C321.6,4.3,321.9,5.1,321.9,5.3z"/>
		<path class="st30" d="M321.9,0.2c-0.6,0.1-1.2,0.6-1.5,1c-0.7,0.9-1.2,2.2-0.9,3.3c0.3,1,1.3,1.8,2.3,1.7c0.9-0.1,1.6-0.9,1.6-1.8
			c0-0.8-0.6-1.6-1.1-2.2C321.9,1.8,321.6,1,321.9,0.2z"/>
		<path class="st31" d="M322.1,0c-0.6,0.1-1.2,0.6-1.5,1c-0.7,0.9-1.2,2.2-0.9,3.3c0.3,1,1.3,1.8,2.3,1.7c0.9-0.1,1.6-0.9,1.6-1.8
			c0-0.8-0.6-1.6-1.1-2.2C322.1,1.5,321.7,0.7,322.1,0z"/>
	</g>
	<g>
		<path class="st34" d="M523.1,265.4c1.3,0.3,2.1,1.6,1.8,2.8l-4,16.2c-0.3,1.2-1.6,1.9-2.9,1.6c-1.3-0.3-2.1-1.6-1.8-2.8l4-16.2
			C520.5,265.8,521.8,265.1,523.1,265.4z"/>
		<path class="st29" d="M523.6,264.8c-0.1,0.7-0.4,1.4-0.5,2.1c-0.1,0.3-0.2,0.8-0.5,0.7c-0.3,0-0.2-0.6-0.1-0.9
			c0.2-0.7,0.3-1.4,0.5-2.1c0.1-0.2,0.1-0.4,0.2-0.5C523.6,263.7,523.6,264.5,523.6,264.8z"/>
		<path class="st30" d="M525.6,260.1c-0.6-0.1-1.3,0.1-1.8,0.4c-1,0.5-2,1.6-2.1,2.7c-0.2,1,0.4,2.2,1.5,2.5c0.9,0.2,1.9-0.2,2.2-1
			s0.1-1.7-0.1-2.4C525,261.5,525,260.6,525.6,260.1z"/>
		<path class="st31" d="M525.8,260c-0.6-0.1-1.3,0.1-1.8,0.4c-1,0.5-2,1.6-2.1,2.7c-0.2,1,0.4,2.2,1.5,2.5c0.9,0.2,1.9-0.2,2.2-1
			s0.1-1.7-0.1-2.4C525.2,261.4,525.2,260.5,525.8,260z"/>
	</g>
	<g>
		<path class="st34" d="M249.9,289.1c1.3-0.1,2.5,0.8,2.6,2l1.4,16.6c0.1,1.2-0.9,2.3-2.2,2.4c-1.3,0.1-2.5-0.8-2.6-2l-1.4-16.6
			C247.6,290.3,248.6,289.2,249.9,289.1z"/>
		<path class="st29" d="M250.2,288.4c0.1,0.7,0.1,1.4,0.2,2.2c0,0.3,0.1,0.8-0.2,0.8c-0.3,0.1-0.4-0.6-0.4-0.8
			c-0.1-0.7-0.1-1.4-0.2-2.2c0-0.2,0-0.4,0.1-0.6C249.9,287.3,250.1,288.1,250.2,288.4z"/>
		<path class="st30" d="M250.6,283.3c-0.6,0-1.2,0.5-1.6,0.9c-0.8,0.8-1.4,2.1-1.2,3.2c0.2,1,1.1,1.9,2.2,1.9
			c0.9-0.1,1.7-0.7,1.7-1.7c0-0.8-0.4-1.6-0.9-2.3C250.4,284.8,250.1,283.9,250.6,283.3z"/>
		<path class="st31" d="M250.7,283c-0.6,0-1.2,0.5-1.6,0.9c-0.8,0.8-1.4,2.1-1.2,3.2c0.2,1,1.1,1.9,2.2,1.9c0.9-0.1,1.7-0.7,1.7-1.7
			c0-0.8-0.4-1.6-0.9-2.3C250.6,284.6,250.3,283.7,250.7,283z"/>
	</g>
	<g>
		<path class="st32" d="M212.1,166.8c1.3-0.3,2.6,0.4,2.9,1.6l4,16.1c0.3,1.2-0.5,2.4-1.8,2.8c-1.3,0.3-2.6-0.4-2.9-1.6l-4-16.1
			C210,168.4,210.8,167.2,212.1,166.8z"/>
		<path class="st29" d="M212.2,166.1c0.2,0.7,0.3,1.4,0.5,2.1c0.1,0.3,0.2,0.8-0.1,0.9c-0.3,0.1-0.4-0.5-0.5-0.8
			c-0.2-0.7-0.4-1.4-0.5-2.1c0-0.2-0.1-0.4,0-0.6C211.8,165.1,212.1,165.8,212.2,166.1z"/>
		<path class="st30" d="M211.8,161c-0.6,0.1-1.1,0.7-1.4,1.2c-0.7,0.9-1,2.3-0.6,3.4c0.4,1,1.4,1.7,2.5,1.5c0.9-0.2,1.6-1,1.4-1.9
			c-0.1-0.8-0.7-1.5-1.2-2.1C211.9,162.5,211.5,161.7,211.8,161z"/>
		<path class="st31" d="M211.9,160.7c-0.6,0.1-1.1,0.7-1.4,1.2c-0.7,0.9-1,2.3-0.6,3.4c0.4,1,1.4,1.7,2.5,1.5c0.9-0.2,1.6-1,1.4-1.9
			c-0.1-0.8-0.7-1.5-1.2-2.1C212,162.2,211.6,161.5,211.9,160.7z"/>
	</g>
	<g>
		<path class="st28" d="M360.2,283.1c1.3,0.3,2.1,1.5,1.9,2.7l-3.5,16.3c-0.3,1.2-1.5,2-2.8,1.7s-2.1-1.5-1.9-2.7l3.5-16.3
			C357.6,283.5,358.9,282.8,360.2,283.1z"/>
		<path class="st29" d="M360.6,282.4c-0.1,0.7-0.3,1.4-0.5,2.1c-0.1,0.3-0.2,0.8-0.5,0.7c-0.3,0-0.2-0.6-0.1-0.9
			c0.2-0.7,0.3-1.4,0.5-2.1c0-0.2,0.1-0.4,0.2-0.5C360.7,281.4,360.7,282.1,360.6,282.4z"/>
		<path class="st30" d="M362.5,277.7c-0.6-0.1-1.3,0.2-1.8,0.4c-1,0.5-1.9,1.6-2.1,2.8c-0.1,1.1,0.5,2.2,1.6,2.4
			c0.9,0.2,1.8-0.2,2.1-1.1c0.3-0.8,0.1-1.7-0.2-2.4C362,279.1,361.9,278.2,362.5,277.7z"/>
		<path class="st31" d="M362.7,277.5c-0.6-0.1-1.3,0.2-1.8,0.4c-1,0.5-1.9,1.6-2.1,2.8c-0.1,1.1,0.5,2.2,1.6,2.4
			c0.9,0.2,1.8-0.2,2.1-1.1c0.3-0.8,0.1-1.7-0.2-2.4C362.2,278.9,362.1,278,362.7,277.5z"/>
	</g>
	<g>
		<path class="st33" d="M450.3,275.8c1.3-0.3,2.6,0.5,2.8,1.7l3.3,16.3c0.2,1.2-0.6,2.4-1.9,2.7c-1.3,0.3-2.6-0.5-2.8-1.7l-3.3-16.3
			C448.1,277.3,449,276.1,450.3,275.8z"/>
		<path class="st29" d="M450.4,275.1c0.2,0.7,0.3,1.4,0.4,2.1c0.1,0.3,0.2,0.8-0.1,0.9c-0.3,0.1-0.4-0.5-0.5-0.8
			c-0.1-0.7-0.3-1.4-0.4-2.1c0-0.2-0.1-0.4,0-0.6C450,274.1,450.3,274.8,450.4,275.1z"/>
		<path class="st30" d="M450.2,270c-0.6,0.1-1.1,0.7-1.5,1.1c-0.7,0.9-1.1,2.3-0.8,3.4c0.3,1,1.3,1.8,2.4,1.6
			c0.9-0.2,1.6-0.9,1.5-1.9c-0.1-0.8-0.6-1.5-1.2-2.1C450.3,271.5,449.9,270.7,450.2,270z"/>
		<path class="st31" d="M450.4,269.7c-0.6,0.1-1.1,0.7-1.5,1.1c-0.7,0.9-1.1,2.3-0.8,3.4c0.3,1,1.3,1.8,2.4,1.6
			c0.9-0.2,1.6-0.9,1.5-1.9c-0.1-0.8-0.6-1.5-1.2-2.1C450.4,271.3,450,270.5,450.4,269.7z"/>
	</g>
	<g>
		<path class="st33" d="M164.2,260.4c1.2-0.5,2.6,0,3.1,1.2l6.1,15.5c0.5,1.2-0.2,2.5-1.4,3s-2.6,0-3.1-1.2l-6.1-15.5
			C162.3,262.2,162.9,260.9,164.2,260.4z"/>
		<path class="st29" d="M164.2,259.6c0.3,0.6,0.5,1.4,0.8,2c0.1,0.3,0.3,0.7,0,0.9c-0.3,0.1-0.5-0.4-0.6-0.7c-0.3-0.7-0.6-1.3-0.8-2
			c-0.1-0.2-0.1-0.4-0.1-0.5C163.6,258.7,164,259.4,164.2,259.6z"/>
		<path class="st30" d="M163.1,254.6c-0.5,0.2-1,0.9-1.3,1.3c-0.5,1-0.7,2.4-0.2,3.4c0.5,0.9,1.6,1.5,2.7,1.1
			c0.8-0.3,1.4-1.2,1.2-2.1c-0.2-0.8-0.9-1.4-1.5-1.9C163.4,256.1,162.9,255.4,163.1,254.6z"/>
		<path class="st31" d="M163.2,254.4c-0.5,0.2-1,0.9-1.3,1.3c-0.5,1-0.7,2.4-0.2,3.4c0.5,0.9,1.6,1.5,2.7,1.1
			c0.8-0.3,1.4-1.2,1.2-2.1c-0.2-0.8-0.9-1.4-1.5-1.9C163.5,255.9,162.9,255.1,163.2,254.4z"/>
	</g>
	<g>
		<path class="st34" d="M443.3,79.9c1.2,0.6,1.8,1.9,1.2,3l-7,15.1c-0.5,1.1-1.9,1.6-3.1,1s-1.8-1.9-1.2-3l7-15.1
			C440.7,79.8,442.1,79.4,443.3,79.9z"/>
		<path class="st29" d="M443.9,79.4c-0.3,0.7-0.6,1.3-0.9,2c-0.1,0.3-0.3,0.7-0.6,0.6c-0.3-0.1,0-0.7,0.1-0.9c0.3-0.7,0.6-1.3,0.9-2
			c0.1-0.2,0.2-0.3,0.3-0.4C444.2,78.3,444,79.1,443.9,79.4z"/>
		<path class="st30" d="M446.8,75.2c-0.5-0.3-1.3-0.1-1.8,0c-1.1,0.3-2.2,1.2-2.6,2.2c-0.3,1,0,2.2,1,2.7c0.8,0.4,1.8,0.2,2.3-0.6
			c0.4-0.7,0.4-1.6,0.3-2.4C445.9,76.4,446.1,75.5,446.8,75.2z"/>
		<path class="st31" d="M447,75c-0.5-0.3-1.3-0.1-1.8,0c-1.1,0.3-2.2,1.2-2.6,2.2c-0.3,1,0,2.2,1,2.7c0.8,0.4,1.8,0.2,2.3-0.6
			c0.4-0.7,0.4-1.6,0.3-2.4C446.2,76.3,446.3,75.4,447,75z"/>
	</g>
</g>
<g id="เทียนหมีหมี่" class="st0">
	<g class="st35">
		<ellipse class="st36" cx="-357.2" cy="-1037" rx="4.8" ry="4.5"/>
		<rect x="-362" y="-1070.3" class="st36" width="9.7" height="33.4"/>
		<ellipse class="st36" cx="-357.2" cy="-1070.3" rx="4.8" ry="4.5"/>
		<path class="st36" d="M-357.2-1095.1"/>
		<path class="st36" d="M-357.2-1105.6"/>
		<path class="st36" d="M-357.7-1076.3c-0.1,1.4,0,2.9,0,4.4c0,0.6,0,1.6,0.6,1.6c0.6,0.1,0.6-1.2,0.6-1.7c0-1.4,0.1-2.9,0-4.3
			c0-0.4-0.1-0.8-0.2-1.1C-357.4-1078.4-357.7-1076.9-357.7-1076.3z"/>
		<path class="st36" d="M-359.4-1086.4c1.1,0,2.5,0.9,3.3,1.6c1.7,1.4,3.1,4,2.8,6.3c-0.2,2.1-1.9,4-4.1,4.1c-1.8,0-3.5-1.2-3.7-3
			c-0.2-1.6,0.6-3.3,1.4-4.6C-358.9-1083.4-358.4-1085.1-359.4-1086.4z"/>
	</g>
	<g class="st1">
		<ellipse class="st37" cx="-357.9" cy="-1037" rx="4.8" ry="4.5"/>
		<rect x="-362.7" y="-1070.3" class="st37" width="9.7" height="33.4"/>
		<ellipse class="st38" cx="-357.9" cy="-1070.3" rx="4.8" ry="4.5"/>
		<path class="st27" d="M-357.9-1095.1"/>
		<path class="st27" d="M-357.9-1105.6"/>
		<path class="st29" d="M-358.5-1076.3c-0.1,1.4,0,2.9,0,4.4c0,0.6,0,1.6,0.6,1.6c0.6,0.1,0.6-1.2,0.6-1.7c0-1.4,0.1-2.9,0-4.3
			c0-0.4-0.1-0.8-0.2-1.1C-358.1-1078.4-358.5-1076.9-358.5-1076.3z"/>
		<path class="st39" d="M-360.2-1086.4c1.1,0,2.5,0.9,3.3,1.6c1.7,1.4,3.1,4,2.8,6.3c-0.2,2.1-1.9,4-4.1,4.1c-1.8,0-3.5-1.2-3.7-3
			c-0.2-1.6,0.6-3.3,1.4-4.6C-359.7-1083.4-359.2-1085.1-360.2-1086.4z"/>
	</g>
	<g class="st35">
		<ellipse class="st36" cx="-279.7" cy="-1027.2" rx="4.8" ry="4.5"/>
		<rect x="-284.6" y="-1060.6" class="st36" width="9.7" height="33.4"/>
		<ellipse class="st36" cx="-279.7" cy="-1060.6" rx="4.8" ry="4.5"/>
		<path class="st36" d="M-279.7-1085.3"/>
		<path class="st36" d="M-279.7-1095.8"/>
		<path class="st36" d="M-280.3-1066.5c-0.1,1.4,0,2.9,0,4.4c0,0.6,0,1.6,0.6,1.6c0.6,0.1,0.6-1.2,0.6-1.7c0-1.4,0.1-2.9,0-4.3
			c0-0.4-0.1-0.8-0.2-1.1C-279.9-1068.6-280.3-1067.1-280.3-1066.5z"/>
		<path class="st36" d="M-282-1076.6c1.1,0,2.5,0.9,3.3,1.6c1.7,1.4,3.1,4,2.8,6.3c-0.2,2.1-1.9,4-4.1,4.1c-1.8,0-3.5-1.2-3.7-3
			c-0.2-1.6,0.6-3.3,1.4-4.6C-281.5-1073.6-281-1075.3-282-1076.6z"/>
	</g>
	<g class="st1">
		<ellipse class="st37" cx="-280.9" cy="-1027.2" rx="4.8" ry="4.5"/>
		<rect x="-285.7" y="-1060.6" class="st37" width="9.7" height="33.4"/>
		<ellipse class="st38" cx="-280.9" cy="-1060.6" rx="4.8" ry="4.5"/>
		<path class="st27" d="M-280.9-1085.3"/>
		<path class="st27" d="M-280.9-1095.8"/>
		<path class="st29" d="M-281.5-1066.5c-0.1,1.4,0,2.9,0,4.4c0,0.6,0,1.6,0.6,1.6c0.6,0.1,0.6-1.2,0.6-1.7c0-1.4,0.1-2.9,0-4.3
			c0-0.4-0.1-0.8-0.2-1.1C-281.1-1068.6-281.4-1067.1-281.5-1066.5z"/>
		<path class="st39" d="M-283.1-1076.6c1.1,0,2.5,0.9,3.3,1.6c1.7,1.4,3.1,4,2.8,6.3c-0.2,2.1-1.9,4-4.1,4.1c-1.8,0-3.5-1.2-3.7-3
			c-0.2-1.6,0.6-3.3,1.4-4.6C-282.6-1073.6-282.2-1075.3-283.1-1076.6z"/>
	</g>
	<g class="st35">
		<ellipse class="st36" cx="-151.2" cy="-1027.2" rx="4.8" ry="4.5"/>
		<rect x="-156.1" y="-1060.6" class="st36" width="9.7" height="33.4"/>
		<ellipse class="st36" cx="-151.2" cy="-1060.6" rx="4.8" ry="4.5"/>
		<path class="st36" d="M-151.2-1085.3"/>
		<path class="st36" d="M-151.2-1095.8"/>
		<path class="st36" d="M-151.8-1066.5c-0.1,1.4,0,2.9,0,4.4c0,0.6,0,1.6,0.6,1.6c0.6,0.1,0.6-1.2,0.6-1.7c0-1.4,0.1-2.9,0-4.3
			c0-0.4-0.1-0.8-0.2-1.1C-151.4-1068.6-151.8-1067.1-151.8-1066.5z"/>
		<path class="st36" d="M-153.5-1076.6c1.1,0,2.5,0.9,3.3,1.6c1.7,1.4,3.1,4,2.8,6.3c-0.2,2.1-1.9,4-4.1,4.1c-1.8,0-3.5-1.2-3.7-3
			c-0.2-1.6,0.6-3.3,1.4-4.6C-153-1073.6-152.5-1075.3-153.5-1076.6z"/>
	</g>
	<g class="st1">
		<ellipse class="st37" cx="-152.4" cy="-1027.2" rx="4.8" ry="4.5"/>
		<rect x="-157.2" y="-1060.6" class="st37" width="9.7" height="33.4"/>
		<ellipse class="st38" cx="-152.4" cy="-1060.6" rx="4.8" ry="4.5"/>
		<path class="st27" d="M-152.4-1085.3"/>
		<path class="st27" d="M-152.4-1095.8"/>
		<path class="st29" d="M-153-1066.5c-0.1,1.4,0,2.9,0,4.4c0,0.6,0,1.6,0.6,1.6c0.6,0.1,0.6-1.2,0.6-1.7c0-1.4,0.1-2.9,0-4.3
			c0-0.4-0.1-0.8-0.2-1.1C-152.6-1068.6-152.9-1067.1-153-1066.5z"/>
		<path class="st39" d="M-154.6-1076.6c1.1,0,2.5,0.9,3.3,1.6c1.7,1.4,3.1,4,2.8,6.3c-0.2,2.1-1.9,4-4.1,4.1c-1.8,0-3.5-1.2-3.7-3
			c-0.2-1.6,0.6-3.3,1.4-4.6C-154.1-1073.6-153.7-1075.3-154.6-1076.6z"/>
	</g>
	<g class="st35">
		<ellipse class="st36" cx="-83.2" cy="-1037" rx="4.8" ry="4.5"/>
		<rect x="-88" y="-1070.3" class="st36" width="9.7" height="33.4"/>
		<ellipse class="st36" cx="-83.2" cy="-1070.3" rx="4.8" ry="4.5"/>
		<path class="st36" d="M-83.2-1095.1"/>
		<path class="st36" d="M-83.2-1105.6"/>
		<path class="st36" d="M-83.8-1076.3c-0.1,1.4,0,2.9,0,4.4c0,0.6,0,1.6,0.6,1.6c0.6,0.1,0.6-1.2,0.6-1.7c0-1.4,0.1-2.9,0-4.3
			c0-0.4-0.1-0.8-0.2-1.1C-83.4-1078.4-83.7-1076.9-83.8-1076.3z"/>
		<path class="st36" d="M-85.4-1086.4c1.1,0,2.5,0.9,3.3,1.6c1.7,1.4,3.1,4,2.8,6.3c-0.2,2.1-1.9,4-4.1,4.1c-1.8,0-3.5-1.2-3.7-3
			c-0.2-1.6,0.6-3.3,1.4-4.6C-84.9-1083.4-84.4-1085.1-85.4-1086.4z"/>
	</g>
	<g class="st1">
		<ellipse class="st37" cx="-84.3" cy="-1037" rx="4.8" ry="4.5"/>
		<rect x="-89.2" y="-1070.3" class="st37" width="9.7" height="33.4"/>
		<ellipse class="st38" cx="-84.3" cy="-1070.3" rx="4.8" ry="4.5"/>
		<path class="st27" d="M-84.3-1095.1"/>
		<path class="st27" d="M-84.3-1105.6"/>
		<path class="st29" d="M-84.9-1076.3c-0.1,1.4,0,2.9,0,4.4c0,0.6,0,1.6,0.6,1.6c0.6,0.1,0.6-1.2,0.6-1.7c0-1.4,0.1-2.9,0-4.3
			c0-0.4-0.1-0.8-0.2-1.1C-84.5-1078.4-84.9-1076.9-84.9-1076.3z"/>
		<path class="st39" d="M-86.6-1086.4c1.1,0,2.5,0.9,3.3,1.6c1.7,1.4,3.1,4,2.8,6.3c-0.2,2.1-1.9,4-4.1,4.1c-1.8,0-3.5-1.2-3.7-3
			c-0.2-1.6,0.6-3.3,1.4-4.6C-86.1-1083.4-85.6-1085.1-86.6-1086.4z"/>
	</g>
	<g class="st35">
		<ellipse class="st36" cx="-401.8" cy="-894.5" rx="4.8" ry="4.5"/>
		<rect x="-406.6" y="-927.9" class="st36" width="9.7" height="33.4"/>
		<ellipse class="st36" cx="-401.8" cy="-927.9" rx="4.8" ry="4.5"/>
		<path class="st36" d="M-401.8-952.6"/>
		<path class="st36" d="M-401.8-963.1"/>
		<path class="st36" d="M-402.4-933.8c-0.1,1.4,0,2.9,0,4.4c0,0.6,0,1.6,0.6,1.6c0.6,0.1,0.6-1.2,0.6-1.7c0-1.4,0.1-2.9,0-4.3
			c0-0.4-0.1-0.8-0.2-1.1C-402-935.9-402.3-934.4-402.4-933.8z"/>
		<path class="st36" d="M-404-943.9c1.1,0,2.5,0.9,3.3,1.6c1.7,1.4,3.1,4,2.8,6.3c-0.2,2.1-1.9,4-4.1,4.1c-1.8,0-3.5-1.2-3.7-3
			c-0.2-1.6,0.6-3.3,1.4-4.6C-403.5-940.9-403.1-942.6-404-943.9z"/>
	</g>
	<g class="st1">
		<ellipse class="st37" cx="-403.9" cy="-894.5" rx="4.8" ry="4.5"/>
		<rect x="-408.7" y="-927.9" class="st37" width="9.7" height="33.4"/>
		<ellipse class="st38" cx="-403.9" cy="-927.9" rx="4.8" ry="4.5"/>
		<path class="st27" d="M-403.9-952.6"/>
		<path class="st27" d="M-403.9-963.1"/>
		<path class="st29" d="M-404.5-933.8c-0.1,1.4,0,2.9,0,4.4c0,0.6,0,1.6,0.6,1.6c0.6,0.1,0.6-1.2,0.6-1.7c0-1.4,0.1-2.9,0-4.3
			c0-0.4-0.1-0.8-0.2-1.1C-404.1-935.9-404.4-934.4-404.5-933.8z"/>
		<path class="st39" d="M-406.1-943.9c1.1,0,2.5,0.9,3.3,1.6c1.7,1.4,3.1,4,2.8,6.3c-0.2,2.1-1.9,4-4.1,4.1c-1.8,0-3.5-1.2-3.7-3
			c-0.2-1.6,0.6-3.3,1.4-4.6C-405.6-940.9-405.2-942.6-406.1-943.9z"/>
	</g>
	<g class="st35">
		<ellipse class="st36" cx="-331.3" cy="-883.8" rx="4.8" ry="4.5"/>
		<rect x="-336.1" y="-917.2" class="st36" width="9.7" height="33.4"/>
		<ellipse class="st36" cx="-331.3" cy="-917.2" rx="4.8" ry="4.5"/>
		<path class="st36" d="M-331.3-941.9"/>
		<path class="st36" d="M-331.3-952.5"/>
		<path class="st36" d="M-331.9-923.1c-0.1,1.4,0,2.9,0,4.4c0,0.6,0,1.6,0.6,1.6c0.6,0.1,0.6-1.2,0.6-1.7c0-1.4,0.1-2.9,0-4.3
			c0-0.4-0.1-0.8-0.2-1.1C-331.5-925.2-331.8-923.7-331.9-923.1z"/>
		<path class="st36" d="M-333.5-933.2c1.1,0,2.5,0.9,3.3,1.6c1.7,1.4,3.1,4,2.8,6.3c-0.2,2.1-1.9,4-4.1,4.1c-1.8,0-3.5-1.2-3.7-3
			c-0.2-1.6,0.6-3.3,1.4-4.6C-333-930.2-332.6-931.9-333.5-933.2z"/>
	</g>
	<g class="st1">
		<ellipse class="st37" cx="-332.4" cy="-883.8" rx="4.8" ry="4.5"/>
		<rect x="-337.3" y="-917.2" class="st37" width="9.7" height="33.4"/>
		<ellipse class="st38" cx="-332.4" cy="-917.2" rx="4.8" ry="4.5"/>
		<path class="st27" d="M-332.4-941.9"/>
		<path class="st27" d="M-332.4-952.5"/>
		<path class="st29" d="M-333-923.1c-0.1,1.4,0,2.9,0,4.4c0,0.6,0,1.6,0.6,1.6c0.6,0.1,0.6-1.2,0.6-1.7c0-1.4,0.1-2.9,0-4.3
			c0-0.4-0.1-0.8-0.2-1.1C-332.6-925.2-333-923.7-333-923.1z"/>
		<path class="st39" d="M-334.7-933.2c1.1,0,2.5,0.9,3.3,1.6c1.7,1.4,3.1,4,2.8,6.3c-0.2,2.1-1.9,4-4.1,4.1c-1.8,0-3.5-1.2-3.7-3
			c-0.2-1.6,0.6-3.3,1.4-4.6C-334.2-930.2-333.7-931.9-334.7-933.2z"/>
	</g>
	<g class="st35">
		<ellipse class="st36" cx="-118.5" cy="-883.8" rx="4.8" ry="4.5"/>
		<rect x="-123.3" y="-917.2" class="st36" width="9.7" height="33.4"/>
		<ellipse class="st36" cx="-118.5" cy="-917.2" rx="4.8" ry="4.5"/>
		<path class="st36" d="M-118.5-941.9"/>
		<path class="st36" d="M-118.5-952.5"/>
		<path class="st36" d="M-119.1-923.1c-0.1,1.4,0,2.9,0,4.4c0,0.6,0,1.6,0.6,1.6c0.6,0.1,0.6-1.2,0.6-1.7c0-1.4,0.1-2.9,0-4.3
			c0-0.4-0.1-0.8-0.2-1.1C-118.7-925.2-119-923.7-119.1-923.1z"/>
		<path class="st36" d="M-120.7-933.2c1.1,0,2.5,0.9,3.3,1.6c1.7,1.4,3.1,4,2.8,6.3c-0.2,2.1-1.9,4-4.1,4.1c-1.8,0-3.5-1.2-3.7-3
			c-0.2-1.6,0.6-3.3,1.4-4.6C-120.2-930.2-119.8-931.9-120.7-933.2z"/>
	</g>
	<g class="st1">
		<ellipse class="st37" cx="-119.6" cy="-883.8" rx="4.8" ry="4.5"/>
		<rect x="-124.5" y="-917.2" class="st37" width="9.7" height="33.4"/>
		<ellipse class="st38" cx="-119.6" cy="-917.2" rx="4.8" ry="4.5"/>
		<path class="st27" d="M-119.6-941.9"/>
		<path class="st27" d="M-119.6-952.5"/>
		<path class="st29" d="M-120.2-923.1c-0.1,1.4,0,2.9,0,4.4c0,0.6,0,1.6,0.6,1.6c0.6,0.1,0.6-1.2,0.6-1.7c0-1.4,0.1-2.9,0-4.3
			c0-0.4-0.1-0.8-0.2-1.1C-119.8-925.2-120.2-923.7-120.2-923.1z"/>
		<path class="st39" d="M-121.9-933.2c1.1,0,2.5,0.9,3.3,1.6c1.7,1.4,3.1,4,2.8,6.3c-0.2,2.1-1.9,4-4.1,4.1c-1.8,0-3.5-1.2-3.7-3
			c-0.2-1.6,0.6-3.3,1.4-4.6C-121.4-930.2-120.9-931.9-121.9-933.2z"/>
	</g>
	<g class="st35">
		<ellipse class="st36" cx="-44.8" cy="-894.5" rx="4.8" ry="4.5"/>
		<rect x="-49.7" y="-927.9" class="st36" width="9.7" height="33.4"/>
		<ellipse class="st36" cx="-44.8" cy="-927.9" rx="4.8" ry="4.5"/>
		<path class="st36" d="M-44.8-952.6"/>
		<path class="st36" d="M-44.8-963.1"/>
		<path class="st36" d="M-45.4-933.8c-0.1,1.4,0,2.9,0,4.4c0,0.6,0,1.6,0.6,1.6c0.6,0.1,0.6-1.2,0.6-1.7c0-1.4,0.1-2.9,0-4.3
			c0-0.4-0.1-0.8-0.2-1.1C-45-935.9-45.4-934.4-45.4-933.8z"/>
		<path class="st36" d="M-47.1-943.9c1.1,0,2.5,0.9,3.3,1.6c1.7,1.4,3.1,4,2.8,6.3c-0.2,2.1-1.9,4-4.1,4.1c-1.8,0-3.5-1.2-3.7-3
			c-0.2-1.6,0.6-3.3,1.4-4.6C-46.6-940.9-46.1-942.6-47.1-943.9z"/>
	</g>
	<g class="st1">
		<ellipse class="st37" cx="-46" cy="-894.5" rx="4.8" ry="4.5"/>
		<rect x="-50.8" y="-927.9" class="st37" width="9.7" height="33.4"/>
		<ellipse class="st38" cx="-46" cy="-927.9" rx="4.8" ry="4.5"/>
		<path class="st27" d="M-46-952.6"/>
		<path class="st27" d="M-46-963.1"/>
		<path class="st29" d="M-46.6-933.8c-0.1,1.4,0,2.9,0,4.4c0,0.6,0,1.6,0.6,1.6c0.6,0.1,0.6-1.2,0.6-1.7c0-1.4,0.1-2.9,0-4.3
			c0-0.4-0.1-0.8-0.2-1.1C-46.2-935.9-46.5-934.4-46.6-933.8z"/>
		<path class="st39" d="M-48.2-943.9c1.1,0,2.5,0.9,3.3,1.6c1.7,1.4,3.1,4,2.8,6.3c-0.2,2.1-1.9,4-4.1,4.1c-1.8,0-3.5-1.2-3.7-3
			c-0.2-1.6,0.6-3.3,1.4-4.6C-47.7-940.9-47.3-942.6-48.2-943.9z"/>
	</g>
	<g class="st35">
		<ellipse class="st36" cx="-218.6" cy="-876.7" rx="4.8" ry="4.5"/>
		<rect x="-223.4" y="-910.1" class="st36" width="9.7" height="33.4"/>
		<ellipse class="st36" cx="-218.6" cy="-910.1" rx="4.8" ry="4.5"/>
		<path class="st36" d="M-218.6-934.8"/>
		<path class="st36" d="M-218.6-945.4"/>
		<path class="st36" d="M-219.2-916c-0.1,1.4,0,2.9,0,4.4c0,0.6,0,1.6,0.6,1.6c0.6,0.1,0.6-1.2,0.6-1.7c0-1.4,0.1-2.9,0-4.3
			c0-0.4-0.1-0.8-0.2-1.1C-218.8-918.2-219.1-916.6-219.2-916z"/>
		<path class="st36" d="M-220.8-926.1c1.1,0,2.5,0.9,3.3,1.6c1.7,1.4,3.1,4,2.8,6.3c-0.2,2.1-1.9,4-4.1,4.1c-1.8,0-3.5-1.2-3.7-3
			c-0.2-1.6,0.6-3.3,1.4-4.6C-220.3-923.1-219.9-924.9-220.8-926.1z"/>
	</g>
	<g class="st1">
		<ellipse class="st37" cx="-219.7" cy="-875.9" rx="4.8" ry="4.5"/>
		<rect x="-224.6" y="-909.3" class="st37" width="9.7" height="33.4"/>
		<ellipse class="st38" cx="-219.7" cy="-909.3" rx="4.8" ry="4.5"/>
		<path class="st27" d="M-219.7-934"/>
		<path class="st27" d="M-219.7-944.6"/>
		<path class="st29" d="M-220.3-915.2c-0.1,1.4,0,2.9,0,4.4c0,0.6,0,1.6,0.6,1.6c0.6,0.1,0.6-1.2,0.6-1.7c0-1.4,0.1-2.9,0-4.3
			c0-0.4-0.1-0.8-0.2-1.1C-219.9-917.3-220.3-915.8-220.3-915.2z"/>
		<path class="st39" d="M-222-925.3c1.1,0,2.5,0.9,3.3,1.6c1.7,1.4,3.1,4,2.8,6.3c-0.2,2.1-1.9,4-4.1,4.1c-1.8,0-3.5-1.2-3.7-3
			c-0.2-1.6,0.6-3.3,1.4-4.6C-221.5-922.3-221-924-222-925.3z"/>
	</g>
	<g class="st1">
		<ellipse class="st37" cx="-753.1" cy="-376.5" rx="12.9" ry="12"/>
		<rect x="-766.1" y="-465.7" class="st37" width="25.9" height="89.2"/>
		<ellipse class="st38" cx="-753.1" cy="-465.7" rx="12.9" ry="12"/>
		<path class="st27" d="M-753.1-531.9"/>
		<path class="st27" d="M-753.1-560"/>
		<path class="st29" d="M-754.7-481.6c-0.3,3.8,0,7.8,0,11.6c0,1.5,0,4.2,1.5,4.4c1.7,0.2,1.7-3.1,1.7-4.6c0-3.8,0.1-7.7,0-11.6
			c0-1-0.1-2.1-0.6-2.9C-753.7-487.2-754.6-483.2-754.7-481.6z"/>
		<path class="st39" d="M-759.2-508.6c3.1-0.1,6.7,2.3,8.9,4.2c4.7,3.9,8.2,10.7,7.6,16.8c-0.6,5.7-5.1,10.8-11,10.9
			c-4.8,0.1-9.5-3.2-10-8.1c-0.5-4.4,1.6-8.8,3.8-12.4C-757.8-500.5-756.6-505.2-759.2-508.6z"/>
	</g>
	<path class="st4" d="M406-741c7.4,3.1,15.4,6.3,23.9,5.9c15.2-0.6,26.2-12.1,41.4-12.5c17-0.5,29.4,12.8,46.4,13.9
		c16.1,1.1,29.9-9,46-9.4c18.8-0.5,33.3,11.9,51.7,14.6c30.2,4.5,58.5-18,88.8-13.8c9.8,1.4,18.6,5.4,28.4,6.8
		c21.2,3,41.1-7.1,61.5-12.3c22.7-5.8,48.3-5.5,70.7,0.8c6.7,1.9,13.9,5.1,14.5,10.1c0.6,4.7-4.8,8.6-10.1,11.5
		c-41.7,23-98,27.7-150.8,25.8s-105.3-9.4-158.1-7.5c-31.6,1.2-62.8,5.7-94.4,6.9s-64.7-1.2-91.8-12.7c-11.6-5-24.2-15.6-14.6-25.2
		C371.2-749.8,391.2-747.2,406-741z"/>
	<g class="st1">
		<path class="st40" d="M505.7-1182.5v180.8v31.1c0,0,274.9,59.5,555.9,0v-31.1v-180.8H505.7z"/>
		<path class="st41" d="M505.7-1143.9v173.3c0,0,274.9,61.6,555.9,0C1061.6-970.6,479.5-915.5,505.7-1143.9z"/>
		<path class="st42" d="M546.1-977.1c8.2,3.5,17.1,7,26.7,6.6c16.9-0.7,29.2-13.4,46.1-14c19-0.6,32.8,14.2,51.8,15.5
			c17.9,1.2,33.3-10.1,51.3-10.5c20.9-0.6,37.2,13.3,57.7,16.3c33.7,5,65.3-20,99-15.4c11,1.5,20.7,6.1,31.7,7.6
			c23.7,3.3,45.9-7.9,68.6-13.7c25.3-6.4,53.8-6.1,78.8,0.8c7.4,2.1,15.5,5.6,16.2,11.2c0.7,5.2-5.4,9.6-11.2,12.8
			c-46.5,25.6-109.3,30.9-168.2,28.8c-58.9-2.1-117.5-10.5-176.4-8.4c-35.3,1.3-70.1,6.4-105.3,7.7c-35.2,1.4-72.2-1.3-102.3-14.2
			c-12.9-5.5-27-17.4-16.3-28.1C507.3-986.9,529.6-984,546.1-977.1z"/>
		<path class="st42" d="M1063.9-1089.7c-0.2,11.1-8.3,8.3-8.3,8.3c-8-1.8-1.2-38.2-1.2-38.2c-5.2,13.4-11.4,0-11.4,0
			c-11.4-8-4.3,40.2-4.3,40.2c5.6,28.1-8.6,30.8-8.6,30.8c-13.6,2.1-6.8-73.5-6.8-73.5c-3.4-16.3-12.6-11-12.6-11
			c4.9,15.7-3.4,31.4-3.4,31.4c-29.9,31.1-15.7-38.8-15.7-38.8c-1.2-12.5-11.1-5-11.1-5c1.5,21.3-24.1,15.1-24.1,15.1
			c5.9,21.3-17,15.1-17,15.1c5.1,0.2,7.6,20.8,7.9,24.4c1,12,1.7,24.1,2.1,36.1c0.3,8.9-0.1,19.6-9.2,24.5
			c-20.2,10.9-23.7-64.7-24-71.8c-0.2-5.3,2.7-22.6-5.7-23.7c-5-0.7-6.5,14.9-9.4,19c-3.2,4.6-12.8,12.5-18.1,6.9
			c-5-5.3-2.4-14.9-1.6-21.1c0.8-6.1-2.2-14.9-10.8-15c-5-0.1-7.9,5.5-5.4,9.8c6,10.2,7.2,23.9,1.9,34.8c-2.8,5.7-9.7,8.1-15.8,6.1
			c-6.7-2.3-9.9-9.2-11.3-15.4c-0.9-4,0.7-15-5.4-15.3c-15.6-0.9-5.4,22.7-13.5,27.9c-10.1,6.5-20.3,4.2-20.7-8.5
			c-0.1-3.4,0.7-8.7-4.1-10.1c-11-3.1-6.3,30.7-5.8,35c2.1,18.5,9.5,39.4-1.8,56.5c-28.1,13.5-19.3-93-32-97.2
			c-9.4-3.1-7.8,15-7.8,19c0.1,9.9-14.4,14.3-18,4.1c-2.2-6.4,0.6-13-0.5-19.3c-13.7-14.1-15,15.8-15.3,23c-0.3,9,0.1,18,0.6,27
			c0.6,8.4,7.4,25.2-4.8,29.2c-15.1,5-15.1-18.4-16.3-26.6c-1.6-11.4-3.3-22.5-3.3-34c0-3.7,4-34.2,1.4-36
			c-8.5-5.7-9.8,8.2-10.2,13.1c-0.5,5.5-0.3,16.1-6.5,18.9c-14.6,6.7-17.8-11.7-18.7-21.5c-0.4-5,1.9-14.2-5.6-14.4
			c-3.9-0.1-6.9,3.2-6.1,7.1c2.8,14.5-5.2,21-5.2,21c-22.8,20.4-24.4-9.8-24.4-9.8c-16.3-7.4-9,30.8-8.9,30.8
			c2.7,14.2,3.6,32.9-1.2,46.7c-2.1,5.9-7.7,14-15.6,11.5c-6.2-2-7.4-10.9-8.1-16.1c-2.5-18.8-0.4-40.1,3.6-58.7
			c1.4-4.9,6.7-20.4-0.7-23.7c-8.9-4-5.2,14.4-5.5,18.2c-0.4,5.4-1.8,14.1-7.7,16.5c-21.9,8.9-18.6-44.3-18.6-44.3
			c-17.4-8.2-4.5,42.3-4.5,42.3c3.6,6.5,6.9,15.5,2.2,22.3c-6.4,9.2-18.3,5.8-22.9-2.7c-4-7.3-4.7-16.3-5-24.4
			c-0.6-12.7,0.8-25.2,2.3-37.8c-7.2,4.2-27.2,15.7-28.1,0.4c-0.3-4.1,1.9-7.6,2.5-11.5c1.7-10.6-8.5-19.4-6.8-30.2
			c2.6-16.9,22.5-24.1,37.4-28c50.6-13.2,104.1-18.6,156.2-22c60.8-3.9,121.9-3.5,182.7,0.5c56.7,3.8,117.4,5.2,172.4,20.3
			c17.8,4.9,32.7,10.5,30,27.8C1067.5-1146.4,1064.4-1117.1,1063.9-1089.7z"/>
	</g>
	<path class="st43" d="M1036.9-563.9c0,46-205,32.8-380.2,32.8s-352.1,20-372-34.5c-15.5-42.7,196.8-132.1,372-132.1
		S1036.9-609.9,1036.9-563.9z"/>
	<path class="st15" d="M985.9-581.2c0,40.1-169.9,4-319.8,4s-306.6,42.1-323.5-5.4c-13.3-37.2,168.3-115.1,318.1-115.1
		S985.9-621.3,985.9-581.2z"/>
</g>
</svg>
