<?xml version="1.0" encoding="utf-8"?>
<!-- Generator: Adobe Illustrator 19.2.0, SVG Export Plug-In . SVG Version: 6.00 Build 0)  -->
<svg version="1.1" id="Layer_1" xmlns="http://www.w3.org/2000/svg" xmlns:xlink="http://www.w3.org/1999/xlink" x="0px" y="0px"
	 viewBox="0 0 523.1 535.1" style="enable-background:new 0 0 523.1 535.1;" xml:space="preserve">
<style type="text/css">
	.st0{display:none;}
	.st1{fill:#E0962B;}
	.st2{fill:#2D1102;}
	.st3{fill:#49200E;}
	.st4{display:none;fill:#591E05;}
	.st5{opacity:0.36;fill:#E0962B;enable-background:new    ;}
	.st6{fill:#E8782D;}
	.st7{fill:#EAC62F;}
	.st8{fill:#EAC00F;}
	.st9{fill:#BFBFBF;}
	.st10{fill:#CE6925;}
	.st11{opacity:0.36;fill:#CE6925;enable-background:new    ;}
</style>
<g id="Layer_1_1_" class="st0">
</g>
<g id="เนื้อเค้ก3">
	<g>
		<path class="st1" d="M13.6,309.1v162.1v27.9c0,0,246.5,53.4,498.5,0v-27.9V309.1H13.6z"/>
		<path class="st2" d="M514.1,392.3c-0.2,10-7.5,7.4-7.5,7.4c-7.2-1.6-1.1-34.2-1.1-34.2c-4.7,12-10.2,0-10.2,0
			c-10.2-7.1-3.9,36.1-3.9,36.1c5,25.2-7.7,27.6-7.7,27.6c-12.2,1.9-6.1-65.9-6.1-65.9c-3-14.6-11.3-9.8-11.3-9.8
			c4.4,14.1-3,28.2-3,28.2c-26.8,27.9-14.1-34.8-14.1-34.8c-1.1-11.2-10-4.5-10-4.5c1.4,19.1-21.6,13.5-21.6,13.5
			c5.3,19.1-15.2,13.6-15.2,13.6c4.6,0.2,6.8,18.7,7.1,21.9c0.9,10.8,1.5,21.6,1.9,32.4c0.3,8-0.1,17.5-8.2,22
			c-18.1,9.8-21.3-58-21.5-64.4c-0.2-4.8,2.4-20.3-5.2-21.3c-4.5-0.6-5.8,13.3-8.4,17.1c-2.8,4.1-11.5,11.2-16.2,6.2
			c-4.5-4.8-2.1-13.3-1.4-19c0.7-5.5-2-13.4-9.7-13.5c-4.5-0.1-7.1,4.9-4.9,8.8c5.3,9.1,6.5,21.4,1.7,31.2
			c-2.5,5.1-8.7,7.3-14.1,5.4c-6-2-8.9-8.2-10.1-13.8c-0.8-3.6,0.7-13.4-4.8-13.8c-14-0.8-4.8,20.3-12.1,25
			c-9.1,5.8-18.2,3.7-18.6-7.6c-0.1-3.1,0.6-7.8-3.7-9c-9.8-2.8-5.6,27.6-5.2,31.4c1.9,16.5,8.5,35.3-1.6,50.6
			c-25.2,12.1-17.3-83.4-28.7-87.1c-8.4-2.8-7,13.5-7,17c0.1,8.9-12.9,12.8-16.1,3.7c-2-5.8,0.5-11.7-0.5-17.3
			c-12.2-12.7-13.5,14.2-13.7,20.6c-0.3,8.1,0,16.1,0.6,24.2c0.5,7.5,6.6,22.6-4.3,26.2c-13.5,4.5-13.6-16.5-14.6-23.8
			c-1.5-10.2-3-20.2-2.9-30.5c0-3.3,3.6-30.7,1.2-32.3c-7.6-5.1-8.8,7.4-9.2,11.8c-0.4,4.9-0.2,14.4-5.8,17
			c-13.1,6-16-10.5-16.7-19.3c-0.4-4.5,1.7-12.7-5-12.9c-3.5-0.1-6.2,2.9-5.5,6.4c2.5,13-4.7,18.9-4.7,18.9
			c-20.5,18.3-21.9-8.8-21.9-8.8c-14.6-6.7-8,27.6-8,27.7c2.5,12.7,3.2,29.5-1.1,41.8c-1.8,5.3-6.9,12.6-14,10.3
			c-5.6-1.8-6.6-9.8-7.2-14.4c-2.2-16.9-0.4-36,3.2-52.6c1.2-4.4,6-18.3-0.6-21.3c-7.9-3.6-4.7,12.9-5,16.3
			c-0.4,4.8-1.6,12.6-6.9,14.8c-19.6,8-16.7-39.8-16.7-39.8c-15.6-7.3-4.1,37.9-4.1,37.9c3.2,5.8,6.2,13.9,1.9,20
			c-5.8,8.2-16.4,5.2-20.6-2.5c-3.6-6.6-4.2-14.7-4.5-21.9c-0.5-11.4,0.7-22.6,2.1-33.9c-6.4,3.8-24.3,14-25.2,0.3
			c-0.2-3.7,1.7-6.8,2.3-10.3c1.5-9.5-7.6-17.4-6.1-27.1c2.3-15.2,20.2-21.6,33.6-25.1c45.3-11.8,93.3-16.7,140.1-19.7
			c54.5-3.5,109.3-3.2,163.8,0.5c50.8,3.4,105.3,4.7,154.6,18.2c15.9,4.4,29.3,9.4,26.9,24.9C517.3,341.4,514.6,367.7,514.1,392.3z"
			/>
	</g>
	<ellipse class="st3" cx="261.6" cy="311.7" rx="227.5" ry="32"/>
</g>
<g id="เนื้อเค้ก2">
	<g>
		<g>
			<path class="st1" d="M78.6,170.2v119.6v20.6c0,0,181.9,39.4,367.8,0v-20.6V170.2H78.6z"/>
			<path class="st2" d="M447.9,231.6c-0.1,7.3-5.5,5.5-5.5,5.5c-5.3-1.2-0.8-25.3-0.8-25.3c-3.5,8.9-7.6,0-7.6,0
				c-7.6-5.3-2.9,26.6-2.9,26.6c3.7,18.6-5.7,20.4-5.7,20.4c-9,1.4-4.5-48.6-4.5-48.6c-2.2-10.8-8.4-7.3-8.4-7.3
				c3.3,10.4-2.2,20.8-2.2,20.8c-19.8,20.6-10.4-25.7-10.4-25.7c-0.8-8.2-7.3-3.3-7.3-3.3c1,14.1-15.9,10-15.9,10
				c3.9,14.1-11.2,10-11.2,10c3.4,0.1,5,13.8,5.2,16.2c0.7,7.9,1.1,16,1.4,23.9c0.2,5.9-0.1,12.9-6.1,16.2
				c-13.4,7.2-15.7-42.8-15.9-47.5c-0.1-3.5,1.8-14.9-3.8-15.7c-3.3-0.4-4.3,9.8-6.2,12.6c-2.1,3.1-8.5,8.2-11.9,4.6
				c-3.3-3.5-1.6-9.8-1-14c0.5-4.1-1.5-9.9-7.1-10c-3.3-0.1-5.3,3.6-3.6,6.5c3.9,6.7,4.8,15.8,1.2,23.1c-1.8,3.7-6.4,5.4-10.4,4
				c-4.4-1.5-6.6-6.1-7.5-10.2c-0.6-2.6,0.5-9.9-3.5-10.2c-10.3-0.6-3.6,15-8.9,18.5c-6.7,4.3-13.4,2.8-13.7-5.6
				c-0.1-2.3,0.5-5.8-2.7-6.7c-7.3-2-4.1,20.3-3.8,23.2c1.4,12.2,6.3,26-1.2,37.3c-18.6,8.9-12.8-61.5-21.2-64.3
				c-6.2-2.1-5.2,9.9-5.1,12.6c0.1,6.6-9.5,9.5-11.9,2.7c-1.5-4.3,0.4-8.6-0.4-12.7c-9-9.3-10,10.4-10.1,15.2
				c-0.2,5.9,0,11.9,0.4,17.8c0.4,5.5,4.9,16.6-3.2,19.3c-10,3.3-10-12.2-10.8-17.6c-1.1-7.5-2.2-14.9-2.2-22.5
				c0-2.4,2.6-22.7,0.9-23.8c-5.6-3.8-6.5,5.4-6.8,8.7c-0.3,3.6-0.2,10.6-4.3,12.5c-9.6,4.4-11.8-7.8-12.4-14.2
				c-0.3-3.3,1.2-9.4-3.7-9.5c-2.6-0.1-4.6,2.1-4.1,4.7c1.8,9.6-3.5,13.9-3.5,13.9c-15.1,13.5-16.1-6.5-16.1-6.5
				c-10.8-4.9-5.9,20.4-5.9,20.4c1.8,9.4,2.4,21.7-0.8,30.9c-1.4,3.9-5.1,9.3-10.3,7.6c-4.1-1.3-4.9-7.2-5.3-10.6
				c-1.6-12.4-0.3-26.6,2.4-38.8c0.9-3.2,4.4-13.5-0.4-15.7c-5.9-2.7-3.5,9.5-3.7,12c-0.3,3.6-1.2,9.3-5.1,10.9
				c-14.5,5.9-12.3-29.3-12.3-29.3c-11.5-5.4-3,28-3,28c2.4,4.3,4.6,10.2,1.4,14.7c-4.3,6.1-12.1,3.8-15.2-1.8
				c-2.6-4.8-3.1-10.8-3.3-16.2c-0.4-8.4,0.5-16.7,1.5-25c-4.8,2.8-18,10.4-18.6,0.2c-0.2-2.7,1.3-5,1.7-7.6c1.1-7-5.6-12.8-4.5-20
				c1.7-11.2,14.9-16,24.8-18.5c33.4-8.7,68.9-12.3,103.4-14.5c40.2-2.6,80.6-2.3,120.9,0.4c37.5,2.5,77.7,3.5,114,13.4
				c11.8,3.2,21.6,6.9,19.9,18.4C450.3,194,448.3,213.4,447.9,231.6z"/>
		</g>
		<ellipse class="st3" cx="265.7" cy="172.1" rx="167.9" ry="23.6"/>
	</g>
</g>
<g id="เนื้อเค้ก1">
	<ellipse class="st4" cx="-646.9" cy="59.9" rx="146.6" ry="21"/>
	<g>
		<g>
			<path class="st1" d="M116.7,53.8v94.7v16.3c0,0,144,31.2,291.2,0v-16.3V53.8H116.7z"/>
			<path class="st2" d="M409.1,102.4c-0.1,5.8-4.4,4.3-4.4,4.3c-4.2-0.9-0.6-20-0.6-20c-2.7,7-6,0-6,0c-6-4.2-2.3,21.1-2.3,21.1
				c2.9,14.7-4.5,16.1-4.5,16.1c-7.1,1.1-3.6-38.5-3.6-38.5c-1.8-8.5-6.6-5.7-6.6-5.7c2.6,8.2-1.8,16.4-1.8,16.4
				c-15.7,16.3-8.2-20.3-8.2-20.3c-0.6-6.5-5.8-2.6-5.8-2.6c0.8,11.2-12.6,7.9-12.6,7.9c3.1,11.2-8.9,7.9-8.9,7.9
				c2.7,0.1,4,10.9,4.1,12.8c0.5,6.3,0.9,12.6,1.1,18.9c0.2,4.6,0,10.2-4.8,12.8c-10.6,5.7-12.4-33.9-12.6-37.6
				c-0.1-2.8,1.4-11.8-3-12.4c-2.6-0.4-3.4,7.8-4.9,10c-1.7,2.4-6.7,6.5-9.5,3.6c-2.6-2.8-1.2-7.8-0.8-11.1c0.4-3.2-1.2-7.8-5.6-7.9
				c-2.6,0-4.2,2.9-2.8,5.1c3.1,5.3,3.8,12.5,1,18.3c-1.4,3-5.1,4.2-8.3,3.2c-3.5-1.2-5.2-4.8-5.9-8c-0.5-2.1,0.4-7.8-2.8-8
				c-8.2-0.5-2.8,11.9-7.1,14.6c-5.3,3.4-10.6,2.2-10.9-4.5c-0.1-1.8,0.4-4.6-2.1-5.3c-5.8-1.6-3.3,16.1-3,18.3
				c1.1,9.7,5,20.6-0.9,29.6c-14.7,7.1-10.1-48.7-16.8-50.9c-4.9-1.6-4.1,7.9-4.1,9.9c0.1,5.2-7.6,7.5-9.4,2.2
				c-1.2-3.4,0.3-6.8-0.3-10.1c-7.2-7.4-7.9,8.3-8,12c-0.2,4.7,0,9.4,0.3,14.1c0.3,4.4,3.9,13.2-2.5,15.3c-7.9,2.6-7.9-9.7-8.5-13.9
				c-0.8-5.9-1.7-11.8-1.7-17.8c0-1.9,2.1-17.9,0.7-18.9c-4.4-3-5.1,4.3-5.4,6.9c-0.3,2.9-0.1,8.4-3.4,9.9
				c-7.6,3.5-9.3-6.2-9.8-11.3c-0.2-2.6,1-7.4-2.9-7.5c-2.1,0-3.6,1.7-3.2,3.7c1.5,7.6-2.7,11-2.7,11c-12,10.7-12.8-5.1-12.8-5.1
				c-8.6-3.9-4.7,16.1-4.7,16.2c1.4,7.4,1.9,17.2-0.6,24.4c-1.1,3.1-4.1,7.3-8.2,6c-3.3-1-3.9-5.7-4.2-8.4c-1.3-9.8-0.2-21,1.9-30.7
				c0.7-2.6,3.5-10.7-0.3-12.4c-4.6-2.1-2.7,7.5-2.9,9.5c-0.2,2.8-0.9,7.4-4,8.6c-11.5,4.7-9.7-23.2-9.7-23.2
				c-9.1-4.3-2.4,22.1-2.4,22.1c1.9,3.4,3.6,8.1,1.1,11.7c-3.4,4.8-9.6,3-12-1.4c-2.1-3.8-2.4-8.6-2.6-12.8
				c-0.3-6.6,0.4-13.2,1.2-19.8c-3.8,2.2-14.2,8.2-14.7,0.2c-0.1-2.1,1-4,1.3-6c0.9-5.6-4.4-10.1-3.6-15.8
				c1.3-8.9,11.8-12.6,19.6-14.7c26.5-6.9,54.5-9.8,81.8-11.5c31.9-2.1,63.8-1.9,95.7,0.3c29.7,2,61.5,2.7,90.3,10.6
				c9.3,2.5,17.1,5.5,15.7,14.6C411,72.7,409.4,88,409.1,102.4z"/>
		</g>
		<ellipse class="st3" cx="264.9" cy="55.3" rx="132.9" ry="18.7"/>
	</g>
</g>
<g id="Layer_8">
	<path class="st5" d="M13.6,343.7v155.4c0,0,246.5,55.2,498.5,0C512.1,499.1,13.7,534.9,13.6,343.7z"/>
	<path class="st5" d="M78.7,169.8L79,310.4c0,0,156.8,44.3,368-0.3C447,310.2,78.8,361,78.7,169.8z"/>
	<path class="st5" d="M116.4,65.1l0.2,99.7c0,0,140.1,32.5,296.4-0.9C413,163.9,116.5,200.6,116.4,65.1z"/>
</g>
<g id="Layer_7">
	<path class="st2" d="M49.8,493.3c7.4,3.1,15.4,6.3,23.9,5.9c15.2-0.6,26.2-12.1,41.4-12.5c17-0.5,29.4,12.8,46.4,13.9
		c16.1,1.1,29.9-9,46-9.4c18.8-0.5,33.3,11.9,51.7,14.6c30.2,4.5,58.5-18,88.8-13.8c9.8,1.4,18.6,5.4,28.4,6.8
		c21.2,3,41.1-7.1,61.5-12.3c22.7-5.8,48.3-5.5,70.7,0.8c6.7,1.9,13.9,5.1,14.5,10.1c0.6,4.7-4.8,8.6-10.1,11.5
		c-41.7,23-98,27.7-150.8,25.8s-105.3-9.4-158.1-7.5c-31.6,1.2-62.8,5.7-94.4,6.9S45,532.9,18,521.3c-11.6-5-24.2-15.6-14.6-25.2
		C15.1,484.5,35.1,487.1,49.8,493.3z"/>
</g>
<g id="Layer_6">
</g>
<g id="เทียนหมีหมี่">
	<path class="st6" d="M107.4-333"/>
	<path class="st6" d="M202.1-153.4"/>
	<path class="st6" d="M188.9,26.8"/>
	<g>
		<ellipse class="st7" cx="188.8" cy="49" rx="4.8" ry="4.5"/>
		<rect x="184" y="15.6" class="st7" width="9.7" height="33.4"/>
		<path class="st8" d="M193.7,15.6c0,2.5-1.8,3.6-4.5,3.6s-5.2-1.1-5.2-3.6s2.3-3.3,5-3.3C191.6,12.3,193.7,13.1,193.7,15.6z"/>
		<path class="st9" d="M188.5,10.9c-0.1,0.9-0.1,1.8-0.1,2.6c0,0.6,0,1.3,0,1.9c0,0.4,0,1.2,0.3,1.2c0.2,0,0.3-0.3,0.4-0.6
			c0-0.5,0.1-1,0.1-1.4c0-1.3,0.1-2.6,0.1-3.8c0-0.4,0-0.8-0.1-1.1C188.8,8.9,188.5,10.3,188.5,10.9z"/>
		<path class="st10" d="M186.8,1.5c0.9,0,2,0.8,2.7,1.3c1.4,1.2,2.5,3.2,2.4,5.1c-0.1,1.7-1.4,3.2-3.2,3.2c-1.4,0-2.8-1-3-2.5
			c-0.2-1.3,0.4-2.6,1-3.7C187.3,3.9,187.6,2.5,186.8,1.5z"/>
		<path class="st8" d="M192.4,20.4c0.1,0.1,0.1,0.2,0.3,0.2c0.2,0.1,0.4,0,0.5-0.1c0.3-0.3,0.3-0.7,0.3-1.1c0.1-0.8,0.1-1,0.2-1.8
			c0-0.5,0-1,0-1.5c0-0.8-0.2-0.9-0.5-0.8c-0.2,0.2-1.6,2.2-2.8,2.7c-1.1,0.4-2.4,0.3-3.4-0.4c-0.5-0.3-1.1-0.5-1.7-0.9
			c-0.2-0.2-0.5-0.3-0.7-0.5s-0.3-0.9-0.6-1.1c-0.1,0.3-0.2,1.2-0.2,1.5c0,0.5,0,1,0.1,1.4c0,0.4,0.1,0.8,0.4,1.1
			c0.5,0.6,1.1-0.1,1.5-0.4c0,0.1,0,0.3,0,0.4c0,0.1,0,0.3,0.1,0.4c0.1,0.2,0.1,0.5,0.3,0.7c0.2,0.4,0.7,0.7,1.1,0.5
			c0.7-0.3,0.1-1.7,1.1-1.7c0.5,0,0.7,0.4,0.8,0.9c0.1,0.4,0,1.1,0.5,1.4c0.3,0.2,0.7,0,0.9-0.2c0.3-0.3,0.5-0.7,0.7-1.2
			c0.1-0.3,0.1-1,0.4-1.1c0.4-0.2,0.5,0.2,0.5,0.5C192.3,19.8,192.2,20.2,192.4,20.4z"/>
		<path class="st11" d="M186.2,0c1.1,0,2.4,0.9,3.2,1.6c1.7,1.4,3.1,3.9,2.9,6.1c-0.1,2-1.6,3.7-3.7,3.7c-1.7,0-3.4-1.3-3.7-3
			c-0.2-1.6,0.4-3.1,1.2-4.3C186.7,2.9,187.1,1.3,186.2,0z"/>
	</g>
	<g>
		<ellipse class="st7" cx="339.8" cy="49" rx="4.8" ry="4.5"/>
		<rect x="335" y="15.6" class="st7" width="9.7" height="33.4"/>
		<path class="st8" d="M344.7,15.6c0,2.5-1.8,3.6-4.5,3.6s-5.2-1.1-5.2-3.6s2.3-3.3,5-3.3S344.7,13.1,344.7,15.6z"/>
		<path class="st9" d="M339.5,10.9c-0.1,0.9-0.1,1.8-0.1,2.6c0,0.6,0,1.3,0,1.9c0,0.4,0,1.2,0.3,1.2c0.2,0,0.3-0.3,0.4-0.6
			c0-0.5,0.1-1,0.1-1.4c0-1.3,0.1-2.6,0.1-3.8c0-0.4,0-0.8-0.1-1.1C339.8,8.9,339.5,10.3,339.5,10.9z"/>
		<path class="st10" d="M337.8,1.5c0.9,0,2,0.8,2.7,1.3c1.4,1.2,2.5,3.2,2.4,5.1c-0.1,1.7-1.4,3.2-3.2,3.2c-1.4,0-2.8-1-3-2.5
			c-0.2-1.3,0.4-2.6,1-3.7C338.3,3.9,338.6,2.5,337.8,1.5z"/>
		<path class="st8" d="M343.4,20.4c0.1,0.1,0.1,0.2,0.3,0.2c0.2,0.1,0.4,0,0.5-0.1c0.3-0.3,0.3-0.7,0.3-1.1c0.1-0.8,0.1-1,0.2-1.8
			c0-0.5,0-1,0-1.5c0-0.8-0.2-0.9-0.5-0.8c-0.2,0.2-1.6,2.2-2.8,2.7c-1.1,0.4-2.4,0.3-3.4-0.4c-0.5-0.3-1.1-0.5-1.7-0.9
			c-0.2-0.2-0.5-0.3-0.7-0.5s-0.3-0.9-0.6-1.1c-0.1,0.3-0.2,1.2-0.2,1.5c0,0.5,0,1,0.1,1.4c0,0.4,0.1,0.8,0.4,1.1
			c0.5,0.6,1.1-0.1,1.5-0.4c0,0.1,0,0.3,0,0.4c0,0.1,0,0.3,0.1,0.4c0.1,0.2,0.1,0.5,0.3,0.7c0.2,0.4,0.7,0.7,1.1,0.5
			c0.7-0.3,0.1-1.7,1.1-1.7c0.5,0,0.7,0.4,0.8,0.9c0.1,0.4,0,1.1,0.5,1.4c0.3,0.2,0.7,0,0.9-0.2c0.3-0.3,0.5-0.7,0.7-1.2
			c0.1-0.3,0.1-1,0.4-1.1c0.4-0.2,0.5,0.2,0.5,0.5C343.3,19.8,343.2,20.2,343.4,20.4z"/>
		<path class="st11" d="M337.2,0c1.1,0,2.4,0.9,3.2,1.6c1.7,1.4,3.1,3.9,2.9,6.1c-0.1,2-1.6,3.7-3.7,3.7c-1.7,0-3.4-1.3-3.7-3
			c-0.2-1.6,0.4-3.1,1.2-4.3C337.7,2.9,338.1,1.3,337.2,0z"/>
	</g>
	<path class="st6" d="M188.9,162.1"/>
	<g>
		<ellipse class="st7" cx="188.8" cy="184.3" rx="4.8" ry="4.5"/>
		<rect x="184" y="151" class="st7" width="9.7" height="33.4"/>
		<path class="st8" d="M193.7,151c0,2.5-1.8,3.6-4.5,3.6s-5.2-1.1-5.2-3.6s2.3-3.3,5-3.3C191.6,147.7,193.7,148.5,193.7,151z"/>
		<path class="st9" d="M188.5,146.2c-0.1,0.9-0.1,1.8-0.1,2.6c0,0.6,0,1.3,0,1.9c0,0.4,0,1.2,0.3,1.2c0.2,0,0.3-0.3,0.4-0.6
			c0-0.5,0.1-1,0.1-1.4c0-1.3,0.1-2.6,0.1-3.8c0-0.4,0-0.8-0.1-1.1C188.8,144.2,188.5,145.7,188.5,146.2z"/>
		<path class="st10" d="M186.8,136.8c0.9,0,2,0.8,2.7,1.3c1.4,1.2,2.5,3.2,2.4,5.1c-0.1,1.7-1.4,3.2-3.2,3.2c-1.4,0-2.8-1-3-2.5
			c-0.2-1.3,0.4-2.6,1-3.7C187.3,139.2,187.6,137.9,186.8,136.8z"/>
		<path class="st8" d="M192.4,155.8c0.1,0.1,0.1,0.2,0.3,0.2c0.2,0.1,0.4,0,0.5-0.1c0.3-0.3,0.3-0.7,0.3-1.1c0.1-0.8,0.1-1,0.2-1.8
			c0-0.5,0-1,0-1.5c0-0.8-0.2-0.9-0.5-0.8c-0.2,0.2-1.6,2.2-2.8,2.7c-1.1,0.4-2.4,0.3-3.4-0.4c-0.5-0.3-1.1-0.5-1.7-0.9
			c-0.2-0.2-0.5-0.3-0.7-0.5s-0.3-0.9-0.6-1.1c-0.1,0.3-0.2,1.2-0.2,1.5c0,0.5,0,1,0.1,1.4c0,0.4,0.1,0.8,0.4,1.1
			c0.5,0.6,1.1-0.1,1.5-0.4c0,0.1,0,0.3,0,0.4c0,0.1,0,0.3,0.1,0.4c0.1,0.2,0.1,0.5,0.3,0.7c0.2,0.4,0.7,0.7,1.1,0.5
			c0.7-0.3,0.1-1.7,1.1-1.7c0.5,0,0.7,0.4,0.8,0.9c0.1,0.4,0,1.1,0.5,1.4c0.3,0.2,0.7,0,0.9-0.2c0.3-0.3,0.5-0.7,0.7-1.2
			c0.1-0.3,0.1-1,0.4-1.1c0.4-0.2,0.5,0.2,0.5,0.5C192.3,155.1,192.2,155.5,192.4,155.8z"/>
		<path class="st11" d="M186.2,135.4c1.1,0,2.4,0.9,3.2,1.6c1.7,1.4,3.1,3.9,2.9,6.1c-0.1,2-1.6,3.7-3.7,3.7c-1.7,0-3.4-1.3-3.7-3
			c-0.2-1.6,0.4-3.1,1.2-4.3C186.7,138.2,187.1,136.6,186.2,135.4z"/>
	</g>
	<path class="st6" d="M270.9,313.1"/>
	<g>
		<ellipse class="st7" cx="270.8" cy="335.3" rx="4.8" ry="4.5"/>
		<rect x="266" y="302" class="st7" width="9.7" height="33.4"/>
		<path class="st8" d="M275.7,302c0,2.5-1.8,3.6-4.5,3.6s-5.2-1.1-5.2-3.6s2.3-3.3,5-3.3S275.7,299.5,275.7,302z"/>
		<path class="st9" d="M270.5,297.2c-0.1,0.9-0.1,1.8-0.1,2.6c0,0.6,0,1.3,0,1.9c0,0.4,0,1.2,0.3,1.2c0.2,0,0.3-0.3,0.4-0.6
			c0-0.5,0.1-1,0.1-1.4c0-1.3,0.1-2.6,0.1-3.8c0-0.4,0-0.8-0.1-1.1C270.8,295.2,270.5,296.7,270.5,297.2z"/>
		<path class="st10" d="M268.8,287.8c0.9,0,2,0.8,2.7,1.3c1.4,1.2,2.5,3.2,2.4,5.1c-0.1,1.7-1.4,3.2-3.2,3.2c-1.4,0-2.8-1-3-2.5
			c-0.2-1.3,0.4-2.6,1-3.7C269.3,290.2,269.6,288.9,268.8,287.8z"/>
		<path class="st8" d="M274.4,306.7c0.1,0.1,0.1,0.2,0.3,0.2c0.2,0.1,0.4,0,0.5-0.1c0.3-0.3,0.3-0.7,0.3-1.1c0.1-0.8,0.1-1,0.2-1.8
			c0-0.5,0-1,0-1.5c0-0.8-0.2-0.9-0.5-0.8c-0.2,0.2-1.6,2.2-2.8,2.7c-1.1,0.4-2.4,0.3-3.4-0.4c-0.5-0.3-1.1-0.5-1.7-0.9
			c-0.2-0.2-0.5-0.3-0.7-0.5s-0.3-0.9-0.6-1.1c-0.1,0.3-0.2,1.2-0.2,1.5c0,0.5,0,1,0.1,1.4c0,0.4,0.1,0.8,0.4,1.1
			c0.5,0.6,1.1-0.1,1.5-0.4c0,0.1,0,0.3,0,0.4s0,0.3,0.1,0.4c0.1,0.2,0.1,0.5,0.3,0.7c0.2,0.4,0.7,0.7,1.1,0.5
			c0.7-0.3,0.1-1.7,1.1-1.7c0.5,0,0.7,0.4,0.8,0.9c0.1,0.4,0,1.1,0.5,1.4c0.3,0.2,0.7,0,0.9-0.2c0.3-0.3,0.5-0.7,0.7-1.2
			c0.1-0.3,0.1-1,0.4-1.1c0.4-0.2,0.5,0.2,0.5,0.5C274.3,306.1,274.2,306.5,274.4,306.7z"/>
		<path class="st11" d="M268.1,286.4c1.1,0,2.4,0.9,3.2,1.6c1.7,1.4,3.1,3.9,2.9,6.1c-0.1,2-1.6,3.7-3.7,3.7c-1.7,0-3.4-1.3-3.7-3
			c-0.2-1.6,0.4-3.1,1.2-4.3C268.7,289.2,269.1,287.6,268.1,286.4z"/>
	</g>
	<g>
		<ellipse class="st7" cx="339.8" cy="184.3" rx="4.8" ry="4.5"/>
		<rect x="335" y="151" class="st7" width="9.7" height="33.4"/>
		<path class="st8" d="M344.7,151c0,2.5-1.8,3.6-4.5,3.6s-5.2-1.1-5.2-3.6s2.3-3.3,5-3.3S344.7,148.5,344.7,151z"/>
		<path class="st9" d="M339.5,146.2c-0.1,0.9-0.1,1.8-0.1,2.6c0,0.6,0,1.3,0,1.9c0,0.4,0,1.2,0.3,1.2c0.2,0,0.3-0.3,0.4-0.6
			c0-0.5,0.1-1,0.1-1.4c0-1.3,0.1-2.6,0.1-3.8c0-0.4,0-0.8-0.1-1.1C339.8,144.2,339.5,145.7,339.5,146.2z"/>
		<path class="st10" d="M337.8,136.8c0.9,0,2,0.8,2.7,1.3c1.4,1.2,2.5,3.2,2.4,5.1c-0.1,1.7-1.4,3.2-3.2,3.2c-1.4,0-2.8-1-3-2.5
			c-0.2-1.3,0.4-2.6,1-3.7C338.3,139.2,338.6,137.9,337.8,136.8z"/>
		<path class="st8" d="M343.4,155.8c0.1,0.1,0.1,0.2,0.3,0.2c0.2,0.1,0.4,0,0.5-0.1c0.3-0.3,0.3-0.7,0.3-1.1c0.1-0.8,0.1-1,0.2-1.8
			c0-0.5,0-1,0-1.5c0-0.8-0.2-0.9-0.5-0.8c-0.2,0.2-1.6,2.2-2.8,2.7c-1.1,0.4-2.4,0.3-3.4-0.4c-0.5-0.3-1.1-0.5-1.7-0.9
			c-0.2-0.2-0.5-0.3-0.7-0.5s-0.3-0.9-0.6-1.1c-0.1,0.3-0.2,1.2-0.2,1.5c0,0.5,0,1,0.1,1.4c0,0.4,0.1,0.8,0.4,1.1
			c0.5,0.6,1.1-0.1,1.5-0.4c0,0.1,0,0.3,0,0.4c0,0.1,0,0.3,0.1,0.4c0.1,0.2,0.1,0.5,0.3,0.7c0.2,0.4,0.7,0.7,1.1,0.5
			c0.7-0.3,0.1-1.7,1.1-1.7c0.5,0,0.7,0.4,0.8,0.9c0.1,0.4,0,1.1,0.5,1.4c0.3,0.2,0.7,0,0.9-0.2c0.3-0.3,0.5-0.7,0.7-1.2
			c0.1-0.3,0.1-1,0.4-1.1c0.4-0.2,0.5,0.2,0.5,0.5C343.3,155.1,343.2,155.5,343.4,155.8z"/>
		<path class="st11" d="M337.2,135.4c1.1,0,2.4,0.9,3.2,1.6c1.7,1.4,3.1,3.9,2.9,6.1c-0.1,2-1.6,3.7-3.7,3.7c-1.7,0-3.4-1.3-3.7-3
			c-0.2-1.6,0.4-3.1,1.2-4.3C337.7,138.2,338.1,136.6,337.2,135.4z"/>
	</g>
	<path class="st6" d="M118,176.5"/>
	<g>
		<ellipse class="st7" cx="118" cy="172" rx="4.8" ry="4.5"/>
		<rect x="113.2" y="138.6" class="st7" width="9.7" height="33.4"/>
		<path class="st8" d="M122.8,138.6c0,2.5-1.8,3.6-4.5,3.6s-5.2-1.1-5.2-3.6s2.3-3.3,5-3.3S122.8,136.1,122.8,138.6z"/>
		<path class="st9" d="M117.7,133.9c-0.1,0.9-0.1,1.8-0.1,2.6c0,0.6,0,1.3,0,1.9c0,0.4,0,1.2,0.3,1.2c0.2,0,0.3-0.3,0.4-0.6
			c0-0.5,0.1-1,0.1-1.4c0-1.3,0.1-2.6,0.1-3.8c0-0.4,0-0.8-0.1-1.1C117.9,131.9,117.7,133.3,117.7,133.9z"/>
		<path class="st10" d="M116,124.5c0.9,0,2,0.8,2.7,1.3c1.4,1.2,2.5,3.2,2.4,5.1c-0.1,1.7-1.4,3.2-3.2,3.2c-1.4,0-2.8-1-3-2.5
			c-0.2-1.3,0.4-2.6,1-3.7C116.5,126.9,116.8,125.5,116,124.5z"/>
		<path class="st8" d="M121.5,143.4c0.1,0.1,0.1,0.2,0.3,0.2c0.2,0.1,0.4,0,0.5-0.1c0.3-0.3,0.3-0.7,0.3-1.1c0.1-0.8,0.1-1,0.2-1.8
			c0-0.5,0-1,0-1.5c0-0.8-0.2-0.9-0.5-0.8c-0.2,0.2-1.6,2.2-2.8,2.7c-1.1,0.4-2.4,0.3-3.4-0.4c-0.5-0.3-1.1-0.5-1.7-0.9
			c-0.2-0.2-0.5-0.3-0.7-0.5s-0.3-0.9-0.6-1.1c-0.1,0.3-0.2,1.2-0.2,1.5c0,0.5,0,1,0.1,1.4c0,0.4,0.1,0.8,0.4,1.1
			c0.5,0.6,1.1-0.1,1.5-0.4c0,0.1,0,0.3,0,0.4c0,0.1,0,0.3,0.1,0.4c0.1,0.2,0.1,0.5,0.3,0.7c0.2,0.4,0.7,0.7,1.1,0.5
			c0.7-0.3,0.1-1.7,1.1-1.7c0.5,0,0.7,0.4,0.8,0.9c0.1,0.4,0,1.1,0.5,1.4c0.3,0.2,0.7,0,0.9-0.2c0.3-0.3,0.5-0.7,0.7-1.2
			c0.1-0.3,0.1-1,0.4-1.1c0.4-0.2,0.5,0.2,0.5,0.5C121.4,142.8,121.4,143.2,121.5,143.4z"/>
		<path class="st11" d="M115.3,123c1.1,0,2.4,0.9,3.2,1.6c1.7,1.4,3.1,3.9,2.9,6.1c-0.1,2-1.6,3.7-3.7,3.7c-1.7,0-3.4-1.3-3.7-3
			c-0.2-1.6,0.4-3.1,1.2-4.3C115.9,125.9,116.3,124.3,115.3,123z"/>
	</g>
	<g>
		<ellipse class="st7" cx="406.8" cy="172" rx="4.8" ry="4.5"/>
		<rect x="402" y="138.6" class="st7" width="9.7" height="33.4"/>
		<path class="st8" d="M411.7,138.6c0,2.5-1.8,3.6-4.5,3.6s-5.2-1.1-5.2-3.6s2.3-3.3,5-3.3S411.7,136.1,411.7,138.6z"/>
		<path class="st9" d="M406.5,133.9c-0.1,0.9-0.1,1.8-0.1,2.6c0,0.6,0,1.3,0,1.9c0,0.4,0,1.2,0.3,1.2c0.2,0,0.3-0.3,0.4-0.6
			c0-0.5,0.1-1,0.1-1.4c0-1.3,0.1-2.6,0.1-3.8c0-0.4,0-0.8-0.1-1.1C406.8,131.9,406.5,133.3,406.5,133.9z"/>
		<path class="st10" d="M404.8,124.5c0.9,0,2,0.8,2.7,1.3c1.4,1.2,2.5,3.2,2.4,5.1c-0.1,1.7-1.4,3.2-3.2,3.2c-1.4,0-2.8-1-3-2.5
			c-0.2-1.3,0.4-2.6,1-3.7C405.3,126.9,405.6,125.5,404.8,124.5z"/>
		<path class="st8" d="M410.4,143.4c0.1,0.1,0.1,0.2,0.3,0.2c0.2,0.1,0.4,0,0.5-0.1c0.3-0.3,0.3-0.7,0.3-1.1c0.1-0.8,0.1-1,0.2-1.8
			c0-0.5,0-1,0-1.5c0-0.8-0.2-0.9-0.5-0.8c-0.2,0.2-1.6,2.2-2.8,2.7c-1.1,0.4-2.4,0.3-3.4-0.4c-0.5-0.3-1.1-0.5-1.7-0.9
			c-0.2-0.2-0.5-0.3-0.7-0.5s-0.3-0.9-0.6-1.1c-0.1,0.3-0.2,1.2-0.2,1.5c0,0.5,0,1,0.1,1.4c0,0.4,0.1,0.8,0.4,1.1
			c0.5,0.6,1.1-0.1,1.5-0.4c0,0.1,0,0.3,0,0.4c0,0.1,0,0.3,0.1,0.4c0.1,0.2,0.1,0.5,0.3,0.7c0.2,0.4,0.7,0.7,1.1,0.5
			c0.7-0.3,0.1-1.7,1.1-1.7c0.5,0,0.7,0.4,0.8,0.9c0.1,0.4,0,1.1,0.5,1.4c0.3,0.2,0.7,0,0.9-0.2c0.3-0.3,0.5-0.7,0.7-1.2
			c0.1-0.3,0.1-1,0.4-1.1c0.4-0.2,0.5,0.2,0.5,0.5C410.3,142.8,410.2,143.2,410.4,143.4z"/>
		<path class="st11" d="M404.2,123c1.1,0,2.4,0.9,3.2,1.6c1.7,1.4,3.1,3.9,2.9,6.1c-0.1,2-1.6,3.7-3.7,3.7c-1.7,0-3.4-1.3-3.7-3
			c-0.2-1.6,0.4-3.1,1.2-4.3C404.7,125.9,405.1,124.3,404.2,123z"/>
	</g>
	<path class="st6" d="M147,305.6"/>
	<g>
		<ellipse class="st7" cx="147" cy="327.8" rx="4.8" ry="4.5"/>
		<rect x="142.2" y="294.5" class="st7" width="9.7" height="33.4"/>
		<path class="st8" d="M151.8,294.5c0,2.5-1.8,3.6-4.5,3.6s-5.2-1.1-5.2-3.6s2.3-3.3,5-3.3C149.8,291.2,151.8,292,151.8,294.5z"/>
		<path class="st9" d="M146.7,289.8c-0.1,0.9-0.1,1.8-0.1,2.6c0,0.6,0,1.3,0,1.9c0,0.4,0,1.2,0.3,1.2c0.2,0,0.3-0.3,0.4-0.6
			c0-0.5,0.1-1,0.1-1.4c0-1.3,0.1-2.6,0.1-3.8c0-0.4,0-0.8-0.1-1.1C146.9,287.7,146.7,289.2,146.7,289.8z"/>
		<path class="st10" d="M145,280.3c0.9,0,2,0.8,2.7,1.3c1.4,1.2,2.5,3.2,2.4,5.1c-0.1,1.7-1.4,3.2-3.2,3.2c-1.4,0-2.8-1-3-2.5
			c-0.2-1.3,0.4-2.6,1-3.7C145.5,282.7,145.8,281.4,145,280.3z"/>
		<path class="st8" d="M150.5,299.3c0.1,0.1,0.1,0.2,0.3,0.2c0.2,0.1,0.4,0,0.5-0.1c0.3-0.3,0.3-0.7,0.3-1.1c0.1-0.8,0.1-1,0.2-1.8
			c0-0.5,0-1,0-1.5c0-0.8-0.2-0.9-0.5-0.8c-0.2,0.2-1.6,2.2-2.8,2.7c-1.1,0.4-2.4,0.3-3.4-0.4c-0.5-0.3-1.1-0.5-1.7-0.9
			c-0.2-0.2-0.5-0.3-0.7-0.5s-0.3-0.9-0.6-1.1c-0.1,0.3-0.2,1.2-0.2,1.5c0,0.5,0,1,0.1,1.4c0,0.4,0.1,0.8,0.4,1.1
			c0.5,0.6,1.1-0.1,1.5-0.4c0,0.1,0,0.3,0,0.4s0,0.3,0.1,0.4c0.1,0.2,0.1,0.5,0.3,0.7c0.2,0.4,0.7,0.7,1.1,0.5
			c0.7-0.3,0.1-1.7,1.1-1.7c0.5,0,0.7,0.4,0.8,0.9c0.1,0.4,0,1.1,0.5,1.4c0.3,0.2,0.7,0,0.9-0.2c0.3-0.3,0.5-0.7,0.7-1.2
			c0.1-0.3,0.1-1,0.4-1.1c0.4-0.2,0.5,0.2,0.5,0.5C150.4,298.6,150.4,299,150.5,299.3z"/>
		<path class="st11" d="M144.3,278.9c1.1,0,2.4,0.9,3.2,1.6c1.7,1.4,3.1,3.9,2.9,6.1c-0.1,2-1.6,3.7-3.7,3.7c-1.7,0-3.4-1.3-3.7-3
			c-0.2-1.6,0.4-3.1,1.2-4.3C144.9,281.7,145.3,280.1,144.3,278.9z"/>
	</g>
	<g>
		<ellipse class="st7" cx="376" cy="327.8" rx="4.8" ry="4.5"/>
		<rect x="371.2" y="294.5" class="st7" width="9.7" height="33.4"/>
		<path class="st8" d="M380.8,294.5c0,2.5-1.8,3.6-4.5,3.6s-5.2-1.1-5.2-3.6s2.3-3.3,5-3.3S380.8,292,380.8,294.5z"/>
		<path class="st9" d="M375.7,289.8c-0.1,0.9-0.1,1.8-0.1,2.6c0,0.6,0,1.3,0,1.9c0,0.4,0,1.2,0.3,1.2c0.2,0,0.3-0.3,0.4-0.6
			c0-0.5,0.1-1,0.1-1.4c0-1.3,0.1-2.6,0.1-3.8c0-0.4,0-0.8-0.1-1.1C375.9,287.7,375.7,289.2,375.7,289.8z"/>
		<path class="st10" d="M374,280.3c0.9,0,2,0.8,2.7,1.3c1.4,1.2,2.5,3.2,2.4,5.1c-0.1,1.7-1.4,3.2-3.2,3.2c-1.4,0-2.8-1-3-2.5
			c-0.2-1.3,0.4-2.6,1-3.7C374.5,282.7,374.8,281.4,374,280.3z"/>
		<path class="st8" d="M379.5,299.3c0.1,0.1,0.1,0.2,0.3,0.2c0.2,0.1,0.4,0,0.5-0.1c0.3-0.3,0.3-0.7,0.3-1.1c0.1-0.8,0.1-1,0.2-1.8
			c0-0.5,0-1,0-1.5c0-0.8-0.2-0.9-0.5-0.8c-0.2,0.2-1.6,2.2-2.8,2.7c-1.1,0.4-2.4,0.3-3.4-0.4c-0.5-0.3-1.1-0.5-1.7-0.9
			c-0.2-0.2-0.5-0.3-0.7-0.5s-0.3-0.9-0.6-1.1c-0.1,0.3-0.2,1.2-0.2,1.5c0,0.5,0,1,0.1,1.4c0,0.4,0.1,0.8,0.4,1.1
			c0.5,0.6,1.1-0.1,1.5-0.4c0,0.1,0,0.3,0,0.4s0,0.3,0.1,0.4c0.1,0.2,0.1,0.5,0.3,0.7c0.2,0.4,0.7,0.7,1.1,0.5
			c0.7-0.3,0.1-1.7,1.1-1.7c0.5,0,0.7,0.4,0.8,0.9c0.1,0.4,0,1.1,0.5,1.4c0.3,0.2,0.7,0,0.9-0.2c0.3-0.3,0.5-0.7,0.7-1.2
			c0.1-0.3,0.1-1,0.4-1.1c0.4-0.2,0.5,0.2,0.5,0.5C379.4,298.6,379.4,299,379.5,299.3z"/>
		<path class="st11" d="M373.3,278.9c1.1,0,2.4,0.9,3.2,1.6c1.7,1.4,3.1,3.9,2.9,6.1c-0.1,2-1.6,3.7-3.7,3.7c-1.7,0-3.4-1.3-3.7-3
			c-0.2-1.6,0.4-3.1,1.2-4.3C373.9,281.7,374.3,280.1,373.3,278.9z"/>
	</g>
	<path class="st6" d="M76.2,266.1"/>
	<g>
		<ellipse class="st7" cx="76.2" cy="315.1" rx="4.8" ry="4.5"/>
		<rect x="71.3" y="281.7" class="st7" width="9.7" height="33.4"/>
		<path class="st8" d="M81,281.7c0,2.5-1.8,3.6-4.5,3.6s-5.2-1.1-5.2-3.6s2.3-3.3,5-3.3S81,279.2,81,281.7z"/>
		<path class="st9" d="M75.8,277c-0.1,0.9-0.1,1.8-0.1,2.6c0,0.6,0,1.3,0,1.9c0,0.4,0,1.2,0.3,1.2c0.2,0,0.3-0.3,0.4-0.6
			c0-0.5,0.1-1,0.1-1.4c0-1.3,0.1-2.6,0.1-3.8c0-0.4,0-0.8-0.1-1.1C76.1,274.9,75.9,276.4,75.8,277z"/>
		<path class="st10" d="M74.2,267.6c0.9,0,2,0.8,2.7,1.3c1.4,1.2,2.5,3.2,2.4,5.1c-0.1,1.7-1.4,3.2-3.2,3.2c-1.4,0-2.8-1-3-2.5
			c-0.2-1.3,0.4-2.6,1-3.7C74.7,270,75,268.6,74.2,267.6z"/>
		<path class="st8" d="M79.7,286.5c0.1,0.1,0.1,0.2,0.3,0.2c0.2,0.1,0.4,0,0.5-0.1c0.3-0.3,0.3-0.7,0.3-1.1c0.1-0.8,0.1-1,0.2-1.8
			c0-0.5,0-1,0-1.5c0-0.8-0.2-0.9-0.5-0.8c-0.2,0.2-1.6,2.2-2.8,2.7c-1.1,0.4-2.4,0.3-3.4-0.4c-0.5-0.3-1.1-0.5-1.7-0.9
			c-0.2-0.2-0.5-0.3-0.7-0.5s-0.3-0.9-0.6-1.1c-0.1,0.3-0.2,1.2-0.2,1.5c0,0.5,0,1,0.1,1.4c0,0.4,0.1,0.8,0.4,1.1
			c0.5,0.6,1.1-0.1,1.5-0.4c0,0.1,0,0.3,0,0.4s0,0.3,0.1,0.4c0.1,0.2,0.1,0.5,0.3,0.7c0.2,0.4,0.7,0.7,1.1,0.5
			c0.7-0.3,0.1-1.7,1.1-1.7c0.5,0,0.7,0.4,0.8,0.9c0.1,0.4,0,1.1,0.5,1.4c0.3,0.2,0.7,0,0.9-0.2c0.3-0.3,0.5-0.7,0.7-1.2
			c0.1-0.3,0.1-1,0.4-1.1c0.4-0.2,0.5,0.2,0.5,0.5C79.6,285.9,79.6,286.2,79.7,286.5z"/>
		<path class="st11" d="M73.5,266.1c1.1,0,2.4,0.9,3.2,1.6c1.7,1.4,3.1,3.9,2.9,6.1c-0.1,2-1.6,3.7-3.7,3.7c-1.7,0-3.4-1.3-3.7-3
			c-0.2-1.6,0.4-3.1,1.2-4.3C74.1,268.9,74.5,267.3,73.5,266.1z"/>
	</g>
	<g>
		<ellipse class="st7" cx="443" cy="315.1" rx="4.8" ry="4.5"/>
		<rect x="438.2" y="281.7" class="st7" width="9.7" height="33.4"/>
		<path class="st8" d="M447.8,281.7c0,2.5-1.8,3.6-4.5,3.6s-5.2-1.1-5.2-3.6s2.3-3.3,5-3.3S447.8,279.2,447.8,281.7z"/>
		<path class="st9" d="M442.7,277c-0.1,0.9-0.1,1.8-0.1,2.6c0,0.6,0,1.3,0,1.9c0,0.4,0,1.2,0.3,1.2c0.2,0,0.3-0.3,0.4-0.6
			c0-0.5,0.1-1,0.1-1.4c0-1.3,0.1-2.6,0.1-3.8c0-0.4,0-0.8-0.1-1.1C442.9,274.9,442.7,276.4,442.7,277z"/>
		<path class="st10" d="M441,267.6c0.9,0,2,0.8,2.7,1.3c1.4,1.2,2.5,3.2,2.4,5.1c-0.1,1.7-1.4,3.2-3.2,3.2c-1.4,0-2.8-1-3-2.5
			c-0.2-1.3,0.4-2.6,1-3.7C441.5,270,441.8,268.6,441,267.6z"/>
		<path class="st8" d="M446.5,286.5c0.1,0.1,0.1,0.2,0.3,0.2c0.2,0.1,0.4,0,0.5-0.1c0.3-0.3,0.3-0.7,0.3-1.1c0.1-0.8,0.1-1,0.2-1.8
			c0-0.5,0-1,0-1.5c0-0.8-0.2-0.9-0.5-0.8c-0.2,0.2-1.6,2.2-2.8,2.7c-1.1,0.4-2.4,0.3-3.4-0.4c-0.5-0.3-1.1-0.5-1.7-0.9
			c-0.2-0.2-0.5-0.3-0.7-0.5s-0.3-0.9-0.6-1.1c-0.1,0.3-0.2,1.2-0.2,1.5c0,0.5,0,1,0.1,1.4c0,0.4,0.1,0.8,0.4,1.1
			c0.5,0.6,1.1-0.1,1.5-0.4c0,0.1,0,0.3,0,0.4s0,0.3,0.1,0.4c0.1,0.2,0.1,0.5,0.3,0.7c0.2,0.4,0.7,0.7,1.1,0.5
			c0.7-0.3,0.1-1.7,1.1-1.7c0.5,0,0.7,0.4,0.8,0.9c0.1,0.4,0,1.1,0.5,1.4c0.3,0.2,0.7,0,0.9-0.2c0.3-0.3,0.5-0.7,0.7-1.2
			c0.1-0.3,0.1-1,0.4-1.1c0.4-0.2,0.5,0.2,0.5,0.5C446.4,285.9,446.4,286.2,446.5,286.5z"/>
		<path class="st11" d="M440.3,266.1c1.1,0,2.4,0.9,3.2,1.6c1.7,1.4,3.1,3.9,2.9,6.1c-0.1,2-1.6,3.7-3.7,3.7c-1.7,0-3.4-1.3-3.7-3
			c-0.2-1.6,0.4-3.1,1.2-4.3C440.9,268.9,441.3,267.3,440.3,266.1z"/>
	</g>
</g>
</svg>
