<svg xmlns="http://www.w3.org/2000/svg" viewBox="0 0 649.57 395.62"><defs><style>.cls-1{isolation:isolate;}.cls-2{fill:#844f10;}.cls-3{fill:#c1751a;}.cls-4{fill:#ceb034;}.cls-5{fill:#998326;}.cls-6{fill:#bca12e;}.cls-7{fill:#bf455c;}.cls-8{fill:#aa3551;}.cls-9{fill:#c1b6a0;}.cls-10{fill:#421f05;}.cls-11{fill:#330a1b;}.cls-12{fill:#bf165b;}.cls-13{fill:#f2f2f2;}.cls-14{fill:#ea6a13;}.cls-15{fill:#fcad77;opacity:0.33;}.cls-15,.cls-29{mix-blend-mode:multiply;}.cls-16{fill:#af8d71;}.cls-17{fill:#a85eaa;}.cls-18{fill:#23af94;}.cls-19{fill:#890000;}.cls-20{fill:#d3afaf;}.cls-21{fill:#494949;opacity:0.3;}.cls-21,.cls-47{fill-rule:evenodd;}.cls-22{fill:#7a6716;}.cls-23{fill:#af9422;}.cls-24{fill:#7f3c67;}.cls-25{fill:#6d2c59;}.cls-26{fill:#bc7f35;}.cls-27{fill:#c19857;}.cls-28{fill:#cec3aa;}.cls-29{fill:#d8c08b;opacity:0.49;}.cls-30{fill:#d11939;}.cls-31{fill:#d33346;}.cls-32{fill:#5e2e22;}.cls-33{fill:#5b1608;}.cls-34{fill:#a85038;}.cls-35{fill:#87402d;}.cls-36{fill:#d8b398;}.cls-37{fill:#99402b;}.cls-38{fill:#563104;}.cls-39{fill:none;stroke:#87402d;stroke-miterlimit:10;stroke-width:3px;}.cls-40{fill:#5191a5;}.cls-41{fill:#3a7e89;}.cls-42{fill:#663902;}.cls-43{fill:#442c06;}.cls-44{fill:#d89cb3;}.cls-45{fill:#c983a2;}.cls-46,.cls-47{fill:#85a838;}.cls-48{fill:#73931c;}.cls-49{fill:#068689;}.cls-50{fill:#4f240c;}.cls-51{fill:#077;}.cls-52{fill:#309964;}.cls-53{fill:#1f7f4a;}.cls-54{fill:#62319b;}.cls-55{fill:#442572;}.cls-56{fill:#cc4a4a;}.cls-57{fill:#a53d3d;}</style></defs><title>wholecake-night</title><g class="cls-1"><g id="Layer_11" data-name="Layer 11"><g id="เกาะ"><path class="cls-2" d="M13.27,333s-23.14,39.73,5,48,323.24,22.19,604.15,0c12.31-1,36.41-16.55,11.59-48-5.61-7.1-98.72-8.74-211.21-8.07l-22.74.17c-7.65,1-15.37-.46-23.13.22-7.76.32-15.57-1.19-23.4,0.27-7.83-.15-15.69.2-23.56,0.32C172.68,328.11,13.27,333,13.27,333Z"/><path class="cls-3" d="M644.09,362.21s8.86-34.81-19.94-43.09S331,312.49,35.25,314.21c-12.63.07-29.49,10.36-30.94,47-0.24,6.15,171.59,10.65,337.55,9.43C495.75,369.49,644.09,362.21,644.09,362.21Z"/><path class="cls-4" d="M643.73,340.23s5-27.64-24.86-30c-29.4-2.29-273.4-.48-566.46.49-12.57,0-38.83-2.75-42.49,22.93-0.5,3.52,3.21,12.63,27.12,14.51,4,0.31,18.08-10.58,22.61-5.67,4.53-2.32,9.32-8.92,14.35.77,5-13.43,10.31-5.84,15.8.66,5.5,12.62,11.21-10.85,17.13.56,5.92-7.8,12,5.52,18.34.46,6.3,8.81,12.79.26,19.43,0.37,11.63,0.19,23.76,6.89,36.27,7,6.26,0.05,12.61-6.46,19-6.42,6.44-.78,13-4.83,19.55.08,6.59-4.83,13.25,3.55,20,0,6.72-3.25,13.49-2.73,20.31,0,6.82-3.33,13.68-4.48,20.57-.06,6.89-1.53,13.81-2.42,20.75-.11l20.85-.14,13.07-.11c4.35-2.62,8.71-1.88,13.05-.12,4.35,0.22,8.69,3.87,13-.13,4.33,2.38,8.66-2,13-.14,4.31-.59,8.61,1,12.9-0.15,4.28,3.58,8.55,7.83,12.8,6.39,4.25-.05,8.48-6.66,12.69-6.72l21.88-.31c7.22,1.84,14.35,3.12,21.38-.33,7-4.07,14,15.1,20.77-.34,6.81,9.35,13.5,10.82,20-.35,6.55-6.81,13-6.51,19.22-.35,6.26,2.48,12.36-4.26,18.29-.35,5.93-1.57,11.69,2.2,17.26-.35,2.79-2,5.52-1.91,8.21-1.4s5.32,1.44,7.91,1.06c2.59,1.2,5.12,2.61,7.6-.16,2.48-3.15,4.9-5,7.27-.16,7.58-1.91,14.58,4.51,20.93,4.45,6.35-.28,12.05-9,17-5.31,5-.65,9.24-4.87,12.7-0.31l7.94-.2Z"/><path class="cls-5" d="M20,316.4s6.86,8.13,23.76,9.15c26.85,1.62,281.84,5.2,556.53-.72,11.72-.25,27.3-4.28,28.65-12.47,0.23-1.37-169.2,1.44-323.85.44C161.66,311.87,20,311.67,20,316.4Z"/><path class="cls-6" d="M427.73,230.3c-102.83,0-147.92,51.48-210.39,82.92l411.56-.86C583,291.79,530.55,230.3,427.73,230.3Z"/></g><path class="cls-6" d="M189.73,248.25c-88.31,0-129.31,44.84-170.06,68.15l347.7,2,49.87-2.2C374.72,296,278,248.25,189.73,248.25Z"/><path class="cls-7" d="M316.1,163.51l-4.2,73.37-0.72,12.62s110.2,30.56,225.63,12.93l0.72-12.62,4.2-73.37Z"/><path class="cls-8" d="M315.19,179.13l-4,70.34s28.24,32.58,143.71,14.13C454.87,263.6,305.26,268.22,315.19,179.13Z"/><path class="cls-9" d="M328.27,247.84c3.26,1.59,6.79,3.25,10.68,3.3,6.88,0.1,12.16-4.78,19-4.6,7.73,0.2,13,6.53,20.65,7.49,7.25,0.91,13.77-3.31,21.08-3.08,8.51,0.26,14.79,6.25,23,8,13.54,2.81,27-6.61,40.55-3.94,4.41,0.87,8.26,2.94,12.67,3.82,9.54,1.89,18.8-2.13,28.16-4a63.87,63.87,0,0,1,32,2.17c3,1,6.16,2.65,6.32,4.94,0.15,2.13-2.4,3.76-4.85,4.93-19.45,9.31-45.09,10-68.94,7.76s-47.43-7-71.38-7.5c-14.34-.3-28.58,1-42.92.69s-29.25-2.2-41.2-8.14c-5.12-2.54-10.56-7.69-6-11.78C312.77,243,321.75,244.66,328.27,247.84Z"/><path class="cls-10" d="M541,214.18c-0.35,4.5-3.57,3.17-3.57,3.17-3.21-.91.39-15.52,0.39-15.52-2.44,5.31-4.63-.27-4.63-0.27-4.45-3.49-2.69,16.23-2.69,16.23,1.6,11.55-4.22,12.3-4.22,12.3-5.56.53-1-30-1-30-1-6.69-4.88-4.74-4.88-4.74,1.64,6.49-2.11,12.67-2.11,12.67-12.87,11.93-5.48-16.13-5.48-16.13-0.21-5.09-4.39-2.29-4.39-2.29,0.13,8.69-10.12,5.57-10.12,5.57,1.88,8.79-7.23,5.74-7.24,5.74,2.08,0.19,2.59,8.62,2.63,10.09,0.14,4.89.11,9.83,0,14.72-0.06,3.61-.49,7.94-4.3,9.73-8.45,4-8.12-26.81-8.07-29.69,0-2.17,1.61-9.1-1.78-9.76-2-.39-3,5.88-4.24,7.51-1.39,1.8-5.49,4.76-7.49,2.39s-0.61-6.09-.14-8.61-0.54-6.1-4-6.36a2.62,2.62,0,0,0-2.43,3.86,15.41,15.41,0,0,1-.05,14.19,5.26,5.26,0,0,1-6.54,2.09c-2.66-1.07-3.81-4-4.23-6.5-0.27-1.64.64-6.06-1.82-6.35-6.32-.74-2.71,9.08-6.13,11-4.25,2.39-8.33,1.22-8.22-3.94,0-1.39.49-3.52-1.42-4.18-4.39-1.51-3.26,12.33-3.16,14.08,0.44,7.54,3,16.2-2,22.87-11.7,4.81-5.67-38.19-10.73-40.19-3.74-1.48-3.52,5.92-3.6,7.53-0.19,4-6.19,5.48-7.39,1.26-0.76-2.66.55-5.27,0.23-7.83-5.21-6-6.47,6.06-6.74,9-0.33,3.64-.4,7.31-0.36,11,0,3.41,2.4,10.38-2.63,11.74-6.23,1.69-5.71-7.83-6-11.17a96.51,96.51,0,0,1-.54-13.89c0.09-1.49,2.42-13.8,1.4-14.58-3.31-2.51-4.17,3.1-4.46,5.08-0.33,2.22-.49,6.51-3.09,7.54-6.07,2.38-7-5.18-7.08-9.16-0.06-2,1.09-5.73-1.95-6A2.41,2.41,0,0,0,372,191.1c0.79,6-2.62,8.42-2.62,8.42-9.74,7.77-9.66-4.55-9.66-4.55-6.46-3.39-4.35,12.29-4.35,12.31,0.78,5.81.71,13.42-1.56,18.91-1,2.35-3.47,5.51-6.61,4.32-2.48-.94-2.75-4.59-2.9-6.71-0.57-7.69.76-16.3,2.82-23.74,0.67-2,3.18-8.12.29-9.65-3.5-1.85-2.45,5.71-2.67,7.26-0.3,2.18-1,5.67-3.51,6.51-9.1,3.1-6.52-18.43-6.52-18.43-6.86-3.73-2.82,17-2.82,17,1.31,2.73,2.46,6.44.36,9.08-2.83,3.57-7.56,1.92-9.24-1.65-1.44-3.06-1.51-6.74-1.47-10a91.13,91.13,0,0,1,1.83-15.27c-3,1.54-11.38,5.72-11.42-.5,0-1.66.95-3,1.29-4.59,0.95-4.26-3-8.05-2.07-12.41,1.43-6.8,9.69-9.27,15.84-10.5,20.83-4.17,42.68-5.14,63.92-5.29a564.88,564.88,0,0,1,74.13,4.47C488,159,512.64,161,534.59,168.35c7.1,2.39,13,5,11.55,12A268,268,0,0,0,541,214.18Z"/><path class="cls-7" d="M339.88,109.89l3.19,55.88,0.55,9.61s86,13.56,171.84-9.8L514.9,156l-2.23-39.13A16.77,16.77,0,0,0,495,101Z"/><path class="cls-8" d="M340.49,120.62l3.12,54.76s86.07,14.18,171.84-9.8C515.45,165.58,339,186.09,340.49,120.62Z"/><path class="cls-9" d="M356,172.66c2.61,0.92,5.42,1.87,8.37,1.57,5.22-.52,8.79-4.67,14-5.14,5.87-.52,10.4,3.82,16.28,3.88,5.56,0.06,10.13-3.7,15.68-4.16,6.46-.54,11.73,3.45,18.12,4,10.49,0.95,19.82-7.34,30.34-6.5,3.41,0.27,6.51,1.51,9.92,1.79,7.38,0.6,14-3.24,21-5.43a48.64,48.64,0,0,1,24.38-1.13c2.34,0.51,4.89,1.47,5.21,3.19s-1.49,3.05-3.24,4.15c-13.91,8.73-33.25,11.46-51.49,11.85s-36.49-1.18-54.66.52c-10.87,1-21.54,3.2-32.42,4.25s-22.33.87-31.88-2.58c-4.1-1.48-8.65-4.9-5.53-8.4C343.84,170.31,350.79,170.82,356,172.66Z"/><path class="cls-10" d="M514.06,128.73c0.13,3.44-2.43,2.71-2.43,2.71-2.51-.41-1.05-11.78-1.05-11.78-1.39,4.23-3.53.2-3.53,0.2-3.67-2.26-.63,12.52-0.63,12.52,2.21,8.6-2.13,9.68-2.13,9.68-4.16.88-3.39-22.59-3.39-22.59-1.34-5-4.1-3.17-4.1-3.17,1.8,4.77-.5,9.77-0.5,9.77-8.7,10.14-5.55-11.73-5.55-11.73-0.6-3.83-3.52-1.35-3.52-1.35,0.85,6.57-7.17,5.09-7.17,5.09,2.19,6.49-5,5-5,5,1.59,0,2.71,6.3,2.87,7.41,0.53,3.69.94,7.43,1.3,11.14,0.26,2.74.32,6-2.41,7.73-6.05,3.74-8.47-19.58-8.68-21.76-0.16-1.64.43-7-2.19-7.23-1.57-.12-1.75,4.71-2.56,6s-3.74,4.08-5.46,2.46-1-4.55-.85-6.5-0.94-4.57-3.6-4.46A2,2,0,0,0,452,121a11.73,11.73,0,0,1,1.19,10.74,4,4,0,0,1-4.77,2.15c-2.1-.58-3.23-2.66-3.76-4.55-0.35-1.22,0-4.64-1.93-4.65-4.85,0-1.26,7.11-3.68,8.86-3,2.18-6.19,1.64-6.56-2.27-0.1-1.06.07-2.71-1.44-3-3.45-.76-1.4,9.61-1.17,10.93,1,5.67,3.64,12,.44,17.48-8.44,4.66-7.61-28.4-11.61-29.47-3-.8-2.15,4.78-2.07,6,0.21,3.07-4.2,4.68-5.48,1.59-0.8-1.95,0-4-.51-5.94-4.47-4.12-4.37,5.14-4.32,7.37,0.06,2.78.33,5.56,0.68,8.32,0.32,2.58,2.72,7.65-1,9.11-4.57,1.82-5-5.43-5.5-7.93a73.5,73.5,0,0,1-1.61-10.46c-0.06-1.13.63-10.65-.21-11.15-2.72-1.61-2.89,2.71-2.94,4.23-0.05,1.71.2,5-1.68,6-4.39,2.33-5.72-3.32-6.15-6.32-0.22-1.54.33-4.43-2-4.35a1.83,1.83,0,0,0-1.77,2.3c1.11,4.44-1.25,6.59-1.25,6.59-6.7,6.72-7.71-2.6-7.71-2.6-5.18-2-2.23,9.67-2.22,9.69,1.1,4.33,1.7,10.1.46,14.44-0.53,1.86-2.14,4.47-4.63,3.84-2-.5-2.48-3.23-2.78-4.83a55.36,55.36,0,0,1,.08-18.21c0.34-1.53,1.7-6.42-.62-7.32-2.81-1.09-1.36,4.53-1.39,5.73,0,1.67-.3,4.38-2.09,5.23-6.61,3.13-6.53-13.38-6.53-13.38-5.52-2.23-.65,13.14-0.65,13.14,1.23,1.95,2.42,4.66,1.06,6.84-1.83,2.95-5.56,2.11-7.13-.44-1.35-2.19-1.73-5-2-7.46a69.41,69.41,0,0,1,.06-11.71c-2.15,1.43-8.12,5.32-8.68.61-0.15-1.25.45-2.38,0.58-3.59,0.35-3.31-3-5.83-2.64-9.21,0.49-5.27,6.52-7.85,11.07-9.32,15.39-5,31.85-7.59,47.9-9.55a430.2,430.2,0,0,1,56.48-3.05c17.58,0.18,36.39-.46,53.64,3.23,5.58,1.19,10.28,2.67,9.77,8.06A204.06,204.06,0,0,0,514.06,128.73Z"/><path class="cls-7" d="M363.64,57.69a4,4,0,0,0-3.95,3.94v39.49a4,4,0,0,0,3.23,3.88c13.06,2.42,63.72,10.4,116.07.07a4,4,0,0,0,3.19-3.87V61.68a4,4,0,0,0-3.94-3.95Z"/><path class="cls-8" d="M359.69,66.18v34.93a4,4,0,0,0,3.24,3.91,322.05,322.05,0,0,0,41.31,4.87c5,0.28,5.86-6.95,1-7.88C380.67,97.3,359.74,87.13,359.69,66.18Z"/><path class="cls-9" d="M368.59,102.94a13.85,13.85,0,0,0,5.88,1.46c3.73-.16,6.44-3,10.17-3.08,4.19-.13,7.23,3.14,11.41,3.42,4,0.27,7.35-2.21,11.31-2.32,4.62-.12,8.19,2.93,12.71,3.6,7.42,1.1,14.38-4.41,21.82-3.38,2.41,0.33,4.56,1.34,7,1.68,5.22,0.73,10.11-1.73,15.11-3a34.62,34.62,0,0,1,17.37.19c1.64,0.46,3.41,1.24,3.57,2.48s-1.18,2.11-2.47,2.82c-10.24,5.64-24.09,6.79-37.07,6.32s-25.88-2.33-38.86-1.86c-7.77.28-15.44,1.4-23.21,1.7s-15.9-.29-22.55-3.14c-2.85-1.22-5.95-3.84-3.58-6.19C360.05,100.78,365,101.42,368.59,102.94Z"/><path class="cls-10" d="M482.69,78.17c-0.05,2.45-1.84,1.83-1.84,1.83-1.77-.39-0.27-8.41-0.27-8.41-1.16,2.95-2.51,0-2.51,0-2.51-1.75-1,8.87-1,8.87,1.22,6.2-1.91,6.79-1.91,6.79-3,.46-1.49-16.19-1.49-16.19-0.75-3.59-2.79-2.42-2.79-2.42a10,10,0,0,1-.75,6.92c-6.6,6.85-3.46-8.56-3.46-8.56-0.27-2.75-2.45-1.1-2.45-1.1,0.34,4.7-5.3,3.33-5.3,3.33,1.29,4.7-3.74,3.33-3.74,3.33,1.13,0,1.67,4.58,1.74,5.38,0.23,2.64.36,5.32,0.47,8,0.08,2,0,4.31-2,5.4C451,93.7,450.19,77,450.13,75.47c0-1.17.59-5-1.26-5.22-1.11-.15-1.44,3.28-2.06,4.19s-2.82,2.74-4,1.53-0.52-3.28-.34-4.66S442,68,440.11,68a1.42,1.42,0,0,0-1.2,2.16,8.35,8.35,0,0,1,.41,7.68,2.85,2.85,0,0,1-3.48,1.33,4.33,4.33,0,0,1-2.49-3.39c-0.2-.88.16-3.3-1.18-3.38-3.44-.2-1.19,5-3,6.15-2.23,1.43-4.47.92-4.57-1.88,0-.76.16-1.92-0.9-2.22-2.42-.68-1.38,6.77-1.27,7.72,0.47,4.07,2.1,8.68-.4,12.44-6.18,3-4.25-20.49-7-21.42-2.07-.69-1.72,3.31-1.71,4.18,0,2.19-3.18,3.16-4,.91-0.49-1.42.14-2.87-.12-4.24-3-3.11-3.32,3.48-3.37,5.06-0.07,2,0,4,.14,5.94s1.62,5.54-1.06,6.44c-3.32,1.1-3.33-4.06-3.59-5.86a52.31,52.31,0,0,1-.72-7.5c0-.81.89-7.54,0.31-7.93-1.87-1.26-2.16,1.81-2.26,2.89s-0.06,3.54-1.44,4.17c-3.21,1.48-3.93-2.59-4.11-4.74-0.1-1.1.41-3.13-1.24-3.17a1.3,1.3,0,0,0-1.35,1.56c0.61,3.2-1.16,4.63-1.16,4.63-5,4.5-5.37-2.16-5.37-2.16-3.6-1.64-2,6.78-2,6.79,0.6,3.12.8,7.24-.26,10.28-0.45,1.3-1.71,3.09-3.44,2.54-1.37-.43-1.63-2.4-1.78-3.54a39.4,39.4,0,0,1,.8-12.94c0.31-1.08,1.47-4.49-.14-5.23-2-.89-1.15,3.17-1.22,4-0.1,1.19-.39,3.1-1.7,3.63-4.83,2-4.1-9.77-4.1-9.77-3.83-1.81-1,9.31-1,9.31,0.8,1.44,1.53,3.41.48,4.9-1.42,2-4,1.27-5.05-.61a12.56,12.56,0,0,1-1.11-5.38,49.4,49.4,0,0,1,.52-8.32c-1.58.93-6,3.45-6.19,0.08a11.18,11.18,0,0,1,.56-2.53c0.38-2.34-1.86-4.27-1.5-6.65,0.56-3.72,5-5.31,8.25-6.17,11.14-2.9,22.94-4.1,34.43-4.83a306.18,306.18,0,0,1,40.26.13c12.48,0.84,25.88,1.16,38,4.48,3.91,1.07,7.2,2.32,6.62,6.13A145.23,145.23,0,0,0,482.69,78.17Z"/><path class="cls-7" d="M384.62,19.93a3.09,3.09,0,0,0-3.3,2.87l-1.72,24.55-0.33,4.75s39.79,11.58,82.42,6.29a3.1,3.1,0,0,0,2.71-2.85l0.16-2.23,1.72-24.55a3.09,3.09,0,0,0-2.87-3.3Z"/><path class="cls-8" d="M381.13,25.61l-1.86,26.49s41.36,12.35,85,6C464.23,58,374.69,60.23,381.13,25.61Z"/><path class="cls-9" d="M385.52,51.53a9.63,9.63,0,0,0,4,1.3c2.59,0.07,4.61-1.74,7.2-1.64,2.91,0.11,4.86,2.52,7.75,2.92,2.73,0.38,5.2-1.18,8-1.06,3.21,0.14,5.54,2.43,8.64,3.11,5.09,1.12,10.19-2.36,15.3-1.29,1.66,0.35,3.1,1.15,4.76,1.5,3.58,0.76,7.1-.71,10.63-1.35a24.07,24.07,0,0,1,12,1c1.11,0.4,2.31,1,2.36,1.89s-0.92,1.4-1.85,1.84c-7.37,3.41-17,3.54-26,2.59s-17.84-2.87-26.86-3.17c-5.4-.18-10.78.22-16.18,0.05s-11-1-15.49-3.26c-1.92-1-3.94-2.95-2.19-4.47C379.7,49.62,383.08,50.3,385.52,51.53Z"/><path class="cls-10" d="M465.86,39.87C465.71,41.57,464.5,41,464.5,41c-1.21-.36.22-5.85,0.22-5.85-0.94,2-1.74-.12-1.74-0.12-1.66-1.34-1.09,6.1-1.09,6.1,0.55,4.36-1.65,4.62-1.65,4.62-2.1.17-.25-11.3-0.25-11.3-0.34-2.53-1.82-1.81-1.82-1.81a7,7,0,0,1-.85,4.76c-4.91,4.43-2-6.1-2-6.1a1,1,0,0,0-1.64-.88c0,3.28-3.84,2.05-3.84,2.05,0.67,3.32-2.75,2.13-2.75,2.13,0.78,0.08.93,3.26,0.94,3.82,0,1.84,0,3.7-.06,5.55,0,1.36-.22,3-1.67,3.64-3.2,1.46-2.93-10.14-2.9-11.23,0-.82.65-3.42-0.62-3.68-0.76-.16-1.15,2.2-1.63,2.81s-2.09,1.77-2.83.87-0.2-2.3,0-3.25a1.89,1.89,0,0,0-1.49-2.41,1,1,0,0,0-.93,1.44,5.81,5.81,0,0,1-.09,5.35,2,2,0,0,1-2.48.76,3,3,0,0,1-1.56-2.47c-0.09-.62.27-2.28-0.65-2.4-2.38-.31-1.06,3.41-2.36,4.12-1.61.88-3.14,0.42-3.08-1.53,0-.52.2-1.33-0.51-1.58-1.65-.59-1.29,4.63-1.26,5.29,0.13,2.84,1,6.12-.88,8.61-4.43,1.76-2-14.42-3.85-15.19-1.4-.58-1.36,2.21-1.39,2.82-0.09,1.52-2.36,2-2.79.44-0.27-1,.23-2,0.12-2.95-1.94-2.3-2.47,2.25-2.58,3.35-0.14,1.37-.18,2.75-0.19,4.13s0.85,3.92-1,4.41c-2.36.61-2.11-3-2.21-4.24a36.37,36.37,0,0,1-.14-5.24c0-.56,1-5.19.6-5.49-1.24-1-1.59,1.15-1.71,1.89s-0.21,2.45-1.2,2.82c-2.3.87-2.6-2-2.62-3.49,0-.77.44-2.15-0.71-2.26a0.91,0.91,0,0,0-1,1,3.3,3.3,0,0,1-1,3.16c-3.71,2.88-3.62-1.76-3.62-1.76-2.42-1.31-1.7,4.61-1.7,4.62a15,15,0,0,1-.68,7.12c-0.38.88-1.33,2.06-2.51,1.6-0.93-.37-1-1.74-1.06-2.54a27.39,27.39,0,0,1,1.18-8.93c0.26-.73,1.24-3,0.15-3.63-1.31-.71-1,2.14-1,2.72-0.12.82-.42,2.13-1.35,2.44-3.44,1.12-2.37-7-2.37-7-2.57-1.44-1.14,6.41-1.14,6.41,0.48,1,.9,2.44.09,3.42a2,2,0,0,1-3.47-.66,8.73,8.73,0,0,1-.51-3.79,34.34,34.34,0,0,1,.76-5.74c-1.14.56-4.32,2.1-4.3-.24a7.77,7.77,0,0,1,.51-1.72c0.38-1.6-1.09-3-.72-4.68,0.57-2.56,3.69-3.45,6-3.88a128.35,128.35,0,0,1,24.11-1.69,212.87,212.87,0,0,1,27.91,2c8.62,1.19,17.89,2.06,26.13,4.94,2.66,0.93,4.88,2,4.29,4.57A101,101,0,0,0,465.86,39.87Z"/><ellipse class="cls-11" cx="427.68" cy="22.61" rx="4.24" ry="35.54" transform="matrix(0.09, -1, 1, 0.09, 368.24, 446.74)"/><path class="cls-12" d="M375.91,48.91a1.26,1.26,0,0,1,1.58.81l2.41,8.64a1.3,1.3,0,0,1-2.5.7L375,50.43A1.26,1.26,0,0,1,375.91,48.91Z"/><path class="cls-13" d="M376,48.5c0.13,0.36.21,0.75,0.31,1.13,0,0.14.12,0.41,0,.47s-0.25-.26-0.29-0.4c-0.1-.37-0.22-0.74-0.31-1.12a0.65,0.65,0,0,1,0-.3C375.71,48,375.91,48.35,376,48.5Z"/><path class="cls-14" d="M375.66,45.77a1.59,1.59,0,0,0-.75.65,2.09,2.09,0,0,0-.28,1.83A1.19,1.19,0,0,0,376,49a1,1,0,0,0,.75-1.06,2.11,2.11,0,0,0-.7-1.1A1,1,0,0,1,375.66,45.77Z"/><path class="cls-15" d="M375.72,45.63a1.59,1.59,0,0,0-.75.65,2.09,2.09,0,0,0-.28,1.83,1.19,1.19,0,0,0,1.36.76,1,1,0,0,0,.75-1.06,2.11,2.11,0,0,0-.7-1.1A1,1,0,0,1,375.72,45.63Z"/><path class="cls-16" d="M450.94,13.31a1.26,1.26,0,0,1,.94,1.51l-2.34,8.65a1.3,1.3,0,0,1-2.51-.68l2.34-8.66A1.26,1.26,0,0,1,450.94,13.31Z"/><path class="cls-13" d="M451.19,13c-0.07.38-.21,0.75-0.31,1.13,0,0.14-.11.41-0.26,0.39s-0.08-.35,0-0.49c0.1-.37.19-0.75,0.31-1.12a0.65,0.65,0,0,1,.14-0.27C451.24,12.41,451.22,12.83,451.19,13Z"/><path class="cls-14" d="M452.33,10.48a1.59,1.59,0,0,0-1,.17,2.09,2.09,0,0,0-1.18,1.43,1.19,1.19,0,0,0,.78,1.35,1,1,0,0,0,1.18-.52,2.11,2.11,0,0,0,0-1.31A1,1,0,0,1,452.33,10.48Z"/><path class="cls-15" d="M452.45,10.4a1.59,1.59,0,0,0-1,.17A2.09,2.09,0,0,0,450.29,12a1.19,1.19,0,0,0,.78,1.35,1,1,0,0,0,1.18-.52,2.11,2.11,0,0,0,0-1.31A1,1,0,0,1,452.45,10.4Z"/><path class="cls-12" d="M507.83,107.47a1.08,1.08,0,0,1,.8,1.31l-2.11,7.45a1.13,1.13,0,0,1-2.16-.61l2.11-7.45A1.08,1.08,0,0,1,507.83,107.47Z"/><path class="cls-13" d="M508,107.19c-0.07.33-.19,0.65-0.28,1,0,0.12-.1.35-0.23,0.33s-0.07-.3,0-0.42c0.09-.32.17-0.65,0.27-1a0.56,0.56,0,0,1,.12-0.23C508.1,106.69,508.08,107.05,508,107.19Z"/><path class="cls-14" d="M509.06,105a1.37,1.37,0,0,0-.84.14,1.8,1.8,0,0,0-1,1.22,1,1,0,0,0,.66,1.17,0.83,0.83,0,0,0,1-.44,1.83,1.83,0,0,0,0-1.13A0.9,0.9,0,0,1,509.06,105Z"/><path class="cls-15" d="M509.16,105a1.37,1.37,0,0,0-.84.14,1.8,1.8,0,0,0-1,1.22,1,1,0,0,0,.66,1.17,0.83,0.83,0,0,0,1-.44,1.83,1.83,0,0,0,0-1.13A0.9,0.9,0,0,1,509.16,105Z"/><path class="cls-17" d="M429,106.6a1.26,1.26,0,0,1,1.34,1.17l0.27,9a1.3,1.3,0,0,1-2.6.08l-0.27-9A1.26,1.26,0,0,1,429,106.6Z"/><path class="cls-13" d="M429.1,106.21c0,0.38,0,.78,0,1.17,0,0.15,0,.42-0.14.45s-0.18-.31-0.18-0.46c0-.39,0-0.78,0-1.16a0.65,0.65,0,0,1,.05-0.29C429,105.65,429.09,106.05,429.1,106.21Z"/><path class="cls-14" d="M429.47,103.49a1.59,1.59,0,0,0-.88.45,2.09,2.09,0,0,0-.71,1.71,1.19,1.19,0,0,0,1.13,1.07,1,1,0,0,0,1-.84,2.11,2.11,0,0,0-.42-1.24A1,1,0,0,1,429.47,103.49Z"/><path class="cls-15" d="M429.55,103.37a1.59,1.59,0,0,0-.88.45,2.09,2.09,0,0,0-.71,1.71,1.19,1.19,0,0,0,1.13,1.07,1,1,0,0,0,1-.84,2.11,2.11,0,0,0-.42-1.24A1,1,0,0,1,429.55,103.37Z"/><path class="cls-18" d="M415.68,11.36a1.26,1.26,0,0,1,1.48,1l1.43,8.85a1.3,1.3,0,0,1-2.57.41l-1.43-8.85A1.26,1.26,0,0,1,415.68,11.36Z"/><path class="cls-13" d="M415.78,10.95c0.09,0.38.12,0.77,0.18,1.15,0,0.15.07,0.42-.08,0.46s-0.22-.28-0.24-0.43c-0.06-.38-0.14-0.77-0.18-1.15a0.65,0.65,0,0,1,0-.3C415.58,10.41,415.74,10.79,415.78,10.95Z"/><path class="cls-14" d="M415.79,8.2a1.59,1.59,0,0,0-.82.56,2.09,2.09,0,0,0-.49,1.79,1.19,1.19,0,0,0,1.26.91,1,1,0,0,0,.86-1A2.11,2.11,0,0,0,416,9.32,1,1,0,0,1,415.79,8.2Z"/><path class="cls-15" d="M415.86,8.08a1.59,1.59,0,0,0-.82.56,2.09,2.09,0,0,0-.49,1.79,1.19,1.19,0,0,0,1.26.91,1,1,0,0,0,.86-1,2.11,2.11,0,0,0-.57-1.17A1,1,0,0,1,415.86,8.08Z"/><path class="cls-18" d="M530.33,166a1.08,1.08,0,0,1,.84,1.28l-1.86,7.51a1.13,1.13,0,0,1-2.18-.54l1.86-7.51A1.08,1.08,0,0,1,530.33,166Z"/><path class="cls-13" d="M530.54,165.71c-0.06.33-.17,0.65-0.25,1,0,0.13-.08.36-0.22,0.34s-0.08-.3,0-0.42c0.08-.32.15-0.65,0.24-1a0.56,0.56,0,0,1,.11-0.23C530.57,165.22,530.57,165.58,530.54,165.71Z"/><path class="cls-14" d="M531.48,163.53a1.37,1.37,0,0,0-.84.17,1.8,1.8,0,0,0-1,1.26,1,1,0,0,0,.69,1.15,0.83,0.83,0,0,0,1-.47,1.83,1.83,0,0,0-.06-1.13A0.9,0.9,0,0,1,531.48,163.53Z"/><path class="cls-15" d="M531.58,163.46a1.37,1.37,0,0,0-.84.17,1.8,1.8,0,0,0-1,1.26,1,1,0,0,0,.69,1.15,0.83,0.83,0,0,0,1-.47,1.83,1.83,0,0,0-.06-1.13A0.9,0.9,0,0,1,531.58,163.46Z"/><path class="cls-18" d="M377,174.23a1.26,1.26,0,0,1,1.4,1.1l0.74,8.94a1.3,1.3,0,0,1-2.59.21l-0.74-8.94A1.26,1.26,0,0,1,377,174.23Z"/><path class="cls-13" d="M377.1,173.83c0.06,0.38.06,0.78,0.09,1.17,0,0.15,0,.42-0.12.45s-0.19-.3-0.21-0.45c0-.39-0.08-0.77-0.09-1.16a0.65,0.65,0,0,1,0-.3C377,173.27,377.08,173.67,377.1,173.83Z"/><path class="cls-14" d="M377.33,171.09a1.59,1.59,0,0,0-.86.49,2.09,2.09,0,0,0-.62,1.75,1.19,1.19,0,0,0,1.19,1,1,1,0,0,0,.93-0.89,2.11,2.11,0,0,0-.48-1.21A1,1,0,0,1,377.33,171.09Z"/><path class="cls-15" d="M377.41,171a1.59,1.59,0,0,0-.86.49,2.09,2.09,0,0,0-.62,1.75,1.19,1.19,0,0,0,1.19,1,1,1,0,0,0,.93-0.89,2.11,2.11,0,0,0-.48-1.21A1,1,0,0,1,377.41,171Z"/><path class="cls-12" d="M436.4,175.83a1.26,1.26,0,0,1,1,1.46L435.5,186a1.3,1.3,0,0,1-2.54-.55l1.91-8.76A1.26,1.26,0,0,1,436.4,175.83Z"/><path class="cls-13" d="M436.64,175.48c-0.05.38-.17,0.76-0.25,1.14,0,0.15-.09.42-0.24,0.4s-0.1-.34-0.07-0.49c0.08-.38.15-0.76,0.25-1.14a0.65,0.65,0,0,1,.12-0.27C436.65,174.91,436.66,175.33,436.64,175.48Z"/><path class="cls-14" d="M437.65,172.93a1.59,1.59,0,0,0-1,.22,2.09,2.09,0,0,0-1.11,1.49,1.19,1.19,0,0,0,.84,1.31,1,1,0,0,0,1.16-.58,2.11,2.11,0,0,0-.11-1.3A1,1,0,0,1,437.65,172.93Z"/><path class="cls-15" d="M437.76,172.84a1.59,1.59,0,0,0-1,.22,2.09,2.09,0,0,0-1.11,1.49,1.19,1.19,0,0,0,.84,1.31,1,1,0,0,0,1.16-.58,2.11,2.11,0,0,0-.11-1.3A1,1,0,0,1,437.76,172.84Z"/><path class="cls-17" d="M496.45,175a1.08,1.08,0,0,1,1.31.8l1.53,7.59a1.13,1.13,0,0,1-2.2.44l-1.53-7.59A1.08,1.08,0,0,1,496.45,175Z"/><path class="cls-13" d="M496.52,174.67c0.09,0.32.13,0.66,0.2,1,0,0.13.08,0.36-.05,0.4s-0.2-.24-0.22-0.36c-0.07-.33-0.15-0.66-0.2-1a0.56,0.56,0,0,1,0-.26C496.34,174.21,496.49,174.54,496.52,174.67Z"/><path class="cls-14" d="M496.44,172.3a1.37,1.37,0,0,0-.69.51,1.8,1.8,0,0,0-.36,1.56,1,1,0,0,0,1.12.74,0.83,0.83,0,0,0,.71-0.86,1.83,1.83,0,0,0-.54-1A0.9,0.9,0,0,1,496.44,172.3Z"/><path class="cls-15" d="M496.49,172.19a1.37,1.37,0,0,0-.69.51,1.8,1.8,0,0,0-.36,1.56,1,1,0,0,0,1.12.74,0.83,0.83,0,0,0,.71-0.86,1.83,1.83,0,0,0-.54-1A0.9,0.9,0,0,1,496.49,172.19Z"/><path class="cls-18" d="M481.19,61.51a1.26,1.26,0,0,1,.67,1.64l-3.77,8.14a1.3,1.3,0,0,1-2.36-1.09l3.77-8.14A1.26,1.26,0,0,1,481.19,61.51Z"/><path class="cls-13" d="M481.5,61.23c-0.14.36-.33,0.71-0.49,1.06-0.06.14-.17,0.39-0.32,0.34s0-.36,0-0.49c0.16-.35.31-0.71,0.49-1.05a0.65,0.65,0,0,1,.18-0.24C481.64,60.67,481.56,61.08,481.5,61.23Z"/><path class="cls-14" d="M483,59a1.59,1.59,0,0,0-1,0,2.09,2.09,0,0,0-1.4,1.21,1.19,1.19,0,0,0,.54,1.46,1,1,0,0,0,1.25-.32,2.11,2.11,0,0,0,.18-1.29A1,1,0,0,1,483,59Z"/><path class="cls-15" d="M483.18,58.89a1.59,1.59,0,0,0-1,0,2.09,2.09,0,0,0-1.4,1.21,1.19,1.19,0,0,0,.54,1.46,1,1,0,0,0,1.25-.32,2.11,2.11,0,0,0,.18-1.29A1,1,0,0,1,483.18,58.89Z"/><path class="cls-19" d="M163.36,262.66l32.31-94.2c6.82-19.89,2-36.19-8-46.55a39.06,39.06,0,0,0-15-9.58,39.69,39.69,0,0,0-17.58-2.07c-14.7,1.59-29.8,11.06-36.92,31.1-4.53,12.73,17.58,18.76,21.6,8.22s11-15.61,17.75-16.34a16.82,16.82,0,0,1,7.45.87,15.91,15.91,0,0,1,6.09,3.93c4.44,4.59,6.34,12.48,2.77,22.89l-32.31,94.2C137.21,267.68,159,275.23,163.36,262.66Z"/><polygon class="cls-20" points="165.26 257.1 169 246.2 145.26 244.22 141.52 255.13 165.26 257.1"/><polygon class="cls-20" points="173.18 234.03 176.92 223.13 153.17 221.15 149.43 232.06 173.18 234.03"/><polygon class="cls-20" points="181.09 210.96 184.83 200.06 161.08 198.08 157.34 208.99 181.09 210.96"/><polygon class="cls-20" points="189 187.89 192.74 176.99 168.99 175.01 165.25 185.92 189 187.89"/><path class="cls-20" d="M196.93,164.34a54.76,54.76,0,0,0,1.84-11.12,44.75,44.75,0,0,1-23.14-.86,33.27,33.27,0,0,1-1.81,8.56L173,163.45C181.45,164.78,189.63,165.47,196.93,164.34Z"/><path class="cls-20" d="M197,137.83a44.47,44.47,0,0,0-6.07-12.28A47.59,47.59,0,0,1,174.3,143a18.49,18.49,0,0,1,1.4,7.35C182.89,148.14,190.21,145.94,197,137.83Z"/><path class="cls-20" d="M178.07,114.7c-4.15-2.21-10.53-4.41-15.14-4.54,3.49,6.47,2.41,18.62.83,23.39a24.54,24.54,0,0,1,5.91,3.2C172.88,133.93,177.37,122.87,178.07,114.7Z"/><path class="cls-20" d="M147.54,111.78c-4,.88-10.85,4-14.56,7.6,7,3.83,12.69,9.6,17.76,16.16a16.33,16.33,0,0,1,5.29-2.09C156.71,127.86,151.49,118.12,147.54,111.78Z"/><path class="cls-20" d="M123.07,131c-1.85,3-4.77,9-5.46,12.73,6.1-.22,12.88.3,23.93,1.9a28.13,28.13,0,0,1,4.44-6.33A62.12,62.12,0,0,0,123.07,131Z"/><path class="cls-21" d="M160.94,133.22s19.72,0.2,20.06,16.51L142.36,264.36a10.54,10.54,0,0,1-.85-9.23c1.95-5.2,31.81-91.68,31.81-91.68S184,138.05,160.94,133.22Z"/><path class="cls-22" d="M332.28,320s-37.25,4.56-18,7.25,69,2.38,87.75-4.06S332.28,320,332.28,320Z"/></g><g id="Layer_12" data-name="Layer 12"><g id="คัพเค้ก"><path class="cls-23" d="M175.06,269.11s-74.26,1.59-2.84,8.68,131.92-4.27,145.76-9.15-3-7.64-16.85-7.84S175.06,269.11,175.06,269.11Z"/><path class="cls-24" d="M227.29,228.05s-10.36-72,58-52.16c0,0,47,1.92,33.44,57.05Z"/><path class="cls-25" d="M236,184.83a37.58,37.58,0,0,0-4.85,8.59c-1.54,4.21,60.56,18.21,76.84,2.67C318.21,186.29,236,184.83,236,184.83Z"/><polygon class="cls-26" points="223.99 218.67 234.62 265.57 270.95 269.11 274 211.12 260.48 220.07 245.15 213.76 234.82 222 223.99 218.67"/><polygon class="cls-26" points="323.77 217.68 309.09 265.71 270.95 269.11 274 211.12 286.59 220.12 302.36 215 311.84 223.09 323.77 217.68"/><polygon class="cls-27" points="311.84 223.09 323.77 217.68 309.09 265.71 300.35 266.49 311.84 223.09"/><polygon class="cls-27" points="286.59 220.12 302.36 215 288.76 267.52 280.55 268.26 286.59 220.12"/><polygon class="cls-27" points="260.48 220.07 274 211.12 270.95 269.11 263.32 268.37 260.48 220.07"/><polygon class="cls-27" points="234.82 222 245.15 213.76 253.14 267.38 242.77 266.37 234.82 222"/><g id="วอป"><path class="cls-28" d="M270.59,121.61s-10.83,18.13-21.12,24.2-4.93,15.7-2.84,17-19.2,5.66-10.38,22.57,68.93,18.88,78.6,7.18,5.36-29.59-8.8-35c0,0,2-13.77-12.53-14.58S270.13,125.48,270.59,121.61Z"/><path class="cls-29" d="M303.86,148s3.79,8.51-4.12,14.08c0,0,7.8.18,8.73-3.36a9.52,9.52,0,0,0-2.42-1.09S306.7,150.6,303.86,148Z"/><path class="cls-29" d="M243.38,155.65S246,164,259.16,166.84c0,0-17.92,5.66-18-.23,0,0,3.56-2.2,4.68-2.73s0.87-.76.91-0.94c0,0-2.89-1.77-3.44-7.26"/><path class="cls-29" d="M270.59,121.61s4.22,20.1,22.93,21.42C293.52,143,265.47,145.86,270.59,121.61Z"/></g><path class="cls-29" d="M281.63,142.92s-7.14,1,.43,9.6,20.73,1.05,16.76-1.05S281.63,142.92,281.63,142.92Z"/><path class="cls-30" d="M295.95,135s-8.9-4.22-13.42,3.77,1.42,12.8,5.66,13.81,11.46,3,15.39-4.45S298.72,134.84,295.95,135Z"/><path class="cls-31" d="M295.7,135.9s-8.27-2.27-5.28,6.76c3.57,10.79,10.94,8.27,12.39,2.84S299.82,136.45,295.7,135.9Z"/><path class="cls-32" d="M295.69,135.4s2.56-8.76,4.69-9.52l1.32,0.78s-2.79,1.76-5.5,9C296.2,135.68,295.73,135.76,295.69,135.4Z"/><path class="cls-33" d="M300.38,125.89a1.36,1.36,0,0,1,1.07.45c0.76,0.57-.31.24-0.34,0.24S300.19,126.09,300.38,125.89Z"/></g><g id="ขนมปัง"><path class="cls-23" d="M346.09,268.07c-17.48,3.7-20,7.28-15.07,10.79,0,0,3.87,4.79,44.59,6.78,40.5,2,54.6-3.83,54.6-3.83s10.78-4,8.1-5.93-6.69-1.62-6.69-1.62Z"/><path class="cls-34" d="M342.26,204s-8.75-1.5-10.15,36.89c0,0,.54,27.27,22.18,34.69,0,0,19,11,84,1.24-0.76-.5,17.75.81,23.1-33.6,6.24-40.1-21.47-49.24-21.47-49.24S357.57,202.3,342.26,204Z"/><path class="cls-35" d="M444.19,196.07s-10-9.23-20,13.15-14.92,41-5.43,55.56,22,11.77,22,11.77,18.29-4,22-33.48S452.26,200.15,444.19,196.07Z"/><path class="cls-36" d="M441.31,199.64s-9.78-2.94-18.66,33.39,15.63,38.62,20.63,37.16,18.26-12.86,15.81-40.51S445.93,200,441.31,199.64Z"/><path class="cls-37" d="M333.52,223.59s-7.73,56,87.9,44.71c0,0,7.26,9.26,17.4,8.46,0,0-65.31,9.79-84.53-1.17C354.29,275.6,325,267,333.52,223.59Z"/><path class="cls-37" d="M440.48,197.57s-87.34.05-103.51,12c0,0-3.08,3.08-.85,17.22s12.6-11.62,20.45-6.26,1.33,13.38,11.52,13.2,12.54-15.95,18.28-14.19,4.46,10.61,12.14,10.2S409,209.5,414.09,211c7.17,2.13,16-4.41,17.58-7S441.65,196.71,440.48,197.57Z"/><path class="cls-38" d="M438.57,192.51s-41.4-7.32-95.07,9c0,0-10.23,3.29-8,17.43s15.48-8.44,23.34-3.08,2.7,12.64,12.89,12.46,8.21-15.94,14-14.18,6.43,9.41,14.11,9,2.09-17.21,15.4-17.34c5.34-.05,6.68,11.44,18.15-3.21C435.21,200.2,452.73,197.33,438.57,192.51Z"/><path class="cls-39" d="M427.15,268.66s12.56,14.77,23.64-17.49c6.21-18.09-3.3-37.31-13.89-34.5-7.12,1.89-12.16,27.1-2.85,38.57s15.21-18.81,7.33-20.14"/></g><g id="คัพเค้ก-2" data-name="คัพเค้ก"><path class="cls-40" d="M165.9,234.5s-13.06-71.58,56-54.31c0,0,47.06.15,35.57,55.75Z"/><path class="cls-41" d="M173,191a37.58,37.58,0,0,0-4.53,8.76c-1.38,4.27,61.2,15.91,76.88-.23C255.19,189.35,173,191,173,191Z"/><polygon class="cls-42" points="162.26 225.25 174.23 270.16 211.08 273.89 211.95 215.82 198.77 225.27 183.22 219.55 173.21 228.17 162.26 225.25"/><polygon class="cls-42" points="261.93 220.5 249.07 269.05 211.08 273.89 211.95 215.82 224.87 224.34 240.44 218.63 250.21 226.36 261.93 220.5"/><polygon class="cls-43" points="250.21 226.36 261.93 220.5 249.07 269.05 240.36 270.16 250.21 226.36"/><polygon class="cls-43" points="224.87 224.34 240.44 218.63 228.82 271.63 220.64 272.67 224.87 224.34"/><polygon class="cls-43" points="198.77 225.27 211.95 215.82 211.08 273.89 203.4 273.11 198.77 225.27"/><polygon class="cls-43" points="173.21 228.17 183.22 219.55 193.08 272.07 182.56 271 173.21 228.17"/><g id="วอป-2" data-name="วอป"><path class="cls-44" d="M205.16,126.5S195,145,185,151.48s-4.33,15.87-2.2,17.12-19,6.38-9.52,22.94,69.59,16.27,78.82,4.22S256.31,166,242,161.14c0,0,1.47-13.83-13.07-14.09S204.85,130.39,205.16,126.5Z"/><path class="cls-45" d="M239.4,151.6s4.11,8.36-3.58,14.22c0,0,7.8-.11,8.6-3.69a9.52,9.52,0,0,0-2.46-1S242.34,154.12,239.4,151.6Z"/><path class="cls-45" d="M179.26,161.54s3,8.24,16.19,10.59c0,0-17.69,6.33-18,.45,0,0,3.47-2.33,4.57-2.9s0.84-.79.87-1c0,0-3-1.66-3.71-7.13"/><path class="cls-45" d="M205.16,126.5s5,19.92,23.72,20.54C228.89,147,201,150.93,205.16,126.5Z"/></g><path class="cls-45" d="M217,147.38s-7.09,1.24.79,9.58,20.76,0.27,16.71-1.69S217,147.38,217,147.38Z"/><path class="cls-30" d="M231,139s-9-3.88-13.26,4.27,1.9,12.74,6.18,13.59,11.57,2.6,15.21-5S233.78,138.66,231,139Z"/><path class="cls-31" d="M230.8,139.83s-8.35-2-5,7c4,10.65,11.24,7.85,12.48,2.37S234.94,140.23,230.8,139.83Z"/><path class="cls-32" d="M230.77,139.34s2.22-8.85,4.33-9.69l1.35,0.73s-2.72,1.86-5.16,9.22C231.29,139.59,230.83,139.7,230.77,139.34Z"/><path class="cls-33" d="M235.1,129.65a1.36,1.36,0,0,1,1.09.41c0.78,0.54-.31.25-0.33,0.26S234.91,129.86,235.1,129.65Z"/></g><g id="พุ่มไม้"><path class="cls-23" d="M254.23,279.82s-34.05,9.86,10,9.77S313.42,288,313.42,288Z"/><path class="cls-23" d="M77.88,292.42s-47.5,13.75,14,13.63,68.56-2.24,68.56-2.24Z"/><ellipse class="cls-46" cx="268.71" cy="278.28" rx="14.45" ry="10.88"/><circle class="cls-46" cx="280.34" cy="270.74" r="13.26"/><ellipse class="cls-46" cx="300.66" cy="264.54" rx="17.49" ry="16.19"/><ellipse class="cls-46" cx="314.34" cy="277.44" rx="9.67" ry="10.45"/><path class="cls-47" d="M319.23,284.1c1.83,6.64-25.79,5.69-41.27,5.69s-14.79-1.44-14.79-5.69,12.55-7.69,28-7.69S318.1,280,319.23,284.1Z"/><ellipse class="cls-46" cx="341.8" cy="309.41" rx="20.28" ry="15.27"/><circle class="cls-46" cx="358.12" cy="298.82" r="18.61"/><ellipse class="cls-46" cx="386.63" cy="290.12" rx="24.55" ry="22.72"/><ellipse class="cls-46" cx="405.85" cy="308.23" rx="13.57" ry="14.67"/><path class="cls-47" d="M412.71,317.57c2.57,9.32-36.2,8-57.93,8s-20.76-2-20.76-8,17.62-10.8,39.35-10.8S411.13,311.82,412.71,317.57Z"/><ellipse class="cls-22" cx="552.31" cy="318.35" rx="8.03" ry="3.54"/><ellipse class="cls-22" cx="599.36" cy="318.29" rx="7.53" ry="3.07"/><ellipse class="cls-22" cx="48.04" cy="321.29" rx="8.03" ry="3.54"/><ellipse class="cls-22" cx="99.89" cy="321.82" rx="7.53" ry="3.07"/><path class="cls-48" d="M381,268s-12.46,2.37-17,13.18c0,0-18-5.87-24,13,0,0-14.32.85-18.15,12.08,0,0-3.62,12.44,12.86,17.48,0,0-21.24-16,7-25.25,0,0,8.34-20.18,23.54-11.72C365.33,286.78,370.53,271.5,381,268Z"/><path class="cls-48" d="M296.66,248.78s-8.87,1.69-12.09,9.39c0,0-12.81-4.19-17.07,9.27,0,0-10.2.6-12.93,8.6,0,0-2.58,8.86,9.16,12.46,0,0-15.13-11.4,5-18,0,0,5.94-14.38,16.77-8.35C285.48,262.16,289.18,251.27,296.66,248.78Z"/><ellipse class="cls-46" cx="89.46" cy="284.78" rx="26.52" ry="19.97"/><circle class="cls-46" cx="110.8" cy="270.94" r="24.33"/><ellipse class="cls-46" cx="148.08" cy="259.56" rx="32.1" ry="29.71"/><ellipse class="cls-46" cx="173.2" cy="283.24" rx="17.75" ry="19.18"/><path class="cls-47" d="M182.18,295.45c3.36,12.18-47.33,10.44-75.74,10.44s-27.15-2.64-27.15-10.44,23-14.12,51.44-14.12S180.1,287.94,182.18,295.45Z"/><path class="cls-48" d="M140.75,230.63s-16.29,3.1-22.2,17.24c0,0-23.52-7.68-31.33,17,0,0-18.72,1.11-23.73,15.79,0,0-4.73,16.26,16.81,22.86,0,0-27.77-20.92,9.14-33,0,0,10.9-26.39,30.77-15.32C120.23,255.19,127,235.21,140.75,230.63Z"/></g><ellipse class="cls-49" cx="53.48" cy="254" rx="22.48" ry="42.77"/><path class="cls-50" d="M53.59,251.87S50,274.29,47.95,294.12c-1.34,12.81-3.89,25.79-.76,28.45,2,1.69,6,2.55,8.64,0C59.45,319.12,55.49,258.81,53.59,251.87Z"/><path class="cls-50" d="M64.43,257.38s-3.65,2.87-6.72,5.55c-2,1.74-3.72,3.4-4.07,4.16-0.89,1.95.37,1.63,1.3,1.2S63.75,258.69,64.43,257.38Z"/><path class="cls-50" d="M41.23,262.42s4,3.11,7.29,6c2.15,1.88,4,3.68,4.41,4.51,1,2.11-.4,1.77-1.41,1.3S42,263.83,41.23,262.42Z"/><path class="cls-50" d="M68.42,270.09s-5,3.9-9.14,7.55c-2.69,2.36-5.05,4.62-5.53,5.66-1.21,2.65.5,2.21,1.76,1.63S67.49,271.86,68.42,270.09Z"/><path class="cls-51" d="M47.25,212.91s-11,4.79-15.38,29.27c0,0-4.6,28.27,8.64,46.75a23.92,23.92,0,0,0,7.3,6.46s-14.56-11.48-13.56-40.48C34.25,254.92,35.25,224.53,47.25,212.91Z"/><ellipse class="cls-52" cx="104.47" cy="253.96" rx="22.48" ry="42.77"/><path class="cls-50" d="M104.58,251.83s-3.57,22.42-5.64,42.25c-1.34,12.81-3.89,25.79-.76,28.45,2,1.69,6,2.55,8.64,0C110.44,319.08,106.48,258.77,104.58,251.83Z"/><path class="cls-50" d="M115.42,257.34s-3.65,2.87-6.72,5.55c-2,1.74-3.72,3.4-4.07,4.16-0.89,1.95.37,1.63,1.3,1.2S114.74,258.65,115.42,257.34Z"/><path class="cls-50" d="M92.23,262.38s4,3.11,7.29,6c2.15,1.88,4,3.68,4.41,4.51,1,2.11-.4,1.77-1.41,1.3S93,263.8,92.23,262.38Z"/><path class="cls-50" d="M119.41,270s-5,3.9-9.14,7.55c-2.69,2.36-5.05,4.62-5.53,5.66-1.21,2.65.5,2.21,1.76,1.63S118.48,271.82,119.41,270Z"/><path class="cls-53" d="M98.24,212.87s-11,4.79-15.38,29.27c0,0-4.6,28.27,8.64,46.75a23.92,23.92,0,0,0,7.3,6.46s-14.56-11.48-13.56-40.48C85.24,254.88,86.24,224.49,98.24,212.87Z"/><path class="cls-54" d="M543.76,270.22s-9.83-26.2-25.79-3.7-12.12,31.25-8.52,33.66,27.08,9.92,35.31,3.56C552.44,297.81,543.76,270.22,543.76,270.22Z"/><ellipse class="cls-55" cx="520.85" cy="273.37" rx="9.07" ry="2.95" transform="translate(4.06 554.33) rotate(-56.22)"/><path class="cls-56" d="M489,261.22s-13.7-24.4-26.05.26-7.24,32.73-3.31,34.56,28.27,5.7,35.44-1.84C501.75,287.17,489,261.22,489,261.22Z"/><ellipse class="cls-52" cx="557.15" cy="251.78" rx="22.48" ry="42.77"/><path class="cls-50" d="M557.4,249.14s-3.57,22.42-5.64,42.25c-1.34,12.81-3.89,25.79-.76,28.45,2,1.69,6,2.55,8.64,0C563.26,316.39,559.31,256.08,557.4,249.14Z"/><path class="cls-50" d="M568.24,254.65s-3.65,2.87-6.72,5.55c-2,1.74-3.72,3.4-4.07,4.16-0.89,1.95.37,1.63,1.3,1.2S567.56,256,568.24,254.65Z"/><path class="cls-50" d="M545,259.69s4,3.11,7.29,6c2.15,1.88,4,3.68,4.41,4.51,1,2.11-.4,1.77-1.41,1.3S545.78,261.11,545,259.69Z"/><path class="cls-50" d="M572.23,267.36s-5,3.9-9.14,7.55c-2.69,2.36-5.05,4.62-5.53,5.66-1.21,2.65.5,2.21,1.76,1.63S571.31,269.13,572.23,267.36Z"/><ellipse class="cls-57" cx="466.81" cy="267.81" rx="9.07" ry="2.95" transform="translate(26.58 577.38) rotate(-64.96)"/><path class="cls-53" d="M551.06,210.18s-11,4.79-15.38,29.27c0,0-4.94,28.49,8.3,47a19.68,19.68,0,0,0,7.58,6.78s-14.5-12-13.5-41C538.06,252.19,539.06,221.8,551.06,210.18Z"/><ellipse class="cls-52" cx="604.17" cy="250.8" rx="22.48" ry="42.77"/><path class="cls-50" d="M604.28,248.67s-3.57,22.42-5.64,42.25c-1.34,12.81-3.89,25.79-.76,28.45,2,1.69,6,2.55,8.64,0C610.14,315.92,606.18,255.61,604.28,248.67Z"/><path class="cls-50" d="M615.12,254.18s-3.65,2.87-6.72,5.55c-2,1.74-3.72,3.4-4.07,4.16-0.89,1.95.37,1.63,1.3,1.2S614.44,255.49,615.12,254.18Z"/><path class="cls-50" d="M591.93,259.22s4,3.11,7.29,6c2.15,1.88,4,3.68,4.41,4.51,1,2.11-.4,1.77-1.41,1.3S592.66,260.64,591.93,259.22Z"/><path class="cls-50" d="M619.11,266.89s-5,3.9-9.14,7.55c-2.69,2.36-5.05,4.62-5.53,5.66-1.21,2.65.5,2.21,1.76,1.63S618.18,268.66,619.11,266.89Z"/><path class="cls-53" d="M597.94,209.71s-11,4.79-15.38,29.27c0,0-4.6,28.27,8.64,46.75a23.92,23.92,0,0,0,7.3,6.46s-14.56-11.48-13.56-40.48C584.94,251.72,585.94,221.33,597.94,209.71Z"/></g></g></svg>