<?xml version="1.0" encoding="utf-8"?>
<!-- Generator: Adobe Illustrator 19.2.0, SVG Export Plug-In . SVG Version: 6.00 Build 0)  -->
<svg version="1.1" id="Layer_1" xmlns="http://www.w3.org/2000/svg" xmlns:xlink="http://www.w3.org/1999/xlink" x="0px" y="0px"
	 viewBox="0 0 641.1 491.1" style="enable-background:new 0 0 641.1 491.1;" xml:space="preserve">
<style type="text/css">
	.st0{fill:#105934;}
	.st1{fill:#AA7329;}
	.st2{opacity:0.5;fill:#F2A638;enable-background:new    ;}
	.st3{fill:#EADEBE;}
	.st4{fill:#421F05;}
	.st5{fill:#330A1B;}
	.st6{fill:#BF165B;}
	.st7{fill:#F2F2F2;}
	.st8{fill:#EA6A13;}
	.st9{opacity:0.33;fill:#FCAD77;enable-background:new    ;}
	.st10{fill:#AF8D71;}
	.st11{fill:#A85EAA;}
	.st12{fill:#23AF94;}
	.st13{fill:#352106;}
	.st14{fill:#442C08;}
	.st15{fill:#0C3D22;}
	.st16{opacity:0.25;fill:#B75667;enable-background:new    ;}
	.st17{opacity:0.5;fill:#105934;enable-background:new    ;}
	.st18{fill:#964576;}
	.st19{opacity:0.5;fill:#964576;enable-background:new    ;}
	.st20{fill:#D7943B;}
	.st21{fill:#DBB061;}
	.st22{opacity:0.49;fill:#EADEBE;enable-background:new    ;}
	.st23{fill:#D11939;}
	.st24{fill:#D33346;}
	.st25{fill:#5E2E22;}
	.st26{fill:#5B1608;}
	.st27{fill:#CC6542;}
	.st28{fill:#AA4123;}
	.st29{fill:#FFD5B1;}
	.st30{fill:#BD5232;}
	.st31{fill:#BE5331;}
	.st32{fill:#7E3A23;}
	.st33{fill:none;stroke:#AA4123;stroke-width:4;stroke-miterlimit:10;}
</style>
<title>wholecake</title>
<g>
	<g id="Layer_11">
		<path class="st0" d="M166.4,349.3c-77,0-96.4,37.7-143.2,61.3l352.3,0.3C338.4,393.2,243.3,349.3,166.4,349.3z"/>
		<path class="st1" d="M185.6,224.4l-6.1,105.9l-1,18.2c0,0,159.1,44.1,325.8,18.7l1-18.2l6.1-105.9L185.6,224.4z"/>
		<path class="st2" d="M184.3,247l-5.8,101.6c0,0,159.1,45.3,325.8,18.7C504.2,367.2,169.9,375.6,184.3,247z"/>
		<path class="st3" d="M203.1,346.2c4.7,2.3,9.8,4.7,15.4,4.8c9.9,0.1,17.6-6.9,27.5-6.6c11.2,0.3,18.8,9.4,29.8,10.8
			c10.5,1.3,19.9-4.8,30.4-4.5c12.3,0.4,21.4,9,33.3,11.5c19.6,4.1,38.9-9.5,58.5-5.7c6.4,1.3,11.9,4.3,18.3,5.5
			c13.8,2.7,27.1-3.1,40.6-5.7c15.4-2.9,31.3-1.8,46.2,3.1c4.3,1.5,8.9,3.8,9.1,7.1c0.2,3.1-3.5,5.4-7,7.1
			c-28.1,13.4-65.1,14.4-99.5,11.2s-68.5-10.1-103.1-10.8c-20.7-0.4-41.3,1.4-62,1s-42.2-3.2-59.5-11.8c-7.4-3.7-15.2-11.1-8.6-17
			C180.8,339.2,193.7,341.6,203.1,346.2z"/>
		<path class="st4" d="M510.4,297.6c-0.5,6.5-5.2,4.6-5.2,4.6c-4.6-1.3,0.6-22.4,0.6-22.4c-3.5,7.7-6.7-0.4-6.7-0.4
			c-6.4-5-3.9,23.4-3.9,23.4c2.3,16.7-6.1,17.8-6.1,17.8c-8,0.8-1.5-43.3-1.5-43.3c-1.4-9.7-7-6.9-7-6.9c2.4,9.4-3,18.3-3,18.3
			c-18.6,17.2-7.9-23.3-7.9-23.3c-0.3-7.4-6.3-3.3-6.3-3.3c0.2,12.5-14.6,8-14.6,8c2.7,12.7-10.4,8.3-10.5,8.3
			c3,0.3,3.7,12.4,3.8,14.6c0.2,7.1,0.2,14.2,0,21.3c-0.1,5.2-0.7,11.5-6.2,14c-12.2,5.7-11.7-38.7-11.6-42.9
			c0.1-3.1,2.3-13.1-2.6-14.1c-2.9-0.6-4.3,8.5-6.1,10.8c-2,2.6-7.9,6.9-10.8,3.5s-0.9-8.8-0.2-12.4s-0.8-8.8-5.8-9.2
			c-2.1-0.1-3.9,1.5-4,3.6c0,0.7,0.1,1.4,0.4,1.9c3.1,6.2,3.4,14.2-0.1,20.5c-2,3.2-6,4.5-9.5,3c-3.8-1.5-5.5-5.7-6.1-9.4
			c-0.4-2.4,0.9-8.8-2.6-9.2c-9.1-1.1-3.9,13.1-8.9,15.9c-6.1,3.5-12,1.8-11.9-5.7c0-2,0.7-5.1-2-6c-6.3-2.2-4.7,17.8-4.6,20.3
			c0.6,10.9,4.3,23.4-3,33c-16.9,7-8.2-55.1-15.5-58c-5.4-2.1-5.1,8.5-5.2,10.9c-0.3,5.8-8.9,7.9-10.7,1.8
			c-1.1-3.8,0.8-7.6,0.3-11.3c-7.5-8.7-9.4,8.8-9.7,12.9c-0.5,5.3-0.6,10.5-0.5,15.8c0,4.9,3.5,15-3.8,17c-9,2.4-8.3-11.3-8.7-16.1
			c-0.6-6.7-1.2-13.3-0.8-20.1c0.1-2.1,3.5-19.9,2-21c-4.8-3.6-6,4.5-6.4,7.3c-0.5,3.2-0.7,9.4-4.5,10.9c-8.8,3.4-10-7.5-10.2-13.2
			c-0.1-2.9,1.6-8.3-2.8-8.6c-1.9-0.2-3.6,1.1-3.9,3c0,0.3,0,0.6,0,1c1.1,8.6-3.8,12.1-3.8,12.1c-14.1,11.2-14-6.6-14-6.6
			c-9.3-4.9-6.3,17.7-6.3,17.8c1.1,8.4,1,19.4-2.3,27.3c-1.4,3.4-5,8-9.6,6.2c-3.6-1.4-4-6.6-4.2-9.7c-0.8-11.1,1.1-23.5,4.1-34.3
			c1-2.8,4.6-11.7,0.4-13.9c-5.1-2.7-3.5,8.3-3.9,10.5c-0.4,3.1-1.5,8.2-5.1,9.4c-13.1,4.5-9.4-26.6-9.4-26.6
			c-9.9-5.4-4.1,24.6-4.1,24.6c1.9,3.9,3.6,9.3,0.5,13.1c-4.1,5.2-10.9,2.8-13.3-2.4c-2.1-4.4-2.2-9.7-2.1-14.5
			c0.3-7.4,1.1-14.8,2.6-22c-4.4,2.2-16.4,8.3-16.5-0.7c0-2.4,1.4-4.4,1.9-6.6c1.4-6.2-4.3-11.6-3-17.9c2.1-9.8,14-13.4,22.9-15.2
			c30.1-6,61.6-7.4,92.3-7.6c35.8-0.2,71.5,2,107,6.5c33.1,4.1,68.6,7,100.3,17.7c10.3,3.5,18.8,7.3,16.7,17.3
			C514.2,264.9,511.8,281.2,510.4,297.6z"/>
		<path class="st1" d="M219.9,147l4.6,80.7l0.8,13.9c0,0,124.2,19.6,248.1-14.1l-0.8-13.9l-3.2-56.5c-0.8-13.4-12.2-23.6-25.6-22.8
			c0,0,0,0-0.1,0L219.9,147z"/>
		<path class="st2" d="M220.8,162.5l4.5,79.1c0,0,124.3,20.5,248.1-14.1C473.4,227.4,218.6,257.1,220.8,162.5z"/>
		<path class="st3" d="M243.2,237.6c3.8,1.3,7.8,2.7,12.1,2.3c7.5-0.8,12.7-6.7,20.2-7.4c8.5-0.8,15,5.5,23.5,5.6
			c8,0.1,14.6-5.3,22.6-6c9.3-0.8,16.9,5,26.2,5.8c15.1,1.4,28.6-10.6,43.8-9.4c4.9,0.4,9.4,2.2,14.3,2.6
			c10.7,0.9,20.3-4.7,30.3-7.8c11.4-3.5,23.5-4.1,35.2-1.6c3.4,0.7,7.1,2.1,7.5,4.6c0.4,2.3-2.1,4.4-4.7,6
			c-20.1,12.6-48,16.5-74.4,17.1s-52.7-1.7-78.9,0.8c-15.7,1.5-31.1,4.6-46.8,6.1s-32.2,1.3-46-3.7c-5.9-2.1-12.5-7.1-8-12.1
			C225.6,234.3,235.7,235,243.2,237.6z"/>
		<path class="st4" d="M471.4,174.2c0.2,5-3.5,3.9-3.5,3.9c-3.6-0.6-1.5-17-1.5-17c-2,6.1-5.1,0.3-5.1,0.3
			c-5.3-3.3-0.9,18.1-0.9,18.1c3.2,12.4-3.1,14-3.1,14c-6,1.3-4.9-32.6-4.9-32.6c-1.9-7.2-5.9-4.6-5.9-4.6
			c2.6,6.9-0.7,14.1-0.7,14.1c-12.6,14.6-8-16.9-8-16.9c-0.9-5.5-5.1-2-5.1-2c1.2,9.5-10.4,7.4-10.4,7.4c3.2,9.4-7.2,7.2-7.2,7.2
			c2.3,0,3.9,9.1,4.1,10.7c0.8,5.3,1.4,10.7,1.9,16.1c0.4,4,0.5,8.7-3.5,11.2c-8.7,5.4-12.2-28.3-12.5-31.4
			c-0.2-2.4,0.6-10.1-3.2-10.4c-2.3-0.2-2.5,6.8-3.7,8.7c-1.3,2.1-5.4,5.9-7.9,3.6s-1.4-6.6-1.2-9.4s-1.4-6.6-5.2-6.4
			c-1.6,0.1-2.8,1.5-2.7,3.1c0,0.5,0.2,1,0.5,1.4c3.1,4.6,3.7,10.4,1.7,15.5c-1.2,2.6-4.1,3.9-6.9,3.1c-3-0.8-4.7-3.8-5.4-6.6
			c-0.5-1.8-0.1-6.7-2.8-6.7c-7,0-1.8,10.3-5.3,12.8c-4.4,3.1-8.9,2.4-9.5-3.3c-0.1-1.5,0.1-3.9-2.1-4.4c-5-1.1-2,13.9-1.7,15.8
			c1.4,8.2,5.3,17.3,0.6,25.2c-12.2,6.7-11-41-16.8-42.6c-4.3-1.1-3.1,6.9-3,8.7c0.3,4.4-6.1,6.8-7.9,2.3c-1.2-2.8-0.1-5.8-0.7-8.6
			c-6.5-6-6.3,7.4-6.2,10.6c0.1,4,0.5,8,1,12c0.5,3.7,3.9,11-1.4,13.2c-6.6,2.6-7.2-7.8-8-11.4c-1.1-5-1.9-10-2.3-15.1
			c-0.1-1.6,0.9-15.4-0.3-16.1c-3.9-2.3-4.2,3.9-4.2,6.1c-0.1,2.5,0.3,7.2-2.4,8.6c-6.3,3.4-8.3-4.8-8.9-9.1
			c-0.3-2.2,0.5-6.4-2.9-6.3c-1.5,0-2.6,1.2-2.6,2.7c0,0.2,0,0.4,0.1,0.7c1.6,6.4-1.8,9.5-1.8,9.5c-9.7,9.7-11.1-3.8-11.1-3.8
			c-7.5-2.9-3.2,14-3.2,14c1.6,6.3,2.5,14.6,0.7,20.9c-0.8,2.7-3.1,6.5-6.7,5.5c-2.8-0.7-3.6-4.7-4-7c-1.6-8.3-1.2-17.9,0.1-26.3
			c0.5-2.2,2.5-9.3-0.9-10.6c-4.1-1.6-2,6.5-2,8.3c0,2.4-0.4,6.3-3,7.6c-9.5,4.5-9.4-19.3-9.4-19.3c-8-3.2-0.9,19-0.9,19
			c1.8,2.8,3.5,6.7,1.5,9.9c-2.6,4.3-8,3-10.3-0.6c-2-3.2-2.5-7.2-2.9-10.8c-0.4-5.6-0.4-11.3,0.1-16.9c-3.1,2.1-11.7,7.7-12.5,0.9
			c-0.2-1.8,0.6-3.4,0.8-5.2c0.5-4.8-4.3-8.4-3.8-13.3c0.7-7.6,9.4-11.3,16-13.5c22.2-7.2,46-11,69.2-13.8
			c27.1-3.3,54.3-4.7,81.5-4.4c25.4,0.3,52.5-0.7,77.5,4.7c8,1.7,14.9,3.8,14.1,11.6C471.5,149.1,471.1,161.7,471.4,174.2z"/>
		<path class="st1" d="M254.2,71.6c-3.1,0-5.7,2.6-5.7,5.7v0v51.8v5.2c0,2.8,2,5.1,4.7,5.6c18.9,3.5,92,15,167.6,0.1
			c2.7-0.5,4.6-2.9,4.6-5.6v-5.2V77.4c0-3.1-2.6-5.7-5.7-5.7l0,0L254.2,71.6z"/>
		<path class="st2" d="M248.5,83.8v50.4c0,2.8,2,5.1,4.7,5.6c19.7,3.6,39.6,6,59.6,7c7.1,0.4,8.5-10,1.4-11.4
			C278.8,128.9,248.6,114.2,248.5,83.8z"/>
		<path class="st3" d="M261.4,137c2.6,1.1,5.5,2.2,8.5,2.1c5.4-0.2,9.3-4.3,14.7-4.4c6-0.2,10.4,4.5,16.5,4.9
			c5.7,0.4,10.6-3.2,16.3-3.3c6.7-0.2,11.8,4.2,18.4,5.2c10.7,1.6,20.8-6.4,31.5-4.9c3.5,0.5,6.6,1.9,10.1,2.4
			c7.5,1.1,14.6-2.5,21.8-4.3c8.2-2,16.9-1.9,25.1,0.3c2.4,0.7,4.9,1.8,5.2,3.6s-1.7,3-3.6,4.1c-14.8,8.1-34.8,9.8-53.5,9.1
			c-18.7-0.7-37.4-3.4-56.1-2.7c-11.2,0.4-22.3,2-33.5,2.4c-11.2,0.5-23-0.4-32.6-4.5c-4.1-1.8-8.6-5.5-5.2-8.9
			C249,133.9,256.1,134.8,261.4,137z"/>
		<path class="st4" d="M426.1,101.2c-0.1,3.5-2.6,2.6-2.6,2.6c-2.5-0.6-0.4-12.1-0.4-12.1c-1.7,4.3-3.6,0-3.6,0
			c-3.6-2.5-1.4,12.8-1.4,12.8c1.8,9-2.8,9.8-2.8,9.8c-4.3,0.7-2.1-23.4-2.1-23.4c-1.1-5.2-4-3.5-4-3.5c1.6,5-1.1,10-1.1,10
			c-9.5,9.9-5-12.4-5-12.4c-0.4-4-3.5-1.6-3.5-1.6c0.5,6.8-7.7,4.8-7.7,4.8c1.9,6.8-5.4,4.8-5.4,4.8c1.6,0.1,2.4,6.6,2.5,7.8
			c0.3,3.8,0.5,7.7,0.7,11.5c0.1,2.8,0,6.2-2.9,7.8c-6.4,3.5-7.5-20.6-7.6-22.8c-0.1-1.7,0.9-7.2-1.8-7.5c-1.6-0.2-2.1,4.7-3,6.1
			s-4.1,4-5.8,2.2s-0.8-4.7-0.5-6.7s-0.7-4.7-3.4-4.8c-1.1,0-2,0.9-2,2.1c0,0.4,0.1,0.7,0.3,1.1c2,3.4,2.2,7.5,0.6,11.1
			c-1,1.8-3.1,2.6-5,1.9c-2.1-0.7-3.2-2.9-3.6-4.9c-0.3-1.3,0.2-4.8-1.7-4.9c-5-0.3-1.7,7.2-4.3,8.9c-3.2,2.1-6.5,1.3-6.6-2.7
			c0-1.1,0.2-2.8-1.3-3.2c-3.5-1-2,9.8-1.8,11.1c0.7,5.9,3,12.5-0.6,18c-8.9,4.3-6.1-29.6-10.2-30.9c-3-1-2.5,4.8-2.5,6
			c0,3.2-4.6,4.6-5.7,1.3c-0.7-2,0.2-4.1-0.2-6.1c-4.3-4.5-4.8,5-4.9,7.3c-0.1,2.9,0,5.7,0.2,8.6c0.2,2.7,2.3,8-1.5,9.3
			c-4.8,1.6-4.8-5.9-5.2-8.5c-0.6-3.6-0.9-7.2-1-10.8c0-1.2,1.3-10.9,0.5-11.5c-2.7-1.8-3.1,2.6-3.3,4.2c-0.2,1.8-0.1,5.1-2.1,6
			c-4.6,2.1-5.7-3.7-5.9-6.8c-0.1-1.6,0.6-4.5-1.8-4.6c-1-0.1-1.9,0.7-2,1.7c0,0.2,0,0.4,0,0.5c0.9,4.6-1.7,6.7-1.7,6.7
			c-7.3,6.5-7.8-3.1-7.8-3.1c-5.2-2.4-2.9,9.8-2.9,9.8c0.9,4.5,1.1,10.5-0.4,14.9c-0.6,1.9-2.5,4.5-5,3.7c-2-0.6-2.4-3.5-2.6-5.1
			c-0.6-6.2-0.3-12.5,1.2-18.6c0.4-1.6,2.1-6.5-0.2-7.6c-2.8-1.3-1.7,4.6-1.8,5.8c-0.1,1.7-0.6,4.5-2.5,5.2
			c-7,2.8-5.9-14.1-5.9-14.1c-5.5-2.6-1.4,13.4-1.4,13.4c1.1,2.1,2.2,4.9,0.7,7.1c-2,2.9-5.8,1.8-7.3-0.9c-1.3-2.3-1.5-5.2-1.6-7.8
			c-0.1-4,0.2-8,0.8-12c-2.3,1.3-8.6,5-8.9,0.1c-0.1-1.3,0.6-2.4,0.8-3.7c0.5-3.4-2.7-6.2-2.2-9.6c0.8-5.4,7.2-7.7,11.9-8.9
			c16.1-4.2,33.1-5.9,49.7-7c19.4-1.2,38.8-1.1,58.1,0.2c18,1.2,37.4,1.7,54.8,6.5c5.6,1.6,10.4,3.3,9.5,8.8
			C427.2,83.4,426.4,92.3,426.1,101.2z"/>
		<path class="st1" d="M284.5,17.1c-2.4-0.1-4.5,1.7-4.7,4.1l-2.5,35.4l-0.5,6.9c0,0,57.5,16.7,119,9.1c2.1-0.3,3.8-2,3.9-4.1
			l0.2-3.2l2.5-35.4c0.2-2.5-1.7-4.6-4.1-4.8c0,0,0,0,0,0L284.5,17.1z"/>
		<path class="st2" d="M279.5,25.3l-2.7,38.3c0,0,59.7,17.8,122.7,8.6C399.5,72.2,270.2,75.3,279.5,25.3z"/>
		<path class="st3" d="M285.8,62.8c1.8,1,3.7,1.7,5.8,1.9c3.8,0.1,6.6-2.5,10.4-2.4c4.2,0.2,7,3.7,11.2,4.2
			c3.9,0.5,7.5-1.7,11.5-1.5c4.6,0.2,8,3.5,12.5,4.5c7.4,1.6,14.7-3.4,22.1-1.9c2.4,0.5,4.5,1.7,6.9,2.2c5.2,1.1,10.3-1,15.4-2
			c5.8-1,11.8-0.5,17.4,1.4c1.6,0.6,3.3,1.5,3.4,2.7s-1.3,2-2.7,2.7c-10.6,4.9-24.6,5.1-37.6,3.7s-25.8-4.1-38.8-4.6
			c-7.8-0.3-15.6,0.3-23.4,0.1s-15.9-1.4-22.4-4.7c-2.8-1.4-5.7-4.3-3.2-6.4C277.4,60,282.3,61,285.8,62.8z"/>
		<path class="st4" d="M401.8,45.9c-0.2,2.4-2,1.7-2,1.7c-1.7-0.5,0.3-8.4,0.3-8.4c-1.4,2.9-2.5-0.2-2.5-0.2
			c-2.4-1.9-1.6,8.8-1.6,8.8c0.8,6.3-2.4,6.7-2.4,6.7c-3,0.3-0.4-16.3-0.4-16.3c-0.5-3.7-2.6-2.6-2.6-2.6c0.4,2.4,0,4.8-1.2,6.9
			c-7.1,6.4-2.9-8.8-2.9-8.8c-0.1-2.8-2.4-1.3-2.4-1.3c0,4.7-5.5,3-5.5,3c1,4.8-4,3.1-4,3.1c1.1,0.1,1.4,4.7,1.4,5.5
			c0,2.7,0,5.3-0.1,8c-0.1,2-0.3,4.3-2.4,5.3c-4.6,2.1-4.2-14.6-4.2-16.2c0-1.2,0.9-4.9-0.9-5.3c-1.1-0.2-1.7,3.2-2.4,4.1
			s-3,2.6-4.1,1.3s-0.3-3.3,0-4.7s-0.3-3.3-2.1-3.5c-0.8,0-1.4,0.6-1.5,1.4c0,0.2,0.1,0.5,0.2,0.7c1.2,2.4,1.2,5.3-0.1,7.7
			c-0.8,1.2-2.3,1.7-3.6,1.1c-1.3-0.7-2.2-2.1-2.3-3.6c-0.1-0.9,0.4-3.3-0.9-3.5c-3.4-0.4-1.5,4.9-3.4,5.9c-2.3,1.3-4.5,0.6-4.5-2.2
			c0-0.8,0.3-1.9-0.7-2.3c-2.4-0.8-1.9,6.7-1.8,7.6c0.2,4.1,1.5,8.8-1.3,12.4c-6.4,2.5-2.8-20.8-5.6-21.9c-2-0.8-2,3.2-2,4.1
			c-0.1,2.2-3.4,2.9-4,0.6c-0.4-1.4,0.3-2.9,0.2-4.3c-2.8-3.3-3.6,3.3-3.7,4.8c-0.2,2-0.3,4-0.3,6s1.2,5.7-1.5,6.4
			c-3.4,0.9-3-4.3-3.2-6.1c-0.2-2.5-0.3-5-0.2-7.6c0.1-0.8,1.4-7.5,0.9-7.9c-1.8-1.4-2.3,1.6-2.5,2.7s-0.3,3.5-1.7,4.1
			c-3.3,1.3-3.8-2.9-3.8-5c0-1.1,0.6-3.1-1-3.3c-0.7-0.1-1.4,0.4-1.5,1.1c0,0.1,0,0.2,0,0.3c0.4,3.3-1.5,4.6-1.5,4.6
			c-5.4,4.2-5.2-2.5-5.2-2.5c-3.5-1.9-2.5,6.6-2.5,6.6c0.4,3.2,0.3,7.3-1,10.3c-0.5,1.3-1.9,3-3.6,2.3c-1.3-0.5-1.5-2.5-1.5-3.7
			c-0.1-4.4,0.4-8.7,1.7-12.9c0.4-1.1,1.8-4.4,0.2-5.3c-1.9-1-1.4,3.1-1.5,3.9c-0.2,1.2-0.6,3.1-2,3.5c-5,1.6-3.4-10.1-3.4-10.1
			c-3.7-2.1-1.6,9.3-1.6,9.3c0.7,1.5,1.3,3.5,0.1,4.9c-1.6,1.9-4.1,1-5-1c-0.6-1.7-0.9-3.6-0.7-5.5c0.1-2.8,0.5-5.6,1.1-8.3
			c-1.6,0.8-6.2,3-6.2-0.3c0.1-0.9,0.4-1.7,0.7-2.5c0.5-2.3-1.6-4.4-1-6.8c0.8-3.7,5.3-5,8.7-5.6c11.4-2.1,23.3-2.5,34.8-2.4
			c13.5,0.1,27,1.1,40.3,2.9c12.4,1.7,25.8,3,37.7,7.1c3.8,1.3,7,2.8,6.2,6.6C403.4,33.5,402.4,39.7,401.8,45.9z"/>
		
			<ellipse transform="matrix(8.628631e-002 -0.9963 0.9963 8.628631e-002 295.8669 364.5699)" class="st5" cx="346.7" cy="21" rx="6.1" ry="51.3"/>
		<path class="st6" d="M271.9,59c1-0.3,2,0.2,2.3,1.2c0,0,0,0,0,0l3.5,12.5c0.2,1-0.4,2-1.4,2.2c-0.9,0.2-1.9-0.3-2.2-1.2l-3.5-12.4
			C270.4,60.2,271,59.2,271.9,59C271.9,59,271.9,59,271.9,59z"/>
		<path class="st7" d="M272,58.4c0.2,0.5,0.3,1.1,0.5,1.6c0.1,0.2,0.2,0.6,0,0.7s-0.4-0.4-0.4-0.6c-0.1-0.5-0.3-1.1-0.5-1.6
			c0-0.1,0-0.3,0-0.4C271.6,57.6,271.9,58.2,272,58.4z"/>
		<path class="st8" d="M271.6,54.4c-0.4,0.2-0.8,0.5-1.1,0.9c-0.5,0.8-0.7,1.8-0.4,2.7c0.3,0.8,1.2,1.3,2,1.1
			c0.7-0.2,1.2-0.8,1.1-1.5c-0.2-0.6-0.5-1.2-1-1.6C271.7,55.6,271.4,55,271.6,54.4z"/>
		<path class="st9" d="M271.7,54.2c-0.4,0.2-0.8,0.5-1.1,0.9c-0.5,0.8-0.7,1.8-0.4,2.7c0.3,0.8,1.2,1.3,2,1.1
			c0.7-0.2,1.2-0.8,1.1-1.5c-0.2-0.6-0.5-1.2-1-1.6C271.7,55.4,271.5,54.8,271.7,54.2z"/>
		<path class="st10" d="M380.3,7.6c1,0.2,1.6,1.2,1.4,2.2c0,0,0,0,0,0l-3.4,12.5c-0.3,1-1.4,1.5-2.4,1.2c-0.9-0.3-1.5-1.3-1.2-2.2
			L378,8.7C378.3,7.8,379.3,7.3,380.3,7.6z"/>
		<path class="st7" d="M380.6,7.1c-0.1,0.5-0.3,1.1-0.5,1.6c-0.1,0.2-0.1,0.6-0.4,0.6s-0.1-0.5-0.1-0.7c0.1-0.5,0.3-1.1,0.4-1.6
			c0-0.1,0.1-0.3,0.2-0.4C380.7,6.3,380.7,6.8,380.6,7.1z"/>
		<path class="st8" d="M382.3,3.5c-0.5-0.1-1,0-1.4,0.3c-0.9,0.4-1.5,1.2-1.7,2.1c-0.2,0.8,0.3,1.7,1.1,2C381,8,381.7,7.6,382,7
			c0.2-0.6,0.2-1.3-0.1-1.9C381.7,4.5,381.9,3.9,382.3,3.5z"/>
		<path class="st9" d="M382.4,3.3c-0.5-0.1-1,0-1.4,0.3c-0.9,0.4-1.5,1.2-1.7,2.1c-0.2,0.8,0.3,1.7,1.1,2c0.7,0.2,1.4-0.1,1.7-0.8
			c0.2-0.6,0.2-1.3-0.1-1.9C381.9,4.4,382,3.8,382.4,3.3z"/>
		<path class="st6" d="M448.4,123.6c1,0.2,1.6,1.2,1.3,2.2c0,0,0,0,0,0l-3.5,12.5c-0.4,1-1.4,1.5-2.4,1.1c-0.9-0.3-1.4-1.2-1.2-2.1
			l3.5-12.5C446.4,123.8,447.4,123.3,448.4,123.6C448.4,123.6,448.4,123.6,448.4,123.6z"/>
		<path class="st7" d="M448.8,123.1c-0.1,0.6-0.3,1.1-0.5,1.6c-0.1,0.2-0.2,0.6-0.4,0.6s-0.1-0.5,0-0.7c0.1-0.5,0.3-1.1,0.5-1.6
			c0-0.1,0.1-0.3,0.2-0.4C448.8,122.3,448.8,122.8,448.8,123.1z"/>
		<path class="st8" d="M450.4,119.5c-0.5-0.1-1,0-1.4,0.2c-0.9,0.4-1.5,1.1-1.7,2c-0.2,0.8,0.3,1.7,1.1,2c0.7,0.2,1.4-0.1,1.7-0.7
			c0.2-0.6,0.2-1.3,0-1.9C449.9,120.6,450,120,450.4,119.5z"/>
		<path class="st9" d="M450.6,119.4c-0.5-0.1-1,0-1.4,0.2c-0.9,0.4-1.5,1.1-1.7,2c-0.2,0.8,0.3,1.7,1.1,2c0.7,0.2,1.4-0.1,1.7-0.7
			c0.2-0.6,0.2-1.3,0-1.9C450.1,120.5,450.2,119.8,450.6,119.4z"/>
		<path class="st11" d="M348.5,142.3c1-0.1,1.9,0.7,1.9,1.7c0,0,0,0,0,0l0.3,12.9c0,1-0.9,1.8-1.9,1.8c-0.9,0-1.7-0.8-1.8-1.7
			l-0.4-12.9C346.7,143,347.5,142.2,348.5,142.3C348.5,142.3,348.5,142.3,348.5,142.3z"/>
		<path class="st7" d="M348.7,141.7c0.1,0.6,0,1.1,0,1.7c0,0.2,0,0.6-0.2,0.6s-0.3-0.4-0.3-0.7c0-0.6-0.1-1.1,0-1.7
			c0-0.1,0-0.3,0.1-0.4C348.6,140.9,348.7,141.5,348.7,141.7z"/>
		<path class="st8" d="M349.3,137.8c-0.5,0.1-0.9,0.3-1.3,0.6c-0.7,0.6-1.1,1.5-1,2.5c0.1,0.8,0.8,1.5,1.6,1.5
			c0.7,0,1.3-0.5,1.4-1.2c0-0.6-0.2-1.3-0.6-1.8C349.1,139,349,138.3,349.3,137.8z"/>
		<path class="st9" d="M349.4,137.6c-0.5,0.1-0.9,0.3-1.3,0.6c-0.7,0.6-1.1,1.5-1,2.5c0.1,0.8,0.8,1.5,1.6,1.5
			c0.7,0,1.3-0.5,1.4-1.2c0-0.6-0.2-1.3-0.6-1.8C349.2,138.8,349.1,138.1,349.4,137.6z"/>
		<path class="st12" d="M329.4,4.7c1-0.2,1.9,0.4,2.1,1.4c0,0,0,0,0,0l2.1,12.8c0.1,1-0.6,2-1.6,2.1c-1,0.1-1.9-0.5-2.1-1.5
			l-2.1-12.8C327.7,5.8,328.4,4.9,329.4,4.7C329.4,4.7,329.4,4.7,329.4,4.7z"/>
		<path class="st7" d="M329.5,4.1c0.1,0.5,0.2,1.1,0.3,1.7c0,0.2,0.1,0.6-0.1,0.7s-0.3-0.4-0.4-0.6c-0.1-0.5-0.2-1.1-0.3-1.7
			c0-0.1,0-0.3,0-0.4C329.2,3.4,329.4,3.9,329.5,4.1z"/>
		<path class="st8" d="M329.5,0.2c-0.5,0.1-0.9,0.4-1.2,0.8c-0.6,0.7-0.9,1.7-0.7,2.6c0.2,0.8,1,1.4,1.8,1.3
			c0.7-0.1,1.3-0.7,1.3-1.4c-0.1-0.6-0.4-1.2-0.8-1.7C329.5,1.4,329.3,0.7,329.5,0.2z"/>
		<path class="st9" d="M329.6,0c-0.5,0.1-0.9,0.4-1.2,0.8c-0.6,0.7-0.9,1.7-0.7,2.6c0.2,0.8,1,1.4,1.8,1.3c0.7-0.1,1.2-0.7,1.2-1.4
			c-0.1-0.6-0.4-1.2-0.8-1.7C329.5,1.2,329.4,0.6,329.6,0z"/>
		<path class="st12" d="M486,221.5c1,0.2,1.6,1.2,1.4,2.1l-3.1,12.6c-0.3,1-1.4,1.5-2.4,1.2c-0.9-0.3-1.4-1.2-1.3-2.1l3.1-12.6
			C484.1,221.8,485.1,221.2,486,221.5z"/>
		<path class="st7" d="M486.4,221c-0.1,0.5-0.3,1.1-0.4,1.6c0,0.2-0.1,0.6-0.4,0.6s-0.1-0.5-0.1-0.7c0.1-0.5,0.3-1.1,0.4-1.6
			c0-0.1,0.1-0.3,0.2-0.4C486.4,220.2,486.4,220.8,486.4,221z"/>
		<path class="st8" d="M488,217.4c-0.5-0.1-1,0-1.4,0.3c-0.9,0.4-1.5,1.2-1.7,2.1c-0.1,0.8,0.4,1.7,1.2,1.9c0.7,0.2,1.5-0.1,1.7-0.8
			c0.2-0.6,0.1-1.3-0.1-1.9C487.5,218.4,487.6,217.8,488,217.4z"/>
		<path class="st9" d="M488.1,217.3c-0.5-0.1-1,0-1.4,0.3c-0.9,0.4-1.5,1.2-1.7,2.1c-0.1,0.8,0.4,1.7,1.2,1.9
			c0.7,0.2,1.4-0.1,1.7-0.8c0.2-0.6,0.1-1.3-0.1-1.9C487.6,218.3,487.7,217.7,488.1,217.3z"/>
		<path class="st12" d="M273.5,239.9c1-0.1,1.9,0.6,2,1.6l1.1,12.9c0,1-0.8,1.9-1.8,1.9c-0.9,0-1.8-0.7-1.9-1.6l-1-12.8
			C271.7,240.9,272.4,240,273.5,239.9C273.4,239.9,273.5,239.9,273.5,239.9z"/>
		<path class="st7" d="M273.7,239.3c0.1,0.5,0.1,1.1,0.1,1.7c0,0.2,0.1,0.6-0.2,0.6s-0.3-0.4-0.3-0.6c0-0.6-0.1-1.1-0.1-1.7
			c0-0.1,0-0.3,0-0.4C273.4,238.5,273.6,239.1,273.7,239.3z"/>
		<path class="st8" d="M274,235.4c-0.5,0.1-0.9,0.3-1.2,0.7c-0.7,0.7-1,1.6-0.9,2.5c0.1,0.8,0.9,1.5,1.7,1.5c0.7,0,1.3-0.6,1.4-1.3
			c0-0.6-0.3-1.3-0.7-1.8C273.8,236.6,273.7,235.9,274,235.4z"/>
		<path class="st9" d="M274.1,235.2c-0.5,0.1-0.9,0.3-1.2,0.7c-0.7,0.7-1,1.6-0.9,2.5c0.1,0.8,0.9,1.5,1.7,1.5
			c0.7,0,1.3-0.6,1.4-1.3c0-0.6-0.3-1.3-0.7-1.8C273.9,236.4,273.8,235.8,274.1,235.2z"/>
		<path class="st6" d="M359.3,242.2c1,0.2,1.6,1.1,1.5,2.1L358,257c-0.3,1-1.3,1.6-2.3,1.3c-0.9-0.2-1.5-1.2-1.4-2.1l2.8-12.6
			C357.3,242.6,358.3,242,359.3,242.2C359.3,242.2,359.3,242.2,359.3,242.2z"/>
		<path class="st7" d="M359.6,241.7c-0.1,0.5-0.3,1.1-0.4,1.6c0,0.2-0.1,0.6-0.4,0.6s-0.1-0.5-0.1-0.7c0.1-0.5,0.2-1.1,0.4-1.6
			c0-0.1,0.1-0.3,0.2-0.4C359.6,240.9,359.7,241.5,359.6,241.7z"/>
		<path class="st8" d="M361.1,238c-0.5,0-1,0.1-1.4,0.3c-0.8,0.4-1.4,1.2-1.6,2.1c-0.1,0.8,0.4,1.7,1.2,1.9c0.7,0.2,1.4-0.2,1.7-0.8
			c0.1-0.6,0.1-1.3-0.1-1.9C360.6,239.1,360.7,238.5,361.1,238z"/>
		<path class="st9" d="M361.2,237.9c-0.5,0-1,0.1-1.4,0.3c-0.8,0.4-1.4,1.2-1.6,2.1c-0.1,0.8,0.4,1.7,1.2,1.9
			c0.7,0.2,1.4-0.2,1.7-0.8c0.1-0.6,0.1-1.3-0.1-1.9C360.7,239,360.8,238.4,361.2,237.9z"/>
		<path class="st11" d="M429.4,236.6c1-0.2,2,0.4,2.2,1.3c0,0,0,0,0,0l2.6,12.7c0.1,1-0.6,2-1.6,2.1c-0.9,0.1-1.8-0.5-2.1-1.4
			l-2.6-12.7C427.7,237.7,428.4,236.8,429.4,236.6z"/>
		<path class="st7" d="M429.5,236c0.1,0.5,0.2,1.1,0.3,1.7c0,0.2,0.1,0.6-0.1,0.7s-0.3-0.4-0.4-0.6c-0.1-0.5-0.2-1.1-0.3-1.6
			c0-0.1,0-0.3,0-0.4C429.2,235.2,429.4,235.8,429.5,236z"/>
		<path class="st8" d="M429.3,232.1c-0.5,0.2-0.9,0.5-1.1,0.9c-0.6,0.7-0.8,1.7-0.6,2.6c0.2,0.8,1,1.3,1.9,1.2
			c0.7-0.1,1.2-0.7,1.2-1.4c-0.1-0.6-0.4-1.2-0.9-1.7C429.3,233.2,429.1,232.6,429.3,232.1z"/>
		<path class="st9" d="M429.4,231.9c-0.5,0.2-0.9,0.5-1.1,0.9c-0.6,0.7-0.8,1.7-0.6,2.6c0.2,0.8,1,1.3,1.9,1.2
			c0.7-0.1,1.2-0.7,1.2-1.4c-0.1-0.6-0.4-1.2-0.9-1.7C429.4,233,429.2,232.4,429.4,231.9z"/>
		<path class="st12" d="M424,77.2c0.9,0.4,1.4,1.4,1,2.4c0,0,0,0,0,0l-5.4,11.7c-0.5,0.9-1.6,1.3-2.5,0.8c-0.9-0.4-1.3-1.5-0.9-2.4
			l5.4-11.8C422,77.1,423.1,76.7,424,77.2z"/>
		<path class="st7" d="M424.4,76.8c-0.2,0.5-0.5,1-0.7,1.5c-0.1,0.2-0.3,0.6-0.5,0.5s0-0.5,0.1-0.7c0.2-0.5,0.5-1,0.7-1.5
			c0.1-0.1,0.1-0.3,0.3-0.3C424.6,75.9,424.5,76.5,424.4,76.8z"/>
		<path class="st8" d="M426.6,73.5c-0.5-0.2-1-0.2-1.4,0c-0.9,0.2-1.6,0.9-2,1.8c-0.3,0.8,0,1.7,0.8,2.1c0.6,0.3,1.4,0.1,1.8-0.5
			c0.3-0.6,0.4-1.2,0.3-1.9C425.9,74.4,426.2,73.8,426.6,73.5z"/>
		<path class="st9" d="M426.8,73.4c-0.5-0.2-1-0.2-1.4,0c-0.9,0.2-1.6,0.9-2,1.8c-0.3,0.8,0,1.7,0.8,2.1c0.6,0.3,1.4,0.1,1.8-0.5
			c0.3-0.6,0.4-1.2,0.3-1.9C426.1,74.3,426.3,73.7,426.8,73.4z"/>
	</g>
	<g id="เกาะ">
		<path class="st13" d="M9,431.1c0,0-23.2,39.7,5,48s323.2,22.2,604.1,0c12.3-1,36.4-16.5,11.6-48c-5.6-7.1-98.7-8.7-211.2-8.1
			l-22.7,0.2c-7.6,1-15.4-0.5-23.1,0.2c-7.8,0.3-15.6-1.2-23.4,0.3c-7.8-0.1-15.7,0.2-23.6,0.3C168.4,426.3,9,431.1,9,431.1z"/>
		<path class="st14" d="M639.8,460.4c0,0,8.9-34.8-19.9-43.1s-293.1-6.6-588.9-4.9c-12.6,0.1-29.5,10.4-30.9,47
			c-0.2,6.2,171.6,10.6,337.5,9.5C491.4,467.7,639.8,460.4,639.8,460.4z"/>
		<path class="st15" d="M639.4,438.4c0,0,5-27.6-24.9-30c-29.4-2.3-273.4-0.5-566.5,0.5c-12.6,0-38.8-2.8-42.5,22.9
			c-0.5,3.5,3.2,12.6,27.1,14.5c4,0.3,18.1-10.6,22.6-5.7c4.5-2.3,9.3-8.9,14.4,0.8c5-13.4,10.3-5.8,15.8,0.7
			c5.5,12.6,11.2-10.9,17.1,0.6c5.9-7.8,12,5.5,18.3,0.5c6.3,8.8,12.8,0.3,19.4,0.4c11.6,0.2,23.8,6.9,36.3,7c6.3,0,12.6-6.5,19-6.4
			c6.4-0.8,13-4.8,19.6,0.1c6.6-4.8,13.3,3.5,20,0c6.7-3.3,13.5-2.7,20.3,0c6.8-3.3,13.7-4.5,20.6-0.1c6.9-1.5,13.8-2.4,20.8-0.1
			l20.9-0.1l13.1-0.1c4.4-2.6,8.7-1.9,13-0.1c4.4,0.2,8.7,3.9,13-0.1c4.3,2.4,8.7-2,13-0.1c4.3-0.6,8.6,1,12.9-0.1
			c4.3,3.6,8.5,7.8,12.8,6.4c4.3,0,8.5-6.7,12.7-6.7l21.9-0.3c7.2,1.8,14.4,3.1,21.4-0.3c7-4.1,14,15.1,20.8-0.3
			c6.8,9.4,13.5,10.8,20-0.4c6.5-6.8,13-6.5,19.2-0.4c6.3,2.5,12.4-4.3,18.3-0.4c5.9-1.6,11.7,2.2,17.3-0.4c2.8-2,5.5-1.9,8.2-1.4
			s5.3,1.4,7.9,1.1c2.6,1.2,5.1,2.6,7.6-0.2c2.5-3.1,4.9-5,7.3-0.2c7.6-1.9,14.6,4.5,20.9,4.5c6.3-0.3,12-9,17-5.3
			c5-0.6,9.2-4.9,12.7-0.3l7.9-0.2L639.4,438.4z"/>
		<path class="st0" d="M23,410.8c0,0,1.4,10.3,18.3,11.3c26.9,1.6,281.8,5.2,556.5-0.7c11.7-0.3,26.5-2.2,27.8-10.4
			c0.2-1.4-168.4-0.6-323-1.6C159.3,408.4,23,406.1,23,410.8z"/>
		<path class="st0" d="M426.5,329.9c-102.8,0-141.8,47.7-204.2,79.1l403.5,2C579.8,390.4,529.3,329.9,426.5,329.9z"/>
	</g>
	<g id="Layer_12">
		<path class="st16" d="M581.6,275.7c0,0-83.6,31.2-121.9-12.2c0,0,4.9-10.7,11.2-15.7L581.6,275.7z"/>
		<path class="st17" d="M450.4,344.6c0,0-79.3,17.2,44.5,38.7s59.1-14.3,59.1-14.3L450.4,344.6z"/>
		<g id="คัพเค้ก">
			<path class="st18" d="M449.3,307.5c0,0,0.6-104.8,93.7-61.9c0,0,66.6,12.8,35.5,88.4L449.3,307.5z"/>
			<path class="st19" d="M470.9,247.9c0,0-9.5,9.5-11.2,15.7s84.9,34.3,111.4,15.6C587.7,267.4,470.9,247.9,470.9,247.9z"/>
			<polygon class="st20" points="446.6,293.5 451.8,362.5 502.8,375.3 519.5,293.4 498.3,303.2 477.8,291 461.3,300.5 			"/>
			<polygon class="st20" points="589,313.3 557.8,378.6 502.8,375.3 519.5,293.4 535.5,308.9 559,304.9 570.8,318.5 			"/>
			<polygon class="st21" points="570.8,318.5 589,313.3 557.8,378.6 545.2,377.9 			"/>
			<polygon class="st21" points="535.5,308.9 559,304.9 528.5,376.9 516.6,376.1 			"/>
			<polygon class="st21" points="498.3,303.2 519.5,293.4 502.8,375.3 492.1,372.6 			"/>
			<polygon class="st21" points="461.3,300.5 477.8,291 477.8,369.1 463.2,365.4 			"/>
			<g id="วอป">
				<path class="st3" d="M533.7,165.1c0,0-19.3,23.5-35.2,30c-15.9,6.5-10.4,21.3-7.7,23.7s-28.5,4-19.6,29.9s94.2,41.6,110.4,27
					s13.9-41-5.1-51.7c0,0,5.8-19.2-14.8-23.4S532.2,170.6,533.7,165.1z"/>
				<path class="st22" d="M575.4,209.8c0,0,3.6,12.9-8.9,19.2c0,0,11.1,1.9,13.2-2.9c-1-0.8-2-1.5-3.2-2.1
					C576.5,224,578.9,214.1,575.4,209.8z"/>
				<path class="st22" d="M487.7,207.9c0,0,2,12.5,20.1,19.3c0,0-26.7,4.2-25.6-4.2c0,0,5.5-2.4,7.3-2.9s1.4-0.9,1.5-1.1
					c0,0-3.7-3.1-3.4-11.1"/>
				<path class="st22" d="M533.7,165.1c0,0,1.7,29.5,28.1,35.4C561.8,200.5,521.2,198.6,533.7,165.1z"/>
			</g>
			<path class="st22" d="M544.9,197.9c0,0-10.4-0.1-1.4,13.8s29.3,5.9,24.1,2.1C562.3,209.9,544.9,197.9,544.9,197.9z"/>
			<path class="st23" d="M566.9,189.7c0,0-11.8-7.9-19.9,2.5c-8.1,10.4-0.7,18.5,5.1,20.9c5.8,2.3,15.7,6.8,22.9-3
				S570.9,190,566.9,189.7z"/>
			<path class="st24" d="M566.4,190.9c0,0-11.3-5-9,8.5c2.8,16.1,13.8,14.1,17,6.7C577.6,198.6,572.1,192.5,566.4,190.9z"/>
			<path class="st25" d="M566.5,190.1c0,0,5.5-11.9,8.7-12.5l1.7,1.4c0,0-4.3,1.9-9.8,11.7C567.1,190.6,566.5,190.7,566.5,190.1z"/>
			<path class="st26" d="M575.2,177.6c0,0,0.5-0.1,1.4,0.9s-0.5,0.3-0.5,0.3S574.9,177.9,575.2,177.6z"/>
		</g>
		<g id="ขนมปัง">
			<path class="st17" d="M94.3,364.9l-30.6,19.5c0,0,12,20.2,94.5,14.9s92.8-6.4,92.8-6.4l18.7-13.1L94.3,364.9z"/>
			<path class="st27" d="M110.8,240c0,0-35.7,8.6-41.4,76.4c0,0,1,49.4,40.2,62.8c0,0,19,17.1,133.6,3.8c0,0,54.9,10,63-62.7
				s-41.6-88.9-41.6-88.9S138.6,236.9,110.8,240z"/>
			<path class="st28" d="M272.4,235.2c0,0-18-16.7-36.2,23.8s-27,74.3-9.8,100.6s39.9,21.3,39.9,21.3s33.1-7.3,39.9-60.6
				S287,242.6,272.4,235.2z"/>
			<path class="st29" d="M267.2,241.7c0,0-17.7-5.3-33.8,60.5s28.3,69.9,37.4,67.3s33.1-23.3,28.6-73.4S275.5,242.4,267.2,241.7z"/>
			<path class="st30" d="M75.1,285.1c0,0,15.8,112,156,81c0,0,18.9,15.6,30.9,15.3c0,0-123.6,16-152.5-2.1
				C109.6,379.2,52.7,360.7,75.1,285.1z"/>
			<path class="st31" d="M265.7,237.9c0,0-145.1-4.7-174.3,17c0,0-15.1,13.9-11,39.5s24.6-23.2,38.8-13.5s4.9,22.9,23.3,22.6
				s14.9-28.9,25.3-25.7s11.6,17,25.6,16.3s18.2-31.6,27.9-31.4s24.5-12.7,27.5-17.3S267.8,236.4,265.7,237.9z"/>
			<path class="st32" d="M264.4,228.1c0,0-145.1-4.7-174.3,17c0,0-15.1,13.9-11,39.5s24.6-23.2,38.8-13.5s4.9,22.9,23.3,22.6
				s14.9-28.9,25.3-25.7s11.6,17,25.6,16.3s18.2-31.6,27.9-31.4s30.6-3.5,33.6-8.1S280,236.1,264.4,228.1z"/>
			<path class="st33" d="M241.5,366.6c0,0,22.8,26.7,42.8-31.7c11.3-32.8-6-67.6-25.1-62.5c-12.9,3.4-22,49.1-5.2,69.8
				s27.5-34.1,13.3-36.5"/>
		</g>
	</g>
</g>
</svg>
