<?xml version="1.0" encoding="utf-8"?>
<!-- Generator: Adobe Illustrator 19.2.0, SVG Export Plug-In . SVG Version: 6.00 Build 0)  -->
<svg version="1.1" id="Layer_1" xmlns="http://www.w3.org/2000/svg" xmlns:xlink="http://www.w3.org/1999/xlink" x="0px" y="0px"
	 viewBox="0 0 641.1 384.9" style="enable-background:new 0 0 641.1 384.9;" xml:space="preserve">
<style type="text/css">
	.st0{fill:#844F10;}
	.st1{fill:#E28C1B;}
	.st2{fill:#FCD63A;}
	.st3{fill:#E0BF36;}
	.st4{fill:#F9D950;}
	.st5{fill:#FE5A72;}
	.st6{opacity:0.5;fill:#F2A638;enable-background:new    ;}
	.st7{fill:#EADEBE;}
	.st8{fill:#421F05;}
	.st9{opacity:0.5;fill:#FE5A72;enable-background:new    ;}
	.st10{fill:#330A1B;}
	.st11{fill:#BF165B;}
	.st12{fill:#F2F2F2;}
	.st13{fill:#EA6A13;}
	.st14{opacity:0.33;fill:#FCAD77;enable-background:new    ;}
	.st15{fill:#AF8D71;}
	.st16{fill:#A85EAA;}
	.st17{fill:#23AF94;}
	.st18{fill:#A50000;}
	.st19{fill:#FFD1D1;}
	.st20{opacity:0.5;fill:#939393;enable-background:new    ;}
	.st21{opacity:0.25;fill:#B55E24;enable-background:new    ;}
	.st22{opacity:0.6;fill:#FDE166;enable-background:new    ;}
	.st23{fill:#964576;}
	.st24{opacity:0.5;fill:#964576;enable-background:new    ;}
	.st25{fill:#D7943B;}
	.st26{fill:#DBB061;}
	.st27{opacity:0.49;fill:#EADEBE;enable-background:new    ;}
	.st28{fill:#D11939;}
	.st29{fill:#D33346;}
	.st30{fill:#5E2E22;}
	.st31{fill:#5B1608;}
	.st32{fill:#CC6542;}
	.st33{fill:#B85B3B;}
	.st34{fill:#FFD5B1;}
	.st35{opacity:0.15;fill:#CC6542;enable-background:new    ;}
	.st36{fill:#704205;}
	.st37{fill:none;stroke:#B85B3B;stroke-width:2;stroke-miterlimit:10;}
	.st38{fill:#70C5EF;}
	.st39{opacity:0.25;fill:#70C5EF;enable-background:new    ;}
	.st40{fill:#663902;}
	.st41{fill:#442C06;}
	.st42{fill:#F7B0C9;}
	.st43{fill:#A8DB46;}
	.st44{opacity:0.5;fill:#A8DB46;enable-background:new    ;}
	.st45{fill:#06C0CE;}
	.st46{fill:#4F240C;}
	.st47{opacity:0.5;fill:#06C0CE;enable-background:new    ;}
	.st48{fill:#41D68F;}
	.st49{opacity:0.5;fill:#41D68F;enable-background:new    ;}
	.st50{fill:#E85252;}
	.st51{opacity:0.5;fill:#E85252;enable-background:new    ;}
	.st52{fill:#DB4FC7;}
	.st53{opacity:0.5;fill:#DB4FC7;enable-background:new    ;}
</style>
<title>wholecake</title>
<g>
	<g id="Layer_11">
		<g id="เกาะ">
			<path class="st0" d="M9,324.9c0,0-23.1,39.7,5,48s323.2,22.2,604.2,0c12.3-1,36.4-16.5,11.6-48c-5.6-7.1-98.7-8.7-211.2-8.1
				l-22.7,0.2c-7.6,1-15.4-0.5-23.1,0.2c-7.8,0.3-15.6-1.2-23.4,0.3c-7.8-0.1-15.7,0.2-23.6,0.3C168.4,320,9,324.9,9,324.9z"/>
			<path class="st1" d="M639.8,354.1c0,0,8.9-34.8-19.9-43.1s-293.2-6.6-588.9-4.9c-12.6,0.1-29.5,10.4-30.9,47
				c-0.2,6.1,171.6,10.6,337.5,9.4C491.4,361.4,639.8,354.1,639.8,354.1z"/>
			<path class="st2" d="M639.4,332.2c0,0,5-27.6-24.9-30c-29.4-2.3-273.4-0.5-566.5,0.5c-12.6,0-38.8-2.8-42.5,22.9
				c-0.5,3.5,3.2,12.6,27.1,14.5c4,0.3,18.1-10.6,22.6-5.7c4.5-2.3,9.3-8.9,14.4,0.8c5-13.4,10.3-5.8,15.8,0.7
				c5.5,12.6,11.2-10.9,17.1,0.6c5.9-7.8,12,5.5,18.3,0.5c6.3,8.8,12.8,0.3,19.4,0.4c11.6,0.2,23.8,6.9,36.3,7
				c6.3,0,12.6-6.5,19-6.4c6.4-0.8,13-4.8,19.6,0.1c6.6-4.8,13.3,3.5,20,0c6.7-3.3,13.5-2.7,20.3,0c6.8-3.3,13.7-4.5,20.6-0.1
				c6.9-1.5,13.8-2.4,20.8-0.1l20.9-0.1l13.1-0.1c4.4-2.6,8.7-1.9,13-0.1c4.4,0.2,8.7,3.9,13-0.1c4.3,2.4,8.7-2,13-0.1
				c4.3-0.6,8.6,1,12.9-0.1c4.3,3.6,8.5,7.8,12.8,6.4c4.3,0,8.5-6.7,12.7-6.7l21.9-0.3c7.2,1.8,14.4,3.1,21.4-0.3
				c7-4.1,14,15.1,20.8-0.3c6.8,9.4,13.5,10.8,20-0.4c6.5-6.8,13-6.5,19.2-0.4c6.3,2.5,12.4-4.3,18.3-0.4c5.9-1.6,11.7,2.2,17.3-0.4
				c2.8-2,5.5-1.9,8.2-1.4s5.3,1.4,7.9,1.1c2.6,1.2,5.1,2.6,7.6-0.2c2.5-3.1,4.9-5,7.3-0.2c7.6-1.9,14.6,4.5,20.9,4.5
				c6.3-0.3,12-9,17-5.3c5-0.6,9.2-4.9,12.7-0.3l7.9-0.2L639.4,332.2z"/>
			<path class="st3" d="M15.7,308.3c0,0,6.9,8.1,23.8,9.1c26.9,1.6,281.8,5.2,556.5-0.7c11.7-0.3,27.3-4.3,28.7-12.5
				c0.2-1.4-169.2,1.4-323.9,0.4C157.4,303.8,15.7,303.6,15.7,308.3z"/>
			<path class="st2" d="M423.4,222.2c-102.8,0-147.9,51.5-210.4,82.9l411.6-0.9C578.7,283.7,526.2,222.2,423.4,222.2z"/>
		</g>
		<path class="st4" d="M185.4,240.2c-88.3,0-129.3,44.8-170.1,68.2l347.7,2l49.9-2.2C370.4,287.9,273.7,240.2,185.4,240.2z"/>
		<path class="st5" d="M311.8,155.4l-4.2,73.4l-0.7,12.6c0,0,110.2,30.6,225.6,12.9l0.7-12.6l4.2-73.4L311.8,155.4z"/>
		<path class="st6" d="M310.9,171.1l-4,70.3c0,0,28.2,32.6,143.7,14.1C450.6,255.5,301,260.1,310.9,171.1z"/>
		<path class="st7" d="M324,239.8c3.3,1.6,6.8,3.3,10.7,3.3c6.9,0.1,12.2-4.8,19-4.6c7.7,0.2,13,6.5,20.6,7.5
			c7.3,0.9,13.8-3.3,21.1-3.1c8.5,0.3,14.8,6.3,23,8c13.5,2.8,27-6.6,40.5-3.9c4.4,0.9,8.3,2.9,12.7,3.8c9.5,1.9,18.8-2.1,28.2-4
			c10.7-2,21.7-1.3,32,2.2c3,1,6.2,2.6,6.3,4.9c0.2,2.1-2.4,3.8-4.8,4.9c-19.5,9.3-45.1,10-68.9,7.8s-47.4-7-71.4-7.5
			c-14.3-0.3-28.6,1-42.9,0.7s-29.3-2.2-41.2-8.1c-5.1-2.5-10.6-7.7-6-11.8C308.5,234.9,317.4,236.6,324,239.8z"/>
		<path class="st8" d="M536.7,206.1c-0.3,4.5-3.6,3.2-3.6,3.2c-3.2-0.9,0.4-15.5,0.4-15.5c-2.4,5.3-4.6-0.3-4.6-0.3
			c-4.5-3.5-2.7,16.2-2.7,16.2c1.6,11.6-4.2,12.3-4.2,12.3c-5.6,0.5-1-30-1-30c-1-6.7-4.9-4.7-4.9-4.7c1.6,6.5-2.1,12.7-2.1,12.7
			c-12.9,11.9-5.5-16.1-5.5-16.1c-0.2-5.1-4.4-2.3-4.4-2.3c0.1,8.7-10.1,5.6-10.1,5.6c1.9,8.8-7.2,5.7-7.2,5.7
			c2.1,0.2,2.6,8.6,2.6,10.1c0.1,4.9,0.1,9.8,0,14.7c-0.1,3.6-0.5,7.9-4.3,9.7c-8.5,4-8.1-26.8-8.1-29.7c0-2.2,1.6-9.1-1.8-9.8
			c-2-0.4-3,5.9-4.2,7.5c-1.4,1.8-5.5,4.8-7.5,2.4s-0.6-6.1-0.1-8.6s-0.5-6.1-4-6.4c-1.4-0.1-2.7,1-2.7,2.5c0,0.5,0.1,0.9,0.3,1.4
			c2.3,4.5,2.3,9.7,0,14.2c-1.4,2.2-4.1,3.1-6.5,2.1c-2.7-1.1-3.8-4-4.2-6.5c-0.3-1.6,0.6-6.1-1.8-6.4c-6.3-0.7-2.7,9.1-6.1,11
			c-4.3,2.4-8.3,1.2-8.2-3.9c0-1.4,0.5-3.5-1.4-4.2c-4.4-1.5-3.3,12.3-3.2,14.1c0.4,7.5,3,16.2-2,22.9c-11.7,4.8-5.7-38.2-10.7-40.2
			c-3.7-1.5-3.5,5.9-3.6,7.5c-0.2,4-6.2,5.5-7.4,1.3c-0.8-2.7,0.5-5.3,0.2-7.8c-5.2-6-6.5,6.1-6.7,9c-0.3,3.6-0.4,7.3-0.4,11
			c0,3.4,2.4,10.4-2.6,11.7c-6.2,1.7-5.7-7.8-6-11.2c-0.5-4.6-0.7-9.3-0.5-13.9c0.1-1.5,2.4-13.8,1.4-14.6c-3.3-2.5-4.2,3.1-4.5,5.1
			c-0.3,2.2-0.5,6.5-3.1,7.5c-6.1,2.4-7-5.2-7.1-9.2c-0.1-2,1.1-5.7-2-6c-1.3-0.2-2.5,0.7-2.7,2c0,0.2,0,0.5,0,0.7
			c0.8,6-2.6,8.4-2.6,8.4c-9.7,7.8-9.7-4.6-9.7-4.6c-6.5-3.4-4.4,12.3-4.4,12.3c0.8,5.8,0.7,13.4-1.6,18.9c-1,2.4-3.5,5.5-6.6,4.3
			c-2.5-0.9-2.8-4.6-2.9-6.7c-0.6-7.7,0.8-16.3,2.8-23.7c0.7-2,3.2-8.1,0.3-9.6c-3.5-1.9-2.5,5.7-2.7,7.3c-0.3,2.2-1,5.7-3.5,6.5
			c-9.1,3.1-6.5-18.4-6.5-18.4c-6.9-3.7-2.8,17-2.8,17c1.3,2.7,2.5,6.4,0.4,9.1c-2.8,3.6-7.6,1.9-9.2-1.6c-1.4-3.1-1.5-6.7-1.5-10
			c0.2-5.1,0.8-10.2,1.8-15.3c-3,1.5-11.4,5.7-11.4-0.5c0-1.7,1-3,1.3-4.6c1-4.3-3-8.1-2.1-12.4c1.4-6.8,9.7-9.3,15.8-10.5
			c20.8-4.2,42.7-5.1,63.9-5.3c24.8-0.1,49.5,1.4,74.1,4.5c22.9,2.9,47.6,4.9,69.5,12.3c7.1,2.4,13,5,11.5,12
			C539.4,183.4,537.7,194.7,536.7,206.1z"/>
		<path class="st5" d="M335.6,101.8l3.2,55.9l0.5,9.6c0,0,86,13.6,171.8-9.8l-0.6-9.6l-2.2-39.1c-0.5-9.2-8.4-16.4-17.6-15.9
			c0,0,0,0,0,0L335.6,101.8z"/>
		<path class="st9" d="M336.2,112.5l3.1,54.8c0,0,86.1,14.2,171.8-9.8C511.1,157.5,334.7,178,336.2,112.5z"/>
		<path class="st7" d="M351.7,164.6c2.6,0.9,5.4,1.9,8.4,1.6c5.2-0.5,8.8-4.7,14-5.1c5.9-0.5,10.4,3.8,16.3,3.9
			c5.6,0.1,10.1-3.7,15.7-4.2c6.5-0.5,11.7,3.4,18.1,4c10.5,0.9,19.8-7.3,30.3-6.5c3.4,0.3,6.5,1.5,9.9,1.8c7.4,0.6,14-3.2,21-5.4
			c7.9-2.4,16.3-2.8,24.4-1.1c2.3,0.5,4.9,1.5,5.2,3.2s-1.5,3.1-3.2,4.1c-13.9,8.7-33.3,11.5-51.5,11.9s-36.5-1.2-54.7,0.5
			c-10.9,1-21.5,3.2-32.4,4.3s-22.3,0.9-31.9-2.6c-4.1-1.5-8.6-4.9-5.5-8.4C339.5,162.2,346.5,162.7,351.7,164.6z"/>
		<path class="st8" d="M509.8,120.6c0.1,3.4-2.4,2.7-2.4,2.7c-2.5-0.4-1-11.8-1-11.8c-1.4,4.2-3.5,0.2-3.5,0.2
			c-3.7-2.3-0.6,12.5-0.6,12.5c2.2,8.6-2.1,9.7-2.1,9.7c-4.2,0.9-3.4-22.6-3.4-22.6c-1.3-5-4.1-3.2-4.1-3.2c1.8,4.8-0.5,9.8-0.5,9.8
			c-8.7,10.1-5.5-11.7-5.5-11.7c-0.6-3.8-3.5-1.3-3.5-1.3c0.9,6.6-7.2,5.1-7.2,5.1c2.2,6.5-5,5-5,5c1.6,0,2.7,6.3,2.9,7.4
			c0.5,3.7,0.9,7.4,1.3,11.1c0.3,2.7,0.3,6-2.4,7.7c-6,3.7-8.5-19.6-8.7-21.8c-0.2-1.6,0.4-7-2.2-7.2c-1.6-0.1-1.8,4.7-2.6,6
			s-3.7,4.1-5.5,2.5s-1-4.6-0.9-6.5s-0.9-4.6-3.6-4.5c-1.1,0.1-1.9,1.1-1.8,2.2c0,0.3,0.1,0.7,0.3,1c2.1,3.2,2.6,7.2,1.2,10.7
			c-0.8,1.8-2.9,2.7-4.8,2.1c-2.1-0.6-3.2-2.7-3.8-4.6c-0.4-1.2,0-4.6-1.9-4.7c-4.9,0-1.3,7.1-3.7,8.9c-3,2.2-6.2,1.6-6.6-2.3
			c-0.1-1.1,0.1-2.7-1.4-3c-3.5-0.8-1.4,9.6-1.2,10.9c1,5.7,3.6,12,0.4,17.5c-8.4,4.7-7.6-28.4-11.6-29.5c-3-0.8-2.1,4.8-2.1,6
			c0.2,3.1-4.2,4.7-5.5,1.6c-0.8-1.9,0-4-0.5-5.9c-4.5-4.1-4.4,5.1-4.3,7.4c0.1,2.8,0.3,5.6,0.7,8.3c0.3,2.6,2.7,7.6-1,9.1
			c-4.6,1.8-5-5.4-5.5-7.9c-0.8-3.4-1.3-6.9-1.6-10.5c-0.1-1.1,0.6-10.7-0.2-11.2c-2.7-1.6-2.9,2.7-2.9,4.2c0,1.7,0.2,5-1.7,6
			c-4.4,2.3-5.7-3.3-6.1-6.3c-0.2-1.5,0.3-4.4-2-4.3c-1,0-1.8,0.8-1.8,1.8c0,0.2,0,0.3,0.1,0.5c1.1,4.4-1.3,6.6-1.3,6.6
			c-6.7,6.7-7.7-2.6-7.7-2.6c-5.2-2-2.2,9.7-2.2,9.7c1.1,4.3,1.7,10.1,0.5,14.4c-0.5,1.9-2.1,4.5-4.6,3.8c-2-0.5-2.5-3.2-2.8-4.8
			c-1-6-1-12.2,0.1-18.2c0.3-1.5,1.7-6.4-0.6-7.3c-2.8-1.1-1.4,4.5-1.4,5.7c0,1.7-0.3,4.4-2.1,5.2c-6.6,3.1-6.5-13.4-6.5-13.4
			c-5.5-2.2-0.6,13.1-0.6,13.1c1.2,1.9,2.4,4.7,1.1,6.8c-1.8,2.9-5.6,2.1-7.1-0.4c-1.4-2.2-1.7-5-2-7.5c-0.3-3.9-0.3-7.8,0.1-11.7
			c-2.1,1.4-8.1,5.3-8.7,0.6c-0.1-1.3,0.5-2.4,0.6-3.6c0.4-3.3-3-5.8-2.6-9.2c0.5-5.3,6.5-7.8,11.1-9.3c15.4-5,31.9-7.6,47.9-9.6
			c18.7-2.3,37.6-3.3,56.5-3.1c17.6,0.2,36.4-0.5,53.6,3.2c5.6,1.2,10.3,2.7,9.8,8.1C509.8,103.3,509.5,112,509.8,120.6z"/>
		<path class="st5" d="M359.3,49.6c-2.2,0-3.9,1.8-4,3.9V93c0,1.9,1.4,3.5,3.2,3.9c13.1,2.4,63.7,10.4,116.1,0.1
			c1.8-0.4,3.2-2,3.2-3.9V53.6c0-2.2-1.8-3.9-3.9-3.9L359.3,49.6z"/>
		<path class="st9" d="M355.4,58.1V93c0,1.9,1.4,3.5,3.2,3.9c13.7,2.5,27.4,4.1,41.3,4.9c5,0.3,5.9-6.9,1-7.9
			C376.4,89.2,355.4,79,355.4,58.1z"/>
		<path class="st7" d="M364.3,94.9c1.8,0.9,3.8,1.4,5.9,1.5c3.7-0.2,6.4-3,10.2-3.1c4.2-0.1,7.2,3.1,11.4,3.4
			c4,0.3,7.4-2.2,11.3-2.3c4.6-0.1,8.2,2.9,12.7,3.6c7.4,1.1,14.4-4.4,21.8-3.4c2.4,0.3,4.6,1.3,7,1.7c5.2,0.7,10.1-1.7,15.1-3
			c5.7-1.4,11.7-1.3,17.4,0.2c1.6,0.5,3.4,1.2,3.6,2.5s-1.2,2.1-2.5,2.8c-10.2,5.6-24.1,6.8-37.1,6.3s-25.9-2.3-38.9-1.9
			c-7.8,0.3-15.4,1.4-23.2,1.7s-15.9-0.3-22.5-3.1c-2.9-1.2-6-3.8-3.6-6.2C355.7,92.7,360.7,93.3,364.3,94.9z"/>
		<path class="st8" d="M478.4,70.1c0,2.4-1.8,1.8-1.8,1.8c-1.8-0.4-0.3-8.4-0.3-8.4c-1.2,2.9-2.5,0-2.5,0c-2.5-1.8-1,8.9-1,8.9
			c1.2,6.2-1.9,6.8-1.9,6.8c-3,0.5-1.5-16.2-1.5-16.2c-0.8-3.6-2.8-2.4-2.8-2.4c0.6,2.3,0.3,4.8-0.8,6.9c-6.6,6.8-3.5-8.6-3.5-8.6
			c-0.3-2.8-2.5-1.1-2.5-1.1c0.3,4.7-5.3,3.3-5.3,3.3c1.3,4.7-3.7,3.3-3.7,3.3c1.1,0,1.7,4.6,1.7,5.4c0.2,2.6,0.4,5.3,0.5,8
			c0.1,2,0,4.3-2,5.4c-4.4,2.4-5.2-14.3-5.3-15.9c0-1.2,0.6-5-1.3-5.2c-1.1-0.2-1.4,3.3-2.1,4.2s-2.8,2.7-4,1.5s-0.5-3.3-0.3-4.7
			s-0.5-3.3-2.4-3.3c-0.8,0-1.4,0.6-1.4,1.4c0,0.3,0.1,0.5,0.2,0.7c1.4,2.3,1.5,5.2,0.4,7.7c-0.7,1.2-2.2,1.8-3.5,1.3
			c-1.4-0.6-2.3-1.9-2.5-3.4c-0.2-0.9,0.2-3.3-1.2-3.4c-3.4-0.2-1.2,5-3,6.2c-2.2,1.4-4.5,0.9-4.6-1.9c0-0.8,0.2-1.9-0.9-2.2
			c-2.4-0.7-1.4,6.8-1.3,7.7c0.5,4.1,2.1,8.7-0.4,12.4c-6.2,3-4.3-20.5-7-21.4c-2.1-0.7-1.7,3.3-1.7,4.2c0,2.2-3.2,3.2-4,0.9
			c-0.5-1.4,0.1-2.9-0.1-4.2c-3-3.1-3.3,3.5-3.4,5.1c-0.1,2,0,4,0.1,5.9s1.6,5.5-1.1,6.4c-3.3,1.1-3.3-4.1-3.6-5.9
			c-0.4-2.5-0.7-5-0.7-7.5c0-0.8,0.9-7.5,0.3-7.9c-1.9-1.3-2.2,1.8-2.3,2.9s-0.1,3.5-1.4,4.2c-3.2,1.5-3.9-2.6-4.1-4.7
			c-0.1-1.1,0.4-3.1-1.2-3.2c-0.7,0-1.3,0.5-1.4,1.2c0,0.1,0,0.2,0,0.3c0.6,3.2-1.2,4.6-1.2,4.6c-5,4.5-5.4-2.2-5.4-2.2
			c-3.6-1.6-2,6.8-2,6.8c0.6,3.1,0.8,7.2-0.3,10.3c-0.5,1.3-1.7,3.1-3.4,2.5c-1.4-0.4-1.6-2.4-1.8-3.5c-0.4-4.3-0.2-8.7,0.8-12.9
			c0.3-1.1,1.5-4.5-0.1-5.2c-2-0.9-1.1,3.2-1.2,4c-0.1,1.2-0.4,3.1-1.7,3.6c-4.8,2-4.1-9.8-4.1-9.8c-3.8-1.8-1,9.3-1,9.3
			c0.8,1.4,1.5,3.4,0.5,4.9c-1.4,2-4,1.3-5-0.6c-0.8-1.7-1.1-3.5-1.1-5.4c-0.1-2.8,0.1-5.6,0.5-8.3c-1.6,0.9-6,3.4-6.2,0.1
			c0.1-0.9,0.3-1.7,0.6-2.5c0.4-2.3-1.9-4.3-1.5-6.7c0.6-3.7,5-5.3,8.3-6.2c11.1-2.9,22.9-4.1,34.4-4.8c13.4-0.8,26.9-0.8,40.3,0.1
			c12.5,0.8,25.9,1.2,38,4.5c3.9,1.1,7.2,2.3,6.6,6.1C479.1,57.7,478.6,63.9,478.4,70.1z"/>
		<path class="st5" d="M380.3,11.9c-1.7-0.1-3.2,1.2-3.3,2.9c0,0,0,0,0,0l-1.7,24.5L375,44c0,0,39.8,11.6,82.4,6.3
			c1.5-0.2,2.6-1.4,2.7-2.8l0.2-2.2l1.7-24.6c0.1-1.7-1.2-3.2-2.9-3.3c0,0,0,0,0,0L380.3,11.9z"/>
		<path class="st9" d="M376.8,17.5L375,44c0,0,41.4,12.3,85,6C459.9,49.9,370.4,52.2,376.8,17.5z"/>
		<path class="st7" d="M381.2,43.4c1.2,0.7,2.6,1.2,4,1.3c2.6,0.1,4.6-1.7,7.2-1.6c2.9,0.1,4.9,2.5,7.8,2.9c2.7,0.4,5.2-1.2,8-1.1
			c3.2,0.1,5.5,2.4,8.6,3.1c5.1,1.1,10.2-2.4,15.3-1.3c1.7,0.3,3.1,1.2,4.8,1.5c3.6,0.8,7.1-0.7,10.6-1.3c4-0.7,8.1-0.3,12,1
			c1.1,0.4,2.3,1,2.4,1.9s-0.9,1.4-1.9,1.8c-7.4,3.4-17,3.5-26,2.6c-9-1-17.8-2.9-26.9-3.2c-5.4-0.2-10.8,0.2-16.2,0.1
			c-5.4-0.2-11-1-15.5-3.3c-1.9-1-3.9-2.9-2.2-4.5C375.4,41.5,378.8,42.2,381.2,43.4z"/>
		<path class="st8" d="M461.6,31.8c-0.1,1.7-1.4,1.1-1.4,1.1c-1.2-0.4,0.2-5.8,0.2-5.8c-0.9,2-1.7-0.1-1.7-0.1
			c-1.7-1.3-1.1,6.1-1.1,6.1c0.5,4.4-1.6,4.6-1.6,4.6c-2.1,0.2-0.3-11.3-0.3-11.3c-0.3-2.5-1.8-1.8-1.8-1.8c0.3,1.6,0,3.3-0.9,4.8
			c-4.9,4.4-2-6.1-2-6.1c0.1-0.5-0.3-1-0.9-1.1c-0.3,0-0.6,0.1-0.8,0.2c0,3.3-3.8,2-3.8,2c0.7,3.3-2.8,2.1-2.8,2.1
			c0.8,0.1,0.9,3.3,0.9,3.8c0,1.8,0,3.7-0.1,5.5c0,1.4-0.2,3-1.7,3.6c-3.2,1.5-2.9-10.1-2.9-11.2c0-0.8,0.6-3.4-0.6-3.7
			c-0.8-0.2-1.1,2.2-1.6,2.8s-2.1,1.8-2.8,0.9s-0.2-2.3,0-3.3c0.3-1-0.3-2.1-1.3-2.4c-0.1,0-0.2,0-0.2-0.1c-0.6,0-1,0.4-1,1
			c0,0.2,0,0.3,0.1,0.5c0.8,1.7,0.8,3.7-0.1,5.3c-0.5,0.8-1.6,1.1-2.5,0.8c-0.9-0.5-1.5-1.4-1.6-2.5c-0.1-0.6,0.3-2.3-0.6-2.4
			c-2.4-0.3-1.1,3.4-2.4,4.1c-1.6,0.9-3.1,0.4-3.1-1.5c0-0.5,0.2-1.3-0.5-1.6c-1.6-0.6-1.3,4.6-1.3,5.3c0.1,2.8,1,6.1-0.9,8.6
			c-4.4,1.8-2-14.4-3.9-15.2c-1.4-0.6-1.4,2.2-1.4,2.8c-0.1,1.5-2.4,2-2.8,0.4c-0.3-1,0.2-2,0.1-3c-1.9-2.3-2.5,2.3-2.6,3.3
			c-0.1,1.4-0.2,2.8-0.2,4.1c0,1.4,0.9,3.9-1,4.4c-2.4,0.6-2.1-3-2.2-4.2c-0.2-1.7-0.2-3.5-0.1-5.2c0-0.6,1-5.2,0.6-5.5
			c-1.2-1-1.6,1.1-1.7,1.9s-0.2,2.5-1.2,2.8c-2.3,0.9-2.6-2-2.6-3.5c0-0.8,0.4-2.1-0.7-2.3c-0.5-0.1-0.9,0.3-1,0.8
			c0,0.1,0,0.1,0,0.2c0.3,1.2-0.1,2.4-1,3.2c-3.7,2.9-3.6-1.8-3.6-1.8c-2.4-1.3-1.7,4.6-1.7,4.6c0.4,2.4,0.1,4.8-0.7,7.1
			c-0.4,0.9-1.3,2.1-2.5,1.6c-0.9-0.4-1-1.7-1.1-2.5c-0.1-3,0.3-6,1.2-8.9c0.3-0.7,1.2-3,0.1-3.6c-1.3-0.7-1,2.1-1,2.7
			c-0.1,0.8-0.4,2.1-1.4,2.4c-3.4,1.1-2.4-7-2.4-7c-2.6-1.4-1.1,6.4-1.1,6.4c0.5,1,0.9,2.4,0.1,3.4c-0.7,0.9-2,1-2.8,0.3
			c-0.3-0.2-0.5-0.6-0.7-1c-0.4-1.2-0.6-2.5-0.5-3.8c0.1-1.9,0.3-3.9,0.8-5.7c-1.1,0.6-4.3,2.1-4.3-0.2c0.1-0.6,0.3-1.2,0.5-1.7
			c0.4-1.6-1.1-3-0.7-4.7c0.6-2.6,3.7-3.5,6-3.9c8-1.3,16-1.9,24.1-1.7c9.3,0.1,18.7,0.7,27.9,2c8.6,1.2,17.9,2.1,26.1,4.9
			c2.7,0.9,4.9,2,4.3,4.6C462.7,23.2,462,27.5,461.6,31.8z"/>
		
			<ellipse transform="matrix(8.963770e-002 -0.996 0.996 8.963770e-002 373.9701 435.1687)" class="st10" cx="425" cy="13" rx="4.3" ry="35.7"/>
		<path class="st11" d="M371.6,40.8c0.7-0.2,1.4,0.2,1.6,0.8l2.4,8.6c0.2,0.7-0.3,1.4-1,1.6c-0.6,0.1-1.3-0.2-1.5-0.9l-2.4-8.6
			C370.5,41.7,370.9,41,371.6,40.8z"/>
		<path class="st12" d="M371.7,40.4c0.1,0.4,0.2,0.8,0.3,1.1c0,0.1,0.1,0.4,0,0.5c-0.1,0.1-0.3-0.3-0.3-0.4
			c-0.1-0.4-0.2-0.7-0.3-1.1c0-0.1,0-0.2,0-0.3C371.4,39.9,371.6,40.3,371.7,40.4z"/>
		<path class="st13" d="M371.4,37.7c-0.3,0.1-0.6,0.4-0.8,0.7c-0.4,0.5-0.5,1.2-0.3,1.8c0.2,0.6,0.8,0.9,1.4,0.7
			c0.5-0.1,0.8-0.6,0.8-1.1c-0.1-0.4-0.4-0.8-0.7-1.1C371.4,38.5,371.2,38.1,371.4,37.7z"/>
		<path class="st14" d="M371.4,37.6c-0.3,0.1-0.6,0.4-0.8,0.7c-0.4,0.5-0.5,1.2-0.3,1.8c0.2,0.6,0.8,0.9,1.4,0.8
			c0.5-0.1,0.8-0.6,0.8-1.1c-0.1-0.4-0.4-0.8-0.7-1.1C371.4,38.4,371.3,38,371.4,37.6z"/>
		<path class="st15" d="M446.6,5.2c0.7,0.2,1.1,0.8,0.9,1.5l-2.3,8.7c-0.2,0.7-0.9,1.1-1.6,0.9s-1.1-0.9-0.9-1.6l2.3-8.7
			C445.3,5.4,446,5,446.6,5.2z"/>
		<path class="st12" d="M446.9,4.9c-0.1,0.4-0.2,0.8-0.3,1.1c0,0.1-0.1,0.4-0.3,0.4s-0.1-0.4,0-0.5c0.1-0.4,0.2-0.8,0.3-1.1
			c0-0.1,0.1-0.2,0.1-0.3C446.9,4.3,446.9,4.8,446.9,4.9z"/>
		<path class="st13" d="M448,2.4c-0.3-0.1-0.7,0-1,0.2c-0.6,0.3-1,0.8-1.2,1.4c-0.1,0.6,0.2,1.2,0.8,1.4c0.5,0.1,1-0.1,1.2-0.5
			c0.1-0.4,0.1-0.9,0-1.3C447.6,3.1,447.7,2.7,448,2.4z"/>
		<path class="st14" d="M448.1,2.3c-0.3-0.1-0.7,0-1,0.2c-0.6,0.3-1,0.8-1.2,1.4c-0.1,0.6,0.2,1.2,0.8,1.4c0.5,0.1,1-0.1,1.2-0.5
			c0.1-0.4,0.1-0.9,0-1.3C447.8,3.1,447.8,2.6,448.1,2.3z"/>
		<path class="st11" d="M503.5,99.4c0.6,0.1,0.9,0.7,0.8,1.3c0,0,0,0,0,0l-2.1,7.4c-0.2,0.6-0.9,0.9-1.5,0.6
			c-0.5-0.2-0.8-0.7-0.7-1.2l2.1-7.4C502.3,99.5,502.9,99.2,503.5,99.4C503.5,99.4,503.5,99.4,503.5,99.4z"/>
		<path class="st12" d="M503.7,99.1c-0.1,0.3-0.2,0.7-0.3,1c0,0.1-0.1,0.3-0.2,0.3s-0.1-0.3,0-0.4c0.1-0.3,0.2-0.7,0.3-1
			c0-0.1,0.1-0.2,0.1-0.2C503.8,98.6,503.8,99,503.7,99.1z"/>
		<path class="st13" d="M504.8,96.9c-0.3,0-0.6,0-0.8,0.1c-0.5,0.2-0.9,0.7-1,1.2c-0.1,0.5,0.2,1,0.7,1.2c0.4,0.1,0.8-0.1,1-0.4
			c0.1-0.4,0.1-0.8,0-1.1C504.4,97.6,504.5,97.2,504.8,96.9z"/>
		<path class="st14" d="M504.9,96.9c-0.3,0-0.6,0-0.8,0.1c-0.5,0.2-0.9,0.7-1,1.2c-0.1,0.5,0.2,1,0.7,1.2c0.4,0.1,0.8-0.1,1-0.4
			c0.1-0.4,0.1-0.8,0-1.1C504.5,97.6,504.6,97.2,504.9,96.9z"/>
		<path class="st16" d="M424.7,98.5c0.7,0,1.3,0.5,1.3,1.2l0.3,9c0,0.7-0.5,1.3-1.3,1.3c-0.7,0-1.3-0.5-1.3-1.3l0,0l-0.3-9
			C423.4,99.1,424,98.5,424.7,98.5z"/>
		<path class="st12" d="M424.8,98.1c0,0.4,0,0.8,0,1.2c0,0.2,0,0.4-0.1,0.4s-0.2-0.3-0.2-0.5c0-0.4,0-0.8,0-1.2c0-0.1,0-0.2,0-0.3
			C424.7,97.6,424.8,98,424.8,98.1z"/>
		<path class="st13" d="M425.2,95.4c-0.3,0.1-0.6,0.2-0.9,0.4c-0.5,0.4-0.8,1.1-0.7,1.7c0.1,0.6,0.5,1,1.1,1.1c0.5,0,0.9-0.4,1-0.8
			c0-0.4-0.2-0.9-0.4-1.2C425,96.2,425,95.8,425.2,95.4z"/>
		<path class="st14" d="M425.2,95.3c-0.3,0.1-0.6,0.2-0.9,0.4c-0.5,0.4-0.8,1.1-0.7,1.7c0.1,0.6,0.5,1,1.1,1.1c0.5,0,0.9-0.4,1-0.8
			c0-0.4-0.2-0.9-0.4-1.2C425.1,96.1,425,95.7,425.2,95.3z"/>
		<path class="st17" d="M411.4,3.3c0.7-0.1,1.3,0.3,1.5,1c0,0,0,0,0,0l1.4,8.8c0.1,0.7-0.4,1.4-1.1,1.5s-1.4-0.4-1.5-1.1l-1.4-8.9
			C410.2,4,410.7,3.4,411.4,3.3C411.4,3.3,411.4,3.3,411.4,3.3z"/>
		<path class="st12" d="M411.5,2.9c0.1,0.4,0.1,0.8,0.2,1.1c0,0.1,0.1,0.4-0.1,0.5s-0.2-0.3-0.2-0.4c-0.1-0.4-0.1-0.8-0.2-1.1
			c0-0.1,0-0.2,0-0.3C411.3,2.3,411.4,2.7,411.5,2.9z"/>
		<path class="st13" d="M411.5,0.1c-0.3,0.1-0.6,0.3-0.8,0.6c-0.4,0.5-0.6,1.1-0.5,1.8c0.1,0.6,0.7,1,1.3,0.9c0.5-0.1,0.9-0.5,0.9-1
			c-0.1-0.4-0.3-0.8-0.6-1.1C411.4,0.9,411.3,0.5,411.5,0.1z"/>
		<path class="st14" d="M411.6,0c-0.3,0.1-0.6,0.3-0.8,0.6c-0.4,0.5-0.6,1.1-0.5,1.8c0.1,0.6,0.7,1,1.3,0.9c0.5-0.1,0.9-0.5,0.9-1
			c-0.1-0.4-0.3-0.8-0.6-1.2C411.5,0.8,411.4,0.4,411.6,0z"/>
		<path class="st17" d="M526,157.9c0.6,0.1,1,0.7,0.8,1.3c0,0,0,0,0,0l-1.9,7.5c-0.2,0.6-0.9,0.9-1.5,0.7c-0.5-0.2-0.8-0.7-0.7-1.2
			l1.9-7.5C524.8,158.1,525.4,157.8,526,157.9C526,157.9,526,157.9,526,157.9z"/>
		<path class="st12" d="M526.2,157.6c-0.1,0.3-0.2,0.6-0.3,1c0,0.1-0.1,0.4-0.2,0.3s-0.1-0.3,0-0.4c0.1-0.3,0.2-0.6,0.2-1
			c0-0.1,0.1-0.2,0.1-0.2C526.3,157.1,526.3,157.5,526.2,157.6z"/>
		<path class="st13" d="M527.2,155.4c-0.3,0-0.6,0-0.8,0.2c-0.5,0.2-0.9,0.7-1,1.3c-0.1,0.5,0.2,1,0.7,1.1c0.4,0.1,0.8-0.1,1-0.5
			c0.1-0.4,0.1-0.8-0.1-1.1C526.8,156.1,526.9,155.7,527.2,155.4z"/>
		<path class="st14" d="M527.3,155.4c-0.3,0-0.6,0-0.8,0.2c-0.5,0.2-0.9,0.7-1,1.3c-0.1,0.5,0.2,1,0.7,1.1c0.4,0.1,0.8-0.1,1-0.5
			c0.1-0.4,0.1-0.8-0.1-1.1C526.9,156,527,155.6,527.3,155.4z"/>
		<path class="st17" d="M372.7,166.1c0.7-0.1,1.3,0.4,1.4,1.1l0.7,8.9c0,0.7-0.5,1.3-1.2,1.4c-0.7,0-1.3-0.5-1.4-1.1l-0.7-8.9
			C371.5,166.8,372,166.2,372.7,166.1z"/>
		<path class="st12" d="M372.8,165.8c0.1,0.4,0.1,0.8,0.1,1.2c0,0.1,0,0.4-0.1,0.4s-0.2-0.3-0.2-0.4c0-0.4-0.1-0.8-0.1-1.2
			c0-0.1,0-0.2,0-0.3C372.7,165.2,372.8,165.6,372.8,165.8z"/>
		<path class="st13" d="M373,163c-0.3,0.1-0.6,0.2-0.9,0.5c-0.5,0.5-0.7,1.1-0.6,1.8c0.1,0.6,0.6,1,1.2,1c0.5,0,0.9-0.4,0.9-0.9
			c0-0.4-0.2-0.9-0.5-1.2C372.9,163.8,372.8,163.4,373,163z"/>
		<path class="st14" d="M373.1,162.9c-0.3,0.1-0.6,0.2-0.9,0.5c-0.5,0.5-0.7,1.1-0.6,1.8c0.1,0.6,0.6,1,1.2,1c0.5,0,0.9-0.4,0.9-0.9
			c0-0.4-0.2-0.9-0.5-1.2C373,163.8,372.9,163.3,373.1,162.9z"/>
		<path class="st11" d="M432.1,167.8c0.7,0.1,1.1,0.8,1,1.5l-1.9,8.7c-0.2,0.7-0.9,1.1-1.6,0.9c-0.7-0.2-1.1-0.8-1-1.5l1.9-8.8
			C430.8,168,431.4,167.6,432.1,167.8z"/>
		<path class="st12" d="M432.3,167.4c0,0.4-0.2,0.8-0.3,1.1c0,0.1-0.1,0.4-0.2,0.4s-0.1-0.3-0.1-0.5c0.1-0.4,0.1-0.8,0.3-1.1
			c0-0.1,0.1-0.2,0.1-0.3C432.3,166.8,432.4,167.3,432.3,167.4z"/>
		<path class="st13" d="M433.3,164.8c-0.3,0-0.7,0-1,0.2c-0.6,0.3-1,0.8-1.1,1.5c-0.1,0.6,0.3,1.1,0.8,1.3c0.5,0.1,1-0.1,1.2-0.6
			c0.1-0.4,0.1-0.9-0.1-1.3C432.9,165.6,433,165.1,433.3,164.8z"/>
		<path class="st14" d="M433.5,164.8c-0.3,0-0.7,0-1,0.2c-0.6,0.3-1,0.8-1.1,1.5c-0.1,0.6,0.3,1.1,0.8,1.3c0.5,0.1,1-0.1,1.2-0.6
			c0.1-0.4,0.1-0.9-0.1-1.3C433.1,165.5,433.1,165.1,433.5,164.8z"/>
		<path class="st16" d="M492.1,166.9c0.6-0.1,1.2,0.2,1.3,0.8c0,0,0,0,0,0l1.5,7.6c0,0.6-0.4,1.2-1,1.2c-0.5,0-1-0.3-1.2-0.8
			l-1.5-7.6C491.2,167.6,491.6,167,492.1,166.9z"/>
		<path class="st12" d="M492.2,166.6c0.1,0.3,0.1,0.7,0.2,1c0,0.1,0.1,0.4,0,0.4s-0.2-0.2-0.2-0.4c-0.1-0.3-0.1-0.7-0.2-1
			c0-0.1,0-0.2,0-0.3C492,166.1,492.2,166.5,492.2,166.6z"/>
		<path class="st13" d="M492.1,164.2c-0.3,0.1-0.5,0.3-0.7,0.5c-0.4,0.4-0.5,1-0.4,1.6c0.1,0.5,0.6,0.8,1.1,0.7
			c0.4-0.1,0.7-0.4,0.7-0.9c-0.1-0.4-0.3-0.7-0.5-1C492.1,164.9,492,164.6,492.1,164.2z"/>
		<path class="st14" d="M492.2,164.1c-0.3,0.1-0.5,0.3-0.7,0.5c-0.4,0.4-0.5,1-0.4,1.6c0.1,0.5,0.6,0.8,1.1,0.7
			c0.4-0.1,0.7-0.4,0.7-0.9c-0.1-0.4-0.3-0.7-0.5-1C492.2,164.8,492.1,164.4,492.2,164.1z"/>
		<path class="st17" d="M476.9,53.4c0.6,0.3,0.9,1,0.7,1.6l-3.8,8.1c-0.3,0.6-1.1,0.9-1.7,0.6c-0.6-0.3-0.9-1.1-0.6-1.7l3.8-8.1
			C475.5,53.4,476.3,53.1,476.9,53.4z"/>
		<path class="st12" d="M477.2,53.2c-0.1,0.4-0.3,0.7-0.5,1.1c-0.1,0.1-0.2,0.4-0.3,0.3c-0.1-0.1,0-0.4,0-0.5c0.2-0.3,0.3-0.7,0.5-1
			c0-0.1,0.1-0.2,0.2-0.2C477.3,52.6,477.3,53,477.2,53.2z"/>
		<path class="st13" d="M478.7,50.9c-0.3-0.1-0.7-0.1-1,0c-0.6,0.2-1.1,0.6-1.4,1.2c-0.2,0.6,0,1.2,0.5,1.5c0.4,0.2,1,0.1,1.3-0.3
			c0.2-0.4,0.3-0.9,0.2-1.3C478.2,51.6,478.3,51.1,478.7,50.9z"/>
		<path class="st14" d="M478.9,50.8c-0.3-0.1-0.7-0.1-1,0c-0.6,0.2-1.1,0.6-1.4,1.2c-0.2,0.6,0,1.2,0.5,1.5c0.4,0.2,1,0.1,1.3-0.3
			c0.2-0.4,0.3-0.9,0.2-1.3C478.3,51.5,478.5,51,478.9,50.8z"/>
		<path class="st18" d="M159.1,254.6l32.3-94.2c6.8-19.9,2-36.2-8-46.6c-4.2-4.3-9.3-7.6-15-9.6c-5.6-2-11.6-2.7-17.6-2.1
			c-14.7,1.6-29.8,11.1-36.9,31.1c-4.5,12.7,17.6,18.8,21.6,8.2s11-15.6,17.8-16.3c2.5-0.3,5.1,0,7.4,0.9c2.3,0.8,4.4,2.2,6.1,3.9
			c4.4,4.6,6.3,12.5,2.8,22.9L137.2,247C132.9,259.6,154.7,267.2,159.1,254.6z"/>
		<polygon class="st19" points="161,249 164.7,238.1 141,236.1 137.2,247.1 		"/>
		<polygon class="st19" points="168.9,225.9 172.6,215.1 148.9,213.1 145.1,224 		"/>
		<polygon class="st19" points="176.8,202.9 180.5,192 156.8,190 153,200.9 		"/>
		<polygon class="st19" points="184.7,179.8 188.4,168.9 164.7,166.9 160.9,177.8 		"/>
		<path class="st19" d="M192.6,156.3c1-3.6,1.6-7.4,1.8-11.1c-7.7,1.7-15.6,1.5-23.1-0.9c-0.2,2.9-0.8,5.8-1.8,8.6l-0.8,2.5
			C177.1,156.7,185.3,157.4,192.6,156.3z"/>
		<path class="st19" d="M192.7,129.8c-1.4-4.4-3.4-8.5-6.1-12.3c-4,7.1-9.7,13.2-16.6,17.4c1,2.3,1.4,4.8,1.4,7.4
			C178.6,140.1,185.9,137.9,192.7,129.8z"/>
		<path class="st19" d="M173.8,106.6c-4.1-2.2-10.5-4.4-15.1-4.5c3.5,6.5,2.4,18.6,0.8,23.4c2.1,0.8,4.1,1.9,5.9,3.2
			C168.6,125.8,173.1,114.8,173.8,106.6z"/>
		<path class="st19" d="M143.2,103.7c-4,0.9-10.9,4-14.6,7.6c7,3.8,12.7,9.6,17.8,16.2c1.6-1,3.4-1.7,5.3-2.1
			C152.4,119.8,147.2,110,143.2,103.7z"/>
		<path class="st19" d="M118.8,122.9c-1.8,3-4.8,9-5.5,12.7c6.1-0.2,12.9,0.3,23.9,1.9c1.2-2.3,2.7-4.4,4.4-6.3
			C134.7,127,126.9,124.1,118.8,122.9z"/>
		<path class="st20" d="M157.6,125.1c0,0,19.7,0.2,20.1,16.5l-38.6,114.6c0,0-3.8-4-1.8-9.2s32.8-91.7,32.8-91.7
			S182.4,129.9,157.6,125.1z"/>
		<path class="st21" d="M328,311.9c0,0-37.3,4.6-18,7.3s69,2.4,87.8-4.1S328,311.9,328,311.9z"/>
	</g>
	<g id="Layer_12">
		<g id="คัพเค้ก">
			<path class="st22" d="M170.8,261c0,0-74.3,1.6-2.8,8.7s131.9-4.3,145.8-9.1c13.8-4.9-3-7.6-16.9-7.8S170.8,261,170.8,261z"/>
			<path class="st23" d="M223,220c0,0-10.4-72,58-52.2c0,0,47,1.9,33.4,57.1L223,220z"/>
			<path class="st24" d="M231.7,176.8c-2,2.6-3.6,5.5-4.9,8.6c-1.5,4.2,60.6,18.2,76.8,2.7C313.9,178.2,231.7,176.8,231.7,176.8z"/>
			<polygon class="st25" points="219.7,210.6 230.3,257.5 266.6,261 269.7,203 256.2,212 240.8,205.7 230.5,213.9 			"/>
			<polygon class="st25" points="319.5,209.6 304.8,257.6 266.6,261 269.7,203 282.3,212 298.1,206.9 307.5,215 			"/>
			<polygon class="st26" points="307.5,215 319.5,209.6 304.8,257.6 296,258.4 			"/>
			<polygon class="st26" points="282.3,212 298.1,206.9 284.5,259.4 276.2,260.2 			"/>
			<polygon class="st26" points="256.2,212 269.7,203 266.6,261 259,260.3 			"/>
			<polygon class="st26" points="230.5,213.9 240.8,205.7 248.8,259.3 238.5,258.3 			"/>
			<g id="วอป">
				<path class="st7" d="M266.3,113.5c0,0-10.8,18.1-21.1,24.2s-4.9,15.7-2.8,17s-19.2,5.7-10.4,22.6s68.9,18.9,78.6,7.2
					s5.4-29.6-8.8-35c0,0,2-13.8-12.5-14.6S265.8,117.4,266.3,113.5z"/>
				<path class="st27" d="M299.6,139.9c0,0,3.8,8.5-4.1,14.1c0,0,7.8,0.2,8.7-3.4c-0.8-0.5-1.6-0.8-2.4-1.1
					C301.7,149.6,302.4,142.5,299.6,139.9z"/>
				<path class="st27" d="M239.1,147.6c0,0,2.6,8.4,15.8,11.2c0,0-17.9,5.7-18-0.2c0,0,3.6-2.2,4.7-2.7s0.9-0.8,0.9-0.9
					C242.4,154.9,239.6,153.1,239.1,147.6"/>
				<path class="st27" d="M266.3,113.5c0,0,4.2,20.1,22.9,21.4C289.2,134.9,261.2,137.8,266.3,113.5z"/>
			</g>
			<path class="st27" d="M277.3,134.8c0,0-7.1,1,0.4,9.6s20.7,1.1,16.8-1.1S277.3,134.8,277.3,134.8z"/>
			<path class="st28" d="M291.6,126.9c0,0-8.9-4.2-13.4,3.8s1.4,12.8,5.7,13.8s11.5,3,15.4-4.4S294.4,126.8,291.6,126.9z"/>
			<path class="st29" d="M291.4,127.8c0,0-8.3-2.3-5.3,6.8c3.6,10.8,10.9,8.3,12.4,2.8S295.5,128.4,291.4,127.8z"/>
			<path class="st30" d="M291.4,127.3c0,0,2.6-8.8,4.7-9.5l1.3,0.8c0,0-2.8,1.8-5.5,9C291.9,127.6,291.4,127.7,291.4,127.3z"/>
			<path class="st31" d="M296.1,117.8c0.4,0,0.8,0.1,1.1,0.4c0.8,0.6-0.3,0.2-0.3,0.2S295.9,118,296.1,117.8z"/>
		</g>
		<g id="ขนมปัง">
			<path class="st21" d="M341.8,260c-17.5,3.7-20,7.3-15.1,10.8c0,0,3.9,4.8,44.6,6.8c40.5,2,54.6-3.8,54.6-3.8s10.8-4,8.1-5.9
				s-6.7-1.6-6.7-1.6L341.8,260z"/>
			<path class="st32" d="M338,195.9c0,0-8.8-1.5-10.1,36.9c0,0,0.5,27.3,22.2,34.7c0,0,19,11,84,1.2c-0.8-0.5,17.8,0.8,23.1-33.6
				c6.2-40.1-21.5-49.2-21.5-49.2S353.3,194.2,338,195.9z"/>
			<path class="st33" d="M439.9,188c0,0-10-9.2-20,13.1s-14.9,41-5.4,55.6c9.5,14.6,22,11.8,22,11.8s18.3-4,22-33.5
				S448,192.1,439.9,188z"/>
			<path class="st34" d="M437,191.6c0,0-9.8-2.9-18.7,33.4s15.6,38.6,20.6,37.2s18.3-12.9,15.8-40.5S441.6,191.9,437,191.6z"/>
			<path class="st35" d="M329.2,215.5c0,0-7.7,56,87.9,44.7c0,0,7.3,9.3,17.4,8.5c0,0-65.3,9.8-84.5-1.2
				C350,267.5,320.7,258.9,329.2,215.5z"/>
			<path class="st35" d="M436.2,189.5c0,0-87.3,0.1-103.5,12c0,0-3.1,3.1-0.9,17.2s12.6-11.6,20.5-6.3s1.3,13.4,11.5,13.2
				s12.5-15.9,18.3-14.2s4.5,10.6,12.1,10.2s10.5-20.2,15.6-18.7c7.2,2.1,16-4.4,17.6-7S437.3,188.6,436.2,189.5z"/>
			<path class="st36" d="M434.3,184.4c0,0-41.4-7.3-95.1,9c0,0-10.2,3.3-8,17.4s15.5-8.4,23.3-3.1s2.7,12.6,12.9,12.5
				s8.2-15.9,14-14.2s6.4,9.4,14.1,9s2.1-17.2,15.4-17.3c5.3-0.1,6.7,11.4,18.1-3.2C430.9,192.1,448.4,189.3,434.3,184.4z"/>
			<path class="st37" d="M422.8,260.6c0,0,12.6,14.8,23.6-17.5c6.2-18.1-3.3-37.3-13.9-34.5c-7.1,1.9-12.2,27.1-2.9,38.6
				s15.2-18.8,7.3-20.1"/>
		</g>
		<g id="คัพเค้ก-2">
			<path class="st38" d="M161.6,226.4c0,0-13.1-71.6,56-54.3c0,0,47.1,0.1,35.6,55.8L161.6,226.4z"/>
			<path class="st39" d="M168.7,182.9c-1.9,2.7-3.4,5.7-4.5,8.8c-1.4,4.3,61.2,15.9,76.9-0.2C250.9,181.3,168.7,182.9,168.7,182.9z"
				/>
			<polygon class="st40" points="158,217.2 169.9,262.1 206.8,265.8 207.6,207.7 194.5,217.2 178.9,211.5 168.9,220.1 			"/>
			<polygon class="st40" points="257.6,212.4 244.8,261 206.8,265.8 207.6,207.7 220.6,216.3 236.1,210.6 245.9,218.3 			"/>
			<polygon class="st41" points="245.9,218.3 257.6,212.4 244.8,261 236.1,262.1 			"/>
			<polygon class="st41" points="220.6,216.3 236.1,210.6 224.5,263.6 216.3,264.6 			"/>
			<polygon class="st41" points="194.5,217.2 207.6,207.7 206.8,265.8 199.1,265 			"/>
			<polygon class="st41" points="168.9,220.1 178.9,211.5 188.8,264 178.3,262.9 			"/>
			<g id="วอป-2">
				<path class="st42" d="M200.9,118.4c0,0-10.2,18.5-20.2,25s-4.3,15.9-2.2,17.1s-19,6.4-9.5,22.9s69.6,16.3,78.8,4.2
					s4.2-29.8-10.1-34.6c0,0,1.5-13.8-13.1-14.1S200.5,122.3,200.9,118.4z"/>
				<path class="st27" d="M235.1,143.5c0,0,4.1,8.4-3.6,14.2c0,0,7.8-0.1,8.6-3.7c-0.8-0.4-1.6-0.8-2.5-1
					C237.7,153.1,238,146,235.1,143.5z"/>
				<path class="st27" d="M175,153.5c0,0,3,8.2,16.2,10.6c0,0-17.7,6.3-18,0.4c0,0,3.5-2.3,4.6-2.9s0.8-0.8,0.9-1
					C178.6,160.6,175.6,158.9,175,153.5"/>
				<path class="st27" d="M200.9,118.4c0,0,5,19.9,23.7,20.5C224.6,138.9,196.7,142.8,200.9,118.4z"/>
			</g>
			<path class="st27" d="M212.7,139.3c0,0-7.1,1.2,0.8,9.6s20.8,0.3,16.7-1.7S212.7,139.3,212.7,139.3z"/>
			<path class="st28" d="M226.7,130.9c0,0-9-3.9-13.3,4.3s1.9,12.7,6.2,13.6s11.6,2.6,15.2-5S229.5,130.6,226.7,130.9z"/>
			<path class="st29" d="M226.5,131.8c0,0-8.4-2-5,7c4,10.6,11.2,7.9,12.5,2.4S230.6,132.1,226.5,131.8z"/>
			<path class="st30" d="M226.5,131.3c0,0,2.2-8.9,4.3-9.7l1.4,0.7c0,0-2.7,1.9-5.2,9.2C227,131.5,226.5,131.6,226.5,131.3z"/>
			<path class="st31" d="M230.8,121.6c0.4,0,0.8,0.1,1.1,0.4c0.8,0.5-0.3,0.3-0.3,0.3S230.6,121.8,230.8,121.6z"/>
		</g>
		<g id="พุ่มไม้">
			<path class="st22" d="M249.9,271.7c0,0-34.1,9.9,10,9.8s49.2-1.6,49.2-1.6L249.9,271.7z"/>
			<path class="st22" d="M73.6,284.3c0,0-47.5,13.8,14,13.6s68.6-2.2,68.6-2.2L73.6,284.3z"/>
			<ellipse class="st43" cx="264.4" cy="270.2" rx="14.5" ry="10.9"/>
			<circle class="st43" cx="276" cy="262.7" r="13.3"/>
			<ellipse class="st43" cx="296.4" cy="256.5" rx="17.5" ry="16.2"/>
			<ellipse class="st43" cx="310" cy="269.4" rx="9.7" ry="10.5"/>
			<path class="st43" d="M314.9,276c1.8,6.6-25.8,5.7-41.3,5.7s-14.8-1.4-14.8-5.7s12.5-7.7,28-7.7S313.8,271.9,314.9,276z"/>
			<ellipse class="st43" cx="337.5" cy="301.3" rx="20.3" ry="15.3"/>
			<circle class="st43" cx="353.8" cy="290.7" r="18.6"/>
			<ellipse class="st43" cx="382.3" cy="282" rx="24.5" ry="22.7"/>
			<ellipse class="st43" cx="401.5" cy="300.2" rx="13.6" ry="14.7"/>
			<path class="st43" d="M408.4,309.5c2.6,9.3-36.2,8-57.9,8s-20.8-2-20.8-8s17.6-10.8,39.4-10.8S406.8,303.7,408.4,309.5z"/>
			<ellipse class="st21" cx="548" cy="307.3" rx="8" ry="3.5"/>
			<ellipse class="st21" cx="595.1" cy="307.2" rx="7.5" ry="3.1"/>
			<ellipse class="st21" cx="43.7" cy="313.2" rx="8" ry="3.5"/>
			<ellipse class="st21" cx="95.6" cy="313.7" rx="7.5" ry="3.1"/>
			<path class="st44" d="M376.7,259.9c0,0-12.5,2.4-17,13.2c0,0-18-5.9-24,13c0,0-14.3,0.9-18.1,12.1c0,0-3.6,12.4,12.9,17.5
				c0,0-21.2-16,7-25.3c0,0,8.3-20.2,23.5-11.7C361,278.7,366.2,263.4,376.7,259.9z"/>
			<path class="st44" d="M292.4,240.7c0,0-8.9,1.7-12.1,9.4c0,0-12.8-4.2-17.1,9.3c0,0-10.2,0.6-12.9,8.6c0,0-2.6,8.9,9.2,12.5
				c0,0-15.1-11.4,5-18c0,0,5.9-14.4,16.8-8.4C281.2,254.1,284.9,243.2,292.4,240.7z"/>
			<ellipse class="st43" cx="85.2" cy="276.7" rx="26.5" ry="20"/>
			<circle class="st43" cx="106.5" cy="262.9" r="24.3"/>
			<ellipse class="st43" cx="143.8" cy="251.5" rx="32.1" ry="29.7"/>
			<ellipse class="st43" cx="168.9" cy="275.2" rx="17.8" ry="19.2"/>
			<path class="st43" d="M177.9,287.4c3.4,12.2-47.3,10.4-75.7,10.4S75,295.2,75,287.4s23-14.1,51.4-14.1S175.8,279.9,177.9,287.4z"
				/>
			<path class="st44" d="M136.4,222.6c0,0-16.3,3.1-22.2,17.2c0,0-23.5-7.7-31.3,17c0,0-18.7,1.1-23.7,15.8c0,0-4.7,16.3,16.8,22.9
				c0,0-27.8-20.9,9.1-33c0,0,10.9-26.4,30.8-15.3C115.9,247.1,122.7,227.1,136.4,222.6z"/>
		</g>
		<ellipse class="st45" cx="49.2" cy="245.9" rx="22.5" ry="42.8"/>
		<path class="st46" d="M49.3,243.8c0,0-3.6,22.4-5.6,42.3c-1.3,12.8-3.9,25.8-0.8,28.5c2,1.7,6,2.5,8.6,0
			C55.1,311,51.2,250.7,49.3,243.8z"/>
		<path class="st46" d="M60.1,249.3c0,0-3.7,2.9-6.7,5.5c-2,1.7-3.7,3.4-4.1,4.2c-0.9,2,0.4,1.6,1.3,1.2S59.4,250.6,60.1,249.3z"/>
		<path class="st46" d="M36.9,254.3c0,0,4,3.1,7.3,6c2.2,1.9,4,3.7,4.4,4.5c1,2.1-0.4,1.8-1.4,1.3S37.7,255.7,36.9,254.3z"/>
		<path class="st46" d="M64.1,262c0,0-5,3.9-9.1,7.5c-2.7,2.4-5,4.6-5.5,5.7c-1.2,2.6,0.5,2.2,1.8,1.6S63.2,263.8,64.1,262z"/>
		<path class="st47" d="M42.9,204.8c0,0-11,4.8-15.4,29.3c0,0-4.6,28.3,8.6,46.8c2,2.6,4.4,4.8,7.3,6.5c0,0-14.6-11.5-13.6-40.5
			C29.9,246.8,30.9,216.4,42.9,204.8z"/>
		<ellipse class="st48" cx="100.2" cy="245.9" rx="22.5" ry="42.8"/>
		<path class="st46" d="M100.3,243.8c0,0-3.6,22.4-5.6,42.3c-1.3,12.8-3.9,25.8-0.8,28.5c2,1.7,6,2.5,8.6,0
			C106.1,311,102.2,250.7,100.3,243.8z"/>
		<path class="st46" d="M111.1,249.3c0,0-3.7,2.9-6.7,5.5c-2,1.7-3.7,3.4-4.1,4.2c-0.9,2,0.4,1.6,1.3,1.2S110.4,250.6,111.1,249.3z"
			/>
		<path class="st46" d="M87.9,254.3c0,0,4,3.1,7.3,6c2.2,1.9,4,3.7,4.4,4.5c1,2.1-0.4,1.8-1.4,1.3S88.7,255.7,87.9,254.3z"/>
		<path class="st46" d="M115.1,261.9c0,0-5,3.9-9.1,7.5c-2.7,2.4-5.1,4.6-5.5,5.7c-1.2,2.6,0.5,2.2,1.8,1.6S114.2,263.7,115.1,261.9
			z"/>
		<path class="st49" d="M93.9,204.8c0,0-11,4.8-15.4,29.3c0,0-4.6,28.3,8.6,46.8c2,2.6,4.4,4.8,7.3,6.5c0,0-14.6-11.5-13.6-40.5
			C80.9,246.8,81.9,216.4,93.9,204.8z"/>
		<g id="_Group_">
			<path id="_Path_" class="st50" d="M478,236.6c16.4-2,34.9,38.8,29.3,46.1c-9.9,12.5-37.4,11.2-45.1,7.1
				C450.6,283.5,461.5,238.6,478,236.6z"/>
			
				<ellipse id="_Path_2" transform="matrix(0.4349 -0.9005 0.9005 0.4349 34.3338 568.7017)" class="st51" cx="470.3" cy="257" rx="11.5" ry="3.9"/>
		</g>
		<g id="_Group_2">
			<path id="_Path_3" class="st52" d="M541,240.7c16.5,1.1,27,44.7,20.1,50.8c-12.1,10.4-38.9,4-45.6-1.5
				C505.3,281.7,524.5,239.6,541,240.7z"/>
			
				<ellipse id="_Path_4" transform="matrix(0.5958 -0.8031 0.8031 0.5958 5.7807 530.2236)" class="st53" cx="529.7" cy="259.4" rx="11.5" ry="3.9"/>
		</g>
		<ellipse class="st48" cx="553" cy="240.2" rx="22.5" ry="42.8"/>
		<path class="st46" d="M553.1,238.1c0,0-3.6,22.4-5.6,42.3c-1.3,12.8-3.9,25.8-0.8,28.5c2,1.7,6,2.5,8.6,0
			C559,305.3,555,245,553.1,238.1z"/>
		<path class="st46" d="M563.9,243.6c0,0-3.7,2.9-6.7,5.5c-2,1.7-3.7,3.4-4.1,4.2c-0.9,2,0.4,1.6,1.3,1.2S563.3,244.9,563.9,243.6z"
			/>
		<path class="st46" d="M540.7,248.6c0,0,4,3.1,7.3,6c2.2,1.9,4,3.7,4.4,4.5c1,2.1-0.4,1.8-1.4,1.3S541.5,250,540.7,248.6z"/>
		<path class="st46" d="M567.9,256.3c0,0-5,3.9-9.1,7.5c-2.7,2.4-5,4.6-5.5,5.7c-1.2,2.6,0.5,2.2,1.8,1.6S567,258.1,567.9,256.3z"/>
		<path class="st49" d="M546.8,199.1c0,0-11,4.8-15.4,29.3c0,0-4.6,28.3,8.6,46.8c2,2.6,4.4,4.8,7.3,6.5c0,0-14.6-11.5-13.6-40.5
			C533.8,241.1,534.8,210.7,546.8,199.1z"/>
		<ellipse class="st48" cx="599.9" cy="239.7" rx="22.5" ry="42.8"/>
		<path class="st46" d="M600,237.6c0,0-3.6,22.4-5.6,42.3c-1.3,12.8-3.9,25.8-0.8,28.5c2,1.7,6,2.5,8.6,0
			C605.8,304.8,601.9,244.5,600,237.6z"/>
		<path class="st46" d="M610.8,243.1c0,0-3.7,2.9-6.7,5.5c-2,1.7-3.7,3.4-4.1,4.2c-0.9,2,0.4,1.6,1.3,1.2S610.1,244.4,610.8,243.1z"
			/>
		<path class="st46" d="M587.6,248.1c0,0,4,3.1,7.3,6c2.2,1.9,4,3.7,4.4,4.5c1,2.1-0.4,1.8-1.4,1.3S588.4,249.6,587.6,248.1z"/>
		<path class="st46" d="M614.8,255.8c0,0-5,3.9-9.1,7.6c-2.7,2.4-5,4.6-5.5,5.7c-1.2,2.6,0.5,2.2,1.8,1.6S613.9,257.6,614.8,255.8z"
			/>
		<path class="st49" d="M593.6,198.6c0,0-11,4.8-15.4,29.3c0,0-4.6,28.3,8.6,46.8c2,2.6,4.4,4.8,7.3,6.5c0,0-14.6-11.5-13.6-40.5
			C580.6,240.6,581.6,210.3,593.6,198.6z"/>
	</g>
</g>
</svg>
