<?xml version="1.0" standalone="no"?>
<!DOCTYPE svg PUBLIC "-//W3C//DTD SVG 1.1//EN" "http://www.w3.org/Graphics/SVG/1.1/DTD/svg11.dtd" >
<svg xmlns="http://www.w3.org/2000/svg">
<metadata></metadata>
<defs>
<font id="thaisans_neue_ultltregular" horiz-adv-x="0" >
<font-face units-per-em="2048" ascent="1524" descent="-524" />
<missing-glyph horiz-adv-x="1014" />
<glyph unicode="&#x3b;&#x3b;arm&#x3b;&#x3b;" horiz-adv-x="3203" d="M117 1956v126h504v253q-72 0 -130 75.5t-58 175.5q0 53 21.5 101t56.5 80.5t80.5 51.5t92.5 19q120 0 186 -66t66 -186q0 -59 -21 -113.5t-65 -94t-103 -43.5v-253h505v-126h-505v-379l339 -758h-127l-275 632l-274 -632h-127l338 758v379h-504zM243 0q0 37 13 74.5 t38 70.5t69 54t101 21q94 0 157 -62.5t63 -157.5q0 -120 -85 -180l69 -322l174 348h64l172 -348l111 659h157l-49 -265l34 63l204 48q0 220 34.5 351.5t102.5 188t179 56.5q61 0 104.5 -29t64 -78t20.5 -113h-63q0 51 -24.5 88.5t-69.5 37.5q-79 0 -128 -52.5t-71 -154.5 t-22 -263l231 56l27 -116l-258 -66v-126q0 -83 -1.5 -147t-4.5 -135t-9.5 -125t-16 -110.5t-23.5 -98t-33 -81.5t-44.5 -66.5t-57 -47.5t-71 -31t-86.5 -10q-64 0 -113 20.5t-78 64t-29 105.5h63q0 -45 37.5 -70.5t88.5 -25.5q37 0 68 8.5t54.5 29t42 41.5t32 61.5t23 71.5 t15.5 89t9.5 97t5 112t1.5 118v130v94l-251 -63l-107 -567h-82l-222 473l-220 -473h-82l-101 504l57 38q-3 -3 -19 -3q-9 -3 -44 -3q-26 0 -54 6.5t-58 23t-54 40.5t-39.5 62t-15.5 85zM370 0q0 -38 24.5 -64.5t69.5 -26.5q93 0 93 91q0 94 -93 94q-46 0 -70 -27t-24 -67z M557 2586q0 -55 30 -91t97 -36t96.5 36t29.5 91q0 67 -36 96.5t-90 29.5t-90.5 -29.5t-36.5 -96.5zM1284 819l718 1956h544l629 -1956h-503l-193 601h-848l-222 -601h-125zM1694 1577h732l-344 1072zM2101 63l63 316h94l-94 -316h-63zM2188 2681l42 -123l72 123h-114z M2251 2501l27 -88l163 268h-79zM2258 63l63 316h95l-95 -316h-63zM2299 2353l36 -114l175 297l-34 107zM2365 2145l19 -63l177 293l-18 63zM2410 2007l19 -64l177 293l-20 63zM2450 -313q0 156 49 293t136.5 221.5t193.5 84.5q167 0 256.5 -114.5t89.5 -325.5 q0 -302 -107 -450.5t-302 -148.5q-63 0 -117.5 25t-100 76t-72 138t-26.5 201zM2456 1860l20 -63l176 291l-22 66zM2498 1734l21 -75l178 294l-22 75zM2543 1589l21 -63l174 294l-17 63zM2576 -249l442 189q-4 57 -24 108q-50 109 -165 109q-137 0 -208 -205 q-30 -84 -45 -201zM2576 -407q0 -36 12 -74t34 -71.5t60 -54.5t84 -21q45 0 82 16.5t62.5 47.5t43 65t32.5 77q28 91 32 205zM2586 1448l20 -51l175 288l-15 60zM2627 1324l19 -50l177 291l-19 54zM2669 1198l18 -60l180 288l-20 66zM2709 1072l23 -73l176 298l-22 69z M2750 946l10 -31h41l148 249l-21 76zM2851 915h63l77 129l-23 63zM2964 915h64l-22 69z" />
<glyph unicode=" "  horiz-adv-x="1014" />
<glyph unicode="&#x09;" horiz-adv-x="1014" />
<glyph unicode="&#xa0;" horiz-adv-x="1014" />
<glyph unicode="!" horiz-adv-x="334" d="M117 0v105h100v-105h-100zM117 319v1249h100v-1249h-100z" />
<glyph unicode="&#x22;" horiz-adv-x="680" d="M117 1135v436h109v-436h-109zM391 1135v436h111v-436h-111z" />
<glyph unicode="#" horiz-adv-x="1632" d="M117 467l15 72h241l109 420h-239l19 70h240l119 446h95l-123 -446h533l120 446h94l-119 -446h271l-20 -70h-271l-109 -420h268l-20 -72h-268l-123 -467h-91l123 467h-533l-123 -467h-91l122 467h-239zM467 539h529l111 420h-529z" />
<glyph unicode="$" horiz-adv-x="1153" d="M117 75v85q75 -42 123 -58q155 -57 302 -57q88 0 159.5 21.5t124.5 65t81.5 113.5t28.5 162q0 77 -28 135.5t-75.5 96t-108.5 66t-129 50.5l-136 44t-129.5 52t-109 69t-75.5 101.5t-28 142.5q0 64 24.5 118.5t66 93t96.5 66.5t115 42.5t123 17.5v238h96v-238 q156 -13 258 -42q52 -16 79 -31v-86q-46 29 -96 45q-137 44 -308 44q-52 0 -103.5 -12t-96.5 -35.5t-79.5 -55.5t-54.5 -75.5t-20 -92.5q0 -39 11.5 -73.5t27 -59.5t47 -49t56 -39t70.5 -34t73.5 -28.5t80.5 -27.5q63 -22 95.5 -33.5t89.5 -36t87.5 -45t71 -55t61 -72 t35.5 -89.5t15 -112q0 -57 -7.5 -105.5t-24 -96.5t-47 -85.5t-73.5 -68.5t-106 -50.5t-142 -25.5v-237h-93v231q-193 12 -331 59q-51 18 -97 47z" />
<glyph unicode="%" horiz-adv-x="1718" d="M117 1280q0 109 20.5 191.5t57 131.5t83.5 73t104 24q54 0 97.5 -22t78.5 -68t54 -126.5t19 -189.5q0 -101 -23 -180t-62 -125t-84.5 -69.5t-94.5 -23.5q-51 0 -94.5 21.5t-79 66t-56 120t-20.5 176.5zM211 1287q0 -64 5.5 -115t17 -86t26 -59t33.5 -37t39 -18.5t44 -5.5 q166 0 166 325q0 340 -166 340q-165 0 -165 -344zM363 0l1009 1826h100l-1012 -1826h-97zM1089 346q0 106 21.5 188t58.5 130t83 72.5t99 24.5t97.5 -22.5t79.5 -69.5t54.5 -126t19.5 -184q0 -104 -22 -183t-59.5 -125.5t-84.5 -69.5t-102 -23q-51 0 -93.5 22.5t-77.5 67.5 t-54.5 121.5t-19.5 176.5zM1186 350q0 -65 5 -115.5t12.5 -84.5t20 -58t24.5 -37t30.5 -20t32.5 -8.5t35 -1.5q29 0 50.5 5.5t45 25.5t38 54.5t24.5 96t10 146.5q0 88 -10 152t-24.5 99.5t-38 55.5t-45 25.5t-50.5 5.5q-19 0 -34.5 -2.5t-33 -11.5t-30 -24.5t-25 -41.5 t-20.5 -61t-12.5 -86t-4.5 -114z" />
<glyph unicode="&#x26;" horiz-adv-x="1658" d="M117 367q0 175 82.5 295t267.5 202q-193 136 -193 325q0 66 19.5 119.5t54 90.5t83.5 61.5t106 36t122 11.5q50 0 99 -11t93.5 -34.5t79 -57t55 -81t20.5 -103.5q0 -141 -85 -230.5t-262 -145.5q276 -124 508 -505q110 140 182 343t65 326l-5 20h102 q-9 -180 -88.5 -372.5t-212.5 -379.5q32 -41 55 -67t55 -55t62.5 -45t71.5 -27t88 -11v-72q-42 0 -79 5.5t-64.5 12.5t-55.5 22.5t-45.5 27t-42 34.5t-37.5 37t-38 42q-17 18 -25 27q-102 -114 -246 -175t-316 -61q-247 0 -361.5 94.5t-114.5 300.5zM217 367 q0 -325 373 -325q145 0 286 59t228 164q-18 25 -47.5 69t-51 75t-54 75t-60.5 76t-67 69.5t-77 65.5t-86 53.5t-99 43.5q-52 -21 -90.5 -38t-74 -36.5t-60 -39t-46 -44t-34.5 -51t-22.5 -60t-13.5 -71.5t-4 -85zM376 1189q0 -91 51 -175t160 -144q109 38 179 89.5t105 120 t35 157.5q0 37 -18.5 70t-47 54t-62.5 36.5t-64.5 22t-54.5 6.5q-132 0 -207.5 -65.5t-75.5 -171.5z" />
<glyph unicode="'" horiz-adv-x="334" d="M117 1135v436h100v-436h-100z" />
<glyph unicode="(" horiz-adv-x="554" d="M69 554q0 303 86.5 558.5t269.5 470.5h60q-180 -218 -254 -465.5t-74 -566.5q0 -299 74.5 -541t253.5 -452h-63q-170 182 -261.5 441t-91.5 555z" />
<glyph unicode=")" horiz-adv-x="554" d="M18 1583h64q357 -419 357 -1029q0 -602 -354 -996h-63q91 108 155 224.5t101 242t52.5 253t15.5 276.5q0 306 -74.5 559.5t-253.5 469.5z" />
<glyph unicode="*" horiz-adv-x="822" d="M117 1180l256 132l-256 133l103 141l180 -169l-33 248h175l-37 -251l186 172l104 -141l-259 -133l259 -132l-104 -142l-186 172l37 -251h-175l33 248l-180 -169z" />
<glyph unicode="+" horiz-adv-x="1090" d="M117 574v76h394v419h70v-419h394v-76h-394v-385h-70v385h-394z" />
<glyph unicode="," horiz-adv-x="334" d="M-9 -343q8 17 30.5 60t32.5 66q27 51 45 103.5t18 82.5v151h100v-151q0 -78 -97 -206q-28 -39 -95 -106h-34z" />
<glyph unicode="-" horiz-adv-x="759" d="M117 599v88h527v-88h-527z" />
<glyph unicode="." horiz-adv-x="334" d="M117 0v120h100v-120h-100z" />
<glyph unicode="/" horiz-adv-x="639" d="M22 0l486 1830h85l-482 -1830h-89z" />
<glyph unicode="0" horiz-adv-x="1216" d="M69 707q0 116 14 216.5t39.5 181t62.5 146t82.5 112.5t100 79t114.5 47.5t126 15.5q75 0 142 -19.5t128 -58.5t110 -101.5t84.5 -145.5t55 -195t19.5 -244q0 -154 -31.5 -283t-86 -217.5t-127.5 -150t-154 -90t-167 -28.5q-88 0 -164 27t-140.5 84.5t-110 142.5 t-71.5 207.5t-26 273.5zM171 716q0 -160 30.5 -287.5t86 -212.5t134 -129.5t174.5 -44.5q208 0 329.5 181t121.5 502q0 164 -33 298t-93 223.5t-143 137.5t-182 48q-195 0 -310 -189t-115 -527z" />
<glyph unicode="1" horiz-adv-x="632" d="M69 1158v76q111 48 228 147q61 48 97 94h123v-1475h-101v1337q-8 -5 -48 -32.5t-68 -44t-70 -40.5t-82.5 -39.5t-78.5 -22.5z" />
<glyph unicode="2" horiz-adv-x="979" d="M69 0v94q0 57 25 116t67 112t96.5 107.5t114.5 107.5t120 106.5t114.5 110.5t96.5 113t67 119.5t25 126.5q0 107 -37 179t-104.5 106t-165.5 34q-262 0 -356 -120v82q62 63 147.5 87t208.5 24q87 0 159.5 -21.5t129 -65.5t88 -117t31.5 -169q0 -70 -26 -141.5t-70 -134.5 t-101.5 -126t-120 -121t-125 -114t-118 -111t-97.5 -106t-65 -104t-19 -102h805v-72h-890z" />
<glyph unicode="3" horiz-adv-x="1011" d="M117 48v84q37 -31 73 -49.5t78.5 -27.5t79.5 -11t97 -2q194 0 295.5 87.5t101.5 243.5q0 86 -30 149.5t-96 110t-176.5 69.5t-265.5 23v60q145 15 253 51q52 20 93 43.5t79.5 57t59 81t20.5 105.5q0 156 -71.5 232.5t-208.5 76.5q-71 0 -162 -20.5t-157 -65.5v83 q70 45 138.5 60.5t180.5 15.5q88 0 161.5 -28t120.5 -75t72.5 -106t25.5 -123q0 -73 -12 -131t-41 -111t-80 -94.5t-125 -72.5q140 -23 230.5 -131t90.5 -245q0 -84 -26.5 -153t-72.5 -117t-109.5 -81.5t-136 -49t-152.5 -15.5q-106 0 -182 19t-146 57z" />
<glyph unicode="4" horiz-adv-x="1045" d="M22 379v106l688 990h123v-1021h193v-75h-193l3 -379h-104v379h-710zM102 454h630v915z" />
<glyph unicode="5" horiz-adv-x="948" d="M117 15v67q18 -11 66 -22q96 -18 211 -18q100 0 175.5 28t120.5 78.5t67 117t22 147.5q0 94 -32.5 168t-89 120t-128 70t-153.5 24q-77 0 -202 -10q-9 -1 -20 -2t-20.5 -1.5t-16.5 -2.5v696h656v-75h-556v-545h133q94 0 173.5 -16.5t136.5 -47t100 -70t68.5 -88.5 t38 -100.5t12.5 -107.5q0 -92 -24.5 -168t-68.5 -128t-105.5 -88t-133 -52.5t-153.5 -16.5q-104 0 -163.5 10.5t-113.5 32.5z" />
<glyph unicode="6" horiz-adv-x="1056" d="M69 656q0 410 153 629.5t446 219.5q27 0 65 2t59 3t49.5 -3.5t54.5 -17.5v-72q-8 1 -26 3t-28 3q-66 5 -174 9q-119 4 -215.5 -45.5t-163.5 -144.5t-101 -238.5t-28 -322.5q20 51 56 91t75.5 62.5t86.5 37.5t83.5 19.5t71.5 4.5q130 0 233.5 -57t162 -161t58.5 -236 t-56 -238.5t-161 -169t-240 -62.5q-90 0 -164.5 31t-129 89.5t-92 142t-56.5 189.5t-19 232zM183 488q0 -75 11 -139t36 -121.5t64 -98t99 -64t137 -23.5t145 35t113.5 91.5t71.5 128t26 145.5q0 84 -21 152.5t-63.5 120.5t-111.5 80.5t-160 28.5q-69 0 -128 -24.5 t-98 -62.5t-67.5 -84t-41 -88.5t-12.5 -76.5z" />
<glyph unicode="7" horiz-adv-x="964" d="M22 1400v75h920v-94l-535 -1381h-97l520 1400h-808z" />
<glyph unicode="8" horiz-adv-x="1027" d="M69 376q0 138 80 255t224 170q-104 36 -172.5 131t-68.5 212q0 167 106 264t276 97q105 0 192.5 -46t138.5 -129t51 -186q0 -54 -16 -107.5t-45.5 -99.5t-75 -82t-100.5 -54q77 -31 135.5 -77.5t94 -102t53 -117.5t17.5 -128q0 -83 -23.5 -150.5t-65 -114t-98.5 -78.5 t-123 -46.5t-141 -14.5q-98 0 -176.5 23.5t-138 71t-92 126t-32.5 183.5zM171 403q0 -48 8 -92t25 -85t45 -74.5t65 -58t88 -38t112 -13.5q87 0 154.5 30t108 81.5t61 115.5t20.5 138q0 48 -13 95.5t-40.5 92t-66.5 78t-97 54t-127 20.5q-106 0 -185.5 -47t-118.5 -124 t-39 -173zM234 1126q0 -54 16.5 -103.5t49 -91.5t88 -67t126.5 -25q65 0 120 25.5t90 66.5t54.5 91.5t19.5 103.5q0 75 -25 135t-66.5 96.5t-90.5 55.5t-102 19q-131 0 -205.5 -75.5t-74.5 -230.5z" />
<glyph unicode="9" horiz-adv-x="1056" d="M69 1032q0 97 31 182.5t88 150.5t144.5 102.5t194.5 37.5q103 0 188 -43.5t146.5 -127t95 -212t33.5 -292.5q0 -435 -138 -646.5t-439 -211.5q-24 0 -85 -4t-97.5 0t-70.5 20v72q23 -4 66 -9q67 -9 190 -9q93 0 170.5 27.5t133.5 77.5t97.5 119.5t61 153.5t26 179 t-8.5 196q-19 -53 -55 -93t-75.5 -62t-86.5 -36.5t-83 -18.5t-69 -4q-76 0 -144.5 18.5t-126 56.5t-99 91.5t-65 126.5t-23.5 158zM168 1032q0 -101 28 -176.5t78.5 -119.5t113.5 -65t139 -21q62 0 118.5 22t97 58t70.5 81.5t45 93t15 91.5q0 112 -26.5 197t-74.5 136.5 t-109.5 77t-135.5 25.5q-63 0 -125.5 -27.5t-115 -77t-85.5 -127t-33 -168.5z" />
<glyph unicode=":" horiz-adv-x="334" d="M117 0v108h100v-108h-100zM117 927v105h100v-105h-100z" />
<glyph unicode=";" horiz-adv-x="334" d="M-9 -343q7 13 20.5 35.5t24 41t18.5 35.5q63 113 63 200v142h100v-142q0 -57 -26.5 -110t-70.5 -108q-39 -50 -95 -94h-34zM114 927v108h103v-108h-103z" />
<glyph unicode="&#x3c;" horiz-adv-x="1048" d="M69 470v32l960 545v-81l-843 -484l843 -416v-81z" />
<glyph unicode="=" horiz-adv-x="1090" d="M117 410v78h858v-78h-858zM117 704v78h858v-78h-858z" />
<glyph unicode="&#x3e;" horiz-adv-x="1048" d="M22 -15v81l845 416l-845 484v81l959 -545v-32z" />
<glyph unicode="?" horiz-adv-x="900" d="M117 1324v85q33 28 69 48q106 48 236 48q55 0 106 -10t98.5 -33t82 -58t55.5 -88.5t21 -120.5t-20.5 -124t-54 -96t-74 -72.5t-81 -61.5t-74 -54.5t-54 -59t-20.5 -68.5v-340h-101v328q0 43 16.5 81t43 65.5t60.5 55.5t69 51t69 52.5t60.5 60t43 73t16.5 91.5 q0 67 -20.5 118.5t-55.5 81t-76 44t-87 14.5q-139 0 -249 -57q-38 -18 -79 -54zM306 0v105h101v-105h-101z" />
<glyph unicode="@" horiz-adv-x="1974" d="M237 554q0 129 38.5 250t112.5 222.5t175.5 179.5t233.5 124.5t281 53.5q119 5 232.5 -23.5t208.5 -87.5t167 -141.5t112.5 -192t40.5 -232.5q0 -77 -11.5 -149t-38 -140.5t-65.5 -120.5t-97.5 -87t-131.5 -42q-36 0 -68 8t-60.5 26.5t-49.5 47t-33.5 72t-13.5 97.5 q-35 -60 -65.5 -103t-60.5 -71t-55.5 -45.5t-57.5 -26t-58.5 -11t-66.5 -2.5t-81 14t-82 45t-72.5 74.5t-51.5 109t-20 142.5q0 87 38.5 172.5t99 149t140 103t158.5 39.5q41 0 78.5 -6t65.5 -17t50.5 -22.5t41.5 -26.5t29 -24.5t21 -22.5t13 -14l26 123h85l-94 -437 q-16 -99 -8 -159q18 -157 143 -157q64 0 116.5 40.5t84.5 106t49.5 144t17.5 158.5q0 93 -26.5 183t-82.5 171t-134.5 141t-191 93.5t-244.5 28.5q-145 -4 -272 -49.5t-219.5 -119.5t-159 -170.5t-99 -204.5t-32.5 -220q0 -85 20.5 -170.5t60 -167t102.5 -151.5t143 -123 t187 -83t229 -30q237 0 425 75l3 -40q-195 -81 -407 -81q-184 0 -338.5 60t-259.5 164t-163 247t-58 306zM681 548q0 -61 14 -113.5t38.5 -89.5t56 -63t65.5 -38.5t69 -12.5q277 0 391 561q-1 0 -7.5 10t-16.5 21.5t-25.5 26.5t-37.5 28.5t-49 25.5t-64.5 19t-79.5 7 q-37 0 -83 -16.5t-93.5 -50t-87.5 -78t-65 -107t-25 -130.5z" />
<glyph unicode="A" horiz-adv-x="1279" d="M22 0l535 1475h130l537 -1475h-98l-151 413h-710l-154 -413h-89zM286 488h666l-327 918z" />
<glyph unicode="B" horiz-adv-x="1122" d="M117 0v1475h400q93 0 168 -24t124.5 -67.5t76 -103.5t26.5 -133q0 -38 -7 -78t-23 -85t-40 -83.5t-62 -72t-85 -52.5q76 -18 136.5 -57t98 -89.5t57 -107t19.5 -115.5q0 -81 -32 -154t-91 -129.5t-150.5 -90t-202.5 -33.5h-413zM217 72h294q112 0 202.5 44t141.5 120.5 t51 170.5q0 83 -33 148t-92 107t-139 63.5t-175 21.5h-250v-675zM217 824h240q164 0 258.5 74t94.5 218q0 40 -6 73t-20.5 66.5t-40.5 58.5t-62.5 45t-91 30.5t-122.5 10.5h-250v-576z" />
<glyph unicode="C" horiz-adv-x="1201" d="M69 722q0 368 198 575.5t546 206.5h44.5h54t50 -1t57.5 -3.5t50 -7t53.5 -12t44.5 -17.5l-32 -82q-29 15 -58 25t-46.5 15.5t-54 8t-46 3t-59 0t-58.5 -0.5q-72 0 -138 -10.5t-131 -35.5t-120 -63t-102.5 -95t-80.5 -129t-51.5 -168t-18.5 -209q0 -128 29.5 -236.5 t85 -190t134 -138.5t178 -86t215.5 -29t177 14.5t148 63.5l32 -82q-41 -24 -81.5 -38t-89.5 -20t-81.5 -7t-95.5 -1h-30q-166 0 -300 50.5t-227.5 145t-144.5 236t-51 318.5z" />
<glyph unicode="D" horiz-adv-x="1358" d="M117 0v1475h397q200 0 348.5 -48t242.5 -141.5t140 -226t46 -306.5q0 -164 -53.5 -301.5t-153 -238t-250.5 -157t-338 -56.5h-379zM217 72h279q152 0 277.5 43.5t218.5 126.5t145 213.5t52 297.5q0 166 -49 291t-141 202.5t-217.5 115.5t-285.5 38h-279v-1328z" />
<glyph unicode="E" horiz-adv-x="964" d="M117 0v1475h732v-75h-632v-627h568v-72h-568v-629h632v-72h-732z" />
<glyph unicode="F" horiz-adv-x="870" d="M117 0v1475h732v-75h-632v-627h568v-72h-568v-701h-100z" />
<glyph unicode="G" horiz-adv-x="1390" d="M69 707q0 180 60.5 331t165.5 252.5t248 158t309 56.5q190 0 303 -39q49 -12 88 -34v-54q7 -6 13 -10q-4 3 -10 5.5t-24 9.5t-39 12.5t-56 12.5t-74 12t-93.5 8.5t-114.5 3.5q-88 0 -171 -20t-158.5 -58.5t-138.5 -100t-109 -140t-71.5 -182.5t-25.5 -224 q0 -146 34.5 -260.5t93.5 -189.5t144 -124.5t181 -70t209 -20.5q205 0 340 84v512h-346v72h447v-644q-59 -33 -111 -52.5t-114 -28.5t-110.5 -11t-137.5 -2q-222 0 -387 87t-255 253.5t-90 394.5z" />
<glyph unicode="H" horiz-adv-x="1310" d="M117 0v1475h100v-668h878v668h100v-1475h-100v732h-878l3 -732h-103z" />
<glyph unicode="I" horiz-adv-x="334" d="M117 0v1475h100v-1475h-100z" />
<glyph unicode="J" horiz-adv-x="711" d="M22 -15l32 72q9 -3 34 -9q43 -6 101 -6q293 0 293 466v967h105v-967q0 -93 -14 -173t-44 -147.5t-74 -115t-107.5 -74t-142.5 -26.5q-102 0 -151 6q-5 1 -10.5 2t-9 1.5t-7 1.5t-5.5 2z" />
<glyph unicode="K" horiz-adv-x="1138" d="M117 0v1475h100v-870l695 870h111l-385 -479l457 -996h-102l-419 912l-357 -455v-457h-100z" />
<glyph unicode="L" horiz-adv-x="870" d="M117 0v1475h100v-1403h632v-72h-732z" />
<glyph unicode="M" horiz-adv-x="1752" d="M117 0v1475h180l564 -1304l596 1304h180v-1475h-102v1409l-656 -1409h-37l-625 1414v-1414h-100z" />
<glyph unicode="N" horiz-adv-x="1406" d="M117 0v1475h169l903 -1384v1384h102v-1475h-168l-906 1366v-1366h-100z" />
<glyph unicode="O" horiz-adv-x="1532" d="M69 716q0 383 187.5 586t528.5 203q148 0 272.5 -51.5t214.5 -147t140.5 -238.5t50.5 -318q0 -191 -51 -339.5t-144.5 -244t-224.5 -145t-293 -49.5q-154 0 -279.5 49.5t-214.5 142.5t-138 234t-49 318zM171 716q0 -115 22.5 -216.5t69.5 -186t115 -144.5t163 -93.5 t209 -33.5q148 0 265.5 52t193 146t115 223.5t39.5 286.5q0 115 -24 217.5t-72.5 187.5t-117 147t-162.5 96t-205 34q-121 0 -221.5 -35t-172 -98t-121 -152.5t-73 -197.5t-23.5 -233z" />
<glyph unicode="P" horiz-adv-x="1042" d="M117 0v1475h394q121 0 210.5 -30.5t144.5 -89t82 -137.5t27 -180q0 -60 -13.5 -116.5t-40.5 -109t-69.5 -95.5t-97.5 -75t-128.5 -50t-158.5 -18h-250l3 -574h-103zM217 647h250q123 0 215 47.5t141.5 135t49.5 205.5q0 127 -38 207t-117.5 119t-206.5 39h-294v-753z" />
<glyph unicode="Q" horiz-adv-x="1532" d="M69 716q0 386 187.5 587.5t544.5 201.5q142 0 263 -52t210 -147t139 -238t50 -318q0 -504 -343 -696q44 -18 77.5 -38.5t66 -52t50 -77.5t17.5 -103h-91q0 32 -21 63.5t-51 55t-69.5 44.5t-69.5 33t-57 21q-119 -28 -202 -28q-334 0 -517.5 192.5t-183.5 551.5zM171 716 q0 -114 24 -215t72 -184.5t116 -144.5t161 -94t203 -33q148 0 265.5 51.5t194 145t116.5 222.5t40 286q0 143 -39 267.5t-109.5 216.5t-177.5 145t-236 53q-130 0 -235 -35t-178 -98t-122 -152.5t-72 -197t-23 -233.5z" />
<glyph unicode="R" horiz-adv-x="1168" d="M117 0v1475h437q123 0 217 -44t149 -132t55 -210q0 -74 -20 -133.5t-53 -100t-83 -73t-101.5 -52t-118.5 -35.5q20 -6 38 -15t34 -23t28 -25.5t26 -30.5t22 -31t21.5 -34t19.5 -31l325 -505h-110l-296 457q-8 12 -21.5 34t-21.5 34t-22 31.5t-25 31t-27.5 26t-34 23 t-39 16.5t-47.5 11.5t-56 3.5h-196l3 -668h-103zM217 741h268q77 0 146 22t123.5 64.5t86.5 110t32 151.5q0 142 -101 229q-99 85 -248 85h-7l-300 -3v-659z" />
<glyph unicode="S" horiz-adv-x="1153" d="M117 72v85q84 -43 139 -60q169 -55 322 -55q91 0 161.5 29.5t112.5 81t63 115.5t21 139q0 76 -28 135t-75.5 96t-108.5 66t-129 51l-136 44t-129.5 52.5t-109 69.5t-75.5 101t-28 142q0 71 28.5 130t75 98t107.5 65.5t124 38.5t126 12q164 0 292 -42q59 -14 105 -37v-75 q-31 22 -93 37q-121 41 -304 41q-55 0 -117 -19.5t-116.5 -53t-91 -85.5t-36.5 -110q0 -39 11.5 -73t27 -59.5t47.5 -50t56.5 -39.5t70.5 -35t73.5 -29.5t81.5 -28.5q44 -15 66.5 -23.5t64 -24.5t64.5 -27.5t58.5 -30.5t55.5 -37t46.5 -42t41.5 -50.5t29.5 -58.5t20.5 -69 t6 -79q0 -51 -4.5 -92.5t-18.5 -87.5t-36.5 -81.5t-61.5 -69t-91 -55.5t-126.5 -35.5t-166.5 -13.5q-168 0 -313 50q-60 22 -103 50z" />
<glyph unicode="T" horiz-adv-x="1011" d="M22 1400v75h968v-75h-425v-1400h-101v1400h-442z" />
<glyph unicode="U" horiz-adv-x="1310" d="M117 551v924h100v-910q0 -98 12.5 -176t42.5 -144.5t78 -110t121 -68t170 -24.5q122 0 210 34t141 100.5t78 157.5t25 211v930h100v-901q0 -307 -130 -454.5t-421 -147.5q-281 0 -404 139.5t-123 439.5z" />
<glyph unicode="V" horiz-adv-x="1279" d="M22 1475h98l505 -1390l501 1390h98l-537 -1475h-130z" />
<glyph unicode="W" horiz-adv-x="1941" d="M22 1475h98l394 -1418l428 1418h61l363 -1424l428 1424h99l-445 -1475h-154l-322 1306l-379 -1306h-154z" />
<glyph unicode="X" horiz-adv-x="1185" d="M22 0l477 738l-448 737h120l383 -662l421 662h117l-478 -737l478 -738h-117l-418 656l-418 -656h-117z" />
<glyph unicode="Y" horiz-adv-x="1122" d="M22 1475h95l404 -854l438 854h91l-479 -939v-536h-101v521z" />
<glyph unicode="Z" horiz-adv-x="1122" d="M22 0v-6l920 1406h-857v75h1016v8l-918 -1411h883q0 -12 1.5 -36t1.5 -36h-1047z" />
<glyph unicode="[" horiz-adv-x="529" d="M117 -442v2025h391v-69h-309v-1887h309v-69h-391z" />
<glyph unicode="\" horiz-adv-x="639" d="M22 1830h89l482 -1830h-85z" />
<glyph unicode="]" horiz-adv-x="529" d="M22 -373h309v1887h-309v69h391v-2025h-391v69z" />
<glyph unicode="^" horiz-adv-x="1336" d="M117 608l479 978h32l536 -978h-75l-481 855l-412 -855h-79z" />
<glyph unicode="_" horiz-adv-x="1090" d="M117 -66h858v-88h-858v88z" />
<glyph unicode="`" horiz-adv-x="579" d="M117 1665h75l184 -277h-51z" />
<glyph unicode="a" horiz-adv-x="1027" d="M111 262q2 57 18 104t40.5 79t59.5 57t70.5 39.5t77 23.5t76 12.5t71.5 3.5q138 0 234 30q44 15 66 33q0 362 -339 362q-171 0 -265 -88q-51 -45 -69 -88l-34 85q26 51 75 81q118 82 287 82q41 0 80.5 -4.5t83 -17t81 -31t72.5 -49.5t59.5 -70t39 -94t14.5 -121v-691h-90 v123q-25 -28 -56 -53t-73.5 -50.5t-96.5 -40t-111 -14.5q-86 0 -153.5 16t-118.5 51q-50 34 -76 92q-23 52 -23 121v17zM199 262q0 -63 22.5 -109.5t62.5 -73t89.5 -39t108.5 -12.5q38 0 75.5 8.5t70 24t61.5 34t54 40.5t43.5 41t32.5 38v340q-26 -10 -94 -30 q-97 -28 -186 -28q-51 0 -99.5 -9t-92.5 -27.5t-77 -45.5t-52 -66.5t-19 -85.5z" />
<glyph unicode="b" horiz-adv-x="1185" d="M117 0v1568h85v-626q48 34 111 67q135 66 301 66q68 0 136.5 -19t134.5 -61.5t117.5 -102t82.5 -149t31 -195.5q0 -115 -26.5 -210t-73 -159t-109.5 -108t-133.5 -63.5t-148.5 -19.5q-171 0 -306 66q-57 27 -117 69v-123h-85zM202 196q68 -54 120 -79q148 -75 316 -75 q48 0 99.5 16.5t105 56t95 96t68 145t26.5 195.5q0 71 -18.5 136.5t-49 115.5t-70.5 91.5t-84 68.5t-88.5 41.5t-83.5 14.5q-159 0 -316 -80q-62 -29 -120 -75v-668z" />
<glyph unicode="c" horiz-adv-x="870" d="M69 502q0 174 65 304t188 201t289 71q72 0 165 -28q9 -4 31 -11.5t32 -12.5l-26 -57q-11 8 -49 24q-84 30 -153 30q-66 0 -129.5 -18.5t-123.5 -60t-105 -100.5t-72 -147.5t-27 -194.5q0 -100 27 -180t71 -131t104 -85t122.5 -47.5t129.5 -13.5q82 0 153 24q21 10 52 28 l26 -59q-2 -1 -60 -26q-83 -24 -192 -24q-244 0 -381 137.5t-137 376.5z" />
<glyph unicode="d" horiz-adv-x="1185" d="M69 548q0 82 18 153t48.5 124t72 96t88.5 72t99 48.5t102 28t99 8.5q157 0 286 -69q59 -33 102 -67v626h85v-1568h-85v123q-44 -35 -105 -69q-123 -66 -289 -66q-80 0 -151.5 16.5t-140.5 57.5t-118.5 103t-80 160.5t-30.5 222.5zM154 551q0 -85 15 -157.5t39.5 -124 t59.5 -92t72 -65.5t79 -41.5t79 -22.5t73 -6q142 0 290 75q43 21 123 79v668q-67 48 -123 75q-157 80 -290 80q-49 0 -104.5 -17.5t-111.5 -55.5t-100.5 -91.5t-72.5 -132.5t-28 -171z" />
<glyph unicode="e" horiz-adv-x="1024" d="M69 514q0 126 36.5 232.5t99 178.5t146.5 112.5t179 40.5q96 0 177.5 -32t142.5 -93.5t91 -160.5q23 -76 23 -168q0 -27 -2 -56l-3 -41h-808q0 -104 21.5 -186.5t58.5 -137.5t88.5 -91t109 -51.5t122.5 -15.5q133 0 228 49q38 27 57 54l34 -82q-40 -29 -78 -41 q-88 -37 -221 -37q-89 0 -163.5 17t-138 56.5t-107 99.5t-68.5 149.5t-25 203.5zM142 587h728q-7 214 -97 325t-243 111q-150 0 -251.5 -113.5t-136.5 -322.5z" />
<glyph unicode="f" horiz-adv-x="648" d="M22 972v57h204v211q0 181 66.5 270t186.5 89h129q17 0 20 3v-47q1 -1 1 -2q0 -3 -8 -7q-23 -8 -85 -8q-56 0 -96 -14t-63.5 -38t-37.5 -63.5t-18.5 -82t-4.5 -100.5v-211h312v-57h-315l3 -972h-90v972h-204z" />
<glyph unicode="g" horiz-adv-x="1185" d="M69 514q0 125 29 223.5t77 161.5t115 104t137.5 58t150.5 17q154 0 295 -69q15 -8 30.5 -17t27 -16t27.5 -17.5t26 -16.5v121h85v-1063q0 -293 -126 -420.5t-413 -127.5q-173 0 -265 37q-40 12 -76 41l31 73q28 -28 73 -48q95 -46 237 -46q126 0 215 30.5t141 92 t75 144.5t23 196v151q-62 -43 -114 -66q-135 -66 -299 -66q-42 0 -87.5 8t-94.5 27t-94.5 47.5t-87 71t-72 95t-48.5 123t-18 151.5zM154 514q0 -97 29 -178.5t74.5 -134t103 -89t112.5 -52t105 -15.5q138 0 286 75q39 21 120 79v671q-65 47 -120 76q-157 80 -286 80 q-36 0 -73.5 -6.5t-79.5 -23t-80 -42t-73.5 -66t-61 -92t-41 -124t-15.5 -158.5z" />
<glyph unicode="h" horiz-adv-x="1090" d="M117 0v1568h85v-656q32 53 78 81q123 85 288 85q112 0 192.5 -27t126.5 -78.5t67 -118t21 -153.5v-701h-85v710q0 69 -26.5 125.5t-71 92.5t-101 55.5t-117.5 19.5q-166 0 -284 -94q-61 -48 -88 -93v-816h-85z" />
<glyph unicode="i" horiz-adv-x="317" d="M117 0v1063h85v-1063h-85zM117 1246v85h85v-85h-85z" />
<glyph unicode="j" horiz-adv-x="317" d="M-316 -536l36 76q4 -4 15 -10t16 -9q39 -17 72 -17q75 0 132 32.5t92 92.5t52.5 140t17.5 180v1114h85v-1075q0 -267 -99.5 -401.5t-273.5 -134.5q-72 0 -115 6q-5 1 -15.5 2.5t-14.5 3.5zM117 1249v82h85v-82h-85z" />
<glyph unicode="k" horiz-adv-x="948" d="M117 0v1568h85v-1212l520 659h97l-241 -308l328 -707h-87l-295 638l-322 -407v-231h-85z" />
<glyph unicode="l" horiz-adv-x="317" d="M117 0v1568h85v-1568h-85z" />
<glyph unicode="m" horiz-adv-x="1863" d="M117 0v1063h85v-151q0 4 13 20.5t42.5 41.5t68.5 48t100 39.5t128 16.5q109 0 182.5 -18t123 -57t79.5 -104q11 16 33 37t59.5 46.5t82 46.5t104.5 35t122 14q113 0 192.5 -25t126.5 -75t68 -117.5t21 -159.5v-701h-86v710q0 73 -28.5 131t-76 93t-105 53.5t-118.5 18.5 q-156 0 -274 -94q-51 -40 -85 -96v-816h-85v710q0 45 -12 86t-34 73.5t-51.5 58t-65 42.5t-74.5 26.5t-79 9.5q-169 0 -288 -94q-50 -40 -84 -96v-816h-85z" />
<glyph unicode="n" horiz-adv-x="1090" d="M117 0v1063h85v-151q32 53 78 81q123 85 271 85q119 0 202 -25.5t131 -76t69.5 -117.5t21.5 -158v-701h-85v710q0 59 -18 108t-49 83.5t-74 58t-92 35t-103 11.5q-149 0 -268 -94q-50 -40 -84 -96v-816h-85z" />
<glyph unicode="o" horiz-adv-x="1150" d="M69 517q0 141 37 248.5t105.5 175.5t163.5 102.5t215 34.5q108 0 197.5 -34.5t155 -100.5t102 -168.5t36.5 -232.5q0 -279 -133.5 -415t-379.5 -136q-90 0 -167 20.5t-138.5 62.5t-104.5 104t-66 148t-23 191zM154 517q0 -70 11.5 -131.5t32 -109.5t50 -86.5t65 -65 t77.5 -45t86 -26.5t92 -8q93 0 169 29t135 87.5t91.5 156t32.5 224.5q0 93 -21 172t-59 135t-89.5 95.5t-111 59t-125.5 19.5q-74 0 -138 -17.5t-119.5 -56.5t-94.5 -96.5t-61.5 -143t-22.5 -192.5z" />
<glyph unicode="p" horiz-adv-x="1185" d="M117 -502v1565h85v-121q46 36 104 67q142 69 325 69q67 0 131 -17t129.5 -58.5t114.5 -103.5t79.5 -161.5t30.5 -223.5q0 -81 -17 -151.5t-47 -123t-71 -95t-87 -71t-97.5 -47.5t-100.5 -27t-97 -8q-169 0 -293 66q-60 27 -104 66v-625h-85zM202 199q58 -46 120 -76 q148 -75 296 -75q78 0 153 36t132.5 97.5t93 149t35.5 183.5q0 98 -22.5 181.5t-61 142.5t-89 101.5t-107 63t-114.5 20.5q-168 0 -319 -77q-54 -26 -117 -76v-671z" />
<glyph unicode="q" horiz-adv-x="1185" d="M69 514q0 125 32 223.5t84 161t123 104t144 58.5t153 17q162 0 285 -69q51 -29 94 -67v121h85v-1565h-85v625q-67 -47 -111 -66q-135 -66 -295 -66q-45 0 -91.5 8t-96.5 27t-96 47.5t-87 71t-71.5 95t-48.5 123t-18 151.5zM154 514q0 -96 35 -183.5t92.5 -149t133 -97.5 t153.5 -36q157 0 299 75q61 32 117 76v671q-56 44 -117 76q-151 77 -310 77q-80 0 -152 -33.5t-128.5 -95.5t-89.5 -160t-33 -220z" />
<glyph unicode="r" horiz-adv-x="623" d="M117 0v1063h85v-271q34 86 81 141q55 66 118 105.5t147 39.5q5 0 18 -1.5t18 -1.5h18v-56h-15q-4 0 -17 2t-22 2q-126 0 -248 -171q-63 -92 -98 -171v-681h-85z" />
<glyph unicode="s" horiz-adv-x="900" d="M117 28v60q28 -16 72 -31q91 -29 214 -29q138 0 218 61.5t80 190.5q0 55 -16.5 97.5t-44.5 68.5t-65.5 46.5t-79.5 32.5t-86 25.5t-86.5 25t-79.5 32t-65 46t-44.5 67t-16.5 95.5q0 49 27.5 100t72.5 91t107.5 65.5t126.5 25.5q105 0 205 -32q43 -16 66 -28v-63 q-17 14 -57 31q-87 32 -214 32q-59 0 -116 -28t-95 -80t-38 -114q0 -43 15.5 -76t34.5 -52.5t59.5 -37t67 -25t79.5 -20.5q45 -12 68 -18t64 -21t63.5 -29.5t51.5 -39t44 -53.5t25.5 -71t10.5 -93q0 -44 -10 -84.5t-38 -82t-71 -72t-114.5 -50t-163.5 -19.5q-122 0 -208 28 q-45 17 -63 28z" />
<glyph unicode="t" horiz-adv-x="648" d="M22 972v57h204v539h87v-539h315v-57h-315v-626q0 -57 5.5 -100.5t21 -83.5t41.5 -65.5t68 -40t99 -14.5q54 0 73 -7q1 0 4 -2l3 -2v-43h-158q-130 0 -187 86.5t-57 275.5v622h-204z" />
<glyph unicode="u" horiz-adv-x="1090" d="M117 367v696h85v-732q0 -117 92.5 -198.5t241.5 -81.5q178 0 280 91q53 48 74 95v826h85v-1069h-85v160q-33 -48 -95 -88q-116 -88 -281 -88q-112 0 -190.5 27.5t-123 80t-64 121t-19.5 160.5z" />
<glyph unicode="v" horiz-adv-x="996" d="M38 1063h98l360 -994l331 994h97l-367 -1063h-124z" />
<glyph unicode="w" horiz-adv-x="1547" d="M22 1063h101l265 -988l350 988h63l315 -988l287 988h99l-322 -1063h-124l-283 921l-319 -921h-138z" />
<glyph unicode="x" horiz-adv-x="900" d="M22 0l351 533l-351 530h86l305 -464l309 464h85l-350 -546l347 -517h-85l-306 448l-305 -448h-86z" />
<glyph unicode="y" horiz-adv-x="1071" d="M15 -533l36 79q4 -3 12 -9.5t12 -9.5q31 -18 76 -18q40 0 67.5 3.5t58.5 15.5t55 38t41 67l138 332l-469 1098h94l426 -978l359 978h94l-507 -1309q-20 -51 -33 -80.5t-30.5 -64t-32 -53.5t-35.5 -39.5t-42.5 -30.5t-51.5 -19t-64.5 -12t-79.5 -3q-51 0 -94 6z" />
<glyph unicode="z" horiz-adv-x="957" d="M117 0v-3l684 1009h-624v57h759v-3l-677 -1000h668v-60h-810z" />
<glyph unicode="{" horiz-adv-x="569" d="M69 488v57q93 9 143 91t50 216v369q0 78 15.5 139.5t41.5 101.5t63.5 67t78 39t87.5 15v-72q-47 -4 -81.5 -21t-56 -43t-35 -64t-18 -78t-4.5 -91v-378q0 -46 -2.5 -79.5t-8.5 -69t-17.5 -61.5t-29.5 -49t-45 -39.5t-64 -26.5q51 -13 84.5 -40t51 -70t24.5 -93t7 -122 v-363v-35q-1 -24 -0.5 -46.5t1 -43t3.5 -39.5t7.5 -35.5t12 -31t17.5 -26t24.5 -20.5t33.5 -15.5t43 -9.5t53 -3v-69q-96 0 -157.5 33t-95 112t-33.5 207v376q0 133 -50 216.5t-143 94.5z" />
<glyph unicode="|" horiz-adv-x="320" d="M117 -394v2134h88v-2134h-88z" />
<glyph unicode="}" horiz-adv-x="569" d="M22 -482q32 0 58 4t45.5 11.5t34.5 18.5t24.5 25.5t16.5 32t10 37.5t4.5 42.5t1.5 47v51.5v35v363q0 71 7 121.5t25 93.5t51.5 70t84.5 40q-36 11 -63.5 27t-46 39t-30 49t-17.5 61t-8.5 69t-2.5 80v378q0 51 -5 91t-18 78t-34.5 64t-56.5 43t-81 21v72q47 -3 87.5 -15 t78.5 -39t64 -67t42 -101.5t16 -139.5v-369q0 -134 49.5 -216t142.5 -91v-57q-62 -7 -105.5 -48.5t-65 -108t-21.5 -154.5v-376q0 -97 -18.5 -165t-56 -109t-90 -59.5t-123.5 -18.5v69z" />
<glyph unicode="~" horiz-adv-x="1087" d="M117 521q0 63 18 108t51 70t72.5 36.5t87.5 11.5q37 0 77 -18t77.5 -44t78.5 -51.5t92.5 -44t104.5 -18.5t97 48.5t51 127.5h48q-3 -60 -17.5 -102.5t-35 -66t-53.5 -37t-62.5 -17t-71.5 -3.5q-28 0 -60 12.5t-61 31.5t-64 41t-67 41t-71 31.5t-75 12.5q-84 0 -130.5 -43 t-46.5 -127h-40z" />
<glyph unicode="&#xa9;" horiz-adv-x="1983" d="M117 764q0 126 33 246t92 220.5t144 185t186 143t220.5 91t245.5 32.5q127 0 246.5 -32.5t220 -91t185 -143t143 -185t91 -220t32.5 -246.5q0 -109 -24 -212.5t-68.5 -194t-107 -169.5t-141.5 -141t-170 -106.5t-194.5 -68t-212.5 -23.5q-95 0 -186.5 18.5t-173.5 52.5 t-156 83t-136 110.5t-112 135t-85 155t-53.5 173.5t-18.5 187zM177 763.5q0 -100.5 22.5 -196.5t64.5 -180t100.5 -158t133 -131.5t159 -99.5t181 -64t197.5 -22q117 0 228.5 30.5t205.5 85t173 132.5t134 171.5t86 204.5t31 228t-31 228.5t-86 205.5t-134 173t-173 134 t-205.5 86t-228.5 31q-101 0 -197.5 -22.5t-181 -65t-159 -100.5t-133 -132.5t-100.5 -159t-64.5 -181.5t-22.5 -197.5zM562 747q0 134 40.5 242.5t114 181t178 111.5t231.5 39q167 0 268 -37l-31 -66q-27 13 -55.5 21t-61 11t-57 4t-63.5 1q-104 0 -191 -33.5t-149.5 -97 t-97.5 -160t-35 -217.5q0 -124 34.5 -219.5t98 -156t149.5 -91.5t191 -31q58 0 93.5 5t68.5 17.5t75 38.5l31 -73q-60 -33 -125 -45t-159 -12q-123 0 -225 39t-173.5 111t-110.5 178.5t-39 238.5z" />
<glyph unicode="&#xad;" horiz-adv-x="759" d="M117 599v88h527v-88h-527z" />
<glyph unicode="&#xae;" horiz-adv-x="2071" d="M117 764q0 126 33 246t92 220.5t144 185t186 143t220.5 91t245.5 32.5q127 0 246.5 -32.5t220 -91t185 -143t143 -185t91 -220t32.5 -246.5q0 -109 -24 -212.5t-68.5 -194t-107 -169.5t-141.5 -141t-170 -106.5t-194.5 -68t-212.5 -23.5q-95 0 -186.5 18.5t-173.5 52.5 t-156 83t-136 110.5t-112 135t-85 155t-53.5 173.5t-18.5 187zM177 767q0 -117 31 -228.5t87 -205t135 -172t173.5 -133.5t205 -85.5t226.5 -30.5q99 0 195 22.5t180 64.5t158.5 100t133 132t100.5 158t65 180.5t23 197.5q0 116 -31 226.5t-86.5 204t-134.5 172.5 t-172.5 134.5t-204.5 86.5t-226.5 31t-226 -31t-204.5 -86.5t-173.5 -134.5t-135.5 -172.5t-87 -204.5t-31 -226zM732 226v1111h337q143 0 231 -76.5t88 -213.5q0 -73 -22 -129t-61.5 -91t-86.5 -55.5t-105 -30.5q19 -10 37 -24.5t30.5 -26.5t29 -33t23.5 -30.5t24 -33.5 t20 -28l228 -339h-111l-187 307q-47 80 -119 134.5t-119 54.5h-145v-496h-92zM824 792h182q56 0 107.5 17t92.5 48.5t66 81t25 108.5q0 97 -69 157t-187 60h-217v-472z" />
<glyph unicode="&#xbc;" horiz-adv-x="2089" d="M139 1646v42q8 4 17.5 9t16.5 9t17.5 11t15.5 10.5t16.5 12t14 10.5l15 12t13.5 11q6 5 13.5 12t13 13t12.5 13.5t12 11.5h69v-814h-57v739q-5 -3 -34.5 -23t-49 -32t-50 -26.5t-55.5 -20.5zM502 0l1117 1830h87l-1116 -1830h-88zM1508 271v60l378 545h67v-563h103v-42 h-103l3 -208h-60v208h-388zM1552 313h344v503z" />
<glyph unicode="&#xbd;" horiz-adv-x="2131" d="M139 1646v42q8 4 17.5 9t16.5 9t17.5 11t15.5 10.5t16.5 12t14 10.5l15 12t13.5 11q6 5 13.5 12t13 13t12.5 13.5t12 11.5h69v-814h-57v739q-5 -3 -34.5 -23t-49 -32t-50 -26.5t-55.5 -20.5zM502 0l1117 1830h87l-1116 -1830h-88zM1577 63v54q0 41 22.5 83.5t58.5 80 t79 76.5t86.5 78.5t79.5 78.5t58.5 84t22.5 89q0 177 -173 177q-140 0 -199 -66v47q36 36 82 48.5t117 12.5q49 0 89 -12t71.5 -36.5t48.5 -65t17 -94.5q0 -50 -23.5 -101t-61 -94.5t-82.5 -87t-89.5 -84t-80.5 -78t-57 -76t-18 -72.5h451v-42h-499z" />
<glyph unicode="&#xbe;" horiz-adv-x="2086" d="M117 1050v48q29 -23 58 -34.5t53.5 -14t68.5 -2.5q70 0 119 22t73.5 63t24.5 98q0 97 -71 145t-238 48v34q67 4 135 29q139 47 139 154q0 171 -151 171q-115 0 -177 -48v48q26 17 53.5 26t54 11.5t69.5 2.5q96 0 152 -55t56 -128q0 -54 -12 -93.5t-44 -73t-86 -56.5 q52 -11 92.5 -41t62.5 -73t22 -91q0 -59 -21.5 -104t-60 -72.5t-87 -41t-105.5 -13.5q-104 0 -180 41zM502 0l1117 1830h87l-1116 -1830h-88zM1505 271v60l378 545h67v-563h103v-42h-103l3 -208h-60v208h-388zM1549 313h344v503z" />
<glyph unicode="&#xe01;" horiz-adv-x="1264" d="M69 1006q40 81 114 155q161 154 391 154q53 0 106 -5.5t110 -19t107.5 -34.5t96 -53.5t78.5 -73t52.5 -96.5t19.5 -121v-758q0 -66 -46 -119q-17 -17 -48 -35h-9v849q0 67 -15.5 123.5t-41.5 96.5t-63 71t-78 50t-90 31t-94 17t-94 5q-165 0 -309 -120q-69 -59 -108 -117 l186 -157q-8 -13 -18 -48q-16 -64 -16 -193v-608h-111v596q0 111 34 186q14 37 39 67q-23 16 -57.5 44.5t-41.5 33.5q-94 76 -94 79z" />
<glyph unicode="&#xe02;" horiz-adv-x="1042" d="M69 1207v77h177q46 0 86.5 -12.5t75.5 -40t56 -77t21 -116.5q0 -37 -11 -72.5t-32.5 -67.5t-41 -55t-47.5 -51q-17 -17 -29 -34.5t-26.5 -47.5t-22 -75t-7.5 -102v-126q0 -39 2 -71.5t9.5 -71t19.5 -69t33.5 -60.5t50.5 -49.5t72 -31.5t96 -12q49 0 90 13t69 34.5 t49.5 52.5t34 62.5t20.5 69t10.5 69t2.5 64.5v877h100v-877q0 -79 -10.5 -143t-36 -120t-65 -94t-100 -59.5t-137.5 -21.5q-98 0 -171.5 21.5t-120.5 59.5t-76 94t-41 119.5t-12 143.5v126q0 63 8.5 114.5t20.5 84t32 62t36 45t39 37.5t35 36q20 22 38.5 61.5t18.5 64.5 q0 169 -139 169h-177z" />
<glyph unicode="&#xe03;" horiz-adv-x="1042" d="M69 1214v70q30 0 82 -32q8 -5 22.5 -14t22.5 -14q18 14 41 28q52 32 88 32q54 0 92.5 -16.5t59.5 -47.5t30.5 -68t9.5 -83q0 -42 -9.5 -76.5t-30.5 -65.5t-37 -48.5t-46 -46.5q-10 -11 -15 -16q-16 -16 -31 -35.5t-35 -52t-32.5 -75.5t-12.5 -88v-158q0 -38 2.5 -71 t10 -71.5t20 -69t33.5 -60t49.5 -49.5t70 -32t91.5 -12q49 0 90 13.5t69.5 36t51 54t35.5 64.5t21.5 71t11.5 70t3 65v868h100v-854q0 -87 -10.5 -154t-36.5 -125.5t-69 -96.5t-110 -60t-156 -22q-85 0 -150.5 21.5t-109 59t-71 92.5t-39.5 119t-12 143v158q0 98 43.5 191.5 t124.5 155.5q6 4 19.5 12.5t20 13.5t17 17t15.5 25.5t9 37t4 54.5q0 53 -28 84t-72 51q-37 13 -93 -37q-7 -7 -24.5 -24t-27.5 -26q-17 17 -42 47q-46 47 -60 47z" />
<glyph unicode="&#xe04;" horiz-adv-x="1279" d="M117 0v912q0 80 30.5 147.5t82 114t119.5 79t141.5 47.5t150.5 15q65 0 128.5 -11t122 -32.5t108 -55.5t86.5 -77.5t57.5 -102t20.5 -124.5v-912h-101v912q0 58 -18 107.5t-49.5 85t-72.5 62.5t-89 43.5t-96.5 24.5t-96.5 8q-59 0 -117 -11.5t-114 -37.5t-98.5 -63 t-68.5 -94t-26 -125v-439q41 56 99 101q122 104 249 104v-104q-40 0 -84.5 -13.5t-81.5 -33.5t-71 -45q-60 -44 -108 -91v-391h-103z" />
<glyph unicode="&#xe05;" horiz-adv-x="1279" d="M117 0v912q0 65 15 125t46 111.5t74.5 89t104 59t131.5 21.5q59 0 108 -63q33 -39 45 -60q6 10 15 20.5t19.5 22t15.5 17.5q50 63 101 63q82 0 153 -33t118.5 -88.5t74 -129.5t26.5 -155v-912h-101v912q0 32 -6.5 68t-18.5 73.5t-32 71t-45 60t-60 42.5t-74 16 q-46 0 -117 -88q-45 -51 -69 -86q-25 35 -70 86q-70 88 -117 88q-48 0 -88.5 -22.5t-66.5 -58t-44.5 -80t-26.5 -88t-8 -82.5v-439q41 56 99 101q122 104 246 104v-104q-115 0 -237 -92q-60 -44 -108 -91v-391h-103z" />
<glyph unicode="&#xe06;" horiz-adv-x="1295" d="M69 1214v70q27 0 79 -32l48 -28q18 14 41 28q41 27 88 32q89 3 140.5 -49t51.5 -166q0 -58 -13.5 -105t-35.5 -79.5t-48.5 -60.5t-53.5 -54t-49 -53t-35.5 -64t-13.5 -82l-3 -345q58 -45 120 -75q142 -76 290 -76q97 0 168.5 21t116 56.5t71.5 91t37 116.5t10 142v782 h102v-896q0 -48 -16 -102.5t-50 -110.5t-81 -101t-117.5 -73.5t-151.5 -28.5q-209 0 -370 91q-69 33 -126 91v-154h-105v584q0 48 9 87.5t23.5 66.5t33.5 49t40 39.5t41.5 34.5t39.5 37t34 44t23.5 58.5t8.5 77.5q0 18 -4.5 34t-12 27.5t-17.5 21t-21 16t-23 10.5t-23.5 6 t-21.5 2q-40 0 -82 -37q-18 -11 -40 -38l-29 47q-4 4 -10.5 11t-10.5 11t-10.5 9.5t-12 8t-13 5t-16.5 2.5z" />
<glyph unicode="&#xe07;" horiz-adv-x="1059" d="M69 839h102l188 -770q90 0 171 29.5t143.5 82.5t108.5 124t70 158t24 181q0 116 -38.5 221.5t-102.5 180.5t-151 119.5t-181 44.5v77q111 0 205 -33.5t161.5 -93.5t115 -141.5t70.5 -176t23 -198.5q0 -121 -33.5 -225.5t-92 -180t-136 -130t-166.5 -81.5t-183 -27h-99z " />
<glyph unicode="&#xe08;" horiz-adv-x="1216" d="M79 1075q32 68 89 120q132 120 346 120q151 0 271.5 -49t198 -135t119 -202.5t41.5 -253.5q0 -145 -39.5 -270.5t-108 -214t-165 -139.5t-206.5 -51h-158l-127 508q-3 11 -8 17.5t-8.5 10t-13 5t-14 1.5h-19.5h-63v72h129q59 0 64 -11q1 -2 -2 -3q-7 0 -10 12l-1 9 l160 -552q69 0 129 15t106 42.5t84.5 63.5t65.5 81.5t47 94t32 101.5t17.5 104t5.5 104q0 107 -26 198t-74 158.5t-113.5 115.5t-146 72t-170.5 24q-174 0 -315 -117q-62 -53 -105 -117z" />
<glyph unicode="&#xe09;" horiz-adv-x="1264" d="M69 605v73h73q72 0 108 -51.5t36 -130.5v-89q0 -39 1 -63.5t4 -59t9.5 -57t18 -50.5t27.5 -46t40.5 -36.5t56.5 -29t74.5 -17t93.5 -6.5q134 0 301 100q69 40 135 101v542q0 232 -111.5 345t-310.5 113q-159 0 -306 -79q-44 -21 -117 -78l-31 72q2 1 11.5 9t12.5 10t12 9 t13 9.5t12 8.5t13.5 9t13.5 8t15.5 8.5t15.5 7.5q160 78 335 78q522 0 522 -499v-816h-100v154q-66 -56 -141 -91q-168 -91 -355 -91q-184 0 -273 125t-89 357v28v7q1 14 0.5 22.5t-1 24.5t-3 26t-6 21t-10 16.5t-15.5 5.5h-85z" />
<glyph unicode="&#xe0a;" horiz-adv-x="1122" d="M69 1210v74h205q26 0 53.5 -7.5t56 -25.5t51 -45.5t36.5 -71t14 -96.5q0 -37 -12 -73.5t-34.5 -69.5t-43 -57t-49.5 -53q-21 -22 -40 -50.5t-36 -84t-17 -117.5v-160q0 -36 2 -64t10 -64t22.5 -63t41 -54.5t62.5 -45.5t90 -29t121 -11q71 0 130.5 29t98.5 74.5t66.5 101 t39.5 107t12 94.5q0 67 -15 131.5t-47 124.5t-77.5 105t-111.5 72.5t-144 27.5v72q117 0 213 81.5t149 216.5t53 292h103q0 -375 -200 -544q-65 -55 -156 -85l18 -7.5t39 -17.5t51.5 -31t58.5 -46t57 -64t50 -84t34.5 -107.5t13.5 -133.5q0 -61 -15 -125t-48.5 -128.5 t-82 -115t-122.5 -82t-162 -31.5q-79 0 -143 11t-110.5 29.5t-81.5 48t-57 63t-35.5 77.5t-18.5 88.5t-5 98.5v148q0 64 8.5 116t20.5 84.5t32 62t35.5 45t39 37t35.5 34.5q57 82 57 126q0 22 -0.5 34t-2.5 33t-6 33t-12 28t-19.5 24t-29.5 14t-41 6h-205z" />
<glyph unicode="&#xe0b;" horiz-adv-x="1122" d="M69 1214v70q30 0 82 -32q8 -5 22.5 -14t22.5 -14q18 14 41 28q52 32 88 32q192 0 192 -215q0 -38 -8.5 -70.5t-28.5 -62.5t-35 -47.5t-44 -47.5q-1 -2 -2 -3l-2.5 -2.5l-2.5 -2.5l-4 -4q-24 -23 -40 -42t-42 -55.5t-40.5 -79t-14.5 -87.5v-192q0 -34 2.5 -63.5 t11.5 -64.5t24 -62.5t41.5 -55t62 -45.5t88 -29t116.5 -11q52 0 101 20.5t86.5 54.5t68.5 77.5t51.5 89t31.5 89t11 78.5q0 67 -15 131.5t-47 123.5t-77.5 104t-111.5 72t-144 27v72q117 0 213 81.5t149 216.5t53 292h103q0 -107 -18 -198t-43.5 -151.5t-63.5 -111t-69 -78 t-69.5 -49t-55 -27.5t-35.5 -12q-4 -1 -5 -2l18 -7.5t39.5 -17.5t52 -31t59 -46t57.5 -64t50.5 -84t35 -107.5t13.5 -133.5q0 -66 -16 -132t-51.5 -129t-87 -111t-128 -77.5t-168.5 -29.5q-100 0 -175.5 20t-123.5 55t-77.5 88t-41.5 113t-12 137v211q0 84 47.5 170 t129.5 152q82 64 82 154q0 24 -6.5 44t-16.5 33.5t-25 24t-29.5 16.5t-32.5 11q-28 11 -86 -34q-23 -23 -46 -51q-5 8 -16.5 24.5t-15.5 23.5q-14 16 -23 25t-23 17t-27 8z" />
<glyph unicode="&#xe0c;" horiz-adv-x="2083" d="M69 1006q40 81 114 155q161 154 374 154q58 0 113.5 -5.5t114.5 -19t110.5 -34.5t98 -53t79.5 -73t52 -97t19 -121v-681q64 -57 108 -80q130 -76 274 -76q69 0 121 11.5t87.5 28.5t59.5 50t37 62t20 81t8 90t1 104v782h105v-877q0 -70 -9.5 -130t-35 -118t-64.5 -99 t-102.5 -66t-145.5 -25q-206 0 -350 91q-70 44 -114 94v-154h-103v849q0 63 -12.5 116t-36.5 91.5t-54 69t-68 50.5t-76 33.5t-81.5 20.5t-79.5 10t-76 3q-83 0 -151.5 -32.5t-134.5 -87.5q-57 -49 -108 -117l187 -157q-2 -2 -3.5 -4.5l-3 -5t-3 -5.5l-3 -6t-3 -7t-3 -7.5 t-3.5 -8t-3 -7.5q-25 -77 -25 -202v-464q0 -6 -0.5 -16t-0.5 -15.5t0.5 -12t3 -9.5t8 -6t14.5 -4h94v-69h-116q-18 0 -33.5 3t-26.5 7t-19.5 12.5t-14 15.5t-9 20t-5.5 22t-2.5 25t-0.5 25.5v28v27.5v410q0 111 34 186q17 43 36 67q-23 16 -57.5 44.5t-41.5 33.5 q-94 76 -94 79z" />
<glyph unicode="&#xe0d;" horiz-adv-x="2083" d="M69 1006q40 81 114 155q161 154 379 154q57 0 113 -5.5t114.5 -19t109.5 -34.5t96.5 -53t78 -73t51.5 -97t19 -121v-496q0 -51 5 -92t17 -81.5t33.5 -70t53.5 -53t79.5 -35.5t108.5 -12q180 0 313 88q65 39 109 89v1035h102l-6 -1104q0 -50 -6.5 -102t-23 -110.5 t-42 -111t-66 -101.5t-91 -84t-122 -56.5t-154.5 -21.5q-136 0 -244 64q-38 20 -87 63l24 63q37 -37 83 -60q111 -57 242 -57q98 0 174.5 37.5t124 104t71.5 152t24 185.5v9q-56 -57 -118 -91q-144 -91 -319 -91q-93 0 -160.5 21t-110 57.5t-67.5 95.5t-34.5 125.5 t-9.5 158.5v419q0 91 -29 161.5t-76 113.5t-112 70.5t-130 38t-138 10.5q-84 0 -153 -33t-135 -87q-53 -46 -106 -117l185 -157q-11 -11 -28 -51q-25 -77 -25 -202v-464v-9.5v-10v-8.5t0.5 -8t1.5 -7t2.5 -6.5t4 -5t5.5 -4t7.5 -2.5t9.5 -2h88v-69h-94q-31 0 -52.5 7t-40 26 t-27.5 57t-9 96v410q0 91 30 186q17 43 36 67q-23 16 -57.5 44.5t-41.5 33.5q-94 76 -94 79z" />
<glyph unicode="&#xe0e;" horiz-adv-x="1264" d="M63 0v75h94q24 3 29.5 17t5.5 47v457q0 111 34 186q17 43 36 67q-23 16 -57.5 44.5t-41.5 33.5q-94 76 -94 79q40 81 114 155q161 154 385 154q90 0 169.5 -11t155.5 -40t130.5 -73.5t87.5 -116t33 -162.5v-1114q0 -25 -1.5 -45.5t-8.5 -49t-19 -50.5t-34 -45.5 t-52.5 -39t-76.5 -25.5t-103 -10q-128 0 -247 73q-56 31 -100 75q-39 -44 -95 -75q-125 -73 -313 -73v73q188 0 313 72q59 33 98 73q55 -55 94 -79q114 -79 253 -79q100 0 144.5 46t44.5 144v1066q0 71 -17 130t-44.5 99.5t-67.5 70.5t-81.5 47.5t-91 28.5t-91 14.5 t-86.5 3.5q-146 0 -291 -120q-57 -49 -108 -117l187 -157q-14 -18 -31 -57q-29 -79 -29 -196v-410q0 -186 -122 -186h-105z" />
<glyph unicode="&#xe0f;" horiz-adv-x="1264" d="M63 0v75h94q24 3 29.5 18.5t5.5 51.5v448q0 111 34 186q16 42 36 70q-23 16 -57.5 44.5t-41.5 33.5q-94 76 -94 79q40 81 114 155q161 154 368 154q60 0 117 -5.5t116.5 -19t111.5 -34.5t98 -53t79 -73t52 -97t19 -121v-1066v-8v-36.5t-2.5 -40.5t-7 -45t-14 -44 t-22.5 -43.5t-34 -37t-47 -31t-63 -19.5t-81 -8q-88 0 -178 64q-51 33 -84 66l-103 -171l-126 174q-39 -39 -85 -66q-96 -64 -203 -64v70q69 0 186 75q16 10 32.5 22.5t37.5 30t32 26.5l126 -170l106 151q6 -9 14 -20.5t29.5 -33.5t46 -38.5t62 -29.5t76.5 -13 q199 0 199 211v1032q0 394 -490 394q-151 0 -283 -120q-57 -52 -105 -117l180 -157q-11 -20 -27 -57q-26 -89 -26 -196v-410q0 -58 -10 -96t-30 -57t-43.5 -26t-58.5 -7h-85z" />
<glyph unicode="&#xe10;" horiz-adv-x="1216" d="M69 1075q35 72 91 120q66 54 151.5 87t212.5 33q132 0 237 -38q6 1 19 5q28 8 44.5 13t47.5 16t51 20t45.5 24t40 30.5t25 35.5t10.5 42h103q0 -31 -8 -56.5t-20 -43.5t-32 -34t-38.5 -26t-46 -19.5t-47 -15t-49 -13t-45.5 -12.5q136 -95 209.5 -239t73.5 -329 q0 -67 -8 -133.5t-27 -133.5t-47 -126.5t-70 -111.5t-93.5 -89.5t-120 -59t-147.5 -21.5h-164l-130 521q-4 12 -12 17.5t-14.5 6t-22 -1t-23.5 -1.5h-51v72h111q66 0 75 -16q1 -2 0 -2q-3 0 -3 9l160 -536q70 0 130 15t106 42.5t84 63.5t64.5 81.5t46 94t31 102t17 104 t5.5 103.5q0 132 -42 241.5t-114 180.5t-165 110t-196 39q-189 0 -316 -139q-58 -62 -97 -138zM97 -587q113 0 206 70q37 32 70 69l106 -154l108 154q0 -4 10 -18t30.5 -34.5t46.5 -40t62.5 -33t73.5 -13.5q27 0 50 4t39 10.5t29 16.5t21.5 19t14.5 22.5t8.5 23t4 23t1.5 20 v17.5v12v116h103v-107l3 -31q0 -114 -77 -172q-61 -46 -165 -46q-121 0 -195 63q-34 29 -57 66l-111 -174l-106 180q-16 -30 -54 -69q-78 -66 -222 -66v72z" />
<glyph unicode="&#xe11;" horiz-adv-x="1295" d="M69 1261v70q30 0 79 -31l48 -30q28 22 41 30q49 31 94 31q34 0 71 -13t68.5 -34t51.5 -53t20 -67q41 46 89 76q118 75 224 75q74 0 139 -37t108 -98t68 -139.5t25 -161.5v-879h-100v785q0 191 -72.5 308t-192.5 117q-71 0 -138.5 -36.5t-121 -96.5t-101 -137 t-81.5 -158.5t-58.5 -160t-37 -142t-12.5 -103.5v-23v-28v-325h-100v300q0 128 24.5 247.5t59 205t69 155.5t59 124.5t24.5 87.5q0 41 -20 70t-47 41t-56 12q-35 0 -79 -39q-15 -9 -43 -37q-31 39 -35 47q-2 1 -9.5 8.5l-10 10t-9 8.5t-10 8.5t-9 6t-10 4.5t-9.5 1z" />
<glyph unicode="&#xe12;" horiz-adv-x="2083" d="M69 659q0 145 21 258.5t56.5 188t86.5 123t108.5 69t125.5 20.5q32 0 95 -63q22 -18 63 -60q23 23 66 60q28 28 55 45.5t42 17.5q166 0 262.5 -106t96.5 -276v-705q53 -53 102 -80q130 -76 280 -76q67 0 119 11.5t87.5 29t60 49t38.5 62.5t21.5 80.5t9 90.5t1.5 104v782 h102v-877q0 -69 -11.5 -130t-39.5 -118t-70 -97.5t-107 -65t-148 -24.5q-207 0 -340 88q-67 40 -105 88v-148h-100v936q0 56 -14.5 109.5t-42.5 98t-74.5 72t-105.5 27.5q-45 0 -115 -88q-45 -51 -70 -86q-18 26 -71 86q-70 88 -115 88q-30 0 -60.5 -15t-61 -44.5t-56.5 -78 t-46.5 -111t-32 -149t-11.5 -186.5q0 -303 100.5 -460t290.5 -157q66 0 72 3q10 4 10 6v-69q0 -3 -13 -7q-9 -3 -69 -3q-84 0 -155.5 26t-125 73.5t-94.5 111t-66.5 140.5t-38.5 161.5t-13 174.5z" />
<glyph unicode="&#xe13;" horiz-adv-x="2083" d="M69 1006q40 81 114 155q154 154 391 154q88 0 169.5 -14.5t155 -46t127.5 -78t86 -114.5t32 -150v-410q0 -43 1 -73.5t3.5 -67.5t8 -63.5t13.5 -55.5t21 -49.5t30 -41.5t40.5 -34t53 -24t66.5 -16t82 -5q161 0 297 79q38 21 103 80v1053h102v-1284h-102v154 q-60 -61 -115 -91q-150 -91 -351 -91q-76 0 -137 24.5t-100.5 65t-66 97t-38 118t-11.5 130.5v442q0 67 -15 123.5t-41 96.5t-63 71t-77.5 50t-89 31t-93.5 17t-94 5q-149 0 -294 -120q-10 -9 -20.5 -19.5t-17.5 -17t-19.5 -20.5t-16 -18.5t-18.5 -22t-17 -19.5l185 -157 q-11 -11 -28 -51q-25 -77 -25 -202v-464q0 -6 -0.5 -16t-0.5 -15.5t0.5 -12t3 -9.5t8 -6t14.5 -4h94v-69h-126q-24 0 -41 4.5t-28 11t-18.5 19t-10.5 23.5t-4 28.5t-0.5 30.5t1 34.5t0.5 34.5v410q0 111 34 186q17 43 36 67q-23 16 -57.5 44.5t-41.5 33.5q-94 76 -94 79z " />
<glyph unicode="&#xe14;" horiz-adv-x="1264" d="M69 659q0 105 18 195t49 156t74 119t91.5 87.5t104.5 57t110 32t109 9.5q78 0 148.5 -11t140 -40t120.5 -73.5t82 -116t31 -162.5v-912h-100v936q0 67 -35.5 125t-94 97.5t-135 62t-157.5 22.5q-71 0 -138 -25t-124 -74.5t-100 -118.5t-67.5 -163.5t-24.5 -202.5 q0 -297 98.5 -457t292.5 -160q60 0 69 3q13 4 13 6v-73q-3 -3 -13 -3q-6 -3 -63 -3q-104 0 -194.5 46t-158.5 131.5t-107 216.5t-39 293z" />
<glyph unicode="&#xe15;" horiz-adv-x="1264" d="M69 659q0 145 21 258.5t56.5 188t86.5 123t108.5 69t125.5 20.5q64 0 114 -63q32 -39 44 -60q27 38 50 60q32 32 56.5 47.5t56.5 15.5q65 0 129.5 -29t115.5 -78.5t82.5 -122t31.5 -152.5v-936h-100v936q0 70 -30.5 140.5t-85 118.5t-115.5 48q-51 0 -121 -88 q-45 -51 -70 -86q-18 26 -71 86q-70 88 -115 88q-26 0 -52 -10.5t-52 -33.5t-49.5 -56t-44 -80.5t-35.5 -105.5t-23.5 -133.5t-8.5 -161.5q0 -99 11.5 -186t40 -168.5t71.5 -139t111 -92t154 -34.5q66 0 72 3q10 4 10 6v-69q-2 -2 -3.5 -2.5t-4 -1.5t-5.5 -3q-6 -3 -50 -3 q-87 0 -160.5 24t-129.5 68.5t-98.5 106.5t-69.5 139t-40.5 164.5t-13.5 184.5z" />
<glyph unicode="&#xe16;" horiz-adv-x="1264" d="M69 1006q43 87 111 155q160 154 377 154q58 0 113.5 -5.5t114.5 -19t110.5 -34.5t98 -53t79.5 -73t52 -97t19 -121v-758q0 -66 -46 -119q-17 -17 -48 -35h-9v849q0 70 -17 128.5t-45.5 98.5t-68.5 70.5t-82 48.5t-92 29t-92 15t-87 4q-147 0 -292 -120q-63 -54 -117 -117 l186 -157q-7 -11 -18 -51q-16 -64 -16 -202v-464v-9.5v-10v-8.5t0.5 -8t1.5 -7t2.5 -6.5t4 -5t5.5 -4t7.5 -2.5t9.5 -2h88v-69h-66q-92 -7 -126.5 36t-34.5 150v410q0 111 34 186q17 43 36 67q-23 16 -57.5 44.5t-41.5 33.5q-94 76 -94 79z" />
<glyph unicode="&#xe17;" horiz-adv-x="1248" d="M117 0v1284h100v-152q50 50 133 92q161 91 372 91q83 0 152.5 -26t116 -69t79 -100t47.5 -117.5t15 -123.5v-879h-100v785q0 118 -25 200t-75 131.5t-120.5 71.5t-167.5 22q-159 0 -307 -75q-62 -30 -120 -75l3 -1060h-103z" />
<glyph unicode="&#xe18;" horiz-adv-x="1248" d="M117 1009q0 58 21.5 106t56 79.5t82.5 56t95 37.5t100.5 21t92 10t76.5 2q118 0 305 -57q65 -18 155 -57v-63q-81 28 -162 51q-187 51 -298 51q-37 0 -64.5 -1t-74.5 -6t-82 -13.5t-75.5 -26.5t-66.5 -42t-43.5 -62.5t-17.5 -85.5q0 -55 22.5 -94t50.5 -60t86.5 -35 t97.5 -18t117 -9q73 -5 111 -9t105 -16t104.5 -28.5t85.5 -49t73 -75.5t43.5 -108.5t18.5 -147.5q0 -61 -14.5 -114.5t-51 -104.5t-92.5 -87.5t-145 -58.5t-204 -22h-13q-35 0 -59 0.5t-76 7.5t-90 20.5t-85.5 43.5t-78 71.5t-51.5 108.5t-21 152v274h98v-274 q0 -334 392 -334q76 0 141.5 19t110.5 51t77 73t47 84.5t15 86.5q0 54 -10 99.5t-24 79t-41.5 61.5t-50.5 46t-64 33t-68.5 23t-77 15t-77 10t-81.5 7q-48 5 -72 7t-67.5 8t-66.5 12t-57.5 17.5t-53.5 25t-42 33.5t-34.5 45t-19.5 58t-8 73z" />
<glyph unicode="&#xe19;" horiz-adv-x="1248" d="M117 403v897h100v-783q0 -60 3 -104.5t13 -93.5t27.5 -83.5t47.5 -67t72 -52.5t103 -32t138 -12q149 0 291 76q54 28 120 75l-3 1077h103v-1300h-100v151q-55 -55 -130 -91q-155 -88 -366 -88q-83 0 -153 25.5t-118.5 68.5t-82.5 99t-49.5 116.5t-15.5 121.5z" />
<glyph unicode="&#xe1a;" horiz-adv-x="1216" d="M117 430v854h100v-868q0 -46 8.5 -93t32 -98.5t59 -91.5t94.5 -65.5t134 -25.5h133q49 0 92 13.5t75 36t58.5 53.5t44 65t29.5 71t17 70.5t5 64.5v868h102v-854q0 -73 -15.5 -140t-48 -125t-78 -101t-109.5 -67.5t-140 -24.5h-222q-73 0 -134 24.5t-104.5 67.5t-73.5 101 t-44.5 125t-14.5 140z" />
<glyph unicode="&#xe1b;" horiz-adv-x="1216" d="M117 430v854h100v-868q0 -46 8.5 -93t31.5 -98.5t57.5 -91.5t92 -65.5t129.5 -25.5h132q70 0 128 25.5t94.5 65.5t62 91t36 99.5t10.5 92.5v1278h102v-1264q0 -73 -16 -140.5t-48.5 -125t-77 -100.5t-105.5 -67.5t-132 -24.5h-220q-78 0 -142.5 24.5t-109 67.5t-75 101 t-44.5 124.5t-14 140.5z" />
<glyph unicode="&#xe1c;" horiz-adv-x="1487" d="M116 1073.5q0 16.5 2.5 45.5t7.5 49t16.5 43.5t27 38t41 24.5t57.5 10h99v-70l-74 -4q-28 0 -46.5 -24.5t-26 -64t-10 -67.5t-2.5 -55q-12 -238 82 -551q34 -128 92 -271l334 765h25l319 -765q44 96 87 259q93 350 120 848h105q-51 -551 -162 -950q-60 -221 -103 -334 h-72l-313 770l-312 -770h-70q-59 150 -114 325q-109 350 -109 678q0 4 -0.5 29t-0.5 41.5z" />
<glyph unicode="&#xe1d;" horiz-adv-x="1487" d="M116 1057.5q0 12.5 1.5 35t4 38.5t8 37t13 36.5t19.5 31.5t27.5 26t37 16t47.5 6h96v-70l-77 -4q-82 0 -82 -214q0 -259 86 -548q44 -163 88 -271l331 765h25l319 -765q60 164 107 404q107 522 107 1159h101q0 -653 -135 -1273q-59 -270 -133 -467h-69l-313 785 l-312 -785h-73q-59 150 -114 325q-109 350 -109 678q0 4 -0.5 23t-0.5 31.5z" />
<glyph unicode="&#xe1e;" horiz-adv-x="1556" d="M22 1284h89l299 -1028l318 1028h76l312 -1028l304 1028h91l-364 -1284h-34l-346 1141l-348 -1141h-34z" />
<glyph unicode="&#xe1f;" horiz-adv-x="1683" d="M22 1284h89l299 -1028l318 1028h76l312 -1028l436 1484h88l-493 -1740h-34l-346 1155l-348 -1155h-34z" />
<glyph unicode="&#xe20;" horiz-adv-x="1264" d="M63 3v69h94q16 2 23 10t8.5 17t0.5 29v8l3 460q0 111 34 186q17 43 36 67q-23 16 -57.5 44.5t-41.5 33.5q-94 76 -94 79q40 81 114 155q161 154 391 154q52 0 104.5 -5.5t109.5 -19t107.5 -34.5t97 -53.5t79.5 -73t52.5 -96.5t19.5 -121v-758q0 -66 -46 -119 q-17 -17 -48 -35h-9v849q0 70 -16.5 127.5t-43.5 97.5t-65.5 71t-79 49t-88.5 29.5t-89 15.5t-85 4q-164 0 -309 -120q-55 -47 -102 -117l187 -157q-14 -18 -31 -57q-29 -79 -29 -196v-410q0 -61 -6.5 -96t-26 -55t-47 -26t-78.5 -6h-69z" />
<glyph unicode="&#xe21;" horiz-adv-x="1248" d="M117 0v1284h100v-1025q68 -73 126 -111q155 -106 310 -106q199 0 289 103t90 337v802h100v-877q0 -90 -28.5 -168.5t-81 -138t-132.5 -94t-177 -34.5q-205 0 -367 91q-74 36 -129 91v-154h-100z" />
<glyph unicode="&#xe22;" horiz-adv-x="1168" d="M69 359q0 186 142 303q62 53 142 76q-61 11 -127 54q-124 94 -124 246q0 67 20 118.5t50 80.5t70 47.5t74 24.5t69 6q71 0 136 -9q4 -1 14 -3t13 -3v-63q-12 0 -24 3q-4 0 -47.5 1.5t-88.5 1.5q-46 0 -83 -19.5t-59 -50.5t-33 -66t-11 -69q0 -51 26 -98.5t71 -83.5 t110.5 -58t138.5 -22v-75q-63 0 -119.5 -17.5t-96.5 -47t-71.5 -65.5t-50.5 -74.5t-29 -73.5t-10 -64q0 -36 3.5 -66.5t14 -64t28.5 -59.5t48.5 -50.5t71 -41t99.5 -26t132 -9.5q58 0 107.5 10t86 28.5t66.5 42.5t50.5 53.5t35 59.5t22.5 63t12 61t4 56v868h101v-854 q0 -74 -16.5 -140t-54 -125t-93 -101t-138 -67t-183.5 -25q-137 0 -234.5 26t-155 77t-83.5 120.5t-26 163.5z" />
<glyph unicode="&#xe23;" horiz-adv-x="1027" d="M117 72v108q58 -40 114 -69q142 -69 280 -69q70 0 123.5 19.5t86 50.5t53.5 74t28.5 85t7.5 88q0 42 -10 77t-24 59.5t-42 46t-49 34.5t-61.5 27t-64.5 20.5t-71 18.5q-51 14 -78 21.5t-73.5 24.5t-71.5 33t-57.5 43.5t-49.5 60t-29 79t-12 102.5q0 62 24.5 115t64.5 88 t92 59.5t105 35.5t105 11q135 0 259 -51q45 -19 82 -50v-85q-43 37 -88 57q-124 57 -256 57q-49 0 -98.5 -15t-92.5 -42t-70 -72t-27 -99q0 -68 24 -117.5t64 -79t92 -50t109.5 -36t115.5 -32t110 -42t92 -62t64 -96.5t24 -141q0 -47 -5 -86.5t-17.5 -80t-32.5 -72 t-53.5 -60t-77.5 -47.5t-106 -30t-138 -11q-142 0 -268 50q-52 20 -97 50z" />
<glyph unicode="&#xe24;" horiz-adv-x="1264" d="M69 1006q43 87 111 155q160 154 385 154q57 0 112 -5.5t113 -19t109 -34.5t96.5 -53t78 -73t51.5 -97t19 -121v-1417q0 -67 -46 -120q-13 -13 -48 -34h-9v1508q0 68 -16 124.5t-43 96.5t-65 71t-79 50t-88.5 31t-89.5 16.5t-86 4.5q-167 0 -312 -120q-52 -45 -114 -117 l189 -157q-7 -11 -18 -51q-19 -77 -19 -202v-464v-9.5v-10v-8.5t0.5 -8t1.5 -7t2.5 -6.5t4 -5t5.5 -4t7.5 -2.5t9.5 -2h88v-69h-82q-57 0 -87 16t-44 55.5t-14 114.5v410q0 111 34 186q17 43 36 67q-23 16 -57.5 44.5t-41.5 33.5q-94 76 -94 79z" />
<glyph unicode="&#xe25;" horiz-adv-x="1138" d="M69 313q0 66 15.5 120t41.5 93t65 68.5t82 47.5t96 29.5t103.5 15.5t108.5 4q181 0 277 47q44 19 63 47v82q0 54 -11 105.5t-36.5 101.5t-63.5 88t-97 61t-132 23q-178 0 -328 -126q-65 -56 -117 -127l-31 79q62 78 118 120q161 123 358 123q222 0 332 -120t110 -379 v-816h-102v691q-33 -27 -76 -44q-103 -42 -264 -42q-36 0 -77 -6t-88 -19t-90 -36.5t-78 -54.5t-56 -76.5t-21 -99.5q0 -59 18.5 -106t48 -77t68.5 -50.5t78.5 -29t79.5 -8.5q72 0 93 3q17 0 24 3v-63q-5 -2 -15 -3.5t-15 -3.5q-43 -6 -72 -6q-215 0 -312.5 80.5 t-97.5 260.5z" />
<glyph unicode="&#xe26;" horiz-adv-x="1264" d="M63 0v72h94q16 2 23 10t8.5 17t0.5 29v8l3 460q0 111 34 186q17 43 36 67q-23 16 -57.5 44.5t-41.5 33.5q-94 76 -94 79q46 83 117 155q161 154 371 154q64 0 122.5 -5.5t118 -19t110 -34.5t95 -53t75.5 -73t48.5 -96.5t17.5 -121.5v-1417q0 -67 -46 -120 q-13 -13 -48 -34h-9v1508q0 74 -17.5 134t-46 100.5t-70 70.5t-83 46.5t-93.5 26.5t-92.5 13t-87.5 3q-144 0 -289 -120q-52 -45 -114 -117l186 -157q-10 -17 -21 -57q-23 -78 -23 -196v-410q0 -60 -7.5 -96.5t-26.5 -57t-45.5 -27t-71.5 -5.5h-76z" />
<glyph unicode="&#xe27;" horiz-adv-x="1119" d="M69 88l28 72q40 -39 83 -58q102 -60 274 -60q95 0 175 30.5t137.5 85.5t98.5 130.5t61 165.5t20 190q0 123 -33 226.5t-94.5 179.5t-155 118t-209.5 42q-142 0 -271 -46q-38 -16 -81 -48l-33 79q14 33 67 60q116 60 328 60q96 0 182 -25.5t160.5 -79.5t128.5 -132 t84.5 -189t30.5 -245t-31.5 -245.5t-87 -189.5t-131 -132t-163 -79.5t-183.5 -25.5q-214 0 -322 56q-47 24 -63 60z" />
<glyph unicode="&#xe28;" horiz-adv-x="1279" d="M117 0v912q0 77 28.5 143t79 113.5t118.5 81t147 49.5t166 16q60 0 99.5 -4.5t83.5 -19.5q27 9 39 14t40 17t43 21t36.5 23.5t33 28t20.5 31.5t9 37h104q0 -25 -6 -46.5t-14.5 -37.5t-24.5 -31t-29 -24.5t-35 -20.5t-36.5 -17t-39 -16t-37.5 -15q52 -30 88 -58.5 t68.5 -69t49 -94.5t16.5 -121v-912h-101v912q0 65 -24.5 120.5t-64.5 93.5t-93 65t-110 39.5t-115 12.5q-49 0 -98 -7.5t-99 -23t-92 -42t-75.5 -62t-52.5 -86t-19 -110.5v-455q5 8 11 16t11 14l12.5 15t11.5 13t13.5 14t12.5 12.5t14 13.5l13 13q122 110 246 110v-104 q-101 0 -234 -95q-71 -52 -111 -91v-388h-103z" />
<glyph unicode="&#xe29;" horiz-adv-x="1216" d="M117 430v854h100v-881q0 -42 9 -87t32 -95.5t57 -89t90.5 -64t127.5 -25.5h132q69 0 127 25.5t96 66t64.5 91t38.5 99t12 92.5l-4 252h-283v117h283v492h102v-492h94v-117h-91l3 -238q0 -59 -13.5 -119.5t-44.5 -122t-76 -109t-114 -77.5t-152 -30h-222q-82 0 -147.5 29 t-106 74.5t-67 107.5t-37 122.5t-10.5 124.5z" />
<glyph unicode="&#xe2a;" horiz-adv-x="1138" d="M69 313q0 378 536 378q184 0 262 47q33 19 48 47v82q0 55 -9.5 105.5t-34 101.5t-61.5 88t-97 60.5t-135 23.5q-181 0 -332 -126q-64 -56 -117 -127l-32 82q55 70 123 120q170 120 358 120q43 0 90 -9q98 19 172.5 65t74.5 92h91q0 -40 -15.5 -71.5t-46.5 -54t-66 -38.5 t-86 -32q116 -66 169.5 -179t53.5 -272l4 -816h-104v691q-31 -30 -60 -41q-92 -42 -250 -42q-28 0 -58.5 -2.5t-68 -8t-72.5 -16.5t-71 -26t-65.5 -38t-52.5 -51.5t-36 -68t-13 -84.5q0 -59 18 -106t46.5 -77t67 -50.5t78 -29t79.5 -8.5q73 0 94 3q20 0 27 3l-4 -57 q-9 -5 -23 -9q-23 -10 -91 -10q-209 0 -300 83t-91 258z" />
<glyph unicode="&#xe2b;" horiz-adv-x="1185" d="M117 0v1284h100v-666l662 666h127l-413 -417q41 -9 79.5 -20t88 -32.5t90.5 -48t83 -68t70.5 -90.5t46.5 -117.5t18 -147.5v-343h-100l3 300q0 83 -19.5 155t-49.5 121.5t-72 91t-81.5 66.5t-83 43.5t-72 26.5t-52.5 12l-325 -331l3 -485h-103z" />
<glyph unicode="&#xe2c;" horiz-adv-x="1683" d="M22 1284h89l299 -1044l318 1044h76l316 -1044l249 880q12 32 12 75q0 100 -107 171q-47 33 -104 51q101 21 193 66q195 102 195 257h82q0 -57 -15 -104t-43 -80.5t-56.5 -56t-65.5 -42.5q-83 -38 -176 -51q68 -26 116 -69q106 -94 72 -211q0 -1 -2 -9.5t-7 -21.5 l-316 -1095h-49l-331 1138l-331 -1138h-51z" />
<glyph unicode="&#xe2d;" horiz-adv-x="1248" d="M63 454v7v31.5t1 27.5t3.5 25t6.5 20t10 18t15.5 13.5t21.5 10.5t28.5 5t36.5 2h233v-72h-211q-29 -8 -37.5 -14.5t-10.5 -31.5q-7 -34 -5 -72t6.5 -76.5t21 -76t38 -71.5t58 -63t82 -50t109 -33t138.5 -12q99 0 178 31t131.5 85t88 131t51 165t15.5 190q0 80 -12.5 155 t-37 142t-63.5 122t-89 95t-116 62.5t-143 22.5q-229 0 -355 -145q-60 -64 -82 -142h-105q24 101 88 179q155 180 454 180q76 0 143 -15.5t120 -44.5t97.5 -68t77.5 -88t57.5 -103t40 -113t23 -118.5t7.5 -120.5q0 -142 -31.5 -257t-84.5 -191t-126 -127.5t-153.5 -74 t-170.5 -22.5q-76 0 -145 13t-130.5 38.5t-111 66t-86 92.5t-56 121.5t-19.5 150.5z" />
<glyph unicode="&#xe2e;" horiz-adv-x="1248" d="M63 454q0 43 3.5 70.5t11.5 46t23.5 27.5t35.5 12.5t52 3.5h230v-72h-211q-43 0 -48 -46q-5 -36 -2 -74t8 -77t21 -76.5t37.5 -71t58 -62t81 -49.5t107.5 -32.5t137 -11.5q100 0 179 31t132 85t87.5 131t50 164.5t15.5 190.5q0 97 -17.5 184.5t-54.5 163.5t-90.5 131.5 t-129 87.5t-166.5 32q-235 0 -361 -145q-55 -59 -79 -142h-105q24 101 88 179q155 180 457 180q76 0 147 -18q4 1 14 4q31 9 48.5 14.5t49.5 17t51 23t40 28t31.5 36.5t10.5 43h92q0 -28 -7 -52.5t-16.5 -42t-28 -33t-32.5 -25t-39.5 -20t-40 -15.5t-41.5 -14q-3 0 -4 -0.5 t-3 -1t-4 -1.5q78 -46 136.5 -118.5t92 -155.5t50 -168.5t16.5 -171.5q0 -142 -31.5 -257t-84.5 -191t-126 -127.5t-153.5 -74t-170.5 -22.5q-76 0 -145 13t-130.5 38.5t-111 66t-86 92.5t-56 121.5t-19.5 150.5z" />
<glyph unicode="&#xe2f;" horiz-adv-x="1138" d="M69 1284h105q15 -55 33 -97.5t44 -78.5t58 -59.5t75 -36.5t95 -13q102 0 189 32t150.5 97.5t87.5 155.5h109v-854q0 -26 1 -66t1.5 -65t-0.5 -60t-4.5 -57.5t-10 -50t-17.5 -45t-28.5 -35.5t-40 -28t-54 -16.5t-70.5 -6.5v72q15 0 24.5 1t21.5 3.5t19 8t15.5 15 t13.5 23.5t10.5 34.5t8.5 47t5.5 61t3.5 77.5t1 96v771q-41 -79 -99 -141q-132 -145 -314 -145q-379 0 -433 360z" />
<glyph unicode="&#xe30;" horiz-adv-x="711" d="M117 407v50h91v-120q0 -42 26 -58.5t106 -16.5h238l-30 -73h-217q-45 0 -75 4.5t-58.5 17t-44.5 36t-26 63.5t-10 97zM117 1101v57h91v-117q0 -42 26 -58.5t106 -16.5h238l-30 -73h-208q-23 0 -40.5 1t-38 3.5t-35.5 7t-30.5 12t-27 18.5t-21.5 26.5t-16.5 35.5t-10 46 t-3.5 58z" />
<glyph unicode="&#xe31;" d="M-728 1737v60h87v-123q0 -42 26.5 -58.5t106.5 -16.5h536l-25 -79h-508q-67 0 -110 12t-68 39.5t-35 66.5t-10 99z" />
<glyph unicode="&#xe32;" horiz-adv-x="979" d="M69 1138v76q33 27 79 50q105 51 234 51q42 0 86.5 -7t92 -24t91 -41.5t82.5 -62.5t67.5 -84.5t45.5 -110t17 -136.5v-849h-100v816q0 105 -33 187t-91 134t-135.5 79t-170.5 27q-48 0 -166 -54q-28 -14 -99 -51z" />
<glyph unicode="&#xe33;" horiz-adv-x="979" d="M-542 1737q0 87 63 150t154 63q85 0 148 -63.5t63 -149.5q0 -91 -62 -154t-149 -63q-92 0 -154.5 62.5t-62.5 154.5zM-467 1734q0 -59 41.5 -100.5t100.5 -41.5q57 0 101 42t44 100q0 57 -44 101.5t-101 44.5q-58 0 -100 -44t-42 -102zM69 1138v76q33 27 79 50 q105 51 234 51q42 0 86.5 -7t92 -24t91 -41.5t82.5 -62.5t67.5 -84.5t45.5 -110t17 -136.5v-849h-100v816q0 105 -33 187t-91 134t-135.5 79t-170.5 27q-48 0 -166 -54q-28 -14 -99 -51z" />
<glyph unicode="&#xe34;" d="M-959 1520l26 88h750v-88h-776z" />
<glyph unicode="&#xe35;" d="M-959 1520l26 82h650v195h100v-277h-776z" />
<glyph unicode="&#xe36;" d="M-959 1520l29 82h431q-2 7 -8 23.5t-7 23.5q-12 85 37.5 148t133.5 63q24 0 51.5 -10.5t52 -30.5t40.5 -53t16 -72q0 -45 -15.5 -83t-53 -64.5t-91.5 -26.5h-616zM-451 1688q0 -36 29.5 -66t65.5 -30q44 0 75.5 29.5t31.5 66.5q0 45 -31 75.5t-76 30.5q-37 0 -66 -31 t-29 -75z" />
<glyph unicode="&#xe37;" d="M-959 1520l26 82h409v195h102v-195h139v195h100v-277h-776z" />
<glyph unicode="&#xe38;" d="M-376 -234h111q70 0 110.5 -54t40.5 -131v-186h-103v217q0 30 -19.5 52.5t-49.5 22.5h-90v79z" />
<glyph unicode="&#xe39;" d="M-722 -234h91q49 0 83 -15.5t53 -46t27 -69.5t8 -92q0 -100 123 -100q120 0 120 103v220h103v-196q0 -50 -8.5 -84.5t-30.5 -63t-64.5 -42.5t-107.5 -14q-44 0 -80 5t-60.5 17t-43 24t-29.5 33.5t-17.5 36.5t-9 42.5t-3 42.5t-0.5 45t-19.5 52.5t-50.5 22.5h-84v79z" />
<glyph unicode="&#xe3a;" d="M-217 -234h103v-119h-103v119z" />
<glyph unicode="&#xe3f;" horiz-adv-x="1122" d="M117 0v1472h302v268h92l3 -268q190 0 294 -87t104 -238q0 -81 -35 -155t-99 -128.5t-147 -78.5q77 -13 144 -44.5t119 -78.5t82 -113t30 -142q0 -123 -63.5 -216t-175 -142t-256.5 -49v-262h-92v262h-302zM217 75h285q80 0 152.5 22.5t128.5 64t89.5 105t33.5 140.5 q0 83 -33 148t-92 107t-139 63.5t-175 21.5h-250v-672zM217 819h231q98 0 169.5 22.5t112.5 64t60.5 93.5t19.5 117q0 50 -8.5 89.5t-32 77t-61 62.5t-99 40t-142.5 15h-250v-581z" />
<glyph unicode="&#xe40;" horiz-adv-x="412" d="M117 186v1098h100v-1148v-8q0 -15 0.5 -22t3.5 -16t10 -13t18 -5h94v-72h-81q-47 0 -76 10.5t-44 36t-20 57t-5 82.5z" />
<glyph unicode="&#xe41;" horiz-adv-x="948" d="M117 186v1098h100v-1148v-8q0 -15 0.5 -22t3.5 -16t10 -13t18 -5h94v-72h-66q-94 0 -127 39.5t-33 146.5zM605 186v1098h102v-1148v-13v-12t0.5 -10t1.5 -9.5t3.5 -7t5.5 -6t8 -3.5t12 -3h95v-72h-69q-94 0 -126.5 39.5t-32.5 146.5z" />
<glyph unicode="&#xe42;" horiz-adv-x="579" d="M220 1740q0 48 8.5 83.5t29 63t51 45t77.5 28.5t106 15.5t139 4.5h196v-75h-243q-84 0 -134.5 -7.5t-79.5 -27.5t-38.5 -48t-9.5 -74q0 -38 10 -92t21.5 -104.5t21.5 -133.5t10 -172v-1110v-13v-12t0.5 -10t1.5 -9.5t3.5 -7t5.5 -6t8 -3.5t12 -3h95v-72h-66 q-40 0 -65.5 4t-45.5 15t-30.5 32.5t-15.5 53.5t-5 81v1060q0 90 -9.5 172t-21.5 131t-22 101.5t-10 89.5z" />
<glyph unicode="&#xe43;" horiz-adv-x="768" d="M0 1911q10 25 42 48q73 51 220 51q189 0 274 -90t85 -280q0 -62 -10 -115t-22 -88t-22 -105.5t-10 -164.5v-1038v-8q0 -14 0.5 -21t3.5 -16t10 -13t19 -5h94v-66h-76q-46 0 -72.5 6.5t-46.5 26.5t-27.5 56.5t-7.5 96.5v981q0 85 10.5 161t23 121t23 97t10.5 94 q0 55 -8.5 99t-22 74.5t-34.5 53t-43 35.5t-51 21t-55 10.5t-58 2.5q-95 0 -170 -53q-33 -23 -48 -53z" />
<glyph unicode="&#xe44;" horiz-adv-x="768" d="M0 1905v72q49 0 90 -9.5t65.5 -25t37.5 -27t21 -22.5q16 27 32 43q45 44 117 44q28 0 49.5 -6t37 -21.5t26.5 -30.5t17.5 -45.5t10.5 -52t5.5 -65t1.5 -69v-79.5v-12.5v-11.5v-13v-1442v-12v-12t0.5 -10t2 -9.5t3.5 -7t5.5 -6.5t8.5 -3.5t11 -2.5h96v-69h-81 q-42 0 -67.5 6.5t-45 26.5t-27 56.5t-7.5 96.5v1388q0 10 1 39q6 206 -26 267q-25 47 -72 25q-41 -18 -67 -69q-8 -15 -15 -48q-35 31 -77 57q-3 1 -8 5q-23 13 -36 20t-34 16.5t-39.5 14t-36.5 4.5z" />
<glyph unicode="&#xe45;" horiz-adv-x="979" d="M69 1138v76q30 25 76 50q105 51 222 51q45 0 91.5 -7t96 -23.5t94 -41.5t84 -63t68.5 -84.5t46 -110t17 -136.5v-1354q0 -66 -48 -120q-15 -16 -46 -34h-6v1475q0 205 -115 316t-315 111q-48 0 -166 -54q-28 -14 -99 -51z" />
<glyph unicode="&#xe46;" horiz-adv-x="1168" d="M69 975q0 164 73 252t198 88q10 0 20 -1.5t22 -6t19.5 -7t22 -10.5t19.5 -10.5t22 -12.5t20 -12q59 -44 77 -60q23 23 72 60q91 60 145 60q74 0 128 -26t85.5 -73.5t46 -107t14.5 -133.5v-1480q0 -66 -47 -120q-16 -16 -47 -34h-7v1571q0 43 -3 79t-10.5 75.5t-22.5 70 t-37 55t-55.5 38t-76.5 13.5q-14 0 -29 -6.5t-31.5 -19.5t-28.5 -24t-30 -29q-34 -34 -66 -75q-25 37 -63 75q-79 79 -123 79q-50 0 -90.5 -24t-64.5 -63t-37 -85.5t-13 -95.5q0 -109 40 -180q19 -34 45 -54l-36 -91q-44 19 -75 60q-76 94 -76 265z" />
<glyph unicode="&#xe47;" d="M-946 1706q0 45 12.5 80.5t30 57.5t44 37.5t46.5 23t47 11.5t36.5 4h22.5h253q114 0 174 20q25 11 34 19v-63q-7 -10 -34 -26q-49 -22 -174 -22h-221q-92 0 -133 -35.5t-41 -106.5q0 -17 4.5 -34t15.5 -35.5t34.5 -30t56.5 -11.5q28 0 50.5 7.5t34 16t25.5 21.5 q19 26 23 45h48q6 -33 15 -45q25 -45 85 -45q26 0 46 6t31.5 16t19 19.5t10 21.5t3.5 17t1 10h100q0 -79 -52.5 -122t-126.5 -43q-81 0 -114 12q-23 5 -42 17q-27 -13 -47 -17q-48 -12 -142 -12q-14 0 -31 4t-37 12.5t-39 23.5t-34.5 35t-25 48.5t-9.5 62.5z" />
<glyph unicode="&#xe48;" d="M-217 1520v277h103v-277h-103z" />
<glyph unicode="&#xe49;" d="M-807 1719v78h151q47 0 86.5 -42t39.5 -90q0 -18 8.5 -32.5t23 -22.5t31.5 -8h404l-28 -82h-405q-39 0 -71.5 14t-52 35t-29.5 43.5t-10 43.5q0 63 -57 63h-91z" />
<glyph unicode="&#xe4a;" d="M-792 1612q0 45 24.5 87t66.5 68.5t90 26.5q50 0 106 -28q25 -18 35 -29q23 22 34 29q43 31 108 31q74 0 115.5 -49t41.5 -114q0 -5 0.5 -9.5t1 -7.5t2 -5.5t2.5 -4t4 -3t3.5 -2t4.5 -0.5h5h6h6h73l-28 -82h-57q-57 0 -86 10.5t-37.5 29t-8.5 52.5q0 54 -21 74t-58 20 q-26 0 -47.5 -13.5t-33 -35t-11.5 -45.5h-40q0 36 -23 65t-67 29q-15 0 -32 -4t-36 -13t-30.5 -29t-11.5 -48q0 -32 20 -66q2 -3 4.5 -6.5t4.5 -6.5t4.5 -6.5t4.5 -6.5h-94q-16 10 -23 22q-22 25 -22 70z" />
<glyph unicode="&#xe4b;" d="M-376 1622v78h159v97h103v-97h156v-78h-156v-102h-103v102h-159z" />
<glyph unicode="&#xe4c;" d="M-460 1520v32q0 122 54.5 183.5t182.5 61.5h97l-25 -78h-57q-65 0 -108 -42.5t-43 -102.5v-54h-101z" />
<glyph unicode="&#xe4d;" d="M-542 1737q0 89 62.5 151t154.5 62q86 0 148.5 -62.5t62.5 -150.5q0 -60 -29 -109.5t-77 -77t-105 -27.5q-93 0 -155 61t-62 153zM-467 1734q0 -59 41.5 -100.5t100.5 -41.5q57 0 101 42t44 100q0 57 -44 101.5t-101 44.5q-58 0 -100 -44t-42 -102z" />
<glyph unicode="&#xe4e;" d="M-641.5 1584.5q-0.5 6.5 0 13t0.5 7.5q0 82 57 140t162 58q0 54 10 88t38.5 60.5t82 38.5t137.5 12v-75q-17 0 -40.5 1t-38 1.5t-33.5 -0.5t-30.5 -4.5t-24.5 -11t-21 -21t-15 -33t-10 -47.5t-3 -64q-178 0 -178 -120q0 -49 21 -79q16 -23 22 -29h-120q-6 13 -10 25.5 t-5 22.5t-1.5 16.5z" />
<glyph unicode="&#xe4f;" horiz-adv-x="1342" d="M117 533q0 67 14.5 130.5t42.5 119.5t66.5 105t87.5 87t104.5 66t119 42.5t129.5 14.5q116 0 221 -44t180 -119.5t119.5 -180.5t44.5 -221q0 -115 -44.5 -219t-119.5 -179t-180 -119t-221 -44t-220 44t-179.5 119t-120 179t-44.5 219zM259 533q0 -114 56.5 -211t154 -154 t211.5 -57q116 0 213.5 57t153.5 154t56 211q0 117 -56 214t-153.5 153t-213.5 56q-114 0 -211 -55.5t-154 -153.5t-57 -214zM394 533q0 120 83.5 203t203.5 83t204 -83t84 -203q0 -79 -38.5 -145t-104.5 -104t-145 -38q-120 0 -203.5 83.5t-83.5 203.5z" />
<glyph unicode="&#xe50;" horiz-adv-x="1252" d="M69 533q0 77 20 150t55 134.5t86.5 113.5t112.5 88t134.5 56t151 20t150.5 -20t134 -56t112 -88t86.5 -113.5t55 -134.5t19.5 -150t-19.5 -150t-54 -134.5t-85 -113t-111 -87.5t-133 -56t-149.5 -20q-115 0 -219.5 44t-180 119t-120.5 179t-45 219zM174 533 q0 -132 59.5 -243.5t163.5 -176.5t228 -65q74 0 143 24.5t124.5 69t97.5 104.5t65 134t23 153q0 99 -36 189t-96.5 155t-144.5 103.5t-176 38.5q-62 0 -121 -17.5t-108.5 -49t-90.5 -76t-70 -98t-45 -116.5t-16 -129z" />
<glyph unicode="&#xe51;" horiz-adv-x="1248" d="M69 647q0 64 23 128.5t69 122.5t109.5 102.5t150 71t184.5 26.5q89 0 171.5 -22.5t156 -71.5t128.5 -119.5t87 -173t32 -226.5q0 -72 -21 -145t-59.5 -141t-98 -127t-132.5 -103.5t-168 -69.5t-199 -25q-7 0 1 1h4l7 2h-3l22 75h12q99 0 196 43.5t171 115t120 171 t46 203.5q0 133 -37 237t-101.5 169t-149.5 98.5t-185 33.5q-73 0 -135.5 -16t-106 -41t-78.5 -59.5t-55.5 -69t-34.5 -71.5t-19 -66t-5 -53q0 -72 31 -145t85 -122t113 -49q60 0 100 16t57 43t17 64v60h101v-32q0 -44 -14.5 -82.5t-44.5 -72t-85.5 -52.5t-130.5 -19 q-66 0 -126 28.5t-105.5 78.5t-72.5 124t-27 160z" />
<glyph unicode="&#xe52;" horiz-adv-x="1580" d="M22 1652v73h47q65 0 115.5 -14.5t83 -35.5t56 -57.5t35 -68t18 -81t7.5 -81.5t1 -84v-1006q0 -225 302 -225h414q30 0 52.5 1.5t56.5 7t59 15.5t53 29.5t46 46.5t29.5 68.5t11.5 93.5v370q0 131 -54 201t-160 70q-75 0 -114 -63q-10 -16 -31 -63q-11 37 -27 63 q-39 63 -111 63q-56 0 -101.5 -20t-73 -58t-27.5 -87q0 -39 10 -71.5t26.5 -55.5t39 -41.5t46.5 -29.5t50.5 -18.5t49 -10t43.5 -2.5v-73q-22 0 -50.5 4t-66 15t-73.5 27t-72 42t-63 59t-43.5 80t-16.5 101q0 43 20 88t54.5 82.5t86.5 61.5t110 24q66 0 142 -26 q12 -6 50 -22q4 3 10.5 6t14.5 7.5t14 8.5q59 26 135 26q59 0 112 -32.5t90.5 -86t59.5 -124t22 -145.5v-341q0 -75 -16 -137t-43.5 -103.5t-61.5 -72t-74 -47t-76 -24t-73 -7.5h-502q-60 0 -113 10.5t-106.5 38t-91.5 70t-62 112.5t-24 160v949q0 32 -2 61t-9 64.5 t-17.5 64.5t-29.5 58t-44.5 48.5t-62 31.5t-81.5 12z" />
<glyph unicode="&#xe53;" horiz-adv-x="1563" d="M69 539q0 95 12 176t34.5 142t54 107t71.5 75.5t85 44t96 14.5q152 0 273 -126q50 -55 78 -123q29 68 79 123q107 126 268 126q83 0 150.5 -32.5t118.5 -98.5t78.5 -175t27.5 -253q0 -204 -69 -394q-30 -75 -66 -145h-114q43 61 72 136q73 185 73 403q0 92 -18 176 t-52.5 154t-92 112t-130.5 42q-37 0 -75.5 -19.5t-75.5 -59.5t-66 -96t-47 -135.5t-18 -170.5h-69q0 83 -17.5 159.5t-46.5 133.5t-65.5 100t-75.5 65.5t-75 22.5q-62 0 -116 -33.5t-95 -94.5t-64.5 -153t-23.5 -203q0 -59 10 -118t29 -115t49.5 -103.5t69 -83.5t89.5 -56.5 t109 -20.5q46 0 72 15q9 3 15 15v-87q-4 -2 -15 -3.5t-15 -3.5q-44 -6 -60 -6q-78 0 -148.5 29.5t-125.5 83t-95 124t-61.5 155.5t-21.5 175z" />
<glyph unicode="&#xe54;" horiz-adv-x="1516" d="M69 514q0 106 34 206.5t90.5 175.5t135 121t162.5 46h553q44 0 78 5t69 21t57.5 42t37 71.5t14.5 106.5v416l100 3l3 -334q0 -115 -25.5 -196.5t-75 -128t-114 -67.5t-150.5 -21h-565q-64 0 -121.5 -44.5t-96.5 -113t-61.5 -150t-22.5 -156.5q0 -72 17.5 -147 t49.5 -138.5t83.5 -103.5t111.5 -40l614 -13q-82 48 -145 114q-144 151 -144 347h106q0 -76 28.5 -149.5t73 -128.5t96 -98t99.5 -65.5t82 -22.5h157v-72h-918q-84 0 -153.5 29t-117 77.5t-80 115t-47.5 140t-15 152.5z" />
<glyph unicode="&#xe55;" horiz-adv-x="1516" d="M69 517q0 86 21 168t60.5 149.5t91.5 119t117.5 80.5t136.5 29h195q-26 60 -26 120q0 92 66.5 157.5t159 65.5t157.5 -65.5t65 -157.5q0 -58 -24 -130q23 0 45 4t46 12t44.5 24t37 37.5t26 54.5t9.5 73v467h100v-347q0 -113 -20 -192t-59 -123t-90 -63t-121 -19h-631 q-64 0 -122.5 -44.5t-98.5 -113t-63.5 -150t-23.5 -156.5q0 -44 5.5 -88t17 -88t28 -83.5t40.5 -73.5t53 -58.5t66 -39t79 -14.5h587q-85 49 -145 117q-146 153 -146 347h108q0 -76 26 -149.5t68.5 -129t94 -98t105.5 -65t100 -22.5h142v-72h-918q-84 0 -152.5 26.5t-116 73 t-79.5 112t-47 142t-15 163.5zM795 1195q0 -40 27.5 -67t67.5 -27h9q38 7 61.5 32t23.5 62q0 38 -28 67t-66 29q-40 0 -67.5 -28.5t-27.5 -67.5z" />
<glyph unicode="&#xe56;" horiz-adv-x="1737" d="M22 1652v76h66q52 0 98.5 -15.5t83.5 -42t71 -68t60 -86.5t51.5 -104.5t44.5 -115t41 -125.5t38.5 -129t38.5 -131.5t41 -128.5q37 77 105 154q149 156 349 156q168 0 295 -65.5t195 -185t68 -276.5q0 -102 -24.5 -193t-71.5 -164t-114 -126t-155.5 -81.5t-192.5 -28.5 q-93 0 -185.5 33t-170 101t-113.5 159h97q27 -67 94 -120t140.5 -78t137.5 -25q104 0 191 42t145 113.5t90 166.5t32 201q0 67 -17.5 132t-55 123.5t-90 102.5t-129 70t-166.5 26q-86 0 -157.5 -28t-121 -77.5t-82 -111t-48.5 -134.5h-120q-131 451 -146 499 q-83 263 -161 365q-86 111 -224 120h-28z" />
<glyph unicode="&#xe57;" horiz-adv-x="2052" d="M69 539q0 112 21.5 203t55.5 148.5t78.5 97t88.5 56t87 16.5q69 0 129 -24t97 -54.5t67 -69.5t41 -60.5t16 -35.5q0 6 12.5 30.5t40.5 61t66.5 70t99.5 58t129 24.5q46 0 90.5 -15.5t89.5 -54t78.5 -96t54.5 -149.5t21 -206q0 -82 -16.5 -178.5t-38 -170.5t-43.5 -127 q21 2 40.5 6t46 11.5t50 20t48 30t44 43.5t35.5 58t24.5 76t8.5 95v943v3q0 25 0.5 40.5t3 48.5t7.5 56t16 55.5t26 55t38.5 47.5t53.5 40.5t72 25.5t92 10h44v-76q-64 0 -111 -17t-73.5 -43t-42.5 -65t-21 -75.5t-5 -82.5v-950q0 -91 -21.5 -163.5t-57.5 -119.5t-85 -78.5 t-101 -44.5t-109 -13h-165q35 51 69 136q70 177 70 403q0 75 -8.5 139t-28 122t-49.5 99t-75.5 64.5t-103.5 23.5q-36 0 -76 -15t-79 -47t-70.5 -76t-51 -107.5t-19.5 -136.5h-38q0 79 -28.5 152t-72.5 122.5t-96 78.5t-99 29q-124 0 -194.5 -113t-70.5 -335 q0 -72 13 -141.5t41.5 -134.5t69.5 -114t102.5 -78t135.5 -29q50 0 66 12q3 1 5 3.5l4 5t3 3.5v-81q0 -2 -12 -7q-31 -6 -69 -6q-55 0 -110 17t-106 49t-95.5 81.5t-78 110.5t-52.5 141t-19 168z" />
<glyph unicode="&#xe58;" horiz-adv-x="1516" d="M69 539q0 77 20.5 151.5t63 142t103 118.5t147.5 81.5t190 30.5h445q44 0 78 4.5t69 20t57.5 41.5t37 71t14.5 106v419h103v-368q0 -129 -41.5 -213t-118 -122t-190.5 -38h-482q-78 0 -150.5 -33.5t-127 -92.5t-87 -144.5t-32.5 -183.5q0 -73 10.5 -141t34 -132 t58.5 -111t87.5 -75.5t117.5 -28.5q98 0 165 72q30 31 54 72q22 -33 72 -72q95 -72 259 -72q33 0 67 6t71.5 23t66 42.5t47.5 68t19 95.5v82h100v-82q0 -305 -371 -305q-164 0 -253 59q-37 18 -78 60q-29 -40 -57 -60q-69 -59 -196 -59q-50 0 -101.5 20.5t-100.5 66 t-86.5 110t-61 160.5t-23.5 210z" />
<glyph unicode="&#xe59;" horiz-adv-x="1863" d="M69 539q0 112 27 206.5t71.5 158.5t103 108.5t120 65t123.5 20.5q49 0 89 -8.5t74.5 -27.5t53.5 -32t51 -40q100 196 265 196q40 0 79.5 -16.5t70 -41.5t64.5 -54t63 -53.5t65 -41.5t71 -17q86 0 136 105.5t50 272.5v385h102v-385q0 -134 -30 -234.5t-92.5 -158 t-150.5 -57.5q-49 0 -91 11.5t-73 30.5t-58 42t-50.5 47t-46 44t-50 34t-56.5 17q-56 0 -103 -21.5t-74.5 -54t-42 -67t-14.5 -64.5q0 -27 3 -33l51 -172q10 -35 68 -249.5t125 -454.5h-85l-211 758q-75 268 -297 268q-51 0 -103 -34.5t-96 -95t-72 -154.5t-28 -203 q0 -72 11 -140.5t36.5 -134t64 -114.5t98 -78.5t133.5 -29.5q51 0 60 9q7 6 7 9v-78l-1 -1q-23 -9 -50 -9q-73 0 -140.5 24t-125.5 71.5t-101.5 114.5t-68.5 159t-25 198z" />
<glyph unicode="&#xe5a;" horiz-adv-x="1516" d="M69 1284h105q19 -71 42 -120t58.5 -88t87 -58t120.5 -19q101 0 187.5 32t149.5 97.5t87 155.5h109v-854q0 -69 -2.5 -119t-8.5 -97.5t-16.5 -79.5t-27 -59t-40.5 -42.5t-55.5 -24t-72.5 -8.5v72q27 0 44 5t34 23.5t25.5 54.5t14 98t5.5 154v803q-41 -79 -99 -141 q-132 -145 -305 -145q-386 -5 -442 360zM1230 0v1284h101v-1284h-101z" />
<glyph unicode="&#xe5b;" horiz-adv-x="2162" d="M117 514q0 125 40 234t108 186.5t162.5 122t200.5 44.5q268 0 404 -174q57 -80 75 -174h-98q-23 74 -70 133q-111 137 -311 137q-62 0 -119 -20.5t-101.5 -56t-80.5 -84.5t-60 -105t-37 -118t-13 -125q0 -71 17 -138.5t52 -127.5t84.5 -105.5t119 -71.5t151.5 -26 q144 0 261 69q45 27 82 69l163 -161l123 158l144 -158l124 152q34 -38 67 -66q74 -63 152 -63q29 0 53.5 6t41.5 15.5t31 23t22.5 27t14 27.5t8 25t2.5 20q0 68 -16 104q-1 4 -12 26h111q2 -6 15 -26q19 -44 19 -85v-4q0 -17 -0.5 -29t-5 -38t-13 -45.5t-26.5 -43.5t-43 -39 t-65 -26t-91 -11q-116 0 -195 59q-35 19 -76 60l-129 -154l-145 154l-123 -154l-163 154q-48 -42 -90 -60q-99 -59 -241 -59q-103 0 -199 41.5t-167.5 112.5t-114.5 172.5t-43 215.5z" />
<glyph unicode="&#x2000;" horiz-adv-x="1419" />
<glyph unicode="&#x2001;" horiz-adv-x="2838" />
<glyph unicode="&#x2002;" horiz-adv-x="1419" />
<glyph unicode="&#x2003;" horiz-adv-x="2838" />
<glyph unicode="&#x2004;" horiz-adv-x="946" />
<glyph unicode="&#x2005;" horiz-adv-x="709" />
<glyph unicode="&#x2006;" horiz-adv-x="473" />
<glyph unicode="&#x2007;" horiz-adv-x="473" />
<glyph unicode="&#x2008;" horiz-adv-x="354" />
<glyph unicode="&#x2009;" horiz-adv-x="567" />
<glyph unicode="&#x200a;" horiz-adv-x="157" />
<glyph unicode="&#x2010;" horiz-adv-x="759" d="M117 599v88h527v-88h-527z" />
<glyph unicode="&#x2011;" horiz-adv-x="759" d="M117 599v88h527v-88h-527z" />
<glyph unicode="&#x2012;" horiz-adv-x="759" d="M117 599v88h527v-88h-527z" />
<glyph unicode="&#x2013;" horiz-adv-x="1090" d="M117 599v88h858v-88h-858z" />
<glyph unicode="&#x2014;" horiz-adv-x="1689" d="M117 599v88h1457v-88h-1457z" />
<glyph unicode="&#x2018;" horiz-adv-x="334" d="M117 1135v156q0 95 94 214q38 48 99 97h36q-49 -77 -66 -113q-27 -49 -45 -104t-18 -94v-156h-100z" />
<glyph unicode="&#x2019;" horiz-adv-x="334" d="M-9 1135q6 12 20 36t24.5 42.5t18.5 35.5q63 112 63 199v154h100v-154q0 -58 -26 -110t-71 -108q-42 -53 -95 -95h-34z" />
<glyph unicode="&#x201c;" horiz-adv-x="680" d="M117 1135v156q0 95 94 214q38 48 99 97h63q-43 -59 -73 -113q-31 -51 -52.5 -105.5t-21.5 -92.5v-156h-109zM391 1135v156q0 103 88 214q34 49 89 97h63q-49 -77 -66 -113q-27 -49 -45 -104t-18 -94v-156h-111z" />
<glyph unicode="&#x201d;" horiz-adv-x="680" d="M-9 1135q6 12 20 36t24.5 42.5t18.5 35.5q63 112 63 199v154h109v-154q0 -107 -87 -218q-41 -58 -88 -95h-60zM246 1135l24 36t27.5 42.5t21.5 35.5q72 129 72 199v154h111v-154q0 -57 -26.5 -108.5t-72.5 -109.5q-44 -56 -93 -95h-64z" />
<glyph unicode="&#x2022;" horiz-adv-x="717" d="M117 650q0 68 34 125.5t91.5 90.5t124.5 33q105 0 178 -72.5t73 -176.5q0 -69 -33 -127t-91 -92t-127 -34q-67 0 -124.5 34t-91.5 92.5t-34 126.5z" />
<glyph unicode="&#x2026;" horiz-adv-x="1658" d="M117 0v120h100v-120h-100zM779 0v120h100v-120h-100zM1441 0v120h101v-120h-101z" />
<glyph unicode="&#x202f;" horiz-adv-x="567" />
<glyph unicode="&#x205f;" horiz-adv-x="709" />
<glyph unicode="&#x20ac;" horiz-adv-x="1499" d="M117 527v117h154l3 78q0 59 3 94h-160v117h173q19 120 78 225t149.5 183.5t216 124t269.5 45.5h15q53 0 87 -1t90.5 -5t102 -14.5t77.5 -27.5l-32 -79q-20 9 -39 16t-39 12t-35 8.5t-36.5 6t-34 3.5t-37 1.5t-35.5 0.5h-40.5h-40.5q-235 0 -398 -133t-223 -366h653v-117 h-659q-3 -35 -3 -94q0 -54 3 -78h596v-117h-593q20 -109 69 -196.5t125 -152t185.5 -99t244.5 -34.5q121 0 186.5 13.5t150.5 61.5l32 -82q-18 -10 -38 -19t-36.5 -15.5t-40 -11.5t-37.5 -8t-41 -5.5t-38 -3.5t-40.5 -2t-37 -1h-39.5h-37q-285 0 -463.5 145.5t-243.5 409.5 h-166z" />
<glyph unicode="&#x2122;" horiz-adv-x="1219" d="M117 1463v39h353v-39h-148v-482h-51v482h-154zM557 981v521h74l188 -446l207 446h63v-521h-39v457l-211 -457h-32l-202 457v-457h-48z" />
<glyph unicode="&#xe000;" horiz-adv-x="1056" d="M0 0v1056h1056v-1056h-1056z" />
<glyph horiz-adv-x="1014" />
<glyph horiz-adv-x="1216" d="M69 1075q35 72 91 120q66 54 151.5 87t212.5 33q132 0 237 -38q6 1 19 5q28 8 44.5 13t47.5 16t51 20t45.5 24t40 30.5t25 35.5t10.5 42h103q0 -31 -8 -56.5t-20 -43.5t-32 -34t-38.5 -26t-46 -19.5t-47 -15t-49 -13t-45.5 -12.5q136 -95 209.5 -239t73.5 -329 q0 -67 -8 -133.5t-27 -133.5t-47 -126.5t-70 -111.5t-93.5 -89.5t-120 -59t-147.5 -21.5h-164l-130 521q-4 12 -12 17.5t-14.5 6t-22 -1t-23.5 -1.5h-51v72h111q66 0 75 -16q1 -2 0 -2q-3 0 -3 9l160 -536q70 0 130 15t106 42.5t84 63.5t64.5 81.5t46 94t31 102t17 104 t5.5 103.5q0 132 -42 241.5t-114 180.5t-165 110t-196 39q-189 0 -316 -139q-58 -62 -97 -138z" />
<glyph horiz-adv-x="2083" d="M69 1006q40 81 114 155q161 154 395 154q41 0 82.5 -3.5t85.5 -11t85 -19.5t81.5 -30t74.5 -41t63.5 -53.5t50 -66.5t32 -81.5t11.5 -96.5v-496q0 -32 3.5 -64.5t12.5 -70t23 -71t37 -65t52.5 -54t71.5 -36t91 -13.5h133q69 0 123.5 26t86.5 65t53 91.5t28 99t7 92.5v868 h102v-854q0 -61 -9 -117.5t-27 -108t-47 -93.5t-66.5 -73t-88 -48.5t-108.5 -17.5h-253q-52 0 -96 11t-76 32t-57 47t-41 61t-27.5 70t-17 77.5t-8 79.5t-2.5 80v419q0 71 -17 130t-44.5 99.5t-67.5 70.5t-81.5 47.5t-91 28.5t-91 14.5t-86.5 3.5q-152 0 -297 -120 q-63 -54 -117 -117l186 -157q-7 -20 -18 -57q-19 -84 -19 -196l3 -464v-9.5v-10t0.5 -8.5t1 -8t1 -7t2.5 -6.5l4 -5t5 -4t7.5 -2.5t9.5 -2h85v-69h-94q-31 0 -52.5 7t-40 26t-27.5 57t-9 96v410q0 91 30 186q17 43 36 67q-23 16 -57.5 44.5t-41.5 33.5q-94 76 -94 79z" />
<glyph d="M-1003 1706q0 45 13 80.5t31 57.5t45 37.5t48.5 23t48 11.5t36 4h20.5h190q115 0 174 27q29 17 34 24l-4 -75q-3 -10 -30 -26q-49 -22 -174 -22h-157q-92 0 -133 -35.5t-41 -106.5v-7q-1 -17 -0.5 -26.5t4.5 -26.5t12 -26.5t23.5 -17t38.5 -7.5q61 0 86 45q13 17 13 45 h60q5 -28 18 -45q26 -45 76 -45q111 0 111 90h101q0 -68 -53.5 -116.5t-126.5 -48.5q-77 0 -114 12q-18 4 -45 17q-22 -15 -30 -17q-33 -12 -127 -12q-8 0 -23.5 5.5t-37.5 19.5t-41 34t-32.5 53.5t-13.5 73.5z" />
<glyph d="M-587 2215h162q47 0 86 -42.5t39 -90.5q0 -26 18 -44.5t45 -18.5h237l-25 -79h-258q-70 0 -114.5 41t-44.5 92q0 61 -57 61h-85z" />
<glyph d="M-713 2079q0 68 52.5 125t133.5 57q44 0 79 -28q4 -5 12.5 -14t13.5 -14q12 19 22 28q8 7 12.5 10t13.5 8t19.5 7.5t23.5 2.5q56 0 97.5 -22t61.5 -59t15 -83q-1 -5 -0.5 -9t0.5 -7.5t1.5 -6t2 -4t3 -2.5t3 -1.5t4.5 -1t5 -0.5h6h6l126 3l-25 -81h-111q-24 0 -43 4 t-31 9.5t-20.5 16.5t-13 19.5t-6.5 24t-2.5 25t-0.5 27.5q0 15 -6.5 26.5t-15.5 17.5t-19.5 10t-16 5t-8.5 1q-72 0 -72 -94h-63q0 32 -22 63t-48 31q-15 0 -28.5 -4t-28 -13.5t-22.5 -29t-8 -47.5q0 -38 24 -69q20 -20 25 -23h-113q-13 13 -20 23q-18 30 -18 69z" />
<glyph horiz-adv-x="2146" d="M69 1006q43 87 111 155q160 154 385 154q59 0 115 -6t115 -20.5t110 -36.5t97.5 -57t78.5 -79q6 19 19.5 41t42.5 51t67.5 52t99.5 39t131 16q46 0 92.5 -7t96 -23.5t94 -41.5t84.5 -63t69 -84.5t46 -110t17 -136.5v-1354q0 -66 -47 -120q-13 -13 -48 -34h-6v1475 q0 205 -115 316t-315 111q-55 0 -99.5 -15.5t-71.5 -38t-47 -55t-28.5 -59t-13 -58.5t-5 -45t-0.5 -27v-3v-1447q0 -67 -46 -120q-13 -13 -48 -34h-9v1508q0 68 -16 124.5t-43 96.5t-65 71t-79 50t-88.5 31t-89.5 16.5t-86 4.5q-167 0 -312 -120q-52 -45 -114 -117l189 -157 q1 0 -2 -6t-9 -24t-11.5 -44t-10 -73.5t-4.5 -105.5v-464q0 -20 5 -33.5t12 -20t20.5 -9t23.5 -2.5t28.5 1t29.5 1v-69h-82q-57 0 -87 16t-44 55.5t-14 114.5v410q0 111 34 186q17 43 36 67q-23 16 -57.5 44.5t-41.5 33.5q-94 76 -94 79z" />
<glyph horiz-adv-x="2146" d="M63 0v72h94q17 3 26.5 22.5t11 52t0.5 62.5t-3.5 70t-2.5 58l3 259q0 81 34 186q17 43 36 67q-23 16 -57.5 44.5t-41.5 33.5q-94 76 -94 79q46 83 117 155q161 154 371 154q82 0 155 -9.5t144 -31t129 -60t96 -91.5q8 18 21.5 38.5t44 49.5t68 50.5t97.5 37.5t129 16 q46 0 92.5 -7t96 -23.5t94 -41.5t84.5 -63t69 -84.5t46 -110t17 -136.5v-1354q0 -66 -47 -120q-13 -13 -48 -34h-6v1475q0 205 -115 316t-315 111q-43 0 -79.5 -9t-62 -23t-46 -36t-33.5 -42.5t-22 -48.5t-13 -48t-6.5 -46.5t-2.5 -39v-30.5v-8v-1417q0 -67 -46 -120 q-13 -13 -48 -34h-9v1508q0 74 -17.5 134t-46 100.5t-70 70.5t-83 46.5t-93.5 26.5t-92.5 13t-87.5 3q-144 0 -289 -120q-52 -45 -114 -117l186 -157q-10 -17 -21 -57q-23 -78 -23 -196v-410q0 -60 -7.5 -96.5t-26.5 -56.5t-45.5 -26.5t-71.5 -6.5h-76z" />
</font>
</defs>
</svg>
