<svg id="TYPE_D" data-name="TYPE D" xmlns="http://www.w3.org/2000/svg" viewBox="0 0 170.08 170.4"><defs><style>.cls-1{fill:#fff;}.cls-2{fill:#060001;}</style></defs><title>LINEat_icon_basic_RGB</title><rect class="cls-1" width="170.08" height="170.4" rx="39.68" ry="39.68"/><path class="cls-2" d="M590.17,409a3.76,3.76,0,0,0,0-7.53h-10.5v-6.74h10.5a3.76,3.76,0,0,0,0-7.53H575.89a3.76,3.76,0,0,0-3.76,3.76v28.54a3.77,3.77,0,0,0,3.76,3.77h14.28a3.77,3.77,0,0,0,0-7.53h-10.5V409h10.5Z" transform="translate(-481.08 -319.92)"/><path class="cls-2" d="M563.3,387.24a3.77,3.77,0,0,0-3.76,3.76v17.66l-14.63-19.91a3.78,3.78,0,0,0-3-1.51,3.7,3.7,0,0,0-1.2.19,3.76,3.76,0,0,0-2.57,3.57v28.54a3.77,3.77,0,1,0,7.53,0V401.89l14.63,19.92a3.79,3.79,0,0,0,3,1.51,3.65,3.65,0,0,0,1.2-.2,3.74,3.74,0,0,0,2.57-3.57V391a3.76,3.76,0,0,0-3.77-3.76" transform="translate(-481.08 -319.92)"/><path class="cls-2" d="M529,387.24a3.76,3.76,0,0,0-3.77,3.76v28.54a3.76,3.76,0,1,0,7.53,0V391a3.76,3.76,0,0,0-3.76-3.76" transform="translate(-481.08 -319.92)"/><path class="cls-2" d="M518,415.78h-10.5V391a3.77,3.77,0,0,0-7.53,0v28.54a3.77,3.77,0,0,0,3.77,3.77H518a3.77,3.77,0,0,0,0-7.53" transform="translate(-481.08 -319.92)"/><path class="cls-2" d="M616.75,423.17a18.11,18.11,0,1,1,18.12-18.11v2.5a6.84,6.84,0,1,1-13.68,0v-2.5a4.43,4.43,0,1,0-4.43,4.42,4.38,4.38,0,0,0,.89-0.09,2.46,2.46,0,1,1,1,4.82,10,10,0,0,1-1.88.19,9.35,9.35,0,1,1,9.34-9.34v2.5a1.93,1.93,0,0,0,3.86,0v-2.5a13.19,13.19,0,1,0-8.15,12.2h0a2.46,2.46,0,1,1,1.88,4.54,18,18,0,0,1-6.93,1.38h0Z" transform="translate(-481.08 -319.92)"/></svg>