<?xml version="1.0" encoding="utf-8"?>
<!-- Generator: Adobe Illustrator 19.2.1, SVG Export Plug-In . SVG Version: 6.00 Build 0)  -->
<svg version="1.1" id="Layer_1" xmlns="http://www.w3.org/2000/svg" xmlns:xlink="http://www.w3.org/1999/xlink" x="0px" y="0px"
	 viewBox="0 0 300 100" style="enable-background:new 0 0 300 100;" xml:space="preserve">
<style type="text/css">
	.st0{fill:#020202;}
</style>
<g>
	<g>
		<path class="st0" d="M191.3,57.2c3.8,0,6.8-3.1,6.8-6.8c0-3.8-3.1-6.8-6.8-6.8h-19V31.3h19c3.8,0,6.8-3.1,6.8-6.8
			c0-3.8-3.1-6.8-6.8-6.8h-25.9c-3.8,0-6.8,3.1-6.8,6.8v51.8c0,3.8,3.1,6.8,6.8,6.8h25.9c3.8,0,6.8-3.1,6.8-6.8
			c0-3.8-3.1-6.8-6.8-6.8h-19V57.2H191.3z"/>
		<path class="st0" d="M142.6,17.7c-3.8,0-6.8,3.1-6.8,6.8v32l-26.5-36.1c-1.3-1.7-3.3-2.7-5.5-2.7c-0.7,0-1.5,0.1-2.2,0.4
			C98.9,19,97,21.6,97,24.5v51.8c0,3.8,3.1,6.8,6.8,6.8c3.8,0,6.8-3.1,6.8-6.8v-32l26.5,36.1c1.3,1.7,3.3,2.7,5.5,2.7
			c0.7,0,1.5-0.1,2.2-0.4c2.8-0.9,4.7-3.5,4.7-6.5V24.5C149.5,20.7,146.4,17.7,142.6,17.7z"/>
		<path class="st0" d="M80.3,17.7c-3.8,0-6.8,3.1-6.8,6.8v51.8c0,3.8,3.1,6.8,6.8,6.8c3.8,0,6.8-3.1,6.8-6.8V24.5
			C87.2,20.7,84.1,17.7,80.3,17.7z"/>
		<path class="st0" d="M60.4,69.4H41.4V24.5c0-3.8-3.1-6.8-6.8-6.8c-3.8,0-6.8,3.1-6.8,6.8v51.8c0,3.8,3.1,6.8,6.8,6.8h25.9
			c3.8,0,6.8-3.1,6.8-6.8C67.2,72.5,64.2,69.4,60.4,69.4z"/>
	</g>
	<g>
		<path class="st0" d="M239.5,82.8c-18.1,0-32.8-14.7-32.8-32.8l0,0c0-18.1,14.7-32.8,32.8-32.8l0,0c18.1,0,32.8,14.7,32.8,32.8l0,0
			v4.5c0,6.9-5.6,12.4-12.4,12.4l0,0c-6.8,0-12.4-5.6-12.4-12.4l0,0V50c0-4.4-3.6-8-8-8l0,0c-4.4,0-8,3.6-8,8l0,0c0,4.4,3.6,8,8,8
			l0,0c0.6,0,1.1-0.1,1.6-0.2l0,0c2.4-0.5,4.8,1.1,5.3,3.5l0,0c0.5,2.4-1.1,4.8-3.5,5.3l0,0c-1.1,0.2-2.2,0.3-3.4,0.3l0,0
			c-9.4,0-16.9-7.6-16.9-16.9l0,0c0-9.4,7.6-16.9,16.9-16.9l0,0c9.4,0,16.9,7.6,16.9,16.9l0,0v4.5c0,1.9,1.6,3.5,3.5,3.5l0,0
			c1.9,0,3.5-1.6,3.5-3.5l0,0V50c0-13.2-10.7-23.9-23.9-23.9l0,0c-13.2,0-23.9,10.7-23.9,23.9l0,0c0,13.2,10.7,23.9,23.9,23.9l0,0
			c3.3,0,6.3-0.6,9.2-1.8l0,0v0c2.3-0.9,4.9,0.1,5.8,2.4l0,0c0.9,2.3-0.1,4.9-2.4,5.8l0,0C248.2,81.9,244,82.8,239.5,82.8
			L239.5,82.8C239.5,82.8,239.5,82.8,239.5,82.8L239.5,82.8z"/>
	</g>
</g>
</svg>
