<?xml version="1.0" encoding="utf-8"?>
<!-- Generator: Adobe Illustrator 16.0.0, SVG Export Plug-In . SVG Version: 6.00 Build 0)  -->
<!DOCTYPE svg PUBLIC "-//W3C//DTD SVG 1.1//EN" "http://www.w3.org/Graphics/SVG/1.1/DTD/svg11.dtd">
<svg version="1.1" id="Layer_1" xmlns="http://www.w3.org/2000/svg" xmlns:xlink="http://www.w3.org/1999/xlink" x="0px" y="0px"
	 width="260px" height="260px" viewBox="0 0 260 260" enable-background="new 0 0 260 260" xml:space="preserve">
<g>
	<defs>
		<rect id="SVGID_1_" width="260" height="260"/>
	</defs>
	<clipPath id="SVGID_2_">
		<use xlink:href="#SVGID_1_"  overflow="visible"/>
	</clipPath>
	<path clip-path="url(#SVGID_2_)" fill="#202A5A" d="M252.375,129.813c0,67.896-55.041,122.938-122.938,122.938
		C61.541,252.751,6.5,197.709,6.5,129.813C6.5,61.917,61.541,6.875,129.437,6.875C197.334,6.875,252.375,61.917,252.375,129.813"/>
	
		<circle clip-path="url(#SVGID_2_)" fill="none" stroke="#FEE36F" stroke-width="9" stroke-miterlimit="10" cx="129.438" cy="129.813" r="122.938"/>
</g>
<g>
	<defs>
		<rect id="SVGID_3_" width="260" height="260"/>
	</defs>
	<clipPath id="SVGID_4_">
		<use xlink:href="#SVGID_3_"  overflow="visible"/>
	</clipPath>
	<path clip-path="url(#SVGID_4_)" fill="#CCCCCC" d="M55.667,167c0,0-19.9-22.082,12.622-36.804c0,0-14.809-31.555,22.298-31.546
		c0,0-5.439-32.543,25.452-25.68c0,0-14.357-19.481,14.576-34.092c0,0,14.358-6.863,25.452,5.092c0,0-17.402,2.878-10.66,13.283
		c0,0,2.611,4.87,5.439,5.755c0,0,8.702,4.871-2.175,10.848c0,0,17.185-5.756,22.188,5.755c0,0,5.222,11.955-1.305,18.375
		c0,0,39.81-6.863,21.972,31.657c0,0,41.02,1.259,13.786,40.17C205.313,169.813,172.848,184.667,55.667,167"/>
	<path clip-path="url(#SVGID_4_)" fill="#FFFFFF" d="M138.222,37.208c0,0-3.862-0.408-10.42,3.374
		c-9.252,5.336-20.682,15.28-11.98,32.168c0,0,23.35,33.649,53.661,25.458c0,0,6.019-6.347,1.958-16.825
		c0,0-2.394-12.913-21.973-7.822c0,0-11.24,2.288-17.983-12.102C131.484,61.458,125.169,48.83,138.222,37.208"/>
	<path clip-path="url(#SVGID_4_)" fill="#FFFFFF" d="M90.514,98.65c0,0-35.264-1.838-22.225,31.546c0,0,33.557,35.988,88.378,40.637
		c0,0,45.255,0.086,48.083-1.021c0,0,30.502-34.636-12.789-40.169C191.961,129.643,119.56,144.077,90.514,98.65"/>
</g>
<g>
	<defs>
		<path id="SVGID_5_" d="M164.034,106.231c-0.519,2.36,2.447,5.014,6.62,5.929c4.174,0.914,7.975-0.259,8.493-2.619
			c0.516-2.36-2.447-5.015-6.621-5.929c-0.962-0.21-1.904-0.31-2.791-0.31C166.775,103.302,164.432,104.415,164.034,106.231"/>
	</defs>
	<clipPath id="SVGID_6_">
		<use xlink:href="#SVGID_5_"  overflow="visible"/>
	</clipPath>
	
		<linearGradient id="SVGID_7_" gradientUnits="userSpaceOnUse" x1="0" y1="260" x2="1" y2="260" gradientTransform="matrix(0 -9.1684 -9.1684 0 2555.3577 112.4688)">
		<stop  offset="0" style="stop-color:#CDCCCC"/>
		<stop  offset="0.4749" style="stop-color:#BEBEC0"/>
		<stop  offset="1" style="stop-color:#BCBEC0"/>
	</linearGradient>
	<rect x="163.516" y="103.302" clip-path="url(#SVGID_6_)" fill="url(#SVGID_7_)" width="16.147" height="9.772"/>
</g>
<g>
	<defs>
		<rect id="SVGID_8_" width="260" height="260"/>
	</defs>
	<clipPath id="SVGID_9_">
		<use xlink:href="#SVGID_8_"  overflow="visible"/>
	</clipPath>
	<path clip-path="url(#SVGID_9_)" fill="#FEE36F" d="M166.694,106.832c0,0,0.993,2.005,3.848,2.719c3.792,0.949,5.771,0,5.771,0
		l16.686-59.02l-9.619-2.719L166.694,106.832z"/>
	<path clip-path="url(#SVGID_9_)" fill="#F9A15F" d="M54.715,165.018c0,0,68.619,18.697,153.191,0.787c0,0,5.046,1.978,4.752,14.046
		c0,0,1.171,8.774-5.558,14.261c0,0-52.128,18.802-147.82,1.531c0,0-9.694-3.176-9.694-15.976
		C49.587,179.667,50.474,164.833,54.715,165.018"/>
	<path clip-path="url(#SVGID_9_)" fill="#FCD5B1" d="M69.086,168.076c0,0-3.122,8.562,1.631,29.495l2.564,0.395l1.036,0.155
		l1.327,0.196l1.563,0.226l1.414,0.199l1.852,0.255l2.167,0.289l3.846,0.487c0,0-5.664-22.965-2.007-29.364L69.086,168.076z"/>
	<path clip-path="url(#SVGID_9_)" fill="#FCD5B1" d="M103.563,172.438c0,0-2.732,13.562,0.632,29.103l5.476,0.413l2,0.133l3,0.181
		l5.622,0.279c0,0-1.842-22.818,0.205-29.218L103.563,172.438z"/>
	<path clip-path="url(#SVGID_9_)" fill="#FCD5B1" d="M139.146,173.508c0,0,1.486,22.555,0.229,29.421l5.015-0.077l3.656-0.102
		l4.234-0.168l5.474-0.299c0,0,2.49-13.097-0.142-29.552L139.146,173.508z"/>
	<path clip-path="url(#SVGID_9_)" fill="#FCD5B1" d="M176.651,170.96c0,0,4.309,22.856,0.567,29.446l3.169-0.445l1.864-0.278
		l2.151-0.341l3.362-0.575l5.149-0.989c0,0,2.356-9.024-1.01-28.974L176.651,170.96z"/>
	<path clip-path="url(#SVGID_9_)" fill="#AA984A" d="M192.969,50.529c-0.286,1.016-2.672,1.235-5.329,0.487
		c-2.656-0.747-4.579-2.176-4.293-3.193c0.286-1.016,2.671-1.234,5.328-0.487C191.333,48.083,193.255,49.513,192.969,50.529"/>
</g>
</svg>
