<?xml version="1.0" encoding="utf-8"?>
<!-- Generator: Adobe Illustrator 19.0.0, SVG Export Plug-In . SVG Version: 6.00 Build 0)  -->
<svg version="1.1" id="Layer_1" xmlns="http://www.w3.org/2000/svg" xmlns:xlink="http://www.w3.org/1999/xlink" x="0px" y="0px"
	 viewBox="34 542.9 664.9 243.3" style="enable-background:new 34 542.9 664.9 243.3;" xml:space="preserve">
<style type="text/css">
	.st0{fill:#FCFFE9;}
</style>
<g id="ดาบทหานผ่านศึก_4_">
	<g>
		<path id="โคนดาบ_11_" d="M135.3,605l16.5-5.2c0,0,4.7-1.8,4.1-4.8c0,0-4-6.9-2.5-7.5c0,0,2.6-3.1,0.6-2.1
			c0,0-6.6,4.8-5.3,7.2c0,0,2.9,3.5,1.5,4c0,0-15.4,4.4-15.8,5.5C134.3,601.9,134.2,604.7,135.3,605z"/>
		<path id="ตัวดาบ_11_" d="M141.4,695.5c0,0,9.2-5.6-1-26.7c0,0,21.2-11.1,0.1-66.2l9.2-3.1
			C149.7,599.5,189.9,663,141.4,695.5z"/>
		<path id="ด้ามดาบ_11_" d="M141.1,599.9c0,0-6.2-17.1-6-18c0,0,2.2-4.4,8-1.7c0,0,1.6,16.2,3.6,17.8L141.1,599.9z"/>
		<g id="ยึกยักขวา_13_">
			<path d="M156.3,612.3c0,0-1-2.3-1.1-2.4c0,0-2.7,2.4-2.7,3.3c0,0,0.1,0.3-0.6,0.5c0,0,1.5,0.3,2-0.2c0,0,0.4-1.5,1.1-1.8
				c0,0,0.6,0.4,0.9,0.2C155.8,611.8,156.2,612.1,156.3,612.3z"/>
		</g>
		<g id="ยึงยักซ้าย_13_">
			<path d="M148.7,631.6c0,0,4.7-1.9,2.8-3.4c-1.1-0.9,1.2-2.7-0.8-3.5c0,0-1.8-0.7-1.7,0.8c0,0,0.8-0.7,1.1,0.1
				c0,0,2.4,4.3-1.9,3.5C148.3,629,148.5,630.8,148.7,631.6z"/>
		</g>
	</g>
</g>
<g>
	<g>
		<path d="M82.6,614.4c-0.3-1.6,0-3.1,0.8-4.7c0.8-1.6,1.9-3.2,3.2-4.8s2.5-3.1,3.8-4.5c1.3-1.4,2.3-2.7,2.9-3.9l17.8,84.7
			c0.6-0.2,0.9-0.4,1.1-0.7c0.2-0.3,0.3-0.6,0.3-1c0.1-0.3,0.1-0.7,0.3-1.1c0.1-0.4,0.4-0.7,0.8-1.1v0.2c2.2-2.2,3.8-5.1,4.6-8.7
			c0.8-3.5,0.6-7.9-0.6-13c-1-2.9-1.9-5.5-2.6-7.8s-1.3-4.4-1.9-6.4c-0.5-2-1-3.8-1.4-5.4c-0.4-1.7-0.7-3.3-1-4.9
			c-0.8-3.8-1.2-7.6-1.4-11.4c-0.2-3.7,0-7.4,0.6-11c0.6-3.6,1.6-7.2,3.1-10.6c1.5-3.5,3.5-6.8,6.1-10.1l2.2,11
			c0.3,1.7,0.9,4.4,1.5,7.9c0.7,3.5,1.5,7.6,2.3,12c0.8,4.4,1.8,9.2,2.7,14.2c0.9,5,1.8,9.8,2.7,14.4l2.6,12.8
			c0.5,2.4,0.7,4.3,0.8,5.9c0.1,1.6,0,3-0.2,4.2s-0.4,2.3-0.7,3.3c-0.3,1-0.5,1.9-0.7,2.8c-0.8,2.1-1.8,4.3-3.2,6.4
			c-1.4,2.1-3,4-4.9,5.7s-4,3.1-6.3,4.1c-2.3,1.1-4.7,1.6-7.2,1.5l-9.4-6.5c-0.7,1-1.4,2-2,2.8s-1.1,1.6-1.7,2.4s-1.2,1.7-1.9,2.8
			c-0.7,1-1.5,2.3-2.5,3.8c-1.8-0.2-3.4-0.4-4.8-0.8c-1.4-0.4-2.7-0.7-4-1.2s-2.5-1-3.6-1.6c-1.2-0.6-2.4-1.3-3.6-2.1
			c-1.8-1.3-3.6-2.6-5.4-4.1c-1.8-1.5-3.5-3.1-5-4.9c-1.6-1.8-2.9-3.7-4.1-5.8c-1.2-2.1-2.1-4.4-2.6-6.8c-0.7-2.7-1-5.3-1.2-7.8
			c-0.1-2.5-0.1-5,0.2-7.4c0.2-2.4,0.6-4.9,1.1-7.3c0.5-2.4,1.1-4.8,1.8-7.3c0.4-1.5,0.9-3,1.5-4.7s0.8-3.3,0.6-5.1
			c-0.2-2.2-0.9-4.3-2.1-6.4c-1.2-2.1-2.5-3.9-4-5.4c-1.5-1.6-2.9-2.8-4.3-3.7c-1.4-0.9-2.4-1.3-3.1-1.1c-0.4,0.1-0.5-0.3-0.1-1.2
			c0.3-0.9,0.8-1.9,1.6-3.2c0.7-1.3,1.6-2.7,2.7-4.2c1-1.5,2.1-2.8,3.1-4s2-2.1,2.9-2.7c0.9-0.6,1.6-0.7,2.1-0.3
			c1.4,1.2,2.9,2.4,4.5,3.4c1.6,1.1,2.9,2.4,4.1,3.9c2.6,3.5,4.1,7.1,4.7,10.9c0.6,3.8,0.7,7.6,0.3,11.5c-0.4,3.9-1,7.8-1.8,11.8
			s-1.3,7.8-1.4,11.6c-0.1,2.2,0.1,4.6,0.7,7c0.5,2.4,1.3,4.8,2.3,7.2c1,2.3,2.2,4.5,3.6,6.6c1.4,2.1,2.9,3.8,4.6,5.4
			c1.6,1.5,3.4,2.7,5.2,3.4c1.8,0.8,3.6,1,5.4,0.8c0.1-1,0.1-2.3-0.1-3.8c-0.1-1.5-0.4-3.4-0.8-5.8c-0.4-2.3-0.9-5.2-1.6-8.6
			c-0.7-3.4-1.5-7.5-2.5-12.4c-1-4.9-2.1-10.5-3.4-16.9C85.8,630.4,84.3,622.9,82.6,614.4z"/>
		<path d="M173.3,601.5c-0.3,0.2-0.7,0.6-1.1,1c-0.4,0.5-0.9,0.9-1.3,1.4c-0.5,0.5-0.9,0.9-1.4,1.2c-0.5,0.4-0.9,0.6-1.4,0.6
			c-0.3,0-0.9-0.1-1.7-0.5c-0.8-0.4-1.7-0.8-2.5-1.4c-0.9-0.5-1.6-1.1-2.3-1.8c-0.7-0.7-1-1.2-1.1-1.8c-0.1-1.1,0.3-2.5,1.2-4.2
			c0.9-1.7,2.1-3.4,3.4-5.2s2.7-3.4,4-5c1.3-1.6,2.4-2.9,3.1-3.8c0.6-0.7,1.1-1.3,1.6-1.7s1-0.7,1.4-0.7c2.6,1.2,4.7,2.1,6.1,2.8
			c1.4,0.6,2.5,1.1,3.1,1.4c0.7,0.3,1.1,0.4,1.3,0.5l0.7,5.5c0.8-0.8,1.9-1.9,3.1-3.3c1.3-1.4,2.5-2.7,3.7-4s2.3-2.5,3.2-3.6
			c1-1.1,1.6-1.8,1.8-2c1.5,0,3.5,0.4,5.8,0.9c2.3,0.6,4.7,1.3,7.1,2.3c2.4,0.9,4.8,2,7,3.1c2.2,1.1,4,2.2,5.3,3.4l5,40.4
			c0.1,0.3-0.5,0.9-1.7,2c-1.2,1-2.9,2.3-5.1,3.6c-2.2,1.4-4.7,2.8-7.7,4.4c-2.9,1.5-6.1,2.9-9.3,4c-0.7-0.1-1.5-0.2-2.2-0.3
			c-0.8,0-1.6-0.1-2.6-0.3c-0.9-0.1-2-0.4-3.3-0.9c-1.2-0.4-2.6-1.1-4.2-2l3.6,28.9c0.5,2,1,4,1.5,5.8c0.5,1.9,1.1,3.5,1.9,5
			c0.7,1.4,1.6,2.6,2.6,3.4s2.4,1.3,4,1.2c0.3,0.2,0.4,0.5,0.4,0.7c0,0.3-0.1,0.5-0.4,0.7c-2.9,1.1-5.8,1.2-8.5,0.5
			c-2.8-0.8-5.3-2.2-7.5-4.3c-2.3-2.1-4.2-4.8-5.9-8c-1.6-3.2-2.8-6.8-3.5-10.8L173.3,601.5z M169.3,594.9c0.6-0.1,1.1,0,1.5,0.1
			c0.4,0.2,0.8,0.4,1.4,0.6l0.4,0.2l-0.4-3.9c-0.1-0.5-0.4-0.7-0.9-0.7c-0.6,0-1.1,0-1.5,0.1c-0.9,0.1-1.6,0.6-2,1.4
			s-0.6,1.8-0.5,2.8s0.3,2,0.8,2.9c0.5,0.9,1.1,1.5,1.8,1.9c0.7-0.2,1.3-0.5,1.8-1c0.5-0.4,0.8-1,0.8-1.7c-0.7-0.7-1.2-1.1-1.6-1.3
			c-0.4-0.2-0.9-0.3-1.5-0.4L169.3,594.9z M193.7,592c-1.7,1.6-3,3.3-3.9,5.1c-0.9,1.8-1.5,3.8-1.8,5.9l0.1,0.7
			c0.2,0.5,0.3,0.9,0.4,1.4s0.3,0.9,0.6,1.3c0.7,0.9,1.7,1.6,3.1,2c1.3,0.4,2.8,0.6,4.3,0.5c1.5-0.1,3-0.3,4.5-0.8
			c1.5-0.4,2.7-1.1,3.7-1.8l-1.8-14.7c-1.1-0.3-2.2-0.6-3.3-0.9c-1.1-0.2-2.2-0.4-3.4-0.6C195.3,590.7,194.5,591.3,193.7,592z
			 M192.4,615.3c0.7-0.3,1.6-0.5,2.7-0.7s2.2-0.4,3.4-0.5c1.2-0.1,2.4-0.1,3.6,0c1.2,0.1,2.4,0.3,3.5,0.6l-0.8-6.4
			c-1.1,0.7-2.5,1.3-3.9,1.7c-1.5,0.4-2.9,0.6-4.4,0.6s-2.9-0.2-4.3-0.6c-1.4-0.4-2.6-1-3.5-1.7l1.2,9.4c0.4-0.5,0.7-1,1.1-1.4
			C191.3,615.9,191.8,615.5,192.4,615.3z M195,622.3c1.6-0.4,3.1-0.3,4.4,0.2s2.3,1.3,2.9,2.3s0.8,2.3,0.6,3.6c-0.2,1.4-1,2.7-2.5,4
			c0.6-1,0.7-1.9,0.1-2.8c-0.6-0.8-1.4-1.3-2.3-1.6c-0.9-0.2-1.8-0.1-2.7,0.5c-0.8,0.5-1.2,1.7-1.1,3.4l1.5,1.8
			c0.9,0.2,1.8,0.4,2.7,0.6c0.9,0.1,1.8,0.2,2.7,0.2c2.2-0.8,4.4-1.8,6.5-3.1l-1.8-14.6c-2.5-0.9-5-1.3-7.7-1.1
			c-2.7,0.2-5,1.1-7,2.9c-0.4,0.3-0.7,0.8-1.1,1.5l0.9,6.6c0.2-1,0.6-1.9,1.3-2.8C192.9,623.1,193.8,622.6,195,622.3z M209,630.6
			c0.4-0.3,0.8-0.5,1-0.7l0.2-0.2l-4.5-36.9c-0.2-0.1-0.5-0.2-0.7-0.3s-0.4-0.2-0.7-0.3L209,630.6z M211.4,628
			c0.4-0.5,0.8-1.1,1.3-1.9c0.4-0.7,0.9-1.5,1.4-2.3l-3.4-27.8c-1.1-0.9-2.3-1.8-3.5-2.5L211.4,628z"/>
		<path d="M316.4,590c-1.4,1-2.1,2.1-2.1,3.4s0.3,2.3,1,3.2c0.7,0.9,1.6,1.3,2.9,1.5c1.2,0.1,2.4-0.5,3.6-1.7c1.5-1.5,2.1-3,2.1-4.3
			c-0.1-1.3-0.7-2.5-1.8-3.6c-1.1-1.1-2.6-2-4.5-2.8s-4-1.3-6.3-1.7c-2.3-0.4-4.6-0.5-7-0.5s-4.6,0.3-6.6,0.9l3.1,71.4
			c2.9,0.3,5.8,0,8.4-0.9c2.7-0.9,5.2-2.2,7.7-3.9c2.4-1.7,4.7-3.6,6.9-5.8c2.2-2.2,4.2-4.6,6.2-7c1.9-2.4,3.7-4.8,5.4-7.1
			c1.7-2.3,3.2-4.5,4.7-6.4l0.1,1.5c0.1,2.8-0.2,5.7-0.9,9c-0.7,3.2-1.8,6.5-3.3,9.7c-1.5,3.3-3.4,6.4-5.6,9.4s-4.8,5.7-7.7,8.2
			c-2.9,2.4-6.1,4.4-9.6,5.9s-7.4,2.3-11.5,2.5c-0.6,0-1.2-0.3-2-1.1c-0.7-0.7-1.4-1.3-1.9-1.9c-1-1-2.4-2.3-4.2-3.9
			c-1.7-1.6-3.4-3.1-5.1-4.5c-2-1.7-4.1-3.6-6.1-5.5l-2.9-66.8c0-0.9,0.4-2.1,1.4-3.4s2.3-2.6,3.9-4c1.6-1.4,3.4-2.7,5.4-4.1
			c2-1.3,3.9-2.6,5.8-3.6c1.9-1.1,3.6-2,5.2-2.6c1.6-0.7,2.8-1,3.6-1.1c5.9-0.3,10.9,0.4,15.2,1.9c4.3,1.5,7.4,3.8,9.4,6.7
			s2.7,6.4,2.1,10.5c-0.6,4.1-2.8,8.5-6.7,13.3c-1.1,1.3-2.4,2.2-3.9,2.6c-1.5,0.4-3,0.4-4.5,0.1s-2.7-0.9-3.8-1.8
			c-1.1-0.9-1.8-2-2-3.2c-0.3-1.2,0-2.6,0.9-4.1C312.2,593,313.9,591.5,316.4,590z M296,652.3c0.2,0.1,0.5,0.3,0.8,0.7
			c0.3,0.3,0.6,0.7,0.8,1.1c0.3,0.4,0.6,0.7,0.8,1c0.3,0.3,0.6,0.4,0.9,0.5l-3-70.8l-3,3.6L296,652.3z"/>
		<path d="M383.6,668.8c-5.3-2.7-8.9-7-10.8-12.8h-0.1c-0.1,0.2-0.3,0.5-0.5,0.9c-0.2,0.4-0.5,0.8-0.7,1.1c-0.2,0.4-0.5,0.9-0.9,1.5
			c-0.5,0.9-1.1,1.7-1.8,2.5c-0.8,0.8-1.6,1.5-2.5,2.2s-1.8,1.4-2.8,2.1c-0.9,0.7-1.8,1.4-2.5,2.2c-2.5,0.1-5-0.7-7.3-2.3
			c-2.4-1.6-4.4-3.7-6.1-6.4c-1.7-2.7-2.9-5.9-3.7-9.5c-0.7-3.6-0.8-7.4-0.1-11.4c1.3-1.4,2.7-2.6,4.2-3.7c1.5-1.1,3-2.2,4.6-3.2
			c1.5-1.1,3.1-2.1,4.6-3.3c1.5-1.1,2.9-2.3,4.2-3.7l0.9,0.2c0,0.1,0,0.2-0.1,0.2c2.1,1.1,4,2.4,5.7,3.9c1.8,1.6,3.3,3.2,4.7,5
			l-0.1-23.4l-29-0.2l7.4-9.7h31.3l0.3,45.7h0.2c-0.3,1.7-0.2,3.2,0.2,4.6c0.4,1.4,1,2.6,1.7,3.6c0.7,1.1,1.4,1.9,2.2,2.6
			s1.4,1.2,1.8,1.6L383.6,668.8z M356.6,651.8c1.6,2.6,3.1,4.3,4.5,5.2c1.4,0.9,2.7,1.2,3.7,1c1.1-0.2,2-0.7,2.6-1.6
			c0.7-0.9,1.1-1.8,1.3-2.7c-0.4,0.3-0.9,0.4-1.6,0.2c-0.6-0.1-1.1-0.3-1.3-0.4c-0.9-0.8-1.4-1.5-1.5-2.2s0-1.4,0.3-1.9
			c0.4-0.5,0.9-0.9,1.5-1.2c0.7-0.3,1.4-0.3,2.2-0.1c0.3,0.1,0.6,0.3,1,0.5s0.7,0.5,1,0.7l-1.1-1.5c-1-1.2-2.1-2.5-3.2-3.9
			c-1.1-1.3-2.4-2.6-3.7-3.9s-2.6-2.5-4-3.6c-1.4-1.1-2.8-2.1-4.3-2.8c-0.2,1.5-0.3,3.1-0.4,4.8c-0.1,1.7,0,3.4,0.1,5.1
			c0.2,1.7,0.5,3.2,0.9,4.7C355.2,649.7,355.8,650.9,356.6,651.8z"/>
		<path d="M402.2,669.5c-0.6,0-1.3-0.3-1.9-0.8c-0.7-0.5-1.5-1.4-2.4-2.6c-1.1-1.1-2.2-2.4-3.1-3.9c-0.9-1.5-1.7-3.1-2.4-4.8
			s-1.2-3.4-1.6-5.2c-0.4-1.8-0.5-3.5-0.5-5.2c0-3.7,0.7-7,2-10s2.9-5.9,4.7-8.9c0.6-0.9,1.2-1.8,1.8-2.8s1.1-2.1,1.5-3.1
			c0.5-1.5,0.5-3,0-4.4c-0.5-1.4-1.3-2.6-2.3-3.7c-1-1.1-2-1.9-3.2-2.6c-1.1-0.6-2.1-0.9-2.8-0.9l13.1-9.3c0.9,1,1.8,1.9,2.8,2.9
			s1.8,2,2.4,3.2c0.6,1.3,1,2.5,1.2,3.8l7.8-8.9l0.2,0.2v-0.4l8.5,11l11.2-10.4l0.2,0.2v-0.4l10.9,14l-1,24.8
			c-0.1,3.8-0.4,7.3-0.9,10.6c-0.5,3.2-1.4,6.2-2.9,8.9c-1.4,2.7-3.4,5.1-6,7.2c-2.6,2.1-6,3.9-10.1,5.4l-7.4,0.7l0.3-0.3
			c0.2-0.2,0.3-0.3,0.5-0.3c0.9-0.5,1.7-0.9,2.3-1.4c0.7-0.4,1.3-0.9,1.9-1.4c0.6-0.5,1.2-1.1,1.8-1.7c0.6-0.6,1.3-1.4,2.2-2.3
			c2.9-3.1,5-7.3,6.1-12.5l1.6-35.6l-2.4-2.7l-5.9,5l-1.4,32.8c-0.6,4.1-2.1,7.4-4.5,9.8c-2.4,2.4-5,3.9-8,4.3
			c-0.1-0.1,0-0.3,0.1-0.6l2.2-49.1l-2.3-2.7l-6,6c-0.9,2.6-2.1,5.2-3.5,7.7s-2.5,5.1-3.4,7.7c-0.7,2-1,4-1.1,5.9
			c-0.1,1.9,0.1,3.7,0.6,5.3s1.2,3,2.2,4.3c1,1.2,2.3,2.3,3.8,3c0.2-0.1,0.4-0.2,0.6-0.4c0.2-0.2,0.6-0.8,1.1-1.7
			c-0.4,0.3-1,0.3-1.6,0.2c-0.6-0.2-1.1-0.3-1.3-0.5c-0.8-0.8-1.3-1.6-1.4-2.3c-0.1-0.7,0-1.4,0.4-1.9s0.9-0.9,1.6-1.1
			c0.7-0.2,1.4-0.3,2.2,0c0.3,0.1,0.6,0.3,1,0.5s0.7,0.5,1,0.8c1.1,0.7,1.8,1.6,2,2.7c0.2,1.1,0.2,2.5,0,4h-0.1
			c-1.6,2.7-3.4,5-5.4,7.1C407.1,665.1,404.8,667.3,402.2,669.5z"/>
		<path d="M472.1,618.8l0.6-3.4l-0.2,2.5c1-0.9,2.1-1.9,3.4-3.1c1.3-1.2,2.5-2.4,3.8-3.5c1.3-1.1,2.3-2.1,3.2-3
			c0.9-0.9,1.5-1.4,1.7-1.7c1.2,0.3,2.7,1.1,4.4,2.1c1.7,1.1,3.4,2.3,5.1,3.8c1.7,1.5,3.3,3,4.8,4.6c1.5,1.6,2.7,3.1,3.5,4.5
			l-3.9,42.9c0,0.3-0.5,0.9-1.7,1.7s-2.7,1.7-4.7,2.7s-4.3,2-6.8,3c-2.6,1-5.3,1.7-8,2.2c-0.5,0-1.1-0.2-1.8-0.6
			c-0.7-0.4-1.5-0.8-2.4-1.3s-1.7-1-2.6-1.6c-0.9-0.6-1.6-1.1-2.2-1.5l-2.2,23.7c0.1,1.8,0.1,3.6,0.2,5.2c0.1,1.7,0.2,3.2,0.5,4.5
			c0.3,1.4,0.8,2.5,1.5,3.4c0.7,0.9,1.7,1.5,2.9,1.8c0.2,0.2,0.2,0.4,0.2,0.6s-0.2,0.4-0.4,0.5c-2.5,0.4-4.8,0-6.8-1.1
			c-2-1.1-3.7-2.8-5.2-5c-1.4-2.2-2.5-4.8-3.2-7.8s-1-6.3-0.9-9.8l5.3-56.7l1.3-12.9c0.2-0.4,0.2-1,0-1.7c-0.2-0.8-0.5-1.4-1-2
			c-0.4-0.6-0.9-0.9-1.4-1c-0.5-0.1-1,0.3-1.4,1.1c-0.4,0.7-0.3,1.3,0.3,1.6s1.1,0.4,1.8,0.2l-0.5,1.1l0.2,0.1
			c-0.2,0.5-0.4,0.9-0.6,1.2c-0.3,0.4-0.7,0.6-1.3,0.6c-0.5,0.1-1,0.1-1.4,0c-0.5-0.1-0.9-0.3-1.3-0.6c-0.4-0.3-0.7-0.7-0.9-1.1
			c-0.2-0.5-0.2-0.9-0.1-1.5c0.1-0.6,0.4-1.1,0.8-1.6c0.4-0.5,0.9-0.9,1.5-1.3c0.6-0.4,1.2-0.7,1.8-1s1.1-0.5,1.5-0.7l1.2-0.8
			c1-0.4,2-0.9,2.9-1.5c0.9-0.6,1.9-1.2,2.8-1.7h0.3c2.6,2.2,4.6,4.9,6,8.1L472.1,618.8z M471.2,653.6c1-0.8,2.1-1,3.6-0.6
			c1,0.1,1.9,0.6,2.6,1.5c0.7,0.9,1,2,1.1,3.2s-0.1,2.4-0.6,3.7s-1.3,2.3-2.5,3c0.7-0.9,0.9-1.9,0.6-2.9c-0.3-1-0.8-1.7-1.5-2.1
			c-0.7-0.4-1.4-0.4-2.2,0c-0.8,0.4-1.3,1.5-1.5,3.3c1.1,1.5,2,2.4,2.8,2.9s1.5,0.8,2.2,1c1-0.2,1.9-0.4,2.8-0.7
			c0.9-0.3,1.9-0.7,2.9-1.1c0.7-0.4,1.1-0.7,1.4-0.8c0.2-0.1,0.5-0.3,0.8-0.5l1.3-1.5l2.9-3.8l2.7-29.4c-0.7-1.2-1.4-2.3-2.3-3.3
			c-0.9-1-1.8-1.9-2.9-2.9c-0.8-0.6-1.6-1.1-2.5-1.6c-0.8-0.5-1.7-0.9-2.6-1.3c-0.3,0.2-0.7,0.4-1,0.7c-0.4,0.3-0.8,0.5-1.1,0.8
			c-0.8,0.7-1.9,1.6-3.2,2.6c-1.3,1.1-2.3,2.1-3.1,3.2l-2.5,28.1C469.8,654.6,470.5,654.1,471.2,653.6z"/>
		<path d="M654.4,666.9c-2,0.9-4,1.8-5.8,2.6c-1.8,0.8-3.7,1.3-5.6,1.6l-2.6,0.2v-0.1c-2.1-1.9-4-3.9-5.8-5.7
			c-1.8-1.9-3.6-3.7-5.4-5.5c-1.8-1.8-3.6-3.5-5.4-5.2c-1.8-1.7-3.8-3.3-5.8-4.8l10-41c8.4-2,14.6-3.7,18.5-5.2
			c3-1.3,5.9-3.2,8.7-5.7c5.4,4.6,9.8,8.4,13.4,11.6c2.8,2.3,5,4,6.4,5.1c3.2,2.5,7,4.5,11.4,5.8l0.2,2c-2.5,1.6-4.2,3.1-5,4.5
			l-3.5,10.3l-4.2,15.4l-9.2,37.5c-7.9,1.8-13.9,3.8-17.9,5.9c-3,0.8-7.4,1.8-13.4,3c-5.6-8.1-10.6-13.6-14.8-16.6
			c-3.2-2.5-7-4.5-11.4-5.8l-0.2-2c0.7-0.4,1.2-0.9,1.8-1.3c1.9-1,4-1.7,6.2-2c2.3-0.3,4.6-0.3,6.9,0c2.3,0.3,4.6,0.8,6.8,1.5
			s4.2,1.5,6,2.5c1,0.5,1.9,1.1,2.8,1.7c0.9,0.6,1.8,1.2,2.7,1.9c0.7,0.7,1.4,1.4,1.9,2.1c0.6,0.7,1.1,1.4,1.7,2.1
			c0.6,0.7,1.1,1.4,1.8,2c0.6,0.6,1.4,1.1,2.3,1.5l1.3,0.5l0.3,0.3L654.4,666.9z M657.6,654.8l7.1-28.1l-1.1-1.4l-2.2-1.8l-18-11.7
			l-7.7,31.2c1.9,2,3.6,3.9,5.3,5.5c1.7,1.6,3.2,3.1,4.5,4.2c1.3,1.2,2.4,2.1,3.3,2.7c0.9,0.6,1.5,1,1.8,1c0.8,0,1.7,0,2.5-0.2
			c0.8-0.1,1.7-0.4,2.6-1L657.6,654.8z"/>
	</g>
</g>
<g>
	<path d="M126.2,732.1c-0.1-0.4,0-0.8,0.2-1.3c0.2-0.4,0.5-0.8,0.9-1.3c0.3-0.4,0.7-0.8,1-1.2c0.4-0.4,0.6-0.7,0.8-1l4.4,22.7
		c0.1,0,0.3-0.1,0.3-0.2c0-0.1,0.1-0.2,0.1-0.3c0-0.1,0-0.2,0.1-0.3c0-0.1,0.1-0.2,0.2-0.3l0,0c0.6-0.6,1-1.4,1.3-2.3
		c0.2-0.9,0.2-2.1-0.1-3.5c-0.3-0.8-0.5-1.5-0.7-2.1c-0.2-0.6-0.3-1.2-0.5-1.7c-0.1-0.5-0.3-1-0.3-1.5c-0.1-0.4-0.2-0.9-0.3-1.3
		c-0.2-1-0.3-2-0.3-3s0-2,0.2-2.9c0.2-1,0.5-1.9,0.9-2.8c0.4-0.9,1-1.8,1.7-2.7l0.5,3c0.1,0.5,0.2,1.2,0.4,2.1
		c0.2,0.9,0.4,2,0.6,3.2s0.4,2.5,0.7,3.8c0.2,1.3,0.4,2.6,0.7,3.8l0.6,3.4c0.1,0.6,0.2,1.2,0.2,1.6c0,0.4,0,0.8-0.1,1.1
		c-0.1,0.3-0.1,0.6-0.2,0.9s-0.1,0.5-0.2,0.8c-0.2,0.6-0.5,1.1-0.9,1.7c-0.4,0.6-0.8,1.1-1.3,1.5c-0.5,0.4-1.1,0.8-1.7,1.1
		c-0.6,0.3-1.2,0.4-1.9,0.4l-2.5-1.8c-0.2,0.3-0.4,0.5-0.5,0.7c-0.2,0.2-0.3,0.4-0.5,0.6c-0.1,0.2-0.3,0.5-0.5,0.7s-0.4,0.6-0.7,1
		c-0.5-0.1-0.9-0.1-1.3-0.2c-0.4-0.1-0.7-0.2-1.1-0.3c-0.3-0.1-0.7-0.3-1-0.4c-0.3-0.2-0.6-0.4-0.9-0.6c-0.5-0.3-1-0.7-1.4-1.1
		c-0.5-0.4-0.9-0.8-1.3-1.3s-0.8-1-1.1-1.6c-0.3-0.6-0.5-1.2-0.7-1.8c-0.2-0.7-0.3-1.4-0.3-2.1s0-1.3,0.1-2c0.1-0.6,0.2-1.3,0.3-1.9
		c0.2-0.6,0.3-1.3,0.5-1.9c0.1-0.4,0.3-0.8,0.4-1.2c0.2-0.4,0.2-0.9,0.2-1.3c0-0.6-0.2-1.1-0.5-1.7c-0.3-0.6-0.7-1-1-1.5
		c-0.4-0.4-0.8-0.8-1.1-1s-0.6-0.3-0.8-0.3c-0.1,0-0.1-0.1,0-0.3s0.2-0.5,0.4-0.9c0.2-0.3,0.4-0.7,0.7-1.1c0.3-0.4,0.6-0.7,0.8-1
		c0.3-0.3,0.5-0.5,0.8-0.7c0.2-0.2,0.4-0.2,0.6-0.1c0.4,0.3,0.8,0.6,1.2,0.9s0.8,0.6,1.1,1c0.7,0.9,1.1,1.9,1.2,2.9s0.1,2,0,3.1
		c-0.1,1-0.3,2.1-0.5,3.1c-0.2,1.1-0.4,2.1-0.4,3.1c0,0.6,0,1.2,0.2,1.9c0.1,0.6,0.3,1.3,0.6,1.9c0.3,0.6,0.6,1.2,0.9,1.8
		c0.4,0.6,0.8,1,1.2,1.4c0.4,0.4,0.9,0.7,1.4,0.9c0.5,0.2,1,0.3,1.4,0.2c0-0.3,0-0.6,0-1c0-0.4-0.1-0.9-0.2-1.5
		c-0.1-0.6-0.2-1.4-0.4-2.3c-0.2-0.9-0.4-2-0.6-3.3s-0.5-2.8-0.9-4.5C127,736.4,126.6,734.4,126.2,732.1z"/>
	<path d="M158,749.2c-1.5-0.5-2.7-1.4-3.4-2.9l0,0c0,0.1-0.1,0.2-0.1,0.3s-0.1,0.2-0.1,0.3s-0.1,0.3-0.2,0.4
		c-0.1,0.3-0.2,0.5-0.4,0.7c-0.2,0.2-0.4,0.5-0.6,0.7s-0.4,0.4-0.6,0.7c-0.2,0.2-0.4,0.4-0.6,0.7c-0.7,0.1-1.3,0-2-0.3
		s-1.3-0.8-1.9-1.4c-0.6-0.6-1-1.4-1.4-2.3c-0.4-0.9-0.5-1.9-0.5-3c0.3-0.4,0.6-0.8,0.9-1.1c0.3-0.4,0.7-0.7,1.1-1s0.7-0.7,1.1-1.1
		c0.3-0.4,0.7-0.7,0.9-1.2h0.2l0,0c0.6,0.2,1.1,0.4,1.7,0.8c0.5,0.3,1,0.7,1.4,1.1l-1.1-6.1l-7.5,1.2l1.5-2.9l8.2-1.4l2.1,12l0,0
		c0,0.5,0.1,0.9,0.3,1.2c0.2,0.3,0.4,0.6,0.6,0.9s0.5,0.4,0.7,0.6c0.2,0.1,0.4,0.3,0.6,0.3L158,749.2z M150.2,745.9
		c0.5,0.6,1,1,1.4,1.2s0.8,0.2,1,0.1c0.3-0.1,0.5-0.3,0.6-0.5c0.1-0.3,0.2-0.5,0.2-0.8c-0.1,0.1-0.2,0.1-0.4,0.1c-0.2,0-0.3,0-0.4,0
		c-0.3-0.2-0.4-0.3-0.5-0.5s-0.1-0.4,0-0.5c0.1-0.2,0.2-0.3,0.4-0.4c0.2-0.1,0.4-0.1,0.6-0.1c0.1,0,0.2,0,0.3,0.1
		c0.1,0,0.2,0.1,0.3,0.2l-0.4-0.3c-0.3-0.3-0.7-0.6-1-0.9c-0.4-0.3-0.7-0.6-1.1-0.9s-0.8-0.5-1.2-0.8c-0.4-0.2-0.8-0.4-1.2-0.6
		c0,0.4,0.1,0.8,0.1,1.3c0.1,0.5,0.1,0.9,0.3,1.3c0.1,0.4,0.3,0.8,0.5,1.2S149.9,745.7,150.2,745.9z"/>
	<path d="M170.9,744.9L170.9,744.9C170.8,744.9,170.8,744.9,170.9,744.9c-0.2,0.1-0.5,0.3-0.7,0.4c-0.2,0.2-0.4,0.3-0.7,0.4
		l-2.7,1.8c-0.3-0.1-0.7-0.2-1-0.5c-0.4-0.3-0.7-0.6-1-1c-0.3-0.4-0.6-0.8-0.9-1.1c-0.3-0.4-0.5-0.7-0.7-1.1
		c-0.3-0.5-0.5-0.9-0.5-1.3c0-0.4,0-0.8,0.2-1.2c0.1-0.4,0.3-0.8,0.6-1.1c0.3-0.4,0.5-0.7,0.7-1.1c0.2-0.4,0.5-0.7,0.6-1.1
		c0.2-0.4,0.3-0.7,0.3-1.1c0-0.5-0.1-0.9-0.2-1.4c-0.2-0.5-0.4-0.9-0.7-1.2c-0.3-0.4-0.6-0.6-1-0.9c-0.4-0.2-0.8-0.3-1.3-0.3
		l-0.1,0.1l3.1-3.5v0.1c0.1,0,0.2,0,0.4,0.1l0,0l0,0l0,0c0.7,0.3,1.2,0.8,1.6,1.3c0.3,0.5,0.5,1.1,0.6,1.7c0.1,0.6,0,1.2-0.1,1.9
		c-0.1,0.7-0.3,1.3-0.5,1.9c-0.2,0.6-0.4,1.2-0.6,1.8s-0.4,1.1-0.5,1.5c-0.1,0.4-0.1,0.9,0.1,1.4s0.4,1,0.7,1.4
		c0.3,0.4,0.7,0.8,1.1,1.2c0.4,0.3,0.8,0.5,1.2,0.6c0.3-0.2,0.6-0.4,0.9-0.6s0.5-0.4,0.6-0.4l0.2-0.4l-0.9-6c-0.2-1-0.3-1.9-0.3-2.8
		c0-0.9,0.1-1.7,0.3-2.5s0.6-1.5,1.2-2.2s1.4-1.3,2.4-1.9l1.9-0.6l-0.1,0.1c-0.1,0.1-0.1,0.1-0.1,0.1c-0.2,0.2-0.4,0.3-0.6,0.5
		c-0.2,0.1-0.3,0.3-0.5,0.4c-0.2,0.1-0.3,0.3-0.4,0.5s-0.2,0.5-0.3,0.8c-0.2,0.6-0.4,1.2-0.5,1.8c-0.2,0.6-0.3,1.2-0.4,1.8l2.7,18.1
		l-3.4,5.3l-3.8-1.9c-0.6-0.3-1.1-0.5-1.5-0.6c-0.4-0.1-0.8-0.3-1.1-0.3c-0.4-0.1-0.7-0.2-1.1-0.3s-0.9-0.3-1.6-0.5
		c0.4-1,1-1.9,1.7-2.5c0.7-0.6,1.5-1.1,2.3-1.4s1.7-0.4,2.6-0.3c0.9,0.1,1.7,0.3,2.5,0.8L170.9,744.9z M166.4,751.4
		c0.2,0,0.5,0.1,0.8,0.1c0.3,0.1,0.6,0.2,1,0.3s0.7,0.3,1.1,0.4c0.4,0.2,0.7,0.4,1,0.6c0.3-0.4,0.6-0.8,0.9-1.2s0.5-0.9,0.7-1.3
		c-0.4,0-0.9-0.1-1.4-0.1s-1,0-1.4,0.1c-0.5,0.1-0.9,0.2-1.4,0.4C167.1,750.8,166.7,751.1,166.4,751.4z"/>
	<path d="M190.4,725.9l-0.2,0.4c-0.2,0.7-0.5,1.2-0.9,1.6l-3.5,6.1c0.5,0.2,1,0.5,1.5,0.7s1,0.4,1.5,0.6s1,0.4,1.4,0.6
		c0.5,0.2,0.9,0.4,1.3,0.6c0,0.4-0.1,0.9-0.2,1.4s-0.3,1-0.5,1.6l0,0c-0.1,0.4-0.3,0.9-0.5,1.5c-0.2,0.6-0.5,1.1-0.7,1.6
		c-0.3,0.5-0.6,0.9-0.9,1.3c-0.3,0.4-0.6,0.6-0.9,0.6c-0.7,0.1-1.4,0.2-2.2,0.2c-0.8,0-1.6-0.2-2.3-0.4c-0.7-0.3-1.4-0.6-2-1.1
		s-1-1.2-1.2-2c-0.1-0.7-0.1-1.3,0-1.9c0.2-0.6,0.4-1,0.7-1.4c0.3-0.4,0.8-0.6,1.3-0.8c0.5-0.1,1-0.1,1.6,0.1l0.2-0.4l-0.3-0.1
		c-1.1-0.5-2-1.1-2.8-2c-0.8-0.8-1.5-1.7-2-2.8c0.5-0.2,1-0.5,1.4-0.8c0.4-0.4,0.7-0.8,1-1.3s0.6-1,0.9-1.5s0.6-1.1,0.9-1.6
		c0.4,0.3,0.9,0.4,1.4,0.4s1,0,1.4-0.1c0.7-0.1,1.4-0.2,2.1-0.3s1.4-0.3,2.1-0.5l0.2-0.3L190.4,725.9z M188.5,738.7
		c-0.7-0.3-1.2-0.5-1.7-0.7c-0.4-0.2-0.8-0.4-1.1-0.5c-0.3-0.1-0.6-0.3-0.8-0.4c-0.2-0.1-0.5-0.2-0.7-0.4l-0.2,0.4
		c0.1,0,0.2,0.1,0.3,0.2c0.1,0.1,0.2,0.1,0.3,0.2c0.1,0.1,0.2,0.2,0.3,0.3c0.1,0.1,0.1,0.3,0.2,0.4c0.2,0.4,0.2,0.8,0,1.2
		s-0.4,0.7-0.8,0.9c-0.1,0.1-0.2,0.1-0.4,0.1c-0.1,0-0.3,0-0.4,0c0,0-0.1,0-0.1-0.1h-0.1c0,0-0.1,0-0.2-0.1c-0.1,0-0.2-0.1-0.2-0.2
		c-0.1-0.1-0.1-0.3-0.2-0.4c0-0.2,0-0.4,0-0.7c0-0.3,0.2-0.6,0.4-0.9c-0.3,0-0.5,0-0.7,0.1c-0.2,0.1-0.4,0.3-0.6,0.5
		c-0.1,0.7,0.1,1.2,0.5,1.6c0.4,0.4,0.9,0.7,1.6,1c0.6,0.2,1.3,0.3,2.1,0.4c0.8,0.1,1.4,0,2.1-0.1c0.4-0.1,0.7-0.2,0.9-0.5
		c0.2-0.2,0.4-0.5,0.4-0.8s0-0.6-0.1-0.9C189,739.2,188.8,738.9,188.5,738.7z M181.9,730.1c0.4,0.9,0.9,1.7,1.5,2.2
		c0.6,0.6,1.4,1.1,2.1,1.5l3-5.3c-0.4,0.3-0.9,0.5-1.4,0.7s-1.1,0.3-1.6,0.4c-0.6,0.1-1.2,0.2-1.8,0.3
		C183.1,730,182.5,730.1,181.9,730.1z M184.2,738.8c-0.2-0.3-0.4-0.5-0.8-0.6c-0.3,0.4-0.4,0.7-0.3,1s0.2,0.5,0.3,0.6
		c0.2,0.1,0.4,0.2,0.5,0.2c0.2,0,0.3-0.2,0.3-0.4c0,0,0-0.1,0.1-0.1C184.5,739.3,184.4,739,184.2,738.8z"/>
	<path d="M217.2,737.2c0.3,0.4,0.7,0.7,1,0.8c0.3,0.1,0.7,0.1,0.9,0c0.3-0.1,0.5-0.4,0.6-0.8c-0.1,0.1-0.3,0.1-0.4,0
		c-0.1-0.1-0.3-0.1-0.3-0.2c-0.2-0.3-0.3-0.5-0.2-0.7c0-0.2,0.1-0.3,0.2-0.5c0.1-0.1,0.3-0.2,0.5-0.2s0.4,0,0.6,0.1
		c0.1,0.1,0.3,0.2,0.5,0.4c0.2,0.2,0.3,0.5,0.4,0.8s0,0.6-0.2,1.1l0,0c0,0.1-0.1,0.1-0.2,0.2c-0.1,0.1-0.2,0.2-0.3,0.3
		c-0.1,0.1-0.2,0.2-0.3,0.3c-0.2,0.2-0.4,0.4-0.6,0.5c-0.2,0.1-0.5,0.3-0.8,0.4c-0.3,0.1-0.6,0.3-0.8,0.4c-0.3,0.1-0.6,0.3-0.8,0.4
		c-0.8-0.2-1.4-0.6-2-1.3s-1-1.5-1.2-2.5l-0.1-0.1l-1.6-12.5c-0.7,0.1-1.5,0-2.2-0.3s-1.4-0.8-1.9-1.5c0.2-0.1,0.3-0.3,0.5-0.4
		c0.1-0.1,0.3-0.2,0.4-0.3s0.2-0.2,0.4-0.4c0.1-0.1,0.3-0.3,0.4-0.4c0-0.1,0.1-0.1,0.1-0.2c0.2-0.2,0.4-0.3,0.6-0.4
		c0.2-0.1,0.4-0.2,0.6-0.2s0.3,0.1,0.5,0.3c0.1,0.2,0.2,0.4,0.2,0.8c-0.2,0.3-0.5,0.3-1,0.2c-0.1-0.1-0.1-0.1-0.2-0.1
		c0,0-0.1,0-0.2,0.1l0,0l-0.2,0.3c0.2,0.3,0.5,0.6,0.9,0.8c0.3,0.2,0.7,0.2,1.1,0.2l-0.5-3.9l0,0v-0.2c0-0.1,0-0.2,0-0.2s0,0,0-0.1
		c0-0.6,0.1-1.2,0.2-1.7s0.3-1.1,0.5-1.6s0.6-0.9,1-1.4c0.4-0.4,0.9-0.8,1.5-1.2l1.5-0.5c0,0,0,0,0,0.1c0,0.1-0.1,0.1-0.1,0.1
		c-0.2,0.1-0.3,0.3-0.5,0.4c-0.1,0.1-0.3,0.2-0.4,0.4c-0.1,0.1-0.2,0.3-0.3,0.5s-0.2,0.4-0.3,0.7c-0.1,0.4-0.2,0.8-0.2,1.2
		c0,0.4,0,0.8,0,1.2l0.2,2.1l0.4,3.8c0.5-0.1,0.9-0.2,1.4-0.4c0.5-0.2,0.9-0.4,1.3-0.7c0.4-0.3,0.8-0.6,1.1-0.9
		c0.3-0.3,0.5-0.7,0.7-1.1l0.1-0.1c0.1,0.5,0,1-0.2,1.5s-0.5,1-0.9,1.4c-0.4,0.4-0.9,0.8-1.4,1.1c-0.6,0.3-1.1,0.6-1.8,0.7l1.2,9.9
		l0,0l0,0l0.2,1.8C216.6,736.3,216.9,736.8,217.2,737.2z"/>
	<path d="M236.1,734.6c-0.2,0.4-0.4,0.9-0.8,1.5c-0.3,0.6-0.9,1.2-1.7,2c-0.1,0.1-0.3,0.2-0.4,0.2s-0.3,0.1-0.5,0.2
		c-0.7,0.2-1.3,0.2-2,0.2c-0.6-0.1-1.2-0.2-1.8-0.5c-0.5-0.3-1-0.6-1.4-1c-0.4-0.4-0.7-0.9-0.9-1.5l0,0c-0.3-0.7-0.5-1.5-0.6-2.3
		s-0.1-1.7,0-2.6c0.1-0.4,0.2-0.8,0.5-1.1v-0.3c-0.2-0.1-0.4-0.4-0.6-0.6c-0.2-0.3-0.3-0.6-0.4-0.9s-0.2-0.6-0.2-1
		c0-0.4,0-0.6,0-0.9c0-0.1,0.1-0.3,0.1-0.6s0.1-0.6,0.3-0.9c0.2-0.4,0.4-0.8,0.8-1.3c0.3-0.5,0.8-1,1.4-1.5c0.1-0.1,0.3-0.1,0.4-0.2
		c0.1-0.1,0.3-0.1,0.5-0.2c1-0.3,1.9-0.3,2.7-0.1c0.9,0.2,1.6,0.6,2.2,1.2c0.3,0.3,0.6,0.6,0.8,0.9c0.2,0.4,0.4,0.9,0.5,1.6v0.1
		l0.9,8.4L236.1,734.6z M232.1,725.2c-0.1-0.2-0.2-0.3-0.3-0.5c-0.1-0.1-0.2-0.3-0.3-0.4l-0.3-0.3c-0.5-0.5-0.9-0.8-1.4-0.8
		c-0.5-0.1-0.9,0-1.2,0.3c-0.4,0.2-0.6,0.6-0.9,1c-0.2,0.5-0.3,0.9-0.2,1.5c0.1,0.3,0.2,0.5,0.2,0.7c0.1,0.2,0.2,0.5,0.4,0.7
		c0.1,0.1,0.2,0.2,0.3,0.3c0.1,0.1,0.3,0.1,0.4,0.1c0.2-0.1,0.4-0.2,0.6-0.2s0.4,0,0.5,0c0.3,0,0.6,0.1,0.8,0.3
		c0.3,0.2,0.5,0.4,0.6,0.7c0.1,0.3,0.3,0.6,0.3,1c0,0.3,0,0.7-0.1,1c0,0.1-0.1,0.3-0.2,0.4c-0.1,0.1-0.2,0.2-0.3,0.3
		c-0.1,0.1-0.3,0.1-0.4,0.1s-0.3,0-0.4-0.1c-0.1,0-0.2,0-0.2,0c-0.1,0-0.1-0.1-0.2-0.2c0,0,0,0,0-0.1c0.2,0,0.4,0,0.5-0.2
		s0.1-0.3,0.1-0.5s-0.1-0.3-0.2-0.5c-0.1-0.1-0.3-0.1-0.5-0.1l0,0l0,0c-0.3,0.1-0.5,0.3-0.7,0.6s-0.3,0.6-0.4,0.9s-0.1,0.7-0.1,1.1
		c0,0.4,0,0.7,0,1c0.1,0.8,0.4,1.5,0.7,2.1h-0.1c0.3,0.5,0.7,1,1,1.2c0.3,0.3,0.6,0.5,0.9,0.6c0.3,0.1,0.6,0.1,0.8,0
		c0.3-0.1,0.5-0.3,0.7-0.5l0.2-0.4c0.1-0.2,0.2-0.4,0.2-0.6c0.1-0.2,0.1-0.4,0.1-0.7l-1-9.2L232.1,725.2z"/>
	<path d="M259.7,711c0,0.1,0,0.1,0,0.2l0,0l1.8,18.4c0.1-0.2,0.3-0.3,0.5-0.4c0.2-0.1,0.4,0,0.7,0.1l0.2,0.3
		c0.3,0.3,0.4,0.7,0.5,1.1c0,0.4,0,0.9-0.1,1.4s-0.3,1-0.5,1.5s-0.5,1-0.7,1.4c-0.3,0.4-0.5,0.8-0.8,1.1c-0.3,0.3-0.6,0.5-0.8,0.7
		c-0.7-0.6-1.3-1.2-1.8-1.8c-0.5-0.6-0.9-1.2-1.2-1.9c-0.3-0.7-0.6-1.4-0.7-2.2c-0.2-0.8-0.3-1.7-0.4-2.7l-1.2-13.4
		c0-0.4-0.2-0.7-0.5-1s-0.6-0.4-1.1-0.7l3-4h0.1c0,0,0,0,0.1,0c0.1-0.3,0.2-0.4,0.4-0.5c0.1,0,0.2,0,0.4,0c0.1,0.1,0.3,0.1,0.3,0.1
		c0.5,0.2,0.9,0.5,1.2,0.8C259.4,710,259.6,710.4,259.7,711z M259.3,711.2l-0.1-0.1c-0.1-0.5-0.2-0.9-0.5-1.2
		c-0.2-0.3-0.6-0.5-1-0.7c-0.1,0-0.2-0.1-0.2-0.1c-0.1-0.1-0.2-0.1-0.2,0l-0.1,0.4c0.4,0.1,0.7,0.3,1,0.5c0.2,0.3,0.4,0.6,0.5,1
		c0.1,0.4,0.2,1,0.3,1.6c0.1,0.6,0.1,1.4,0.2,2.2c0,0.3,0,0.7,0.1,1.3s0.1,1.1,0.2,1.8c0.1,0.7,0.1,1.4,0.2,2.2s0.2,1.6,0.2,2.3
		c0.1,0.8,0.1,1.6,0.2,2.3c0.1,0.7,0.1,1.5,0.1,2.1c0.1,0.5,0.1,0.9,0.1,1.5c0,0.5,0.1,1,0.2,1.5s0.3,0.9,0.5,1.2
		c0.2,0.3,0.6,0.5,1.1,0.6c0.3-0.1,0.5-0.3,0.5-0.4c0.1-0.2,0.1-0.4,0.1-0.6c0-0.3,0-0.5-0.1-0.6c-0.1-0.1-0.2-0.2-0.3-0.2
		c-0.1,0-0.2,0-0.3,0c-0.1,0.1-0.2,0.1-0.3,0.2c0.3,0.2,0.5,0.3,0.5,0.5s0,0.3-0.1,0.4c-0.1,0.1-0.3,0.1-0.4,0
		c-0.2-0.1-0.3-0.3-0.5-0.6L259.3,711.2L259.3,711.2z"/>
	<path d="M275,707.7c0.8,0,1.6,0.1,2.5,0.2c0.9,0.1,1.7,0.2,2.6,0.1c0.9-0.1,1.7-0.3,2.6-0.7c0.8-0.4,1.6-1.1,2.3-2.2
		c0.5,0.6,0.7,1.2,0.8,1.8c0.1,0.6-0.1,1.2-0.3,1.8c-0.3,0.6-0.7,1.1-1.2,1.7c-0.5,0.5-1.1,1-1.8,1.3c-0.3,0.2-0.7,0.3-1.2,0.4
		c-0.5,0.1-1,0.1-1.6,0.2c0.2,2.8,0.4,5.3,0.6,7.4c0.2,2.1,0.3,3.9,0.5,5.5c0.2,1.6,0.3,2.8,0.4,3.9c0.1,1,0.2,1.9,0.3,2.5l0.4-0.7
		v0.1c0.1-0.1,0.2-0.1,0.3-0.3c0.1-0.1,0.2-0.2,0.4-0.4c0.1-0.1,0.3-0.2,0.4-0.3s0.3-0.1,0.4-0.1s0.2,0,0.5,0.2
		c0.2,0.1,0.4,0.2,0.7,0.4c0.2,0.2,0.4,0.3,0.6,0.5s0.3,0.3,0.3,0.5c0,0.3-0.1,0.6-0.3,1c-0.3,0.4-0.6,0.8-0.9,1.3
		c-1,0.5-1.9,0.6-2.8,0.5c-0.9-0.1-1.7-0.4-2.4-1c-0.7-0.5-1.3-1.3-1.8-2.3s-0.8-2.1-1-3.4l-1.2-15.5c0.1,0,0.2,0,0.3,0
		c-0.5,0-0.9,0-1.3,0l0,0c-0.6,0-1.3,0-1.9,0.1c-0.6,0.1-1.2,0.3-1.6,0.6c-0.4,0.3-0.8,0.8-0.9,1.4c-0.2,0.6-0.1,1.4,0.2,2.4
		c0,0.1-0.1,0.2-0.2,0.2s-0.2,0-0.2-0.1c-0.2-0.4-0.3-0.8-0.4-1.3s-0.2-1-0.2-1.4c0-0.4,0.1-0.8,0.2-1.3s0.2-1,0.4-1.5
		c0.2-0.5,0.4-1,0.6-1.4c0.2-0.4,0.5-0.7,0.7-0.9c0.3-0.3,0.7-0.5,1.1-0.7s0.8-0.3,1.2-0.4c0.4-0.1,0.9-0.1,1.3-0.1
		S274.6,707.7,275,707.7z M279.9,729.4c0.1,0.6,0.2,1.1,0.3,1.6c0.1,0.5,0.3,1,0.4,1.4l-1.5-20c-0.1,0-0.2,0-0.3,0
		c-0.1,0-0.2,0-0.3,0L279.9,729.4z M282.7,731.3c-0.2,0-0.3,0.1-0.5,0.2c-0.2,0.1-0.2,0.2-0.3,0.4c0.2,0.2,0.3,0.3,0.4,0.3
		s0.2,0.1,0.4,0.1v0.2c-0.1,0-0.3-0.1-0.5-0.1s-0.5-0.1-0.6-0.2c0.1,0.4,0.2,0.7,0.2,0.9c0,0.2,0.2,0.3,0.2,0.3
		c0.2,0,0.4-0.1,0.6-0.2c0.2-0.1,0.4-0.2,0.6-0.4c0.1-0.3,0.1-0.6-0.1-0.9C283.1,731.6,282.9,731.4,282.7,731.3z"/>
	<path d="M308.8,711.1c-0.1,0.1-0.2,0.1-0.3,0.2c-0.1,0.1-0.2,0.2-0.4,0.3c-0.1,0.1-0.3,0.2-0.4,0.3s-0.3,0.1-0.4,0.1
		s-0.2-0.1-0.5-0.2c-0.2-0.1-0.4-0.3-0.6-0.4c-0.2-0.1-0.4-0.3-0.6-0.5s-0.3-0.4-0.3-0.5c0-0.3,0.1-0.7,0.4-1.1
		c0.3-0.4,0.6-0.9,1-1.3c0.4-0.4,0.8-0.9,1.2-1.3c0.4-0.4,0.7-0.7,0.9-1c0.2-0.2,0.3-0.3,0.5-0.4c0.1-0.1,0.3-0.2,0.4-0.2
		c0.7,0.4,1.2,0.7,1.6,0.9c0.4,0.2,0.6,0.3,0.8,0.4c0.2,0.1,0.3,0.1,0.3,0.1l0.1,1.5c0.2-0.2,0.5-0.5,0.9-0.8s0.7-0.7,1.1-1
		s0.7-0.6,0.9-0.9c0.3-0.3,0.5-0.4,0.5-0.5c0.4,0,0.9,0.2,1.5,0.4c0.6,0.2,1.2,0.4,1.9,0.7c0.6,0.3,1.2,0.6,1.8,1
		c0.6,0.3,1,0.7,1.3,1l0.5,10.8c0,0.1-0.1,0.2-0.5,0.5s-0.8,0.5-1.4,0.9c-0.6,0.4-1.3,0.7-2.1,1c-0.8,0.3-1.7,0.6-2.6,0.9
		c-0.2-0.1-0.4-0.1-0.6-0.1s-0.4-0.1-0.7-0.1c-0.2-0.1-0.5-0.2-0.8-0.3s-0.7-0.4-1.1-0.6l0.4,7.7c0.1,0.5,0.2,1.1,0.3,1.6
		c0.1,0.5,0.2,1,0.4,1.4c0.2,0.4,0.4,0.7,0.6,1s0.6,0.4,1,0.4c0.1,0.1,0.1,0.1,0.1,0.2c0,0.1,0,0.1-0.1,0.2c-0.8,0.2-1.6,0.2-2.3,0
		c-0.7-0.3-1.4-0.7-1.9-1.3c-0.6-0.6-1-1.4-1.4-2.2c-0.4-0.8-0.6-1.9-0.7-2.9L308.8,711.1z M307.9,709.3c0.2,0,0.3,0,0.4,0.1
		c0.1,0.1,0.2,0.1,0.4,0.2l0.1,0.1v-1.1c0-0.1-0.1-0.2-0.2-0.2s-0.3,0-0.4,0c-0.3,0-0.4,0.1-0.6,0.3c-0.1,0.2-0.2,0.5-0.2,0.7
		s0,0.5,0.2,0.8c0.1,0.3,0.3,0.4,0.4,0.5c0.2,0,0.4-0.1,0.5-0.2c0.2-0.1,0.2-0.3,0.3-0.4c-0.2-0.2-0.3-0.3-0.4-0.4
		c-0.1-0.1-0.2-0.1-0.4-0.1L307.9,709.3z M314.4,709c-0.5,0.4-0.9,0.8-1.1,1.3s-0.5,1-0.6,1.5v0.2c0,0.1,0.1,0.3,0.1,0.4
		c0,0.1,0.1,0.3,0.1,0.4c0.2,0.3,0.4,0.5,0.8,0.6c0.4,0.1,0.7,0.2,1.1,0.2s0.8,0,1.2-0.1c0.4-0.1,0.7-0.2,1-0.4l-0.2-3.9
		c-0.3-0.1-0.6-0.2-0.9-0.3s-0.6-0.2-0.9-0.2C314.9,708.7,314.7,708.8,314.4,709z M313.6,715.2c0.2-0.1,0.4-0.1,0.7-0.1
		c0.3,0,0.6-0.1,0.9-0.1s0.6,0,1,0.1c0.3,0.1,0.6,0.1,0.9,0.2l-0.1-1.7c-0.3,0.2-0.7,0.3-1.1,0.4c-0.4,0.1-0.8,0.1-1.2,0.1
		s-0.8-0.1-1.1-0.2c-0.4-0.1-0.7-0.3-0.9-0.5l0.1,2.5c0.1-0.1,0.2-0.2,0.3-0.4C313.3,715.3,313.5,715.2,313.6,715.2z M314.2,717.1
		c0.4-0.1,0.8,0,1.2,0.1c0.4,0.1,0.6,0.4,0.7,0.7s0.2,0.6,0.1,1c-0.1,0.4-0.3,0.7-0.7,1c0.2-0.3,0.2-0.5,0.1-0.7s-0.3-0.4-0.6-0.5
		c-0.2-0.1-0.5-0.1-0.7,0.1c-0.2,0.1-0.4,0.4-0.4,0.9l0.4,0.5c0.2,0.1,0.5,0.1,0.7,0.2c0.2,0.1,0.5,0.1,0.7,0.1
		c0.6-0.2,1.2-0.4,1.8-0.7l-0.2-3.9c-0.6-0.3-1.3-0.5-2-0.5s-1.4,0.2-1.9,0.6c-0.1,0.1-0.2,0.2-0.3,0.4l0.1,1.8
		c0.1-0.3,0.2-0.5,0.4-0.7C313.6,717.3,313.9,717.1,314.2,717.1z M317.7,719.6c0.1-0.1,0.2-0.1,0.3-0.2l0,0l-0.5-9.9
		c-0.1,0-0.1-0.1-0.2-0.1c0,0-0.1-0.1-0.2-0.1L317.7,719.6z M318.4,718.9c0.1-0.1,0.2-0.3,0.4-0.5c0.1-0.2,0.3-0.4,0.4-0.6l-0.3-7.5
		c-0.3-0.3-0.6-0.5-0.9-0.7L318.4,718.9z"/>
	<path d="M334.2,731.6L334.2,731.6l-3.1-2.2l-0.3-12.8c0-0.1,0-0.3-0.1-0.5s-0.2-0.4-0.3-0.5c-0.1-0.1-0.3-0.2-0.4-0.2
		s-0.2,0.1-0.3,0.3c-0.1,0.2,0,0.3,0.1,0.4c0.1,0.1,0.3,0.1,0.5,0l-0.1,0.3l0,0c0,0.1-0.1,0.2-0.1,0.3c-0.1,0.1-0.2,0.2-0.3,0.2
		c-0.1,0.1-0.2,0.1-0.4,0.1c-0.1,0-0.2-0.1-0.4-0.1c-0.1-0.1-0.2-0.2-0.3-0.3s-0.1-0.2-0.1-0.4s0.1-0.3,0.2-0.4
		c0.1-0.1,0.2-0.3,0.4-0.4c0.2-0.1,0.3-0.2,0.4-0.3s0.3-0.2,0.4-0.2l0.3-0.2c0.3-0.1,0.5-0.3,0.7-0.5s0.5-0.4,0.7-0.5h0.1
		c0.3,0.2,0.6,0.5,0.9,0.9c0.3,0.4,0.6,0.8,0.8,1.1l1.5-1.4c0.1,0.1,0.3,0.2,0.6,0.3c0.3,0.1,0.6,0.3,0.9,0.4c0.3,0.1,0.7,0.3,1,0.5
		c0.4,0.2,0.7,0.3,1,0.5s0.6,0.3,0.8,0.4c0.2,0.1,0.3,0.3,0.3,0.4c0,0.3-0.1,0.6-0.2,0.9s-0.3,0.6-0.5,0.9s-0.4,0.5-0.6,0.8
		s-0.5,0.4-0.7,0.5c-0.1,0.1-0.2,0.2-0.3,0.2c-0.1,0-0.2-0.1-0.2-0.3c0.2-0.4,0.3-0.7,0.2-1.1c-0.1-0.4-0.3-0.7-0.5-1
		c-0.3-0.3-0.6-0.6-1-0.8c-0.4-0.2-0.8-0.4-1.1-0.6l-1,0.7l0.2,6.9L334.2,731.6z"/>
	<path d="M354.5,727.3c-0.2,0.4-0.5,0.9-0.9,1.4c-0.4,0.6-1,1.2-1.9,1.8c-0.1,0.1-0.3,0.1-0.5,0.2c-0.2,0.1-0.4,0.1-0.5,0.1
		c-0.7,0.1-1.4,0.1-2,0c-0.6-0.1-1.2-0.3-1.7-0.6c-0.5-0.3-0.9-0.7-1.3-1.2c-0.4-0.5-0.6-1-0.8-1.6l0,0c-0.3-0.7-0.4-1.5-0.4-2.3
		s0.1-1.7,0.3-2.5c0.1-0.4,0.3-0.7,0.6-1v-0.3c-0.2-0.2-0.4-0.4-0.5-0.7c-0.1-0.3-0.3-0.6-0.4-0.9s-0.1-0.7-0.1-1s0-0.6,0.1-0.9
		c0-0.1,0.1-0.3,0.2-0.6c0.1-0.3,0.2-0.6,0.4-0.9c0.2-0.4,0.5-0.7,0.9-1.2c0.4-0.4,0.9-0.9,1.5-1.4c0.1-0.1,0.3-0.1,0.5-0.2
		c0.2-0.1,0.4-0.1,0.5-0.1c1-0.2,1.9-0.1,2.7,0.2c0.8,0.3,1.5,0.8,2.1,1.4c0.3,0.3,0.5,0.6,0.7,1c0.2,0.4,0.3,0.9,0.4,1.6v0.1
		l0.1,8.5V727.3z M351.4,717.5c-0.1-0.2-0.2-0.3-0.2-0.5s-0.2-0.3-0.2-0.4l-0.3-0.4c-0.4-0.5-0.9-0.9-1.3-1
		c-0.5-0.1-0.9-0.1-1.3,0.1c-0.4,0.2-0.7,0.5-0.9,1c-0.2,0.4-0.4,0.9-0.4,1.4c0.1,0.3,0.1,0.5,0.2,0.8c0.1,0.2,0.2,0.5,0.3,0.7
		c0.1,0.1,0.2,0.2,0.3,0.3c0.1,0.1,0.3,0.1,0.4,0.2c0.2-0.1,0.4-0.1,0.6-0.1c0.2,0,0.4,0,0.5,0c0.3,0.1,0.5,0.2,0.8,0.4
		c0.2,0.2,0.4,0.5,0.6,0.8c0.1,0.3,0.2,0.6,0.2,1c0,0.4-0.1,0.7-0.2,1c-0.1,0.1-0.1,0.2-0.3,0.4c-0.1,0.1-0.2,0.2-0.4,0.3
		c-0.1,0.1-0.3,0.1-0.4,0.1c-0.1,0-0.3-0.1-0.4-0.1c-0.1,0-0.2,0-0.2-0.1c-0.1,0-0.1-0.1-0.2-0.2c0,0,0,0,0-0.1
		c0.2,0.1,0.4,0,0.5-0.1c0.1-0.1,0.2-0.3,0.2-0.5s-0.1-0.3-0.2-0.5c-0.1-0.1-0.3-0.2-0.5-0.1l0,0l0,0c-0.3,0.1-0.6,0.3-0.8,0.5
		s-0.4,0.6-0.5,0.9s-0.2,0.7-0.2,1c0,0.4-0.1,0.7-0.1,1c0,0.8,0.2,1.6,0.5,2.2l0,0c0.3,0.6,0.6,1,0.9,1.3c0.3,0.3,0.6,0.5,0.9,0.6
		c0.3,0.1,0.6,0.1,0.8,0.1c0.3-0.1,0.5-0.2,0.7-0.4l0.3-0.3c0.1-0.2,0.2-0.4,0.3-0.6s0.1-0.4,0.2-0.7l-0.2-9.2L351.4,717.5z"/>
	<path d="M367.4,709.9c0.1,0.3,0.1,0.6,0.2,0.9c0,0.3,0.1,0.6,0.2,0.8l0.1,0.4c0,0.1,0.1,0.3,0.1,0.4c0.1,0.2,0.1,0.3,0.1,0.5
		s0,0.4,0,0.5c0,0.2-0.1,0.3-0.1,0.4c-0.1,0.1-0.2,0.2-0.3,0.2s-0.2,0.1-0.4,0c-0.1,0-0.2-0.1-0.4-0.1c-0.1-0.1-0.2-0.2-0.3-0.3
		c-0.1-0.1-0.1-0.2-0.1-0.4c0-0.1,0.1-0.2,0.1-0.4l0,0l0.1-0.3c0.1,0.2,0.2,0.3,0.4,0.3s0.3,0,0.4-0.2c0.1-0.2,0.1-0.4,0-0.5
		c-0.1-0.1-0.3-0.1-0.4-0.1c-0.2,0-0.4,0.1-0.5,0.2c-0.2,0.1-0.3,0.2-0.3,0.3l-1.8,2.2l-0.1,12.6c0,0.2,0.1,0.4,0.1,0.7
		c0.1,0.3,0.1,0.5,0.2,0.8c0.1,0.3,0.2,0.5,0.3,0.8c0.1,0.2,0.2,0.5,0.3,0.7c0.1,0.3,0.3,0.5,0.4,0.7c0.1,0.2,0.2,0.3,0.4,0.4
		c0.1,0.1,0.3,0.2,0.4,0.3c0.2,0.1,0.3,0.2,0.5,0.3c0,0,0,0,0.1,0s0,0,0.1,0.1v0.1l-1.6-0.3c-1.2-0.6-2.1-1.3-2.7-2.3
		c-0.6-1-1-2.1-1.2-3.4l-0.1-19.3c-0.9,0.5-1.7,1-2.4,1.6c0.3-0.7,0.8-1.4,1.3-1.9c0.6-0.6,1.1-1,1.7-1.4c0.6-0.4,1.2-0.7,1.7-0.9
		c0.5-0.2,1-0.4,1.3-0.4c0.1,0,0.2,0,0.4-0.1c0.2,0,0.4-0.1,0.7-0.1s0.5,0,0.7,0s0.4,0.1,0.6,0.2l2.9,3.1c0,0.3-0.1,0.6-0.3,0.8
		s-0.5,0.4-0.8,0.5c-0.3,0.1-0.7,0.2-1.1,0.3s-0.8,0.1-1.3,0c-0.4,0-0.8-0.1-1.2-0.2c-0.4-0.1-0.7-0.3-1-0.5
		c0.4-0.1,0.8-0.2,1.2-0.3c0.4-0.1,0.8-0.2,1.2-0.3s0.6-0.3,0.9-0.6c0.2-0.3,0.4-0.6,0.4-1.1c-0.7-0.1-1.4-0.2-2.1-0.1
		c-0.7,0.1-1.3,0.1-2,0.3v6l1-1.6c0.2-0.1,0.4-0.1,0.5-0.2c0.1,0,0.2-0.1,0.4-0.1c0.1,0,0.2,0,0.3,0
		C366.9,709.8,367.1,709.8,367.4,709.9L367.4,709.9z"/>
	<path d="M379.1,723C379,723,379,723,379.1,723C379,723,379,723,379.1,723c-0.4,0.2-0.8,0.3-1.2,0.3s-0.8-0.1-1.4-0.5v4.7
		c0.1,0,0.2,0.1,0.3,0.3c0.1,0.2,0.2,0.3,0.3,0.3h0.3c0.9,0.1,1.7,0,2.4-0.3c0.8-0.3,1.5-0.8,2.2-1.3s1.3-1.1,1.9-1.8
		c0.6-0.6,1.1-1.2,1.5-1.7v0.3c0,0.7-0.2,1.5-0.6,2.4c-0.4,0.9-0.9,1.7-1.6,2.4c-0.7,0.7-1.5,1.4-2.5,1.9s-2.1,0.8-3.3,0.8
		c-0.1,0-0.2-0.1-0.4-0.2c-0.1-0.1-0.3-0.2-0.4-0.3c-0.2-0.2-0.5-0.4-0.8-0.7s-0.6-0.6-0.9-0.8c-0.4-0.3-0.8-0.6-1.2-1v-11.6
		c0.1,0,0.3-0.1,0.6-0.3s0.6-0.3,0.9-0.6c0.3-0.2,0.7-0.5,1-0.8s0.6-0.7,0.9-1l6.6,2.6c0.2,0.6,0.3,1.2,0.1,1.9s-0.5,1.3-1,2
		s-1,1.2-1.7,1.8C380.5,722.2,379.8,722.7,379.1,723z M376.5,720.7c0.1-0.2,0.3-0.4,0.6-0.5c0.3-0.1,0.6-0.1,0.8,0
		c0.1,0.1,0.2,0.3,0.2,0.5s0,0.4-0.2,0.6l-0.1-0.1c0-0.1-0.1-0.2-0.3-0.2c-0.1,0-0.3,0-0.4,0.1c-0.1,0.1-0.2,0.2-0.3,0.3
		s-0.1,0.3,0,0.5s0.2,0.3,0.4,0.4c0.2,0.1,0.5,0,0.8-0.1c0.3-0.1,0.6-0.3,1-0.5c0.3-0.2,0.6-0.5,1-0.9c0.3-0.3,0.6-0.7,0.8-1
		s0.4-0.7,0.5-1s0.1-0.6,0.1-0.9l-4.1-1.6l-0.9,0.6L376.5,720.7z"/>
	<path d="M404.1,713.1l-0.2,0.3c-0.3,0.6-0.7,1.1-1.2,1.5l-4.4,5.5c0.4,0.3,0.9,0.6,1.4,0.9s0.9,0.6,1.4,0.8
		c0.5,0.3,0.9,0.5,1.3,0.8c0.4,0.3,0.8,0.5,1.2,0.8c-0.1,0.4-0.2,0.8-0.4,1.3s-0.5,1-0.8,1.5l0,0c-0.2,0.4-0.4,0.9-0.8,1.4
		c-0.3,0.5-0.6,1-1,1.4c-0.4,0.4-0.7,0.8-1.1,1.1c-0.4,0.3-0.7,0.5-1,0.5c-0.7,0-1.4,0-2.2-0.2s-1.5-0.4-2.2-0.8
		c-0.7-0.4-1.3-0.8-1.8-1.4c-0.5-0.6-0.8-1.3-0.9-2.1c0-0.7,0.1-1.3,0.3-1.8s0.6-1,1-1.3s0.9-0.5,1.4-0.5c0.5-0.1,1,0.1,1.5,0.3
		l0.3-0.3l-0.3-0.2c-1-0.6-1.8-1.4-2.5-2.4c-0.7-0.9-1.2-2-1.6-3c0.5-0.1,1-0.3,1.5-0.6c0.4-0.3,0.9-0.7,1.2-1.1
		c0.4-0.4,0.8-0.9,1.1-1.4c0.4-0.5,0.7-1,1.1-1.5c0.4,0.3,0.8,0.5,1.3,0.6c0.5,0.1,1,0.1,1.4,0.2c0.7,0,1.5,0,2.2,0s1.4-0.1,2.2-0.2
		l0.2-0.2L404.1,713.1z M400.1,725.5c-0.6-0.4-1.1-0.7-1.5-0.9c-0.4-0.3-0.7-0.5-1-0.7s-0.5-0.4-0.7-0.5c-0.2-0.1-0.4-0.3-0.6-0.5
		l-0.3,0.3c0.1,0.1,0.2,0.1,0.3,0.2c0.1,0.1,0.2,0.2,0.3,0.2c0.1,0.1,0.2,0.2,0.2,0.4c0.1,0.2,0.1,0.3,0.1,0.4
		c0.1,0.5,0.1,0.9-0.2,1.2c-0.2,0.4-0.5,0.6-1,0.8c-0.1,0-0.3,0.1-0.4,0c-0.1,0-0.3,0-0.4,0c0,0-0.1,0-0.1-0.1h-0.1
		c0,0-0.1-0.1-0.2-0.1c-0.1,0-0.1-0.1-0.2-0.2c-0.1-0.1-0.1-0.3-0.1-0.5s0-0.4,0.1-0.7s0.3-0.5,0.5-0.8c-0.3-0.1-0.5,0-0.7,0
		c-0.2,0.1-0.5,0.2-0.7,0.4c-0.2,0.7-0.1,1.2,0.3,1.7c0.3,0.5,0.8,0.9,1.4,1.2c0.6,0.3,1.2,0.6,2,0.7c0.7,0.2,1.4,0.2,2.1,0.3
		c0.4,0,0.7-0.1,1-0.3s0.4-0.5,0.5-0.8s0.1-0.6,0-0.9C400.6,726,400.4,725.8,400.1,725.5z M395.9,724.9c-0.1-0.3-0.3-0.6-0.7-0.7
		c-0.3,0.4-0.5,0.7-0.5,1s0.1,0.5,0.2,0.7c0.1,0.2,0.3,0.3,0.5,0.3s0.3-0.1,0.4-0.4l0.1-0.1C396,725.4,396,725.1,395.9,724.9z
		 M395,716c0.2,1,0.6,1.8,1.1,2.5s1.2,1.3,1.9,1.8l3.8-4.8c-0.5,0.2-1,0.4-1.5,0.5c-0.5,0.1-1.1,0.2-1.7,0.2c-0.6,0-1.2,0-1.8,0
		C396.2,716.1,395.6,716,395,716z"/>
	<path d="M422.8,713.7l-0.2,0.3c-0.3,0.6-0.7,1.1-1.2,1.4l-4.5,5.4c0.4,0.3,0.9,0.6,1.3,0.9c0.5,0.3,0.9,0.6,1.4,0.9
		s0.9,0.5,1.3,0.8c0.4,0.3,0.8,0.5,1.2,0.8c-0.1,0.4-0.2,0.8-0.4,1.3s-0.5,1-0.8,1.4l0,0c-0.2,0.4-0.5,0.9-0.8,1.4s-0.7,1-1,1.4
		c-0.4,0.4-0.7,0.8-1.1,1.1c-0.4,0.3-0.7,0.4-1,0.4c-0.7,0-1.4-0.1-2.2-0.2c-0.8-0.2-1.5-0.4-2.2-0.8c-0.7-0.4-1.3-0.9-1.7-1.5
		c-0.5-0.6-0.8-1.3-0.8-2.1c0-0.7,0.1-1.3,0.3-1.8s0.6-1,1-1.3s0.9-0.5,1.4-0.5s1,0.1,1.5,0.4l0.3-0.3l-0.3-0.2
		c-1-0.7-1.8-1.5-2.4-2.4c-0.6-0.9-1.2-2-1.5-3.1c0.5-0.1,1-0.3,1.5-0.6c0.4-0.3,0.9-0.7,1.3-1.1c0.4-0.4,0.8-0.9,1.1-1.4
		c0.4-0.5,0.7-1,1.1-1.4c0.4,0.3,0.8,0.5,1.3,0.6c0.5,0.1,1,0.1,1.4,0.2c0.7,0.1,1.5,0.1,2.2,0c0.7-0.1,1.4-0.1,2.2-0.1l0.2-0.2
		L422.8,713.7z M418.7,726c-0.6-0.4-1.1-0.7-1.5-1s-0.7-0.5-1-0.7s-0.5-0.4-0.7-0.5c-0.2-0.2-0.4-0.3-0.6-0.5l-0.3,0.3
		c0.1,0.1,0.2,0.1,0.3,0.2c0.1,0.1,0.2,0.2,0.3,0.2c0.1,0.1,0.2,0.2,0.2,0.4s0.1,0.3,0.1,0.4c0.1,0.5,0,0.9-0.2,1.2
		c-0.2,0.4-0.6,0.6-1,0.8c-0.1,0-0.3,0.1-0.4,0c-0.1,0-0.3,0-0.4,0c0,0-0.1,0-0.1-0.1c0,0-0.1,0-0.1-0.1c0,0-0.1-0.1-0.2-0.1
		c-0.1,0-0.1-0.1-0.2-0.2c-0.1-0.1-0.1-0.3-0.1-0.5s0-0.4,0.1-0.7c0.1-0.3,0.3-0.5,0.5-0.8c-0.2-0.1-0.5-0.1-0.7,0
		c-0.2,0.1-0.5,0.2-0.7,0.4c-0.2,0.6-0.1,1.2,0.2,1.7s0.8,0.9,1.4,1.2c0.6,0.3,1.2,0.6,2,0.7c0.8,0.1,1.4,0.3,2.1,0.3
		c0.4,0,0.7-0.1,1-0.3s0.4-0.5,0.5-0.7c0.1-0.3,0.1-0.6,0-0.9C419.2,726.6,419,726.3,418.7,726z M414.5,725.3
		c-0.1-0.3-0.3-0.6-0.7-0.7c-0.3,0.4-0.5,0.7-0.5,1s0.1,0.5,0.2,0.7c0.1,0.2,0.3,0.3,0.5,0.3s0.3-0.1,0.4-0.4l0.1-0.1
		C414.6,725.8,414.6,725.6,414.5,725.3z M413.7,716.4c0.2,1,0.6,1.8,1.1,2.5s1.1,1.3,1.8,1.8l3.9-4.7c-0.5,0.2-1,0.4-1.5,0.5
		c-0.5,0.1-1.1,0.1-1.7,0.2c-0.6,0-1.2,0-1.8-0.1C414.9,716.5,414.3,716.5,413.7,716.4z"/>
	<path d="M432.4,708.9C432.4,708.9,432.5,708.8,432.4,708.9c0.1-0.1,0.2-0.1,0.2,0c0,0.3,0.1,0.6,0.2,1c0.2,0.4,0.4,0.7,0.7,1.1
		c0.3,0.3,0.6,0.6,0.9,0.9c0.4,0.2,0.7,0.4,1.1,0.3c0.1,0,0,0-0.2,0.1c-0.2,0.1-0.4,0.2-0.7,0.3s-0.5,0.2-0.7,0.3s-0.4,0.1-0.4,0.1
		c-0.3,0.1-0.5,0.1-0.7,0c-0.2-0.1-0.4-0.2-0.5-0.4c-0.1-0.2-0.2-0.4-0.3-0.6s-0.2-0.4-0.3-0.6s-0.2-0.4-0.4-0.5
		c-0.2-0.1-0.4-0.2-0.6-0.2c0,0.5,0.1,0.9,0.4,1.3c0.3,0.4,0.6,0.7,0.9,0.9c0.2,0.1,0.2,0.2,0.2,0.3c-0.1,0.1-0.2,0.1-0.4,0.1
		s-0.5,0-0.7-0.1c-0.2-0.1-0.6-0.2-0.9-0.3s-0.6-0.4-0.8-0.8c-0.2-0.3-0.4-0.7-0.5-1.3c0.2-0.1,0.4-0.2,0.7-0.3s0.7-0.3,1-0.4
		c0.4-0.1,0.7-0.3,1-0.5S432.2,709.2,432.4,708.9L432.4,708.9z M433.6,715.7c-0.2,0.4-0.3,0.8-0.4,1.2c-0.1,0.4-0.2,0.8-0.2,1.2l0,0
		l-0.6,11.2c-0.1,0.1,0,0.3,0,0.5c0.1,0.2,0.2,0.4,0.3,0.5c0.1,0.1,0.2,0.2,0.4,0.3s0.3-0.1,0.4-0.3c0.1-0.2,0.1-0.3-0.1-0.4
		c-0.2-0.1-0.3-0.1-0.5,0l0.1-0.3l0,0c0-0.1,0.1-0.2,0.2-0.3c0.1-0.1,0.2-0.2,0.3-0.2c0.3-0.1,0.5,0,0.7,0.1
		c0.2,0.1,0.3,0.4,0.3,0.7c0,0.2-0.1,0.3-0.2,0.4c-0.1,0.1-0.2,0.2-0.4,0.4c-0.2,0.1-0.3,0.2-0.5,0.3c-0.2,0.1-0.3,0.2-0.4,0.2
		l-0.3,0.2c-0.3,0.1-0.5,0.3-0.8,0.4c-0.2,0.2-0.5,0.3-0.7,0.5h-0.1c-0.7-0.5-1.3-1.2-1.7-2.1c0.1-1.8,0.1-3.3,0.2-4.6
		c0.1-1.2,0.1-2.3,0.1-3.1c0-0.8,0.1-1.4,0.1-1.9c0-0.4,0-0.8,0-1s0-0.3,0-0.4c0.1-0.6,0.3-1.1,0.5-1.7c0.2-0.5,0.5-1,0.8-1.4
		c0.3-0.4,0.7-0.8,1.2-1.2s1-0.7,1.7-1l1.6-0.2c0,0,0,0,0,0.1c0,0.1-0.1,0.1-0.1,0.1c-0.2,0.1-0.4,0.2-0.5,0.3
		c-0.2,0.1-0.3,0.2-0.4,0.3c-0.1,0.1-0.3,0.2-0.4,0.4C433.9,715.2,433.7,715.4,433.6,715.7z"/>
	<path d="M449.8,729.3c-0.2,0.4-0.6,0.8-1,1.4c-0.4,0.5-1.1,1.1-2,1.7c-0.1,0.1-0.3,0.1-0.5,0.2c-0.2,0.1-0.4,0.1-0.5,0.1
		c-0.7,0.1-1.4,0-2-0.1c-0.6-0.2-1.2-0.4-1.6-0.8c-0.5-0.3-0.9-0.8-1.2-1.3s-0.5-1-0.7-1.6l0,0c-0.2-0.7-0.3-1.5-0.2-2.4
		c0-0.8,0.2-1.7,0.5-2.5c0.1-0.4,0.4-0.7,0.6-1v-0.3c-0.2-0.2-0.3-0.4-0.5-0.7c-0.1-0.3-0.2-0.6-0.3-0.9s-0.1-0.7-0.1-1
		s0.1-0.6,0.2-0.9c0.1-0.1,0.1-0.3,0.2-0.6c0.1-0.2,0.2-0.5,0.5-0.9c0.2-0.3,0.5-0.7,1-1.1c0.4-0.4,1-0.8,1.6-1.2
		c0.1-0.1,0.3-0.1,0.5-0.1s0.4-0.1,0.5-0.1c1-0.1,1.9,0,2.7,0.4c0.8,0.4,1.5,0.9,2,1.5c0.3,0.3,0.5,0.7,0.6,1.1
		c0.2,0.4,0.2,1,0.3,1.7v0.1l-0.5,8.4L449.8,729.3z M447.4,719.3c-0.1-0.2-0.1-0.3-0.2-0.5s-0.1-0.3-0.2-0.4l-0.2-0.4
		c-0.4-0.6-0.8-0.9-1.2-1.1s-0.9-0.1-1.3,0c-0.4,0.2-0.7,0.5-1,0.9c-0.3,0.4-0.4,0.9-0.5,1.4c0,0.3,0.1,0.5,0.1,0.8
		c0,0.2,0.1,0.5,0.2,0.7c0.1,0.1,0.2,0.2,0.3,0.3c0.1,0.1,0.3,0.1,0.4,0.2c0.2-0.1,0.4-0.1,0.6-0.1c0.2,0,0.4,0,0.5,0.1
		c0.3,0.1,0.5,0.2,0.7,0.5c0.2,0.2,0.4,0.5,0.5,0.8s0.2,0.6,0.1,1c0,0.4-0.1,0.7-0.3,1c-0.1,0.1-0.2,0.2-0.3,0.3
		c-0.1,0.1-0.2,0.2-0.4,0.2c-0.1,0.1-0.3,0.1-0.4,0.1c-0.1,0-0.3-0.1-0.4-0.2c-0.1,0-0.2,0-0.2-0.1c-0.1-0.1-0.1-0.1-0.2-0.2
		c0,0,0,0,0-0.1c0.2,0.1,0.4,0,0.5-0.1c0.1-0.1,0.2-0.3,0.2-0.5s0-0.3-0.1-0.5c-0.1-0.1-0.2-0.2-0.5-0.1l0,0l0,0
		c-0.3,0.1-0.6,0.2-0.8,0.5c-0.2,0.2-0.4,0.5-0.5,0.9c-0.1,0.3-0.2,0.7-0.3,1c-0.1,0.4-0.1,0.7-0.1,1c0,0.8,0.1,1.6,0.4,2.2l0,0
		c0.2,0.6,0.5,1.1,0.8,1.4s0.5,0.6,0.8,0.7c0.3,0.1,0.5,0.2,0.8,0.1c0.3-0.1,0.5-0.2,0.7-0.4l0.3-0.3c0.1-0.2,0.2-0.3,0.3-0.5
		s0.2-0.4,0.2-0.7l0.5-9.2L447.4,719.3z"/>
	<path d="M459.5,725.3c-0.3,0.7-0.4,1.3-0.4,1.9c0,0.6,0.1,1.1,0.3,1.6s0.5,0.9,0.9,1.4c0.4,0.4,0.9,0.9,1.4,1.4
		c-0.4,0.4-0.8,0.9-1.2,1.2c-0.4,0.4-0.9,0.8-1.4,1.2c-0.2,0-0.5-0.1-0.7-0.4c-0.2-0.2-0.4-0.4-0.6-0.6c-0.3-0.3-0.6-0.7-0.8-1.1
		c-0.2-0.4-0.4-0.8-0.6-1.3c-0.2-0.5-0.3-0.9-0.4-1.4c-0.1-0.5-0.1-0.9-0.1-1.4c0-1,0.2-1.9,0.6-2.6c0.4-0.8,0.8-1.6,1.3-2.3
		c0.2-0.2,0.3-0.5,0.5-0.7c0.2-0.3,0.3-0.5,0.4-0.8c0.2-0.4,0.2-0.8,0-1.2c-0.1-0.4-0.3-0.7-0.6-1s-0.5-0.5-0.8-0.7
		s-0.5-0.3-0.7-0.3l3.6-2.4c0.2,0.3,0.5,0.5,0.7,0.7s0.4,0.5,0.6,1c0.2,0.4,0.3,0.9,0.3,1.4l2.5-2.6l0,0v-0.1l2.8,3.8l-0.5,6.6
		c-0.1,1-0.2,2-0.3,2.8c-0.2,0.9-0.4,1.6-0.8,2.3c-0.4,0.7-1,1.3-1.7,1.9c-0.7,0.5-1.6,1-2.7,1.4l-2,0.1l0.1-0.1
		c0.1,0,0.1-0.1,0.1-0.1c0.2-0.1,0.5-0.2,0.7-0.3c0.2-0.1,0.4-0.2,0.6-0.3c0.2-0.1,0.4-0.3,0.5-0.4c0.2-0.2,0.3-0.4,0.5-0.7
		c0.3-0.5,0.6-1.1,0.9-1.6c0.3-0.5,0.5-1.1,0.8-1.7l0.7-9.5l-0.5-0.7l-2.4,2.2c-0.3,0.6-0.6,1.1-0.9,1.7
		C460,724.2,459.7,724.7,459.5,725.3z"/>
	<path d="M482.8,735.7c-1.4-0.8-2.2-2.1-2.6-3.7l0,0c0,0.1-0.1,0.1-0.2,0.2c-0.1,0.1-0.1,0.2-0.2,0.3c-0.1,0.1-0.2,0.2-0.3,0.4
		s-0.3,0.4-0.5,0.6s-0.5,0.4-0.7,0.5c-0.3,0.2-0.5,0.3-0.8,0.5s-0.5,0.3-0.7,0.5c-0.7,0-1.3-0.3-1.9-0.8c-0.6-0.5-1.1-1.1-1.5-1.9
		s-0.6-1.6-0.8-2.6c-0.1-1,0-2,0.3-3c0.4-0.3,0.8-0.6,1.2-0.9s0.9-0.5,1.3-0.7c0.4-0.2,0.9-0.5,1.3-0.8c0.4-0.3,0.8-0.6,1.2-0.9
		l0.2,0.1l0,0c0.5,0.3,1,0.7,1.4,1.2s0.8,0.9,1.1,1.4l0.5-6.2l-7.6-0.7l2.2-2.4l8.3,0.7l-1,12.1l0,0c-0.1,0.4-0.1,0.9-0.1,1.2
		c0.1,0.4,0.2,0.7,0.4,1s0.3,0.5,0.5,0.8c0.2,0.2,0.3,0.4,0.5,0.5L482.8,735.7z M476.1,730.6c0.4,0.7,0.7,1.2,1.1,1.5
		c0.4,0.3,0.7,0.4,1,0.4s0.5-0.1,0.7-0.4c0.2-0.2,0.3-0.4,0.4-0.7c-0.1,0.1-0.3,0.1-0.4,0c-0.2-0.1-0.3-0.1-0.3-0.1
		c-0.2-0.2-0.3-0.4-0.4-0.6c0-0.2,0-0.4,0.1-0.5c0.1-0.1,0.3-0.2,0.4-0.3s0.4,0,0.6,0c0.1,0,0.2,0.1,0.3,0.2
		c0.1,0.1,0.2,0.1,0.3,0.2l-0.3-0.4c-0.2-0.4-0.5-0.7-0.8-1.1c-0.3-0.4-0.6-0.8-0.9-1.1c-0.3-0.4-0.6-0.7-1-1s-0.7-0.6-1.1-0.9
		c-0.1,0.4-0.2,0.8-0.2,1.3c-0.1,0.5-0.1,0.9-0.1,1.3c0,0.4,0.1,0.9,0.1,1.3C475.7,730,475.9,730.3,476.1,730.6z"/>
	<path d="M496.3,710.7c-0.2,0.4-0.3,0.7-0.4,1.1c-0.1,0.4-0.2,0.8-0.3,1.1l-2.2,21.3c-0.1,0.1-0.1,0.3,0,0.5s0.1,0.4,0.3,0.5
		c0.1,0.2,0.2,0.2,0.4,0.3c0.1,0,0.3-0.1,0.4-0.3c0.1-0.2,0.1-0.3-0.1-0.4c-0.1-0.1-0.3-0.1-0.5,0l0.1-0.3l0,0
		c0-0.1,0.1-0.2,0.2-0.3s0.2-0.1,0.3-0.2c0.3-0.1,0.5,0,0.7,0.2s0.3,0.4,0.3,0.7c0,0.2-0.1,0.3-0.2,0.4c-0.1,0.1-0.3,0.2-0.4,0.3
		c-0.2,0.1-0.3,0.2-0.5,0.3c-0.2,0.1-0.3,0.1-0.4,0.2l-0.3,0.2c-0.3,0.1-0.5,0.3-0.8,0.4c-0.2,0.2-0.5,0.3-0.8,0.5H492
		c-0.7-0.6-1.2-1.3-1.6-2.2l1.9-20.5c0-0.1,0-0.2,0.1-0.2c0,0,0,0,0-0.1c0.1-0.6,0.3-1.1,0.5-1.6s0.5-1,0.9-1.4
		c0.3-0.4,0.8-0.8,1.3-1.1c0.5-0.3,1.1-0.6,1.7-0.9l1.6-0.1c0,0,0,0-0.1,0.1c0,0.1-0.1,0.1-0.1,0.1c-0.2,0.1-0.4,0.2-0.5,0.3
		c-0.2,0.1-0.3,0.2-0.5,0.3c-0.1,0.1-0.3,0.2-0.4,0.4C496.6,710.3,496.5,710.5,496.3,710.7z"/>
	<path d="M514.7,720.8l-0.3,0.3c-0.4,0.6-0.8,1-1.3,1.3l-4.9,5c0.4,0.4,0.8,0.7,1.3,1c0.4,0.3,0.9,0.7,1.3,1
		c0.4,0.3,0.8,0.6,1.3,0.9c0.5,0.3,0.8,0.6,1.1,0.9c-0.1,0.4-0.3,0.8-0.5,1.3c-0.3,0.5-0.5,0.9-0.9,1.4l0,0
		c-0.2,0.4-0.5,0.8-0.9,1.3s-0.7,0.9-1.1,1.3c-0.4,0.4-0.8,0.8-1.2,1s-0.7,0.4-1.1,0.4c-0.7,0-1.4-0.2-2.2-0.4s-1.5-0.6-2.1-1
		c-0.7-0.4-1.2-1-1.6-1.6c-0.4-0.6-0.7-1.4-0.7-2.2c0-0.7,0.2-1.3,0.5-1.8s0.7-0.9,1.1-1.2c0.4-0.3,0.9-0.4,1.4-0.4s1,0.2,1.5,0.5
		l0.3-0.3l-0.2-0.2c-0.9-0.7-1.7-1.6-2.2-2.6s-1-2.1-1.3-3.2c0.6,0,1.1-0.2,1.5-0.5c0.5-0.3,0.9-0.6,1.3-1c0.4-0.4,0.8-0.8,1.2-1.3
		s0.8-0.9,1.2-1.3c0.4,0.4,0.8,0.6,1.3,0.7c0.5,0.1,0.9,0.2,1.4,0.3c0.7,0.1,1.4,0.2,2.2,0.2c0.7,0,1.4,0,2.2,0l0.2-0.2L514.7,720.8
		z M509.6,732.7c-0.6-0.4-1.1-0.8-1.4-1.1c-0.4-0.3-0.7-0.5-1-0.8s-0.5-0.4-0.7-0.6s-0.4-0.3-0.6-0.5l-0.3,0.3
		c0.1,0.1,0.2,0.2,0.3,0.2c0.1,0.1,0.2,0.2,0.3,0.3c0.1,0.1,0.2,0.2,0.2,0.4s0.1,0.3,0.1,0.4c0.1,0.5,0,0.9-0.3,1.2s-0.6,0.6-1,0.7
		c-0.1,0-0.3,0-0.4,0c-0.1,0-0.3-0.1-0.4-0.1c0,0-0.1,0-0.1-0.1c0,0-0.1,0-0.1-0.1c0,0-0.1-0.1-0.2-0.2c-0.1,0-0.1-0.1-0.2-0.2
		c0-0.1-0.1-0.3-0.1-0.5s0.1-0.4,0.2-0.7c0.1-0.2,0.3-0.5,0.6-0.8c-0.2-0.1-0.5-0.1-0.7-0.1s-0.5,0.1-0.7,0.3
		c-0.2,0.6-0.2,1.2,0.1,1.7s0.7,1,1.3,1.3c0.6,0.4,1.2,0.7,1.9,0.9c0.7,0.2,1.4,0.4,2,0.5c0.4,0,0.7,0,1-0.2s0.5-0.4,0.6-0.7
		s0.2-0.6,0.1-0.9C510,733.3,509.9,733,509.6,732.7z M505.5,731.7c-0.1-0.3-0.3-0.6-0.6-0.8c-0.3,0.3-0.5,0.6-0.6,0.9
		c0,0.3,0,0.5,0.2,0.7s0.3,0.3,0.5,0.3s0.3-0.1,0.4-0.3l0.1-0.1C505.6,732.2,505.6,732,505.5,731.7z M505.4,722.7
		c0.1,1,0.4,1.8,0.9,2.6c0.5,0.8,1,1.4,1.7,2l4.3-4.4c-0.5,0.2-1,0.3-1.5,0.3s-1.1,0.1-1.7,0c-0.6,0-1.2-0.1-1.8-0.2
		C506.6,722.9,506,722.8,505.4,722.7z"/>
	<path d="M544.7,721.5c-0.4,0.2-0.6,0.5-0.7,0.8s0,0.6,0.1,0.9s0.4,0.4,0.7,0.5c0.3,0.1,0.7,0,1-0.3c0.5-0.3,0.7-0.7,0.8-1
		c0-0.4-0.1-0.7-0.3-1s-0.6-0.6-1-0.9s-1-0.5-1.6-0.8s-1.2-0.4-1.8-0.5c-0.6-0.1-1.2-0.1-1.8-0.1l-2.7,18.9c0.8,0.2,1.5,0.3,2.3,0.2
		s1.5-0.3,2.2-0.6s1.4-0.7,2.1-1.2s1.3-1,2-1.5c0.6-0.5,1.2-1.1,1.8-1.6c0.5-0.5,1.1-1,1.5-1.5l-0.1,0.4c-0.1,0.7-0.3,1.5-0.7,2.3
		c-0.3,0.8-0.8,1.6-1.3,2.4c-0.6,0.8-1.2,1.5-1.9,2.2s-1.5,1.3-2.4,1.8s-1.8,0.8-2.8,1.1c-1,0.2-2,0.3-3.1,0.1
		c-0.2,0-0.3-0.1-0.5-0.4c-0.2-0.2-0.3-0.4-0.4-0.6c-0.2-0.3-0.5-0.7-0.9-1.2s-0.8-1-1.1-1.4c-0.4-0.6-0.9-1.1-1.3-1.7l2.5-17.7
		c0-0.2,0.2-0.5,0.5-0.8s0.7-0.6,1.2-0.9s1-0.5,1.6-0.8s1.2-0.5,1.7-0.7s1-0.3,1.5-0.4c0.4-0.1,0.8-0.1,1-0.1
		c1.5,0.2,2.8,0.6,3.9,1.3c1,0.6,1.8,1.4,2.1,2.2c0.4,0.9,0.4,1.8,0,2.9c-0.4,1.1-1.2,2.1-2.4,3.2c-0.3,0.3-0.7,0.5-1.1,0.5
		c-0.4,0-0.8,0-1.2-0.2c-0.4-0.1-0.7-0.4-0.9-0.7s-0.4-0.6-0.4-0.9s0.1-0.7,0.4-1S544,721.8,544.7,721.5z M536.3,736.8
		c0.1,0,0.1,0.1,0.2,0.2c0.1,0.1,0.1,0.2,0.2,0.3s0.1,0.2,0.2,0.3c0.1,0.1,0.1,0.1,0.2,0.2l2.7-18.7l-1,0.8L536.3,736.8z"/>
	<path d="M563.1,745.9c-1.3-0.9-2.1-2.2-2.3-3.8l0,0c0,0.1-0.1,0.1-0.2,0.2c-0.1,0.1-0.2,0.2-0.2,0.3s-0.2,0.2-0.3,0.3
		c-0.2,0.2-0.4,0.4-0.6,0.6c-0.2,0.2-0.5,0.3-0.8,0.5c-0.3,0.1-0.5,0.3-0.8,0.4c-0.3,0.1-0.5,0.3-0.8,0.5c-0.7-0.1-1.3-0.4-1.8-0.9
		c-0.6-0.5-1-1.2-1.3-2s-0.5-1.7-0.6-2.7c0-1,0.1-2,0.5-3c0.4-0.3,0.8-0.6,1.3-0.8c0.5-0.2,0.9-0.4,1.3-0.7c0.4-0.3,0.9-0.4,1.3-0.7
		c0.4-0.2,0.9-0.5,1.3-0.8l0.2,0.1l0,0c0.5,0.4,0.9,0.8,1.3,1.3c0.4,0.5,0.7,1,1,1.5l1-6.2l-7.5-1.3l2.4-2.2l8.2,1.3l-1.9,12l0,0
		c-0.1,0.4-0.2,0.8-0.1,1.2c0,0.4,0.1,0.7,0.3,1s0.3,0.6,0.5,0.8c0.2,0.2,0.3,0.4,0.4,0.5L563.1,745.9z M556.7,740.3
		c0.3,0.7,0.6,1.3,1,1.6c0.3,0.3,0.6,0.4,0.9,0.4c0.3,0,0.5-0.1,0.8-0.3c0.3-0.2,0.4-0.4,0.4-0.7c-0.1,0.1-0.3,0.1-0.4,0
		c-0.2-0.1-0.3-0.1-0.3-0.2c-0.2-0.2-0.3-0.5-0.3-0.7s0-0.4,0.2-0.5c0.2-0.1,0.3-0.2,0.5-0.2s0.4,0,0.6,0.1c0.1,0,0.2,0.1,0.2,0.2
		c0.1,0.1,0.2,0.1,0.2,0.2l-0.2-0.4c-0.2-0.4-0.4-0.8-0.7-1.2c-0.2-0.4-0.5-0.8-0.8-1.2s-0.6-0.8-0.9-1.1c-0.3-0.4-0.6-0.7-1-0.9
		c-0.1,0.4-0.2,0.8-0.3,1.3c-0.1,0.4-0.2,0.9-0.2,1.3c0,0.4,0,0.9,0,1.3S556.6,740,556.7,740.3z"/>
	<path d="M572.5,747.6c-0.2,0-0.3-0.1-0.5-0.3c-0.2-0.2-0.3-0.4-0.5-0.8c-0.3-0.3-0.5-0.7-0.7-1.1c-0.2-0.4-0.4-0.9-0.5-1.3
		c-0.1-0.4-0.2-1-0.2-1.4c0-0.4,0-0.9,0-1.4c0.1-1,0.4-1.8,0.9-2.6c0.5-0.7,1-1.5,1.6-2.2c0.2-0.2,0.4-0.4,0.6-0.7
		c0.2-0.2,0.4-0.5,0.5-0.8c0.2-0.4,0.2-0.8,0.2-1.1c-0.1-0.4-0.2-0.7-0.5-1.1c-0.3-0.4-0.5-0.6-0.8-0.8c-0.3-0.2-0.5-0.3-0.7-0.3
		l3.8-2c0.2,0.3,0.4,0.6,0.6,0.9c0.2,0.3,0.4,0.6,0.5,0.9c0.1,0.4,0.2,0.7,0.2,1.1l2.4-2.1v0.1v-0.1l1.9,3.2l3.3-2.3v0.1v-0.1
		l2.4,4.1l-1.2,6.5c-0.2,1-0.4,1.9-0.6,2.8c-0.2,0.8-0.6,1.6-1.1,2.2c-0.5,0.7-1.1,1.2-1.8,1.7c-0.8,0.5-1.7,0.8-2.9,1.1l-2-0.1
		l0.1-0.1c0.1,0,0.1-0.1,0.1-0.1c0.3-0.1,0.5-0.2,0.7-0.3s0.4-0.2,0.5-0.3c0.2-0.1,0.3-0.2,0.5-0.4c0.2-0.1,0.4-0.3,0.7-0.5
		c0.9-0.7,1.6-1.7,2.1-3.1l1.7-9.3l-0.5-0.8l-1.7,1.1l-1.5,8.6c-0.3,1.1-0.8,1.9-1.5,2.4c-0.7,0.6-1.5,0.8-2.3,0.9
		c0,0,0-0.1,0.1-0.2l2.3-12.9l-0.5-0.8l-1.8,1.4c-0.3,0.7-0.7,1.3-1.2,1.9c-0.5,0.6-0.9,1.3-1.2,1.9c-0.3,0.5-0.4,1-0.5,1.5
		s-0.1,1,0,1.4c0.1,0.4,0.2,0.8,0.4,1.2c0.2,0.4,0.5,0.7,0.9,0.9c0,0,0.1,0,0.2-0.1c0.1-0.1,0.2-0.2,0.4-0.4c-0.1,0.1-0.3,0.1-0.4,0
		c-0.2-0.1-0.3-0.1-0.3-0.2c-0.2-0.2-0.3-0.5-0.3-0.7s0.1-0.4,0.2-0.5c0.1-0.1,0.3-0.2,0.5-0.2s0.4,0,0.6,0.1c0.1,0,0.2,0.1,0.2,0.2
		c0.1,0.1,0.2,0.2,0.2,0.2c0.3,0.2,0.4,0.5,0.4,0.8s0,0.7-0.1,1.1l0,0c-0.5,0.7-1.1,1.2-1.7,1.7S573.3,747.1,572.5,747.6z"/>
	<path d="M597,737.3l0.2-0.9l-0.1,0.7c0.3-0.2,0.6-0.4,1-0.7c0.4-0.3,0.7-0.6,1.1-0.8c0.4-0.3,0.7-0.5,0.9-0.7
		c0.3-0.2,0.4-0.3,0.5-0.4c0.3,0.1,0.7,0.4,1.1,0.7c0.4,0.3,0.8,0.7,1.3,1.1c0.4,0.4,0.8,0.9,1.2,1.4s0.6,0.9,0.8,1.3l-2.2,11.3
		c0,0.1-0.2,0.2-0.5,0.4c-0.3,0.2-0.8,0.4-1.3,0.6s-1.2,0.4-1.9,0.6s-1.4,0.3-2.2,0.4c-0.1,0-0.3-0.1-0.5-0.2
		c-0.2-0.1-0.4-0.3-0.6-0.4c-0.2-0.1-0.4-0.3-0.6-0.5c-0.2-0.2-0.4-0.3-0.5-0.5l-1.2,6.2c0,0.5-0.1,1-0.1,1.4c0,0.4,0,0.8,0,1.2
		c0,0.4,0.1,0.7,0.3,0.9c0.2,0.3,0.4,0.4,0.7,0.6c0,0.1,0.1,0.1,0,0.2c0,0.1-0.1,0.1-0.1,0.1c-0.7,0-1.3-0.1-1.8-0.5
		c-0.5-0.4-0.9-0.8-1.2-1.5c-0.3-0.6-0.5-1.3-0.6-2.2c-0.1-0.8-0.1-1.7,0-2.6l3-14.9l0.7-3.4c0.1-0.1,0.1-0.3,0-0.5
		s-0.1-0.4-0.2-0.6c-0.1-0.2-0.2-0.3-0.3-0.3s-0.3,0-0.4,0.3c-0.1,0.2-0.1,0.3,0,0.4c0.1,0.1,0.3,0.1,0.5,0.1l-0.2,0.3l0,0
		c-0.1,0.1-0.1,0.2-0.2,0.3c-0.1,0.1-0.2,0.1-0.4,0.1c-0.1,0-0.3,0-0.4,0c-0.1,0-0.2-0.1-0.3-0.2c-0.1-0.1-0.2-0.2-0.2-0.3
		c0-0.1,0-0.3,0-0.4c0-0.1,0.1-0.3,0.3-0.4c0.1-0.1,0.3-0.2,0.4-0.3c0.2-0.1,0.3-0.2,0.5-0.2c0.2-0.1,0.3-0.1,0.4-0.2l0.3-0.2
		c0.3-0.1,0.6-0.2,0.8-0.3c0.3-0.1,0.5-0.3,0.8-0.4h0.1c0.6,0.6,1.1,1.4,1.4,2.3L597,737.3z M595.8,746.6c0.3-0.2,0.6-0.2,1,0
		c0.3,0.1,0.5,0.2,0.6,0.5s0.2,0.6,0.2,0.9s-0.1,0.6-0.3,1c-0.2,0.3-0.4,0.6-0.7,0.7c0.2-0.2,0.3-0.5,0.2-0.7
		c-0.1-0.3-0.2-0.5-0.3-0.6c-0.2-0.1-0.4-0.2-0.6-0.1c-0.2,0.1-0.4,0.4-0.5,0.8c0.3,0.4,0.5,0.7,0.7,0.8s0.4,0.3,0.5,0.3
		c0.3,0,0.5-0.1,0.8-0.1c0.2,0,0.5-0.1,0.8-0.2c0.2-0.1,0.3-0.1,0.4-0.2c0.1,0,0.1-0.1,0.2-0.1l0.4-0.4l0.9-0.9l1.5-7.7
		c-0.1-0.3-0.3-0.6-0.5-0.9s-0.4-0.6-0.7-0.8c-0.2-0.2-0.4-0.4-0.6-0.5c-0.2-0.2-0.4-0.3-0.6-0.4c-0.1,0-0.2,0.1-0.3,0.2
		c-0.1,0.1-0.2,0.1-0.3,0.2c-0.2,0.2-0.5,0.4-0.9,0.6s-0.7,0.5-0.9,0.7l-1.4,7.4C595.4,746.8,595.6,746.7,595.8,746.6z"/>
</g>
<g id="_x23__in_line_text_1_">
	<g>
		<path d="M561.9,632l1,3.2l23.1,4.7l-2.1-6.9l17.8,17.9L548,638l-6.3,4.5l-5.7-10.8l6.6-8.6l4.8,7.5
			C547.4,630.6,554.8,634.1,561.9,632"/>
		<path d="M567.5,612.1l1,3.2l23.1,4.7l-2.1-6.9l17.8,17.9l-53.8-12.9l-6.3,4.5l-5.7-10.8l6.6-8.6l4.8,7.5
			C552.9,610.7,560.4,614.2,567.5,612.1"/>
		<polygon points="575.7,603.4 582.3,601.7 566.3,655.4 571.7,663.6 581,660.3 572.8,654.9 587.7,603 580.2,595.5 571.2,600.5 		"/>
		<polygon points="557.2,599 563.8,597.3 547.8,650.9 553.2,659.2 562.5,655.9 554.3,650.4 569.2,598.6 561.8,591 552.7,596 		"/>
	</g>
</g>
<g id="ดาบทหานผ่านศึก_1_">
	<g>
		<path id="โคนดาบ_10_" class="st0" d="M131.3,604.5l16.5-5.2c0,0,4.7-1.8,4.1-4.8c0,0-4-6.9-2.5-7.5
			c0,0,2.6-3.1,0.6-2.1c0,0-6.6,4.8-5.3,7.2c0,0,2.9,3.5,1.5,4c0,0-15.4,4.4-15.8,5.5C130.3,601.5,130.2,604.2,131.3,604.5z"/>
		<path id="ตัวดาบ_10_" class="st0" d="M137.4,695c0,0,9.2-5.6-1-26.7c0,0,21.2-11.1,0.1-66.2l9.2-3.1
			C145.7,599,185.9,662.6,137.4,695z"/>
		<path id="ด้ามดาบ_10_" class="st0" d="M137.1,599.5c0,0-6.2-17.1-6-18c0,0,2.2-4.4,8-1.7c0,0,1.6,16.2,3.6,17.8
			L137.1,599.5z"/>
		<g id="ยึกยักขวา_12_">
			<path class="st0" d="M152.3,611.8c0,0-1-2.3-1.1-2.4c0,0-2.7,2.4-2.7,3.3c0,0,0.1,0.3-0.6,0.5c0,0,1.5,0.3,2-0.2
				c0,0,0.4-1.5,1.1-1.8c0,0,0.6,0.4,0.9,0.2C151.8,611.3,152.2,611.7,152.3,611.8z"/>
		</g>
		<g id="ยึงยักซ้าย_12_">
			<path class="st0" d="M144.7,631.1c0,0,4.7-1.9,2.8-3.4c-1.1-0.9,1.2-2.7-0.8-3.5c0,0-1.8-0.7-1.7,0.8c0,0,0.8-0.7,1.1,0.1
				c0,0,2.4,4.3-1.9,3.5C144.3,628.5,144.5,630.3,144.7,631.1z"/>
		</g>
	</g>
</g>
<g id="_x23__in_line_text_2_">
	<g>
		<path class="st0" d="M558.9,631l1,3.2l23.1,4.7l-2.1-6.9l17.8,17.9L545,637l-6.3,4.5l-5.7-10.8l6.6-8.6l4.8,7.5
			C544.3,629.6,551.8,633.1,558.9,631"/>
		<path class="st0" d="M564.4,611.1l1,3.2l23.1,4.7l-2.1-6.9l17.8,17.9l-53.7-12.9l-6.3,4.5l-5.7-10.8l6.6-8.6l4.8,7.5
			C549.8,609.7,557.3,613.2,564.4,611.1"/>
		<polygon class="st0" points="572.7,602.4 579.2,600.7 563.2,654.4 568.6,662.6 577.9,659.3 569.8,653.9 584.6,602 577.2,594.5 
			568.1,599.5 		"/>
		<polygon class="st0" points="554.2,598 560.8,596.3 544.7,649.9 550.1,658.2 559.5,654.9 551.3,649.4 566.1,597.6 558.7,590 
			549.7,595 		"/>
	</g>
</g>
<g>
	<g>
		<path class="st0" d="M78.6,613.9c-0.3-1.6,0-3.1,0.8-4.7c0.8-1.6,1.9-3.2,3.2-4.8s2.5-3.1,3.8-4.5c1.3-1.4,2.3-2.7,2.9-3.9
			l17.8,84.7c0.6-0.2,0.9-0.4,1.1-0.7c0.2-0.3,0.3-0.6,0.3-1c0.1-0.3,0.1-0.7,0.3-1.1c0.1-0.4,0.4-0.7,0.8-1.1v0.2
			c2.2-2.2,3.8-5.1,4.6-8.7c0.8-3.5,0.6-7.9-0.6-13c-1-2.9-1.9-5.5-2.6-7.8s-1.3-4.4-1.9-6.4c-0.5-2-1-3.8-1.4-5.4
			c-0.4-1.7-0.7-3.3-1-4.9c-0.8-3.8-1.2-7.6-1.4-11.4c-0.2-3.7,0-7.4,0.6-11c0.6-3.6,1.6-7.2,3.1-10.6c1.5-3.5,3.5-6.8,6.1-10.1
			l2.2,11c0.3,1.7,0.9,4.4,1.5,7.9c0.7,3.5,1.5,7.6,2.3,12c0.8,4.4,1.8,9.2,2.7,14.2c0.9,5,1.8,9.8,2.7,14.4l2.6,12.8
			c0.5,2.4,0.7,4.3,0.8,5.9c0.1,1.6,0,3-0.2,4.2s-0.4,2.3-0.7,3.3c-0.3,1-0.5,1.9-0.7,2.8c-0.8,2.1-1.8,4.3-3.2,6.4
			c-1.4,2.1-3,4-4.9,5.7s-4,3.1-6.3,4.1c-2.3,1.1-4.7,1.6-7.2,1.5l-9.4-6.5c-0.7,1-1.4,2-2,2.8s-1.1,1.6-1.7,2.4s-1.2,1.7-1.9,2.8
			c-0.7,1-1.5,2.3-2.5,3.8c-1.8-0.2-3.4-0.4-4.8-0.8c-1.4-0.4-2.7-0.7-4-1.2s-2.5-1-3.6-1.6c-1.2-0.6-2.4-1.3-3.6-2.1
			c-1.8-1.3-3.6-2.6-5.4-4.1c-1.8-1.5-3.5-3.1-5-4.9c-1.6-1.8-2.9-3.7-4.1-5.8c-1.2-2.1-2.1-4.4-2.6-6.8c-0.7-2.7-1-5.3-1.2-7.8
			c-0.1-2.5-0.1-5,0.2-7.4c0.2-2.4,0.6-4.9,1.1-7.3c0.5-2.4,1.1-4.8,1.8-7.3c0.4-1.5,0.9-3,1.5-4.7s0.8-3.3,0.6-5.1
			c-0.2-2.2-0.9-4.3-2.1-6.4c-1.2-2.1-2.5-3.9-4-5.4c-1.5-1.6-2.9-2.8-4.3-3.7c-1.4-0.9-2.4-1.3-3.1-1.1c-0.4,0.1-0.5-0.3-0.1-1.2
			c0.3-0.9,0.8-1.9,1.6-3.2c0.7-1.3,1.6-2.7,2.7-4.2c1-1.5,2.1-2.8,3.1-4s2-2.1,2.9-2.7c0.9-0.6,1.6-0.7,2.1-0.3
			c1.4,1.2,2.9,2.4,4.5,3.4c1.6,1.1,2.9,2.4,4.1,3.9c2.6,3.5,4.1,7.1,4.7,10.9c0.6,3.8,0.7,7.6,0.3,11.5c-0.4,3.9-1,7.8-1.8,11.8
			s-1.3,7.8-1.4,11.6c-0.1,2.2,0.1,4.6,0.7,7c0.5,2.4,1.3,4.8,2.3,7.2c1,2.3,2.2,4.5,3.6,6.6c1.4,2.1,2.9,3.8,4.6,5.4
			c1.6,1.5,3.4,2.7,5.2,3.4c1.8,0.8,3.6,1,5.4,0.8c0.1-1,0.1-2.3-0.1-3.8c-0.1-1.5-0.4-3.4-0.8-5.8c-0.4-2.3-0.9-5.2-1.6-8.6
			c-0.7-3.4-1.5-7.5-2.5-12.4c-1-4.9-2.1-10.5-3.4-16.9C81.8,629.9,80.3,622.4,78.6,613.9z"/>
		<path class="st0" d="M169.3,601.1c-0.3,0.2-0.7,0.6-1.1,1c-0.4,0.5-0.9,0.9-1.3,1.4c-0.5,0.5-0.9,0.9-1.4,1.2
			c-0.5,0.4-0.9,0.6-1.4,0.6c-0.3,0-0.9-0.1-1.7-0.5c-0.8-0.4-1.7-0.8-2.5-1.4c-0.9-0.5-1.6-1.1-2.3-1.8c-0.7-0.7-1-1.2-1.1-1.8
			c-0.1-1.1,0.3-2.5,1.2-4.2c0.9-1.7,2.1-3.4,3.4-5.2c1.3-1.8,2.7-3.4,4-5c1.3-1.6,2.4-2.9,3.1-3.8c0.6-0.7,1.1-1.3,1.6-1.7
			c0.5-0.4,1-0.7,1.4-0.7c2.6,1.2,4.7,2.1,6.1,2.8c1.4,0.6,2.5,1.1,3.1,1.4c0.7,0.3,1.1,0.4,1.3,0.5l0.7,5.5
			c0.8-0.8,1.9-1.9,3.1-3.3c1.3-1.4,2.5-2.7,3.7-4s2.3-2.5,3.2-3.6c1-1.1,1.6-1.8,1.8-2c1.5,0,3.5,0.4,5.8,0.9
			c2.3,0.6,4.7,1.3,7.1,2.3c2.4,0.9,4.8,2,7,3.1c2.2,1.1,4,2.2,5.3,3.4l5,40.4c0.1,0.3-0.5,0.9-1.7,2c-1.2,1-2.9,2.3-5.1,3.6
			c-2.2,1.4-4.7,2.8-7.7,4.4c-2.9,1.5-6.1,2.9-9.3,4c-0.7-0.1-1.5-0.2-2.2-0.3c-0.8,0-1.6-0.1-2.6-0.3c-0.9-0.1-2-0.4-3.3-0.9
			c-1.2-0.4-2.6-1.1-4.2-2l3.6,28.9c0.5,2,1,4,1.5,5.8c0.5,1.9,1.1,3.5,1.9,5c0.7,1.4,1.6,2.6,2.6,3.4s2.4,1.3,4,1.2
			c0.3,0.2,0.4,0.5,0.4,0.7c0,0.3-0.1,0.5-0.4,0.7c-2.9,1.1-5.8,1.2-8.5,0.5c-2.8-0.8-5.3-2.2-7.5-4.3c-2.3-2.1-4.2-4.8-5.9-8
			c-1.6-3.2-2.8-6.8-3.5-10.8L169.3,601.1z M165.3,594.5c0.6-0.1,1.1,0,1.5,0.1c0.4,0.2,0.8,0.4,1.4,0.6l0.4,0.2l-0.4-3.9
			c-0.1-0.5-0.4-0.7-0.9-0.7c-0.6,0-1.1,0-1.5,0.1c-0.9,0.1-1.6,0.6-2,1.4s-0.6,1.8-0.5,2.8s0.3,2,0.8,2.9c0.5,0.9,1.1,1.5,1.8,1.9
			c0.7-0.2,1.3-0.5,1.8-1c0.5-0.4,0.8-1,0.8-1.7c-0.7-0.7-1.2-1.1-1.6-1.3c-0.4-0.2-0.9-0.3-1.5-0.4L165.3,594.5z M189.7,591.5
			c-1.7,1.6-3,3.3-3.9,5.1c-0.9,1.8-1.5,3.8-1.8,5.9l0.1,0.7c0.2,0.5,0.3,0.9,0.4,1.4s0.3,0.9,0.6,1.3c0.7,0.9,1.7,1.6,3.1,2
			c1.3,0.4,2.8,0.6,4.3,0.5c1.5-0.1,3-0.3,4.5-0.8c1.5-0.4,2.7-1.1,3.7-1.8l-1.8-14.7c-1.1-0.3-2.2-0.6-3.3-0.9
			c-1.1-0.2-2.2-0.5-3.4-0.6C191.3,590.2,190.5,590.9,189.7,591.5z M188.4,614.8c0.7-0.3,1.6-0.5,2.7-0.7s2.2-0.4,3.4-0.5
			c1.2-0.1,2.4-0.1,3.6,0c1.2,0.1,2.4,0.3,3.5,0.6l-0.8-6.4c-1.1,0.7-2.5,1.3-3.9,1.7c-1.5,0.4-2.9,0.6-4.4,0.6s-2.9-0.2-4.3-0.6
			c-1.4-0.4-2.6-1-3.5-1.7l1.2,9.4c0.4-0.5,0.7-1,1.1-1.4C187.3,615.4,187.8,615.1,188.4,614.8z M191,621.9c1.6-0.4,3.1-0.3,4.4,0.2
			s2.3,1.3,2.9,2.3s0.8,2.3,0.6,3.6c-0.2,1.4-1,2.7-2.5,4c0.6-1,0.7-1.9,0.1-2.8c-0.6-0.8-1.4-1.3-2.3-1.6c-0.9-0.2-1.8-0.1-2.7,0.5
			c-0.8,0.5-1.2,1.7-1.1,3.4l1.5,1.8c0.9,0.2,1.8,0.4,2.7,0.5c0.9,0.1,1.8,0.2,2.7,0.2c2.2-0.8,4.4-1.8,6.5-3.1l-1.8-14.6
			c-2.5-0.9-5-1.3-7.7-1.1c-2.7,0.2-5,1.1-7,2.9c-0.4,0.3-0.7,0.8-1.1,1.5l0.9,6.6c0.2-1,0.6-1.9,1.3-2.8
			C188.9,622.7,189.8,622.1,191,621.9z M205,630.1c0.4-0.3,0.8-0.5,1-0.7l0.2-0.2l-4.5-36.9c-0.2-0.1-0.5-0.2-0.7-0.3
			s-0.4-0.2-0.7-0.3L205,630.1z M207.4,627.5c0.4-0.5,0.8-1.1,1.3-1.9c0.4-0.7,0.9-1.5,1.4-2.3l-3.4-27.8c-1.1-0.9-2.3-1.8-3.5-2.5
			L207.4,627.5z"/>
		<path class="st0" d="M312.4,589.5c-1.4,1-2.1,2.1-2.1,3.4s0.3,2.3,1,3.2c0.7,0.9,1.6,1.3,2.9,1.5c1.2,0.1,2.4-0.5,3.6-1.7
			c1.5-1.5,2.1-3,2.1-4.3c-0.1-1.3-0.7-2.5-1.8-3.6c-1.1-1.1-2.6-2-4.5-2.8s-4-1.3-6.3-1.7c-2.3-0.4-4.6-0.5-7-0.5s-4.6,0.3-6.6,0.9
			l3.1,71.4c2.9,0.3,5.8,0,8.4-0.9c2.7-0.9,5.2-2.2,7.7-3.9c2.4-1.7,4.7-3.6,6.9-5.8c2.2-2.2,4.2-4.6,6.2-7c1.9-2.4,3.7-4.8,5.4-7.1
			c1.7-2.3,3.2-4.5,4.6-6.4l0.1,1.5c0.1,2.8-0.2,5.7-0.9,9c-0.7,3.2-1.8,6.5-3.3,9.7c-1.5,3.3-3.4,6.4-5.6,9.4s-4.8,5.7-7.7,8.2
			c-2.9,2.4-6.1,4.4-9.6,5.9s-7.4,2.3-11.5,2.5c-0.6,0-1.2-0.3-2-1.1c-0.7-0.7-1.4-1.3-1.9-1.9c-1-1-2.4-2.3-4.2-3.9
			c-1.7-1.6-3.4-3.1-5.1-4.5c-2-1.7-4.1-3.6-6.1-5.5l-2.9-66.8c0-0.9,0.4-2.1,1.4-3.4s2.3-2.6,3.9-4c1.6-1.4,3.4-2.7,5.4-4.1
			c2-1.3,3.9-2.6,5.8-3.6c1.9-1.1,3.6-2,5.2-2.6c1.6-0.7,2.8-1,3.6-1.1c5.9-0.3,10.9,0.4,15.2,1.9c4.3,1.5,7.4,3.8,9.4,6.7
			s2.7,6.4,2.1,10.5c-0.6,4.1-2.8,8.5-6.7,13.3c-1.1,1.3-2.4,2.2-3.9,2.6c-1.5,0.4-3,0.4-4.5,0.1s-2.7-0.9-3.8-1.8
			c-1.1-0.9-1.8-2-2-3.2c-0.3-1.2,0-2.6,0.9-4.1C308.2,592.5,309.9,591,312.4,589.5z M292,651.8c0.2,0.1,0.5,0.3,0.8,0.7
			c0.3,0.3,0.6,0.7,0.8,1.1c0.3,0.4,0.6,0.7,0.8,1c0.3,0.3,0.6,0.4,0.9,0.5l-3-70.8l-3,3.6L292,651.8z"/>
		<path class="st0" d="M379.6,668.4c-5.3-2.7-8.9-7-10.8-12.8h-0.1c-0.1,0.2-0.3,0.5-0.5,0.9c-0.2,0.4-0.5,0.8-0.7,1.1
			c-0.2,0.4-0.5,0.9-0.9,1.5c-0.5,0.9-1.1,1.7-1.8,2.5c-0.8,0.8-1.6,1.5-2.5,2.2s-1.8,1.4-2.8,2.1c-0.9,0.7-1.8,1.4-2.5,2.2
			c-2.5,0.1-5-0.7-7.3-2.3c-2.4-1.6-4.4-3.7-6.1-6.4c-1.7-2.7-2.9-5.9-3.7-9.5c-0.7-3.6-0.8-7.4-0.1-11.4c1.3-1.4,2.7-2.6,4.2-3.7
			c1.5-1.1,3-2.2,4.6-3.2c1.5-1.1,3.1-2.1,4.6-3.3c1.5-1.1,2.9-2.3,4.2-3.7l0.9,0.2c0,0.1,0,0.2-0.1,0.2c2.1,1.1,4,2.4,5.7,3.9
			c1.8,1.6,3.3,3.2,4.7,5l-0.1-23.4l-28.7-0.2l7.4-9.7h31.3l0.3,45.6h0.2c-0.3,1.7-0.2,3.2,0.2,4.6c0.4,1.4,1,2.6,1.7,3.6
			c0.7,1.1,1.4,1.9,2.2,2.6s1.4,1.2,1.8,1.6L379.6,668.4z M352.6,651.4c1.6,2.6,3.1,4.3,4.5,5.2s2.7,1.2,3.7,1
			c1.1-0.2,2-0.7,2.6-1.6c0.7-0.9,1.1-1.8,1.3-2.7c-0.4,0.3-0.9,0.4-1.6,0.2c-0.6-0.1-1.1-0.3-1.3-0.4c-0.9-0.8-1.4-1.5-1.5-2.2
			s0-1.4,0.3-1.9c0.4-0.5,0.9-0.9,1.5-1.2c0.7-0.3,1.4-0.3,2.2-0.1c0.3,0.1,0.6,0.3,1,0.5s0.7,0.5,1,0.7l-1.1-1.5
			c-1-1.2-2.1-2.5-3.2-3.9c-1.1-1.3-2.4-2.6-3.7-3.9s-2.6-2.5-4-3.6c-1.4-1.1-2.8-2.1-4.3-2.8c-0.2,1.5-0.3,3.1-0.4,4.8
			c-0.1,1.7,0,3.4,0.1,5.1c0.2,1.7,0.5,3.2,0.9,4.7C351.2,649.2,351.8,650.4,352.6,651.4z"/>
		<path class="st0" d="M398.2,669c-0.6,0-1.3-0.3-1.9-0.8c-0.7-0.5-1.5-1.4-2.4-2.6c-1.1-1.1-2.2-2.4-3.1-3.9
			c-0.9-1.5-1.7-3.1-2.4-4.8s-1.2-3.4-1.6-5.2c-0.4-1.8-0.5-3.5-0.5-5.2c0-3.7,0.7-7,2-10s2.9-5.9,4.7-8.9c0.6-0.9,1.2-1.8,1.8-2.8
			s1.1-2.1,1.4-3.1c0.5-1.5,0.5-3,0-4.4c-0.5-1.4-1.3-2.6-2.3-3.7c-1-1.1-2-1.9-3.2-2.6c-1.1-0.6-2.1-0.9-2.8-0.9l13.1-9.3
			c0.9,1,1.8,1.9,2.8,2.9s1.8,2,2.4,3.2c0.6,1.3,1,2.5,1.2,3.8l7.8-8.9l0.2,0.2v-0.4l8.5,11l11.2-10.4l0.2,0.2V602l10.9,14l-1,24.8
			c-0.1,3.8-0.4,7.3-0.9,10.6c-0.5,3.2-1.4,6.2-2.9,8.9c-1.4,2.7-3.4,5.1-6,7.2c-2.6,2.1-6,3.9-10.1,5.4l-7.4,0.7l0.3-0.3
			c0.2-0.2,0.3-0.3,0.5-0.3c0.9-0.5,1.7-0.9,2.3-1.4s1.3-0.9,1.9-1.4c0.6-0.5,1.2-1.1,1.8-1.7c0.6-0.6,1.3-1.4,2.2-2.3
			c2.9-3.1,5-7.3,6.1-12.5l1.6-35.6l-2.3-2.7l-5.9,5l-1.4,32.8c-0.6,4.1-2.1,7.4-4.5,9.8c-2.4,2.4-5,3.9-8,4.3
			c-0.1-0.1,0-0.3,0.1-0.6l2.2-49.1l-2.3-2.7l-6,6c-0.9,2.6-2.1,5.2-3.5,7.7s-2.5,5.1-3.4,7.7c-0.7,2-1,4-1.1,5.9
			c-0.1,1.9,0.1,3.7,0.6,5.3s1.2,3,2.2,4.3c1,1.2,2.3,2.3,3.8,3c0.2-0.1,0.4-0.2,0.6-0.4c0.2-0.2,0.6-0.8,1.1-1.7
			c-0.4,0.3-1,0.3-1.6,0.2c-0.6-0.2-1.1-0.3-1.3-0.5c-0.8-0.8-1.3-1.6-1.4-2.3c-0.1-0.7,0-1.4,0.4-1.9s0.9-0.9,1.6-1.1
			c0.7-0.2,1.4-0.3,2.2,0c0.3,0.1,0.6,0.3,1,0.5s0.7,0.5,1,0.8c1.1,0.7,1.8,1.6,2,2.7c0.2,1.1,0.2,2.5,0.1,4h-0.1
			c-1.6,2.7-3.4,5-5.4,7.1C403.1,664.7,400.8,666.8,398.2,669z"/>
		<path class="st0" d="M468.1,618.3l0.6-3.4l-0.2,2.5c1-0.9,2.1-1.9,3.4-3.1c1.3-1.2,2.5-2.4,3.8-3.5c1.2-1.1,2.3-2.1,3.2-3
			c0.9-0.9,1.5-1.4,1.7-1.7c1.2,0.3,2.7,1.1,4.4,2.1c1.7,1.1,3.4,2.3,5.1,3.8c1.7,1.5,3.3,3,4.8,4.6c1.5,1.6,2.7,3.1,3.5,4.5
			l-3.9,42.9c0,0.3-0.5,0.9-1.7,1.7s-2.7,1.7-4.7,2.7s-4.3,2-6.8,3c-2.6,1-5.3,1.7-8,2.2c-0.5,0-1.1-0.2-1.8-0.6
			c-0.7-0.4-1.5-0.8-2.4-1.3s-1.7-1-2.6-1.6c-0.9-0.5-1.6-1.1-2.2-1.5l-2.2,23.7c0.1,1.8,0.1,3.6,0.2,5.2c0.1,1.7,0.2,3.2,0.5,4.5
			c0.3,1.4,0.8,2.5,1.5,3.4c0.7,0.9,1.7,1.5,2.9,1.8c0.2,0.2,0.2,0.4,0.2,0.6s-0.2,0.4-0.4,0.5c-2.5,0.4-4.8,0-6.8-1.1
			c-2-1.1-3.7-2.8-5.2-5c-1.4-2.2-2.5-4.8-3.2-7.8s-1-6.3-0.9-9.8l5.3-56.7l1.3-12.9c0.2-0.4,0.2-1,0-1.7c-0.2-0.8-0.5-1.4-1-2
			c-0.4-0.6-0.9-0.9-1.4-1c-0.5-0.1-1,0.3-1.4,1.1c-0.4,0.7-0.3,1.3,0.3,1.6s1.1,0.4,1.8,0.2l-0.5,1.1l0.2,0.1
			c-0.2,0.5-0.4,0.9-0.6,1.2c-0.3,0.4-0.7,0.6-1.3,0.6c-0.5,0.1-1,0.1-1.4,0c-0.5-0.1-0.9-0.3-1.3-0.6c-0.4-0.3-0.7-0.7-0.9-1.1
			c-0.2-0.5-0.2-0.9-0.1-1.5c0.1-0.6,0.4-1.1,0.8-1.6c0.4-0.5,0.9-0.9,1.5-1.3c0.6-0.4,1.2-0.7,1.8-1s1.1-0.5,1.5-0.7l1.2-0.8
			c1-0.4,2-0.9,2.9-1.5c0.9-0.6,1.9-1.2,2.8-1.7h0.4c2.6,2.2,4.6,4.9,6,8.1L468.1,618.3z M467.2,653.1c1-0.8,2.1-1,3.6-0.6
			c1.1,0.1,1.9,0.6,2.6,1.5c0.7,0.9,1,2,1.1,3.2s-0.1,2.4-0.6,3.7s-1.3,2.3-2.5,3c0.7-0.9,0.9-1.9,0.6-2.9c-0.3-1-0.8-1.7-1.5-2.1
			c-0.7-0.4-1.4-0.4-2.2,0c-0.8,0.4-1.3,1.5-1.5,3.3c1.1,1.5,2,2.4,2.8,2.9s1.5,0.8,2.2,1c1-0.2,1.9-0.4,2.8-0.7
			c0.9-0.3,1.9-0.7,2.9-1.1c0.7-0.4,1.2-0.7,1.4-0.8s0.5-0.3,0.8-0.5l1.3-1.5l2.9-3.8l2.7-29.4c-0.7-1.2-1.4-2.3-2.3-3.3
			c-0.9-1-1.8-1.9-2.9-2.9c-0.8-0.6-1.6-1.1-2.5-1.6c-0.8-0.5-1.7-0.9-2.6-1.3c-0.3,0.2-0.7,0.4-1,0.7c-0.4,0.3-0.8,0.5-1.1,0.8
			c-0.8,0.7-1.9,1.6-3.2,2.6c-1.3,1.1-2.3,2.1-3.1,3.2l-2.5,28.1C465.8,654.1,466.5,653.6,467.2,653.1z"/>
		<path class="st0" d="M650.4,666.4c-2,0.9-4,1.8-5.8,2.6c-1.8,0.8-3.7,1.3-5.6,1.6l-2.6,0.2v-0.1c-2.1-1.9-4-3.9-5.8-5.7
			c-1.8-1.9-3.6-3.7-5.4-5.5c-1.8-1.8-3.6-3.5-5.4-5.2c-1.8-1.7-3.8-3.3-5.8-4.8l10-41c8.4-2,14.6-3.7,18.5-5.2
			c3-1.3,5.9-3.2,8.7-5.7c5.4,4.6,9.8,8.4,13.4,11.6c2.8,2.3,5,4,6.4,5.1c3.2,2.5,7,4.5,11.4,5.8l0.2,2c-2.5,1.6-4.2,3.1-5,4.5
			l-3.5,10.3l-4.2,15.4l-9.2,37.5c-7.9,1.8-13.9,3.8-17.9,5.9c-3,0.8-7.4,1.8-13.4,3c-5.6-8.1-10.6-13.6-14.8-16.6
			c-3.2-2.5-7-4.5-11.4-5.8l-0.2-2c0.7-0.4,1.2-0.9,1.8-1.3c1.9-1,4-1.7,6.2-2c2.3-0.3,4.6-0.3,6.9,0c2.3,0.3,4.6,0.8,6.8,1.5
			s4.2,1.5,6,2.5c1,0.5,1.9,1.1,2.8,1.7c0.9,0.6,1.8,1.2,2.7,1.9c0.7,0.7,1.4,1.4,1.9,2.1c0.6,0.7,1.1,1.4,1.7,2.1
			c0.6,0.7,1.1,1.4,1.8,2c0.6,0.6,1.4,1.1,2.3,1.5l1.3,0.5l0.3,0.3L650.4,666.4z M653.6,654.4l7.1-28.1l-1.1-1.4l-2.2-1.8l-18-11.7
			l-7.7,31.2c1.9,2,3.6,3.9,5.3,5.5c1.7,1.6,3.2,3.1,4.5,4.2c1.3,1.2,2.4,2.1,3.3,2.7c0.9,0.6,1.5,1,1.8,1c0.8,0,1.7,0,2.5-0.2
			c0.8-0.1,1.7-0.4,2.6-1L653.6,654.4z"/>
	</g>
</g>
<g>
	<path class="st0" d="M125.2,732.1c-0.1-0.4,0-0.8,0.2-1.3c0.2-0.4,0.5-0.8,0.9-1.3c0.3-0.4,0.7-0.8,1-1.2c0.4-0.4,0.6-0.7,0.8-1
		l4.4,22.7c0.1,0,0.3-0.1,0.3-0.2c0-0.1,0.1-0.2,0.1-0.3c0-0.1,0-0.2,0.1-0.3c0-0.1,0.1-0.2,0.2-0.3l0,0c0.6-0.6,1-1.4,1.3-2.3
		c0.2-0.9,0.2-2.1-0.1-3.5c-0.3-0.8-0.5-1.5-0.7-2.1c-0.2-0.6-0.3-1.2-0.5-1.7c-0.1-0.5-0.3-1-0.3-1.5c-0.1-0.4-0.2-0.9-0.3-1.3
		c-0.2-1-0.3-2-0.3-3s0-2,0.2-2.9c0.2-1,0.5-1.9,0.9-2.8c0.4-0.9,1-1.8,1.7-2.7l0.5,3c0.1,0.5,0.2,1.2,0.4,2.1
		c0.2,0.9,0.4,2,0.6,3.2s0.4,2.5,0.7,3.8c0.2,1.3,0.4,2.6,0.7,3.8l0.6,3.4c0.1,0.6,0.2,1.2,0.2,1.6c0,0.4,0,0.8-0.1,1.1
		c-0.1,0.3-0.1,0.6-0.2,0.9s-0.1,0.5-0.2,0.8c-0.2,0.6-0.5,1.1-0.9,1.7c-0.4,0.6-0.8,1.1-1.3,1.5c-0.5,0.4-1.1,0.8-1.7,1.1
		c-0.6,0.3-1.2,0.4-1.9,0.4l-2.5-1.8c-0.2,0.3-0.4,0.5-0.5,0.7c-0.2,0.2-0.3,0.4-0.5,0.6c-0.1,0.2-0.3,0.5-0.5,0.7s-0.4,0.6-0.7,1
		c-0.5-0.1-0.9-0.1-1.3-0.2c-0.4-0.1-0.7-0.2-1.1-0.3c-0.3-0.1-0.7-0.3-1-0.4c-0.3-0.2-0.6-0.4-0.9-0.6c-0.5-0.3-1-0.7-1.4-1.1
		c-0.5-0.4-0.9-0.8-1.3-1.3s-0.8-1-1.1-1.6c-0.3-0.6-0.5-1.2-0.7-1.8c-0.2-0.7-0.3-1.4-0.3-2.1s0-1.3,0.1-2c0.1-0.6,0.2-1.3,0.3-1.9
		c0.2-0.6,0.3-1.3,0.5-1.9c0.1-0.4,0.3-0.8,0.4-1.2c0.2-0.4,0.2-0.9,0.2-1.3c0-0.6-0.2-1.1-0.5-1.7c-0.3-0.6-0.7-1-1-1.5
		c-0.4-0.4-0.8-0.8-1.1-1s-0.6-0.3-0.8-0.3c-0.1,0-0.1-0.1,0-0.3s0.2-0.5,0.4-0.9c0.2-0.3,0.4-0.7,0.7-1.1c0.3-0.4,0.6-0.7,0.8-1
		c0.3-0.3,0.5-0.5,0.8-0.7c0.2-0.2,0.4-0.2,0.6-0.1c0.4,0.3,0.8,0.6,1.2,0.9s0.8,0.6,1.1,1c0.7,0.9,1.1,1.9,1.2,2.9s0.1,2,0,3.1
		c-0.1,1-0.3,2.1-0.5,3.1c-0.2,1.1-0.4,2.1-0.4,3.1c0,0.6,0,1.2,0.2,1.9c0.1,0.6,0.3,1.3,0.6,1.9c0.3,0.6,0.6,1.2,0.9,1.8
		c0.4,0.6,0.8,1,1.2,1.4c0.4,0.4,0.9,0.7,1.4,0.9c0.5,0.2,1,0.3,1.4,0.2c0-0.3,0-0.6,0-1c0-0.4-0.1-0.9-0.2-1.5
		c-0.1-0.6-0.2-1.4-0.4-2.3c-0.2-0.9-0.4-2-0.6-3.3s-0.5-2.8-0.9-4.5C126,736.4,125.6,734.4,125.2,732.1z"/>
	<path class="st0" d="M157,749.2c-1.5-0.5-2.7-1.4-3.4-2.9l0,0c0,0.1-0.1,0.2-0.1,0.3s-0.1,0.2-0.1,0.3s-0.1,0.3-0.2,0.4
		c-0.1,0.3-0.2,0.5-0.4,0.7c-0.2,0.2-0.4,0.5-0.6,0.7s-0.4,0.4-0.6,0.7c-0.2,0.2-0.4,0.4-0.6,0.7c-0.7,0.1-1.3,0-2-0.3
		s-1.3-0.8-1.9-1.4c-0.6-0.6-1-1.4-1.4-2.3c-0.4-0.9-0.5-1.9-0.5-3c0.3-0.4,0.6-0.8,0.9-1.1c0.3-0.4,0.7-0.7,1.1-1s0.7-0.7,1.1-1.1
		c0.3-0.4,0.7-0.7,0.9-1.2h0.2l0,0c0.6,0.2,1.1,0.4,1.7,0.8c0.5,0.3,1,0.7,1.4,1.1l-1.1-6.1l-7.5,1.2l1.5-2.9l8.2-1.4l2.1,12l0,0
		c0,0.5,0.1,0.9,0.3,1.2c0.2,0.3,0.4,0.6,0.6,0.9s0.5,0.4,0.7,0.6c0.2,0.1,0.4,0.3,0.6,0.3L157,749.2z M149.2,745.9
		c0.5,0.6,1,1,1.4,1.2s0.8,0.2,1,0.1c0.3-0.1,0.5-0.3,0.6-0.5c0.1-0.3,0.2-0.5,0.2-0.8c-0.1,0.1-0.2,0.1-0.4,0.1c-0.2,0-0.3,0-0.4,0
		c-0.3-0.2-0.4-0.3-0.5-0.5s-0.1-0.4,0-0.5c0.1-0.2,0.2-0.3,0.4-0.4c0.2-0.1,0.4-0.1,0.6-0.1c0.1,0,0.2,0,0.3,0.1
		c0.1,0,0.2,0.1,0.3,0.2l-0.4-0.3c-0.3-0.3-0.7-0.6-1-0.9c-0.4-0.3-0.7-0.6-1.1-0.9s-0.8-0.5-1.2-0.8c-0.4-0.2-0.8-0.4-1.2-0.6
		c0,0.4,0.1,0.8,0.1,1.3c0.1,0.5,0.1,0.9,0.3,1.3c0.1,0.4,0.3,0.8,0.5,1.2S148.9,745.7,149.2,745.9z"/>
	<path class="st0" d="M169.8,744.9L169.8,744.9L169.8,744.9c-0.2,0.1-0.5,0.3-0.7,0.4c-0.2,0.2-0.4,0.3-0.7,0.4l-2.7,1.8
		c-0.3-0.1-0.7-0.2-1-0.5c-0.4-0.3-0.7-0.6-1-1c-0.3-0.4-0.6-0.8-0.9-1.1c-0.3-0.4-0.5-0.7-0.7-1.1c-0.3-0.5-0.5-0.9-0.5-1.3
		c0-0.4,0-0.8,0.2-1.2c0.1-0.4,0.3-0.8,0.6-1.1c0.3-0.4,0.5-0.7,0.7-1.1c0.2-0.4,0.5-0.7,0.6-1.1c0.2-0.4,0.3-0.7,0.3-1.1
		c0-0.5-0.1-0.9-0.2-1.4c-0.2-0.5-0.4-0.9-0.7-1.2c-0.3-0.4-0.6-0.6-1-0.9c-0.4-0.2-0.8-0.3-1.3-0.3l-0.1,0.1l3.1-3.5v0.1
		c0.1,0,0.2,0,0.4,0.1l0,0l0,0l0,0c0.7,0.3,1.2,0.8,1.6,1.3c0.3,0.5,0.5,1.1,0.6,1.7c0.1,0.6,0,1.2-0.1,1.9
		c-0.1,0.7-0.3,1.3-0.5,1.9c-0.2,0.6-0.4,1.2-0.6,1.8s-0.4,1.1-0.5,1.5c-0.1,0.4-0.1,0.9,0.1,1.4s0.4,1,0.7,1.4
		c0.3,0.4,0.7,0.8,1.1,1.2c0.4,0.3,0.8,0.5,1.2,0.6c0.3-0.2,0.6-0.4,0.9-0.6s0.5-0.4,0.6-0.4l0.2-0.4l-0.9-6c-0.2-1-0.3-1.9-0.3-2.8
		c0-0.9,0.1-1.7,0.3-2.5s0.6-1.5,1.2-2.2s1.4-1.3,2.4-1.9l1.9-0.6l-0.1,0.1c-0.1,0.1-0.1,0.1-0.1,0.1c-0.2,0.2-0.4,0.3-0.6,0.5
		c-0.2,0.1-0.3,0.3-0.5,0.4c-0.2,0.1-0.3,0.3-0.4,0.5s-0.2,0.5-0.3,0.8c-0.2,0.6-0.4,1.2-0.5,1.8c-0.2,0.6-0.3,1.2-0.4,1.8l2.7,18.1
		l-3.4,5.3l-3.8-1.9c-0.6-0.3-1.1-0.5-1.5-0.6c-0.4-0.1-0.8-0.3-1.1-0.3c-0.4-0.1-0.7-0.2-1.1-0.3s-0.9-0.3-1.6-0.5
		c0.4-1,1-1.9,1.7-2.5c0.7-0.6,1.5-1.1,2.3-1.4s1.7-0.4,2.6-0.3c0.9,0.1,1.7,0.3,2.5,0.8L169.8,744.9z M165.3,751.4
		c0.2,0,0.5,0.1,0.8,0.1c0.3,0.1,0.6,0.2,1,0.3c0.3,0.1,0.7,0.3,1.1,0.4c0.4,0.2,0.7,0.4,1,0.6c0.3-0.4,0.6-0.8,0.9-1.2
		s0.5-0.9,0.7-1.3c-0.4,0-0.9-0.1-1.4-0.1s-1,0-1.4,0.1c-0.5,0.1-0.9,0.2-1.4,0.4C166.1,750.8,165.7,751.1,165.3,751.4z"/>
	<path class="st0" d="M189.4,725.9l-0.2,0.4c-0.2,0.7-0.5,1.2-0.9,1.6l-3.5,6.1c0.5,0.2,1,0.5,1.5,0.7s1,0.4,1.5,0.6s1,0.4,1.4,0.6
		c0.5,0.2,0.9,0.4,1.3,0.6c0,0.4-0.1,0.9-0.2,1.4s-0.3,1-0.5,1.6l0,0c-0.1,0.4-0.3,0.9-0.5,1.5c-0.2,0.6-0.5,1.1-0.7,1.6
		c-0.3,0.5-0.6,0.9-0.9,1.3c-0.3,0.4-0.6,0.6-0.9,0.6c-0.7,0.1-1.4,0.2-2.2,0.2c-0.8,0-1.6-0.2-2.3-0.4c-0.7-0.3-1.4-0.6-2-1.1
		s-1-1.2-1.2-2c-0.1-0.7-0.1-1.3,0-1.9c0.2-0.6,0.4-1,0.7-1.4c0.3-0.4,0.8-0.6,1.3-0.8c0.5-0.1,1-0.1,1.6,0.1l0.2-0.4l-0.3-0.1
		c-1.1-0.5-2-1.1-2.8-2c-0.8-0.8-1.5-1.7-2-2.8c0.5-0.2,1-0.5,1.4-0.8c0.4-0.4,0.7-0.8,1-1.3s0.6-1,0.9-1.5s0.6-1.1,0.9-1.6
		c0.4,0.3,0.9,0.4,1.4,0.4s1,0,1.4-0.1c0.7-0.1,1.4-0.2,2.1-0.3s1.4-0.3,2.1-0.5l0.2-0.3L189.4,725.9z M187.5,738.7
		c-0.7-0.3-1.2-0.5-1.7-0.7c-0.4-0.2-0.8-0.4-1.1-0.5c-0.3-0.1-0.6-0.3-0.8-0.4c-0.2-0.1-0.5-0.2-0.7-0.4l-0.2,0.4
		c0.1,0,0.2,0.1,0.3,0.2c0.1,0.1,0.2,0.1,0.3,0.2c0.1,0.1,0.2,0.2,0.3,0.3c0.1,0.1,0.1,0.3,0.2,0.4c0.2,0.4,0.2,0.8,0,1.2
		s-0.4,0.7-0.8,0.9c-0.1,0.1-0.2,0.1-0.4,0.1c-0.1,0-0.3,0-0.4,0c0,0-0.1,0-0.1-0.1h-0.1c0,0-0.1,0-0.2-0.1c-0.1,0-0.2-0.1-0.2-0.2
		c-0.1-0.1-0.1-0.3-0.2-0.4c0-0.2,0-0.4,0-0.7s0.2-0.6,0.4-0.9c-0.3,0-0.5,0-0.7,0.1c-0.2,0.1-0.4,0.3-0.6,0.5
		c-0.1,0.7,0.1,1.2,0.5,1.6c0.4,0.4,0.9,0.7,1.6,1c0.6,0.2,1.3,0.3,2.1,0.4c0.8,0.1,1.4,0,2.1-0.1c0.4-0.1,0.7-0.2,0.9-0.5
		c0.2-0.2,0.4-0.5,0.4-0.8s0-0.6-0.1-0.9S187.8,738.9,187.5,738.7z M180.8,730.1c0.4,0.9,0.9,1.7,1.5,2.2c0.6,0.6,1.4,1.1,2.1,1.5
		l3-5.3c-0.4,0.3-0.9,0.5-1.4,0.7s-1.1,0.3-1.6,0.4c-0.6,0.1-1.2,0.2-1.8,0.3C182.1,730,181.5,730.1,180.8,730.1z M183.2,738.8
		c-0.2-0.3-0.4-0.5-0.8-0.6c-0.3,0.4-0.4,0.7-0.3,1s0.2,0.5,0.3,0.6c0.2,0.1,0.4,0.2,0.5,0.2c0.2,0,0.3-0.2,0.3-0.4
		c0,0,0-0.1,0.1-0.1C183.4,739.3,183.3,739,183.2,738.8z"/>
	<path class="st0" d="M216.2,737.2c0.3,0.4,0.7,0.7,1,0.8c0.3,0.1,0.7,0.1,0.9,0c0.3-0.1,0.5-0.4,0.6-0.8c-0.1,0.1-0.3,0.1-0.4,0
		c-0.1-0.1-0.3-0.1-0.3-0.2c-0.2-0.3-0.3-0.5-0.2-0.7c0-0.2,0.1-0.3,0.2-0.5c0.1-0.1,0.3-0.2,0.5-0.2s0.4,0,0.6,0.1
		c0.1,0.1,0.3,0.2,0.5,0.4c0.2,0.2,0.3,0.5,0.4,0.8s0,0.6-0.2,1.1l0,0c0,0.1-0.1,0.1-0.2,0.2c-0.1,0.1-0.2,0.2-0.3,0.3
		c-0.1,0.1-0.2,0.2-0.3,0.3c-0.2,0.2-0.4,0.4-0.6,0.5c-0.2,0.1-0.5,0.3-0.8,0.4c-0.3,0.1-0.6,0.3-0.8,0.4c-0.3,0.1-0.6,0.3-0.8,0.4
		c-0.8-0.2-1.4-0.6-2-1.3s-1-1.5-1.2-2.5l-0.3,0l-1.6-12.5c-0.7,0.1-1.5,0-2.2-0.3s-1.4-0.8-1.9-1.5c0.2-0.1,0.3-0.3,0.5-0.4
		c0.1-0.1,0.3-0.2,0.4-0.3s0.2-0.2,0.4-0.4c0.1-0.1,0.3-0.3,0.4-0.4c0-0.1,0.1-0.1,0.1-0.2c0.2-0.2,0.4-0.3,0.6-0.4
		c0.2-0.1,0.4-0.2,0.6-0.2s0.3,0.1,0.5,0.3c0.1,0.2,0.2,0.4,0.2,0.8c-0.2,0.3-0.5,0.3-1,0.2c-0.1-0.1-0.1-0.1-0.2-0.1
		c0,0-0.1,0-0.2,0.1l0,0l-0.2,0.3c0.2,0.3,0.5,0.6,0.9,0.8c0.3,0.2,0.7,0.2,1.1,0.2l-0.5-3.9l0,0v-0.2c0-0.1,0-0.2,0-0.2s0,0,0-0.1
		c0-0.6,0.1-1.2,0.2-1.7s0.3-1.1,0.5-1.6s0.6-0.9,1-1.4c0.4-0.4,0.9-0.8,1.5-1.2l1.5-0.5c0,0,0,0,0,0.1c0,0.1-0.1,0.1-0.1,0.1
		c-0.2,0.1-0.3,0.3-0.5,0.4c-0.1,0.1-0.3,0.2-0.4,0.4c-0.1,0.1-0.2,0.3-0.3,0.5s-0.2,0.4-0.3,0.7c-0.1,0.4-0.2,0.8-0.2,1.2
		s0,0.8,0,1.2l0.2,2.1l0.4,3.8c0.5-0.1,0.9-0.2,1.4-0.4s0.9-0.4,1.3-0.7c0.4-0.3,0.8-0.6,1.1-0.9c0.3-0.3,0.5-0.7,0.7-1.1l0.1-0.1
		c0.1,0.5,0,1-0.2,1.5s-0.5,1-0.9,1.4c-0.4,0.4-0.9,0.8-1.4,1.1c-0.6,0.3-1.1,0.6-1.8,0.7l1.2,9.9l0,0l0,0l0.2,1.8
		C215.6,736.3,215.9,736.8,216.2,737.2z"/>
	<path class="st0" d="M235.1,734.6c-0.2,0.4-0.4,0.9-0.8,1.5c-0.3,0.6-0.9,1.2-1.7,2c-0.1,0.1-0.3,0.2-0.4,0.2s-0.3,0.1-0.5,0.2
		c-0.7,0.2-1.3,0.2-2,0.2c-0.6-0.1-1.2-0.2-1.8-0.5c-0.5-0.3-1-0.6-1.4-1c-0.4-0.4-0.7-0.9-0.9-1.5l0,0c-0.3-0.7-0.5-1.5-0.6-2.3
		s-0.1-1.7,0-2.6c0.1-0.4,0.2-0.8,0.5-1.1v-0.3c-0.2-0.1-0.4-0.4-0.6-0.6c-0.2-0.3-0.3-0.6-0.4-0.9s-0.2-0.6-0.2-1
		c0-0.4,0-0.6,0-0.9c0-0.1,0.1-0.3,0.1-0.6s0.1-0.6,0.3-0.9c0.2-0.4,0.4-0.8,0.8-1.3c0.3-0.5,0.8-1,1.4-1.5c0.1-0.1,0.3-0.1,0.4-0.2
		c0.1-0.1,0.3-0.1,0.5-0.2c1-0.3,1.9-0.3,2.7-0.1c0.9,0.2,1.6,0.6,2.2,1.2c0.3,0.3,0.6,0.6,0.8,0.9c0.2,0.4,0.4,0.9,0.5,1.6v0.1
		l0.9,8.4L235.1,734.6z M231.1,725.2c-0.1-0.2-0.2-0.3-0.3-0.5c-0.1-0.1-0.2-0.3-0.3-0.4l-0.3-0.3c-0.5-0.5-0.9-0.8-1.4-0.8
		c-0.5-0.1-0.9,0-1.2,0.3c-0.4,0.2-0.6,0.6-0.9,1c-0.2,0.5-0.3,0.9-0.2,1.5c0.1,0.3,0.2,0.5,0.2,0.7c0.1,0.2,0.2,0.5,0.4,0.7
		c0.1,0.1,0.2,0.2,0.3,0.3c0.1,0.1,0.3,0.1,0.4,0.1c0.2-0.1,0.4-0.2,0.6-0.2s0.4,0,0.5,0c0.3,0,0.6,0.1,0.8,0.3
		c0.3,0.2,0.5,0.4,0.6,0.7c0.1,0.3,0.3,0.6,0.3,1c0,0.3,0,0.7-0.1,1c0,0.1-0.1,0.3-0.2,0.4c-0.1,0.1-0.2,0.2-0.3,0.3
		c-0.1,0.1-0.3,0.1-0.4,0.1s-0.3,0-0.4-0.1c-0.1,0-0.2,0-0.2,0c-0.1,0-0.1-0.1-0.2-0.2c0,0,0,0,0-0.1c0.2,0,0.4,0,0.5-0.2
		s0.1-0.3,0.1-0.5s-0.1-0.3-0.2-0.5c-0.1-0.1-0.3-0.1-0.5-0.1l0,0l0,0c-0.3,0.1-0.5,0.3-0.7,0.6s-0.3,0.6-0.4,0.9s-0.1,0.7-0.1,1.1
		c0,0.4,0,0.7,0,1c0.1,0.8,0.4,1.5,0.7,2.1h-0.1c0.3,0.5,0.7,1,1,1.2c0.3,0.3,0.6,0.5,0.9,0.6c0.3,0.1,0.6,0.1,0.8,0
		c0.3-0.1,0.5-0.3,0.7-0.5l0.2-0.4c0.1-0.2,0.2-0.4,0.2-0.6c0.1-0.2,0.1-0.4,0.1-0.7l-1-9.2L231.1,725.2z"/>
	<path class="st0" d="M258.7,711c0,0.1,0,0.1,0,0.2l0,0l1.8,18.4c0.1-0.2,0.3-0.3,0.5-0.4c0.2-0.1,0.4,0,0.7,0.1l0.2,0.3
		c0.3,0.3,0.4,0.7,0.5,1.1c0,0.4,0,0.9-0.1,1.4s-0.3,1-0.5,1.5s-0.5,1-0.7,1.4c-0.3,0.4-0.5,0.8-0.8,1.1c-0.3,0.3-0.6,0.5-0.8,0.7
		c-0.7-0.6-1.3-1.2-1.8-1.8c-0.5-0.6-0.9-1.2-1.2-1.9c-0.3-0.7-0.6-1.4-0.7-2.2c-0.2-0.8-0.3-1.7-0.4-2.7l-1.2-13.4
		c0-0.4-0.2-0.7-0.5-1s-0.6-0.4-1.1-0.7l3-4h0.1c0,0,0,0,0.1,0c0.1-0.3,0.2-0.4,0.4-0.5c0.1,0,0.2,0,0.4,0c0.1,0.1,0.3,0.1,0.3,0.1
		c0.5,0.2,0.9,0.5,1.2,0.8C258.4,710,258.6,710.4,258.7,711z M258.3,711.2l-0.1-0.1c-0.1-0.5-0.2-0.9-0.5-1.2
		c-0.2-0.3-0.6-0.5-1-0.7c-0.1,0-0.2-0.1-0.2-0.1c-0.1-0.1-0.2-0.1-0.2,0l-0.1,0.4c0.4,0.1,0.7,0.3,1,0.5c0.2,0.3,0.4,0.6,0.5,1
		c0.1,0.4,0.2,1,0.3,1.6c0.1,0.6,0.1,1.4,0.2,2.2c0,0.3,0,0.7,0.1,1.3s0.1,1.1,0.2,1.8c0.1,0.7,0.1,1.4,0.2,2.2s0.2,1.6,0.2,2.3
		c0.1,0.8,0.1,1.6,0.2,2.3c0.1,0.7,0.1,1.5,0.1,2.1c0.1,0.5,0.1,0.9,0.1,1.5c0,0.5,0.1,1,0.2,1.5s0.3,0.9,0.5,1.2
		c0.2,0.3,0.6,0.5,1.1,0.6c0.3-0.1,0.5-0.3,0.5-0.4c0.1-0.2,0.1-0.4,0.1-0.6c0-0.3,0-0.5-0.1-0.6c-0.1-0.1-0.2-0.2-0.3-0.2
		c-0.1,0-0.2,0-0.3,0c-0.1,0.1-0.2,0.1-0.3,0.2c0.3,0.2,0.5,0.3,0.5,0.5s0,0.3-0.1,0.4c-0.1,0.1-0.3,0.1-0.4,0
		c-0.2-0.1-0.3-0.3-0.5-0.6L258.3,711.2L258.3,711.2z"/>
	<path class="st0" d="M274,707.7c0.8,0,1.6,0.1,2.5,0.2c0.9,0.1,1.7,0.2,2.6,0.1c0.9-0.1,1.7-0.3,2.6-0.7c0.8-0.4,1.6-1.1,2.3-2.2
		c0.5,0.6,0.7,1.2,0.8,1.8c0.1,0.6-0.1,1.2-0.3,1.8c-0.3,0.6-0.7,1.1-1.2,1.7c-0.5,0.5-1.1,1-1.8,1.3c-0.3,0.2-0.7,0.3-1.2,0.4
		c-0.5,0.1-1,0.1-1.6,0.2c0.2,2.8,0.4,5.3,0.6,7.4c0.2,2.1,0.3,3.9,0.5,5.5c0.2,1.6,0.3,2.8,0.4,3.9c0.1,1,0.2,1.9,0.3,2.5l0.4-0.7
		v0.1c0.1-0.1,0.2-0.1,0.3-0.3c0.1-0.1,0.2-0.2,0.4-0.4c0.1-0.1,0.3-0.2,0.4-0.3s0.3-0.1,0.4-0.1s0.2,0,0.5,0.2
		c0.2,0.1,0.4,0.2,0.7,0.4c0.2,0.2,0.4,0.3,0.6,0.5s0.3,0.3,0.3,0.5c0,0.3-0.1,0.6-0.3,1c-0.3,0.4-0.6,0.8-0.9,1.3
		c-1,0.5-1.9,0.6-2.8,0.5c-0.9-0.1-1.7-0.4-2.4-1c-0.7-0.5-1.3-1.3-1.8-2.3s-0.8-2.1-1-3.4l-1.2-15.5c0.1,0,0.2,0,0.3,0
		c-0.5,0-0.9,0-1.3,0l0,0c-0.6,0-1.3,0-1.9,0.1c-0.6,0.1-1.2,0.3-1.6,0.6c-0.4,0.3-0.8,0.8-0.9,1.4c-0.2,0.6-0.1,1.4,0.2,2.4
		c0,0.1-0.1,0.2-0.2,0.2s-0.2,0-0.2-0.1c-0.2-0.4-0.3-0.8-0.4-1.3s-0.2-1-0.2-1.4c0-0.4,0.1-0.8,0.2-1.3s0.2-1,0.4-1.5
		c0.2-0.5,0.4-1,0.6-1.4c0.2-0.4,0.5-0.7,0.7-0.9c0.3-0.3,0.7-0.5,1.1-0.7s0.8-0.3,1.2-0.4c0.4-0.1,0.9-0.1,1.3-0.1
		S273.6,707.7,274,707.7z M278.9,729.4c0.1,0.6,0.2,1.1,0.3,1.6c0.1,0.5,0.3,1,0.4,1.4l-1.5-20c-0.1,0-0.2,0-0.3,0
		c-0.1,0-0.2,0-0.3,0L278.9,729.4z M281.7,731.3c-0.2,0-0.3,0.1-0.5,0.2c-0.2,0.1-0.2,0.2-0.3,0.4c0.2,0.2,0.3,0.3,0.4,0.3
		s0.2,0.1,0.4,0.1v0.2c-0.1,0-0.3-0.1-0.5-0.1s-0.5-0.1-0.6-0.2c0.1,0.4,0.2,0.7,0.2,0.9c0,0.2,0.2,0.3,0.2,0.3
		c0.2,0,0.4-0.1,0.6-0.2c0.2-0.1,0.4-0.2,0.6-0.4c0.1-0.3,0.1-0.6-0.1-0.9C282.1,731.6,281.9,731.4,281.7,731.3z"/>
	<path class="st0" d="M307.8,711.1c-0.1,0.1-0.2,0.1-0.3,0.2c-0.1,0.1-0.2,0.2-0.4,0.3c-0.1,0.1-0.3,0.2-0.4,0.3s-0.3,0.1-0.4,0.1
		s-0.2-0.1-0.5-0.2c-0.2-0.1-0.4-0.3-0.6-0.4c-0.2-0.1-0.4-0.3-0.6-0.5s-0.3-0.4-0.3-0.5c0-0.3,0.1-0.7,0.4-1.1
		c0.3-0.4,0.6-0.9,1-1.3c0.4-0.4,0.8-0.9,1.2-1.3c0.4-0.4,0.7-0.7,0.9-1c0.2-0.2,0.3-0.3,0.5-0.4c0.1-0.1,0.3-0.2,0.4-0.2
		c0.7,0.4,1.2,0.7,1.6,0.9c0.4,0.2,0.6,0.3,0.8,0.4c0.2,0.1,0.3,0.1,0.3,0.1l0.1,1.5c0.2-0.2,0.5-0.5,0.9-0.8s0.7-0.7,1.1-1
		s0.7-0.6,0.9-0.9c0.3-0.3,0.5-0.4,0.5-0.5c0.4,0,0.9,0.2,1.5,0.4c0.6,0.2,1.2,0.4,1.9,0.7c0.6,0.3,1.2,0.6,1.8,1
		c0.6,0.3,1,0.7,1.3,1l0.5,10.8c0,0.1-0.1,0.2-0.5,0.5s-0.8,0.5-1.4,0.9c-0.6,0.4-1.3,0.7-2.1,1c-0.8,0.3-1.7,0.6-2.6,0.9
		c-0.2-0.1-0.4-0.1-0.6-0.1s-0.4-0.1-0.7-0.1c-0.2-0.1-0.5-0.2-0.8-0.3s-0.7-0.4-1.1-0.6l0.4,7.7c0.1,0.5,0.2,1.1,0.3,1.6
		c0.1,0.5,0.2,1,0.4,1.4c0.2,0.4,0.4,0.7,0.6,1s0.6,0.4,1,0.4c0.1,0.1,0.1,0.1,0.1,0.2c0,0.1,0,0.1-0.1,0.2c-0.8,0.2-1.6,0.2-2.3,0
		c-0.7-0.3-1.4-0.7-1.9-1.3c-0.6-0.6-1-1.4-1.4-2.2c-0.4-0.8-0.6-1.9-0.7-2.9L307.8,711.1z M306.9,709.3c0.2,0,0.3,0,0.4,0.1
		c0.1,0.1,0.2,0.1,0.4,0.2l0.1,0.1v-1.1c0-0.1-0.1-0.2-0.2-0.2s-0.3,0-0.4,0c-0.3,0-0.4,0.1-0.6,0.3c-0.1,0.2-0.2,0.5-0.2,0.7
		s0,0.5,0.2,0.8c0.1,0.3,0.3,0.4,0.4,0.5c0.2,0,0.4-0.1,0.5-0.2c0.2-0.1,0.2-0.3,0.3-0.4c-0.2-0.2-0.3-0.3-0.4-0.4
		c-0.1-0.1-0.2-0.1-0.4-0.1L306.9,709.3z M313.4,709c-0.5,0.4-0.9,0.8-1.1,1.3s-0.5,1-0.6,1.5v0.2c0,0.1,0.1,0.3,0.1,0.4
		c0,0.1,0.1,0.3,0.1,0.4c0.2,0.3,0.4,0.5,0.8,0.6c0.4,0.1,0.7,0.2,1.1,0.2s0.8,0,1.2-0.1c0.4-0.1,0.7-0.2,1-0.4l-0.2-3.9
		c-0.3-0.1-0.6-0.2-0.9-0.3s-0.6-0.2-0.9-0.2C313.9,708.7,313.6,708.8,313.4,709z M312.6,715.2c0.2-0.1,0.4-0.1,0.7-0.1
		c0.3,0,0.6-0.1,0.9-0.1s0.6,0,1,0.1c0.3,0.1,0.6,0.1,0.9,0.2l-0.1-1.7c-0.3,0.2-0.7,0.3-1.1,0.4c-0.4,0.1-0.8,0.1-1.2,0.1
		s-0.8-0.1-1.1-0.2c-0.4-0.1-0.7-0.3-0.9-0.5l0.1,2.5c0.1-0.1,0.2-0.2,0.3-0.4C312.3,715.3,312.4,715.2,312.6,715.2z M313.1,717.1
		c0.4-0.1,0.8,0,1.2,0.1c0.4,0.1,0.6,0.4,0.7,0.7s0.2,0.6,0.1,1c-0.1,0.4-0.3,0.7-0.7,1c0.2-0.3,0.2-0.5,0.1-0.7s-0.3-0.4-0.6-0.5
		c-0.2-0.1-0.5-0.1-0.7,0.1c-0.2,0.1-0.4,0.4-0.4,0.9l0.4,0.5c0.2,0.1,0.5,0.1,0.7,0.2c0.2,0.1,0.5,0.1,0.7,0.1
		c0.6-0.2,1.2-0.4,1.8-0.7l-0.2-3.9c-0.6-0.3-1.3-0.5-2-0.5s-1.4,0.2-1.9,0.6c-0.1,0.1-0.2,0.2-0.3,0.4l0.1,1.8
		c0.1-0.3,0.2-0.5,0.4-0.7C312.6,717.3,312.8,717.1,313.1,717.1z M316.7,719.6c0.1-0.1,0.2-0.1,0.3-0.2l0,0l-0.5-9.9
		c-0.1,0-0.1-0.1-0.2-0.1c0,0-0.1-0.1-0.2-0.1L316.7,719.6z M317.4,718.9c0.1-0.1,0.2-0.3,0.4-0.5c0.1-0.2,0.3-0.4,0.4-0.6l-0.3-7.5
		c-0.3-0.3-0.6-0.5-0.9-0.7L317.4,718.9z"/>
	<path class="st0" d="M333.2,731.6L333.2,731.6l-3.1-2.2l-0.3-12.8c0-0.1,0-0.3-0.1-0.5s-0.2-0.4-0.3-0.5c-0.1-0.1-0.3-0.2-0.4-0.2
		s-0.2,0.1-0.3,0.3c-0.1,0.2,0,0.3,0.1,0.4c0.1,0.1,0.3,0.1,0.5,0l-0.1,0.3l0,0c0,0.1-0.1,0.2-0.1,0.3c-0.1,0.1-0.2,0.2-0.3,0.2
		c-0.1,0.1-0.2,0.1-0.4,0.1c-0.1,0-0.2-0.1-0.4-0.1c-0.1-0.1-0.2-0.2-0.3-0.3s-0.1-0.2-0.1-0.4s0.1-0.3,0.2-0.4
		c0.1-0.1,0.2-0.3,0.4-0.4c0.2-0.1,0.3-0.2,0.4-0.3s0.3-0.2,0.4-0.2l0.3-0.2c0.3-0.1,0.5-0.3,0.7-0.5s0.5-0.4,0.7-0.5h0.1
		c0.3,0.2,0.6,0.5,0.9,0.9c0.3,0.4,0.6,0.8,0.8,1.1l1.5-1.4c0.1,0.1,0.3,0.2,0.6,0.3c0.3,0.1,0.6,0.3,0.9,0.4c0.3,0.1,0.7,0.3,1,0.5
		c0.4,0.2,0.7,0.3,1,0.5s0.6,0.3,0.8,0.4c0.2,0.1,0.3,0.3,0.3,0.4c0,0.3-0.1,0.6-0.2,0.9s-0.3,0.6-0.5,0.9s-0.4,0.5-0.6,0.8
		s-0.5,0.4-0.7,0.5c-0.1,0.1-0.2,0.2-0.3,0.2c-0.1,0-0.2-0.1-0.2-0.3c0.2-0.4,0.3-0.7,0.2-1.1c-0.1-0.4-0.3-0.7-0.5-1
		c-0.3-0.3-0.6-0.6-1-0.8c-0.4-0.2-0.8-0.4-1.1-0.6l-1,0.7l0.2,6.9L333.2,731.6z"/>
	<path class="st0" d="M353.5,727.3c-0.2,0.4-0.5,0.9-0.9,1.4c-0.4,0.6-1,1.2-1.9,1.8c-0.1,0.1-0.3,0.1-0.5,0.2
		c-0.2,0.1-0.4,0.1-0.5,0.1c-0.7,0.1-1.4,0.1-2,0c-0.6-0.1-1.2-0.3-1.7-0.6c-0.5-0.3-0.9-0.7-1.3-1.2s-0.6-1-0.8-1.6l0,0
		c-0.3-0.7-0.4-1.5-0.4-2.3s0.1-1.7,0.3-2.5c0.1-0.4,0.3-0.7,0.6-1v-0.3c-0.2-0.2-0.4-0.4-0.5-0.7c-0.1-0.3-0.3-0.6-0.4-0.9
		s-0.1-0.7-0.1-1s0-0.6,0.1-0.9c0-0.1,0.1-0.3,0.2-0.6c0.1-0.3,0.2-0.6,0.4-0.9c0.2-0.4,0.5-0.7,0.9-1.2c0.4-0.4,0.9-0.9,1.5-1.4
		c0.1-0.1,0.3-0.1,0.5-0.2c0.2-0.1,0.4-0.1,0.5-0.1c1-0.2,1.9-0.1,2.7,0.2c0.8,0.3,1.5,0.8,2.1,1.4c0.3,0.3,0.5,0.6,0.7,1
		c0.2,0.4,0.3,0.9,0.4,1.6v0.1l0.1,8.5V727.3z M350.3,717.5c-0.1-0.2-0.2-0.3-0.2-0.5s-0.2-0.3-0.2-0.4l-0.3-0.4
		c-0.4-0.5-0.9-0.9-1.3-1c-0.5-0.1-0.9-0.1-1.3,0.1c-0.4,0.2-0.7,0.5-0.9,1c-0.2,0.4-0.4,0.9-0.4,1.4c0.1,0.3,0.1,0.5,0.2,0.8
		c0.1,0.2,0.2,0.5,0.3,0.7c0.1,0.1,0.2,0.2,0.3,0.3c0.1,0.1,0.3,0.1,0.4,0.2c0.2-0.1,0.4-0.1,0.6-0.1c0.2,0,0.4,0,0.5,0
		c0.3,0.1,0.5,0.2,0.8,0.4c0.2,0.2,0.4,0.5,0.6,0.8c0.1,0.3,0.2,0.6,0.2,1c0,0.4-0.1,0.7-0.2,1c-0.1,0.1-0.1,0.2-0.3,0.4
		c-0.1,0.1-0.2,0.2-0.4,0.3c-0.1,0.1-0.3,0.1-0.4,0.1s-0.3-0.1-0.4-0.1c-0.1,0-0.2,0-0.2-0.1c0-0.1-0.1-0.1-0.2-0.2c0,0,0,0,0-0.1
		c0.2,0.1,0.4,0,0.5-0.1c0.1-0.1,0.2-0.3,0.2-0.5s-0.1-0.3-0.2-0.5c-0.1-0.1-0.3-0.2-0.5-0.1l0,0l0,0c-0.3,0.1-0.6,0.3-0.8,0.5
		s-0.4,0.6-0.5,0.9s-0.2,0.7-0.2,1c0,0.4-0.1,0.7-0.1,1c0,0.8,0.2,1.6,0.5,2.2l0,0c0.3,0.6,0.6,1,0.9,1.3c0.3,0.3,0.6,0.5,0.9,0.6
		c0.3,0.1,0.6,0.1,0.8,0.1c0.3-0.1,0.5-0.2,0.7-0.4l0.3-0.3c0.1-0.2,0.2-0.4,0.3-0.6s0.1-0.4,0.2-0.7l-0.2-9.2L350.3,717.5z"/>
	<path class="st0" d="M366.4,709.9c0.1,0.3,0.1,0.6,0.2,0.9c0,0.3,0.1,0.6,0.2,0.8l0.1,0.4c0,0.1,0.1,0.3,0.1,0.4
		c0.1,0.2,0.1,0.3,0.1,0.5s0,0.4,0,0.5c0,0.2-0.1,0.3-0.1,0.4c-0.1,0.1-0.2,0.2-0.3,0.2s-0.2,0.1-0.4,0c-0.1,0-0.2-0.1-0.4-0.1
		c-0.1-0.1-0.2-0.2-0.3-0.3c-0.1-0.1-0.1-0.2-0.1-0.4c0-0.1,0.1-0.2,0.1-0.4l0,0l0.1-0.3c0.1,0.2,0.2,0.3,0.4,0.3s0.3,0,0.4-0.2
		c0.1-0.2,0.1-0.4,0-0.5c-0.1-0.1-0.3-0.1-0.4-0.1c-0.2,0-0.4,0.1-0.5,0.2c-0.2,0.1-0.3,0.2-0.4,0.3l-1.7,2.2l-0.1,12.6
		c0,0.2,0.1,0.4,0.1,0.7c0.1,0.3,0.1,0.5,0.2,0.8c0.1,0.3,0.2,0.5,0.3,0.8c0.1,0.2,0.2,0.5,0.3,0.7c0.1,0.3,0.3,0.5,0.4,0.7
		c0.1,0.2,0.2,0.3,0.4,0.4c0.1,0.1,0.3,0.2,0.4,0.3c0.2,0.1,0.3,0.2,0.5,0.3c0,0,0,0,0.1,0s0,0,0.1,0.1v0.1l-1.6-0.3
		c-1.2-0.6-2.1-1.3-2.7-2.3c-0.6-1-1-2.1-1.2-3.4l-0.1-19.3c-0.9,0.5-1.7,1-2.4,1.6c0.3-0.7,0.8-1.4,1.3-1.9c0.6-0.6,1.1-1,1.7-1.4
		c0.6-0.4,1.2-0.7,1.7-0.9c0.5-0.2,1-0.4,1.3-0.4c0.1,0,0.2,0,0.4-0.1c0.2,0,0.4-0.1,0.7-0.1s0.5,0,0.7,0s0.4,0.1,0.6,0.2l2.9,3.1
		c0,0.3-0.1,0.6-0.3,0.8s-0.5,0.4-0.8,0.5c-0.3,0.1-0.7,0.2-1.1,0.3s-0.8,0.1-1.3,0c-0.4,0-0.8-0.1-1.2-0.2c-0.4-0.1-0.7-0.3-1-0.5
		c0.4-0.1,0.8-0.2,1.2-0.3c0.4-0.1,0.8-0.2,1.2-0.3s0.6-0.3,0.9-0.6c0.2-0.3,0.4-0.6,0.4-1.1c-0.7-0.1-1.4-0.2-2.1-0.1
		c-0.7,0.1-1.3,0.1-2,0.3v6l1-1.6c0.2-0.1,0.4-0.1,0.5-0.2c0.1,0,0.2-0.1,0.4-0.1c0.1,0,0.2,0,0.3,0
		C365.9,709.8,366,709.8,366.4,709.9L366.4,709.9z"/>
	<path class="st0" d="M378,723L378,723L378,723c-0.4,0.2-0.8,0.3-1.2,0.3s-0.8-0.1-1.4-0.5v4.7c0.1,0,0.2,0.1,0.3,0.3
		c0.1,0.2,0.2,0.3,0.3,0.3h0.3c0.9,0.1,1.7,0,2.4-0.3c0.8-0.3,1.5-0.8,2.2-1.3s1.3-1.1,1.9-1.8c0.6-0.6,1.1-1.2,1.5-1.7v0.3
		c0,0.7-0.2,1.5-0.6,2.4c-0.4,0.9-0.9,1.7-1.6,2.4c-0.7,0.7-1.5,1.4-2.5,1.9s-2.1,0.8-3.3,0.8c-0.1,0-0.2-0.1-0.4-0.2
		c-0.1-0.1-0.3-0.2-0.4-0.3c-0.2-0.2-0.5-0.4-0.8-0.7s-0.6-0.6-0.9-0.8c-0.4-0.3-0.8-0.6-1.2-1v-11.6c0.1,0,0.3-0.1,0.6-0.3
		s0.6-0.3,0.9-0.6c0.3-0.2,0.7-0.5,1-0.8s0.6-0.7,0.9-1l6.6,2.6c0.2,0.6,0.3,1.2,0.1,1.9s-0.5,1.3-1,2s-1,1.2-1.7,1.8
		C379.4,722.2,378.7,722.7,378,723z M375.5,720.7c0.1-0.2,0.3-0.4,0.6-0.5c0.3-0.1,0.6-0.1,0.8,0c0.1,0.1,0.2,0.3,0.2,0.5
		s0,0.4-0.2,0.6l-0.1-0.1c0-0.1-0.1-0.2-0.3-0.2c-0.1,0-0.3,0-0.4,0.1c-0.1,0.1-0.2,0.2-0.3,0.3s-0.1,0.3,0,0.5s0.2,0.3,0.4,0.4
		c0.2,0.1,0.5,0,0.8-0.1c0.3-0.1,0.6-0.3,1-0.5c0.3-0.2,0.6-0.5,1-0.9c0.3-0.3,0.6-0.7,0.8-1s0.4-0.7,0.5-1s0.1-0.6,0.1-0.9
		l-4.1-1.6l-0.8,0.4V720.7z"/>
	<path class="st0" d="M403,713.1l-0.2,0.3c-0.3,0.6-0.7,1.1-1.2,1.5l-4.4,5.5c0.4,0.3,0.9,0.6,1.4,0.9s0.9,0.6,1.4,0.8
		c0.5,0.3,0.9,0.5,1.3,0.8c0.4,0.3,0.8,0.5,1.2,0.8c-0.1,0.4-0.2,0.8-0.4,1.3s-0.5,1-0.8,1.5l0,0c-0.2,0.4-0.4,0.9-0.8,1.4
		c-0.3,0.5-0.6,1-1,1.4c-0.4,0.4-0.7,0.8-1.1,1.1c-0.4,0.3-0.7,0.5-1,0.5c-0.7,0-1.4,0-2.2-0.2s-1.5-0.4-2.2-0.8
		c-0.7-0.4-1.3-0.8-1.8-1.4c-0.5-0.6-0.8-1.3-0.9-2.1c0-0.7,0.1-1.3,0.3-1.8s0.6-1,1-1.3s0.9-0.5,1.4-0.5c0.5-0.1,1,0.1,1.5,0.3
		l0.3-0.3l-0.3-0.2c-1-0.6-1.8-1.4-2.5-2.4c-0.7-0.9-1.2-2-1.6-3c0.5-0.1,1-0.3,1.5-0.6c0.4-0.3,0.9-0.7,1.2-1.1
		c0.4-0.4,0.8-0.9,1.1-1.4c0.4-0.5,0.7-1,1.1-1.5c0.4,0.3,0.8,0.5,1.3,0.6c0.5,0.1,1,0.1,1.4,0.2c0.7,0,1.5,0,2.2,0s1.4-0.1,2.2-0.2
		l0.2-0.2L403,713.1z M399.1,725.5c-0.6-0.4-1.1-0.7-1.5-0.9c-0.4-0.3-0.7-0.5-1-0.7s-0.5-0.4-0.7-0.5c-0.2-0.1-0.4-0.3-0.6-0.5
		l-0.3,0.3c0.1,0.1,0.2,0.1,0.3,0.2c0.1,0.1,0.2,0.2,0.3,0.2c0.1,0.1,0.2,0.2,0.2,0.4c0.1,0.2,0.1,0.3,0.1,0.4
		c0.1,0.5,0.1,0.9-0.2,1.2c-0.2,0.4-0.5,0.6-1,0.8c-0.1,0-0.3,0.1-0.4,0c-0.1,0-0.3,0-0.4,0c0,0-0.1,0-0.1-0.1h-0.1
		c0,0-0.1-0.1-0.2-0.1c-0.1,0-0.1-0.1-0.2-0.2c-0.1-0.1-0.1-0.3-0.1-0.5s0-0.4,0.1-0.7s0.3-0.5,0.5-0.8c-0.3-0.1-0.5,0-0.7,0
		c-0.2,0.1-0.5,0.2-0.7,0.4c-0.2,0.7-0.1,1.2,0.3,1.7c0.3,0.5,0.8,0.9,1.4,1.2c0.6,0.3,1.2,0.6,2,0.7c0.7,0.2,1.4,0.2,2.1,0.3
		c0.4,0,0.7-0.1,1-0.3s0.4-0.5,0.5-0.8s0.1-0.6,0-0.9C399.5,726,399.4,725.8,399.1,725.5z M394.8,724.9c-0.1-0.3-0.3-0.6-0.7-0.7
		c-0.3,0.4-0.5,0.7-0.5,1s0.1,0.5,0.2,0.7c0.1,0.2,0.3,0.3,0.5,0.3s0.3-0.1,0.4-0.4l0.1-0.1C395,725.4,395,725.1,394.8,724.9z
		 M393.9,716c0.2,1,0.6,1.8,1.1,2.5s1.2,1.3,1.9,1.8l3.8-4.8c-0.5,0.2-1,0.4-1.5,0.5c-0.5,0.1-1.1,0.2-1.7,0.2c-0.6,0-1.2,0-1.8,0
		C395.2,716.1,394.5,716,393.9,716z"/>
	<path class="st0" d="M421.8,713.7l-0.2,0.3c-0.3,0.6-0.7,1.1-1.2,1.4l-4.5,5.4c0.4,0.3,0.9,0.6,1.3,0.9c0.5,0.3,0.9,0.6,1.4,0.9
		s0.9,0.5,1.3,0.8c0.4,0.3,0.8,0.5,1.2,0.8c-0.1,0.4-0.2,0.8-0.4,1.3s-0.5,1-0.8,1.4l0,0c-0.2,0.4-0.5,0.9-0.8,1.4s-0.6,1-1,1.4
		c-0.4,0.4-0.7,0.8-1.1,1.1c-0.4,0.3-0.7,0.4-1,0.4c-0.7,0-1.4-0.1-2.2-0.2c-0.8-0.2-1.5-0.4-2.2-0.8c-0.7-0.4-1.3-0.9-1.7-1.5
		c-0.5-0.6-0.8-1.3-0.8-2.1c0-0.7,0.1-1.3,0.3-1.8s0.6-1,1-1.3s0.9-0.5,1.4-0.5s1,0.1,1.5,0.4l0.3-0.3l-0.3-0.2
		c-1-0.7-1.8-1.5-2.4-2.4c-0.6-0.9-1.2-2-1.5-3.1c0.5-0.1,1-0.3,1.5-0.6c0.4-0.3,0.9-0.7,1.3-1.1c0.4-0.4,0.8-0.9,1.1-1.4
		c0.4-0.5,0.7-1,1.1-1.4c0.4,0.3,0.8,0.5,1.3,0.6c0.5,0.1,1,0.1,1.4,0.2c0.7,0.1,1.5,0.1,2.2,0c0.7-0.1,1.4-0.1,2.2-0.1l0.2-0.2
		L421.8,713.7z M417.7,726c-0.6-0.4-1.1-0.7-1.5-1s-0.7-0.5-1-0.7s-0.5-0.4-0.7-0.5c-0.2-0.2-0.4-0.3-0.6-0.5l-0.4,0.4
		c0.1,0.1,0.2,0.1,0.3,0.2c0.1,0.1,0.2,0.2,0.3,0.2c0.1,0.1,0.2,0.2,0.2,0.4s0.1,0.3,0.1,0.4c0.1,0.5,0,0.9-0.2,1.2
		c-0.2,0.4-0.6,0.6-1,0.8c-0.1,0-0.3,0.1-0.4,0c-0.1,0-0.3,0-0.4,0c0,0-0.1,0-0.1-0.1c0,0-0.1,0-0.1-0.1c0,0-0.1-0.1-0.2-0.1
		c-0.1,0-0.1-0.1-0.2-0.2c-0.1-0.1-0.1-0.3-0.1-0.5s0-0.4,0.1-0.7c0.1-0.3,0.3-0.5,0.5-0.8c-0.2-0.1-0.5-0.1-0.7,0
		c-0.2,0.1-0.5,0.2-0.7,0.4c-0.2,0.6-0.1,1.2,0.2,1.7s0.8,0.9,1.4,1.2c0.6,0.3,1.2,0.6,2,0.7c0.8,0.1,1.4,0.3,2.1,0.3
		c0.4,0,0.7-0.1,1-0.3s0.4-0.5,0.5-0.7c0.1-0.3,0.1-0.6,0-0.9C418.1,726.6,418,726.3,417.7,726z M413.4,725.3
		c-0.1-0.3-0.3-0.6-0.7-0.7c-0.3,0.4-0.5,0.7-0.5,1s0.1,0.5,0.2,0.7c0.1,0.2,0.3,0.3,0.5,0.3s0.3-0.1,0.4-0.4l0.1-0.1
		C413.6,725.8,413.6,725.6,413.4,725.3z M412.7,716.4c0.2,1,0.6,1.8,1.1,2.5s1.1,1.3,1.8,1.8l3.9-4.7c-0.5,0.2-1,0.4-1.5,0.5
		c-0.5,0.1-1.1,0.1-1.7,0.2c-0.6,0-1.2,0-1.8-0.1C413.9,716.5,413.3,716.5,412.7,716.4z"/>
	<path class="st0" d="M431.4,708.9C431.4,708.9,431.4,708.8,431.4,708.9c0.1-0.1,0.2-0.1,0.2,0c0,0.3,0.1,0.6,0.2,1
		c0.2,0.4,0.4,0.7,0.7,1.1c0.3,0.3,0.6,0.6,0.9,0.9c0.4,0.2,0.7,0.4,1.1,0.3c0.1,0,0,0-0.2,0.1c-0.2,0.1-0.4,0.2-0.7,0.3
		s-0.5,0.2-0.7,0.3s-0.4,0.1-0.4,0.1c-0.3,0.1-0.5,0.1-0.7,0c-0.2-0.1-0.4-0.2-0.5-0.4c-0.1-0.2-0.2-0.4-0.3-0.6s-0.2-0.4-0.3-0.6
		s-0.2-0.4-0.4-0.5c-0.2-0.1-0.4-0.2-0.6-0.2c0,0.5,0.1,0.9,0.4,1.3c0.3,0.4,0.6,0.7,0.9,0.9c0.2,0.1,0.2,0.2,0.2,0.3
		c-0.1,0.1-0.2,0.1-0.4,0.1s-0.5,0-0.7-0.1c-0.2-0.1-0.6-0.2-0.9-0.3s-0.6-0.4-0.8-0.8c-0.2-0.3-0.4-0.7-0.5-1.3
		c0.2-0.1,0.4-0.2,0.7-0.3s0.7-0.3,1-0.4c0.4-0.1,0.7-0.3,1-0.5S431.2,709.2,431.4,708.9L431.4,708.9z M432.6,715.7
		c-0.2,0.4-0.3,0.8-0.4,1.2c-0.1,0.4-0.2,0.8-0.2,1.2l0,0l-0.6,11.2c-0.1,0.1,0,0.3,0,0.5c0.1,0.2,0.2,0.4,0.3,0.5
		c0.1,0.1,0.2,0.2,0.4,0.3s0.3-0.1,0.4-0.3c0.1-0.2,0.1-0.3-0.1-0.4c-0.2-0.1-0.3-0.1-0.5,0l0.1-0.3l0,0c0-0.1,0.1-0.2,0.2-0.3
		c0.1-0.1,0.2-0.2,0.3-0.2c0.3-0.1,0.5,0,0.7,0.1c0.2,0.1,0.3,0.4,0.3,0.7c0,0.2-0.1,0.3-0.2,0.4c-0.1,0.1-0.2,0.2-0.4,0.4
		c-0.2,0.1-0.3,0.2-0.5,0.3c-0.2,0.1-0.3,0.2-0.4,0.2l-0.3,0.2c-0.3,0.1-0.5,0.3-0.8,0.4c-0.2,0.2-0.5,0.3-0.7,0.5h-0.1
		c-0.7-0.5-1.3-1.2-1.7-2.1c0.1-1.8,0.1-3.3,0.2-4.6c0.1-1.2,0.1-2.3,0.1-3.1c0-0.8,0.1-1.4,0.1-1.9c0-0.4,0-0.8,0-1s0-0.3,0-0.4
		c0.1-0.6,0.3-1.1,0.5-1.7c0.2-0.5,0.5-1,0.8-1.4c0.3-0.4,0.7-0.8,1.2-1.2s1-0.7,1.7-1l1.6-0.2c0,0,0,0,0,0.1c0,0.1-0.1,0.1-0.1,0.1
		c-0.2,0.1-0.4,0.2-0.5,0.3c-0.2,0.1-0.3,0.2-0.4,0.3c-0.1,0.1-0.3,0.2-0.4,0.4C432.8,715.2,432.7,715.4,432.6,715.7z"/>
	<path class="st0" d="M448.8,729.3c-0.2,0.4-0.6,0.8-1,1.4c-0.4,0.5-1.1,1.1-2,1.7c-0.1,0.1-0.3,0.1-0.5,0.2
		c-0.2,0.1-0.4,0.1-0.5,0.1c-0.7,0.1-1.4,0-2-0.1c-0.6-0.2-1.2-0.4-1.6-0.8c-0.5-0.3-0.9-0.8-1.2-1.3s-0.5-1-0.7-1.6l0,0
		c-0.2-0.7-0.3-1.5-0.2-2.4c0-0.8,0.2-1.7,0.5-2.5c0.1-0.4,0.4-0.7,0.6-1v-0.3c-0.2-0.2-0.3-0.4-0.5-0.7c-0.1-0.3-0.2-0.6-0.3-0.9
		s-0.1-0.7-0.1-1s0.1-0.6,0.2-0.9c0.1-0.1,0.1-0.3,0.2-0.6c0.1-0.2,0.2-0.5,0.5-0.9c0.2-0.3,0.5-0.7,1-1.1c0.4-0.4,1-0.8,1.6-1.2
		c0.1-0.1,0.3-0.1,0.5-0.1s0.4-0.1,0.5-0.1c1-0.1,1.9,0,2.7,0.4c0.8,0.4,1.5,0.9,2,1.5c0.3,0.3,0.5,0.7,0.6,1.1
		c0.2,0.4,0.2,1,0.3,1.7v0.1l-0.5,8.4L448.8,729.3z M446.4,719.3c-0.1-0.2-0.1-0.3-0.2-0.5s-0.1-0.3-0.2-0.4l-0.2-0.4
		c-0.4-0.6-0.8-0.9-1.2-1.1s-0.9-0.1-1.3,0c-0.4,0.2-0.7,0.5-1,0.9c-0.3,0.4-0.4,0.9-0.5,1.4c0,0.3,0.1,0.5,0.1,0.8
		c0,0.2,0.1,0.5,0.2,0.7c0.1,0.1,0.2,0.2,0.3,0.3c0.1,0.1,0.3,0.1,0.4,0.2c0.2-0.1,0.4-0.1,0.6-0.1c0.2,0,0.4,0,0.5,0.1
		c0.3,0.1,0.5,0.2,0.7,0.5c0.2,0.2,0.4,0.5,0.5,0.8s0.2,0.6,0.1,1c0,0.4-0.1,0.7-0.3,1c-0.1,0.1-0.2,0.2-0.3,0.3
		c-0.1,0.1-0.2,0.2-0.4,0.2c-0.1,0.1-0.3,0.1-0.4,0.1c-0.1,0-0.3-0.1-0.4-0.2c-0.1,0-0.2,0-0.2-0.1c-0.1-0.1-0.1-0.1-0.2-0.2
		c0,0,0,0,0-0.1c0.2,0.1,0.4,0,0.5-0.1c0.1-0.1,0.2-0.3,0.2-0.5s0-0.3-0.1-0.5c-0.1-0.1-0.2-0.2-0.5-0.1l0,0l0,0
		c-0.3,0.1-0.6,0.2-0.8,0.5c-0.2,0.2-0.4,0.5-0.5,0.9c-0.1,0.3-0.2,0.7-0.3,1c-0.1,0.4-0.1,0.7-0.1,1c0,0.8,0.1,1.6,0.4,2.2l0,0
		c0.2,0.6,0.5,1.1,0.8,1.4s0.5,0.6,0.8,0.7c0.3,0.1,0.5,0.2,0.8,0.1c0.3-0.1,0.5-0.2,0.7-0.4l0.3-0.3c0.1-0.2,0.2-0.3,0.3-0.5
		s0.2-0.4,0.2-0.7l0.5-9.2L446.4,719.3z"/>
	<path class="st0" d="M458.5,725.3c-0.3,0.7-0.4,1.3-0.4,1.9c0,0.6,0.1,1.1,0.3,1.6s0.5,0.9,0.9,1.4c0.4,0.4,0.9,0.9,1.4,1.4
		c-0.4,0.4-0.8,0.9-1.2,1.2c-0.4,0.4-0.9,0.8-1.4,1.2c-0.2,0-0.5-0.1-0.7-0.4c-0.2-0.2-0.4-0.4-0.6-0.6c-0.3-0.3-0.6-0.7-0.8-1.1
		c-0.2-0.4-0.4-0.8-0.6-1.3c-0.2-0.5-0.3-0.9-0.4-1.4c-0.1-0.5-0.1-0.9-0.1-1.4c0-1,0.2-1.9,0.6-2.6c0.4-0.8,0.8-1.6,1.3-2.3
		c0.2-0.2,0.3-0.5,0.5-0.7c0.2-0.3,0.3-0.5,0.4-0.8c0.2-0.4,0.2-0.8,0-1.2c-0.1-0.4-0.3-0.7-0.6-1s-0.5-0.5-0.8-0.7
		s-0.5-0.3-0.7-0.3l3.6-2.4c0.2,0.3,0.5,0.5,0.7,0.7s0.4,0.5,0.6,1c0.2,0.4,0.3,0.9,0.3,1.4l2.5-2.6l0,0v-0.1l2.8,3.8l-0.5,6.6
		c-0.1,1-0.2,2-0.3,2.8c-0.2,0.9-0.4,1.6-0.8,2.3c-0.4,0.7-1,1.3-1.7,1.9c-0.7,0.5-1.6,1-2.7,1.4l-2,0.1l0.1-0.1
		c0.1,0,0.1-0.1,0.1-0.1c0.2-0.1,0.5-0.2,0.7-0.3c0.2-0.1,0.4-0.2,0.6-0.3c0.2-0.1,0.4-0.3,0.5-0.4c0.2-0.2,0.3-0.4,0.5-0.7
		c0.3-0.5,0.6-1.1,0.9-1.6c0.3-0.5,0.5-1.1,0.8-1.7l0.7-9.5l-0.5-0.7l-2.4,2.2c-0.3,0.6-0.6,1.1-0.9,1.7
		C458.9,724.2,458.7,724.7,458.5,725.3z"/>
	<path class="st0" d="M481.8,735.7c-1.4-0.8-2.2-2.1-2.6-3.7l0,0c0,0.1-0.1,0.1-0.2,0.2c-0.1,0.1-0.1,0.2-0.2,0.3
		c-0.1,0.1-0.2,0.2-0.3,0.4s-0.3,0.4-0.5,0.6s-0.5,0.4-0.7,0.5c-0.3,0.2-0.5,0.3-0.8,0.5s-0.5,0.3-0.7,0.5c-0.7,0-1.3-0.3-1.9-0.8
		c-0.6-0.5-1.1-1.1-1.5-1.9s-0.6-1.6-0.8-2.6c-0.1-1,0-2,0.3-3c0.4-0.3,0.8-0.6,1.2-0.9s0.9-0.5,1.3-0.7c0.4-0.2,0.9-0.5,1.3-0.8
		c0.4-0.3,0.8-0.6,1.2-0.9l0.2,0.1l0,0c0.5,0.3,1,0.7,1.4,1.2s0.8,0.9,1.1,1.4l0.5-6.2l-7.6-0.7l2.2-2.4l8.3,0.7l-1,12.1l0,0
		c-0.1,0.4-0.1,0.9-0.1,1.2c0.1,0.4,0.2,0.7,0.4,1s0.3,0.5,0.5,0.8c0.2,0.2,0.3,0.4,0.5,0.5L481.8,735.7z M475,730.6
		c0.4,0.7,0.7,1.2,1.1,1.5c0.4,0.3,0.7,0.4,1,0.4s0.5-0.1,0.7-0.4c0.2-0.2,0.3-0.4,0.4-0.7c-0.1,0.1-0.3,0.1-0.4,0
		c-0.2-0.1-0.3-0.1-0.3-0.1c-0.2-0.2-0.3-0.4-0.4-0.6c0-0.2,0-0.4,0.1-0.5c0.1-0.1,0.3-0.2,0.4-0.3s0.4,0,0.6,0
		c0.1,0,0.2,0.1,0.3,0.2c0.1,0.1,0.2,0.1,0.3,0.2l-0.3-0.4c-0.2-0.4-0.5-0.7-0.8-1.1c-0.3-0.4-0.6-0.8-0.9-1.1c-0.3-0.4-0.6-0.7-1-1
		s-0.7-0.6-1.1-0.9c-0.1,0.4-0.2,0.8-0.2,1.3c-0.1,0.5-0.1,0.9-0.1,1.3c0,0.4,0.1,0.9,0.1,1.3C474.7,730,474.8,730.3,475,730.6z"/>
	<path class="st0" d="M495.3,710.7c-0.2,0.4-0.3,0.7-0.4,1.1c-0.1,0.4-0.2,0.8-0.3,1.1l-2.2,21.3c-0.1,0.1-0.1,0.3,0,0.5
		s0.1,0.4,0.3,0.5c0.1,0.2,0.2,0.2,0.4,0.3c0.1,0,0.3-0.1,0.4-0.3c0.1-0.2,0.1-0.3-0.1-0.4c-0.1-0.1-0.3-0.1-0.5,0l0.1-0.3l0,0
		c0-0.1,0.1-0.2,0.2-0.3s0.2-0.1,0.3-0.2c0.3-0.1,0.5,0,0.7,0.2s0.3,0.4,0.3,0.7c0,0.2-0.1,0.3-0.2,0.4c-0.1,0.1-0.3,0.2-0.4,0.3
		c-0.2,0.1-0.3,0.2-0.5,0.3c-0.2,0.1-0.3,0.1-0.4,0.2l-0.3,0.2c-0.3,0.1-0.5,0.3-0.8,0.4c-0.2,0.2-0.5,0.3-0.8,0.5H491
		c-0.7-0.6-1.2-1.3-1.6-2.2l1.9-20.5c0-0.1,0-0.2,0.1-0.2c0,0,0,0,0-0.1c0.1-0.6,0.3-1.1,0.5-1.6s0.5-1,0.9-1.4
		c0.3-0.4,0.8-0.8,1.3-1.1c0.5-0.3,1.1-0.6,1.7-0.9l1.6-0.1c0,0,0,0-0.1,0.1c0,0.1-0.1,0.1-0.1,0.1c-0.2,0.1-0.4,0.2-0.5,0.3
		c-0.2,0.1-0.3,0.2-0.5,0.3c-0.1,0.1-0.3,0.2-0.4,0.4C495.6,710.3,495.5,710.5,495.3,710.7z"/>
	<path class="st0" d="M513.7,720.8l-0.3,0.3c-0.4,0.6-0.8,1-1.3,1.3l-4.9,5c0.4,0.4,0.8,0.7,1.3,1c0.4,0.3,0.9,0.7,1.3,1
		c0.4,0.3,0.8,0.6,1.3,0.9s0.8,0.6,1.1,0.9c-0.1,0.4-0.3,0.8-0.5,1.3c-0.3,0.5-0.5,0.9-0.9,1.4l0,0c-0.2,0.4-0.5,0.8-0.9,1.3
		s-0.7,0.9-1.1,1.3c-0.4,0.4-0.8,0.8-1.2,1s-0.7,0.4-1.1,0.4c-0.7,0-1.4-0.2-2.2-0.4s-1.5-0.6-2.1-1c-0.7-0.4-1.2-1-1.6-1.6
		c-0.4-0.6-0.7-1.4-0.7-2.2c0-0.7,0.2-1.3,0.5-1.8s0.7-0.9,1.1-1.2c0.4-0.3,0.9-0.4,1.4-0.4s1,0.2,1.5,0.5l0.3-0.3l-0.2-0.2
		c-0.9-0.7-1.7-1.6-2.2-2.6s-1-2.1-1.3-3.2c0.6,0,1.1-0.2,1.5-0.5c0.5-0.3,0.9-0.6,1.3-1c0.4-0.4,0.8-0.8,1.2-1.3s0.8-0.9,1.2-1.3
		c0.4,0.4,0.8,0.6,1.3,0.7c0.5,0.1,0.9,0.2,1.4,0.3c0.7,0.1,1.4,0.2,2.2,0.2c0.7,0,1.4,0,2.2,0l0.2-0.2L513.7,720.8z M508.6,732.7
		c-0.6-0.4-1.1-0.8-1.4-1.1c-0.4-0.3-0.7-0.5-1-0.8s-0.5-0.4-0.7-0.6s-0.4-0.3-0.6-0.5l-0.3,0.3c0.1,0.1,0.2,0.2,0.3,0.2
		c0.1,0.1,0.2,0.2,0.3,0.3c0.1,0.1,0.2,0.2,0.2,0.4s0.1,0.3,0.1,0.4c0.1,0.5,0,0.9-0.3,1.2s-0.6,0.6-1,0.7c-0.1,0-0.3,0-0.4,0
		c-0.1,0-0.3-0.1-0.4-0.1c0,0-0.1,0-0.1-0.1c0,0-0.1,0-0.1-0.1c0,0-0.1-0.1-0.2-0.2c-0.1,0-0.1-0.1-0.2-0.2c0-0.1-0.1-0.3-0.1-0.5
		s0.1-0.4,0.2-0.7c0.1-0.2,0.3-0.5,0.6-0.8c-0.2-0.1-0.5-0.1-0.7-0.1s-0.5,0.1-0.7,0.3c-0.2,0.6-0.2,1.2,0.1,1.7s0.7,1,1.3,1.3
		c0.6,0.4,1.2,0.7,1.9,0.9c0.7,0.2,1.4,0.4,2,0.5c0.4,0,0.7,0,1-0.2s0.5-0.4,0.6-0.7s0.2-0.6,0.1-0.9
		C509,733.3,508.9,733,508.6,732.7z M504.4,731.7c-0.1-0.3-0.3-0.6-0.6-0.8c-0.3,0.3-0.5,0.6-0.6,0.9c0,0.3,0,0.5,0.2,0.7
		s0.3,0.3,0.5,0.3s0.3-0.1,0.4-0.3l0.1-0.1C504.6,732.2,504.5,732,504.4,731.7z M504.3,722.7c0.1,1,0.4,1.8,0.9,2.6
		c0.5,0.8,1,1.4,1.7,2l4.3-4.4c-0.5,0.2-1,0.3-1.5,0.3s-1.1,0.1-1.7,0c-0.6,0-1.2-0.1-1.8-0.2C505.6,722.9,505,722.8,504.3,722.7z"
		/>
	<path class="st0" d="M543.7,721.5c-0.4,0.2-0.6,0.5-0.7,0.8s0,0.6,0.1,0.9s0.4,0.4,0.7,0.5c0.3,0.1,0.7,0,1-0.3
		c0.5-0.3,0.7-0.7,0.8-1c0-0.4-0.1-0.7-0.3-1s-0.6-0.6-1-0.9s-1-0.5-1.6-0.8s-1.2-0.4-1.8-0.5c-0.6-0.1-1.2-0.1-1.8-0.1l-2.7,18.9
		c0.8,0.2,1.5,0.3,2.3,0.2s1.5-0.3,2.2-0.6s1.4-0.7,2.1-1.2s1.3-1,2-1.5c0.6-0.5,1.2-1.1,1.8-1.6c0.5-0.5,1.1-1,1.5-1.5l-0.1,0.4
		c-0.1,0.7-0.3,1.5-0.7,2.3c-0.3,0.8-0.8,1.6-1.3,2.4c-0.6,0.8-1.2,1.5-1.9,2.2s-1.5,1.3-2.4,1.8s-1.8,0.8-2.8,1.1
		c-1,0.2-2,0.3-3.1,0.1c-0.2,0-0.3-0.1-0.5-0.4c-0.2-0.2-0.3-0.4-0.4-0.6c-0.2-0.3-0.5-0.7-0.9-1.2s-0.8-1-1.1-1.4
		c-0.4-0.6-0.9-1.1-1.3-1.7l2.5-17.7c0-0.2,0.2-0.5,0.5-0.8s0.7-0.6,1.2-0.9s1-0.5,1.6-0.8s1.2-0.5,1.7-0.7s1-0.3,1.5-0.4
		c0.4-0.1,0.8-0.1,1-0.1c1.5,0.2,2.8,0.6,3.9,1.3c1,0.6,1.8,1.4,2.1,2.2c0.4,0.9,0.4,1.8,0,2.9c-0.4,1.1-1.2,2.1-2.4,3.2
		c-0.3,0.3-0.7,0.5-1.1,0.5c-0.4,0-0.8,0-1.2-0.2c-0.4-0.1-0.7-0.4-0.9-0.7s-0.4-0.6-0.4-0.9s0.1-0.7,0.4-1S543,721.8,543.7,721.5z
		 M535.3,736.8c0.1,0,0.1,0.1,0.2,0.2c0.1,0.1,0.1,0.2,0.2,0.3s0.1,0.2,0.2,0.3c0.1,0.1,0.1,0.1,0.2,0.2l2.7-18.7l-1,0.8
		L535.3,736.8z"/>
	<path class="st0" d="M562.1,745.9c-1.3-0.9-2.1-2.2-2.3-3.8l0,0c0,0.1-0.1,0.1-0.2,0.2c-0.1,0.1-0.2,0.2-0.2,0.3s-0.2,0.2-0.3,0.3
		c-0.2,0.2-0.4,0.4-0.6,0.6c-0.2,0.2-0.5,0.3-0.8,0.5c-0.3,0.1-0.5,0.3-0.8,0.4c-0.3,0.1-0.5,0.3-0.8,0.5c-0.7-0.1-1.3-0.4-1.8-0.9
		c-0.6-0.5-1-1.2-1.3-2s-0.5-1.7-0.6-2.7c0-1,0.1-2,0.5-3c0.4-0.3,0.8-0.6,1.3-0.8c0.5-0.2,0.9-0.4,1.3-0.7c0.4-0.3,0.9-0.4,1.3-0.7
		c0.4-0.2,0.9-0.5,1.3-0.8l0.2,0.1l0,0c0.5,0.4,0.9,0.8,1.3,1.3c0.4,0.5,0.7,1,1,1.5l1-6.2l-7.5-1.3l2.4-2.2l8.2,1.3l-1.9,12l0,0
		c-0.1,0.4-0.2,0.8-0.1,1.2c0,0.4,0.1,0.7,0.3,1s0.3,0.6,0.5,0.8c0.2,0.2,0.3,0.4,0.4,0.5L562.1,745.9z M555.7,740.3
		c0.3,0.7,0.6,1.3,1,1.6c0.3,0.3,0.6,0.4,0.9,0.4c0.3,0,0.5-0.1,0.8-0.3c0.3-0.2,0.4-0.4,0.4-0.7c-0.1,0.1-0.3,0.1-0.4,0
		c-0.2-0.1-0.3-0.1-0.3-0.2c-0.2-0.2-0.3-0.5-0.3-0.7s0-0.4,0.2-0.5c0.2-0.1,0.3-0.2,0.5-0.2s0.4,0,0.6,0.1c0.1,0,0.2,0.1,0.2,0.2
		c0.1,0.1,0.2,0.1,0.2,0.2l-0.2-0.4c-0.2-0.4-0.4-0.8-0.7-1.2c-0.2-0.4-0.5-0.8-0.8-1.2s-0.6-0.8-0.9-1.1c-0.3-0.4-0.6-0.7-1-0.9
		c-0.1,0.4-0.2,0.8-0.3,1.3c-0.1,0.4-0.2,0.9-0.2,1.3c0,0.4,0,0.9,0,1.3S555.5,740,555.7,740.3z"/>
	<path class="st0" d="M571.5,747.6c-0.2,0-0.3-0.1-0.5-0.3c-0.2-0.2-0.3-0.4-0.5-0.8c-0.3-0.3-0.5-0.7-0.7-1.1
		c-0.2-0.4-0.4-0.9-0.5-1.3c-0.1-0.4-0.2-1-0.2-1.4c0-0.4,0-0.9,0-1.4c0.1-1,0.4-1.8,0.9-2.6c0.5-0.7,1-1.5,1.6-2.2
		c0.2-0.2,0.4-0.4,0.6-0.7c0.2-0.2,0.4-0.5,0.5-0.8c0.2-0.4,0.2-0.8,0.2-1.1c-0.1-0.4-0.2-0.7-0.5-1.1c-0.3-0.4-0.5-0.6-0.8-0.8
		c-0.3-0.2-0.5-0.3-0.7-0.3l3.8-2c0.2,0.3,0.4,0.6,0.6,0.9c0.2,0.3,0.4,0.6,0.5,0.9c0.1,0.4,0.2,0.7,0.2,1.1l2.4-2.1v0.1v-0.1
		l1.9,3.2l3.3-2.3v0.1v-0.1l2.4,4.1l-1.2,6.5c-0.2,1-0.4,1.9-0.6,2.8c-0.2,0.8-0.6,1.6-1.1,2.2c-0.5,0.7-1.1,1.2-1.8,1.7
		c-0.8,0.5-1.7,0.8-2.9,1.1l-2-0.1l0.1-0.1c0.1,0,0.1-0.1,0.1-0.1c0.3-0.1,0.5-0.2,0.7-0.3s0.4-0.2,0.5-0.3c0.2-0.1,0.3-0.2,0.5-0.4
		c0.2-0.1,0.4-0.3,0.7-0.5c0.9-0.7,1.6-1.7,2.1-3.1l1.7-9.3l-0.5-0.8l-1.7,1.1l-1.5,8.6c-0.3,1.1-0.8,1.9-1.5,2.4
		c-0.7,0.6-1.5,0.8-2.3,0.9c0,0,0-0.1,0.1-0.2l2.3-12.9l-0.5-0.8l-1.8,1.4c-0.3,0.7-0.7,1.3-1.2,1.9c-0.5,0.6-0.9,1.3-1.2,1.9
		c-0.3,0.5-0.4,1-0.5,1.5s-0.1,1,0,1.4c0.1,0.4,0.2,0.8,0.4,1.2c0.2,0.4,0.5,0.7,0.9,0.9c0,0,0.1,0,0.2-0.1c0.1-0.1,0.2-0.2,0.4-0.4
		c-0.1,0.1-0.3,0.1-0.4,0c-0.2-0.1-0.3-0.1-0.3-0.2c-0.2-0.2-0.3-0.5-0.3-0.7s0.1-0.4,0.2-0.5c0.1-0.1,0.3-0.2,0.5-0.2
		s0.4,0,0.6,0.1c0.1,0,0.2,0.1,0.2,0.2c0.1,0.1,0.2,0.2,0.2,0.2c0.3,0.2,0.4,0.5,0.4,0.8s0,0.7-0.1,1.1l0,0
		c-0.5,0.7-1.1,1.2-1.7,1.7S572.3,747.1,571.5,747.6z"/>
	<path class="st0" d="M596,737.3l0.2-0.9l-0.1,0.7c0.3-0.2,0.6-0.4,1-0.7c0.4-0.3,0.7-0.6,1.1-0.8c0.4-0.3,0.7-0.5,0.9-0.7
		c0.3-0.2,0.4-0.3,0.5-0.4c0.3,0.1,0.7,0.4,1.1,0.7c0.4,0.3,0.8,0.7,1.3,1.1c0.4,0.4,0.8,0.9,1.2,1.4s0.6,0.9,0.8,1.3l-2.2,11.3
		c0,0.1-0.2,0.2-0.5,0.4c-0.3,0.2-0.8,0.4-1.3,0.6s-1.2,0.4-1.9,0.6s-1.4,0.3-2.2,0.4c-0.1,0-0.3-0.1-0.5-0.2
		c-0.2-0.1-0.4-0.3-0.6-0.4c-0.2-0.1-0.4-0.3-0.6-0.5c-0.2-0.2-0.4-0.3-0.5-0.5l-1.2,6.2c0,0.5-0.1,1-0.1,1.4c0,0.4,0,0.8,0,1.2
		c0,0.4,0.1,0.7,0.3,0.9c0.2,0.3,0.4,0.4,0.7,0.6c0,0.1,0.1,0.1,0,0.2c0,0.1-0.1,0.1-0.1,0.1c-0.7,0-1.3-0.1-1.8-0.5
		c-0.5-0.4-0.9-0.8-1.2-1.5c-0.3-0.6-0.5-1.3-0.6-2.2c-0.1-0.8-0.1-1.7,0-2.6l3-14.9l0.7-3.4c0.1-0.1,0.1-0.3,0-0.5
		s-0.1-0.4-0.2-0.6c-0.1-0.2-0.2-0.3-0.3-0.3s-0.3,0-0.4,0.3c-0.1,0.2-0.1,0.3,0,0.4c0.1,0.1,0.3,0.1,0.5,0.1l-0.2,0.3l0,0
		c-0.1,0.1-0.1,0.2-0.2,0.3c-0.1,0.1-0.2,0.1-0.4,0.1c-0.1,0-0.3,0-0.4,0c-0.1,0-0.2-0.1-0.3-0.2c-0.1-0.1-0.2-0.2-0.2-0.3
		c0-0.1,0-0.3,0-0.4c0-0.1,0.1-0.3,0.3-0.4c0.1-0.1,0.3-0.2,0.4-0.3c0.2-0.1,0.3-0.2,0.5-0.2c0.2-0.1,0.3-0.1,0.4-0.2l0.3-0.2
		c0.3-0.1,0.6-0.2,0.8-0.3c0.3-0.1,0.5-0.3,0.8-0.4h0.1c0.6,0.6,1.1,1.4,1.4,2.3L596,737.3z M594.7,746.6c0.3-0.2,0.6-0.2,1,0
		c0.3,0.1,0.5,0.2,0.6,0.5s0.2,0.6,0.2,0.9s-0.1,0.6-0.3,1c-0.2,0.3-0.4,0.6-0.7,0.7c0.2-0.2,0.3-0.5,0.2-0.7
		c-0.1-0.3-0.2-0.5-0.3-0.6c-0.2-0.1-0.4-0.2-0.6-0.1c-0.2,0.1-0.4,0.4-0.5,0.8c0.3,0.4,0.5,0.7,0.7,0.8s0.4,0.3,0.5,0.3
		c0.3,0,0.5-0.1,0.8-0.1c0.2,0,0.5-0.1,0.8-0.2c0.2-0.1,0.3-0.1,0.4-0.2c0.1,0,0.1-0.1,0.2-0.1l0.4-0.4l0.9-0.9l1.5-7.7
		c-0.1-0.3-0.3-0.6-0.5-0.9s-0.4-0.6-0.7-0.8c-0.2-0.2-0.4-0.4-0.6-0.5c-0.2-0.2-0.4-0.3-0.6-0.4c-0.1,0-0.2,0.1-0.3,0.2
		c-0.1,0.1-0.2,0.1-0.3,0.2c-0.2,0.2-0.5,0.4-0.9,0.6s-0.7,0.5-0.9,0.7l-1.4,7.4C594.3,746.8,594.5,746.7,594.7,746.6z"/>
</g>
<g id="_x23__in_line_text">
	<g>
		<path class="st0" d="M558.9,631l1,3.2l23.1,4.7l-2.1-6.9l17.8,17.9L545,637l-6.3,4.5l-5.7-10.8l6.6-8.6l4.8,7.5
			C544.3,629.6,551.8,633.1,558.9,631"/>
		<path class="st0" d="M564.4,611.1l1,3.2l23.1,4.7l-2.1-6.9l17.8,17.9l-53.7-12.9l-6.3,4.5l-5.7-10.8l6.6-8.6l4.8,7.5
			C549.8,609.7,557.3,613.2,564.4,611.1"/>
		<polygon class="st0" points="572.7,602.4 579.2,600.7 563.2,654.4 568.6,662.6 577.9,659.3 569.8,653.9 584.6,602 577.2,594.5 
			568.1,599.5 		"/>
		<polygon class="st0" points="554.2,598 560.8,596.3 544.7,649.9 550.1,658.2 559.5,654.9 551.3,649.4 566.1,597.6 558.7,590 
			549.7,595 		"/>
	</g>
</g>
</svg>
